<svg width="256" height="256" viewBox="0 0 256 256" fill="none" xmlns="http://www.w3.org/2000/svg">
<g clip-path="url(#clip0_380_449)">
<path fill-rule="evenodd" clip-rule="evenodd" d="M256.013 203.509C256.013 232.385 232.389 256.009 203.513 256.009H52.5124C23.6368 256.009 0.0126953 232.385 0.0126953 203.509V52.5085C0.0126953 23.6329 23.6368 0.00878906 52.5124 0.00878906H203.513C232.389 0.00878906 256.013 23.6329 256.013 52.5085V203.509Z" fill="#FFDD00"/>
<path d="M114.74 78.4628C120.363 86.0303 123.804 95.315 124.201 105.38V107.116C124.201 116.923 121.294 126.069 116.249 133.668L76.0594 194.988L74.9774 196.642C74.5371 197.309 73.7948 197.712 72.9959 197.712H40.2539C38.675 197.712 37.7314 195.963 38.5932 194.642L65.2523 153.968C43.915 149.048 28 129.944 28 107.11L28.044 105.374C28.3963 95.3339 31.8246 86.0743 37.4232 78.5131C46.1858 66.6744 60.2451 59 76.1034 59C91.9303 59.0126 105.971 66.6618 114.74 78.4628ZM90.169 115.948L91.5088 113.897C92.9494 111.287 93.7042 108.355 93.6916 105.374C93.6728 95.6673 85.8034 87.8105 76.0971 87.8105C66.3909 87.8105 58.5215 95.6736 58.5026 105.405C58.5026 115.124 66.3783 123.006 76.0971 123.006C81.8592 123.012 86.9545 120.232 90.169 115.948ZM218.533 78.4628C224.157 86.0303 227.597 95.315 228 105.38V107.116C228 116.923 225.094 126.069 220.049 133.668L179.859 194.988L178.777 196.642C178.337 197.309 177.594 197.712 176.795 197.712H144.053C142.474 197.712 141.531 195.963 142.393 194.642L169.052 153.968C147.714 149.048 131.799 129.944 131.799 107.11L131.843 105.374C132.202 95.3339 135.624 86.0743 141.223 78.5131C149.985 66.6744 164.045 59 179.903 59C195.73 59.0126 209.77 66.6618 218.533 78.4628ZM193.962 115.948L195.302 113.897C196.743 111.287 197.497 108.355 197.485 105.374C197.466 95.6673 189.597 87.8105 179.89 87.8105C170.184 87.8105 162.308 95.6736 162.289 105.405C162.289 115.124 170.171 123.006 179.89 123.006C185.659 123.012 190.754 120.232 193.962 115.948Z" fill="black"/>
</g>
<defs>
<clipPath id="clip0_380_449">
<rect width="256" height="256" fill="white"/>
</clipPath>
</defs>
</svg>
