<svg width="256" height="256" viewBox="0 0 256 256" fill="none" xmlns="http://www.w3.org/2000/svg">
<g clip-path="url(#clip0_380_484)">
<rect width="256" height="256" rx="60" fill="#242938"/>
<path d="M148.538 114.355L161.214 109.602L148.538 104.611V98L170.248 106.811V112.294L148.538 121.158V114.355Z" fill="#A100FF"/>
<path d="M27.3476 157.246C22.7699 157.246 19 154.961 19 149.853V149.584C19 143.401 24.3856 141.251 30.9829 141.251H34.0796V140.041C34.0796 137.487 33.0025 136.008 30.3097 136.008C27.8862 136.008 26.6744 137.352 26.5398 139.234H19.8078C20.3464 133.589 24.7895 130.9 30.7136 130.9C36.7724 130.9 41.2155 133.454 41.2155 139.772V156.708H34.3489V153.751C33.0025 155.633 30.7136 157.246 27.3476 157.246ZM34.0796 148.375V145.955H31.2522C27.7516 145.955 26.0012 146.896 26.0012 149.181V149.45C26.0012 151.197 27.0784 152.407 29.5019 152.407C31.9254 152.273 34.0796 150.928 34.0796 148.375ZM57.2375 157.246C50.2363 157.246 45.12 152.945 45.12 144.342V143.939C45.12 135.336 50.5056 130.766 57.2375 130.766C63.0271 130.766 67.7393 133.723 68.2779 140.31H61.546C61.142 137.89 59.7957 136.277 57.3721 136.277C54.4101 136.277 52.2559 138.697 52.2559 143.67V144.476C52.2559 149.584 54.1408 151.869 57.3721 151.869C59.7957 151.869 61.546 150.122 61.9499 147.299H68.4127C68.0087 153.213 64.1042 157.246 57.2375 157.246ZM83.6269 157.246C76.6256 157.246 71.5093 152.945 71.5093 144.342V143.939C71.5093 135.336 76.8948 130.766 83.6269 130.766C89.4163 130.766 94.1287 133.723 94.6673 140.31H87.9352C87.5314 137.89 86.1849 136.277 83.7615 136.277C80.7994 136.277 78.6451 138.697 78.6451 143.67V144.476C78.6451 149.584 80.5302 151.869 83.7615 151.869C86.1849 151.869 87.9352 150.122 88.3392 147.299H94.8019C94.3979 153.213 90.4934 157.246 83.6269 157.246ZM110.151 157.246C102.88 157.246 97.8986 152.945 97.8986 144.476V143.939C97.8986 135.471 103.149 130.766 110.016 130.766C116.344 130.766 121.595 134.261 121.595 142.729V145.821H105.035C105.304 150.391 107.323 152.138 110.285 152.138C112.978 152.138 114.459 150.66 114.998 148.912H121.595C120.787 153.617 116.748 157.246 110.151 157.246ZM105.169 141.116H114.594C114.459 137.352 112.709 135.739 109.882 135.739C107.727 135.874 105.708 137.084 105.169 141.116ZM125.904 131.438H133.039V135.202C134.251 132.782 136.809 130.9 140.714 130.9C145.292 130.9 148.388 133.723 148.388 139.772V156.708H141.252V140.847C141.252 137.89 140.041 136.546 137.482 136.546C135.059 136.546 133.039 138.025 133.039 141.251V156.708H125.904V131.438ZM161.448 123.776V131.438H166.295V136.68H161.448V148.643C161.448 150.525 162.256 151.466 164.007 151.466C165.084 151.466 165.757 151.332 166.43 151.063V156.574C165.622 156.843 164.142 157.111 162.391 157.111C156.871 157.111 154.312 154.558 154.312 149.45V136.68H151.35V131.438H154.312V126.734L161.448 123.776ZM192.954 156.708H185.953V152.945C184.74 155.364 182.317 157.246 178.547 157.246C173.969 157.246 170.604 154.423 170.604 148.509V131.438H177.739V147.568C177.739 150.525 178.951 151.869 181.375 151.869C183.798 151.869 185.819 150.256 185.819 147.165V131.438H192.954V156.708ZM198.205 131.438H205.34V136.143C206.821 132.782 209.245 131.169 213.016 131.169V138.159C208.169 138.159 205.34 139.637 205.34 143.804V156.843H198.205V131.438ZM227.421 157.246C220.151 157.246 215.169 152.945 215.169 144.476V143.939C215.169 135.471 220.42 130.766 227.287 130.766C233.614 130.766 238.865 134.261 238.865 142.729V145.821H222.439C222.709 150.391 224.729 152.138 227.69 152.138C230.384 152.138 231.865 150.66 232.403 148.912H239C237.923 153.617 234.018 157.246 227.421 157.246ZM222.305 141.116H231.865C231.73 137.352 229.98 135.739 227.152 135.739C224.998 135.874 222.978 137.084 222.305 141.116Z" fill="white"/>
</g>
<defs>
<clipPath id="clip0_380_484">
<rect width="256" height="256" fill="white"/>
</clipPath>
</defs>
</svg>
