<svg width="256" height="256" viewBox="0 0 256 256" fill="none" xmlns="http://www.w3.org/2000/svg">
<g clip-path="url(#clip0_380_481)">
<path fill-rule="evenodd" clip-rule="evenodd" d="M256.013 203.509C256.013 232.385 232.389 256.009 203.513 256.009H52.5124C23.6368 256.009 0.0126953 232.385 0.0126953 203.509V52.5085C0.0126953 23.6329 23.6368 0.00878906 52.5124 0.00878906H203.513C232.389 0.00878906 256.013 23.6329 256.013 52.5085V203.509Z" fill="#A100FF"/>
<path d="M147.538 114.355L160.214 109.602L147.538 104.611V98L169.248 106.811V112.294L147.538 121.158V114.355Z" fill="white"/>
<path d="M26.3476 157.246C21.7699 157.246 18 154.961 18 149.853V149.584C18 143.401 23.3856 141.251 29.9829 141.251H33.0796V140.041C33.0796 137.487 32.0025 136.008 29.3097 136.008C26.8862 136.008 25.6744 137.352 25.5398 139.234H18.8078C19.3464 133.589 23.7895 130.9 29.7136 130.9C35.7724 130.9 40.2155 133.454 40.2155 139.772V156.708H33.3489V153.751C32.0025 155.633 29.7136 157.246 26.3476 157.246ZM33.0796 148.375V145.955H30.2522C26.7516 145.955 25.0012 146.896 25.0012 149.181V149.45C25.0012 151.197 26.0784 152.407 28.5019 152.407C30.9254 152.273 33.0796 150.928 33.0796 148.375ZM56.2375 157.246C49.2363 157.246 44.12 152.945 44.12 144.342V143.939C44.12 135.336 49.5056 130.766 56.2375 130.766C62.0271 130.766 66.7393 133.723 67.2779 140.31H60.546C60.142 137.89 58.7957 136.277 56.3721 136.277C53.4101 136.277 51.2559 138.697 51.2559 143.67V144.476C51.2559 149.584 53.1408 151.869 56.3721 151.869C58.7957 151.869 60.546 150.122 60.9499 147.299H67.4127C67.0087 153.213 63.1042 157.246 56.2375 157.246ZM82.6269 157.246C75.6256 157.246 70.5093 152.945 70.5093 144.342V143.939C70.5093 135.336 75.8948 130.766 82.6269 130.766C88.4163 130.766 93.1287 133.723 93.6673 140.31H86.9352C86.5314 137.89 85.1849 136.277 82.7615 136.277C79.7994 136.277 77.6451 138.697 77.6451 143.67V144.476C77.6451 149.584 79.5302 151.869 82.7615 151.869C85.1849 151.869 86.9352 150.122 87.3392 147.299H93.8019C93.3979 153.213 89.4934 157.246 82.6269 157.246ZM109.151 157.246C101.88 157.246 96.8986 152.945 96.8986 144.476V143.939C96.8986 135.471 102.149 130.766 109.016 130.766C115.344 130.766 120.595 134.261 120.595 142.729V145.821H104.035C104.304 150.391 106.323 152.138 109.285 152.138C111.978 152.138 113.459 150.66 113.998 148.912H120.595C119.787 153.617 115.748 157.246 109.151 157.246ZM104.169 141.116H113.594C113.459 137.352 111.709 135.739 108.882 135.739C106.727 135.874 104.708 137.084 104.169 141.116ZM124.904 131.438H132.039V135.202C133.251 132.782 135.809 130.9 139.714 130.9C144.292 130.9 147.388 133.723 147.388 139.772V156.708H140.252V140.847C140.252 137.89 139.041 136.546 136.482 136.546C134.059 136.546 132.039 138.025 132.039 141.251V156.708H124.904V131.438ZM160.448 123.776V131.438H165.295V136.68H160.448V148.643C160.448 150.525 161.256 151.466 163.007 151.466C164.084 151.466 164.757 151.332 165.43 151.063V156.574C164.622 156.843 163.142 157.111 161.391 157.111C155.871 157.111 153.312 154.558 153.312 149.45V136.68H150.35V131.438H153.312V126.734L160.448 123.776ZM191.954 156.708H184.953V152.945C183.74 155.364 181.317 157.246 177.547 157.246C172.969 157.246 169.604 154.423 169.604 148.509V131.438H176.739V147.568C176.739 150.525 177.951 151.869 180.375 151.869C182.798 151.869 184.819 150.256 184.819 147.165V131.438H191.954V156.708ZM197.205 131.438H204.34V136.143C205.821 132.782 208.245 131.169 212.016 131.169V138.159C207.169 138.159 204.34 139.637 204.34 143.804V156.843H197.205V131.438ZM226.421 157.246C219.151 157.246 214.169 152.945 214.169 144.476V143.939C214.169 135.471 219.42 130.766 226.287 130.766C232.614 130.766 237.865 134.261 237.865 142.729V145.821H221.439C221.709 150.391 223.729 152.138 226.69 152.138C229.384 152.138 230.865 150.66 231.403 148.912H238C236.923 153.617 233.018 157.246 226.421 157.246ZM221.305 141.116H230.865C230.73 137.352 228.98 135.739 226.152 135.739C223.998 135.874 221.978 137.084 221.305 141.116Z" fill="white"/>
</g>
<defs>
<clipPath id="clip0_380_481">
<rect width="256" height="256" fill="white"/>
</clipPath>
</defs>
</svg>
