<svg width="256" height="256" viewBox="0 0 256 256" fill="none" xmlns="http://www.w3.org/2000/svg">
<g clip-path="url(#clip0_170_1319)">
<path d="M196 0H60C26.8629 0 0 26.8629 0 60V196C0 229.137 26.8629 256 60 256H196C229.137 256 256 229.137 256 196V60C256 26.8629 229.137 0 196 0Z" fill="#242938"/>
<rect x="51" y="54" width="155" height="148" fill="white"/>
<path d="M128 228C47.3484 228 28 208.652 28 128C28 47.3484 47.3484 28 128 28C208.652 28 228 47.3484 228 128C228 208.652 208.652 228 128 228ZM99.6906 77.4906L68.3258 148.774C66.9 152.237 65.6781 156.716 65.6781 160.587C65.6781 178.305 78.1016 190.73 95.8203 190.73C101.627 190.73 106.449 189.204 111.352 187.653L111.355 187.651C116.425 186.047 121.581 184.416 128 184.416C134.494 184.416 139.527 186.033 144.498 187.63L144.5 187.63C149.352 189.189 154.145 190.73 160.179 190.73C177.898 190.73 190.322 178.305 190.322 160.587C190.322 156.716 189.099 152.237 187.674 148.774L156.31 77.4906C151.013 65.475 140.831 58.957 128 58.957C115.169 58.957 104.986 65.4742 99.6906 77.4906ZM97.0422 159.976L128 89.9148L158.55 159.976C149.792 155.699 138.795 153.663 128 153.663C116.798 153.663 106.207 155.699 97.0422 159.976Z" fill="#5A46FF"/>
</g>
<defs>
<clipPath id="clip0_170_1319">
<rect width="256" height="256" fill="white"/>
</clipPath>
</defs>
</svg>
