<svg width="256" height="256" viewBox="0 0 256 256" fill="none" xmlns="http://www.w3.org/2000/svg">
<g clip-path="url(#clip0_248_3006)">
<rect width="256" height="256" rx="60" fill="#242938"/>
<path d="M173.186 64.648C167.434 61.5405 160.758 60 153.461 60C142.732 60 134.441 63.5447 128 69.44C121.559 63.5447 113.268 60 102.544 60C95.2529 60 88.5708 61.5405 82.819 64.648C48.7943 71.7107 28 96.5552 28 131.623C28 183.178 69.1825 192.501 71.5826 193.14C98.2571 200.241 102.747 187.384 103.485 185.998C105.981 187.314 117.165 193.162 128 193.3C138.835 193.162 150.018 187.314 152.515 185.998C153.252 187.384 157.743 200.241 184.417 193.14C186.817 192.501 228 183.178 228 131.623C228 96.5498 207.205 71.7107 173.181 64.648H173.186ZM86.9298 189.207C55.6527 188.093 34.388 164.863 34.388 131.623C34.388 104.284 47.8856 84.109 71.2832 74.685C65.0128 83.0802 61.3726 95.1321 61.3726 110.936C61.3726 141.538 75.6719 168.52 98.1394 182.906C98.1394 188.071 89.9768 189.319 86.9351 189.207H86.9298ZM100.385 177.32C80.7556 163.85 67.7551 139.997 67.7551 110.926C67.7551 67.4518 96.3807 66.3591 102.55 66.3591C110.942 66.3591 117.94 68.8323 123.718 74.0347C110.023 91.0116 106.639 120.248 104.939 143.723C104.089 156.916 100.385 177.32 100.385 177.32ZM128 188.135C123.996 188.135 114.775 185.705 105.762 180.673C108.729 171.974 110.098 159.506 111.006 144.048C113.257 112.093 118.64 90.7985 127.995 78.7147C137.349 90.7985 142.732 112.093 144.983 144.048C145.892 159.506 147.26 171.974 150.227 180.673C141.214 185.699 131.993 188.135 127.989 188.135H128ZM151.066 143.728C149.361 120.254 145.977 91.017 132.287 74.04C138.066 68.8376 145.063 66.3644 153.456 66.3644C159.624 66.3644 188.25 67.4571 188.25 110.931C188.25 140.002 175.25 163.856 155.621 177.325C155.621 177.325 151.921 156.921 151.066 143.728ZM169.075 189.207C163.938 189.388 157.871 187.155 157.871 182.906C180.339 168.52 194.638 141.543 194.638 110.936C194.638 95.1321 190.992 83.0802 184.727 74.685C208.125 84.109 221.623 104.29 221.623 131.623C221.623 164.858 200.352 188.087 169.081 189.207H169.075Z" fill="#A6F751"/>
</g>
<defs>
<clipPath id="clip0_248_3006">
<rect width="256" height="256" fill="white"/>
</clipPath>
</defs>
</svg>
