<svg width="256" height="256" viewBox="0 0 256 256" fill="none" xmlns="http://www.w3.org/2000/svg">
<g clip-path="url(#clip0_248_3009)">
<rect width="256" height="256" rx="60" fill="white"/>
<path d="M173.363 64.1752C167.542 61.0448 160.803 59.5 153.461 59.5C142.796 59.5 134.487 62.9679 128 68.7658C121.513 62.9679 113.204 59.5 102.544 59.5C95.2095 59.5 88.4662 61.0442 82.6459 64.1733C65.5704 67.7321 51.7845 75.755 42.2643 87.3158C32.7302 98.8933 27.5 113.988 27.5 131.623C27.5 157.556 37.8668 172.913 48.5706 181.859C58.7769 190.388 69.2596 193.063 71.233 193.567C71.3257 193.59 71.3996 193.609 71.4538 193.624L71.454 193.624C84.8655 197.193 92.8006 195.773 97.5009 193.19C101.543 190.968 103.122 187.917 103.711 186.681C106.916 188.353 117.594 193.667 127.994 193.801L128.006 193.8C138.406 193.667 149.084 188.353 152.289 186.681C152.878 187.917 154.457 190.968 158.499 193.19C163.199 195.773 171.134 197.193 184.546 193.624L184.546 193.624C184.6 193.609 184.674 193.59 184.767 193.567C186.74 193.063 197.223 190.388 207.429 181.859C218.133 172.913 228.5 157.556 228.5 131.623C228.5 113.985 223.27 98.8906 213.736 87.3137C204.217 75.7556 190.434 67.7349 173.363 64.1752ZM86.9535 188.707L86.9476 188.707L86.9443 188.707H86.9386C71.4285 188.152 58.4263 182.119 49.2992 172.125C40.1684 162.127 34.888 148.136 34.888 131.623C34.888 105.11 47.6545 85.43 69.8599 75.8212C64.1384 84.2405 60.8726 95.9322 60.8726 110.936C60.8726 141.581 75.1425 168.648 97.6309 183.174C97.4965 185.282 95.772 186.683 93.4963 187.569C91.1489 188.484 88.4175 188.761 86.9535 188.707ZM100.029 176.465C80.9027 163.018 68.2551 139.528 68.2551 110.926C68.2551 89.3079 75.3646 78.337 83.1311 72.7454C90.9275 67.1325 99.4934 66.8591 102.55 66.8591C110.663 66.8591 117.424 69.1968 123.031 74.0938C116.288 82.632 112.08 94.1147 109.342 106.333C106.564 118.736 105.291 131.944 104.44 143.687L104.44 143.691C104.017 150.264 102.881 158.646 101.849 165.393C101.333 168.765 100.844 171.725 100.484 173.842C100.304 174.9 100.156 175.748 100.053 176.331C100.045 176.377 100.037 176.422 100.029 176.465ZM111.505 144.08C113.723 112.591 118.981 91.5844 127.995 79.5402C137.008 91.5844 142.266 112.591 144.484 144.08C145.379 159.301 146.721 171.687 149.62 180.437C145.265 182.831 140.877 184.617 137.08 185.812C133.166 187.043 129.916 187.635 127.989 187.635V188.135C123.98 188.131 114.767 185.7 105.762 180.673L106.235 180.834C106.28 180.703 106.325 180.57 106.369 180.437L111.505 144.08ZM151.565 143.696L151.565 143.692C150.712 131.95 149.438 118.742 146.659 106.338C143.922 94.1201 139.715 82.6374 132.974 74.0992C138.582 69.2021 145.342 66.8644 153.456 66.8644C156.512 66.8644 165.078 67.1378 172.874 72.7508C180.641 78.3423 187.75 89.3133 187.75 110.931C187.75 139.533 175.102 163.024 155.976 176.47C155.968 176.427 155.961 176.382 155.952 176.336C155.85 175.753 155.702 174.906 155.522 173.847C155.162 171.73 154.674 168.77 154.158 165.399C153.127 158.651 151.991 150.27 151.565 143.696ZM169.066 188.707L169.063 188.707L169.058 188.707C166.557 188.795 163.841 188.293 161.768 187.269C159.786 186.29 158.501 184.897 158.38 183.173C180.868 168.647 195.138 141.586 195.138 110.936C195.138 95.9317 191.867 84.2399 186.149 75.8207C208.356 85.4295 221.123 105.115 221.123 131.623C221.123 148.133 215.841 162.123 206.709 172.121C197.581 182.115 184.579 188.15 169.072 188.707H169.066Z" fill="#A6F751" stroke="black"/>
</g>
<defs>
<clipPath id="clip0_248_3009">
<rect width="256" height="256" fill="white"/>
</clipPath>
</defs>
</svg>
