<svg width="256" height="256" viewBox="0 0 256 256" fill="none" xmlns="http://www.w3.org/2000/svg">
<g clip-path="url(#clip0_248_3828)">
<path d="M196 0H60C26.8629 0 0 26.8629 0 60V196C0 229.137 26.8629 256 60 256H196C229.137 256 256 229.137 256 196V60C256 26.8629 229.137 0 196 0Z" fill="#5A45FE"/>
<path fill-rule="evenodd" clip-rule="evenodd" d="M37.0186 164.321L84.623 56.1297C92.6596 37.8918 108.116 28 127.59 28C147.064 28 162.52 37.8918 170.558 56.1297L218.162 164.321C220.326 169.577 222.18 176.377 222.18 182.25C222.18 209.143 203.323 228 176.43 228C167.271 228 159.993 225.662 152.631 223.296C145.086 220.871 137.447 218.417 127.59 218.417C117.848 218.417 110.017 220.896 102.322 223.33C94.8806 225.684 87.5624 228 78.7492 228C51.8562 228 33 209.143 33 182.25C33 176.377 34.8547 169.577 37.0186 164.321ZM127.59 74.9868L80.6043 181.323C94.5147 174.831 110.589 171.74 127.59 171.74C143.973 171.74 160.666 174.831 173.958 181.323L127.59 74.9868Z" fill="white"/>
</g>
<defs>
<clipPath id="clip0_248_3828">
<rect width="256" height="256" fill="white"/>
</clipPath>
</defs>
</svg>
