<svg width="256" height="256" viewBox="0 0 256 256" fill="none" xmlns="http://www.w3.org/2000/svg">
<g clip-path="url(#clip0_248_2836)">
<rect width="256" height="256" rx="60" fill="white"/>
<path d="M181.125 28H74.875C48.9867 28 28 48.9867 28 74.875V181.125C28 207.013 48.9867 228 74.875 228H181.125C207.013 228 228 207.013 228 181.125V74.875C228 48.9867 207.013 28 181.125 28Z" fill="#00005B"/>
<path d="M110.154 149.969H79.1538L72.8204 169.635C72.6538 170.385 71.9871 170.885 71.2371 170.802H55.5704C54.6538 170.802 54.4038 170.302 54.6538 169.302L81.4871 92.3854C81.7371 91.5521 81.9871 90.8021 82.3204 89.8021C82.6538 88.0521 82.8204 86.2188 82.8204 84.3854C82.7371 83.9688 83.0704 83.5521 83.4871 83.4688H83.7371H105.07C105.654 83.4688 106.07 83.7188 106.154 84.1354L136.57 169.135C136.82 170.052 136.57 170.469 135.737 170.469H118.32C117.737 170.552 117.154 170.135 116.987 169.552L110.154 149.552V149.969ZM83.9871 133.385H105.154C104.654 131.635 103.987 129.552 103.237 127.385C102.487 125.135 101.737 122.719 100.987 120.219C100.154 117.635 99.4037 115.135 98.5704 112.552C97.7371 109.969 96.9871 107.552 96.3204 105.135C95.6538 102.802 95.0704 100.635 94.4871 98.6354H94.3204C93.5704 102.219 92.6538 105.802 91.4871 109.385C90.2371 113.385 88.9871 117.552 87.6538 121.719C86.5704 125.969 85.2371 129.885 83.9871 133.385Z" fill="#9999FF"/>
<path d="M185.654 142.469H159.237C159.57 145.052 160.404 147.635 161.82 149.885C163.32 152.135 165.404 153.885 167.904 154.885C171.237 156.302 174.904 157.052 178.57 156.969C181.487 156.885 184.404 156.635 187.237 156.052C189.82 155.719 192.32 155.052 194.654 154.135C195.07 153.802 195.32 153.969 195.32 154.802V167.552C195.32 167.885 195.237 168.219 195.154 168.552C194.987 168.802 194.82 168.969 194.57 169.135C191.904 170.302 189.154 171.135 186.237 171.635C182.32 172.385 178.404 172.719 174.404 172.635C168.07 172.635 162.737 171.635 158.404 169.719C154.32 167.969 150.737 165.219 147.904 161.802C145.237 158.552 143.32 154.885 142.154 150.885C140.987 146.969 140.404 142.885 140.404 138.719C140.404 134.219 141.07 129.802 142.487 125.469C143.82 121.302 145.904 117.469 148.737 114.052C151.487 110.719 154.904 108.052 158.82 106.135C162.737 104.219 167.404 103.552 172.737 103.552C177.154 103.469 181.57 104.302 185.654 106.135C189.07 107.635 192.07 109.885 194.404 112.802C196.57 115.635 198.32 118.802 199.404 122.302C200.487 125.635 200.987 129.052 200.987 132.469C200.987 134.469 200.904 136.219 200.82 137.802C200.654 139.385 200.57 140.552 200.487 141.302C200.404 141.885 199.904 142.385 199.32 142.385C198.82 142.385 197.904 142.469 196.57 142.552C195.237 142.719 193.654 142.802 191.737 142.802C189.82 142.802 187.82 142.469 185.654 142.469ZM159.237 130.302H176.82C178.987 130.302 180.57 130.302 181.57 130.219C182.237 130.135 182.904 129.969 183.487 129.552V128.719C183.487 127.635 183.32 126.635 182.987 125.635C181.487 120.969 177.07 117.802 172.154 117.969C167.57 117.719 163.237 120.135 161.07 124.302C160.07 126.219 159.487 128.219 159.237 130.302Z" fill="#9999FF"/>
</g>
<defs>
<clipPath id="clip0_248_2836">
<rect width="256" height="256" fill="white"/>
</clipPath>
</defs>
</svg>
