<svg width="256" height="256" viewBox="0 0 256 256" fill="none" xmlns="http://www.w3.org/2000/svg">
<g clip-path="url(#clip0_248_1146)">
<path d="M196 0H60C26.8629 0 0 26.8629 0 60V196C0 229.137 26.8629 256 60 256H196C229.137 256 256 229.137 256 196V60C256 26.8629 229.137 0 196 0Z" fill="#0081C8"/>
<path d="M144.962 180.289L144.363 180.717L143.764 181.06C131.742 188.921 117.761 193.265 103.401 193.601C83.9256 193.13 76.8203 186.282 76.3923 167.449C76.8203 145.876 84.0112 139.199 108.366 137.701L141.966 136.117L143.464 136.031H144.919L144.962 180.289ZM206.127 190.904C205.669 189.198 204.653 187.694 203.242 186.631C201.83 185.569 200.104 185.009 198.337 185.04C197.3 185.075 196.269 185.204 195.255 185.426C190.076 186.71 187.166 187.052 183.185 187.352C175.566 187.694 174.196 184.741 173.768 176.223V59.2863C173.639 57.9244 173.24 56.6019 172.593 55.3965C171.946 54.1911 171.065 53.127 170.002 52.2667L169.274 51.753C169.046 51.5533 168.76 51.3535 168.418 51.1538C162.083 47.43 151.554 44.4338 142.565 42.1652L141.923 41.9513C125.7 38.0918 108.934 37.0493 92.3577 38.8695C87.2214 39.3831 73.4389 41.6516 68.8162 43.2353C67.4465 43.6634 63.1235 45.7607 62.9523 49.8697C63.0379 52.0099 65.4348 58.8583 65.4348 58.8583C67.0185 63.6094 68.6878 64.765 71.684 65.4071C74.1238 65.6639 79.3885 64.551 82.8555 63.9946C95.8342 61.2774 109.184 60.8141 122.32 62.6249C137.6 64.9791 143.464 69.6874 143.464 69.6874V115.058L142.137 115.101L109.522 115.957C65.8629 117.327 45.7456 134.619 46.0024 169.46C45.9596 185.297 50.9247 198.01 60.3413 206.185C69.1159 213.889 81.9994 217.999 97.494 217.999H97.5368C115.089 218.108 132.109 211.98 145.561 200.706L146.974 199.593L147.702 201.22C149.312 204.998 151.79 208.343 154.936 210.984C158.082 213.624 161.807 215.485 165.807 216.415C171.564 217.873 177.531 218.322 183.442 217.742C188.45 217.057 195.041 216.158 202.403 212.691C206.47 210.765 209.337 208.411 209.123 204.13C208.476 199.649 207.474 195.227 206.127 190.904Z" fill="white"/>
</g>
<defs>
<clipPath id="clip0_248_1146">
<rect width="256" height="256" fill="white"/>
</clipPath>
</defs>
</svg>
