<svg width="256" height="256" viewBox="0 0 256 256" fill="none" xmlns="http://www.w3.org/2000/svg">
<g clip-path="url(#clip0_248_1154)">
<rect width="256" height="256" rx="60" fill="white"/>
<circle cx="128" cy="133" r="100" fill="#0081C8"/>
<path d="M141.971 173.67L141.504 174.002L141.038 174.269C131.688 180.383 120.814 183.762 109.645 184.023C94.4977 183.657 88.9714 178.33 88.6385 163.682C88.9714 146.904 94.5642 141.71 113.507 140.545L139.64 139.313L140.805 139.247H141.937L141.971 173.67ZM189.543 181.926C189.187 180.598 188.397 179.429 187.299 178.602C186.201 177.776 184.858 177.34 183.484 177.365C182.678 177.392 181.876 177.492 181.087 177.664C177.059 178.663 174.795 178.93 171.699 179.163C165.774 179.429 164.708 177.132 164.375 170.507V79.556C164.275 78.4968 163.964 77.4682 163.461 76.5306C162.958 75.5931 162.273 74.7654 161.446 74.0963L160.88 73.6968C160.702 73.5414 160.48 73.3861 160.214 73.2307C155.287 70.3344 147.097 68.0041 140.106 66.2396L139.607 66.0732C126.989 63.0714 113.949 62.2606 101.056 63.6762C97.0611 64.0757 86.3414 65.8402 82.746 67.0719C81.6806 67.4048 78.3183 69.0361 78.1851 72.232C78.2517 73.8966 80.116 79.2231 80.116 79.2231C81.3477 82.9184 82.6461 83.8173 84.9765 84.3166C86.874 84.5164 90.9688 83.6508 93.6654 83.218C103.76 81.1046 114.143 80.7443 124.36 82.1527C136.245 83.9837 140.805 87.6457 140.805 87.6457V122.934L139.773 122.967L114.406 123.633C80.4489 124.699 64.8021 138.148 65.0019 165.247C64.9686 177.565 68.8303 187.452 76.1544 193.811C82.979 199.803 92.9996 202.999 105.051 202.999H105.084C118.736 203.084 131.973 198.318 142.437 189.549L143.535 188.684L144.101 189.949C145.354 192.887 147.281 195.489 149.728 197.543C152.175 199.596 155.072 201.044 158.183 201.767C162.661 202.902 167.302 203.251 171.899 202.799C175.794 202.266 180.921 201.567 186.647 198.871C189.81 197.373 192.04 195.542 191.874 192.213C191.37 188.727 190.591 185.288 189.543 181.926Z" fill="white"/>
</g>
<defs>
<clipPath id="clip0_248_1154">
<rect width="256" height="256" fill="white"/>
</clipPath>
</defs>
</svg>
