<svg width="256" height="256" viewBox="0 0 256 256" fill="none" xmlns="http://www.w3.org/2000/svg">
<g clip-path="url(#clip0_248_1149)">
<rect width="256" height="256" rx="60" fill="#242938"/>
<circle cx="128" cy="128" r="100" fill="#0081C8"/>
<path d="M141.971 168.67L141.504 169.002L141.038 169.269C131.688 175.383 120.814 178.762 109.645 179.023C94.4977 178.657 88.9714 173.33 88.6385 158.682C88.9714 141.904 94.5642 136.71 113.507 135.545L139.64 134.313L140.805 134.247H141.937L141.971 168.67ZM189.543 176.926C189.187 175.598 188.397 174.429 187.299 173.602C186.201 172.776 184.858 172.34 183.484 172.365C182.678 172.392 181.876 172.492 181.087 172.664C177.059 173.663 174.795 173.93 171.699 174.163C165.774 174.429 164.708 172.132 164.375 165.507V74.556C164.275 73.4968 163.964 72.4682 163.461 71.5306C162.958 70.5931 162.273 69.7654 161.446 69.0963L160.88 68.6968C160.702 68.5414 160.48 68.3861 160.214 68.2307C155.287 65.3344 147.097 63.0041 140.106 61.2396L139.607 61.0732C126.989 58.0714 113.949 57.2606 101.056 58.6762C97.0611 59.0757 86.3414 60.8402 82.746 62.0719C81.6806 62.4048 78.3183 64.0361 78.1851 67.232C78.2517 68.8966 80.116 74.2231 80.116 74.2231C81.3477 77.9184 82.6461 78.8173 84.9765 79.3166C86.874 79.5164 90.9688 78.6508 93.6654 78.218C103.76 76.1046 114.143 75.7443 124.36 77.1527C136.245 78.9837 140.805 82.6457 140.805 82.6457V117.934L139.773 117.967L114.406 118.633C80.4489 119.699 64.8021 133.148 65.0019 160.247C64.9686 172.565 68.8303 182.452 76.1544 188.811C82.979 194.803 92.9996 197.999 105.051 197.999H105.084C118.736 198.084 131.973 193.318 142.437 184.549L143.535 183.684L144.101 184.949C145.354 187.887 147.281 190.489 149.728 192.543C152.175 194.596 155.072 196.044 158.183 196.767C162.661 197.902 167.302 198.251 171.899 197.799C175.794 197.266 180.921 196.567 186.647 193.871C189.81 192.373 192.04 190.542 191.874 187.213C191.37 183.727 190.591 180.288 189.543 176.926Z" fill="white"/>
</g>
<defs>
<clipPath id="clip0_248_1149">
<rect width="256" height="256" fill="white"/>
</clipPath>
</defs>
</svg>
