<svg width="256" height="256" viewBox="0 0 256 256" fill="none" xmlns="http://www.w3.org/2000/svg">
<g clip-path="url(#clip0_248_3016)">
<rect width="256" height="256" rx="60" fill="#242938"/>
<path fill-rule="evenodd" clip-rule="evenodd" d="M60.5366 139.431C60.4762 139.818 60.329 140.187 60.1061 140.508C59.8832 140.83 59.5903 141.098 59.2494 141.291C58.563 141.734 57.9623 141.956 57.3545 142.177C56.0601 142.624 54.6979 143.071 53.257 143.59C51.7374 144.108 50.3752 144.626 49.1595 145.002C47.6435 145.52 46.2026 145.967 44.8332 146.486C43.8029 146.927 42.8352 147.501 41.955 148.195C41.1363 148.936 40.4219 149.786 39.8312 150.719C39.2233 151.756 38.8408 153.093 38.8408 154.652C38.8408 157.773 39.5988 160.148 41.1183 161.631C42.6343 163.194 45.4446 163.934 49.61 163.934C53.8577 163.934 56.7395 163.119 58.2626 161.485C59.775 159.851 60.533 157.552 60.533 154.584V139.431H60.5366ZM49.6136 106.537C57.0505 106.537 62.5103 107.949 65.9963 110.846C69.486 113.67 71.2308 117.303 71.2308 121.608V158.292C71.2308 159.776 70.9304 161.41 70.4013 163.19C69.865 164.978 68.8066 166.608 67.1369 168.089C65.5458 169.58 63.3469 170.842 60.5402 171.807C57.7334 172.772 54.0936 173.291 49.6172 173.291C45.1479 173.291 41.5009 172.772 38.6977 171.807C35.8946 170.842 33.6921 169.58 32.101 168.089C30.6209 166.755 29.4997 165.07 28.8402 163.19C28.3039 161.413 28 159.779 28 158.295V152.432C28 149.31 28.8331 146.414 30.5028 143.886C32.1726 141.291 34.5216 139.51 37.5572 138.394C39.0732 137.876 40.818 137.358 42.7881 136.689C44.7617 136.017 46.578 135.348 48.4015 134.758C50.225 134.161 51.8161 133.564 53.1783 133.042C54.0004 132.713 54.8353 132.417 55.6811 132.155L57.047 131.487C57.5833 131.19 58.1089 130.743 58.6416 130.149C59.1708 129.56 59.6249 128.891 60.0074 128.147C60.4116 127.342 60.6199 126.452 60.6153 125.551V123.174C60.6209 122.302 60.4379 121.44 60.0789 120.646C59.7786 119.752 59.1708 118.937 58.3377 118.197C57.5046 117.453 56.3641 116.86 55.0018 116.409C53.636 115.969 51.8197 115.744 49.7673 115.744C45.5197 115.744 42.713 116.566 41.197 118.268C39.9098 119.756 39.1518 121.611 39.0017 123.689C39.0017 124.136 38.6227 124.432 38.165 124.432L28.9153 124.583C28.6956 124.583 28.4844 124.498 28.3277 124.344C28.171 124.19 28.0815 123.98 28.0787 123.76V121.615C28.0787 119.53 28.4612 117.6 29.2943 115.744C30.131 113.885 31.4217 112.329 33.163 110.989C34.9078 109.655 37.1853 108.543 39.9134 107.799C42.57 106.905 45.8308 106.537 49.6208 106.537H49.6136ZM217.302 139.431C217.242 139.818 217.095 140.187 216.872 140.508C216.649 140.83 216.356 141.098 216.015 141.291C215.336 141.734 214.728 141.956 214.12 142.177C212.833 142.624 211.464 143.071 210.023 143.59C208.503 144.108 207.137 144.626 205.925 145.002C204.406 145.52 202.965 145.967 201.599 146.486C200.567 146.926 199.598 147.501 198.717 148.195C197.9 148.937 197.186 149.786 196.597 150.719C195.989 151.756 195.61 153.093 195.61 154.652C195.61 157.773 196.361 160.148 197.88 161.631C199.396 163.194 202.207 163.934 206.376 163.934C210.63 163.934 213.509 163.119 215.028 161.485C216.541 159.851 217.299 157.552 217.299 154.584L217.302 139.431ZM206.383 106.537C213.82 106.537 219.279 107.949 222.769 110.846C226.255 113.67 228 117.303 228 121.608V158.292C228 159.776 227.7 161.41 227.167 163.19C226.638 164.978 225.576 166.608 223.906 168.089C222.315 169.58 220.116 170.842 217.309 171.807C214.506 172.772 210.863 173.291 206.39 173.291C201.921 173.291 198.274 172.772 195.471 171.807C192.667 170.842 190.465 169.58 188.874 168.089C187.396 166.754 186.277 165.07 185.62 163.19C185.084 161.41 184.78 159.776 184.78 158.292V152.428C184.78 149.307 185.617 146.411 187.283 143.883C188.952 141.287 191.305 139.506 194.337 138.391C195.853 137.872 197.598 137.354 199.572 136.685C201.538 136.013 203.362 135.345 205.185 134.755C207.009 134.158 208.596 133.56 209.962 133.038C210.784 132.71 211.619 132.414 212.465 132.152L213.83 131.483C214.36 131.186 214.892 130.739 215.422 130.146C215.964 129.543 216.424 128.869 216.787 128.144C217.192 127.338 217.4 126.449 217.395 125.548V123.17C217.401 122.299 217.218 121.436 216.859 120.642C216.559 119.748 215.954 118.933 215.118 118.193C214.285 117.449 213.151 116.856 211.782 116.405C210.416 115.966 208.6 115.74 206.547 115.74C202.3 115.74 199.497 116.563 197.977 118.265C196.69 119.752 195.932 121.608 195.778 123.685C195.778 124.132 195.403 124.429 194.949 124.429H185.749C185.532 124.428 185.323 124.342 185.168 124.19C185.013 124.038 184.924 123.831 184.919 123.614V121.458C184.919 119.384 185.298 117.453 186.135 115.594C186.968 113.742 188.255 112.179 189.997 110.846C191.748 109.508 194.019 108.393 196.754 107.653C199.328 106.902 202.589 106.537 206.383 106.537ZM173.846 106.834H179.917C180.446 106.834 180.826 107.356 180.675 107.871L178.627 115.594C178.555 115.969 178.173 116.191 177.869 116.191H173.621C171.347 116.191 169.527 116.488 168.086 117.085C166.717 117.675 165.583 118.343 164.822 119.159C164.064 119.981 163.606 120.793 163.381 121.611C163.177 122.412 163.075 123.235 163.077 124.06V171.807C163.072 172.026 162.981 172.235 162.824 172.387C162.667 172.54 162.456 172.624 162.237 172.622H153.141C152.923 172.622 152.714 172.537 152.558 172.385C152.402 172.232 152.312 172.025 152.308 171.807V121.904C152.308 121.018 152.458 119.681 152.837 117.971C153.141 116.266 154.053 114.632 155.493 112.923C156.934 111.289 159.058 109.805 161.94 108.618C164.825 107.424 168.769 106.834 173.846 106.834ZM143.205 156.658V158.885C143.205 159.851 143.062 161.188 142.679 162.897C142.375 164.527 141.463 166.237 140.022 167.867C138.582 169.504 136.458 170.988 133.576 172.175C130.694 173.366 126.747 173.963 121.67 173.963C116.593 173.963 112.645 173.366 109.763 172.175C106.882 170.988 104.758 169.58 103.317 167.87C101.876 166.24 100.964 164.531 100.66 162.829C100.36 161.113 100.135 159.854 100.135 158.889V108.915C100.135 108.468 100.514 108.093 100.968 108.093H109.992C110.45 108.093 110.829 108.468 110.829 108.915V155.692C110.829 157.251 111.054 158.367 111.283 159.257C111.515 160.151 111.969 161.038 112.652 161.781C113.332 162.597 114.397 163.265 115.835 163.784C117.2 164.306 119.099 164.606 121.448 164.606C123.879 164.606 125.846 164.306 127.29 163.784C128.731 163.265 129.793 162.597 130.551 161.853C131.302 161.113 131.838 160.298 132.063 159.404C132.292 158.51 132.6 157.773 132.6 155.614V108.843C132.6 108.4 132.975 108.028 133.429 108.028H142.454C142.904 108.028 143.283 108.4 143.283 108.851V156.665H143.212L143.205 156.658ZM81.0954 83.0036H90.1235C90.5775 83.0036 90.9565 83.3718 90.9565 83.8152V172.25C90.9537 172.469 90.8647 172.679 90.7088 172.833C90.5528 172.986 90.3426 173.073 90.1235 173.073H81.0954C80.8763 173.073 80.6661 172.986 80.5101 172.833C80.3542 172.679 80.2652 172.469 80.2624 172.25V83.8152C80.3339 83.3718 80.6414 83.0036 81.0954 83.0036Z" fill="white"/>
</g>
<defs>
<clipPath id="clip0_248_3016">
<rect width="256" height="256" fill="white"/>
</clipPath>
</defs>
</svg>
