<svg width="256" height="256" viewBox="0 0 256 256" fill="none" xmlns="http://www.w3.org/2000/svg">
<g clip-path="url(#clip0_348_3)">
<path d="M196 0H60C26.8629 0 0 26.8629 0 60V196C0 229.137 26.8629 256 60 256H196C229.137 256 256 229.137 256 196V60C256 26.8629 229.137 0 196 0Z" fill="#2A3644"/>
<path d="M165.428 176.787C167.379 177.819 169.903 177.707 171.644 176.166L171.706 176.228C178.362 170.325 185.088 164.503 191.883 158.761C194.034 156.983 193.661 154.136 191.958 151.761L190.404 149.648C186.115 143.867 182.037 138.385 182.037 127.382V86.3562L182.049 82.1915C182.149 66.4649 182.223 52.0934 170.45 41.1034C160.343 31.4064 143.634 28 130.829 28C105.803 28 77.8684 37.3241 71.9756 68.28C71.3913 71.562 73.7534 73.3025 75.9042 73.7874L101.44 76.5224C103.802 76.4106 105.542 74.0858 105.99 71.7112C108.178 61.0569 117.129 55.91 127.162 55.91C132.57 55.91 138.711 57.8992 141.931 62.7477C145.213 67.5962 145.163 74.0609 145.126 79.8542V85.2249C142.64 85.4984 140.066 85.7678 137.406 86.033C123.569 87.4503 107.606 89.0913 95.6339 94.3625C79.1489 101.474 67.5498 116.019 67.5498 137.378C67.5498 164.728 84.7931 178.379 106.935 178.379C125.657 178.379 135.877 173.978 150.31 159.233L152.386 162.291C155.793 167.326 158.055 170.683 165.403 176.787H165.428ZM105.965 132.815C105.965 110.387 126.068 106.322 145.089 106.322V113.408C145.101 123.056 145.114 131.236 140.166 139.926C135.988 147.323 129.35 151.873 121.953 151.873C111.858 151.873 105.965 144.178 105.965 132.815Z" fill="white"/>
<path d="M36.4085 180.435C69.0925 200.364 119.679 231.208 200.301 192.83C203.782 191.388 206.206 193.8 202.775 198.188C199.306 202.639 171.632 228 125.111 228C78.6403 228 43.0348 196.249 32.1692 183.071C29.1855 179.652 32.6167 178.098 34.6432 179.353L36.4085 180.435Z" fill="#FF9900"/>
<path d="M202.912 177.565C209.961 176.695 221.162 177.23 223.363 180.101C225.041 182.289 223.313 192.111 220.466 199.16C217.607 206.159 213.355 211.107 210.993 213.022C208.631 214.936 206.853 214.19 208.133 211.318C209.439 208.459 216.637 190.644 213.79 186.914C211.142 183.458 199.157 184.714 193.588 185.298L192.469 185.41C191.292 185.518 190.327 185.617 189.572 185.708C187.173 185.969 186.526 186.044 186.166 185.31C185.246 182.712 195.851 178.398 202.912 177.565Z" fill="#FF9900"/>
</g>
<defs>
<clipPath id="clip0_348_3">
<rect width="256" height="256" fill="white"/>
</clipPath>
</defs>
</svg>
