<svg width="256" height="256" viewBox="0 0 256 256" fill="none" xmlns="http://www.w3.org/2000/svg">
<g clip-path="url(#clip0_348_6)">
<rect width="256" height="256" rx="60" fill="#242938"/>
<path d="M166.428 176.787C168.379 177.819 170.903 177.707 172.644 176.166L172.706 176.228C179.362 170.325 186.088 164.503 192.883 158.761C195.034 156.983 194.661 154.136 192.958 151.761L191.404 149.648C187.115 143.867 183.037 138.385 183.037 127.382V86.3562L183.049 82.1915C183.149 66.4649 183.223 52.0934 171.45 41.1034C161.343 31.4064 144.634 28 131.829 28C106.803 28 78.8684 37.3241 72.9756 68.28C72.3913 71.562 74.7534 73.3025 76.9042 73.7874L102.44 76.5224C104.802 76.4106 106.542 74.0858 106.99 71.7112C109.178 61.0569 118.129 55.91 128.162 55.91C133.57 55.91 139.711 57.8992 142.931 62.7477C146.213 67.5962 146.163 74.0609 146.126 79.8542V85.2249C143.64 85.4984 141.066 85.7678 138.406 86.033C124.569 87.4503 108.606 89.0913 96.6339 94.3625C80.1489 101.474 68.5498 116.019 68.5498 137.378C68.5498 164.728 85.7931 178.379 107.935 178.379C126.657 178.379 136.877 173.978 151.31 159.233L153.386 162.291C156.793 167.326 159.055 170.683 166.403 176.787H166.428ZM106.965 132.815C106.965 110.387 127.068 106.322 146.089 106.322V113.408C146.101 123.056 146.114 131.236 141.166 139.926C136.988 147.323 130.35 151.873 122.953 151.873C112.858 151.873 106.965 144.178 106.965 132.815Z" fill="white"/>
<path d="M37.4085 180.435C70.0925 200.364 120.679 231.208 201.301 192.83C204.782 191.388 207.206 193.8 203.775 198.188C200.306 202.639 172.632 228 126.111 228C79.6403 228 44.0348 196.249 33.1692 183.071C30.1855 179.652 33.6167 178.098 35.6432 179.353L37.4085 180.435Z" fill="#FF9900"/>
<path d="M203.912 177.565C210.961 176.695 222.162 177.23 224.363 180.101C226.041 182.289 224.313 192.111 221.466 199.16C218.607 206.159 214.355 211.107 211.993 213.022C209.631 214.936 207.853 214.19 209.133 211.318C210.439 208.459 217.637 190.644 214.79 186.914C212.142 183.458 200.157 184.714 194.588 185.298L193.469 185.41C192.292 185.518 191.327 185.617 190.572 185.708C188.173 185.969 187.526 186.044 187.166 185.31C186.246 182.712 196.851 178.398 203.912 177.565Z" fill="#FF9900"/>
</g>
<defs>
<clipPath id="clip0_348_6">
<rect width="256" height="256" fill="white"/>
</clipPath>
</defs>
</svg>
