<svg width="256" height="256" viewBox="0 0 256 256" fill="none" xmlns="http://www.w3.org/2000/svg">
<g clip-path="url(#clip0_248_4858)">
<path d="M196 0H60C26.8629 0 0 26.8629 0 60V196C0 229.137 26.8629 256 60 256H196C229.137 256 256 229.137 256 196V60C256 26.8629 229.137 0 196 0Z" fill="#3DDC84"/>
<path d="M104.105 227.538C100.763 226.745 97.9646 224.891 94.0494 220.875C87.51 214.165 82.2008 211.372 72.9764 209.783C63.4055 208.136 59.1541 204.579 56.5974 196.083C53.4409 185.596 50.1425 180.574 42.8951 175.221C34.6727 169.148 32.5639 163.791 34.5696 154.087C36.4284 145.099 35.717 138.708 31.942 130.491C27.4371 120.688 27.993 115.45 34.3905 107.417C40.2557 100.055 42.0958 95.1865 42.9745 84.7218C43.86 74.159 46.7985 69.8265 55.4535 66.3202C62.6755 63.3935 68.855 58.3124 72.2802 52.4844C76.241 45.7439 76.8189 44.9717 79.2741 43.14C83.2349 40.1846 86.437 39.3667 92.5354 39.7486C103.13 40.4127 108.808 39.1403 115.922 34.5086C125.197 28.4711 130.822 28.4711 140.097 34.5086C147.213 39.1403 152.891 40.4127 163.484 39.7486C173.502 39.12 177.671 41.7493 183.778 52.552C186.804 57.9035 192.989 63.113 199.76 66.011C209.401 70.1374 212.203 73.9039 212.914 83.691C213.685 94.2909 215.858 100.217 221.615 107.417C228.026 115.435 228.585 120.678 224.077 130.491C220.304 138.708 219.591 145.099 221.449 154.087C223.457 163.791 221.346 169.148 213.126 175.221C205.878 180.574 202.58 185.596 199.423 196.083C196.867 204.579 192.614 208.136 183.044 209.783C173.798 211.375 168.485 214.177 161.97 220.897C154.748 228.344 149.57 229.574 139.474 226.235C131.216 223.506 124.857 223.494 116.633 226.194C110.871 228.085 107.801 228.415 104.105 227.538Z" fill="black" fill-opacity="0.2"/>
<path d="M104.105 225.559C100.763 224.765 97.9646 222.911 94.0494 218.894C87.51 212.186 82.2008 209.391 72.9764 207.804C63.4055 206.157 59.1541 202.598 56.5974 194.104C53.4409 183.615 50.1425 178.593 42.8951 173.24C34.6727 167.167 32.5639 161.812 34.5696 152.106C36.4284 143.118 35.717 136.728 31.942 128.51C27.4371 118.708 27.993 113.47 34.3905 105.438C40.2557 98.0742 42.0958 93.2077 42.9745 82.7413C43.86 72.1786 46.7985 67.846 55.4535 64.3397C62.6755 61.413 68.855 56.3319 72.2802 50.5039C76.241 43.7634 76.8189 42.9912 79.2741 41.1595C83.2349 38.2041 86.437 37.3862 92.5354 37.7681C103.13 38.4322 108.808 37.1598 115.922 32.5282C125.197 26.4906 130.822 26.4906 140.097 32.5282C147.213 37.1598 152.891 38.4322 163.484 37.7681C173.502 37.1395 177.671 39.7688 183.778 50.5715C186.804 55.923 192.989 61.1325 199.76 64.0305C209.401 68.1569 212.203 71.9234 212.914 81.7105C213.685 92.3104 215.858 98.2365 221.615 105.438C228.026 113.455 228.585 118.698 224.077 128.51C220.304 136.728 219.591 143.118 221.449 152.106C223.457 161.812 221.346 167.167 213.126 173.24C205.878 178.593 202.58 183.615 199.423 194.104C196.867 202.598 192.614 206.157 183.044 207.804C173.798 209.394 168.485 212.198 161.97 218.916C154.748 226.365 149.57 227.593 139.474 224.256C131.216 221.525 124.857 221.513 116.633 224.214C110.871 226.105 107.801 226.434 104.105 225.559Z" fill="white"/>
<path d="M163.504 118.612C162.88 117.338 163.414 115.812 164.687 115.188C165.959 114.565 167.487 115.099 168.11 116.371C168.734 117.644 168.2 119.171 166.927 119.795C165.655 120.418 164.127 119.884 163.504 118.612ZM175.885 144.06C175.261 142.787 175.795 141.26 177.068 140.636C178.34 140.013 179.868 140.548 180.491 141.821C181.115 143.093 180.581 144.619 179.308 145.243C178.036 145.866 176.508 145.332 175.885 144.06ZM176.966 111.04C168.823 105.226 158.198 103.723 148.362 107.529L175.248 162.815C184.308 157.433 189.678 148.132 190.136 138.142L200.341 138.869C200.481 138.879 200.621 138.861 200.754 138.816C200.886 138.771 201.009 138.701 201.114 138.608C201.22 138.516 201.306 138.404 201.367 138.278C201.429 138.152 201.465 138.015 201.473 137.875C201.483 137.736 201.465 137.595 201.421 137.463C201.376 137.33 201.306 137.207 201.214 137.102C201.121 136.996 201.009 136.911 200.883 136.849C200.758 136.787 200.621 136.751 200.481 136.743L190.148 136.005C190.047 131.654 189.004 127.213 186.929 122.938C184.856 118.674 182.005 115.112 178.646 112.338L184.449 103.749C184.601 103.516 184.656 103.232 184.602 102.959C184.548 102.686 184.388 102.445 184.158 102.288C183.928 102.132 183.646 102.071 183.372 102.121C183.097 102.17 182.854 102.325 182.693 102.552L176.966 111.028" fill="#3DDC84"/>
<path d="M152.179 131.856C144.595 135.521 136.439 137.378 127.939 137.378C118.678 137.385 109.561 135.086 101.41 130.687C93.2597 126.289 86.3328 119.931 81.2545 112.185C80.4536 110.964 78.7993 110.671 77.6165 111.537L67.8564 118.725C66.7496 119.539 66.4944 121.092 67.27 122.238C73.9469 132.199 82.9754 140.361 93.5572 146.002C104.139 151.643 115.948 154.59 127.939 154.582C139.048 154.582 149.724 152.152 159.661 147.355L152.179 131.856ZM122.571 70.6915H133.132V59.0237C133.132 56.1088 130.765 53.7432 127.852 53.7432C124.937 53.7432 122.571 56.1088 122.571 59.0237V70.6915Z" fill="#4285F4"/>
<path d="M114.109 93.4681L77.8058 168.185C77.0211 169.796 76.5956 171.558 76.5587 173.35L76.3424 183.136C76.2918 185.669 79.2184 187.093 81.1786 185.489L88.7369 179.28C90.124 178.144 91.2482 176.72 92.0319 175.108L127.813 101.446L114.121 93.4799L114.109 93.4681ZM179.155 173.338C179.118 171.544 178.685 169.788 177.908 168.173L141.606 93.4546L127.914 101.446L163.695 175.081C164.482 176.692 165.606 178.115 166.99 179.254L174.548 185.464C176.509 187.068 179.447 185.642 179.384 183.11L179.168 173.325L179.155 173.338Z" fill="#4285F4"/>
<path d="M127.85 69.7622C119.109 69.7622 112.008 76.8761 112.008 85.6038C112.008 94.3331 119.122 101.445 127.85 101.445C136.579 101.445 143.691 94.3331 143.691 85.6038C143.691 76.8761 136.579 69.7622 127.85 69.7622ZM127.85 94.3196C123.054 94.3196 119.134 90.4145 119.134 85.6038C119.134 80.7947 123.041 76.888 127.85 76.888C132.661 76.888 136.567 80.7947 136.567 85.6038C136.567 90.4145 132.661 94.3196 127.85 94.3196Z" fill="#073042"/>
</g>
<defs>
<clipPath id="clip0_248_4858">
<rect width="256" height="256" fill="white"/>
</clipPath>
</defs>
</svg>
