<svg width="256" height="256" viewBox="0 0 256 256" fill="none" xmlns="http://www.w3.org/2000/svg">
<g clip-path="url(#clip0_248_4876)">
<rect width="256" height="256" rx="60" fill="white"/>
<g filter="url(#filter0_d_248_4876)">
<path d="M104.105 227.538C100.763 226.745 97.9646 224.891 94.0494 220.875C87.51 214.165 82.2008 211.372 72.9764 209.783C63.4055 208.136 59.1541 204.579 56.5974 196.083C53.4409 185.596 50.1425 180.574 42.8951 175.221C34.6727 169.148 32.5639 163.791 34.5696 154.087C36.4284 145.099 35.717 138.708 31.942 130.491C27.4371 120.688 27.993 115.45 34.3905 107.417C40.2557 100.055 42.0958 95.1865 42.9745 84.7218C43.86 74.159 46.7985 69.8265 55.4535 66.3202C62.6755 63.3935 68.855 58.3124 72.2802 52.4844C76.241 45.7439 76.8189 44.9717 79.2741 43.14C83.2349 40.1846 86.437 39.3667 92.5354 39.7486C103.13 40.4127 108.808 39.1403 115.922 34.5086C125.197 28.4711 130.822 28.4711 140.097 34.5086C147.213 39.1403 152.891 40.4127 163.484 39.7486C173.502 39.12 177.671 41.7493 183.778 52.552C186.804 57.9035 192.989 63.113 199.76 66.011C209.401 70.1374 212.203 73.9039 212.914 83.691C213.685 94.2909 215.858 100.217 221.615 107.417C228.026 115.435 228.585 120.678 224.077 130.491C220.304 138.708 219.591 145.099 221.449 154.087C223.457 163.791 221.346 169.148 213.126 175.221C205.878 180.574 202.58 185.596 199.423 196.083C196.867 204.579 192.614 208.136 183.044 209.783C173.798 211.375 168.485 214.177 161.97 220.897C154.748 228.344 149.57 229.574 139.474 226.235C131.216 223.506 124.857 223.494 116.633 226.194C110.871 228.085 107.801 228.415 104.105 227.538Z" fill="black" fill-opacity="0.2"/>
<path d="M32.3964 128.302L32.3964 128.302C30.1571 123.429 29.2137 119.768 29.5751 116.363C29.936 112.962 31.6072 109.735 34.7816 105.75L34.3905 105.438L34.7816 105.75C37.7321 102.045 39.692 98.9418 41.0201 95.43C42.3469 91.9219 43.0318 88.036 43.4728 82.7831L43.4728 82.7831C43.913 77.5316 44.8591 73.9105 46.7142 71.175C48.5632 68.4485 51.3592 66.5378 55.6412 64.8031L55.6412 64.8031C62.9491 61.8417 69.222 56.6942 72.7112 50.7572L72.7113 50.7572C74.6964 47.3789 75.8159 45.528 76.742 44.2905C77.6495 43.0781 78.3672 42.4599 79.5731 41.5602L79.5731 41.5602C81.5165 40.1101 83.2486 39.2026 85.227 38.6967C87.2129 38.189 89.4791 38.0777 92.5042 38.2671C97.8241 38.6006 101.945 38.4506 105.643 37.6219C109.348 36.7918 112.601 35.2868 116.195 32.9472C120.801 29.9487 124.427 28.5 128.01 28.5C131.592 28.5 135.218 29.9487 139.825 32.9472L140.097 32.5282L139.825 32.9472C143.419 35.2869 146.672 36.7918 150.377 37.6219C154.075 38.4506 158.196 38.6006 163.515 38.2671L163.484 37.7681L163.515 38.2671C168.482 37.9555 171.903 38.4589 174.831 40.306C177.777 42.1648 180.296 45.428 183.343 50.8176L183.778 50.5715L183.343 50.8176C186.433 56.2822 192.712 61.5579 199.563 64.4902C204.361 66.5435 207.371 68.4739 209.285 71.0462C211.195 73.6133 212.063 76.8875 212.416 81.7468C212.803 87.0726 213.544 91.2545 214.925 95.0208C216.308 98.7907 218.322 102.119 221.225 105.75L221.615 105.438L221.225 105.751C224.406 109.728 226.081 112.953 226.444 116.354C226.807 119.759 225.864 123.424 223.623 128.302L224.077 128.51L223.623 128.302C219.804 136.617 219.08 143.117 220.96 152.208C221.954 157.013 221.912 160.668 220.658 163.852C219.403 167.039 216.904 169.827 212.829 172.838C209.171 175.539 206.488 178.174 204.323 181.472C202.16 184.764 200.53 188.693 198.945 193.96C197.682 198.153 196.02 201.066 193.543 203.138C191.06 205.215 187.703 206.495 182.96 207.312C178.303 208.112 174.609 209.223 171.25 210.995C167.891 212.766 164.892 215.185 161.611 218.568L161.97 218.916L161.611 218.568C158.026 222.265 155.007 224.356 151.684 225.144C148.358 225.934 144.646 225.439 139.631 223.781C131.272 221.017 124.804 221.005 116.477 223.739C110.755 225.616 107.788 225.917 104.22 225.072C101.012 224.31 98.2941 222.533 94.4075 218.545C91.1144 215.167 88.111 212.754 84.7527 210.986C81.3942 209.219 77.7064 208.111 73.0611 207.312C68.3168 206.495 64.96 205.215 62.4774 203.138C60 201.066 58.3383 198.153 57.0762 193.96C55.4913 188.693 53.8607 184.764 51.6983 181.472C49.5324 178.174 46.8494 175.539 43.1922 172.838C39.116 169.827 36.6172 167.039 35.362 163.852C34.1077 160.668 34.0662 157.013 35.0593 152.207C36.9393 143.117 36.2166 136.617 32.3964 128.302Z" fill="white" stroke="black"/>
<path d="M163.504 118.612C162.88 117.338 163.414 115.812 164.687 115.188C165.959 114.565 167.487 115.099 168.11 116.371C168.734 117.644 168.2 119.171 166.927 119.795C165.655 120.418 164.127 119.884 163.504 118.612ZM175.885 144.06C175.261 142.787 175.795 141.26 177.068 140.636C178.34 140.013 179.868 140.548 180.491 141.821C181.115 143.093 180.581 144.619 179.308 145.243C178.036 145.866 176.508 145.332 175.885 144.06ZM176.966 111.04C168.823 105.226 158.198 103.723 148.362 107.529L175.248 162.815C184.308 157.433 189.678 148.132 190.136 138.142L200.341 138.869C200.481 138.879 200.621 138.861 200.754 138.816C200.886 138.771 201.009 138.701 201.114 138.608C201.22 138.516 201.306 138.404 201.367 138.278C201.429 138.152 201.465 138.015 201.473 137.875C201.483 137.736 201.465 137.595 201.421 137.463C201.376 137.33 201.306 137.207 201.214 137.102C201.121 136.996 201.009 136.911 200.883 136.849C200.758 136.787 200.621 136.751 200.481 136.743L190.148 136.005C190.047 131.654 189.004 127.213 186.929 122.938C184.856 118.674 182.005 115.112 178.646 112.338L184.449 103.749C184.601 103.516 184.656 103.232 184.602 102.959C184.548 102.686 184.388 102.445 184.158 102.288C183.928 102.132 183.646 102.071 183.372 102.121C183.097 102.17 182.854 102.325 182.693 102.552L176.966 111.028" fill="#3DDC84"/>
<path d="M152.179 131.856C144.595 135.521 136.439 137.378 127.939 137.378C118.678 137.385 109.561 135.086 101.41 130.687C93.2597 126.289 86.3328 119.931 81.2545 112.185C80.4536 110.964 78.7993 110.671 77.6165 111.537L67.8564 118.725C66.7496 119.539 66.4944 121.092 67.27 122.238C73.9469 132.199 82.9754 140.361 93.5572 146.002C104.139 151.643 115.948 154.59 127.939 154.582C139.048 154.582 149.724 152.152 159.661 147.355L152.179 131.856ZM122.571 70.6915H133.132V59.0237C133.132 56.1088 130.765 53.7432 127.852 53.7432C124.937 53.7432 122.571 56.1088 122.571 59.0237V70.6915Z" fill="#4285F4"/>
<path d="M114.109 93.4681L77.8058 168.185C77.0211 169.796 76.5956 171.558 76.5587 173.35L76.3424 183.136C76.2918 185.669 79.2184 187.093 81.1786 185.489L88.7369 179.28C90.124 178.144 91.2482 176.72 92.0319 175.108L127.813 101.446L114.121 93.4799L114.109 93.4681ZM179.155 173.338C179.118 171.544 178.685 169.788 177.908 168.173L141.606 93.4546L127.914 101.446L163.695 175.081C164.482 176.692 165.606 178.115 166.99 179.254L174.548 185.464C176.509 187.068 179.447 185.642 179.384 183.11L179.168 173.325L179.155 173.338Z" fill="#4285F4"/>
<path d="M127.85 69.7622C119.109 69.7622 112.008 76.8761 112.008 85.6038C112.008 94.3331 119.122 101.445 127.85 101.445C136.579 101.445 143.691 94.3331 143.691 85.6038C143.691 76.8761 136.579 69.7622 127.85 69.7622ZM127.85 94.3196C123.054 94.3196 119.134 90.4145 119.134 85.6038C119.134 80.7947 123.041 76.888 127.85 76.888C132.661 76.888 136.567 80.7947 136.567 85.6038C136.567 90.4145 132.661 94.3196 127.85 94.3196Z" fill="#073042"/>
</g>
</g>
<defs>
<filter id="filter0_d_248_4876" x="28" y="28" width="206.02" height="208" filterUnits="userSpaceOnUse" color-interpolation-filters="sRGB">
<feFlood flood-opacity="0" result="BackgroundImageFix"/>
<feColorMatrix in="SourceAlpha" type="matrix" values="0 0 0 0 0 0 0 0 0 0 0 0 0 0 0 0 0 0 127 0" result="hardAlpha"/>
<feOffset dx="3" dy="4"/>
<feGaussianBlur stdDeviation="2"/>
<feComposite in2="hardAlpha" operator="out"/>
<feColorMatrix type="matrix" values="0 0 0 0 0 0 0 0 0 0 0 0 0 0 0 0 0 0 0.25 0"/>
<feBlend mode="normal" in2="BackgroundImageFix" result="effect1_dropShadow_248_4876"/>
<feBlend mode="normal" in="SourceGraphic" in2="effect1_dropShadow_248_4876" result="shape"/>
</filter>
<clipPath id="clip0_248_4876">
<rect width="256" height="256" fill="white"/>
</clipPath>
</defs>
</svg>
