<svg width="256" height="256" viewBox="0 0 256 256" fill="none" xmlns="http://www.w3.org/2000/svg">
<g clip-path="url(#clip0_358_3)">
<path d="M196 0H60C26.8629 0 0 26.8629 0 60V196C0 229.137 26.8629 256 60 256H196C229.137 256 256 229.137 256 196V60C256 26.8629 229.137 0 196 0Z" fill="#F94D12"/>
<path d="M82.8784 150.69C65.8611 157.144 57.9735 161.691 57.9735 161.691C56.0564 162.675 53.6524 165.004 52.6153 166.879L39.605 190.382C38.5679 192.242 39.4164 193.242 41.4591 192.586C41.4591 192.586 46.6758 190.929 51.7511 189.46C64.0543 185.866 86.8067 180.537 86.8067 180.537C88.9125 180.053 91.4735 178.115 92.5104 176.256L110.423 143.908C111.46 142.032 110.627 141.064 108.569 141.72C108.569 141.72 95.8104 145.798 82.8469 150.721" fill="white"/>
<path d="M198.446 164.614C200.598 164.442 201.51 162.77 200.473 160.91L183.314 129.922C182.277 128.063 179.685 126.782 177.548 127.094L143.184 132.876C141.062 133.298 140.182 135.158 141.204 137.017L156.681 164.958C157.718 166.833 160.311 168.193 162.464 167.99L198.43 164.583L198.446 164.614Z" fill="white"/>
<path d="M175.112 115.109L171.985 109.452L165.966 98.575L157.89 84.0107C156.853 82.1359 154.355 81.2137 152.328 81.9323C128.821 88.7146 105.582 99.1536 94.5356 106.42C88.4233 110.436 83.1125 114.796 83.1125 114.796C81.4467 116.156 79.2471 118.796 78.2097 120.672L63.7382 146.8C62.7171 148.66 63.4555 149.457 65.4197 148.55C65.4197 148.55 69.175 146.831 73.386 145.081C87.6691 139.112 103.288 133.877 119.833 129.532C120.148 129.454 120.478 129.36 120.776 129.298C139.082 124.61 173.116 119.14 173.116 119.14C175.237 118.796 176.149 116.984 175.112 115.124" fill="white"/>
<path d="M93.566 97.0587C93.566 97.0587 109.876 87.5104 120.937 82.9476C130.664 78.9315 147.948 73.9622 147.948 73.9622C150.022 73.3683 150.871 71.3524 149.849 69.4928L133.822 40.5672C130.523 35.2852 125.416 35.4883 122.242 41.2077L122.195 41.2392L92.0728 95.6523C91.0359 97.5119 91.7114 98.1682 93.566 97.0744" fill="white"/>
<path d="M227.281 209.322L208.802 175.943C207.765 174.084 205.707 172.63 204.23 172.709L202.863 172.802C134.417 177.459 84.4342 188.804 54.5483 197.493C45.6862 200.071 35.2685 203.603 35.2685 203.603C33.2259 204.291 31.7802 204.681 29.6747 208.244C29.6747 208.244 29.5176 208.526 29.1248 209.244V209.276C26.5478 214.839 29.5019 219.246 36.0542 219.246L36.3842 219.292H220.336C226.888 219.292 229.858 214.87 227.265 209.307" fill="white"/>
</g>
<defs>
<clipPath id="clip0_358_3">
<rect width="256" height="256" fill="white"/>
</clipPath>
</defs>
</svg>
