<svg width="256" height="256" viewBox="0 0 256 256" fill="none" xmlns="http://www.w3.org/2000/svg">
<g clip-path="url(#clip0_389_6)">
<rect width="256" height="256" rx="60" fill="#242938"/>
<path d="M194.797 30H61.2031C42.8655 30 28 44.8655 28 63.2031V191.797C28 210.134 42.8655 225 61.2031 225H194.797C213.134 225 228 210.134 228 191.797V63.2031C228 44.8655 213.134 30 194.797 30Z" fill="#00005B"/>
<path d="M108.869 146.666H77.8773L71.5116 166.223C71.4307 166.56 71.2416 166.86 70.9734 167.078C70.7052 167.296 70.3728 167.42 70.0273 167.431H54.2046C53.3088 167.431 52.9958 166.939 53.2655 165.955L80.2109 89.0641L80.5679 88.0071C80.7171 87.5594 80.8663 87.0837 81.0155 86.5118C81.3671 84.7219 81.5468 82.9024 81.5523 81.0782C81.5341 80.9506 81.5459 80.8206 81.5867 80.6984C81.6275 80.5762 81.6961 80.4652 81.7872 80.3741C81.8783 80.283 81.9894 80.2144 82.1116 80.1736C82.2338 80.1328 82.3638 80.121 82.4913 80.1391H103.823C104.448 80.1391 104.806 80.3628 104.897 80.8102L135.241 166.089C135.509 166.984 135.241 167.431 134.436 167.431H116.994C116.695 167.463 116.394 167.386 116.147 167.214C115.9 167.041 115.724 166.784 115.652 166.491L108.869 146.666ZM82.7601 130.119H103.958L103.656 129.121L103.17 127.541L102.461 125.279L101.098 121.008L97.3835 109.256C96.7159 107.144 96.0753 105.025 95.4616 102.898L94.7757 100.479L94.2132 98.4735L93.5218 95.9657L93.3585 95.3696H93.2249C92.5531 98.59 91.7354 101.778 90.7741 104.924L89.8679 107.833L87.6882 114.864L86.2843 119.411L85.6882 121.307L85.096 123.159L84.507 124.966C83.9404 126.689 83.3586 128.407 82.7601 130.119ZM144.632 166.154V116.702C144.632 116.364 144.631 116.018 144.629 115.663L144.619 114.569L144.603 113.423L144.566 111.604L144.521 110.016C144.497 109.249 144.468 108.482 144.435 107.716L144.365 106.237L144.263 104.402L144.179 103.059L144.129 102.373L144.096 101.976C144.044 101.842 144.029 101.697 144.052 101.555C144.076 101.413 144.137 101.281 144.23 101.171C144.339 101.075 144.467 101.002 144.605 100.956C144.744 100.91 144.89 100.892 145.035 100.903H158.428C158.89 100.888 159.349 100.98 159.77 101.171C160.132 101.358 160.381 101.708 160.441 102.11L161.044 103.922C161.292 104.81 161.449 105.72 161.514 106.639C164.108 104.367 167.114 102.614 170.369 101.474C173.605 100.354 177.007 99.7866 180.431 99.7969C183.098 99.8096 185.747 100.24 188.28 101.072C191.205 102.007 193.873 103.609 196.073 105.751C198.273 107.893 199.946 110.517 200.959 113.416C202.301 116.859 202.826 121.309 202.826 126.764V166.154C202.826 166.959 202.469 167.361 201.753 167.361L186.078 167.5C185.896 167.526 185.71 167.51 185.535 167.452C185.36 167.394 185.201 167.295 185.071 167.165C184.941 167.035 184.843 166.876 184.785 166.702C184.726 166.527 184.71 166.341 184.736 166.159V128.787C184.692 126.284 184.141 123.816 183.116 121.532C182.397 119.847 181.209 118.404 179.694 117.373C177.983 116.324 175.998 115.81 173.993 115.897C171.837 115.866 169.696 116.254 167.687 117.038C165.852 117.771 164.168 118.84 162.723 120.19V166.154C162.723 166.959 162.366 167.361 161.65 167.361H145.841C145.677 167.384 145.51 167.369 145.353 167.317C145.196 167.265 145.053 167.177 144.936 167.059C144.818 166.942 144.73 166.8 144.678 166.642C144.625 166.485 144.61 166.318 144.634 166.154" fill="#9999FF"/>
</g>
<defs>
<clipPath id="clip0_389_6">
<rect width="256" height="256" fill="white"/>
</clipPath>
</defs>
</svg>
