<svg width="256" height="256" viewBox="0 0 256 256" fill="none" xmlns="http://www.w3.org/2000/svg">
<g clip-path="url(#clip0_389_3)">
<path d="M196 0H60C26.8629 0 0 26.8629 0 60V196C0 229.137 26.8629 256 60 256H196C229.137 256 256 229.137 256 196V60C256 26.8629 229.137 0 196 0Z" fill="#00005B"/>
<path d="M103.753 156.326H64.9398L56.9678 180.818C56.8664 181.239 56.6296 181.615 56.2938 181.888C55.9579 182.162 55.5416 182.317 55.1088 182.331H35.2933C34.1714 182.331 33.7794 181.714 34.1173 180.482L67.8623 84.1876L68.3094 82.8638C68.4963 82.3032 68.6832 81.7073 68.87 80.9911C69.3103 78.7496 69.5353 76.4709 69.5422 74.1864C69.5195 74.0267 69.5343 73.8638 69.5853 73.7108C69.6364 73.5578 69.7224 73.4187 69.8365 73.3046C69.9505 73.1905 70.0896 73.1046 70.2426 73.0535C70.3957 73.0024 70.5585 72.9876 70.7182 73.0103H97.4334C98.2161 73.0103 98.6642 73.2905 98.7777 73.8508L136.779 180.65C137.115 181.77 136.779 182.33 135.771 182.33H113.928C113.553 182.371 113.176 182.274 112.866 182.058C112.557 181.842 112.337 181.52 112.247 181.154L103.753 156.326ZM71.0548 135.602H97.6017L97.224 134.353L96.6155 132.375L95.7271 129.541L94.0198 124.192L89.3685 109.474C88.5324 106.831 87.7301 104.176 86.9616 101.512L86.1026 98.483L85.3981 95.9714L84.5322 92.8307L84.3277 92.0842H84.1604C83.3191 96.1173 82.295 100.11 81.0912 104.05L79.9563 107.693L77.2265 116.498L75.4683 122.192L74.7218 124.567L73.9802 126.886L73.2425 129.149C72.533 131.307 71.8044 133.458 71.0548 135.602ZM148.54 180.731V118.799C148.541 118.377 148.539 117.943 148.536 117.498L148.524 116.128L148.504 114.693L148.457 112.415L148.401 110.426C148.371 109.466 148.335 108.506 148.294 107.546L148.205 105.694L148.078 103.396L147.973 101.714L147.91 100.855L147.869 100.358C147.803 100.19 147.784 100.008 147.814 99.8307C147.843 99.6533 147.92 99.4871 148.036 99.3498C148.173 99.2295 148.333 99.1378 148.507 99.0802C148.68 99.0225 148.863 99.0001 149.045 99.0142H165.818C166.396 98.9951 166.972 99.1099 167.498 99.3498C167.951 99.5837 168.264 100.022 168.338 100.526L169.094 102.795C169.404 103.906 169.601 105.047 169.682 106.198C172.931 103.352 176.695 101.156 180.771 99.7294C184.824 98.326 189.084 97.6158 193.373 97.6288C196.713 97.6447 200.03 98.1835 203.203 99.2256C206.866 100.397 210.207 102.403 212.963 105.085C215.718 107.768 217.813 111.054 219.082 114.684C220.762 118.997 221.42 124.57 221.42 131.401V180.731C221.42 181.739 220.972 182.243 220.076 182.243L200.445 182.417C200.217 182.45 199.984 182.429 199.765 182.356C199.546 182.283 199.347 182.161 199.184 181.998C199.021 181.835 198.898 181.636 198.825 181.417C198.752 181.198 198.731 180.965 198.764 180.737V133.934C198.709 130.8 198.019 127.709 196.736 124.849C195.835 122.739 194.348 120.931 192.451 119.64C190.308 118.327 187.821 117.683 185.31 117.792C182.61 117.753 179.929 118.239 177.414 119.22C175.114 120.139 173.006 121.478 171.197 123.168V180.731C171.197 181.739 170.749 182.243 169.853 182.243H150.055C149.849 182.272 149.64 182.253 149.443 182.188C149.246 182.122 149.067 182.012 148.92 181.865C148.774 181.718 148.663 181.54 148.597 181.343C148.532 181.146 148.513 180.936 148.542 180.731" fill="#9999FF"/>
</g>
<defs>
<clipPath id="clip0_389_3">
<rect width="256" height="256" fill="white"/>
</clipPath>
</defs>
</svg>
