<svg width="256" height="256" viewBox="0 0 256 256" fill="none" xmlns="http://www.w3.org/2000/svg">
<g clip-path="url(#clip0_248_1760)">
<path d="M196 0H60C26.8629 0 0 26.8629 0 60V196C0 229.137 26.8629 256 60 256H196C229.137 256 256 229.137 256 196V60C256 26.8629 229.137 0 196 0Z" fill="#EE0000"/>
<path d="M130.16 76.104L169.984 174.669L109.999 127.129L130.16 76.104ZM201.097 197.319L139.867 49.4715C138.124 45.2401 134.64 43 130.408 43C126.177 43 122.444 45.2401 120.701 49.4715L53 211.507H76.1479L102.78 144.801L182.429 209.266C185.665 211.755 187.905 213 190.892 213C196.865 213 202.092 208.52 202.092 202.048C202.341 200.804 201.843 199.061 201.097 197.319Z" fill="white"/>
</g>
<defs>
<clipPath id="clip0_248_1760">
<rect width="256" height="256" fill="white"/>
</clipPath>
</defs>
</svg>
