<svg width="256" height="256" viewBox="0 0 256 256" fill="none" xmlns="http://www.w3.org/2000/svg">
<g clip-path="url(#clip0_248_1768)">
<rect width="256" height="256" rx="60" fill="white"/>
<path d="M224.875 128C224.875 181.438 181.438 224.875 128 224.875C74.5625 224.875 31.125 181.438 31.125 128C31.125 74.5625 74.5625 31.125 128 31.125C181.438 31.125 224.875 74.5625 224.875 128Z" fill="#EE0000"/>
<path d="M129.562 90.3438L154.562 152.219L116.906 122.375L129.562 90.3438ZM174.094 166.438L135.656 73.625C134.563 70.9688 132.375 69.5625 129.719 69.5625C127.062 69.5625 124.719 70.9688 123.625 73.625L81.125 175.344H95.6562L112.375 133.469L162.375 173.938C164.406 175.5 165.812 176.281 167.688 176.281C171.438 176.281 174.719 173.469 174.719 169.406C174.875 168.625 174.562 167.531 174.094 166.438Z" fill="white"/>
</g>
<defs>
<clipPath id="clip0_248_1768">
<rect width="256" height="256" fill="white"/>
</clipPath>
</defs>
</svg>
