<svg width="256" height="256" viewBox="0 0 256 256" fill="none" xmlns="http://www.w3.org/2000/svg">
<g clip-path="url(#clip0_248_3094)">
<rect width="256" height="256" rx="60" fill="#242938"/>
<path d="M168.023 28.1001C167.598 27.6251 152.286 28.2876 138.961 42.75C125.636 57.1999 127.686 73.7749 127.986 74.1999C128.286 74.6249 146.986 75.2873 158.923 58.4749C170.861 41.6625 168.448 28.5876 168.023 28.1001ZM209.448 174.762C208.848 173.562 180.386 159.337 183.036 131.987C185.686 104.637 203.973 97.1247 204.261 96.3122C204.548 95.4997 196.798 86.4373 188.586 81.8498C182.555 78.6186 175.882 76.7657 169.048 76.4248C167.698 76.3873 163.011 75.2373 153.374 77.8748C147.024 79.6123 132.711 85.2373 128.774 85.4623C124.824 85.6873 113.074 78.9373 100.436 77.1498C92.3488 75.5873 83.7739 78.7873 77.6364 81.2498C71.5114 83.6998 59.8615 90.6748 51.7115 109.212C43.5616 127.737 47.8241 157.087 50.8741 166.212C53.924 175.337 58.6865 190.262 66.7865 201.162C73.9864 213.462 83.5364 221.999 87.5239 224.899C91.5113 227.799 102.761 229.724 110.561 225.737C116.836 221.887 128.161 219.674 132.636 219.837C137.099 219.999 145.899 221.762 154.911 226.574C162.048 229.037 168.798 228.012 175.561 225.262C182.323 222.499 192.111 212.024 203.536 190.787C207.869 180.912 209.84 175.57 209.448 174.762Z" fill="white"/>
</g>
<defs>
<clipPath id="clip0_248_3094">
<rect width="256" height="256" fill="white"/>
</clipPath>
</defs>
</svg>
