<svg width="256" height="256" viewBox="0 0 256 256" fill="none" xmlns="http://www.w3.org/2000/svg">
<g clip-path="url(#clip0_180_1376)">
<path d="M196 0H60C26.8629 0 0 26.8629 0 60V196C0 229.137 26.8629 256 60 256H196C229.137 256 256 229.137 256 196V60C256 26.8629 229.137 0 196 0Z" fill="#F4F2ED"/>
<path d="M228 172.454V217.272H115.976C83.3386 217.272 54.8416 199.247 39.5952 172.454C37.3787 168.558 35.4389 164.472 33.8116 160.23C30.6172 151.918 28.6092 143 28 133.694V121.577C28.1323 119.503 28.3407 117.446 28.6132 115.413C29.1703 111.24 30.012 107.158 31.1182 103.19C41.5832 65.567 75.6111 38 115.976 38C156.341 38 190.364 65.567 200.83 103.19H152.929C145.066 90.9258 131.455 82.8179 115.976 82.8179C100.497 82.8179 86.8856 90.9258 79.0219 103.19C76.6251 106.918 74.7654 111.029 73.547 115.413C72.4648 119.3 71.8876 123.398 71.8876 127.636C71.8876 140.482 77.2023 152.062 85.7233 160.23C93.6191 167.813 104.264 172.454 115.976 172.454H228Z" fill="#FD366E"/>
<path d="M228 115.412V160.23H146.228C154.749 152.062 160.064 140.482 160.064 127.636C160.064 123.398 159.487 119.299 158.404 115.412H228Z" fill="#FD366E"/>
</g>
<defs>
<clipPath id="clip0_180_1376">
<rect width="256" height="256" fill="white"/>
</clipPath>
</defs>
</svg>
