<svg width="256" height="256" viewBox="0 0 256 256" fill="none" xmlns="http://www.w3.org/2000/svg">
<g clip-path="url(#clip0_248_6595)">
<rect width="256" height="256" rx="60" fill="white"/>
<path d="M127 29C118.098 50.8258 112.693 65.1227 102.782 86.2998C108.858 92.7414 116.327 100.215 128.44 108.688C115.417 103.328 106.539 97.9623 99.9006 92.3789C87.2157 118.848 67.3294 156.536 27 229C58.6896 210.705 83.2559 199.421 106.151 195.113C105.171 190.891 104.648 186.303 104.686 181.539L104.71 180.538C105.213 160.23 115.779 144.615 128.294 145.674C140.808 146.735 150.55 164.063 150.047 184.371C149.952 188.197 149.507 191.872 148.753 195.285C171.401 199.717 195.736 210.951 227 229C220.834 217.649 215.312 207.422 210.057 197.677C201.778 191.261 193.149 182.913 175.535 173.873C187.641 177.018 196.318 180.656 203.074 184.713C149.64 85.2287 145.323 72.0003 127 29Z" fill="#1793D1"/>
<path d="M183.291 147.875C139.943 89.0372 129.895 41.6164 127.35 30.2949C150.473 83.6303 150.315 84.2844 183.291 147.875Z" fill="white" fill-opacity="0.16568"/>
<path d="M127.367 29.8545C126.255 32.5882 125.171 35.241 124.145 37.7647C123.007 40.5602 121.925 43.2291 120.849 45.8457C119.774 48.4623 118.707 51.0157 117.65 53.5361C116.593 56.0567 115.534 58.5484 114.453 61.0556C113.37 63.5628 112.282 66.0961 111.131 68.6729C109.982 71.2497 108.781 73.8781 107.519 76.6074C106.256 79.3368 104.933 82.1634 103.514 85.128C103.318 85.5386 103.08 86.0059 102.88 86.4219C108.938 92.8384 116.397 100.263 128.441 108.687C115.451 103.342 106.583 97.996 99.9498 92.4277C99.6058 93.1308 99.304 93.7586 98.9498 94.4786C98.4823 95.4261 97.9212 96.5034 97.4355 97.4817C96.5829 99.2291 95.6926 101.025 94.7746 102.877C94.4216 103.579 94.1119 104.186 93.7491 104.903C87.9519 116.538 80.76 130.465 71.5078 147.774C96.872 133.484 124.23 112.867 173.925 130.612C171.433 125.892 169.143 121.467 166.991 117.306C164.84 113.145 162.841 109.247 160.985 105.563C159.13 101.878 157.415 98.404 155.809 95.1133C154.205 91.8228 152.717 88.717 151.318 85.7383C149.918 82.7596 148.6 79.8935 147.362 77.1445C146.125 74.3957 144.944 71.7623 143.823 69.1611C142.701 66.5599 141.626 64.0063 140.575 61.4707C139.525 58.9352 138.498 56.4057 137.474 53.8535C137.109 52.9416 136.743 51.9915 136.376 51.0703C133.573 44.4885 130.694 37.6685 127.367 29.8545Z" fill="url(#paint0_linear_248_6595)"/>
</g>
<defs>
<linearGradient id="paint0_linear_248_6595" x1="127.462" y1="52.6924" x2="100.283" y2="135.022" gradientUnits="userSpaceOnUse">
<stop stop-color="white" stop-opacity="0"/>
<stop offset="1" stop-color="white" stop-opacity="0.27451"/>
</linearGradient>
<clipPath id="clip0_248_6595">
<rect width="256" height="256" fill="white"/>
</clipPath>
</defs>
</svg>
