<svg width="256" height="256" viewBox="0 0 256 256" fill="none" xmlns="http://www.w3.org/2000/svg">
<g clip-path="url(#clip0_248_6583)">
<path d="M196 0H60C26.8629 0 0 26.8629 0 60V196C0 229.137 26.8629 256 60 256H196C229.137 256 256 229.137 256 196V60C256 26.8629 229.137 0 196 0Z" fill="#1793D1"/>
<path d="M128 28C119.098 49.8258 113.693 64.1227 103.782 85.2998C109.858 91.7414 117.327 99.2149 129.44 107.688C116.417 102.328 107.539 96.9623 100.901 91.3789C88.2157 117.848 68.3294 155.536 28 228C59.6896 209.705 84.2559 198.421 107.151 194.113C106.171 189.891 105.648 185.303 105.686 180.539L105.71 179.538C106.213 159.23 116.779 143.615 129.294 144.674C141.808 145.735 151.55 163.063 151.047 183.371C150.952 187.197 150.507 190.872 149.753 194.285C172.401 198.717 196.736 209.951 228 228C221.834 216.649 216.312 206.422 211.057 196.677C202.778 190.261 194.149 181.913 176.535 172.873C188.641 176.018 197.318 179.656 204.074 183.713C150.64 84.2287 146.323 71.0003 128 28Z" fill="white"/>
<path d="M184.291 146.875C140.943 88.0372 130.895 40.6164 128.35 29.2949C151.473 82.6303 151.315 83.2844 184.291 146.875Z" fill="white" fill-opacity="0.16568"/>
<path d="M128.367 28.8545C127.255 31.5882 126.171 34.241 125.145 36.7647C124.007 39.5602 122.925 42.2291 121.849 44.8457C120.774 47.4623 119.707 50.0157 118.65 52.5361C117.593 55.0567 116.534 57.5484 115.453 60.0556C114.37 62.5628 113.282 65.0961 112.131 67.6729C110.982 70.2497 109.781 72.8781 108.519 75.6074C107.256 78.3368 105.933 81.1634 104.514 84.128C104.318 84.5386 104.08 85.0059 103.88 85.4219C109.938 91.8384 117.397 99.2634 129.441 107.687C116.451 102.342 107.583 96.996 100.95 91.4277C100.606 92.1308 100.304 92.7586 99.9498 93.4786C99.4823 94.4261 98.9212 95.5034 98.4355 96.4817C97.5829 98.2291 96.6926 100.025 95.7746 101.877C95.4216 102.579 95.1119 103.186 94.7491 103.903C88.9519 115.538 81.76 129.465 72.5078 146.774C97.872 132.484 125.23 111.867 174.925 129.612C172.433 124.892 170.143 120.467 167.991 116.306C165.84 112.145 163.841 108.247 161.985 104.563C160.13 100.878 158.415 97.404 156.809 94.1133C155.205 90.8228 153.717 87.717 152.318 84.7383C150.918 81.7596 149.6 78.8935 148.362 76.1445C147.125 73.3957 145.944 70.7623 144.823 68.1611C143.701 65.5599 142.626 63.0063 141.575 60.4707C140.525 57.9352 139.498 55.4057 138.474 52.8535C138.109 51.9416 137.743 50.9915 137.376 50.0703C134.573 43.4885 131.694 36.6685 128.367 28.8545Z" fill="white"/>
</g>
<defs>
<clipPath id="clip0_248_6583">
<rect width="256" height="256" fill="white"/>
</clipPath>
</defs>
</svg>
