<svg width="256" height="256" viewBox="0 0 256 256" fill="none" xmlns="http://www.w3.org/2000/svg">
<g clip-path="url(#clip0_392_28)">
<rect width="256" height="256" rx="60" fill="#242938"/>
<path d="M230.465 187.293C230.646 189.354 232.294 191.976 235.151 191.976H236.821C237.133 191.975 237.432 191.85 237.653 191.629C237.874 191.408 237.999 191.109 238 190.797V154.052H237.992C237.976 153.752 237.846 153.469 237.628 153.262C237.41 153.054 237.121 152.938 236.821 152.937H231.645C231.344 152.938 231.055 153.054 230.837 153.262C230.619 153.469 230.489 153.752 230.473 154.052H230.465V157.039C227.293 153.128 222.292 151.505 217.278 151.505C214.566 151.505 211.882 152.04 209.377 153.079C206.872 154.117 204.596 155.639 202.679 157.557C200.763 159.475 199.242 161.751 198.206 164.257C197.169 166.762 196.636 169.448 196.637 172.159C196.635 174.871 197.168 177.557 198.205 180.063C199.241 182.569 200.762 184.846 202.678 186.765C204.595 188.683 206.871 190.205 209.376 191.244C211.881 192.283 214.566 192.818 217.278 192.819C222.292 192.819 227.759 190.872 230.465 187.288V187.293ZM217.297 185.589C210.048 185.589 204.172 179.578 204.172 172.162C204.172 164.746 210.048 158.735 217.297 158.735C224.549 158.735 230.425 164.746 230.425 172.162C230.425 179.578 224.549 185.589 217.297 185.589ZM190.093 188.556V169.544C190.093 158.824 183.334 151.594 172.562 151.594C167.419 151.594 163.202 154.569 161.713 157.127C161.389 155.127 160.331 153.026 157.04 153.026H155.365C155.053 153.027 154.753 153.151 154.532 153.372C154.311 153.593 154.187 153.893 154.186 154.206V190.953H154.194C154.226 191.572 154.741 192.068 155.365 192.068H160.544C160.622 192.068 160.7 192.057 160.775 192.044C160.81 192.038 160.84 192.022 160.875 192.014L160.991 191.979C161.037 191.958 161.077 191.933 161.12 191.909L161.185 191.874C161.235 191.839 161.283 191.801 161.327 191.758L161.354 191.739C161.571 191.533 161.7 191.252 161.715 190.953H161.721V169.248C161.72 166.485 162.817 163.834 164.77 161.879C166.724 159.924 169.373 158.825 172.137 158.824C174.9 158.825 177.549 159.924 179.502 161.878C181.456 163.833 182.553 166.483 182.553 169.246L182.556 187.39V187.385L182.561 187.433V190.953H182.566C182.601 191.572 183.113 192.068 183.738 192.068H188.916C188.994 192.067 189.072 192.059 189.148 192.044C189.178 192.038 189.207 192.025 189.237 192.017C189.28 192.006 189.323 191.995 189.363 191.979C189.406 191.96 189.444 191.936 189.485 191.914L189.557 191.874C189.604 191.841 189.649 191.805 189.692 191.766L189.727 191.739C189.775 191.692 189.819 191.641 189.859 191.586L189.867 191.575C189.998 191.394 190.075 191.179 190.088 190.956H190.096L190.093 188.556ZM136.176 187.293C136.356 189.354 138.007 191.976 140.861 191.976H142.531C143.177 191.976 143.708 191.446 143.708 190.797V154.052H143.702C143.686 153.752 143.556 153.47 143.338 153.262C143.12 153.055 142.831 152.939 142.531 152.937H137.352C137.052 152.939 136.763 153.055 136.546 153.262C136.328 153.47 136.198 153.752 136.181 154.052H136.176V157.039C133.003 153.128 128.003 151.505 122.986 151.505C120.274 151.506 117.59 152.041 115.085 153.079C112.581 154.118 110.305 155.64 108.389 157.558C106.472 159.476 104.952 161.752 103.916 164.258C102.879 166.763 102.346 169.448 102.347 172.159C102.347 183.569 111.587 192.819 122.986 192.819C128.003 192.819 133.467 190.872 136.176 187.288V187.293ZM123.007 185.589C115.758 185.589 109.879 179.578 109.879 172.162C109.879 164.746 115.758 158.735 123.007 158.735C130.257 158.735 136.133 164.746 136.133 172.162C136.133 179.578 130.257 185.589 123.007 185.589ZM71.7316 182.029C75.1866 184.425 78.9594 185.589 82.5841 185.589C86.0391 185.589 89.6099 183.798 89.6099 180.68C89.6099 176.516 81.8274 175.867 76.9397 174.203C72.0521 172.542 67.8404 169.106 67.8404 163.539C67.8404 155.022 75.4236 151.502 82.5006 151.502C86.9843 151.502 91.6107 152.983 94.6106 155.105C95.6447 155.886 95.0145 156.788 95.0145 156.788L92.152 160.881C91.8288 161.339 91.2687 161.738 90.4608 161.24C89.653 160.741 86.82 158.735 82.5006 158.735C78.1839 158.735 75.5798 160.728 75.5798 163.205C75.5798 166.168 78.9621 167.102 82.9234 168.115C89.8226 169.975 97.3493 172.213 97.3493 180.68C97.3493 188.182 90.337 192.819 82.5841 192.819C76.7108 192.819 71.7101 191.144 67.5145 188.064C66.642 187.188 67.2506 186.375 67.2506 186.375L70.0997 182.303C70.6814 181.544 71.4112 181.808 71.7316 182.029ZM51.8283 187.293C52.0115 189.354 53.6595 191.976 56.514 191.976H58.1836C58.496 191.975 58.7952 191.85 59.0161 191.629C59.237 191.408 59.3617 191.109 59.3631 190.797V154.052H59.355C59.3392 153.752 59.209 153.469 58.9911 153.262C58.7733 153.054 58.4843 152.938 58.1836 152.937H53.0078C52.7073 152.939 52.4187 153.055 52.201 153.262C51.9833 153.47 51.8529 153.752 51.8364 154.052H51.8283V157.039C48.6561 153.128 43.6554 151.505 38.6412 151.505C33.1651 151.507 27.9142 153.684 24.0433 157.557C20.1724 161.431 17.9986 166.683 18 172.159C18 183.569 27.2421 192.819 38.6412 192.819C43.6554 192.819 49.122 190.872 51.8283 187.288V187.293ZM38.66 185.589C31.4107 185.589 25.5348 179.578 25.5348 172.162C25.5348 164.746 31.4107 158.735 38.6627 158.735C45.912 158.735 51.7879 164.746 51.7879 172.162C51.7879 179.578 45.9093 185.589 38.66 185.589Z" fill="white"/>
<path d="M149.803 101.85C145.375 101.85 141.128 103.623 137.997 106.778C134.866 109.934 133.106 114.213 133.106 118.675C133.106 123.137 134.866 127.417 137.997 130.572C141.128 133.727 145.375 135.5 149.803 135.5C154.231 135.5 158.478 133.727 161.61 130.572C164.741 127.417 166.5 123.137 166.5 118.675C166.5 114.213 164.741 109.934 161.61 106.778C158.478 103.623 154.231 101.85 149.803 101.85ZM106.428 101.854C104.216 101.823 102.02 102.235 99.9676 103.066C97.9153 103.898 96.0473 105.132 94.4724 106.697C92.8974 108.262 91.6468 110.127 90.7932 112.183C89.9396 114.24 89.5 116.446 89.5 118.675C89.5 120.904 89.9396 123.111 90.7932 125.167C91.6468 127.224 92.8974 129.088 94.4724 130.654C96.0473 132.219 97.9153 133.453 99.9676 134.284C102.02 135.116 104.216 135.528 106.428 135.497C110.815 135.435 115.001 133.636 118.082 130.488C121.163 127.34 122.89 123.096 122.89 118.675C122.89 114.254 121.163 110.011 118.082 106.863C115.001 103.715 110.815 101.915 106.428 101.854ZM144.809 80.8231C144.809 85.2849 143.05 89.564 139.919 92.7189C136.788 95.8739 132.542 97.6463 128.114 97.6463C123.686 97.6463 119.439 95.8739 116.309 92.7189C113.178 89.564 111.419 85.2849 111.419 80.8231C111.419 76.3614 113.178 72.0823 116.309 68.9274C119.439 65.7724 123.686 64 128.114 64C132.542 64 136.788 65.7724 139.919 68.9274C143.05 72.0823 144.809 76.3614 144.809 80.8231Z" fill="#FF584A"/>
</g>
<defs>
<clipPath id="clip0_392_28">
<rect width="256" height="256" fill="white"/>
</clipPath>
</defs>
</svg>
