<svg width="256" height="256" viewBox="0 0 256 256" fill="none" xmlns="http://www.w3.org/2000/svg">
<g clip-path="url(#clip0_392_34)">
<rect width="256" height="256" rx="60" fill="white"/>
<path d="M229.465 188.293C229.646 190.354 231.294 192.976 234.151 192.976H235.821C236.133 192.975 236.432 192.85 236.653 192.629C236.874 192.408 236.999 192.109 237 191.797V155.052H236.992C236.976 154.752 236.846 154.469 236.628 154.262C236.41 154.054 236.121 153.938 235.821 153.937H230.645C230.344 153.938 230.055 154.054 229.837 154.262C229.619 154.469 229.489 154.752 229.473 155.052H229.465V158.039C226.293 154.128 221.292 152.505 216.278 152.505C213.566 152.505 210.882 153.04 208.377 154.079C205.872 155.117 203.596 156.639 201.679 158.557C199.763 160.475 198.242 162.751 197.206 165.257C196.169 167.762 195.636 170.448 195.637 173.159C195.635 175.871 196.168 178.557 197.205 181.063C198.241 183.569 199.762 185.846 201.678 187.765C203.595 189.683 205.871 191.205 208.376 192.244C210.881 193.283 213.566 193.818 216.278 193.819C221.292 193.819 226.759 191.872 229.465 188.288V188.293ZM216.297 186.589C209.048 186.589 203.172 180.578 203.172 173.162C203.172 165.746 209.048 159.735 216.297 159.735C223.549 159.735 229.425 165.746 229.425 173.162C229.425 180.578 223.549 186.589 216.297 186.589ZM189.093 189.556V170.544C189.093 159.824 182.334 152.594 171.562 152.594C166.419 152.594 162.202 155.569 160.713 158.127C160.389 156.127 159.331 154.026 156.04 154.026H154.365C154.053 154.027 153.753 154.151 153.532 154.372C153.311 154.593 153.187 154.893 153.186 155.206V191.953H153.194C153.226 192.572 153.741 193.068 154.365 193.068H159.544C159.622 193.068 159.7 193.057 159.775 193.044C159.81 193.038 159.84 193.022 159.875 193.014L159.991 192.979C160.037 192.958 160.077 192.933 160.12 192.909L160.185 192.874C160.235 192.839 160.283 192.801 160.327 192.758L160.354 192.739C160.571 192.533 160.7 192.252 160.715 191.953H160.721V170.248C160.72 167.485 161.817 164.834 163.77 162.879C165.724 160.924 168.373 159.825 171.137 159.824C173.9 159.825 176.549 160.924 178.502 162.878C180.456 164.833 181.553 167.483 181.553 170.246L181.556 188.39V188.385L181.561 188.433V191.953H181.566C181.601 192.572 182.113 193.068 182.738 193.068H187.916C187.994 193.067 188.072 193.059 188.148 193.044C188.178 193.038 188.207 193.025 188.237 193.017C188.28 193.006 188.323 192.995 188.363 192.979C188.406 192.96 188.444 192.936 188.485 192.914L188.557 192.874C188.604 192.841 188.649 192.805 188.692 192.766L188.727 192.739C188.775 192.692 188.819 192.641 188.859 192.586L188.867 192.575C188.998 192.394 189.075 192.179 189.088 191.956H189.096L189.093 189.556ZM135.176 188.293C135.356 190.354 137.007 192.976 139.861 192.976H141.531C142.177 192.976 142.708 192.446 142.708 191.797V155.052H142.702C142.686 154.752 142.556 154.47 142.338 154.262C142.12 154.055 141.831 153.939 141.531 153.937H136.352C136.052 153.939 135.763 154.055 135.546 154.262C135.328 154.47 135.198 154.752 135.181 155.052H135.176V158.039C132.003 154.128 127.003 152.505 121.986 152.505C119.274 152.506 116.59 153.041 114.085 154.079C111.581 155.118 109.305 156.64 107.389 158.558C105.472 160.476 103.952 162.752 102.916 165.258C101.879 167.763 101.346 170.448 101.347 173.159C101.347 184.569 110.587 193.819 121.986 193.819C127.003 193.819 132.467 191.872 135.176 188.288V188.293ZM122.007 186.589C114.758 186.589 108.879 180.578 108.879 173.162C108.879 165.746 114.758 159.735 122.007 159.735C129.257 159.735 135.133 165.746 135.133 173.162C135.133 180.578 129.257 186.589 122.007 186.589ZM70.7316 183.029C74.1866 185.425 77.9594 186.589 81.5841 186.589C85.0391 186.589 88.6099 184.798 88.6099 181.68C88.6099 177.516 80.8274 176.867 75.9397 175.203C71.0521 173.542 66.8404 170.106 66.8404 164.539C66.8404 156.022 74.4236 152.502 81.5006 152.502C85.9843 152.502 90.6107 153.983 93.6106 156.105C94.6447 156.886 94.0145 157.788 94.0145 157.788L91.152 161.881C90.8288 162.339 90.2687 162.738 89.4608 162.24C88.653 161.741 85.82 159.735 81.5006 159.735C77.1839 159.735 74.5798 161.728 74.5798 164.205C74.5798 167.168 77.9621 168.102 81.9234 169.115C88.8226 170.975 96.3493 173.213 96.3493 181.68C96.3493 189.182 89.337 193.819 81.5841 193.819C75.7108 193.819 70.7101 192.144 66.5145 189.064C65.642 188.188 66.2506 187.375 66.2506 187.375L69.0997 183.303C69.6814 182.544 70.4112 182.808 70.7316 183.029ZM50.8283 188.293C51.0115 190.354 52.6595 192.976 55.514 192.976H57.1836C57.496 192.975 57.7952 192.85 58.0161 192.629C58.237 192.408 58.3617 192.109 58.3631 191.797V155.052H58.355C58.3392 154.752 58.209 154.469 57.9911 154.262C57.7733 154.054 57.4843 153.938 57.1836 153.937H52.0078C51.7073 153.939 51.4187 154.055 51.201 154.262C50.9833 154.47 50.8529 154.752 50.8364 155.052H50.8283V158.039C47.6561 154.128 42.6554 152.505 37.6412 152.505C32.1651 152.507 26.9142 154.684 23.0433 158.557C19.1724 162.431 16.9986 167.683 17 173.159C17 184.569 26.2421 193.819 37.6412 193.819C42.6554 193.819 48.122 191.872 50.8283 188.288V188.293ZM37.66 186.589C30.4107 186.589 24.5348 180.578 24.5348 173.162C24.5348 165.746 30.4107 159.735 37.6627 159.735C44.912 159.735 50.7879 165.746 50.7879 173.162C50.7879 180.578 44.9093 186.589 37.66 186.589Z" fill="#0D0E10"/>
<path d="M148.803 102.85C144.375 102.85 140.128 104.623 136.997 107.778C133.866 110.934 132.106 115.213 132.106 119.675C132.106 124.137 133.866 128.417 136.997 131.572C140.128 134.727 144.375 136.5 148.803 136.5C153.231 136.5 157.478 134.727 160.61 131.572C163.741 128.417 165.5 124.137 165.5 119.675C165.5 115.213 163.741 110.934 160.61 107.778C157.478 104.623 153.231 102.85 148.803 102.85ZM105.428 102.854C103.216 102.823 101.02 103.235 98.9676 104.066C96.9153 104.898 95.0473 106.132 93.4724 107.697C91.8974 109.262 90.6468 111.127 89.7932 113.183C88.9396 115.24 88.5 117.446 88.5 119.675C88.5 121.904 88.9396 124.111 89.7932 126.167C90.6468 128.224 91.8974 130.088 93.4724 131.654C95.0473 133.219 96.9153 134.453 98.9676 135.284C101.02 136.116 103.216 136.528 105.428 136.497C109.815 136.435 114.001 134.636 117.082 131.488C120.163 128.34 121.89 124.096 121.89 119.675C121.89 115.254 120.163 111.011 117.082 107.863C114.001 104.715 109.815 102.915 105.428 102.854ZM143.809 81.8231C143.809 86.2849 142.05 90.564 138.919 93.7189C135.788 96.8739 131.542 98.6463 127.114 98.6463C122.686 98.6463 118.439 96.8739 115.309 93.7189C112.178 90.564 110.419 86.2849 110.419 81.8231C110.419 77.3614 112.178 73.0823 115.309 69.9274C118.439 66.7724 122.686 65 127.114 65C131.542 65 135.788 66.7724 138.919 69.9274C142.05 73.0823 143.809 77.3614 143.809 81.8231Z" fill="#FF584A"/>
</g>
<defs>
<clipPath id="clip0_392_34">
<rect width="256" height="256" fill="white"/>
</clipPath>
</defs>
</svg>
