<svg width="256" height="256" viewBox="0 0 256 256" fill="none" xmlns="http://www.w3.org/2000/svg">
<g clip-path="url(#clip0_248_3875)">
<path d="M196 0H60C26.8629 0 0 26.8629 0 60V196C0 229.137 26.8629 256 60 256H196C229.137 256 256 229.137 256 196V60C256 26.8629 229.137 0 196 0Z" fill="#17191E"/>
<path d="M100.569 198.349C91.5337 190.089 88.8961 172.736 92.6604 160.163C99.1875 168.09 108.231 170.601 117.599 172.018C132.061 174.206 146.263 173.387 159.698 166.777C161.234 166.021 162.655 165.014 164.334 163.995C165.594 167.652 165.923 171.344 165.482 175.102C164.412 184.254 159.857 191.323 152.614 196.682C149.717 198.826 146.652 200.742 143.66 202.763C134.47 208.975 131.983 216.258 135.437 226.852C135.519 227.112 135.592 227.37 135.778 228C131.085 225.899 127.657 222.841 125.046 218.821C122.287 214.578 120.975 209.884 120.906 204.806C120.871 202.334 120.871 199.84 120.539 197.404C119.727 191.463 116.939 188.803 111.685 188.65C106.293 188.493 102.028 191.826 100.897 197.076C100.811 197.478 100.685 197.876 100.56 198.344L100.569 198.349Z" fill="url(#paint0_linear_248_3875)"/>
<path d="M49 158.068C49 158.068 75.755 145.035 102.585 145.035L122.813 82.4307C123.571 79.4032 125.782 77.3456 128.278 77.3456C130.775 77.3456 132.986 79.4032 133.743 82.4307L153.972 145.035C185.748 145.035 207.557 158.068 207.557 158.068C207.557 158.068 162.111 34.266 162.022 34.0176C160.718 30.3574 158.516 28 155.548 28H101.014C98.0453 28 95.9322 30.3574 94.5391 34.0176C94.4408 34.2614 49 158.068 49 158.068Z" fill="white"/>
</g>
<defs>
<linearGradient id="paint0_linear_248_3875" x1="91.0004" y1="228" x2="178.243" y2="186.779" gradientUnits="userSpaceOnUse">
<stop stop-color="#D83333"/>
<stop offset="1" stop-color="#F041FF"/>
</linearGradient>
<clipPath id="clip0_248_3875">
<rect width="256" height="256" fill="white"/>
</clipPath>
</defs>
</svg>
