<svg width="256" height="256" viewBox="0 0 256 256" fill="none" xmlns="http://www.w3.org/2000/svg">
<g clip-path="url(#clip0_248_2854)">
<rect width="256" height="256" rx="60" fill="white"/>
<path d="M181.125 28H74.875C48.9867 28 28 48.9867 28 74.875V181.125C28 207.013 48.9867 228 74.875 228H181.125C207.013 228 228 207.013 228 181.125V74.875C228 48.9867 207.013 28 181.125 28Z" fill="#00005B"/>
<path d="M110.194 150.266H79.1783L72.8502 169.953C72.6939 170.734 71.9908 171.203 71.2877 171.125H55.5845C54.647 171.125 54.4127 170.656 54.647 169.641L81.522 92.4531C81.7564 91.5938 81.9908 90.7344 82.3814 89.7188C82.772 88 83.0845 86.2031 83.0845 84.4062C83.0064 84.0156 83.3189 83.5469 83.7877 83.4688C83.8658 83.4688 83.9439 83.4688 84.022 83.4688H105.428C105.975 83.4688 106.444 83.7031 106.522 84.1719L136.834 169.797C137.069 170.734 136.834 171.125 135.975 171.125H118.553C118.006 171.203 117.381 170.812 117.225 170.188L110.194 150.266ZM84.022 133.625H105.194C104.725 131.906 104.022 129.797 103.241 127.609C102.46 125.344 101.756 122.922 100.975 120.422C100.116 117.844 99.4127 115.344 98.5533 112.766C97.6939 110.188 96.9908 107.766 96.2877 105.344C95.5845 103 95.0377 100.812 94.4127 98.8594H94.2564C93.4752 102.453 92.6158 106.047 91.4439 109.641C90.1939 113.625 88.9439 117.844 87.6158 121.984C86.6002 126.203 85.272 130.109 84.022 133.625Z" fill="#9999FF"/>
<path d="M200.819 105.344V156.516C200.819 158.781 200.819 160.734 200.897 162.531C200.975 164.25 201.053 165.812 201.131 167.141C201.288 168.469 201.366 169.25 201.444 170.109C201.522 170.891 201.21 171.203 200.506 171.203H186.21C185.506 171.281 184.881 170.891 184.647 170.266C184.491 169.562 184.335 168.859 184.178 168.156C184.022 167.609 184.022 166.984 184.022 166.437C181.366 168.859 178.085 170.578 174.569 171.594C171.6 172.453 168.397 172.844 165.272 172.844C162.147 172.844 159.1 172.453 156.21 171.437C153.553 170.5 151.053 168.937 149.1 166.828C146.913 164.484 145.35 161.75 144.413 158.703C143.241 154.875 142.694 150.891 142.772 146.828V105.422C142.694 104.953 143.006 104.406 143.631 104.328C143.71 104.328 143.788 104.328 143.866 104.328H159.803C160.272 104.25 160.819 104.563 160.897 105.188C160.897 105.266 160.897 105.344 160.897 105.422V144.641C160.897 148.312 161.756 151.203 163.319 153.312C164.881 155.422 168.163 156.516 171.913 156.516C173.866 156.516 175.741 156.203 177.616 155.5C179.569 154.797 181.288 153.937 182.85 152.766V105.344C182.85 104.797 183.241 104.406 184.022 104.406H199.96C200.35 104.328 200.897 104.641 200.897 105.109C200.819 105.188 200.819 105.266 200.819 105.344Z" fill="#9999FF"/>
</g>
<defs>
<clipPath id="clip0_248_2854">
<rect width="256" height="256" fill="white"/>
</clipPath>
</defs>
</svg>
