<svg width="256" height="256" viewBox="0 0 256 256" fill="none" xmlns="http://www.w3.org/2000/svg">
<g clip-path="url(#clip0_248_4800)">
<rect width="256" height="256" rx="60" fill="white"/>
<path d="M106.308 28.0234L148.31 28C157.826 44.7556 165.849 62.4145 172.691 80.5324C175.427 87.2637 178.193 93.995 180.412 100.938C183.735 111.107 187.924 120.942 191.102 131.17C197.343 152.697 202.858 174.451 208.402 196.182C210.469 204.837 213.332 213.251 215.195 221.957C212.257 222.954 209.303 223.916 206.37 224.943C203.075 226.036 199.577 225.926 196.163 226.232C191.276 226.728 186.368 227.048 181.474 227.486L169.689 219.006C169.151 215.094 169.235 211.094 168.529 207.197C166.526 194.703 163.383 182.436 159.809 170.335L94.2781 179.828C93.7893 182.574 93.2797 185.328 92.7839 188.081C90.5917 197.843 91.1432 207.955 90.5568 217.899L75.5878 227.537C74.6243 228.309 73.3675 227.886 72.2714 227.872C68.5711 227.486 64.8497 227.501 61.1634 227.034C57.4072 226.546 53.3857 227.245 49.8738 225.468C46.9346 224.04 43.9044 222.816 41 221.309C44.3443 204.72 48.7917 188.395 53.1274 172.062C58.4824 151.685 64.8917 131.63 71.4895 111.662C80.7334 82.7981 92.4768 54.8092 106.308 28.0221V28.0234ZM124.509 86.8342C119.057 103.342 112.745 119.515 106.908 135.877L141.761 115.843C138.368 105.972 134.947 96.1153 131.358 86.3241C130.675 84.6705 129.99 82.536 128.105 82.0697C125.864 82.3465 125.207 84.9765 124.509 86.8342Z" fill="#BF2223"/>
</g>
<defs>
<clipPath id="clip0_248_4800">
<rect width="256" height="256" fill="white"/>
</clipPath>
</defs>
</svg>
