<svg width="256" height="256" viewBox="0 0 256 256" fill="none" xmlns="http://www.w3.org/2000/svg">
<g clip-path="url(#clip0_380_507)">
<rect width="256" height="256" rx="60" fill="white"/>
<path d="M80.617 77.9115C74.4938 89.6388 69.7319 99.157 65.8204 106.125C62.0794 113.093 58.5082 118.872 55.4462 123.291C52.2153 127.711 48.9843 131.279 45.4123 133.999C41.8411 136.719 37.4195 139.778 31.9769 143.177L28.916 138.588C32.3173 136.039 35.3784 133.489 38.0993 131.11C40.821 128.73 43.7116 125.161 46.9433 120.742C50.1742 116.323 53.7463 110.544 57.8275 103.066C61.9088 95.7571 67.0111 85.7297 73.1334 73.3218C77.555 64.3137 81.6371 56.8358 85.5486 51.057C89.4602 45.2783 93.202 40.6894 96.943 37.4601C100.514 34.061 104.086 31.851 107.487 30.4914C110.888 29.1317 114.29 28.6218 117.861 28.7918C121.263 28.9617 124.494 29.8116 127.896 31.341C131.127 32.8711 134.868 35.9299 138.609 40.349C142.521 44.7682 146.943 51.2268 151.705 59.5551C156.466 67.8833 162.249 78.9308 168.882 92.5278C173.134 101.366 177.215 108.674 180.957 114.624C184.698 120.572 188.61 125.331 192.691 129.24C196.773 133.149 201.024 136.209 205.786 138.588C210.548 140.967 215.82 143.008 221.942 144.876L225.684 151.335C218.371 150.485 211.739 149.126 205.957 147.086C200.174 145.047 194.902 141.818 189.97 137.568C185.038 133.32 180.276 127.88 175.685 121.252C171.092 114.624 166.331 106.125 161.399 96.0974C155.277 83.8601 150.174 74.0024 145.922 66.354C141.671 58.7055 137.93 52.757 134.698 48.5076C131.467 44.2581 128.406 41.3692 125.855 39.8398C123.304 38.3096 120.583 37.4601 118.032 37.4601C115.14 37.2903 112.419 37.9701 109.699 39.1592C106.977 40.349 104.256 42.559 101.195 45.7883C98.3034 49.0176 95.0725 53.0965 91.8407 58.3652C88.0998 63.4642 84.5285 70.0925 80.617 77.9115Z" fill="url(#paint0_linear_380_507)"/>
<path d="M170.584 155.242C179.598 155.583 188.441 155.073 197.114 153.883C205.788 152.693 213.611 150.823 220.244 148.444L221.094 153.203C209.019 160.852 192.013 164.421 170.244 163.571C160.38 163.231 151.877 162.041 144.734 160.172C137.591 158.302 131.299 155.922 125.686 153.203C121.604 151.333 117.523 149.294 113.781 147.255C110.04 145.215 106.129 143.345 102.216 141.476C98.3048 139.606 94.2235 138.246 90.1422 137.057C86.0601 135.867 81.6385 135.187 77.0464 135.017C70.2442 134.847 63.2715 135.357 56.2988 136.547C49.3261 137.736 42.3526 139.776 35.5504 142.325L32.4893 138.756L38.1015 136.037C43.5433 132.808 49.6656 130.428 56.8089 128.728C63.7816 127.029 70.7543 126.349 77.3867 126.519C82.6587 126.689 87.5911 127.369 92.0127 128.559C96.4343 129.748 100.686 131.278 104.598 133.147C108.509 135.017 112.591 136.887 116.502 139.096C120.414 141.306 124.665 143.345 128.917 145.215C134.53 147.765 140.312 149.804 146.605 151.674C153.237 153.883 161.231 154.903 170.584 155.242Z" fill="url(#paint1_linear_380_507)"/>
<path d="M183.508 90.4859C180.276 90.3161 177.385 91.1657 174.494 92.6959C171.603 94.2252 168.372 97.2848 164.46 101.534C160.718 105.783 156.297 111.731 151.194 119.21C146.093 126.689 139.97 136.377 132.487 148.443C122.453 164.76 113.099 176.488 104.426 183.626C95.7523 190.765 86.7393 194.334 77.2155 193.994C67.1816 193.654 57.6578 188.555 48.9843 179.037C40.1403 169.349 33.5079 155.922 28.916 138.926L37.2489 140.625C41.8411 154.222 47.7937 165.1 54.9361 173.089C62.0794 181.246 69.5622 185.326 77.555 185.666C84.868 186.006 92.3516 182.777 100.004 176.318C107.487 169.859 115.821 159.321 125.004 144.534C133.168 131.447 140.14 120.739 145.753 112.582C151.365 104.423 156.297 97.9646 160.378 93.5454C164.63 88.9565 168.541 85.897 172.113 84.3676C175.685 82.8382 179.596 82.1584 183.848 82.3282C193.372 82.6677 201.875 88.2767 209.188 99.3242C216.501 110.372 223.133 127.198 228.916 149.803L219.732 146.065C214.119 127.369 208.337 113.431 202.385 104.593C196.433 95.2454 190.14 90.6564 183.508 90.4859Z" fill="url(#paint2_linear_380_507)"/>
<path d="M151.199 218.132C155.621 218.301 160.043 216.772 164.294 213.712C168.716 210.653 174.158 204.704 180.791 195.866C185.893 189.238 190.145 183.629 193.546 179.21C196.948 174.791 200.009 170.882 202.9 167.653C205.791 164.253 208.852 161.024 211.913 157.965C214.975 154.905 218.886 151.166 223.478 146.747L228.75 149.637C224.498 154.395 220.927 158.474 218.206 161.874C215.315 165.273 212.594 168.672 209.703 172.242C206.982 175.81 203.921 179.72 200.519 184.139C197.118 188.558 192.866 194.167 187.764 200.965C180.791 210.483 174.499 217.111 168.887 221.191C163.444 225.1 157.322 226.97 150.859 226.799C147.288 226.63 144.057 226.12 141.335 224.93C138.445 223.91 135.213 221.871 131.301 218.811C127.56 215.752 123.138 211.503 118.036 205.894C112.934 200.285 106.472 193.147 98.6485 184.139C92.696 177.341 87.424 171.732 82.6621 167.143C77.9002 162.554 73.1383 158.814 68.3763 156.095C63.6144 153.205 58.6828 150.996 53.4108 149.466C48.138 147.937 42.0157 146.747 35.043 145.897L37.084 139.608C44.2265 140.288 50.6891 141.138 56.3014 142.328C61.9137 143.518 67.1857 145.557 72.2879 148.447C77.2195 151.336 82.3218 155.075 87.424 159.664C92.5262 164.423 98.3082 170.372 104.601 177.68C112.424 186.688 118.716 193.657 123.649 199.095C128.58 204.364 132.662 208.444 135.893 211.333C139.124 214.223 141.846 216.092 144.227 216.942C146.437 217.622 148.819 218.132 151.199 218.132Z" fill="url(#paint3_linear_380_507)"/>
</g>
<defs>
<linearGradient id="paint0_linear_380_507" x1="64.9708" y1="184.599" x2="209.637" y2="84.7697" gradientUnits="userSpaceOnUse">
<stop offset="0.2" stop-color="#FF5800"/>
<stop offset="0.2422" stop-color="#FF5800"/>
<stop offset="0.3192" stop-color="#FFB414"/>
<stop offset="0.3963" stop-color="#FFB414"/>
<stop offset="0.4725" stop-color="#FFB414"/>
<stop offset="0.5476" stop-color="#FFB414"/>
<stop offset="0.62" stop-color="#FFB414"/>
<stop offset="0.6597" stop-color="#FFB414"/>
<stop offset="0.7244" stop-color="#FFB414"/>
<stop offset="0.8061" stop-color="#FF5800"/>
<stop offset="0.9" stop-color="#FF5800"/>
</linearGradient>
<linearGradient id="paint1_linear_380_507" x1="32.6444" y1="163.873" x2="221.245" y2="163.873" gradientUnits="userSpaceOnUse">
<stop offset="0.09" stop-color="#FF5800"/>
<stop offset="0.1898" stop-color="#FF5800"/>
<stop offset="0.3059" stop-color="#FFB414"/>
<stop offset="0.4034" stop-color="#FFB414"/>
<stop offset="0.47" stop-color="#FFB414"/>
<stop offset="0.5314" stop-color="#FFB414"/>
<stop offset="0.6235" stop-color="#FFB414"/>
<stop offset="0.7342" stop-color="#FF5800"/>
<stop offset="0.82" stop-color="#FF5800"/>
</linearGradient>
<linearGradient id="paint2_linear_380_507" x1="-3.30432" y1="171.378" x2="147.964" y2="274.37" gradientUnits="userSpaceOnUse">
<stop offset="0.5" stop-color="#FF5800"/>
<stop offset="0.64" stop-color="#CE056A" stop-opacity="0.99"/>
<stop offset="0.7559" stop-color="#CE056A"/>
<stop offset="0.8091" stop-color="#CE056A" stop-opacity="0.9955"/>
<stop offset="0.8494" stop-color="#CE056A" stop-opacity="0.9968"/>
<stop offset="0.8833" stop-color="#CE056A" stop-opacity="0.9978"/>
<stop offset="0.9131" stop-color="#FF5800" stop-opacity="0.9988"/>
<stop offset="0.9397" stop-color="#FF5800" stop-opacity="0.9997"/>
<stop offset="0.95" stop-color="#FF5800"/>
</linearGradient>
<linearGradient id="paint3_linear_380_507" x1="70.9283" y1="233.287" x2="211.36" y2="135.959" gradientUnits="userSpaceOnUse">
<stop stop-color="#FF5800"/>
<stop offset="0.0624571" stop-color="#FF5800"/>
<stop offset="0.1272" stop-color="#FF5800"/>
<stop offset="0.1929" stop-color="#DC4600"/>
<stop offset="0.259" stop-color="#C80000"/>
<stop offset="0.3" stop-color="#C80000"/>
<stop offset="0.48" stop-color="#C80000"/>
<stop offset="0.91" stop-color="#FF5800"/>
</linearGradient>
<clipPath id="clip0_380_507">
<rect width="256" height="256" fill="white"/>
</clipPath>
</defs>
</svg>
