<svg width="256" height="256" viewBox="0 0 256 256" fill="none" xmlns="http://www.w3.org/2000/svg">
<g clip-path="url(#clip0_380_501)">
<path fill-rule="evenodd" clip-rule="evenodd" d="M256.013 203.509C256.013 232.385 232.389 256.009 203.513 256.009H52.5124C23.6368 256.009 0.0126953 232.385 0.0126953 203.509V52.5085C0.0126953 23.6329 23.6368 0.00878906 52.5124 0.00878906H203.513C232.389 0.00878906 256.013 23.6329 256.013 52.5085V203.509Z" fill="#F1540B"/>
<path d="M79.617 77.9115C73.4938 89.6388 68.7319 99.157 64.8204 106.125C61.0794 113.093 57.5082 118.872 54.4462 123.291C51.2153 127.711 47.9843 131.279 44.4123 133.999C40.8411 136.719 36.4195 139.778 30.9769 143.177L27.916 138.588C31.3173 136.039 34.3784 133.489 37.0993 131.11C39.821 128.73 42.7116 125.161 45.9433 120.742C49.1742 116.323 52.7463 110.544 56.8275 103.066C60.9088 95.7571 66.0111 85.7297 72.1334 73.3218C76.555 64.3137 80.6371 56.8358 84.5486 51.057C88.4602 45.2783 92.202 40.6894 95.943 37.4601C99.5142 34.061 103.086 31.851 106.487 30.4914C109.888 29.1317 113.29 28.6218 116.861 28.7918C120.263 28.9617 123.494 29.8116 126.896 31.341C130.127 32.8711 133.868 35.9299 137.609 40.349C141.521 44.7682 145.943 51.2268 150.705 59.5551C155.466 67.8833 161.249 78.9308 167.882 92.5278C172.134 101.366 176.215 108.674 179.957 114.624C183.698 120.572 187.61 125.331 191.691 129.24C195.773 133.149 200.024 136.209 204.786 138.588C209.548 140.967 214.82 143.008 220.942 144.876L224.684 151.335C217.371 150.485 210.739 149.126 204.957 147.086C199.174 145.047 193.902 141.818 188.97 137.568C184.038 133.32 179.276 127.88 174.685 121.252C170.092 114.624 165.331 106.125 160.399 96.0974C154.277 83.8601 149.174 74.0024 144.922 66.354C140.671 58.7055 136.93 52.757 133.698 48.5076C130.467 44.2581 127.406 41.3692 124.855 39.8398C122.304 38.3096 119.583 37.4601 117.032 37.4601C114.14 37.2903 111.419 37.9701 108.699 39.1592C105.977 40.349 103.256 42.559 100.195 45.7883C97.3034 49.0176 94.0725 53.0965 90.8407 58.3652C87.0998 63.4642 83.5285 70.0925 79.617 77.9115Z" fill="white"/>
<path d="M169.584 155.242C178.598 155.583 187.441 155.073 196.114 153.883C204.788 152.693 212.611 150.823 219.244 148.444L220.094 153.203C208.019 160.852 191.013 164.421 169.244 163.571C159.38 163.231 150.877 162.041 143.734 160.172C136.591 158.302 130.299 155.922 124.686 153.203C120.604 151.333 116.523 149.294 112.781 147.255C109.04 145.215 105.129 143.345 101.216 141.476C97.3048 139.606 93.2235 138.246 89.1422 137.057C85.0601 135.867 80.6385 135.187 76.0464 135.017C69.2442 134.847 62.2715 135.357 55.2988 136.547C48.3261 137.736 41.3526 139.776 34.5504 142.325L31.4893 138.756L37.1015 136.037C42.5433 132.808 48.6656 130.428 55.8089 128.728C62.7816 127.029 69.7543 126.349 76.3867 126.519C81.6587 126.689 86.5911 127.369 91.0127 128.559C95.4343 129.748 99.6862 131.278 103.598 133.147C107.509 135.017 111.591 136.887 115.502 139.096C119.414 141.306 123.665 143.345 127.917 145.215C133.53 147.765 139.312 149.804 145.605 151.674C152.237 153.883 160.231 154.903 169.584 155.242Z" fill="white"/>
<path d="M182.508 90.4859C179.276 90.3161 176.385 91.1657 173.494 92.6959C170.603 94.2252 167.372 97.2848 163.46 101.534C159.718 105.783 155.297 111.731 150.194 119.21C145.093 126.689 138.97 136.377 131.487 148.443C121.453 164.76 112.099 176.488 103.426 183.626C94.7523 190.765 85.7393 194.334 76.2155 193.994C66.1816 193.654 56.6578 188.555 47.9843 179.037C39.1403 169.349 32.5079 155.922 27.916 138.926L36.2489 140.625C40.8411 154.222 46.7937 165.1 53.9361 173.089C61.0794 181.246 68.5622 185.326 76.555 185.666C83.868 186.006 91.3516 182.777 99.0041 176.318C106.487 169.859 114.821 159.321 124.004 144.534C132.168 131.447 139.14 120.739 144.753 112.582C150.365 104.423 155.297 97.9646 159.378 93.5454C163.63 88.9565 167.541 85.897 171.113 84.3676C174.685 82.8382 178.596 82.1584 182.848 82.3282C192.372 82.6677 200.875 88.2767 208.188 99.3242C215.501 110.372 222.133 127.198 227.916 149.803L218.732 146.065C213.119 127.369 207.337 113.431 201.385 104.593C195.433 95.2454 189.14 90.6564 182.508 90.4859Z" fill="white"/>
<path d="M150.199 218.132C154.621 218.301 159.043 216.772 163.294 213.712C167.716 210.653 173.158 204.704 179.791 195.866C184.893 189.238 189.145 183.629 192.546 179.21C195.948 174.791 199.009 170.882 201.9 167.653C204.791 164.253 207.852 161.024 210.913 157.965C213.975 154.905 217.886 151.166 222.478 146.747L227.75 149.637C223.498 154.395 219.927 158.474 217.206 161.874C214.315 165.273 211.594 168.672 208.703 172.242C205.982 175.81 202.921 179.72 199.519 184.139C196.118 188.558 191.866 194.167 186.764 200.965C179.791 210.483 173.499 217.111 167.887 221.191C162.444 225.1 156.322 226.97 149.859 226.799C146.288 226.63 143.057 226.12 140.335 224.93C137.445 223.91 134.213 221.871 130.301 218.811C126.56 215.752 122.138 211.503 117.036 205.894C111.934 200.285 105.472 193.147 97.6485 184.139C91.696 177.341 86.424 171.732 81.6621 167.143C76.9002 162.554 72.1383 158.814 67.3763 156.095C62.6144 153.205 57.6828 150.996 52.4108 149.466C47.138 147.937 41.0157 146.747 34.043 145.897L36.084 139.608C43.2265 140.288 49.6891 141.138 55.3014 142.328C60.9137 143.518 66.1857 145.557 71.2879 148.447C76.2195 151.336 81.3218 155.075 86.424 159.664C91.5262 164.423 97.3082 170.372 103.601 177.68C111.424 186.688 117.716 193.657 122.649 199.095C127.58 204.364 131.662 208.444 134.893 211.333C138.124 214.223 140.846 216.092 143.227 216.942C145.437 217.622 147.819 218.132 150.199 218.132Z" fill="white"/>
</g>
<defs>
<clipPath id="clip0_380_501">
<rect width="256" height="256" fill="white"/>
</clipPath>
</defs>
</svg>
