<svg width="256" height="256" viewBox="0 0 256 256" fill="none" xmlns="http://www.w3.org/2000/svg">
<g clip-path="url(#clip0_248_3891)">
<path d="M196 0H60C26.8629 0 0 26.8629 0 60V196C0 229.137 26.8629 256 60 256H196C229.137 256 256 229.137 256 196V60C256 26.8629 229.137 0 196 0Z" fill="url(#paint0_linear_248_3891)"/>
<path fill-rule="evenodd" clip-rule="evenodd" d="M140.505 39.2986L140.611 50.5972L161.478 50.7971L182.347 50.9971L179.989 54.7966C178.692 56.8864 177.285 59.1361 176.862 59.796C176.439 60.4559 174.485 63.6056 172.519 66.7952C170.553 69.9848 167.069 75.6035 164.776 79.2816C162.484 82.9596 160.426 86.2892 160.203 86.6807C159.981 87.0721 159.508 87.8425 159.152 88.3925C158.796 88.9424 157.287 91.3721 155.798 93.7918C151.871 100.177 144.063 112.759 143.02 114.389C141.284 117.098 140.411 118.688 140.411 119.138C140.411 119.475 151.687 119.566 184.105 119.491L227.8 119.389V107.99V96.5914L204.694 96.4879L181.589 96.385L182.259 95.0881C182.628 94.3752 183.245 93.3418 183.63 92.7919C184.015 92.242 185.814 89.3623 187.627 86.3927C189.441 83.4231 191.328 80.3635 191.822 79.5935C192.315 78.8236 194.377 75.4941 196.404 72.1945C198.43 68.8949 200.498 65.5653 200.999 64.7954C201.5 64.0255 203.124 61.4158 204.608 58.9961C206.091 56.5764 207.712 53.9668 208.209 53.1969C208.706 52.4269 210.601 49.3673 212.42 46.3977C214.238 43.4281 216.305 40.0985 217.013 38.9986C219.442 35.2271 223.601 28.4139 223.601 28.207C223.601 28.093 204.88 28 182 28H140.398L140.505 39.2986ZM71.4421 36.099C69.9398 39.0136 67.5891 43.5581 66.2182 46.1977C64.8479 48.8374 62.0587 54.2367 60.02 58.1962C57.9813 62.1557 55.1011 67.735 53.6188 70.5947C47.4281 82.5392 44.9329 87.3631 35.5701 105.49C33.7808 108.955 31.625 113.071 30.7802 114.638C29.9353 116.205 29.0644 117.96 28.8444 118.538L28.4449 119.589L45.1329 119.588L61.8208 119.587L64.326 114.688C72.3625 98.9731 75.93 92.222 76.254 92.119C76.4544 92.055 77.2488 93.1234 78.0188 94.4932C80.4794 98.8711 81.8738 101.326 83.4141 103.991C84.2405 105.42 85.3438 107.344 85.8658 108.264C86.3877 109.185 88.058 112.064 89.5773 114.663L92.34 119.389L109.557 119.493L126.774 119.597L125.345 117.093C124.558 115.716 123.556 113.959 123.117 113.189C122.678 112.419 120.291 108.28 117.813 103.991C115.334 99.701 112.806 95.2916 112.194 94.1917C111.584 93.0919 109.974 90.3022 108.618 87.9925C106.263 83.982 103.544 79.2416 101.619 75.794C101.127 74.9141 98.0157 69.5148 94.7037 63.7955C91.3916 58.0762 88.187 52.4969 87.5826 51.3971C86.9776 50.2972 84.4435 45.8853 81.9508 41.5923C79.4581 37.2998 77.0629 33.1154 76.6279 32.2935C75.2101 29.6148 74.5262 30.1162 71.4421 36.099ZM28.1135 163.878L28.2265 192.979L29.3523 196.179C34.3567 210.405 44.5839 221.334 58.0033 226.795L60.9039 227.975L75.9605 227.969C92.7709 227.963 91.92 228.079 98.0208 224.951C113.329 217.103 123.021 202.879 124.79 185.664C125.236 181.326 125.396 137.329 124.97 136.218C124.754 135.657 122.971 135.587 108.994 135.587H93.2613L93.1209 160.283C92.9649 187.629 93.0964 186.225 90.2697 190.694C83.5356 201.339 66.7267 200.439 60.9934 189.126C59.2096 185.605 59.1076 184.164 58.8586 158.984L58.6212 134.987L43.3106 134.882L28 134.777L28.1135 163.878ZM140.277 135.854C140.131 136.001 140.011 156.787 140.011 182.047V227.975H184.006H228V214.78V201.583L197.304 201.481L166.608 201.378L166.505 168.482L166.403 135.587H153.473C146.362 135.587 140.424 135.707 140.277 135.854Z" fill="white"/>
</g>
<defs>
<linearGradient id="paint0_linear_248_3891" x1="0" y1="0" x2="256" y2="266" gradientUnits="userSpaceOnUse">
<stop stop-color="#014C8E"/>
<stop offset="1" stop-color="#013B70"/>
</linearGradient>
<clipPath id="clip0_248_3891">
<rect width="256" height="256" fill="white"/>
</clipPath>
</defs>
</svg>
