<svg width="256" height="256" viewBox="0 0 256 256" fill="none" xmlns="http://www.w3.org/2000/svg">
<g clip-path="url(#clip0_248_2284)">
<path d="M196 0H60C26.8629 0 0 26.8629 0 60V196C0 229.137 26.8629 256 60 256H196C229.137 256 256 229.137 256 196V60C256 26.8629 229.137 0 196 0Z" fill="#00ADEF"/>
<path d="M96.1379 34.6547C98.0957 34.6548 100.004 35.2691 101.594 36.4112C103.184 37.5533 104.376 39.1655 105.002 41.0207L161.84 209.425C162.316 210.833 162.449 212.334 162.23 213.804C162.01 215.273 161.443 216.669 160.576 217.876C159.709 219.083 158.568 220.067 157.245 220.744C155.923 221.422 154.458 221.775 152.972 221.774H218.468C219.953 221.772 221.417 221.418 222.738 220.739C224.058 220.061 225.199 219.078 226.066 217.873C226.933 216.665 227.499 215.269 227.719 213.799C227.939 212.329 227.805 210.828 227.329 209.42L170.495 41.016C169.869 39.1602 168.677 37.5477 167.086 36.4055C165.496 35.2634 163.587 34.6493 161.628 34.6499L96.1379 34.6547ZM94.0233 35.4112C92.062 35.4112 90.1501 36.0266 88.5571 37.1706C86.9641 38.3147 85.7702 39.9298 85.1437 41.7884L28.313 210.183C27.838 211.591 27.705 213.091 27.9248 214.56C28.1447 216.028 28.7112 217.424 29.5774 218.63C30.4436 219.837 31.5846 220.82 32.9061 221.498C34.2276 222.176 35.6915 222.529 37.1767 222.529H82.9088C84.8699 222.529 86.7804 221.88 88.3727 220.768C89.9656 219.624 91.1597 218.01 91.7868 216.152L102.896 183.372L81.6695 163.022C81.2801 162.59 79.5279 159.423 81.0854 156.688C82.8392 154.062 85.7626 154.062 85.7626 154.062H113.121L127.484 112.679L102.93 40.4604C102.863 40.1359 101.483 38.2999 99.3194 36.8516C97.1509 35.4033 94.0249 35.4128 94.0249 35.4128L94.0233 35.4112ZM86.2992 155.293C85.4327 155.292 84.5859 155.552 83.8692 156.039C83.1526 156.526 82.5993 157.217 82.2815 158.023C81.9637 158.829 81.8961 159.713 82.0877 160.558C82.2792 161.403 82.7209 162.17 83.3552 162.761L143.233 218.65C144.975 220.28 147.193 221.231 149.575 221.231C149.575 221.231 151.604 221.339 152.828 221.179C155.704 220.747 158.407 218.381 159.301 217.396C161.608 214.327 160.558 209.561 160.558 209.561L142.435 155.303L86.2992 155.293Z" fill="#F1F5F9"/>
</g>
<defs>
<clipPath id="clip0_248_2284">
<rect width="256" height="256" fill="white"/>
</clipPath>
</defs>
</svg>
