<svg width="256" height="256" viewBox="0 0 256 256" fill="none" xmlns="http://www.w3.org/2000/svg">
<g clip-path="url(#clip0_381_548)">
<path fill-rule="evenodd" clip-rule="evenodd" d="M256.013 203.509C256.013 232.385 232.389 256.009 203.513 256.009H52.5124C23.6368 256.009 0.0126953 232.385 0.0126953 203.509V52.5085C0.0126953 23.6329 23.6368 0.00878906 52.5124 0.00878906H203.513C232.389 0.00878906 256.013 23.6329 256.013 52.5085V203.509Z" fill="#00C5FF"/>
<path d="M128.417 161.525C114.75 161.525 103.642 150.633 103.642 137.233C103.642 123.833 114.75 112.942 128.417 112.942C142.083 112.942 153.192 123.833 153.192 137.233C153.192 150.633 142.083 161.525 128.417 161.525ZM128.417 78C95.1 78 68 104.571 68 137.233V228H103.642V191.346L106.446 192.425C113.458 195.108 120.842 196.467 128.417 196.467C161.733 196.467 188.833 169.896 188.833 137.233C188.833 104.571 161.733 78 128.417 78Z" fill="white"/>
<path d="M68 61.3333H101.333V28H68V61.3333Z" fill="white"/>
</g>
<defs>
<clipPath id="clip0_381_548">
<rect width="256" height="256" fill="white"/>
</clipPath>
</defs>
</svg>
