<svg width="256" height="256" viewBox="0 0 256 256" fill="none" xmlns="http://www.w3.org/2000/svg">
<g clip-path="url(#clip0_355_183)">
<rect width="256" height="256" rx="60" fill="white"/>
<path d="M28.7705 200.072L49.6025 186.19L70.4346 200.072L28.7705 227.855V200.072ZM228.762 55.6477L207.93 69.5303L187.097 55.6477L228.762 27.8555V55.6477ZM228.762 161.183L128.766 227.855L28.7705 161.183L147.52 82.0247L168.352 95.9164L72.5213 159.804L130.853 198.693L157.927 180.636L137.095 166.745L187.097 133.4L228.762 161.183ZM28.7705 94.5371L128.775 27.8823L228.771 94.5371L110.021 173.695L89.1888 159.804L185.02 95.9164L126.688 57.0359L99.6048 75.0924L120.437 88.975L70.4346 122.32L28.7705 94.5371Z" fill="#2360A5"/>
</g>
<defs>
<clipPath id="clip0_355_183">
<rect width="256" height="256" fill="white"/>
</clipPath>
</defs>
</svg>
