<svg width="256" height="256" viewBox="0 0 256 256" fill="none" xmlns="http://www.w3.org/2000/svg">
<g clip-path="url(#clip0_355_171)">
<path d="M196 0H60C26.8629 0 0 26.8629 0 60V196C0 229.137 26.8629 256 60 256H196C229.137 256 256 229.137 256 196V60C256 26.8629 229.137 0 196 0Z" fill="#FDE208"/>
<path d="M27.7705 200.072L48.6025 186.19L69.4346 200.072L27.7705 227.855V200.072ZM227.762 55.6477L206.93 69.5303L186.097 55.6477L227.762 27.8555V55.6477ZM227.762 161.183L127.766 227.855L27.7705 161.183L146.52 82.0247L167.352 95.9164L71.5213 159.804L129.853 198.693L156.927 180.636L136.095 166.745L186.097 133.4L227.762 161.183ZM27.7705 94.5371L127.775 27.8823L227.771 94.5371L109.021 173.695L88.1888 159.804L184.02 95.9164L125.688 57.0359L98.6048 75.0924L119.437 88.975L69.4346 122.32L27.7705 94.5371Z" fill="#2360A5"/>
</g>
<defs>
<clipPath id="clip0_355_171">
<rect width="256" height="256" fill="white"/>
</clipPath>
</defs>
</svg>
