<svg width="256" height="256" viewBox="0 0 256 256" fill="none" xmlns="http://www.w3.org/2000/svg">
<g clip-path="url(#clip0_342_62)">
<path d="M196 0H60C26.8629 0 0 26.8629 0 60V196C0 229.137 26.8629 256 60 256H196C229.137 256 256 229.137 256 196V60C256 26.8629 229.137 0 196 0Z" fill="#D1B908"/>
<path d="M197.486 105.755C200.827 87.4927 185.204 72.953 161.447 64.8063C155.048 42.1814 140.576 28.7307 119.403 28.7307C107.097 28.7307 96.1813 33.5547 89.1667 41.0369C73.4148 42.0214 73.3041 60.5606 59.5519 87.0681C48.7902 107.829 57.2568 129.334 83.229 132.669C79.1741 142.052 77.0759 152.925 76.8667 163.908C63.693 148.814 67.3048 133.222 59.9211 133.641C50.6915 134.152 62.4993 166.868 78.8788 185.105C79.5293 188.094 80.3469 191.044 81.3277 193.941C75.6115 195.916 69.6368 201.842 69.6368 208.709C69.6368 216.523 74.99 217.249 81.943 217.323C81.7234 218.222 81.6017 219.142 81.58 220.067C81.5413 221.08 81.7443 222.088 82.1723 223.007C82.6003 223.926 83.2409 224.73 84.0412 225.353C85.7887 226.682 88.2684 227.352 91.7326 227.482C92.2371 227.482 92.7355 227.482 93.2216 227.482C100.544 227.482 105.577 225.433 108.758 222.559C110.124 221.366 111.226 219.9 111.994 218.257C112.762 216.614 113.179 214.829 113.219 213.016C113.223 212.261 113.137 211.509 112.961 210.776C112.866 210.37 112.794 209.959 112.745 209.545C118.655 209.001 124.6 208.963 130.516 209.435C130.429 210.05 130.349 210.524 130.282 210.794C130.118 211.471 130.038 212.166 130.042 212.862C130.042 215.883 131.42 219.55 134.718 222.479C138.016 225.408 143.197 227.5 150.624 227.5C151.11 227.5 151.608 227.5 152.113 227.5C155.491 227.371 157.909 226.737 159.626 225.463C160.418 224.87 161.055 224.094 161.484 223.202C161.912 222.31 162.119 221.327 162.087 220.338C162.07 219.325 161.925 218.318 161.656 217.341C168.726 217.292 174.227 216.646 174.227 208.727C174.227 201.86 168.24 195.935 162.536 193.96C168.597 175.131 168.074 153.22 161.478 135.825L161.084 135.573C167.539 134.353 173.757 132.105 179.5 128.915C181.814 132.607 184.072 136.268 189.413 135.505C197.455 134.355 200.845 122.325 193.954 115.249C195.678 112.316 196.874 109.102 197.486 105.755Z" fill="white" stroke="#231F20" stroke-width="8"/>
<path d="M198.716 104.524C202.057 86.262 186.435 71.7222 162.678 63.5756C156.278 40.9507 141.806 27.5 120.633 27.5C108.327 27.5 97.4117 32.324 90.3972 39.8062C74.6453 40.7907 74.5346 59.3299 60.7824 85.8374C50.0206 106.598 58.4873 128.103 84.4595 131.438C80.4046 140.821 78.3064 151.694 78.0972 162.677C64.9234 147.584 68.5353 131.992 61.1516 132.41C51.922 132.921 63.7297 165.637 80.1093 183.875C80.7598 186.863 81.5774 189.813 82.5582 192.71C76.842 194.686 70.8673 200.611 70.8673 207.478C70.8673 215.292 76.2205 216.018 83.1735 216.092C82.9539 216.991 82.8321 217.911 82.8105 218.836C82.7717 219.85 82.9748 220.857 83.4028 221.776C83.8307 222.696 84.4714 223.5 85.2717 224.122C87.0192 225.451 89.4989 226.122 92.9631 226.251C93.4676 226.251 93.966 226.251 94.4521 226.251C101.774 226.251 106.808 224.202 109.989 221.328C111.354 220.135 112.456 218.67 113.224 217.027C113.992 215.383 114.41 213.598 114.45 211.785C114.454 211.031 114.367 210.279 114.191 209.545C114.096 209.139 114.024 208.729 113.976 208.315C119.885 207.77 125.83 207.733 131.746 208.204C131.66 208.819 131.58 209.293 131.512 209.564C131.349 210.241 131.268 210.935 131.272 211.631C131.272 214.652 132.65 218.32 135.949 221.248C139.247 224.177 144.427 226.269 151.854 226.269C152.34 226.269 152.839 226.269 153.343 226.269C156.721 226.14 159.14 225.506 160.856 224.233C161.648 223.639 162.286 222.864 162.714 221.971C163.143 221.079 163.35 220.096 163.317 219.107C163.3 218.094 163.155 217.087 162.887 216.111C169.957 216.061 175.458 215.415 175.458 207.496C175.458 200.629 169.471 194.704 163.767 192.729C169.827 173.9 169.304 151.989 162.708 134.595L162.315 134.342C168.77 133.122 174.988 130.875 180.731 127.685C183.044 131.376 185.302 135.038 190.643 134.275C198.685 133.124 202.076 121.095 195.184 114.019C196.909 111.085 198.104 107.872 198.716 104.524Z" fill="white" stroke="#231F20" stroke-width="5"/>
<path d="M163.76 192.711C166.221 191.48 176.066 196.402 175.451 207.478C174.836 218.554 161.299 216.092 161.299 216.092L155.146 201.94C155.146 201.94 152.685 174.867 153.3 160.714C153.915 146.562 144.07 136.717 144.07 136.717C147.336 136.303 150.624 136.098 153.915 136.102C159.453 136.102 162.69 134.576 162.69 134.576C162.69 134.576 167.452 140.409 168.067 160.099C168.683 179.789 161.311 193.941 163.76 192.711Z" fill="#A97F2C"/>
<path d="M150.236 40.1139C155.774 45.6516 163.644 65.0031 163.644 65.0031C163.644 65.0031 149.818 63.6002 143.88 58.007C140.471 54.7828 124.528 28.4968 124.528 28.4968C129.451 28.4968 144.698 34.5761 150.236 40.1139Z" fill="#A97F2C"/>
<path d="M120.633 27.5C120.633 27.5 139.708 56.3149 139.511 66.6829C139.203 81.881 112.727 78.3245 129.931 120.092C134.238 130.552 124.393 139.166 110.241 136.705C103.792 135.585 91.7814 138.551 91.7814 157.626C91.7814 176.7 90.5508 201.928 90.5508 201.928L85.013 216.08C85.013 216.08 71.4762 217.926 71.4762 209.927C71.4762 201.928 75.1681 199.467 80.7059 195.159C86.2437 190.852 80.1275 183.862 80.1275 183.862C80.1275 183.862 61.016 156.407 60.4007 152.1C59.7854 147.793 67.1691 142.255 67.1691 142.255C67.1691 142.255 76.1095 160.967 78.097 162.683C80.0844 164.4 79.4753 138.563 83.1671 134.871C86.859 131.18 88.7049 41.9598 88.7049 41.9598C88.7049 41.9598 91.6522 31.4995 120.633 27.5Z" fill="#A97F2C"/>
<path d="M115.779 104.106C90.9571 108.524 78.5894 135.29 78.0972 162.665C64.9234 147.584 68.5353 131.992 61.1515 132.41C51.9219 132.921 63.7297 165.637 80.1092 183.875C80.7598 186.863 81.5773 189.813 82.5581 192.71C76.8419 194.686 70.8673 200.611 70.8673 207.478C70.8673 215.975 77.1988 216.092 85.0194 216.092C86.8459 216.08 88.6511 215.698 90.3261 214.969C92.0011 214.24 93.5114 213.18 94.7659 211.853C112.708 206.863 132.398 206.247 151.565 211.853C152.82 213.18 154.33 214.24 156.005 214.969C157.68 215.698 159.485 216.08 161.312 216.092C169.126 216.092 175.464 215.975 175.464 207.478C175.464 200.611 169.477 194.686 163.773 192.71C169.834 173.882 169.311 151.971 162.714 134.576" stroke="#231F20" stroke-width="5"/>
<path d="M92.3969 155.177C92.3969 155.177 91.7816 195.172 90.5509 201.94C89.3203 208.708 75.7835 224.091 93.0122 224.706C110.241 225.322 113.933 214.861 112.702 209.939C111.471 205.017 110.241 168.098 110.241 168.098" fill="white"/>
<path d="M94.4461 226.257C93.96 226.257 93.4616 226.257 92.9571 226.257C89.4929 226.128 87.0132 225.457 85.2657 224.128C84.4654 223.506 83.8248 222.702 83.3968 221.783C82.9688 220.863 82.7658 219.856 82.8045 218.843C82.8045 215.698 84.3181 212.431 85.7826 209.336C87.2593 206.259 88.773 203.331 89.0498 201.675C89.3267 200.18 89.6036 196.378 89.8313 191.714C90.059 187.031 90.2559 181.407 90.4097 175.986C90.7112 165.157 90.8712 168.086 90.8712 163.545C90.8957 160.688 91.4119 157.858 92.3971 155.177C92.3971 155.177 93.9292 158.253 93.9292 163.575C93.9292 167.464 93.5847 177.728 92.8894 191.88C92.6556 196.611 92.3971 200.352 92.0587 202.241C91.5788 204.764 89.979 207.644 88.5391 210.677C87.087 213.668 85.8441 216.757 85.8687 218.855C85.8281 219.397 85.9226 219.942 86.1438 220.439C86.365 220.936 86.706 221.371 87.1362 221.704C88.0838 222.442 89.942 223.088 93.0617 223.193C93.5354 223.193 93.9908 223.193 94.4461 223.193C101.215 223.193 105.423 221.347 107.94 219.052C108.985 218.144 109.83 217.03 110.422 215.779C111.014 214.528 111.34 213.168 111.379 211.785C111.382 211.281 111.324 210.78 111.207 210.29C110.838 208.776 110.592 205.613 110.26 201.411C109.97 197.239 109.7 192.181 109.472 187.259C109.01 177.414 109.14 179.69 109.14 175.697C109.171 173.127 109.542 170.572 110.241 168.098C111.445 170.817 112.118 173.741 112.222 176.712C112.222 181.093 111.952 173.23 112.222 179.973C112.505 186.742 112.893 195.018 113.324 201.22C113.452 204.015 113.74 206.801 114.185 209.564C114.361 210.297 114.448 211.049 114.444 211.803C114.404 213.612 113.99 215.392 113.226 217.032C112.462 218.671 111.366 220.135 110.007 221.328C106.826 224.22 101.793 226.251 94.4707 226.251L94.4461 226.257Z" fill="#231F20"/>
<path d="M153.313 155.177C153.313 155.177 153.928 195.172 155.159 201.94C156.389 208.708 170.541 224.091 153.313 224.706C136.084 225.322 131.777 214.861 133.007 209.939C134.238 205.017 135.469 168.098 135.469 168.098" fill="white"/>
<path d="M135.948 221.236C132.65 218.307 131.272 214.64 131.272 211.619C131.268 210.923 131.349 210.228 131.512 209.552C131.958 206.789 132.245 204.003 132.374 201.208C132.663 197.073 132.927 191.978 133.161 187.087C133.623 177.242 133.93 178.805 133.93 175.187C133.93 171.569 135.813 168.037 135.813 168.037C136.584 170.378 136.985 172.826 137.001 175.291C137.001 179.266 136.311 188.908 135.444 201.417C135.142 205.62 134.866 208.801 134.496 210.302C134.392 210.733 134.34 211.175 134.342 211.619C134.409 213.025 134.768 214.402 135.396 215.662C136.024 216.921 136.908 218.036 137.991 218.935C140.643 221.279 144.993 223.174 151.873 223.181C152.322 223.181 152.783 223.181 153.251 223.181C156.297 223.082 158.112 222.461 159.035 221.759C159.451 221.458 159.782 221.054 159.998 220.588C160.213 220.121 160.305 219.607 160.265 219.095C160.302 217.028 158.967 213.883 157.404 210.838C155.866 207.761 154.162 204.814 153.657 202.223C153.325 200.334 153.042 196.593 152.826 191.861C152.599 187.142 152.408 181.5 152.254 176.066C151.94 165.212 151.793 164.019 151.793 160.173C151.819 157.591 152.015 155.014 152.377 152.457C152.377 152.457 154.869 156.838 154.869 160.173C154.869 163.508 154.949 160.788 155.128 168.172C155.3 175.556 155.558 184.693 155.903 191.72C156.131 196.39 156.407 200.187 156.684 201.682C156.961 203.343 158.567 206.352 160.155 209.459C161.718 212.61 163.311 215.914 163.342 219.101C163.374 220.09 163.167 221.073 162.739 221.965C162.31 222.858 161.673 223.633 160.881 224.227C159.164 225.5 156.746 226.134 153.368 226.263C152.863 226.263 152.365 226.263 151.879 226.263C144.452 226.263 139.277 224.171 135.973 221.242L135.948 221.236Z" fill="#231F20"/>
<path d="M130.681 134.299C164.105 140.452 194.556 127.094 198.691 104.524C202.057 86.262 186.434 71.7222 162.677 63.5756C156.278 40.9507 141.806 27.5 120.633 27.5C99.4605 27.5 82.3057 41.7998 82.3057 59.4407" stroke="#231F20" stroke-width="5"/>
<path d="M200.451 87.3575C201.473 93.3629 196.224 99.276 188.717 100.556C181.211 101.836 174.294 98.0023 173.273 91.9969C172.252 85.9915 177.5 80.1091 185.007 78.7985C192.514 77.4879 199.424 81.3397 200.451 87.3575Z" fill="#231F20" stroke="#231F20" stroke-width="4"/>
<path d="M115.914 85.5054C129.365 121.144 108.789 131.906 91.7079 131.906C60.0995 131.906 49.0608 108.426 60.7763 85.8377C74.9284 58.6041 74.6208 39.7756 91.7079 39.7756C108.795 39.7756 106.949 61.6991 115.914 85.5054Z" fill="#A97F2C"/>
<path d="M115.914 85.5054C129.365 121.144 108.789 131.906 91.7079 131.906C60.0995 131.906 49.0608 108.426 60.7763 85.8377C74.9284 58.6041 74.6208 39.7756 91.7079 39.7756C108.795 39.7756 106.949 61.6991 115.914 85.5054Z" stroke="black" stroke-width="5"/>
<path d="M194.834 80.8164C195.412 82.3424 191.886 85.0867 186.958 86.9695C182.029 88.8524 177.574 89.117 176.996 87.5848C176.417 86.0527 179.943 83.3146 184.872 81.4317C189.8 79.5489 194.255 79.2966 194.834 80.8164Z" fill="white"/>
<path d="M122.707 66.3074C126.69 66.3074 129.918 64.109 129.918 61.3972C129.918 58.6854 126.69 56.4871 122.707 56.4871C118.724 56.4871 115.496 58.6854 115.496 61.3972C115.496 64.109 118.724 66.3074 122.707 66.3074Z" fill="#231F20" stroke="#231F20" stroke-width="4"/>
<path d="M161.17 56.4502C161.17 59.336 159.527 61.6681 155.577 61.6681C151.627 61.6681 148.433 59.336 148.433 56.4502C148.433 53.5644 151.633 51.2324 155.577 51.2324C159.521 51.2324 161.17 53.5706 161.17 56.4502Z" fill="#231F20"/>
<path d="M122.233 59.219C122.233 60.2342 121.212 61.0649 119.957 61.0649C118.701 61.0649 117.674 60.2404 117.674 59.219C117.674 58.1976 118.695 57.373 119.957 57.373C121.218 57.373 122.233 58.2037 122.233 59.219Z" fill="white"/>
<path d="M154.58 55.1396C154.639 55.5347 154.576 55.9385 154.399 56.2965C154.222 56.6546 153.939 56.9499 153.589 57.1426C153.239 57.3354 152.839 57.4165 152.442 57.3749C152.044 57.3333 151.669 57.1711 151.367 56.9101C151.064 56.6491 150.849 56.3018 150.75 55.9148C150.651 55.5278 150.672 55.1197 150.812 54.7454C150.951 54.3711 151.202 54.0484 151.53 53.8208C151.859 53.5932 152.249 53.4715 152.648 53.4722C153.123 53.4478 153.589 53.6076 153.949 53.9182C154.309 54.2288 154.535 54.6664 154.58 55.1396Z" fill="white"/>
<path d="M151.922 128.718C172.27 135.013 197.596 128.644 198.482 103.035C198.482 103.035 198.974 97.5406 197.615 100.18C191.461 112.074 177.088 117.446 154.26 120.338C151.042 120.744 144.175 120.799 143.75 123.827C143.523 125.463 145.615 126.786 151.922 128.718Z" fill="#231F20"/>
<path d="M192.157 111.539C201.498 117.766 198.993 131.647 190.465 133.358C180.922 135.271 180.583 122.35 172.504 120.805C172.504 120.805 180.626 119.119 185.014 116.818C187.653 115.437 190.063 113.657 192.157 111.539Z" fill="#F26322" stroke="#231F20" stroke-width="5"/>
<path d="M185.992 117.827C185.992 117.827 192.625 121.464 193.271 130.644C193.271 130.644 191.48 125.137 190.016 123.186L185.992 117.827Z" fill="#A74624"/>
<path d="M114.609 97.9897C114.609 97.9897 121.064 130.293 81.3828 124.756C81.3828 124.756 96.1502 117.372 101.688 112.757C107.226 108.142 114.609 97.9897 114.609 97.9897Z" fill="#886327"/>
</g>
<defs>
<clipPath id="clip0_342_62">
<rect width="256" height="256" fill="white"/>
</clipPath>
</defs>
</svg>
