<svg width="256" height="256" viewBox="0 0 256 256" fill="none" xmlns="http://www.w3.org/2000/svg">
<g clip-path="url(#clip0_342_68)">
<rect width="256" height="256" rx="60" fill="white"/>
<path d="M197.486 106.755C200.827 88.4925 185.204 73.9527 161.447 65.806C155.048 43.1811 140.576 29.7305 119.403 29.7305C107.097 29.7305 96.1813 34.5545 89.1667 42.0366C73.4148 43.0211 73.3041 61.5604 59.5519 88.0679C48.7902 108.828 57.2568 130.333 83.229 133.668C79.1741 143.052 77.0759 153.924 76.8667 164.908C63.693 149.814 67.3048 134.222 59.9211 134.641C50.6915 135.151 62.4993 167.867 78.8788 186.105C79.5293 189.094 80.3469 192.044 81.3277 194.941C75.6115 196.916 69.6368 202.841 69.6368 209.708C69.6368 217.523 74.99 218.249 81.943 218.323C81.7234 219.222 81.6017 220.142 81.58 221.067C81.5413 222.08 81.7443 223.088 82.1723 224.007C82.6003 224.926 83.2409 225.73 84.0412 226.352C85.7887 227.681 88.2684 228.352 91.7326 228.481C92.2371 228.481 92.7355 228.481 93.2216 228.481C100.544 228.481 105.577 226.432 108.758 223.559C110.124 222.365 111.226 220.9 111.994 219.257C112.762 217.614 113.179 215.829 113.219 214.015C113.223 213.261 113.137 212.509 112.961 211.776C112.866 211.37 112.794 210.959 112.745 210.545C118.655 210 124.6 209.963 130.516 210.434C130.429 211.05 130.349 211.523 130.282 211.794C130.118 212.471 130.038 213.165 130.042 213.862C130.042 216.883 131.42 220.55 134.718 223.479C138.016 226.408 143.197 228.5 150.624 228.5C151.11 228.5 151.608 228.5 152.113 228.5C155.491 228.371 157.909 227.737 159.626 226.463C160.418 225.87 161.055 225.094 161.484 224.202C161.912 223.309 162.119 222.327 162.087 221.338C162.07 220.325 161.925 219.318 161.656 218.341C168.726 218.292 174.227 217.646 174.227 209.727C174.227 202.86 168.24 196.935 162.536 194.959C168.597 176.131 168.074 154.22 161.478 136.825L161.084 136.573C167.539 135.353 173.757 133.105 179.5 129.915C181.814 133.607 184.072 137.268 189.413 136.505C197.455 135.354 200.845 123.325 193.954 116.249C195.678 113.316 196.874 110.102 197.486 106.755Z" fill="white" stroke="#231F20" stroke-width="8"/>
<path d="M198.716 105.524C202.057 87.262 186.435 72.7222 162.678 64.5756C156.278 41.9507 141.806 28.5 120.633 28.5C108.327 28.5 97.4117 33.324 90.3972 40.8062C74.6453 41.7907 74.5346 60.3299 60.7824 86.8374C50.0206 107.598 58.4873 129.103 84.4595 132.438C80.4046 141.821 78.3064 152.694 78.0972 163.677C64.9234 148.584 68.5353 132.992 61.1516 133.41C51.922 133.921 63.7297 166.637 80.1093 184.875C80.7598 187.863 81.5774 190.813 82.5582 193.71C76.842 195.686 70.8673 201.611 70.8673 208.478C70.8673 216.292 76.2205 217.018 83.1735 217.092C82.9539 217.991 82.8321 218.911 82.8105 219.836C82.7717 220.85 82.9748 221.857 83.4028 222.776C83.8307 223.696 84.4714 224.5 85.2717 225.122C87.0192 226.451 89.4989 227.122 92.9631 227.251C93.4676 227.251 93.966 227.251 94.4521 227.251C101.774 227.251 106.808 225.202 109.989 222.328C111.354 221.135 112.456 219.67 113.224 218.027C113.992 216.383 114.41 214.598 114.45 212.785C114.454 212.031 114.367 211.279 114.191 210.545C114.096 210.139 114.024 209.729 113.976 209.315C119.885 208.77 125.83 208.733 131.746 209.204C131.66 209.819 131.58 210.293 131.512 210.564C131.349 211.241 131.268 211.935 131.272 212.631C131.272 215.652 132.65 219.32 135.949 222.248C139.247 225.177 144.427 227.269 151.854 227.269C152.34 227.269 152.839 227.269 153.343 227.269C156.721 227.14 159.14 226.506 160.856 225.233C161.648 224.639 162.286 223.864 162.714 222.971C163.143 222.079 163.35 221.096 163.317 220.107C163.3 219.094 163.155 218.087 162.887 217.111C169.957 217.061 175.458 216.415 175.458 208.496C175.458 201.629 169.471 195.704 163.767 193.729C169.827 174.9 169.304 152.989 162.708 135.595L162.315 135.342C168.77 134.122 174.988 131.875 180.731 128.685C183.044 132.376 185.302 136.038 190.643 135.275C198.685 134.124 202.076 122.095 195.184 115.019C196.909 112.085 198.104 108.872 198.716 105.524Z" fill="white" stroke="#231F20" stroke-width="5"/>
<path d="M163.76 193.711C166.221 192.48 176.066 197.402 175.451 208.478C174.836 219.554 161.299 217.092 161.299 217.092L155.146 202.94C155.146 202.94 152.685 175.867 153.3 161.714C153.915 147.562 144.07 137.717 144.07 137.717C147.336 137.303 150.624 137.098 153.915 137.102C159.453 137.102 162.69 135.576 162.69 135.576C162.69 135.576 167.452 141.409 168.067 161.099C168.683 180.789 161.311 194.941 163.76 193.711Z" fill="#A97F2C"/>
<path d="M150.236 41.1141C155.774 46.6519 163.644 66.0033 163.644 66.0033C163.644 66.0033 149.818 64.6004 143.88 59.0073C140.471 55.7831 124.528 29.4971 124.528 29.4971C129.451 29.4971 144.698 35.5763 150.236 41.1141Z" fill="#A97F2C"/>
<path d="M120.633 28.5C120.633 28.5 139.708 57.3149 139.511 67.6829C139.203 82.881 112.727 79.3245 129.931 121.092C134.238 131.552 124.393 140.166 110.241 137.705C103.792 136.585 91.7814 139.551 91.7814 158.626C91.7814 177.7 90.5508 202.928 90.5508 202.928L85.013 217.08C85.013 217.08 71.4762 218.926 71.4762 210.927C71.4762 202.928 75.1681 200.467 80.7059 196.159C86.2437 191.852 80.1275 184.862 80.1275 184.862C80.1275 184.862 61.016 157.407 60.4007 153.1C59.7854 148.793 67.1691 143.255 67.1691 143.255C67.1691 143.255 76.1095 161.967 78.097 163.683C80.0844 165.4 79.4753 139.563 83.1671 135.871C86.859 132.18 88.7049 42.9598 88.7049 42.9598C88.7049 42.9598 91.6522 32.4995 120.633 28.5Z" fill="#A97F2C"/>
<path d="M115.779 105.106C90.9571 109.524 78.5894 136.29 78.0972 163.665C64.9234 148.584 68.5353 132.992 61.1515 133.41C51.9219 133.921 63.7297 166.637 80.1092 184.875C80.7598 187.863 81.5773 190.813 82.5581 193.71C76.8419 195.686 70.8673 201.611 70.8673 208.478C70.8673 216.975 77.1988 217.092 85.0194 217.092C86.8459 217.08 88.6511 216.698 90.3261 215.969C92.0011 215.24 93.5114 214.18 94.7659 212.853C112.708 207.863 132.398 207.247 151.565 212.853C152.82 214.18 154.33 215.24 156.005 215.969C157.68 216.698 159.485 217.08 161.312 217.092C169.126 217.092 175.464 216.975 175.464 208.478C175.464 201.611 169.477 195.686 163.773 193.71C169.834 174.882 169.311 152.971 162.714 135.576" stroke="#231F20" stroke-width="5"/>
<path d="M92.3969 156.177C92.3969 156.177 91.7816 196.172 90.5509 202.94C89.3203 209.709 75.7835 225.091 93.0122 225.707C110.241 226.322 113.933 215.862 112.702 210.939C111.471 206.017 110.241 169.098 110.241 169.098" fill="white"/>
<path d="M94.4461 227.257C93.96 227.257 93.4616 227.257 92.9571 227.257C89.4929 227.128 87.0132 226.457 85.2657 225.128C84.4654 224.506 83.8248 223.702 83.3968 222.783C82.9688 221.864 82.7658 220.856 82.8045 219.843C82.8045 216.699 84.3181 213.431 85.7826 210.336C87.2593 207.26 88.773 204.331 89.0498 202.676C89.3267 201.18 89.6036 197.378 89.8313 192.714C90.059 188.031 90.2559 182.407 90.4097 176.987C90.7112 166.157 90.8712 169.086 90.8712 164.545C90.8957 161.689 91.4119 158.858 92.3971 156.177C92.3971 156.177 93.9292 159.253 93.9292 164.576C93.9292 168.464 93.5847 178.728 92.8894 192.88C92.6556 197.612 92.3971 201.353 92.0587 203.242C91.5788 205.764 89.979 208.644 88.5391 211.678C87.087 214.668 85.8441 217.757 85.8687 219.855C85.8281 220.398 85.9226 220.942 86.1438 221.439C86.365 221.936 86.706 222.371 87.1362 222.704C88.0838 223.442 89.942 224.088 93.0617 224.193C93.5354 224.193 93.9908 224.193 94.4461 224.193C101.215 224.193 105.423 222.347 107.94 220.052C108.985 219.144 109.83 218.03 110.422 216.779C111.014 215.528 111.34 214.168 111.379 212.785C111.382 212.282 111.324 211.78 111.207 211.29C110.838 209.776 110.592 206.614 110.26 202.411C109.97 198.239 109.7 193.181 109.472 188.259C109.01 178.414 109.14 180.691 109.14 176.697C109.171 174.127 109.542 171.572 110.241 169.098C111.445 171.817 112.118 174.741 112.222 177.713C112.222 182.094 111.952 174.23 112.222 180.974C112.505 187.742 112.893 196.018 113.324 202.22C113.452 205.016 113.74 207.801 114.185 210.564C114.361 211.297 114.448 212.049 114.444 212.804C114.404 214.612 113.99 216.392 113.226 218.032C112.462 219.672 111.366 221.135 110.007 222.329C106.826 225.221 101.793 227.251 94.4707 227.251L94.4461 227.257Z" fill="#231F20"/>
<path d="M153.313 156.177C153.313 156.177 153.928 196.172 155.159 202.94C156.389 209.709 170.541 225.091 153.313 225.707C136.084 226.322 131.777 215.862 133.007 210.939C134.238 206.017 135.469 169.098 135.469 169.098" fill="white"/>
<path d="M135.948 222.236C132.65 219.307 131.272 215.64 131.272 212.619C131.268 211.923 131.349 211.228 131.512 210.552C131.958 207.789 132.245 205.003 132.374 202.208C132.663 198.073 132.927 192.978 133.161 188.087C133.623 178.242 133.93 179.805 133.93 176.187C133.93 172.569 135.813 169.037 135.813 169.037C136.584 171.378 136.985 173.826 137.001 176.291C137.001 180.266 136.311 189.908 135.444 202.417C135.142 206.62 134.866 209.801 134.496 211.302C134.392 211.733 134.34 212.175 134.342 212.619C134.409 214.025 134.768 215.402 135.396 216.662C136.024 217.921 136.908 219.036 137.991 219.935C140.643 222.279 144.993 224.174 151.873 224.181C152.322 224.181 152.783 224.181 153.251 224.181C156.297 224.082 158.112 223.461 159.035 222.759C159.451 222.458 159.782 222.054 159.998 221.588C160.213 221.121 160.305 220.607 160.265 220.095C160.302 218.028 158.967 214.883 157.404 211.838C155.866 208.761 154.162 205.814 153.657 203.223C153.325 201.334 153.042 197.593 152.826 192.861C152.599 188.142 152.408 182.5 152.254 177.066C151.94 166.212 151.793 165.019 151.793 161.173C151.819 158.591 152.015 156.014 152.377 153.457C152.377 153.457 154.869 157.838 154.869 161.173C154.869 164.508 154.949 161.788 155.128 169.172C155.3 176.556 155.558 185.693 155.903 192.72C156.131 197.39 156.407 201.187 156.684 202.682C156.961 204.343 158.567 207.352 160.155 210.459C161.718 213.61 163.311 216.914 163.342 220.101C163.374 221.09 163.167 222.073 162.739 222.965C162.31 223.858 161.673 224.633 160.881 225.227C159.164 226.5 156.746 227.134 153.368 227.263C152.863 227.263 152.365 227.263 151.879 227.263C144.452 227.263 139.277 225.171 135.973 222.242L135.948 222.236Z" fill="#231F20"/>
<path d="M130.681 135.299C164.105 141.452 194.556 128.094 198.691 105.524C202.057 87.262 186.434 72.7222 162.677 64.5756C156.278 41.9507 141.806 28.5 120.633 28.5C99.4605 28.5 82.3057 42.7998 82.3057 60.4407" stroke="#231F20" stroke-width="5"/>
<path d="M200.451 88.3575C201.473 94.3629 196.224 100.276 188.717 101.556C181.211 102.836 174.294 99.0023 173.273 92.9969C172.252 86.9915 177.5 81.1091 185.007 79.7985C192.514 78.4879 199.424 82.3397 200.451 88.3575Z" fill="#231F20" stroke="#231F20" stroke-width="4"/>
<path d="M115.914 86.5051C129.365 122.144 108.789 132.906 91.7079 132.906C60.0995 132.906 49.0608 109.425 60.7763 86.8374C74.9284 59.6038 74.6208 40.7754 91.7079 40.7754C108.795 40.7754 106.949 62.6988 115.914 86.5051Z" fill="#A97F2C"/>
<path d="M115.914 86.5051C129.365 122.144 108.789 132.906 91.7079 132.906C60.0995 132.906 49.0608 109.425 60.7763 86.8374C74.9284 59.6038 74.6208 40.7754 91.7079 40.7754C108.795 40.7754 106.949 62.6988 115.914 86.5051Z" stroke="black" stroke-width="5"/>
<path d="M194.834 81.8162C195.412 83.3422 191.886 86.0864 186.958 87.9693C182.029 89.8521 177.574 90.1167 176.996 88.5846C176.417 87.0525 179.943 84.3143 184.872 82.4315C189.8 80.5487 194.255 80.2964 194.834 81.8162Z" fill="white"/>
<path d="M122.707 67.3076C126.69 67.3076 129.918 65.1093 129.918 62.3975C129.918 59.6857 126.69 57.4873 122.707 57.4873C118.724 57.4873 115.496 59.6857 115.496 62.3975C115.496 65.1093 118.724 67.3076 122.707 67.3076Z" fill="#231F20" stroke="#231F20" stroke-width="4"/>
<path d="M161.17 57.4502C161.17 60.336 159.527 62.6681 155.577 62.6681C151.627 62.6681 148.433 60.336 148.433 57.4502C148.433 54.5644 151.633 52.2324 155.577 52.2324C159.521 52.2324 161.17 54.5706 161.17 57.4502Z" fill="#231F20"/>
<path d="M122.233 60.219C122.233 61.2342 121.212 62.0649 119.957 62.0649C118.701 62.0649 117.674 61.2404 117.674 60.219C117.674 59.1976 118.695 58.373 119.957 58.373C121.218 58.373 122.233 59.2037 122.233 60.219Z" fill="white"/>
<path d="M154.58 56.1396C154.639 56.5347 154.576 56.9385 154.399 57.2965C154.222 57.6546 153.939 57.9499 153.589 58.1426C153.239 58.3354 152.839 58.4165 152.442 58.3749C152.044 58.3333 151.669 58.1711 151.367 57.9101C151.064 57.6491 150.849 57.3018 150.75 56.9148C150.651 56.5278 150.672 56.1197 150.812 55.7454C150.951 55.3711 151.202 55.0484 151.53 54.8208C151.859 54.5932 152.249 54.4715 152.648 54.4722C153.123 54.4478 153.589 54.6076 153.949 54.9182C154.309 55.2288 154.535 55.6664 154.58 56.1396Z" fill="white"/>
<path d="M151.922 129.718C172.27 136.013 197.596 129.644 198.482 104.035C198.482 104.035 198.974 98.5406 197.615 101.18C191.461 113.074 177.088 118.446 154.26 121.338C151.042 121.744 144.175 121.799 143.75 124.827C143.523 126.463 145.615 127.786 151.922 129.718Z" fill="#231F20"/>
<path d="M192.157 112.539C201.498 118.766 198.993 132.647 190.465 134.358C180.922 136.272 180.583 123.35 172.504 121.806C172.504 121.806 180.626 120.12 185.014 117.818C187.653 116.438 190.063 114.657 192.157 112.539Z" fill="#F26322" stroke="#231F20" stroke-width="5"/>
<path d="M185.992 118.827C185.992 118.827 192.625 122.464 193.271 131.644C193.271 131.644 191.48 126.137 190.016 124.186L185.992 118.827Z" fill="#A74624"/>
<path d="M114.609 98.9897C114.609 98.9897 121.064 131.293 81.3828 125.756C81.3828 125.756 96.1502 118.372 101.688 113.757C107.226 109.142 114.609 98.9897 114.609 98.9897Z" fill="#886327"/>
</g>
<defs>
<clipPath id="clip0_342_68">
<rect width="256" height="256" fill="white"/>
</clipPath>
</defs>
</svg>
