<svg width="256" height="256" viewBox="0 0 256 256" fill="none" xmlns="http://www.w3.org/2000/svg">
<g clip-path="url(#clip0_248_2625)">
<rect width="256" height="256" rx="60" fill="white"/>
<path d="M211.665 137.39L211.666 137.39C212.319 137.676 212.902 138.1 213.373 138.636L212.997 138.966L213.373 138.636C213.801 139.124 214.129 139.692 214.335 140.311C214.541 140.929 214.623 141.582 214.574 142.235M211.665 137.39L214.075 142.198M211.665 137.39C211.011 137.104 210.3 136.963 209.582 136.979L211.665 137.39ZM214.574 142.235L214.075 142.198M214.574 142.235C214.574 142.235 214.574 142.235 214.574 142.234L214.075 142.198M214.574 142.235C214.526 142.888 214.349 143.526 214.056 144.112L214.056 144.112C213.763 144.7 213.357 145.227 212.861 145.661M214.075 142.198C214.032 142.785 213.873 143.36 213.609 143.889C213.344 144.419 212.978 144.894 212.531 145.286M212.861 145.661L212.531 145.286M212.861 145.661C212.861 145.661 212.861 145.662 212.861 145.662L212.531 145.286M212.861 145.661C211.864 146.539 210.563 146.992 209.245 146.92L209.244 146.92C207.926 146.847 206.697 146.254 205.83 145.268M212.531 145.286C211.631 146.078 210.458 146.486 209.272 146.421L206.205 144.938M205.83 145.268L206.205 144.938M205.83 145.268C205.83 145.268 205.83 145.268 205.83 145.268L206.205 144.938M205.83 145.268C205.4 144.781 205.074 144.211 204.868 143.593M206.205 144.938C205.82 144.501 205.527 143.99 205.342 143.435M204.868 143.593L205.342 143.435M204.868 143.593C204.868 143.593 204.868 143.593 204.868 143.593L205.342 143.435M204.868 143.593C204.662 142.976 204.581 142.322 204.629 141.67C204.677 141.018 204.853 140.38 205.147 139.791C205.441 139.203 205.847 138.678 206.341 138.243M205.342 143.435L206.341 138.243M206.341 138.243L206.671 138.619L206.341 138.243C206.341 138.243 206.341 138.243 206.341 138.243ZM199.223 132.411C199.368 128.568 200.114 125.174 201.094 122.034H201.278V122.026C203.61 122.044 206.15 122.505 208.977 123.429C220.47 127.19 225.625 137.787 222.215 148.38L222.141 148.61L222.276 148.811C226.458 155.056 228.87 161.476 226.667 166.966C224.465 167.157 221.611 166.771 218.378 165.935C215.011 165.064 211.27 163.715 207.493 162.069L207.211 161.946L206.974 162.142C204.281 164.373 201.592 167.096 199.26 170.669L199.679 170.942L199.26 170.669C197.741 172.996 196.59 175.01 195.581 176.774C195.373 177.138 195.171 177.492 194.973 177.835C193.812 179.848 192.798 181.505 191.517 182.977C188.974 185.899 185.323 188.157 177.217 190.818C168.404 193.71 157.333 193.603 146.628 189.838C149.183 188.59 151.626 187.214 153.958 185.73C168.335 183.334 180.798 176.302 188.683 167.193L188.683 167.193C195.275 159.578 197.927 154.655 198.823 149.606C199.269 147.097 199.294 144.672 199.246 141.949C199.237 141.431 199.226 140.902 199.214 140.358C199.163 138.042 199.106 135.471 199.223 132.411L199.223 132.411Z" fill="#787878" stroke="black"/>
<path d="M151.489 70.4498L151.489 70.45C152.33 73.9281 150.245 77.433 146.811 78.2636C143.375 79.0948 139.919 76.93 139.078 73.4517C138.236 69.9736 140.321 66.4687 143.757 65.6381L143.757 65.638C144.209 65.5293 144.67 65.4708 145.136 65.464L151.489 70.4498ZM151.489 70.4498C150.773 67.4962 148.137 65.4167 145.136 65.464L151.489 70.4498ZM115.746 86.2572L116.43 86.3684L116.32 85.6844L115.966 83.4814L115.472 83.5607L115.966 83.4813C115.332 79.5374 115.579 76.0113 116.874 72.6C118.171 69.1827 120.532 65.8456 124.179 62.3036C129.699 56.9439 136.098 54.4639 142.319 54.5004C148.541 54.5374 154.646 57.0986 159.577 62.1222L160.122 62.6776L160.291 62.8498L160.531 62.8247L161.305 62.7438L161.306 62.7437C170.544 61.7558 178.628 62.8243 183.363 67.6133C180.922 72.5962 174.56 79.413 166.704 85.7106L165.93 86.3303L165.69 86.523L165.754 86.8245L165.96 87.7932C166.938 92.4315 168.52 97.4223 171.358 102.512C173.214 105.838 174.905 108.497 176.367 110.797C176.634 111.217 176.893 111.624 177.144 112.022C178.777 114.605 180.063 116.75 180.942 119.01C182.69 123.506 183.107 128.824 181.248 139.865L181.741 139.948L181.248 139.865C178.303 157.363 164.718 176.849 143.196 186.722C124.38 194.187 98.5174 202.882 63.9298 200.542C63.1968 200.492 62.5708 200.244 62.1797 199.696C61.7588 199.105 61.4848 198.289 61.5323 196.543C61.5681 195.226 61.8126 194.028 62.2089 193.308C62.4192 192.927 62.6041 192.693 62.8324 192.535C63.0587 192.379 63.377 192.263 63.912 192.213C69.4864 191.695 82.0374 188.993 93.8194 184.774L93.6508 184.303L93.8194 184.774C99.7123 182.663 105.408 180.172 109.91 177.311C114.449 174.426 117.748 170.052 118.839 167.113C119.362 165.703 119.796 164.47 119.953 163.123C120.111 161.764 119.985 160.317 119.438 158.46C119.138 157.444 118.403 156.389 117.39 155.359C116.37 154.322 115.035 153.277 113.483 152.286C110.379 150.305 106.367 148.513 102.164 147.423C93.7963 145.253 83.5508 144.538 73.19 144.522C58.4579 144.499 44.1973 145.808 34.5674 146.693C32.5521 146.878 30.7396 147.044 29.1681 147.176C48.4012 124.885 69.3412 114.633 86.9973 111.054C86.9974 111.054 86.9974 111.054 86.9974 111.054L91.6986 110.102L93.1586 109.806L91.8159 109.161L87.4911 107.083L87.4911 107.083C77.2182 102.15 67.7011 98.2096 60.7746 95.3419C58.9873 94.602 57.3724 93.9334 55.9616 93.3377C78.1922 84.5631 97.7281 83.3366 113.545 85.8994C113.545 85.8994 113.545 85.8995 113.545 85.8995L115.746 86.2572Z" fill="#ECECEC" stroke="black"/>
<path d="M175.044 100.455L175.044 100.455C176.761 103.535 178.354 106.028 179.785 108.268C180.117 108.787 180.439 109.292 180.753 109.787C182.418 112.419 183.829 114.79 184.875 117.48C186.978 122.887 187.32 129.208 185.408 140.563C183.138 154.048 175.222 168.261 162.705 179.121C172.105 175.955 180.082 170.694 185.494 164.444C191.877 157.069 193.944 152.967 194.67 148.882C195.035 146.826 195.048 144.66 195.004 141.996C194.997 141.593 194.989 141.179 194.981 140.754C194.934 138.371 194.88 135.609 195.007 132.267V132.267C195.203 127.152 196.292 122.68 197.673 118.758L197.673 118.758L198.002 117.826L198.105 117.536L198.409 117.496L199.391 117.367L199.392 117.367C207.925 116.26 215.586 114.115 219.666 111.614C218.267 106.101 212.943 101.714 205.721 98.3097L205.934 97.8574L205.721 98.3097L205.015 97.9769L204.796 97.8736L204.741 97.6375L204.565 96.8787L175.044 100.455ZM175.044 100.455C172.686 96.2278 171.325 92.0927 170.402 88.1069C173.177 85.8364 175.777 83.5218 178.12 81.2129C178.146 81.2058 178.172 81.1988 178.196 81.1921L178.208 81.1889C178.278 81.1699 178.338 81.1536 178.401 81.1391M175.044 100.455L178.401 81.1391M191.445 92.1867L191.445 92.1868C192.871 92.643 194.054 93.6571 194.732 95.0037L194.733 95.004C195.41 96.3499 195.531 97.918 195.068 99.3636C194.84 100.08 194.474 100.745 193.994 101.32M191.445 92.1867L189.75 91.9238C188.547 91.9248 187.374 92.3155 186.4 93.0368L186.399 93.0369C185.426 93.7583 184.701 94.7728 184.331 95.9326C183.868 97.3783 183.988 98.9464 184.666 100.293L184.666 100.293C185.345 101.64 186.526 102.654 187.954 103.11L187.954 103.11C188.66 103.336 189.405 103.417 190.144 103.351L190.145 103.351C190.885 103.284 191.605 103.07 192.266 102.721L192.266 102.721C192.926 102.373 193.513 101.897 193.994 101.32M191.445 92.1867C190.898 92.0119 190.326 91.9233 189.751 91.9238L191.445 92.1867ZM193.994 101.32L193.61 101M193.994 101.32C193.994 101.32 193.994 101.32 193.994 101.32L193.61 101M193.61 101C193.171 101.527 192.635 101.961 192.033 102.279M193.61 101C194.049 100.474 194.383 99.8664 194.592 99.2116L192.033 102.279M192.033 102.279C191.43 102.597 190.774 102.792 190.1 102.853L192.033 102.279ZM178.401 81.1391C180.564 80.6464 182.654 80.4369 184.647 80.4776L178.401 81.1391ZM184.647 80.4776C194.591 80.6842 202.268 87.0175 204.565 96.8782L184.647 80.4776Z" fill="#B2B2B2" stroke="black"/>
</g>
<defs>
<clipPath id="clip0_248_2625">
<rect width="256" height="256" fill="white"/>
</clipPath>
</defs>
</svg>
