<svg width="256" height="256" viewBox="0 0 256 256" fill="none" xmlns="http://www.w3.org/2000/svg">
<g clip-path="url(#clip0_248_1801)">
<rect width="256" height="256" rx="60" fill="#242938"/>
<path d="M46.292 52.0293C45.4798 52.019 44.6751 52.1833 43.9344 52.5108C43.1938 52.8383 42.5352 53.3209 42.0049 53.9248C41.4745 54.5287 41.0853 55.2393 40.8646 56.0066C40.6439 56.7739 40.597 57.5793 40.7272 58.3663L64.3509 199.125C64.6451 200.848 65.5484 202.413 66.902 203.547C68.2555 204.681 69.9729 205.31 71.7523 205.325H185.084C186.418 205.341 187.714 204.887 188.735 204.045C189.756 203.203 190.435 202.029 190.649 200.736L214.273 58.3936C214.403 57.6066 214.356 56.8013 214.135 56.0341C213.914 55.267 213.525 54.5566 212.994 53.9528C212.464 53.349 211.805 52.8665 211.065 52.5392C210.324 52.2118 209.52 52.0476 208.707 52.0579L46.292 52.0293ZM145.767 153.761H109.594L99.7996 103.537H154.532L145.767 153.761Z" fill="#2684FF"/>
<path d="M206.616 103.467H154.431L145.673 153.651H109.529L66.8516 203.371C68.2043 204.519 69.9288 205.157 71.7169 205.172H184.987C186.32 205.188 187.614 204.735 188.635 203.893C189.655 203.052 190.334 201.879 190.547 200.587L206.616 103.467Z" fill="url(#paint0_linear_248_1801)"/>
</g>
<defs>
<linearGradient id="paint0_linear_248_1801" x1="39228.9" y1="3347.5" x2="23538.7" y2="23660.6" gradientUnits="userSpaceOnUse">
<stop offset="0.18" stop-color="#0052CC"/>
<stop offset="1" stop-color="#2684FF"/>
</linearGradient>
<clipPath id="clip0_248_1801">
<rect width="256" height="256" fill="white"/>
</clipPath>
</defs>
</svg>
