<svg width="256" height="256" viewBox="0 0 256 256" fill="none" xmlns="http://www.w3.org/2000/svg">
<g clip-path="url(#clip0_248_2861)">
<path d="M196 0H60C26.8629 0 0 26.8629 0 60V196C0 229.137 26.8629 256 60 256H196C229.137 256 256 229.137 256 196V60C256 26.8629 229.137 0 196 0Z" fill="#EA7600"/>
<path d="M132.908 137.625C133.278 130.957 136.537 125.089 141.465 120.921C146.642 116.621 153.169 114.284 159.899 114.323C166.996 114.323 173.494 116.822 178.342 120.921C183.261 125.089 186.53 130.967 186.9 137.625C187.279 144.483 184.53 150.85 179.692 155.569C174.366 160.649 167.269 163.453 159.909 163.386C152.542 163.458 145.437 160.654 140.106 155.569C135.277 150.85 132.518 144.483 132.908 137.625Z" fill="white"/>
<path d="M89.8928 151.12C89.9427 153.72 90.7825 158.788 92.022 162.756C94.7358 171.286 99.2648 179.126 105.297 185.739C111.77 192.876 119.685 198.557 128.52 202.403C138.126 206.63 148.514 208.792 159.009 208.751C169.515 208.762 179.906 206.565 189.509 202.303C198.328 198.405 206.232 192.7 212.711 185.559C218.741 178.933 223.264 171.078 225.966 162.537C227.281 158.363 228.12 154.053 228.465 149.691C229.409 137.075 226.299 124.488 219.588 113.763C215.493 107.216 210.263 101.451 204.144 96.7391L204.154 96.7291L141.685 48.7555L141.525 48.6155C137.416 45.4766 130.519 45.4866 126.02 48.6355C121.452 51.8244 120.942 57.0926 124.981 60.4315L124.971 60.4415L151.022 81.6442L71.619 81.7342H71.4991C64.9413 81.7342 58.6335 86.0527 57.3839 91.4909C56.1043 97.039 60.5628 101.637 67.3905 101.657L67.3805 101.687L107.637 101.607L35.7813 156.749L35.5114 156.958C28.7437 162.147 26.5545 170.774 30.813 176.242C35.1515 181.8 44.3484 181.8 51.206 176.262L90.4126 144.183C90.4226 144.183 89.8528 148.511 89.8928 151.12ZM190.638 165.615C182.561 173.853 171.265 178.521 159.019 178.541C146.763 178.561 135.467 173.933 127.38 165.715C123.547 161.896 120.599 157.283 118.743 152.2C116.978 147.372 116.299 142.215 116.754 137.095C117.193 132.047 118.683 127.229 121.092 122.88C123.451 118.592 126.71 114.733 130.709 111.444C138.73 104.997 148.728 101.509 159.019 101.567C169.301 101.486 179.297 104.946 187.329 111.364C191.318 114.623 194.577 118.472 196.936 122.75C199.335 127.109 200.835 131.907 201.275 136.955C201.732 142.075 201.057 147.232 199.295 152.06C197.41 157.145 194.458 161.767 190.638 165.615Z" fill="white"/>
</g>
<defs>
<clipPath id="clip0_248_2861">
<rect width="256" height="256" fill="white"/>
</clipPath>
</defs>
</svg>
