<svg width="256" height="256" viewBox="0 0 256 256" fill="none" xmlns="http://www.w3.org/2000/svg">
<g clip-path="url(#clip0_248_3904)">
<rect width="256" height="256" rx="60" fill="#242938"/>
<path d="M50.0639 68.8284C49.6871 57.9921 58.1288 48 69.5408 48H186.475C197.887 48 206.329 57.9921 205.952 68.8284C205.589 79.2371 206.06 92.7209 209.453 103.715C212.858 114.744 218.598 121.713 228 122.61V132.765C218.598 133.662 212.858 140.632 209.453 151.66C206.06 162.654 205.589 176.138 205.952 186.547C206.329 197.383 197.887 207.374 186.475 207.374H69.5408C58.1288 207.374 49.6871 197.381 50.0639 186.547C50.4265 176.138 49.9558 162.654 46.561 151.66C43.1582 140.633 37.4021 133.662 28 132.765V122.61C37.4021 121.714 43.1582 114.744 46.561 103.715C49.9558 92.7209 50.4249 79.2371 50.0639 68.8284Z" fill="url(#paint0_linear_248_3904)"/>
<g filter="url(#filter0_d_248_3904)">
<path d="M132.946 170.632C151.421 170.632 162.554 161.586 162.554 146.666C162.554 135.387 154.611 127.222 142.816 125.93V125.46C151.481 124.05 158.282 116.002 158.282 107.015C158.282 94.2093 148.172 85.8677 132.766 85.8677H98.1023V170.632H132.946ZM111.583 96.6175H129.516C139.265 96.6175 144.802 100.964 144.802 108.836C144.802 117.236 138.363 121.935 126.688 121.935H111.583V96.6175ZM111.583 159.882V131.98H129.396C142.154 131.98 148.773 136.679 148.773 145.843C148.773 155.006 142.334 159.882 130.178 159.882H111.583Z" fill="url(#paint1_linear_248_3904)"/>
</g>
</g>
<defs>
<filter id="filter0_d_248_3904" x="94.1717" y="82.9198" width="72.3133" height="92.6253" filterUnits="userSpaceOnUse" color-interpolation-filters="sRGB">
<feFlood flood-opacity="0" result="BackgroundImageFix"/>
<feColorMatrix in="SourceAlpha" type="matrix" values="0 0 0 0 0 0 0 0 0 0 0 0 0 0 0 0 0 0 127 0" result="hardAlpha"/>
<feOffset dy="0.98264"/>
<feGaussianBlur stdDeviation="1.96528"/>
<feColorMatrix type="matrix" values="0 0 0 0 0 0 0 0 0 0 0 0 0 0 0 0 0 0 0.15 0"/>
<feBlend mode="normal" in2="BackgroundImageFix" result="effect1_dropShadow_248_3904"/>
<feBlend mode="normal" in="SourceGraphic" in2="effect1_dropShadow_248_3904" result="shape"/>
</filter>
<linearGradient id="paint0_linear_248_3904" x1="57.7195" y1="52.2179" x2="232.483" y2="190.947" gradientUnits="userSpaceOnUse">
<stop stop-color="#9013FE"/>
<stop offset="1" stop-color="#6610F2"/>
</linearGradient>
<linearGradient id="paint1_linear_248_3904" x1="104.201" y1="91.4457" x2="143.262" y2="157.511" gradientUnits="userSpaceOnUse">
<stop stop-color="white"/>
<stop offset="1" stop-color="#F1E5FC"/>
</linearGradient>
<clipPath id="clip0_248_3904">
<rect width="256" height="256" fill="white"/>
</clipPath>
</defs>
</svg>
