<svg width="256" height="256" viewBox="0 0 256 256" fill="none" xmlns="http://www.w3.org/2000/svg">
<g clip-path="url(#clip0_248_3107)">
<rect width="256" height="256" rx="60" fill="#242938"/>
<path d="M122.52 73.6882C110.158 73.7331 97.8194 74.7953 85.6316 76.8641C98.9578 59.9178 119.372 50.0436 140.965 50.0991C157.068 50.148 172.684 55.6164 185.283 65.6188C187.286 67.2966 188.848 67.4364 190.39 65.9184C191.932 64.4004 191.792 62.8823 190.09 60.9049C172.273 39.6717 144.494 29.4668 117.125 34.1C89.7554 38.7332 66.9086 57.5081 57.1139 83.4155C47.8682 86.1895 38.9355 89.9112 30.4586 94.521C28.2958 95.7394 27.5147 97.2574 28.2958 99.075C28.6669 99.8914 29.3483 100.527 30.1899 100.842C31.0314 101.157 31.9639 101.125 32.7817 100.753C39.6107 98.7554 46.58 97.0976 53.8496 95.5796C53.0505 99.4845 52.6413 103.459 52.628 107.444C52.274 134.023 65.7578 158.886 88.2551 173.138C90.438 174.516 92.2604 174.516 93.5421 172.839C94.1625 172.117 94.4335 171.16 94.2831 170.221C94.1326 169.283 93.5761 168.458 92.7611 167.965C78.8966 155.259 71.0199 137.329 71.0523 118.55C71.0109 109.494 72.8591 100.529 76.4795 92.224C83.7692 91.6247 91.6796 91.1653 100.351 91.1653C156.766 91.1653 204.349 109.721 204.349 134.049C204.349 146.373 188.688 158.697 170.184 166.886C165.698 168.884 165.237 170.222 165.858 172.199C166.479 174.177 168.481 174.636 170.804 173.877C203.347 163.231 228 145.754 228 124.602C227.9 95.8792 181.398 73.6882 122.52 73.6882Z" fill="#CC092F"/>
<path d="M145.291 156.14L128.589 165.727V222.813H146.453C148.112 222.813 149.456 221.471 149.456 219.816V158.297C149.488 157.299 148.942 156.372 148.054 155.912C147.166 155.452 146.091 155.54 145.291 156.14Z" fill="#CC092F"/>
<path d="M110.485 178.353V220.937C110.485 222.04 111.382 222.934 112.488 222.934H123.963V168.445L112.508 174.997C111.239 175.631 110.451 176.938 110.485 178.353Z" fill="#CC092F"/>
</g>
<defs>
<clipPath id="clip0_248_3107">
<rect width="256" height="256" fill="white"/>
</clipPath>
</defs>
</svg>
