<svg width="256" height="256" viewBox="0 0 256 256" fill="none" xmlns="http://www.w3.org/2000/svg">
<g clip-path="url(#clip0_248_6607)">
<rect width="256" height="256" rx="60" fill="#242938"/>
<path d="M226.364 33.0176C236.966 43.6134 207.575 90.1938 202.606 95.1652C197.638 100.126 185.018 95.5615 174.422 84.9619C163.82 74.3661 159.253 61.7431 164.222 56.7741C169.188 51.8035 215.765 22.4156 226.364 33.0176ZM77.696 44.2287C61.5105 35.0457 38.4792 24.8299 31.1533 32.1574C23.73 39.5776 34.3194 63.1268 43.5997 79.3414C51.8651 64.9814 63.5849 52.9122 77.696 44.2287Z" fill="#B5010F"/>
<path d="M210.196 91.5107C211.686 96.5652 211.419 100.741 209.001 103.153C203.356 108.801 188.105 102.789 174.357 89.7055C173.383 88.8354 172.434 87.9382 171.511 87.0149C166.539 82.042 162.671 76.7488 160.197 71.874C155.382 63.2357 154.178 55.6068 157.817 51.9666C159.8 49.9856 162.974 49.4456 166.845 50.1418C169.369 48.5453 172.349 46.7668 175.616 44.9451C162.329 38.0147 147.223 34.1006 131.198 34.1006C78.0475 34.1006 34.959 77.1821 34.959 130.337C34.959 183.483 78.0483 226.57 131.198 226.57C184.349 226.57 227.436 183.483 227.436 130.337C227.436 113.172 222.931 97.077 215.061 83.1228C213.36 86.2269 211.706 89.0705 210.196 91.5107Z" fill="#B5010F"/>
</g>
<defs>
<clipPath id="clip0_248_6607">
<rect width="256" height="256" fill="white"/>
</clipPath>
</defs>
</svg>
