<svg width="256" height="256" viewBox="0 0 256 256" fill="none" xmlns="http://www.w3.org/2000/svg">
<g clip-path="url(#clip0_248_5328)">
<rect width="256" height="256" rx="60" fill="white"/>
<path d="M216.949 86.803C217.017 83.7021 216.27 80.6377 214.782 77.9161C213.24 75.2853 211.017 73.1191 208.348 71.6454C184.682 57.9813 161.008 44.3362 137.326 30.7102C130.95 27.023 124.769 27.1538 118.433 30.8983C109.014 36.4331 61.8494 63.4862 47.7956 71.6372C42.0073 74.9892 39.1949 80.1235 39.1949 86.7948V169.205C39.1351 172.24 39.8528 175.24 41.2796 177.92C42.8222 180.631 45.0862 182.861 47.8201 184.362C61.8739 192.538 109.047 219.558 118.465 225.118C124.801 228.862 130.982 228.993 137.367 225.306C161.027 211.636 184.701 197.986 208.389 184.354C211.123 182.853 213.387 180.623 214.929 177.912C216.356 175.232 217.074 172.232 217.014 169.197V86.803H216.949Z" fill="#004482"/>
<path d="M216.964 169.205C217.026 172.24 216.308 175.241 214.88 177.92C214.529 178.558 214.133 179.17 213.694 179.751L128.071 128L208.347 71.6455C211.014 73.1197 213.234 75.286 214.773 77.9162C216.268 80.6356 217.018 83.701 216.948 86.8031C216.964 114.273 216.964 169.205 216.964 169.205Z" fill="#00599C"/>
<path d="M214.774 77.9163L41.255 177.92C39.8345 175.242 39.1225 172.244 39.1866 169.213V86.795C39.1866 80.1237 42.0072 74.9895 47.7873 71.6375C61.8493 63.4864 109.014 36.4334 118.441 30.8822C124.76 27.1377 130.949 27.0069 137.326 30.6941C160.987 44.3637 184.66 58.0142 208.348 71.6457C211.015 73.1198 213.235 75.2862 214.774 77.9163Z" fill="#659AD2"/>
<path d="M131.505 161.291C125.663 161.299 119.925 159.738 114.891 156.771C109.858 153.804 105.713 149.54 102.891 144.425C102.602 143.912 102.329 143.389 102.073 142.855C98.5907 135.662 97.8665 127.443 100.038 119.752C102.209 112.061 107.126 105.434 113.856 101.125C120.586 96.8161 128.662 95.1246 136.555 96.371C144.449 97.6173 151.611 101.715 156.686 107.888C157.12 108.411 157.504 108.959 157.937 109.523C158.133 109.793 158.329 110.063 158.509 110.341L187.181 93.8259C186.483 92.7031 185.753 91.6131 184.99 90.5557C184.589 89.9916 184.173 89.452 183.78 88.9206C173.815 75.9743 159.359 67.2324 143.266 64.4189C127.172 61.6055 110.609 64.9248 96.8421 73.7222C83.0753 82.5196 73.1049 96.1564 68.8974 111.943C64.6899 127.729 66.5506 144.52 74.1127 159.002C74.3907 159.525 74.6769 160.04 74.9303 160.555C80.4841 170.354 88.477 178.551 98.133 184.349C107.789 190.148 118.78 193.352 130.04 193.649C141.299 193.947 152.444 191.329 162.393 186.049C172.342 180.769 180.757 173.006 186.821 163.515L158.787 146.567C155.819 151.093 151.771 154.808 147.008 157.379C142.245 159.949 136.918 161.294 131.505 161.291Z" fill="white"/>
</g>
<defs>
<clipPath id="clip0_248_5328">
<rect width="256" height="256" fill="white"/>
</clipPath>
</defs>
</svg>
