<svg width="256" height="256" viewBox="0 0 256 256" fill="none" xmlns="http://www.w3.org/2000/svg">
<g clip-path="url(#clip0_248_5318)">
<path d="M196 0H60C26.8629 0 0 26.8629 0 60V196C0 229.137 26.8629 256 60 256H196C229.137 256 256 229.137 256 196V60C256 26.8629 229.137 0 196 0Z" fill="url(#paint0_linear_248_5318)"/>
<path d="M134.004 34.001C168.779 34.001 199.14 52.8867 215.403 80.959L215.245 80.6889L174.328 104.247C166.268 90.5988 151.491 81.3875 134.537 81.1975L134.003 81.1945C108.152 81.1945 87.1945 102.152 87.1945 128.003C87.186 136.151 89.3147 144.159 93.368 151.227C101.436 165.312 116.605 174.813 134.004 174.813C151.511 174.813 166.766 165.192 174.793 150.956L174.598 151.297L215.451 174.964C199.367 202.799 169.421 221.626 135.051 222.001L134.004 222.007C99.119 222.007 68.6719 203.005 52.45 174.784C44.5309 161.007 40 145.035 40 128.003C40 76.0877 82.0857 34 134.003 34L134.004 34.001Z" fill="white"/>
</g>
<defs>
<linearGradient id="paint0_linear_248_5318" x1="17.5" y1="17.5" x2="238.5" y2="238.5" gradientUnits="userSpaceOnUse">
<stop stop-color="#659AD2"/>
<stop offset="1" stop-color="#004482"/>
</linearGradient>
<clipPath id="clip0_248_5318">
<rect width="256" height="256" fill="white"/>
</clipPath>
</defs>
</svg>
