<svg width="256" height="256" viewBox="0 0 256 256" fill="none" xmlns="http://www.w3.org/2000/svg">
<g clip-path="url(#clip0_348_43)">
<rect width="256" height="256" rx="60" fill="#242938"/>
<path d="M46.5623 135.416C47.9887 134.167 48.9182 132.526 49.3563 130.495H63.4363C62.791 136.301 60.4535 141.002 56.4257 144.601C52.396 148.2 47.435 150 41.5463 150C37.2508 150 33.3843 149.056 29.945 147.169C26.5057 145.283 23.8217 142.661 21.893 139.304C19.9643 135.947 19 132.18 19 128C19 123.82 19.9643 120.052 21.893 116.696C23.8217 113.339 26.5057 110.717 29.945 108.831C33.3843 106.942 37.2508 106 41.5463 106C47.3415 106 52.2347 107.736 56.2258 111.21C60.2152 114.683 62.5728 119.235 63.2933 124.865H49.415C48.8265 123.008 47.82 121.514 46.3937 120.381C44.9692 119.249 43.3723 118.683 41.605 118.683C39.1722 118.683 37.2105 119.539 35.72 121.251C34.2258 122.964 33.4815 125.213 33.4815 127.998C33.4815 130.766 34.2332 133.007 35.7328 134.719C37.2362 136.431 39.1905 137.286 41.605 137.286C43.486 137.286 45.1378 136.662 46.5623 135.416ZM96.539 123.976C99.2725 126.597 100.64 129.989 100.64 134.145C100.64 138.897 99.0671 142.729 95.9193 145.637C92.7697 148.546 88.6227 150 83.471 150C78.3817 150 74.2438 148.541 71.0557 145.622C67.8657 142.701 66.2725 138.919 66.2725 134.268C66.2725 131.729 66.7107 129.173 67.5852 126.603C68.4597 124.033 69.8127 121.22 71.6442 118.17L78.1158 107.408L91.7925 107.406L84.1347 120.104C84.8992 120.063 85.5023 120.043 85.946 120.043C90.2708 120.043 93.8018 121.354 96.539 123.976ZM87.3045 138.047C88.289 137.044 88.7821 135.744 88.7821 134.145C88.7821 132.548 88.289 131.238 87.3045 130.213C86.3182 129.188 85.0403 128.676 83.4728 128.676C81.9035 128.676 80.6238 129.19 79.6412 130.213C78.653 131.238 78.1617 132.548 78.1617 134.145C78.1617 135.744 78.653 137.044 79.6393 138.047C80.6238 139.051 81.9035 139.554 83.471 139.554C85.0403 139.554 86.32 139.051 87.3045 138.047ZM126.279 126.093C131.138 127.531 134.207 131.83 134.207 137.387C134.207 140.457 133.147 143.125 131.057 145.316C128.98 147.49 126.375 148.594 123.313 148.594H110.065C110.041 148.594 110.017 148.589 109.995 148.579C109.972 148.57 109.952 148.556 109.935 148.538C109.918 148.521 109.904 148.5 109.895 148.478C109.886 148.455 109.882 148.431 109.882 148.407V107.593C109.882 107.49 109.963 107.406 110.065 107.406H121.734C124.571 107.406 126.912 108.354 128.688 110.226C130.514 112.022 131.446 114.424 131.446 117.352C131.446 121.279 129.497 124.517 126.279 126.093ZM129.946 144.265C131.809 142.368 132.714 140.118 132.714 137.385C132.714 134.349 131.785 131.861 129.951 129.995C128.054 128.064 125.716 127.124 122.805 127.124H111.376V147.072H123.311C125.936 147.072 128.169 146.126 129.946 144.265ZM111.374 108.928V125.604H121.734C124.158 125.604 126.144 124.83 127.64 123.307C129.174 121.745 129.951 119.741 129.951 117.352C129.951 112.391 126.573 108.928 121.734 108.928H111.374ZM238.965 148.299C238.985 148.326 238.997 148.359 238.999 148.392C239.002 148.426 238.995 148.46 238.98 148.49C238.965 148.521 238.941 148.546 238.913 148.564C238.884 148.582 238.851 148.592 238.817 148.592H237.427C237.397 148.592 237.368 148.585 237.341 148.571C237.315 148.558 237.292 148.538 237.275 148.513L222.427 127.311L215.869 135.022V148.405C215.869 148.429 215.865 148.454 215.856 148.477C215.847 148.499 215.834 148.52 215.817 148.538C215.799 148.555 215.779 148.569 215.757 148.579C215.734 148.588 215.71 148.594 215.685 148.594H214.582C214.557 148.594 214.533 148.589 214.511 148.579C214.489 148.57 214.468 148.556 214.451 148.538C214.434 148.521 214.421 148.5 214.412 148.478C214.403 148.455 214.398 148.431 214.398 148.407V107.593C214.398 107.49 214.481 107.406 214.582 107.406H215.685C215.786 107.406 215.869 107.49 215.869 107.593V132.754L237.167 107.472C237.184 107.452 237.206 107.435 237.23 107.424C237.254 107.412 237.281 107.406 237.308 107.406H238.767C238.87 107.406 238.952 107.49 238.952 107.593C238.952 107.639 238.934 107.681 238.908 107.714L223.415 126.106L238.965 148.299ZM205.076 107.406C205.177 107.406 205.259 107.49 205.259 107.593V148.407C205.26 148.431 205.255 148.455 205.246 148.478C205.237 148.5 205.223 148.521 205.206 148.538C205.189 148.556 205.169 148.57 205.147 148.579C205.124 148.589 205.1 148.594 205.076 148.594H204.568C204.539 148.594 204.51 148.587 204.484 148.574C204.458 148.56 204.436 148.541 204.42 148.517L177.69 110.75V148.407C177.69 148.431 177.685 148.455 177.676 148.478C177.667 148.5 177.654 148.521 177.637 148.538C177.62 148.556 177.599 148.57 177.577 148.579C177.555 148.589 177.531 148.594 177.506 148.594H176.381C176.356 148.594 176.332 148.589 176.31 148.579C176.288 148.57 176.267 148.556 176.25 148.538C176.233 148.521 176.22 148.5 176.211 148.478C176.202 148.455 176.197 148.431 176.197 148.407V107.593C176.197 107.49 176.28 107.406 176.381 107.406H177.096C177.124 107.407 177.153 107.414 177.178 107.427C177.204 107.441 177.226 107.46 177.242 107.483L203.765 144.956V107.595C203.765 107.492 203.848 107.408 203.948 107.408L205.076 107.406ZM169.55 148.341C169.561 148.369 169.565 148.399 169.561 148.429C169.558 148.459 169.547 148.488 169.53 148.513C169.513 148.538 169.491 148.558 169.464 148.572C169.437 148.586 169.407 148.594 169.377 148.594H168.208C168.17 148.594 168.132 148.581 168.102 148.559C168.071 148.537 168.047 148.505 168.035 148.469L163.357 135.85H144.284L139.608 148.473C139.595 148.508 139.571 148.539 139.541 148.561C139.51 148.582 139.473 148.594 139.435 148.594H138.264C138.234 148.594 138.204 148.586 138.177 148.572C138.151 148.557 138.128 148.537 138.111 148.512C138.094 148.486 138.084 148.458 138.081 148.428C138.078 148.397 138.082 148.367 138.093 148.339L153.292 107.527C153.304 107.492 153.328 107.461 153.359 107.439C153.39 107.418 153.426 107.406 153.464 107.406H154.175C154.214 107.406 154.251 107.418 154.282 107.44C154.313 107.462 154.337 107.493 154.349 107.529L169.55 148.341ZM144.833 134.329H162.81L153.823 110.343L144.833 134.329Z" fill="white"/>
</g>
<defs>
<clipPath id="clip0_348_43">
<rect width="256" height="256" fill="white"/>
</clipPath>
</defs>
</svg>
