<svg width="256" height="256" viewBox="0 0 256 256" fill="none" xmlns="http://www.w3.org/2000/svg">
<g clip-path="url(#clip0_348_37)">
<path d="M196 0H60C26.8629 0 0 26.8629 0 60V196C0 229.137 26.8629 256 60 256H196C229.137 256 256 229.137 256 196V60C256 26.8629 229.137 0 196 0Z" fill="black"/>
<path d="M45.5623 135.416C46.9887 134.167 47.9182 132.526 48.3563 130.495H62.4363C61.791 136.301 59.4535 141.002 55.4257 144.601C51.396 148.2 46.435 150 40.5463 150C36.2508 150 32.3843 149.056 28.945 147.169C25.5057 145.283 22.8217 142.661 20.893 139.304C18.9643 135.947 18 132.18 18 128C18 123.82 18.9643 120.052 20.893 116.696C22.8217 113.339 25.5057 110.717 28.945 108.831C32.3843 106.942 36.2508 106 40.5463 106C46.3415 106 51.2347 107.736 55.2258 111.21C59.2152 114.683 61.5728 119.235 62.2933 124.865H48.415C47.8265 123.008 46.82 121.514 45.3937 120.381C43.9692 119.249 42.3723 118.683 40.605 118.683C38.1722 118.683 36.2105 119.539 34.72 121.251C33.2258 122.964 32.4815 125.213 32.4815 127.998C32.4815 130.766 33.2332 133.007 34.7328 134.719C36.2362 136.431 38.1905 137.286 40.605 137.286C42.486 137.286 44.1378 136.662 45.5623 135.416ZM95.539 123.976C98.2725 126.597 99.6401 129.989 99.6401 134.145C99.6401 138.897 98.0671 142.729 94.9193 145.637C91.7697 148.546 87.6227 150 82.471 150C77.3817 150 73.2438 148.541 70.0557 145.622C66.8657 142.701 65.2725 138.919 65.2725 134.268C65.2725 131.729 65.7107 129.173 66.5852 126.603C67.4597 124.033 68.8127 121.22 70.6442 118.17L77.1158 107.408L90.7925 107.406L83.1347 120.104C83.8992 120.063 84.5023 120.043 84.946 120.043C89.2708 120.043 92.8018 121.354 95.539 123.976ZM86.3045 138.047C87.289 137.044 87.7821 135.744 87.7821 134.145C87.7821 132.548 87.289 131.238 86.3045 130.213C85.3182 129.188 84.0403 128.676 82.4728 128.676C80.9035 128.676 79.6238 129.19 78.6412 130.213C77.653 131.238 77.1617 132.548 77.1617 134.145C77.1617 135.744 77.653 137.044 78.6393 138.047C79.6238 139.051 80.9035 139.554 82.471 139.554C84.0403 139.554 85.32 139.051 86.3045 138.047ZM125.279 126.093C130.138 127.531 133.207 131.83 133.207 137.387C133.207 140.457 132.147 143.125 130.057 145.316C127.98 147.49 125.375 148.594 122.313 148.594H109.065C109.041 148.594 109.017 148.589 108.995 148.579C108.972 148.57 108.952 148.556 108.935 148.538C108.918 148.521 108.904 148.5 108.895 148.478C108.886 148.455 108.882 148.431 108.882 148.407V107.593C108.882 107.49 108.963 107.406 109.065 107.406H120.734C123.571 107.406 125.912 108.354 127.688 110.226C129.514 112.022 130.446 114.424 130.446 117.352C130.446 121.279 128.497 124.517 125.279 126.093ZM128.946 144.265C130.809 142.368 131.714 140.118 131.714 137.385C131.714 134.349 130.785 131.861 128.951 129.995C127.054 128.064 124.716 127.124 121.805 127.124H110.376V147.072H122.311C124.936 147.072 127.169 146.126 128.946 144.265ZM110.374 108.928V125.604H120.734C123.158 125.604 125.144 124.83 126.64 123.307C128.174 121.745 128.951 119.741 128.951 117.352C128.951 112.391 125.573 108.928 120.734 108.928H110.374ZM237.965 148.299C237.985 148.326 237.997 148.359 237.999 148.392C238.002 148.426 237.995 148.46 237.98 148.49C237.965 148.521 237.941 148.546 237.913 148.564C237.884 148.582 237.851 148.592 237.817 148.592H236.427C236.397 148.592 236.368 148.585 236.341 148.571C236.315 148.558 236.292 148.538 236.275 148.513L221.427 127.311L214.869 135.022V148.405C214.869 148.429 214.865 148.454 214.856 148.477C214.847 148.499 214.834 148.52 214.817 148.538C214.799 148.555 214.779 148.569 214.757 148.579C214.734 148.588 214.71 148.594 214.685 148.594H213.582C213.557 148.594 213.533 148.589 213.511 148.579C213.489 148.57 213.468 148.556 213.451 148.538C213.434 148.521 213.421 148.5 213.412 148.478C213.403 148.455 213.398 148.431 213.398 148.407V107.593C213.398 107.49 213.481 107.406 213.582 107.406H214.685C214.786 107.406 214.869 107.49 214.869 107.593V132.754L236.167 107.472C236.184 107.452 236.206 107.435 236.23 107.424C236.254 107.412 236.281 107.406 236.308 107.406H237.767C237.87 107.406 237.952 107.49 237.952 107.593C237.952 107.639 237.934 107.681 237.908 107.714L222.415 126.106L237.965 148.299ZM204.076 107.406C204.177 107.406 204.259 107.49 204.259 107.593V148.407C204.26 148.431 204.255 148.455 204.246 148.478C204.237 148.5 204.223 148.521 204.206 148.538C204.189 148.556 204.169 148.57 204.147 148.579C204.124 148.589 204.1 148.594 204.076 148.594H203.568C203.539 148.594 203.51 148.587 203.484 148.574C203.458 148.56 203.436 148.541 203.42 148.517L176.69 110.75V148.407C176.69 148.431 176.685 148.455 176.676 148.478C176.667 148.5 176.654 148.521 176.637 148.538C176.62 148.556 176.599 148.57 176.577 148.579C176.555 148.589 176.531 148.594 176.506 148.594H175.381C175.356 148.594 175.332 148.589 175.31 148.579C175.288 148.57 175.267 148.556 175.25 148.538C175.233 148.521 175.22 148.5 175.211 148.478C175.202 148.455 175.197 148.431 175.197 148.407V107.593C175.197 107.49 175.28 107.406 175.381 107.406H176.096C176.124 107.407 176.153 107.414 176.178 107.427C176.204 107.441 176.226 107.46 176.242 107.483L202.765 144.956V107.595C202.765 107.492 202.848 107.408 202.948 107.408L204.076 107.406ZM168.55 148.341C168.561 148.369 168.565 148.399 168.561 148.429C168.558 148.459 168.547 148.488 168.53 148.513C168.513 148.538 168.491 148.558 168.464 148.572C168.437 148.586 168.407 148.594 168.377 148.594H167.208C167.17 148.594 167.132 148.581 167.102 148.559C167.071 148.537 167.047 148.505 167.035 148.469L162.357 135.85H143.284L138.608 148.473C138.595 148.508 138.571 148.539 138.541 148.561C138.51 148.582 138.473 148.594 138.435 148.594H137.264C137.234 148.594 137.204 148.586 137.177 148.572C137.151 148.557 137.128 148.537 137.111 148.512C137.094 148.486 137.084 148.458 137.081 148.428C137.078 148.397 137.082 148.367 137.093 148.339L152.292 107.527C152.304 107.492 152.328 107.461 152.359 107.439C152.39 107.418 152.426 107.406 152.464 107.406H153.175C153.214 107.406 153.251 107.418 153.282 107.44C153.313 107.462 153.337 107.493 153.349 107.529L168.55 148.341ZM143.833 134.329H161.81L152.823 110.343L143.833 134.329Z" fill="white"/>
</g>
<defs>
<clipPath id="clip0_348_37">
<rect width="256" height="256" fill="white"/>
</clipPath>
</defs>
</svg>
