<svg width="256" height="256" viewBox="0 0 256 256" fill="none" xmlns="http://www.w3.org/2000/svg">
<g clip-path="url(#clip0_316_316)">
<rect width="256" height="256" rx="60" fill="white"/>
<path d="M119.797 28.2375C119.041 28.3172 116.68 28.5969 114.597 28.8422C106.2 29.8 96.6782 32.3219 88.322 35.8422C58.0798 48.4781 35.3188 76.2015 29.0392 108C27.561 115.562 27.2017 119.278 27.2017 128C27.2017 139.242 28.3188 147 31.2798 156.803C40.9595 188.881 66.1595 214.041 98.3204 223.758C108 226.681 115.8 227.798 127 227.798C138.242 227.798 146 226.681 155.803 223.72C187.881 214.041 213.041 188.841 222.758 156.68C225.681 147 226.799 139.2 226.799 128C226.799 123.239 226.561 117.802 226.28 115.798C223.039 92.6797 213.517 73.239 197.642 57.3578C181.797 41.5984 162.438 32.0406 139.797 28.8C136.678 28.3594 122.238 27.9562 119.797 28.2375ZM87.1985 91.2375C89.3235 91.8781 90.3173 92.4781 91.7579 93.9172C94.5595 96.7609 95.2001 98.3187 95.2001 102.597C95.2001 105.802 95.0782 106.4 94.1204 108.078C92.2767 111.197 87.9985 114.078 85.0392 114.156C82.9563 114.2 83.0423 113.278 85.3204 110.88C88.3595 107.719 88.7985 106.52 88.7985 101.797C88.761 97.2391 88.2001 95.6812 86.0813 94.4C84.3188 93.3203 82.4017 93.4 79.6001 94.7172C72.3188 98.2016 64.4392 109.8 61.3626 121.683C57.2798 137.522 64.5188 150.198 76.4392 148.037C79.9173 147.397 86.4782 144.041 89.3235 141.397C91.6798 139.242 91.6798 139.2 91.9173 136.522C92.4423 130.917 96.397 125.32 101.683 122.72C104.117 121.517 104.722 121.402 108 121.402C111.119 121.402 111.839 121.561 113.359 122.397C118.199 125.162 117.199 131.6 111.961 131.6C108.922 131.6 107.359 130.037 109.563 129.203C111.724 128.403 110.917 125.4 108.403 124.722C105.442 123.959 102.08 125.961 99.961 129.8C97.3985 134.441 97.2813 139.962 99.7173 142.478C102.08 144.998 105.039 143.003 107.322 137.277C108.519 134.359 110.239 132.797 112.242 132.797C114 132.797 114.324 133.878 113.559 137.161C112.438 142.239 113.2 143.558 116.361 142.002C117.399 141.519 119.12 140.403 120.158 139.603L122.117 138.041L123.442 131.119C124.883 123.361 125.438 122.317 128.399 121.762C131.242 121.237 131.883 122.641 130.839 127.078L130.277 129.562L132.359 127.437C137.278 122.397 143.32 119.919 145.402 122C146.519 123.117 146.397 124.52 144.799 129.477C144.041 131.839 142.997 135.562 142.522 137.68C141.802 140.878 141.758 141.641 142.163 142.161C143.444 143.68 147.361 142.117 150.841 138.717L152.88 136.722L153.124 132.278C153.361 127.158 153.838 125.32 155.199 123.678C156.48 122.159 158.8 121.042 160.039 121.359C161.278 121.683 161.278 122.88 160.161 126.402C158.599 131.241 158.763 142.398 160.363 142.398C161.003 142.398 164.28 138.961 166.363 136.081L167.919 133.956L166.68 132.681C164.519 130.4 164 128.922 164 125.198C164 122.483 164.202 121.481 164.878 120.156C166.002 118.081 167.759 116.562 169.841 115.958C172.038 115.28 174.759 116.397 175.877 118.398C177 120.437 176.72 124.997 175.278 128.122L174.241 130.398H175.639C177.561 130.398 178.319 129.922 181.761 126.681C183.561 124.961 185.642 123.478 187.199 122.758C193.32 119.883 200.524 121.359 201.719 125.759C202.719 129.281 200.524 131.759 196.678 131.478C193.919 131.278 193.4 130.556 195 129.203C197.88 126.797 195 123.722 190.88 124.839C188.639 125.442 186.119 127.958 184.802 130.881C182.158 136.722 183.561 143.6 187.358 143.6C188.878 143.6 191.563 140.598 192.6 137.68C193.839 134.317 196.439 132.2 198.399 132.961C199.48 133.359 199.559 134.439 198.881 137.839C198.119 141.562 198.002 145.042 198.6 146.641C198.839 147.237 199.559 148.361 200.242 149.119C201.517 150.558 201.561 151.078 200.48 151.761C199.961 152.12 199.277 151.962 197.6 151.042C195.28 149.839 193.278 147.678 192.558 145.639L192.119 144.442L190.519 145.639C189.597 146.28 188.158 147 187.32 147.237C184 148.117 179.917 145.841 178.002 142.002C177.238 140.517 177 136.161 177.561 134.481C177.88 133.559 177.88 133.559 176.597 134.2C175.92 134.561 174.48 134.958 173.363 135.08C171.519 135.283 171.238 135.483 169.402 137.802C166.802 141.036 162.199 145.402 160.319 146.323C156.322 148.319 155.003 147.758 153.959 143.636L153.239 140.878L151.517 142.398C149.32 144.32 144.92 146.641 142.399 147.202C140 147.72 137.438 146.958 136.399 145.358C134.844 142.959 135.363 137.881 137.839 131.039C139.677 125.961 138.359 125.883 133.72 130.722C130.278 134.359 128.8 136.959 127.842 141C126.842 145.2 125.639 146.719 122.924 147.359C121.281 147.72 120.517 146.719 120.842 144.522L121.08 142.758L119.559 143.802C117.399 145.28 114.677 146.641 112.797 147.159C110.917 147.678 108.439 147.122 107.841 146.078C106.761 144.242 106.761 144.242 105.083 145.559C101.439 148.52 96.2392 147.678 93.6017 143.759L92.7579 142.52L90.122 144.961C82.5173 151.92 73.0017 155.039 65.9595 152.878C56.9985 150.162 52.0423 142.478 52.122 131.4C52.1595 120.28 57.0782 108.561 65.361 99.8812C70.0423 94.9984 74.4423 92.1172 78.9235 91.0375C82.1579 90.2375 84.1235 90.2781 87.1985 91.2375Z" fill="url(#paint0_linear_316_316)"/>
<path d="M168.278 119.681C167.399 120.559 167.722 124.081 168.841 126.322C169.402 127.481 170 128.403 170.2 128.403C170.36 128.403 170.719 127.481 171 126.358C172 122.202 170.2 117.758 168.278 119.681Z" fill="url(#paint1_linear_316_316)"/>
</g>
<defs>
<linearGradient id="paint0_linear_316_316" x1="60" y1="50.5" x2="190.5" y2="211" gradientUnits="userSpaceOnUse">
<stop stop-color="#01C3CC"/>
<stop offset="1" stop-color="#7C2AE6"/>
</linearGradient>
<linearGradient id="paint1_linear_316_316" x1="168.351" y1="120.248" x2="173.075" y2="122.47" gradientUnits="userSpaceOnUse">
<stop stop-color="#01C3CC"/>
<stop offset="1" stop-color="#7C2AE6"/>
</linearGradient>
<clipPath id="clip0_316_316">
<rect width="256" height="256" fill="white"/>
</clipPath>
</defs>
</svg>
