<svg width="256" height="256" viewBox="0 0 256 256" fill="none" xmlns="http://www.w3.org/2000/svg">
<g clip-path="url(#clip0_316_308)">
<path d="M196 0H60C26.8629 0 0 26.8629 0 60V196C0 229.137 26.8629 256 60 256H196C229.137 256 256 229.137 256 196V60C256 26.8629 229.137 0 196 0Z" fill="url(#paint0_linear_316_308)"/>
<path d="M226.69 140.602C226.39 140.602 226.09 140.802 225.89 141.302C223.88 147.112 221.07 150.622 218.77 150.622C217.47 150.622 216.97 149.122 216.97 146.922C216.97 141.202 220.37 129.072 222.07 123.462C222.27 122.762 222.37 122.162 222.37 121.662C222.37 120.052 221.47 119.242 219.27 119.242C216.97 119.242 214.36 120.142 211.95 124.462C211.15 120.652 208.55 119.042 204.93 119.042C200.83 119.042 196.81 121.752 193.51 126.062C190.2 130.372 186.29 131.782 183.38 131.072C185.48 125.972 186.28 122.052 186.28 119.242C186.28 114.742 184.08 112.032 180.48 112.032C175.06 112.032 171.95 117.242 171.95 122.652C171.95 126.862 173.85 131.172 178.07 133.282C174.56 141.202 169.45 148.422 167.44 148.422C164.94 148.422 164.14 136.092 164.34 127.262C164.44 122.262 164.84 121.962 164.84 120.452C164.84 119.552 164.24 118.952 161.93 118.952C156.61 118.952 154.91 123.452 154.71 128.672C154.61 130.672 154.31 132.572 153.81 134.482C151.61 142.402 146.99 148.522 143.98 148.522C142.58 148.522 142.18 147.122 142.18 145.312C142.18 139.592 145.38 132.382 145.38 126.262C145.38 121.762 143.38 118.942 139.68 118.942C135.26 118.942 129.55 124.162 124.04 133.882C125.84 126.462 126.54 119.252 121.23 119.252C120.03 119.252 118.927 119.552 117.92 120.152C117.58 120.31 117.293 120.565 117.097 120.885C116.902 121.206 116.805 121.577 116.82 121.952C117.32 129.872 110.4 150.222 103.89 150.222C102.69 150.222 102.09 148.922 102.09 146.822C102.09 141.102 105.49 128.972 107.19 123.352C107.377 122.736 107.478 122.096 107.49 121.452C107.49 119.952 106.59 119.152 104.39 119.152C102.09 119.152 99.4801 120.052 97.0701 124.352C96.1701 120.552 93.6701 118.952 90.0501 118.952C84.1401 118.952 77.6201 125.152 74.7101 133.282C70.8101 144.112 63.0901 154.632 52.5601 154.632C43.04 154.632 38.02 146.712 38.02 134.182C38.02 116.042 51.36 101.302 61.1801 101.302C65.8901 101.302 68.1001 104.302 68.1001 108.922C68.1001 114.532 65.0001 117.042 65.0001 119.242C65.0001 119.842 65.5001 120.542 66.6001 120.542C70.9001 120.542 75.9201 115.542 75.9201 108.622C75.9201 101.702 70.5001 96.792 60.6801 96.792C44.34 96.792 28 113.132 28 134.192C28 150.922 36.22 160.952 50.46 160.952C60.1801 160.952 68.7001 153.432 73.2101 144.612C73.7101 151.932 77.0201 155.732 82.1301 155.732C86.6401 155.732 90.2501 153.032 93.0601 148.322C94.1601 153.222 96.9601 155.632 100.68 155.632C104.88 155.632 108.5 152.932 111.8 148.022C111.8 151.922 112.6 155.632 116.02 155.632C117.62 155.632 119.52 155.232 119.82 153.832C123.43 139.092 132.26 126.962 134.96 126.962C135.76 126.962 135.96 127.762 135.96 128.662C135.96 132.682 133.16 140.902 133.16 146.112C133.16 151.832 135.56 155.532 140.58 155.532C146.09 155.532 151.7 148.822 155.41 138.892C156.61 148.122 159.12 155.532 163.03 155.532C167.84 155.532 176.56 145.312 181.78 134.482C183.78 134.782 186.89 134.682 189.9 132.582C188.6 135.782 187.9 139.292 187.9 142.702C187.9 152.732 192.7 155.532 196.81 155.532C201.32 155.532 204.93 152.832 207.74 148.122C208.64 152.322 211.04 155.432 215.36 155.432C222.08 155.432 227.99 148.522 227.99 142.802C228.09 141.602 227.39 140.602 226.69 140.602ZM86.3401 150.122C83.6401 150.122 82.5401 147.422 82.5401 143.302C82.5401 136.192 87.4401 124.262 92.5601 124.262C94.7601 124.262 95.6601 126.862 95.6601 130.172C95.6601 137.392 91.0601 150.122 86.3401 150.122ZM179.87 128.872C178.27 126.972 177.67 124.262 177.67 121.952C177.67 119.052 178.77 116.642 179.97 116.642C181.17 116.642 181.67 117.842 181.67 119.642C181.57 122.452 180.57 126.762 179.87 128.872ZM201.02 150.122C198.32 150.122 197.22 146.922 197.22 143.302C197.22 136.392 202.12 124.262 207.24 124.262C209.44 124.262 210.24 126.862 210.24 130.172C210.34 137.392 205.84 150.122 201.02 150.122Z" fill="white"/>
</g>
<defs>
<linearGradient id="paint0_linear_316_308" x1="17.5" y1="17.5" x2="238.5" y2="238.5" gradientUnits="userSpaceOnUse">
<stop stop-color="#01C3CC"/>
<stop offset="1" stop-color="#7C2AE6"/>
</linearGradient>
<clipPath id="clip0_316_308">
<rect width="256" height="256" fill="white"/>
</clipPath>
</defs>
</svg>
