<svg width="256" height="256" viewBox="0 0 256 256" fill="none" xmlns="http://www.w3.org/2000/svg">
<g clip-path="url(#clip0_316_311)">
<rect width="256" height="256" rx="60" fill="#242938"/>
<ellipse cx="130" cy="128.5" rx="98" ry="98.5" fill="white"/>
<path d="M121.797 28.2375C121.041 28.3172 118.68 28.5969 116.597 28.8422C108.2 29.8 98.6782 32.3219 90.322 35.8422C60.0798 48.4781 37.3188 76.2015 31.0392 108C29.561 115.562 29.2017 119.278 29.2017 128C29.2017 139.242 30.3188 147 33.2798 156.803C42.9595 188.881 68.1595 214.041 100.32 223.758C110 226.681 117.8 227.798 129 227.798C140.242 227.798 148 226.681 157.803 223.72C189.881 214.041 215.041 188.841 224.758 156.68C227.681 147 228.799 139.2 228.799 128C228.799 123.239 228.561 117.802 228.28 115.798C225.039 92.6797 215.517 73.239 199.642 57.3578C183.797 41.5984 164.438 32.0406 141.797 28.8C138.678 28.3594 124.238 27.9562 121.797 28.2375ZM89.1985 91.2375C91.3235 91.8781 92.3173 92.4781 93.7579 93.9172C96.5595 96.7609 97.2001 98.3187 97.2001 102.597C97.2001 105.802 97.0782 106.4 96.1204 108.078C94.2767 111.197 89.9985 114.078 87.0392 114.156C84.9563 114.2 85.0423 113.278 87.3204 110.88C90.3595 107.719 90.7985 106.52 90.7985 101.797C90.761 97.2391 90.2001 95.6812 88.0813 94.4C86.3188 93.3203 84.4017 93.4 81.6001 94.7172C74.3188 98.2016 66.4392 109.8 63.3626 121.683C59.2798 137.522 66.5188 150.198 78.4392 148.037C81.9173 147.397 88.4782 144.041 91.3235 141.397C93.6798 139.242 93.6798 139.2 93.9173 136.522C94.4423 130.917 98.397 125.32 103.683 122.72C106.117 121.517 106.722 121.402 110 121.402C113.119 121.402 113.839 121.561 115.359 122.397C120.199 125.162 119.199 131.6 113.961 131.6C110.922 131.6 109.359 130.037 111.563 129.203C113.724 128.403 112.917 125.4 110.403 124.722C107.442 123.959 104.08 125.961 101.961 129.8C99.3985 134.441 99.2813 139.962 101.717 142.478C104.08 144.998 107.039 143.003 109.322 137.277C110.519 134.359 112.239 132.797 114.242 132.797C116 132.797 116.324 133.878 115.559 137.161C114.438 142.239 115.2 143.558 118.361 142.002C119.399 141.519 121.12 140.403 122.158 139.603L124.117 138.041L125.442 131.119C126.883 123.361 127.438 122.317 130.399 121.762C133.242 121.237 133.883 122.641 132.839 127.078L132.277 129.562L134.359 127.437C139.278 122.397 145.32 119.919 147.402 122C148.519 123.117 148.397 124.52 146.799 129.477C146.041 131.839 144.997 135.562 144.522 137.68C143.802 140.878 143.758 141.641 144.163 142.161C145.444 143.68 149.361 142.117 152.841 138.717L154.88 136.722L155.124 132.278C155.361 127.158 155.838 125.32 157.199 123.678C158.48 122.159 160.8 121.042 162.039 121.359C163.278 121.683 163.278 122.88 162.161 126.402C160.599 131.241 160.763 142.398 162.363 142.398C163.003 142.398 166.28 138.961 168.363 136.081L169.919 133.956L168.68 132.681C166.519 130.4 166 128.922 166 125.198C166 122.483 166.202 121.481 166.878 120.156C168.002 118.081 169.759 116.562 171.841 115.958C174.038 115.28 176.759 116.397 177.877 118.398C179 120.437 178.72 124.997 177.278 128.122L176.241 130.398H177.639C179.561 130.398 180.319 129.922 183.761 126.681C185.561 124.961 187.642 123.478 189.199 122.758C195.32 119.883 202.524 121.359 203.719 125.759C204.719 129.281 202.524 131.759 198.678 131.478C195.919 131.278 195.4 130.556 197 129.203C199.88 126.797 197 123.722 192.88 124.839C190.639 125.442 188.119 127.958 186.802 130.881C184.158 136.722 185.561 143.6 189.358 143.6C190.878 143.6 193.563 140.598 194.6 137.68C195.839 134.317 198.439 132.2 200.399 132.961C201.48 133.359 201.559 134.439 200.881 137.839C200.119 141.562 200.002 145.042 200.6 146.641C200.839 147.237 201.559 148.361 202.242 149.119C203.517 150.558 203.561 151.078 202.48 151.761C201.961 152.12 201.277 151.962 199.6 151.042C197.28 149.839 195.278 147.678 194.558 145.639L194.119 144.442L192.519 145.639C191.597 146.28 190.158 147 189.32 147.237C186 148.117 181.917 145.841 180.002 142.002C179.238 140.517 179 136.161 179.561 134.481C179.88 133.559 179.88 133.559 178.597 134.2C177.92 134.561 176.48 134.958 175.363 135.08C173.519 135.283 173.238 135.483 171.402 137.802C168.802 141.036 164.199 145.402 162.319 146.323C158.322 148.319 157.003 147.758 155.959 143.636L155.239 140.878L153.517 142.398C151.32 144.32 146.92 146.641 144.399 147.202C142 147.72 139.438 146.958 138.399 145.358C136.844 142.959 137.363 137.881 139.839 131.039C141.677 125.961 140.359 125.883 135.72 130.722C132.278 134.359 130.8 136.959 129.842 141C128.842 145.2 127.639 146.719 124.924 147.359C123.281 147.72 122.517 146.719 122.842 144.522L123.08 142.758L121.559 143.802C119.399 145.28 116.677 146.641 114.797 147.159C112.917 147.678 110.439 147.122 109.841 146.078C108.761 144.242 108.761 144.242 107.083 145.559C103.439 148.52 98.2392 147.678 95.6017 143.759L94.7579 142.52L92.122 144.961C84.5173 151.92 75.0017 155.039 67.9595 152.878C58.9985 150.162 54.0423 142.478 54.122 131.4C54.1595 120.28 59.0782 108.561 67.361 99.8812C72.0423 94.9984 76.4423 92.1172 80.9235 91.0375C84.1579 90.2375 86.1235 90.2781 89.1985 91.2375Z" fill="url(#paint0_linear_316_311)"/>
<path d="M170.278 119.681C169.399 120.559 169.722 124.081 170.841 126.322C171.402 127.481 172 128.403 172.2 128.403C172.36 128.403 172.719 127.481 173 126.358C174 122.202 172.2 117.758 170.278 119.681Z" fill="url(#paint1_linear_316_311)"/>
</g>
<defs>
<linearGradient id="paint0_linear_316_311" x1="62" y1="50.5" x2="192.5" y2="211" gradientUnits="userSpaceOnUse">
<stop stop-color="#01C3CC"/>
<stop offset="1" stop-color="#7C2AE6"/>
</linearGradient>
<linearGradient id="paint1_linear_316_311" x1="170.351" y1="120.248" x2="175.075" y2="122.47" gradientUnits="userSpaceOnUse">
<stop stop-color="#01C3CC"/>
<stop offset="1" stop-color="#7C2AE6"/>
</linearGradient>
<clipPath id="clip0_316_311">
<rect width="256" height="256" fill="white"/>
</clipPath>
</defs>
</svg>
