<svg width="256" height="256" viewBox="0 0 256 256" fill="none" xmlns="http://www.w3.org/2000/svg">
<g clip-path="url(#clip0_381_593)">
<rect width="256" height="256" rx="60" fill="#242938"/>
<path fill-rule="evenodd" clip-rule="evenodd" d="M85.2287 62.9201C85.3459 62.7789 85.4902 62.6627 85.6531 62.5783C85.8161 62.4939 85.9943 62.443 86.1772 62.4287C86.3012 62.4384 86.4219 62.4733 86.532 62.5313C86.642 62.5893 86.7391 62.6691 86.8172 62.7659C86.8954 62.8627 86.9529 62.9745 86.9863 63.0944C87.0197 63.2143 87.0283 63.3397 87.0115 63.463C86.9771 63.8537 86.8097 64.2208 86.5372 64.503C72.4754 81.9133 64.8969 103.667 65.0972 126.046C64.9011 148.303 72.4821 169.931 86.5315 187.194C86.8072 187.477 86.9768 187.847 87.0115 188.24C87.0389 188.492 86.9671 188.744 86.8115 188.943C86.7329 189.039 86.6356 189.117 86.5256 189.174C86.4155 189.231 86.2951 189.265 86.1715 189.274C85.9884 189.262 85.8098 189.211 85.6474 189.126C85.485 189.04 85.3424 188.921 85.2287 188.777L32.3258 134.966C30.9689 133.868 29.8758 132.48 29.1271 130.903C28.3784 129.327 27.9933 127.603 28.0001 125.857C28.0031 124.115 28.3927 122.396 29.1407 120.823C29.8887 119.249 30.9766 117.862 32.3258 116.76L85.2287 62.9201Z" fill="#E81E26"/>
<path fill-rule="evenodd" clip-rule="evenodd" d="M129.714 59C108.434 59 100.131 90.3829 100.131 127.771C100.131 165.171 108.439 196.143 129.714 196.143C142.485 196.143 153.371 188.36 153.411 181.966C153.404 180.497 152.814 179.091 151.771 178.057C149.276 175.845 147.246 173.158 145.799 170.154C144.35 167.141 143.509 163.871 143.325 160.531C143.288 156.013 144.962 151.649 148.011 148.314C151.042 145.001 155.229 142.976 159.708 142.657C170.542 142.657 176.937 151.514 176.937 162.971C176.631 172.75 173.394 182.21 167.645 190.126C167.469 190.398 167.374 190.715 167.371 191.04C167.371 191.6 167.691 192.074 168.177 192.074C168.373 192.055 168.564 191.996 168.738 191.902C168.911 191.808 169.064 191.68 169.188 191.526L223.554 136.84C224.946 135.733 226.069 134.325 226.839 132.722C227.609 131.118 228.006 129.361 227.999 127.583C227.996 125.808 227.595 124.056 226.825 122.456C226.056 120.856 224.938 119.448 223.554 118.337L169.188 63.6286C169.064 63.4745 168.911 63.3466 168.738 63.2524C168.564 63.1582 168.373 63.0996 168.177 63.08C167.685 63.08 167.371 63.5543 167.371 64.12C167.371 64.459 167.462 64.7676 167.645 65.0457C173.394 72.9548 176.631 82.41 176.937 92.1829C176.937 103.64 170.571 112.509 159.708 112.509C155.227 112.187 151.04 110.158 148.011 106.84C144.962 103.506 143.288 99.1409 143.325 94.6229C143.508 91.2857 144.354 88.0171 145.799 85.0057C147.247 82.0056 149.277 79.3232 151.771 77.1143C152.29 76.6041 152.702 75.9958 152.984 75.3248C153.265 74.6538 153.41 73.9334 153.411 73.2057C153.371 66.7943 142.485 59 129.714 59Z" fill="#1E5BC6"/>
</g>
<defs>
<clipPath id="clip0_381_593">
<rect width="256" height="256" fill="white"/>
</clipPath>
</defs>
</svg>
