<svg width="256" height="256" viewBox="0 0 256 256" fill="none" xmlns="http://www.w3.org/2000/svg">
<g clip-path="url(#clip0_248_1412)">
<rect width="256" height="256" rx="60" fill="white"/>
<g filter="url(#filter0_d_248_1412)">
<path d="M187.777 110.539C189.248 127.675 162.279 143.986 127.541 146.966C92.8022 149.946 63.4486 138.467 61.9793 121.331C60.5082 104.192 87.4778 87.8821 122.216 84.9018C156.954 81.9225 186.308 93.3987 187.777 110.539Z" fill="#BBE6FB"/>
<g opacity="0.350006">
<g opacity="0.350006">
<path opacity="0.350006" d="M123.235 86.9112C109.985 86.6958 94.4782 91.957 82.9405 96.8839C81.7397 100.344 81.0933 104.025 81.0933 107.84C81.0933 128.169 99.4483 144.65 122.092 144.65C144.736 144.65 163.091 128.169 163.091 107.84C163.091 101.407 161.249 95.3627 158.017 90.1005C148.787 88.6656 136.091 87.1202 123.235 86.9112Z" fill="white"/>
</g>
</g>
<path d="M122.091 86.9074C114.756 86.4597 102.111 90.287 91.5671 94.105C89.965 97.8859 89.0752 102.023 89.0752 106.365C89.0752 124.177 105.224 138.615 122.307 138.615C139.278 138.615 154.293 124.153 155.539 106.365C155.944 100.573 153.951 95.1146 151.181 90.4087C140.251 88.4834 128.649 87.3076 122.091 86.9074Z" fill="white"/>
<path d="M103.265 104.027C104.165 102.034 105.529 101.058 106.849 99.3872C106.702 98.9915 106.382 97.6978 106.382 97.2492C106.382 95.2469 108.006 93.6216 110.008 93.6216C110.481 93.6216 110.933 93.7154 111.346 93.8797C117.35 89.3039 125.255 87.3089 133.198 89.0847C133.924 89.2482 134.636 89.446 135.334 89.6633C127.483 88.5748 118.634 91.3555 112.615 96.2137C112.798 96.6473 113.309 97.8872 113.309 98.386C113.309 100.389 112.012 100.877 110.008 100.877C109.554 100.877 109.119 100.79 108.717 100.636C107.357 102.462 105.691 105.94 104.876 108.114C108.204 111.092 111.212 112.171 115.131 113.636C115.121 113.449 115.266 113.276 115.266 113.086C115.266 107.046 120.582 102.138 126.623 102.138C132.035 102.138 136.518 106.074 137.392 111.238C140.093 109.52 142.705 108.203 144.695 105.656C144.231 105.09 143.73 103.486 143.73 102.696C143.73 100.879 145.205 99.4048 147.022 99.4048C147.279 99.4048 147.527 99.4419 147.767 99.4976C148.778 97.4211 149.54 95.2199 150.028 92.9501C140.583 85.9576 122.308 86.9115 122.308 86.9115C122.308 86.9115 107.766 86.1527 97.9214 90.9505C98.578 95.6973 100.472 100.21 103.265 104.027Z" fill="white"/>
<path d="M148.41 101.303C149.078 101.904 149.442 102.433 149.729 102.948C150.612 104.536 148.841 105.989 147.022 105.989C146.838 105.989 146.659 105.964 146.482 105.934C144.435 109.135 140.847 113.238 137.661 115.304C142.547 116.105 147.154 118.061 150.822 121.086C153.491 116.302 155.54 109.394 155.54 103.526C155.54 99.0598 153.568 95.786 150.591 93.3843C150.435 95.7768 149.158 99.1229 148.41 101.303Z" fill="white"/>
<path d="M108.747 131.602C110.376 127.106 114.38 123.622 118.168 120.557C117.614 119.799 116.782 117.92 116.436 117.03C111.815 115.626 107.728 112.995 104.556 109.513C104.534 109.614 104.505 109.713 104.481 109.814C103.883 112.489 103.774 115.171 104.071 117.786C106.283 118.199 107.958 120.137 107.958 122.469C107.958 123.852 106.746 125.856 105.805 126.728C106.828 128.934 107.525 130 108.747 131.602Z" fill="white"/>
<path d="M108.46 135.376C106.519 133.446 105.176 129.594 103.915 127.175C103.68 127.211 103.438 127.236 103.191 127.236C100.557 127.236 97.7978 125.026 98.4219 122.469C98.7674 121.053 99.7439 120.128 101.335 119.355C100.973 116.423 100.874 112.208 101.556 109.16C101.751 108.288 102.164 107.879 102.437 107.049C99.5313 102.796 97.6539 97.2145 97.6539 91.6764C97.6539 91.474 97.664 91.2743 97.6687 91.0737C92.7576 93.5368 89.0752 97.4169 89.0752 103.525C89.0752 117.036 96.857 130.291 108.435 135.486C108.444 135.45 108.451 135.412 108.46 135.376Z" fill="white"/>
<path d="M136.932 116.698C135.435 120.954 131.39 124.01 126.623 124.01C124.072 124.01 121.733 123.131 119.874 121.668C116.041 124.653 112.563 129.897 110.796 134.446C111.589 135.3 112.142 136.002 113.032 136.759C115.713 137.457 119.405 136.759 122.308 136.759C133.982 136.759 144.322 131.566 150.25 122.459C146.308 119.729 141.658 117.131 136.932 116.698Z" fill="white"/>
<path d="M102.966 105.606C103.866 103.613 104.995 101.768 106.314 100.097C106.168 99.7027 106.082 99.2765 106.082 98.8279C106.082 96.8255 107.706 95.2003 109.71 95.2003C110.183 95.2003 110.634 95.294 111.047 95.4584C117.051 90.8825 124.956 88.8876 132.899 90.6633C133.624 90.8268 134.336 91.0246 135.034 91.242C127.184 90.1535 119.072 92.5599 113.054 97.4189C113.237 97.8517 113.338 98.3291 113.338 98.8279C113.338 100.831 111.712 102.455 109.71 102.455C109.254 102.455 108.82 102.368 108.417 102.215C107.058 104.041 105.946 106.058 105.131 108.233C107.989 111.314 111.498 113.749 115.416 115.214C115.408 115.027 115.388 114.843 115.388 114.653C115.388 108.613 120.284 103.717 126.324 103.717C131.737 103.717 136.218 107.653 137.094 112.816C139.794 111.098 142.194 108.892 144.184 106.345C143.719 105.778 143.431 105.064 143.431 104.275C143.431 102.457 144.905 100.983 146.724 100.983C146.981 100.983 147.228 101.021 147.468 101.076C148.478 98.9997 149.241 96.7986 149.728 94.5287C140.284 87.5363 122.008 88.4901 122.008 88.4901C122.008 88.4901 107.466 87.7313 97.6221 92.5292C98.2787 97.2759 100.172 101.789 102.966 105.606Z" fill="#1287B1"/>
<path d="M148.92 101.841C149.587 102.442 150.015 103.305 150.015 104.275C150.015 106.092 148.541 107.567 146.724 107.567C146.539 107.567 146.361 107.542 146.183 107.512C144.135 110.713 141.422 113.441 138.233 115.507C142.944 116.243 147.378 118.242 151.043 121.266C153.714 116.482 155.24 110.972 155.24 105.104C155.24 100.638 153.268 97.364 150.291 94.9624C150.136 97.3548 149.667 99.6608 148.92 101.841Z" fill="#1287B1"/>
<path d="M109.25 132.683C110.878 128.187 113.707 124.152 117.495 121.089C116.941 120.328 116.484 119.5 116.137 118.61C111.516 117.204 107.428 114.574 104.258 111.092C104.235 111.194 104.205 111.292 104.182 111.393C103.584 114.069 103.474 116.75 103.772 119.366C105.984 119.778 107.659 121.716 107.659 124.049C107.659 125.431 107.065 126.675 106.125 127.547C106.978 129.356 108.028 131.079 109.25 132.683Z" fill="#1287B1"/>
<path d="M108.448 135.321C106.506 133.391 104.876 131.173 103.617 128.756C103.38 128.791 103.138 128.816 102.892 128.816C100.258 128.816 98.1231 126.681 98.1231 124.047C98.1231 122.161 99.2222 120.533 100.813 119.761C100.452 116.83 100.575 113.787 101.257 110.739C101.452 109.868 101.69 109.017 101.963 108.186C99.0573 103.934 97.355 98.7936 97.355 93.2556C97.355 93.0531 97.3644 92.8535 97.3689 92.6538C92.4578 95.1158 88.7754 98.997 88.7754 105.104C88.7754 118.617 96.8442 130.236 108.423 135.431C108.431 135.395 108.438 135.357 108.448 135.321Z" fill="#1287B1"/>
<path d="M136.632 118.277C135.136 122.532 131.091 125.589 126.323 125.589C123.773 125.589 121.434 124.709 119.574 123.248C115.741 126.233 112.848 130.302 111.082 134.852C111.874 135.705 112.721 136.509 113.611 137.265C116.293 137.964 119.106 138.337 122.008 138.337C133.683 138.337 143.946 132.311 149.875 123.204C145.932 120.474 141.36 118.71 136.632 118.277Z" fill="#1287B1"/>
<path d="M137.016 115.458L147.12 113.048L136.978 112.53L145.231 106.222L135.866 109.58L142.231 100.76L133.44 106.602L136.514 96.2775L130.477 104.787L130.339 94.0336L126.368 103.613L123.055 93.9194L123.235 105.338L117.511 95.1026L120.608 105.971L111.324 99.2188L118.596 108.358L107.071 104.119L116.167 110.849L104.503 111.208L116.429 114.286L104.492 116.866L116.275 117.721L106.338 124.084L116.57 120.374L109.471 129.365L118.442 122.131L115.211 134.196L122.137 124.377L121.166 135.974L125.097 125.461L128.444 136.51L129.257 125.428L134.224 134.883L131.29 124.068L140.385 131.114L134.514 122.131L144.492 126.018L136.862 118.521L147.093 119.324L137.016 115.458Z" fill="white"/>
<g opacity="0.350006">
<g opacity="0.350006">
<path opacity="0.350006" d="M29.4512 134.79C60.7867 103.456 85.8133 93.7821 108.527 89.366C111.531 88.7819 112.1 82.2148 112.1 82.2148C112.1 82.2148 112.521 87.0516 114.624 87.6822C116.727 88.3138 119.46 80.1112 119.46 80.1112C119.46 80.1112 116.937 87.4724 119.46 87.8931C121.985 88.3138 126.61 80.7428 126.61 80.7428C126.61 80.7428 124.719 87.2616 125.981 87.6822C127.241 88.103 133.55 78.2194 133.55 78.2194C133.55 78.2194 129.764 84.7382 133.34 85.3697C136.917 86.0003 142.132 80.9201 142.132 80.9201C142.132 80.9201 138.032 85.5684 139.859 86.2102C147.641 88.9454 153.937 78.8314 153.937 78.8314C153.937 78.8314 152.479 83.2661 148.693 88.103C156.894 90.2056 162.985 77.8507 162.985 77.8507L156.894 90.2056C160.049 91.8894 172.668 77.3779 172.668 77.3779C172.668 77.3779 166.149 88.7345 162.363 91.0471C164.465 92.7299 172.037 86.0003 172.037 86.0003C172.037 86.0003 165.938 93.5704 168.251 93.9911C171.617 96.7254 184.023 79.9013 184.023 79.9013C184.023 79.9013 179.188 89.785 172.037 97.5668C178.014 100.556 192.857 81.3733 192.857 81.3733C192.857 81.3733 192.436 87.4723 181.71 97.146C189.702 96.0948 200.007 80.9527 200.007 80.9527C200.007 80.9527 196.222 92.3092 187.178 100.3C195.025 99.4837 207.577 80.1112 207.577 80.1112C207.577 80.1112 202.74 93.5704 192.857 101.352C203.793 103.771 219.566 87.4723 219.566 87.4723C219.566 87.4723 213.362 99.0398 205.264 103.771C214.308 107.241 226.716 92.9399 226.716 92.9399C226.716 92.9399 214.308 112.078 194.54 111.237C188.054 110.961 168.435 91.5588 126.401 93.1506C70.8811 95.2543 59.1048 118.807 29.4512 134.79Z" fill="white"/>
</g>
</g>
<path d="M30.7354 132.411C62.0708 101.076 87.0965 91.4034 109.809 86.9862C112.816 86.4021 113.385 79.8359 113.385 79.8359C113.385 79.8359 113.804 84.6737 115.909 85.3034C118.011 85.9341 120.744 77.7333 120.744 77.7333C120.744 77.7333 118.221 85.0945 120.744 85.5142C123.269 85.9341 127.895 78.3639 127.895 78.3639C127.895 78.3639 126.003 84.8827 127.264 85.3034C128.526 85.7241 134.834 75.8396 134.834 75.8396C134.834 75.8396 131.049 82.3593 134.624 82.9899C138.199 83.6215 143.416 78.5414 143.416 78.5414C143.416 78.5414 139.315 83.1897 141.143 83.8313C148.925 86.5656 155.22 76.4525 155.22 76.4525C155.22 76.4525 153.761 80.8873 149.977 85.7241C158.178 87.8277 164.269 75.4709 164.269 75.4709L158.178 87.8277C161.333 89.5096 173.951 75 173.951 75C173.951 75 167.433 86.3547 163.647 88.6682C165.75 90.3511 173.321 83.6215 173.321 83.6215C173.321 83.6215 167.222 91.1925 169.536 91.6123C172.9 94.3474 185.307 77.5225 185.307 77.5225C185.307 77.5225 180.47 87.407 173.321 95.1879C179.298 98.1785 194.141 78.9945 194.141 78.9945C194.141 78.9945 193.72 85.0945 182.995 94.7681C190.986 93.7159 201.291 78.5738 201.291 78.5738C201.291 78.5738 197.506 89.9304 188.462 97.9221C196.309 97.1057 208.86 77.7333 208.86 77.7333C208.86 77.7333 204.025 91.1925 194.141 98.9734C205.077 101.392 220.85 85.0945 220.85 85.0945C220.85 85.0945 214.646 96.66 206.549 101.392C215.593 104.862 228 90.561 228 90.561C228 90.561 215.593 109.699 195.822 108.858C189.338 108.581 169.718 89.179 127.684 90.7717C72.1653 92.8745 60.3879 116.428 30.7354 132.411Z" fill="#373535"/>
<g opacity="0.350006">
<g opacity="0.350006">
<path opacity="0.350006" d="M28.6304 138.218C45.1916 146.525 60.3346 136.957 79.4191 142.334C93.9288 146.425 111.596 151.466 135.568 147.996C159.543 144.528 180.049 134.117 189.829 115.504C192.878 107.199 205.285 117.398 205.285 117.398C205.285 117.398 196.243 113.612 196.453 115.4C196.664 117.187 210.018 123.392 210.018 123.392C210.018 123.392 197.925 119.606 198.661 122.445C199.398 125.283 213.802 136.64 213.802 136.64C213.802 136.64 197.504 124.233 196.138 125.914C194.77 127.597 203.077 134.433 203.077 134.433C203.077 134.433 189.302 125.914 184.465 128.427C180.985 130.232 198.766 141.899 198.766 141.899C198.766 141.899 187.199 133.065 184.465 135.378C181.731 137.693 197.504 156.62 197.504 156.62C197.504 156.62 179.626 137.271 177.84 138.218C176.052 139.164 182.781 148.418 182.781 148.418C182.781 148.418 173.949 138.744 171.531 140.426C169.114 142.109 184.149 167.239 184.149 167.239C184.149 167.239 167.852 141.479 161.122 145.788C171.69 168.974 167.746 172.287 167.746 172.287C167.746 172.287 166.398 148.632 153.235 149.258C146.61 149.575 156.389 166.924 156.389 166.924C156.389 166.924 147.389 151.077 141.394 151.394C152.442 172.301 148.504 180.803 148.504 180.803C148.504 180.803 150.331 162.948 135.347 153.012C141.025 158.057 131.785 180.803 131.785 180.803C131.785 180.803 139.913 147.284 125.79 153.675C123.558 154.682 125.632 170.394 125.632 170.394C125.632 170.394 122.793 152.412 118.535 153.359C116.053 153.91 102.762 178.28 102.762 178.28C102.762 178.28 113.646 151.939 110.333 153.044C107.921 153.849 103.394 164.716 103.394 164.716C103.394 164.716 105.601 153.99 103.394 153.359C101.186 152.728 88.882 164.716 88.882 164.716C88.882 164.716 98.0309 153.99 96.453 151.782C94.0624 148.436 91.2605 148.278 87.9356 149.575C83.0978 151.459 76.58 160.299 76.58 160.299C76.58 160.299 83.0774 151.349 81.9416 147.996C80.1185 142.609 61.4379 158.406 61.4379 158.406C61.4379 158.406 72.4787 147.996 69.9553 145.788C67.4319 143.58 53.7294 144.262 49.4508 144.251C36.833 144.211 32.4605 141.251 28.6304 138.218Z" fill="white"/>
</g>
</g>
<path d="M28 136.326C44.5611 144.632 59.7032 135.064 78.7877 140.443C93.2973 144.531 110.965 149.574 134.939 146.104C158.913 142.634 179.417 132.224 189.197 113.613C192.246 105.306 204.654 115.505 204.654 115.505C204.654 115.505 195.611 111.72 195.822 113.508C196.032 115.295 209.386 121.498 209.386 121.498C209.386 121.498 197.293 117.714 198.03 120.554C198.766 123.391 213.172 134.748 213.172 134.748C213.172 134.748 196.872 122.34 195.506 124.023C194.14 125.705 202.447 132.54 202.447 132.54C202.447 132.54 188.671 124.023 183.834 126.534C180.354 128.338 198.134 140.005 198.134 140.005C198.134 140.005 186.567 131.173 183.834 133.486C181.1 135.801 196.874 154.727 196.874 154.727C196.874 154.727 178.996 135.379 177.21 136.326C175.423 137.272 182.152 146.525 182.152 146.525C182.152 146.525 173.318 136.85 170.901 138.534C168.482 140.216 183.518 165.347 183.518 165.347C183.518 165.347 167.22 139.585 160.49 143.896C171.058 167.082 167.115 170.395 167.115 170.395C167.115 170.395 165.767 146.74 152.603 147.367C145.979 147.682 155.757 165.032 155.757 165.032C155.757 165.032 146.757 149.184 140.764 149.5C151.812 170.407 147.873 178.911 147.873 178.911C147.873 178.911 149.699 161.054 134.716 151.118C140.393 156.165 131.153 178.911 131.153 178.911C131.153 178.911 139.283 145.392 125.16 151.783C122.928 152.791 125.003 168.502 125.003 168.502C125.003 168.502 122.162 150.521 117.905 151.467C115.422 152.018 102.13 176.388 102.13 176.388C102.13 176.388 113.014 150.047 109.703 151.153C107.289 151.955 102.762 162.823 102.762 162.823C102.762 162.823 104.97 152.098 102.762 151.467C100.554 150.836 88.2515 162.823 88.2515 162.823C88.2515 162.823 97.4005 152.098 95.8217 149.889C93.4311 146.543 90.6291 146.387 87.3052 147.682C82.4665 149.567 75.9486 158.406 75.9486 158.406C75.9486 158.406 82.446 149.456 81.3111 146.104C79.4871 140.718 60.8075 156.514 60.8075 156.514C60.8075 156.514 71.8482 146.104 69.3239 143.896C66.8006 141.688 53.098 142.371 48.8193 142.358C36.2016 142.318 31.8301 139.359 28 136.326Z" fill="#373535"/>
</g>
</g>
<defs>
<filter id="filter0_d_248_1412" x="22.7" y="75" width="210.6" height="125.103" filterUnits="userSpaceOnUse" color-interpolation-filters="sRGB">
<feFlood flood-opacity="0" result="BackgroundImageFix"/>
<feColorMatrix in="SourceAlpha" type="matrix" values="0 0 0 0 0 0 0 0 0 0 0 0 0 0 0 0 0 0 127 0" result="hardAlpha"/>
<feOffset dy="14"/>
<feGaussianBlur stdDeviation="2.65"/>
<feComposite in2="hardAlpha" operator="out"/>
<feColorMatrix type="matrix" values="0 0 0 0 0 0 0 0 0 0 0 0 0 0 0 0 0 0 0.25 0"/>
<feBlend mode="normal" in2="BackgroundImageFix" result="effect1_dropShadow_248_1412"/>
<feBlend mode="normal" in="SourceGraphic" in2="effect1_dropShadow_248_1412" result="shape"/>
</filter>
<clipPath id="clip0_248_1412">
<rect width="256" height="256" fill="white"/>
</clipPath>
</defs>
</svg>
