<svg width="256" height="256" viewBox="0 0 256 256" fill="none" xmlns="http://www.w3.org/2000/svg">
<g clip-path="url(#clip0_248_3023)">
<path d="M196 0H60C26.8629 0 0 26.8629 0 60V196C0 229.137 26.8629 256 60 256H196C229.137 256 256 229.137 256 196V60C256 26.8629 229.137 0 196 0Z" fill="#2222FF"/>
<path d="M95.3953 53.1053C98.3271 54.0136 101.288 54.7987 104.256 55.5766C107.337 56.392 110.396 57.2674 113.451 58.174C114.656 58.5288 115.862 58.8832 117.067 59.2376C117.862 59.4732 118.657 59.7113 119.451 59.952C120.576 60.2928 121.703 60.6248 122.831 60.9554C123.165 61.0592 123.499 61.163 123.843 61.27C126.94 62.1619 129.651 61.8535 132.715 60.9124C133.298 60.7369 133.298 60.7369 133.893 60.5579C134.303 60.4317 134.713 60.3054 135.135 60.1753C138.796 59.0763 142.465 58.0345 146.159 57.0551C149.733 56.1043 153.291 55.1129 156.839 54.0672C160.155 53.0915 163.474 52.1318 166.805 51.2114C167.354 51.0576 167.354 51.0576 167.914 50.9006C180.81 47.3689 193.926 48.7114 205.55 55.3281C209.251 57.5924 209.251 57.5924 210.874 58.959C210.874 59.2382 210.874 59.5174 210.874 59.8051C211.153 59.8051 211.432 59.8051 211.72 59.8051C211.72 60.0844 211.72 60.3636 211.72 60.6513C212.06 60.7822 212.06 60.7822 212.407 60.9157C213.801 61.7227 214.932 62.7871 215.95 64.0359C215.95 64.3151 215.95 64.5943 215.95 64.882C216.229 64.882 216.508 64.882 216.796 64.882C216.796 65.1613 216.796 65.4405 216.796 65.7282C217.075 65.7282 217.354 65.7282 217.642 65.7282C218.346 66.6483 218.991 67.5629 219.624 68.5311C219.813 68.8191 220.002 69.1071 220.196 69.4039C225.406 77.4925 227.923 86.0313 227.916 95.6426C227.918 96.2096 227.921 96.7766 227.924 97.3436C227.932 98.8709 227.934 100.398 227.934 101.926C227.935 102.884 227.937 103.843 227.939 104.802C227.947 108.161 227.95 111.52 227.95 114.878C227.949 117.987 227.958 121.095 227.971 124.204C227.983 126.89 227.987 129.576 227.987 132.263C227.986 133.859 227.989 135.456 227.998 137.052C228.062 149.16 226.829 160.438 219.069 170.322C218.541 171.005 218.061 171.726 217.589 172.449C216.839 173.548 216.108 174.434 215.104 175.305C214.825 175.305 214.545 175.305 214.258 175.305C214.258 175.584 214.258 175.863 214.258 176.151C213.979 176.151 213.699 176.151 213.412 176.151C213.412 176.43 213.412 176.709 213.412 176.997C212.609 177.727 212.609 177.727 211.561 178.531C211.218 178.798 210.874 179.065 210.52 179.34C209.605 179.958 209.605 179.958 208.759 179.958C208.62 180.377 208.48 180.796 208.336 181.228C207.444 181.862 207.444 181.862 206.327 182.497C205.781 182.811 205.781 182.811 205.223 183.131C204.855 183.341 204.486 183.55 204.106 183.766C203.778 183.976 203.449 184.185 203.11 184.401C201.724 185.187 200.284 185.754 198.793 186.305C198.492 186.416 198.191 186.528 197.881 186.643C195.805 187.399 193.731 188.008 191.575 188.501C189.995 188.88 188.431 189.305 186.867 189.744C186.541 189.835 186.215 189.925 185.879 190.019C180.617 191.491 175.362 192.99 170.106 194.486C168.68 194.892 167.254 195.297 165.827 195.701C165.359 195.834 164.892 195.967 164.41 196.103C160.533 197.198 156.644 198.247 152.746 199.266C150.346 199.901 148.047 200.628 145.736 201.535C144.965 201.755 144.189 201.959 143.41 202.143C142.764 202.3 142.764 202.3 142.106 202.459C141.629 202.573 141.152 202.687 140.66 202.804C139.505 203.084 138.351 203.366 137.197 203.651C136.906 203.722 136.615 203.793 136.315 203.867C134.778 204.25 133.29 204.686 131.804 205.237C127.912 206.567 124.338 205.367 120.542 204.259C119.996 204.103 119.45 203.948 118.904 203.794C117.271 203.33 115.642 202.857 114.013 202.381C113.556 202.248 113.1 202.115 112.629 201.978C110.96 201.49 109.29 201.002 107.622 200.51C104.547 199.607 101.459 198.764 98.3627 197.939C94.3931 196.882 90.445 195.767 86.5043 194.607C83.501 193.724 80.4926 192.861 77.4783 192.016C77.0443 191.894 76.6103 191.772 76.1631 191.647C73.8683 191.006 71.5701 190.383 69.265 189.78C59.2466 187.157 50.3513 184.059 42.53 176.997C42.53 176.718 42.53 176.438 42.53 176.151C42.2509 176.151 41.9717 176.151 41.6841 176.151C41.6841 175.872 41.6841 175.592 41.6841 175.305C41.4049 175.305 41.1258 175.305 40.8381 175.305C40.0153 174.409 40.0153 174.409 39.0934 173.242C38.6337 172.668 38.6337 172.668 38.1648 172.082C37.4543 171.074 37.4543 171.074 37.4543 170.228C37.1752 170.228 36.896 170.228 36.6084 170.228C35.9607 169.314 35.3794 168.413 34.8107 167.451C34.6411 167.165 34.4714 166.879 34.2966 166.584C29.8326 158.851 28.089 150.718 28.0807 141.866C28.0786 141.325 28.0765 140.784 28.0744 140.226C28.0689 138.75 28.0661 137.274 28.0642 135.799C28.063 134.872 28.0612 133.946 28.0594 133.02C28.0536 130.111 28.0495 127.201 28.0478 124.292C28.046 120.955 28.0386 117.619 28.0263 114.283C28.0171 111.69 28.0129 109.097 28.0123 106.503C28.0119 104.961 28.0095 103.419 28.0018 101.878C27.9411 88.894 29.373 75.9849 38.3003 65.7282C38.5794 65.7282 38.8586 65.7282 39.1462 65.7282C39.2509 65.486 39.3556 65.2439 39.4635 64.9944C40.0739 63.8878 40.7883 63.1272 41.6841 62.2378C42.129 61.7895 42.129 61.7895 42.5829 61.3322C43.376 60.6513 43.376 60.6513 44.2219 60.6513C44.2219 60.3721 44.2219 60.0928 44.2219 59.8051C44.5011 59.8051 44.7803 59.8051 45.0679 59.8051C45.0679 59.5259 45.0679 59.2467 45.0679 58.959C45.9787 58.2521 46.8827 57.6085 47.8437 56.9758C48.1293 56.7873 48.4149 56.5988 48.7092 56.4046C63.4408 46.9103 79.3657 48.0906 95.3953 53.1053ZM108.691 100.803C107.764 102.827 107.904 104.798 107.907 106.998C107.903 107.493 107.898 107.987 107.894 108.496C107.882 110.13 107.879 111.764 107.878 113.398C107.876 113.963 107.874 114.527 107.872 115.091C107.86 118.047 107.855 121.002 107.856 123.958C107.857 126.707 107.843 129.456 107.823 132.205C107.807 134.57 107.8 136.935 107.801 139.3C107.801 140.71 107.796 142.12 107.784 143.531C107.772 145.106 107.775 146.68 107.783 148.255C107.776 148.718 107.769 149.181 107.761 149.658C107.794 152.344 108.194 153.947 109.932 156.023C111.738 157.75 113.653 158.476 116.128 158.699C122.93 158.392 130.3 152.207 135.915 148.779C136.291 148.55 136.668 148.321 137.055 148.086C137.392 147.879 137.73 147.673 138.077 147.46C138.968 146.959 138.968 146.959 140.237 146.535C140.237 146.256 140.237 145.977 140.237 145.689C140.596 145.62 140.596 145.62 140.963 145.549C142.07 145.225 142.882 144.742 143.859 144.129C145.38 143.193 146.912 142.304 148.485 141.459C150.346 140.455 152.157 139.389 153.962 138.289C155.125 137.601 156.308 136.964 157.5 136.329C160.691 134.58 162.43 133.168 163.501 129.613C163.981 126.796 163.31 124.402 161.809 121.997C160.118 120.224 158.139 119.221 155.981 118.087C154.079 117.049 152.241 115.912 150.405 114.761C148.825 113.772 148.825 113.772 147.005 113.536C147.005 113.256 147.005 112.977 147.005 112.69C146.633 112.488 146.633 112.488 146.255 112.283C140.84 109.339 135.448 106.365 130.145 103.224C127.737 101.796 125.31 100.403 122.875 99.0205C121.626 98.305 121.626 98.305 120.595 97.5927C116.103 95.2846 111.651 97.2374 108.691 100.803Z" fill="white"/>
</g>
<defs>
<clipPath id="clip0_248_3023">
<rect width="256" height="256" fill="white"/>
</clipPath>
</defs>
</svg>
