<svg width="256" height="256" viewBox="0 0 256 256" fill="none" xmlns="http://www.w3.org/2000/svg">
<g clip-path="url(#clip0_355_200)">
<path d="M196 0H60C26.8629 0 0 26.8629 0 60V196C0 229.137 26.8629 256 60 256H196C229.137 256 256 229.137 256 196V60C256 26.8629 229.137 0 196 0Z" fill="#DA291C"/>
<path fill-rule="evenodd" clip-rule="evenodd" d="M156.838 111.551L152.816 112.651C150.014 113.75 147.506 115.648 145.392 118.535V113.246L135.463 113.152V154.684H145.795V134.817C145.795 131.418 146.2 129.026 147.107 127.523C147.802 125.933 149.107 124.633 150.717 123.536C152.519 122.333 154.424 121.733 156.437 121.733L159.639 121.94L159.544 111.348L156.838 111.551ZM75.9753 154.68H86.4085V100.572H75.9753V154.68ZM117.507 133.52L115.503 134.608L110.287 135.908C108.076 136.208 106.376 136.707 105.37 137.305C103.67 138.404 102.86 139.909 102.86 142.002C102.86 143.898 103.37 145.191 104.367 146.096C105.37 146.886 106.575 147.288 108.076 147.288C110.486 147.288 112.592 146.587 114.602 145.191C116.502 143.794 117.507 141.296 117.507 137.709V133.52ZM128.452 124.128V154.682H118.009V150.385C114.797 153.181 110.287 154.579 104.573 154.682C101.053 154.579 98.1466 153.587 96.038 151.786C93.6372 149.59 92.436 146.587 92.5335 142.906C92.436 137.605 94.3363 133.915 98.2458 131.619C100.559 130.315 103.563 129.423 107.272 128.918L115.303 127.628C116.903 126.931 117.707 125.823 117.707 124.432C117.606 122.735 117.104 121.534 115.902 120.936C114.701 120.234 112.997 119.83 110.793 119.936C108.179 119.83 106.376 120.535 105.272 121.94C104.573 122.735 103.964 123.936 103.771 125.732H93.3319C93.6372 121.94 94.5407 118.936 96.3418 116.643C99.151 112.95 104.067 111.048 111.091 111.152C115.604 111.048 119.613 111.953 123.225 113.849C126.632 115.646 128.452 119.137 128.452 124.128ZM44.8772 110.856C48.0914 110.856 50.9982 111.75 53.8077 113.551C56.3171 115.25 58.3243 117.643 59.7281 120.437H70.6601C69.0559 114.65 65.9448 109.854 61.2273 106.168C56.4203 102.369 50.9009 100.473 44.8772 100.572C37.3601 100.473 31.1322 103.067 25.9183 108.455C20.6032 113.748 18 120.034 18 127.523C18 134.908 20.6032 141.406 25.9183 146.694C31.1322 151.879 37.3601 154.481 44.8772 154.481C50.9009 154.481 56.4203 152.68 61.2273 148.985C65.9448 145.191 69.0559 140.503 70.6601 134.712H59.7281C58.3243 137.51 56.3171 139.797 53.8077 141.598C50.9982 143.302 48.0914 144.198 44.8772 144.198C40.265 144.198 36.3555 142.5 33.1395 139.298C29.8372 136.009 28.2291 132.124 28.3266 127.523C28.2291 122.936 29.8372 119.038 33.1395 115.749C36.3555 112.553 40.265 110.856 44.8772 110.856ZM193.753 133.114C193.648 129.823 192.546 127.123 190.434 124.929C188.13 122.638 185.424 121.534 182.212 121.636C179.104 121.534 176.394 122.638 174.19 124.929C171.979 127.123 170.774 129.823 170.774 133.114C170.774 136.208 171.979 138.905 174.19 141.203C176.394 143.505 179.104 144.591 182.212 144.591C185.424 144.591 188.13 143.505 190.336 141.203C192.546 138.905 193.648 136.208 193.753 133.114ZM197.659 117.643C201.874 121.94 203.982 127.123 203.982 133.114C203.982 139.104 201.874 144.293 197.659 148.487C193.346 152.784 188.13 154.974 182.212 154.974C176.295 154.974 171.173 152.784 166.966 148.487C162.646 144.293 160.545 139.104 160.545 133.114C160.545 127.123 162.646 121.94 166.966 117.643C171.173 113.354 176.295 111.249 182.212 111.249C188.13 111.249 193.346 113.354 197.659 117.643ZM210.409 132.515H238V123.232H210.409V132.515ZM178.805 102.864H188.134V76H178.805V102.864ZM230.979 87.7876L205.789 112.847L199.171 106.256L224.354 81.2037L230.979 87.7876Z" fill="white"/>
</g>
<defs>
<clipPath id="clip0_355_200">
<rect width="256" height="256" fill="white"/>
</clipPath>
</defs>
</svg>
