<svg width="256" height="256" viewBox="0 0 256 256" fill="none" xmlns="http://www.w3.org/2000/svg">
<g clip-path="url(#clip0_248_5382)">
<path d="M196 0H60C26.8629 0 0 26.8629 0 60V196C0 229.137 26.8629 256 60 256H196C229.137 256 256 229.137 256 196V60C256 26.8629 229.137 0 196 0Z" fill="white"/>
<path d="M127.999 28C72.8617 28 28 72.8617 28 128.001C28 183.145 72.8617 228.004 127.999 228.004C183.138 228.004 228 183.145 228 128.001C228 72.8617 183.138 28 127.999 28Z" fill="white"/>
<path d="M124.342 129.799C123.444 131.746 122.452 133.934 121.426 136.262C117.797 144.484 113.778 154.488 112.31 160.898C111.783 163.18 111.456 166.009 111.462 169.146C111.462 170.387 111.529 171.691 111.634 173.019C116.765 174.904 122.306 175.941 128.093 175.951C133.361 175.941 138.422 175.07 143.159 173.495C142.045 172.477 140.983 171.392 140.016 170.17C133.594 161.98 130.011 149.979 124.342 129.799Z" fill="#91DC47"/>
<path d="M100.633 89.1133C88.3677 97.757 80.3419 112.013 80.3115 128.17C80.3419 144.084 88.1263 158.156 100.083 166.836C103.016 154.62 110.367 143.434 121.391 121.012C120.737 119.213 119.991 117.245 119.156 115.177C116.102 107.516 111.694 98.6188 107.76 94.5898C105.755 92.4852 103.321 90.6664 100.633 89.1133Z" fill="#91DC47"/>
<path d="M169.714 182.975C163.386 182.182 158.163 181.225 153.595 179.614C145.91 183.429 137.256 185.585 128.093 185.585C96.3864 185.585 70.6841 159.886 70.6802 128.171C70.6802 110.962 78.2614 95.5352 90.2552 85.0141C87.0474 84.2391 83.7021 83.7867 80.2849 83.793C63.4396 83.9516 45.6575 93.2742 38.2544 118.452C37.5622 122.117 37.7271 124.888 37.7271 128.172C37.7271 178.082 78.1888 218.544 128.095 218.544C158.659 218.544 185.659 203.357 202.01 180.131C193.166 182.335 184.662 183.389 177.379 183.411C174.649 183.411 172.087 183.265 169.714 182.975Z" fill="#63B132"/>
<path d="M152.733 165.464C153.291 165.741 154.555 166.192 156.316 166.692C168.157 157.999 175.852 143.996 175.883 128.171H175.878C175.834 101.787 154.483 80.4391 128.093 80.3867C122.848 80.3969 117.809 81.2625 113.091 82.8258C122.793 93.8852 127.459 109.69 131.972 126.978C131.974 126.986 131.978 126.992 131.98 126.999C131.988 127.013 133.423 131.799 135.887 138.15C138.334 144.492 141.82 152.344 145.622 158.066C148.118 161.9 150.863 164.656 152.733 165.464Z" fill="#90B4FE"/>
<path d="M128.095 37.7969C97.8264 37.7969 71.0514 52.6976 54.6514 75.5453C63.1866 70.2 71.9014 68.2719 79.5069 68.3406C90.0116 68.3711 98.2702 71.6281 102.233 73.8562C103.19 74.4078 104.098 75.0015 104.988 75.6117C112.059 72.4976 119.871 70.7562 128.093 70.7562C159.803 70.7601 185.509 96.4586 185.514 128.169H185.509C185.509 144.156 178.97 158.611 168.429 169.021C171.016 169.311 173.776 169.491 176.594 169.477C186.602 169.482 197.42 167.273 205.531 160.452C210.819 155.997 215.249 149.475 217.706 139.695C218.187 135.918 218.463 132.078 218.463 128.17C218.463 78.2625 178.006 37.7969 128.095 37.7969Z" fill="#5881D8"/>
</g>
<defs>
<clipPath id="clip0_248_5382">
<rect width="256" height="256" fill="white"/>
</clipPath>
</defs>
</svg>
