<svg width="256" height="256" viewBox="0 0 256 256" fill="none" xmlns="http://www.w3.org/2000/svg">
<g clip-path="url(#clip0_248_2313)">
<rect width="256" height="256" rx="60" fill="white"/>
<path d="M165.575 167.887C166.806 163.669 166.338 159.8 164.288 156.925C162.413 154.287 159.244 152.762 155.438 152.587L83.2813 151.65C82.8125 151.65 82.4063 151.412 82.1688 151.062C81.9313 150.712 81.875 150.25 81.9938 149.775C82.2313 149.069 82.9313 148.544 83.6938 148.487L156.494 147.55C165.119 147.137 174.494 140.162 177.769 131.612L181.931 120.769C182.115 120.323 182.158 119.833 182.056 119.362C177.369 98.1438 158.431 82.3188 135.806 82.3188C114.931 82.3188 97.2438 95.8001 90.9063 114.506C86.8 111.456 81.5313 109.819 75.9563 110.344C65.9313 111.344 57.8313 119.369 56.9063 129.394C56.6634 131.887 56.8408 134.403 57.4313 136.837C49.5447 137.051 42.0537 140.337 36.5556 145.995C31.0574 151.653 27.9874 159.236 28 167.125C28 168.587 28.125 170.062 28.2938 171.519C28.4188 172.225 29 172.75 29.7 172.75H162.875C163.258 172.743 163.629 172.614 163.934 172.383C164.24 172.151 164.464 171.829 164.575 171.462L165.575 167.887Z" fill="#F38020"/>
<path d="M188.55 121.519L186.55 121.581C186.081 121.581 185.675 121.931 185.487 122.394L182.675 132.181C181.444 136.4 181.912 140.269 183.962 143.144C185.837 145.781 189.006 147.306 192.812 147.481L208.169 148.419C208.637 148.419 209.044 148.656 209.281 149.006C209.519 149.356 209.575 149.881 209.456 150.294C209.219 151 208.519 151.525 207.756 151.581L191.756 152.519C183.081 152.931 173.756 159.906 170.481 168.456L169.306 171.444C169.069 172.031 169.481 172.619 170.119 172.619H225.1C225.418 172.623 225.729 172.522 225.983 172.331C226.238 172.14 226.422 171.869 226.506 171.562C227.481 168.096 227.983 164.513 228 160.912C227.97 150.465 223.802 140.454 216.409 133.072C209.015 125.69 198.998 121.538 188.55 121.525" fill="#FAAE40"/>
</g>
<defs>
<clipPath id="clip0_248_2313">
<rect width="256" height="256" fill="white"/>
</clipPath>
</defs>
</svg>
