<svg width="256" height="256" viewBox="0 0 256 256" fill="none" xmlns="http://www.w3.org/2000/svg">
<g clip-path="url(#clip0_248_3581)">
<path d="M196 0H60C26.8629 0 0 26.8629 0 60V196C0 229.137 26.8629 256 60 256H196C229.137 256 256 229.137 256 196V60C256 26.8629 229.137 0 196 0Z" fill="#F4F4ED"/>
<path d="M126.125 23.625L28.4688 216.438L134.875 125.969L126.125 23.625Z" fill="#064F8C"/>
<path d="M221.438 222.531L90.1875 169.562L28 222.531H221.438Z" fill="#249847"/>
<path d="M228 220.812L130.5 26.9062L144.875 187.219L228 220.812Z" fill="#BE2128"/>
<path d="M140.344 185.5L135.5 130.969L93.625 166.75L140.344 185.5Z" fill="#CDCDCE"/>
</g>
<defs>
<clipPath id="clip0_248_3581">
<rect width="256" height="256" fill="white"/>
</clipPath>
</defs>
</svg>
