<svg width="256" height="256" viewBox="0 0 256 256" fill="none" xmlns="http://www.w3.org/2000/svg">
<g clip-path="url(#clip0_248_4915)">
<rect width="256" height="256" rx="60" fill="#242938"/>
<path d="M224.204 90.3847L132.798 29.4468C129.678 27.5249 126.347 27.5106 123.202 29.4468L31.7952 90.3847C29.4524 91.9466 28 94.738 28 97.5266V158.464C28 161.255 29.4524 164.044 31.7952 165.605L123.202 226.553C126.32 228.474 129.652 228.491 132.798 226.553L224.204 165.605C226.547 164.044 227.999 161.255 227.999 158.465V97.5276C227.999 94.738 226.547 91.9466 224.204 90.3847ZM136.595 52.6601L203.892 97.5266L173.869 117.617L136.594 92.7266V52.6629L136.595 52.6601ZM119.405 52.6601V92.7276L82.1275 117.616L52.1057 97.5276L119.405 52.6601ZM45.1876 113.597L66.7275 127.995L45.1876 142.394V113.597ZM119.405 203.331L52.1057 158.464L82.1275 138.375L119.405 163.263V203.331ZM128 148.307L97.6436 127.995L128 107.683L158.356 127.995L128 148.307ZM136.594 203.331V163.263L173.869 138.375L203.892 158.464L136.594 203.331ZM210.813 142.394L189.272 127.995L210.813 113.599V142.394Z" fill="white"/>
</g>
<defs>
<clipPath id="clip0_248_4915">
<rect width="256" height="256" fill="white"/>
</clipPath>
</defs>
</svg>
