<svg width="256" height="256" viewBox="0 0 256 256" fill="none" xmlns="http://www.w3.org/2000/svg">
<g clip-path="url(#clip0_360_60)">
<rect width="256" height="256" rx="60" fill="#242938"/>
<path d="M228 50H28L127.998 225.815L228 50ZM171.765 141.835L129.733 215.737V166.466L171.765 141.835ZM178.23 130.465V81.2114L220.266 56.5758L178.23 130.465ZM218.535 53.5059L176.5 78.1416L134.716 53.6641L134.463 53.5145L218.535 53.5059ZM121.536 53.5059L121.284 53.6556L79.5005 78.1416L37.4644 53.5145L121.536 53.5059ZM35.7333 56.5629L77.7691 81.2114V130.465L35.7333 56.5629ZM81.2318 81.2114L126.267 54.8057V107.592L81.2318 133.984V81.2114ZM129.733 54.8057L174.768 81.2114V133.984L129.733 107.592V54.8057ZM127.998 110.636L173.033 137.029L127.998 163.421L82.9627 137.029L127.998 110.636ZM84.2308 141.847L126.267 166.478V215.737L84.2308 141.847Z" fill="#EEEE02"/>
</g>
<defs>
<clipPath id="clip0_360_60">
<rect width="256" height="256" fill="white"/>
</clipPath>
</defs>
</svg>
