<svg width="256" height="256" viewBox="0 0 256 256" fill="none" xmlns="http://www.w3.org/2000/svg">
<g clip-path="url(#clip0_364_111)">
<rect width="256" height="256" rx="60" fill="#242938"/>
<path fill-rule="evenodd" clip-rule="evenodd" d="M130.699 168.434C115.895 168.434 102.969 160.392 96.0524 148.437L72.525 162.02C71.1567 162.811 70.7227 164.584 71.5701 165.917C83.9871 185.463 105.828 198.434 130.699 198.434C156.606 198.434 179.227 184.36 191.33 163.439L167.669 149.778C166.401 149.046 164.787 149.424 163.973 150.641C156.799 161.37 144.574 168.434 130.699 168.434ZM214.873 79.8357C216.23 79.0528 216.67 77.3018 215.847 75.9694C198.233 47.4444 166.686 28.4343 130.699 28.4343C93.6885 28.4343 61.3741 48.5405 44.082 78.4258L67.7114 92.0684C69.0044 92.8148 70.6517 92.4063 71.4481 91.1436C83.8436 71.4905 105.747 58.4342 130.699 58.4342C156.606 58.4342 179.227 72.5088 191.33 93.4286L214.873 79.8357Z" fill="#D2E1F0"/>
<path fill-rule="evenodd" clip-rule="evenodd" d="M130.699 198.434C105.829 198.434 83.9873 185.463 71.5704 165.917C70.7246 164.585 71.1587 162.81 72.5252 162.02L96.0526 148.437C92.648 142.553 90.6992 135.721 90.6992 128.434C90.6992 106.449 108.502 88.4342 130.699 88.4342C144.574 88.4342 156.799 95.4984 163.974 106.227C164.786 107.442 166.403 107.821 167.669 107.09L191.331 93.4285C179.227 72.5087 156.606 58.4341 130.699 58.4341C105.747 58.4341 83.8438 71.4904 71.4484 91.1435C70.6528 92.405 69.0029 92.8138 67.7116 92.0682L44.0823 78.4257C35.5709 93.1365 30.6992 110.217 30.6992 128.434C30.6992 183.398 75.2064 228.434 130.699 228.434C166.687 228.434 198.234 209.424 215.847 180.899C216.669 179.568 216.228 177.815 214.874 177.032L191.331 163.439C179.227 184.359 156.606 198.434 130.699 198.434Z" fill="#96AAB9"/>
<path fill-rule="evenodd" clip-rule="evenodd" d="M215.01 139.189V117.679L196.382 128.434L215.01 139.189ZM182.493 123.623L217.788 103.245C221.483 101.112 226.121 103.79 226.121 108.057V148.812C226.121 153.078 221.483 155.756 217.788 153.623L182.493 133.245C178.804 131.115 178.804 125.753 182.493 123.623Z" fill="#00E1C8"/>
</g>
<defs>
<clipPath id="clip0_364_111">
<rect width="256" height="256" fill="white"/>
</clipPath>
</defs>
</svg>
