<svg width="256" height="256" viewBox="0 0 256 256" fill="none" xmlns="http://www.w3.org/2000/svg">
<g clip-path="url(#clip0_360_110)">
<path d="M196 0H60C26.8629 0 0 26.8629 0 60V196C0 229.137 26.8629 256 60 256H196C229.137 256 256 229.137 256 196V60C256 26.8629 229.137 0 196 0Z" fill="#0056D2"/>
<path d="M48.4233 127.529C48.4233 119.056 55.3992 112.204 64.1215 112.204C72.9048 112.204 79.8826 119.06 79.8826 127.529C79.8826 135.939 72.9048 142.917 64.1215 142.917C55.3992 142.917 48.4233 135.931 48.4233 127.529ZM72.3449 127.529C72.3449 123.293 68.6693 119.555 64.1215 119.555C59.6366 119.555 55.961 123.293 55.961 127.529C55.961 131.827 59.6366 135.565 64.1215 135.565C68.6769 135.565 72.3449 131.827 72.3449 127.529ZM206.727 127.778C206.727 118.496 214.265 112.204 221.119 112.204C225.791 112.204 228.47 113.636 230.276 116.378L230.994 112.76H238V142.355H230.994L230.089 139.308C228.034 141.551 225.478 142.926 221.119 142.926C214.391 142.917 206.727 136.998 206.727 127.778ZM230.649 127.715C230.632 123.235 226.941 119.558 222.46 119.558C217.967 119.558 214.271 123.254 214.271 127.747V127.778C214.271 131.89 217.946 135.565 222.433 135.565C226.975 135.565 230.649 131.89 230.649 127.715ZM198.117 116.19V112.762H190.456V142.355H198.117V126.409C198.117 121.612 200.487 119.121 204.592 119.121C204.865 119.121 205.124 119.14 205.377 119.164L206.798 112.021C202.804 112.042 199.909 113.411 198.117 116.19ZM121.127 116.192V112.764L113.465 112.781L113.53 142.37L121.192 142.353L121.15 126.409C121.138 121.614 123.502 119.117 127.611 119.107C127.874 119.108 128.136 119.123 128.396 119.151L129.809 112C125.81 112.032 122.911 113.407 121.127 116.192ZM82.5374 130.892V112.764H90.197V129.959C90.197 133.758 92.3148 136.002 95.9903 136.002C100.102 136.002 102.465 133.509 102.465 128.711V112.764H110.129V142.355H102.471V138.927C100.666 141.73 97.7367 143.101 93.6878 143.101C86.8357 143.103 82.5374 138.119 82.5374 130.892ZM157.142 127.563C157.159 119.277 163.089 112.187 172.495 112.204C181.217 112.221 187.371 119.208 187.35 127.439C187.352 128.253 187.287 129.066 187.159 129.869L164.609 129.827C165.474 133.379 168.397 135.939 172.821 135.948C175.498 135.948 178.367 134.962 180.115 132.722L185.341 136.912C182.653 140.707 177.913 142.941 172.87 142.932C163.967 142.901 157.126 136.222 157.142 127.563ZM179.637 124.489C179.206 121.499 176.096 119.187 172.421 119.182C168.869 119.182 166.001 121.288 164.874 124.463L179.637 124.489ZM129.855 135.904L136.665 132.339C137.791 134.779 140.042 136.217 143.232 136.217C146.17 136.217 147.296 135.28 147.296 133.966C147.296 129.205 131.163 132.09 131.163 121.206C131.163 115.203 136.416 112.015 142.917 112.015C147.858 112.015 152.234 114.203 154.611 118.267L147.861 121.838C146.862 119.837 144.986 118.711 142.609 118.711C140.297 118.711 139.169 119.524 139.169 120.899C139.169 125.527 155.302 122.589 155.302 133.659C155.302 139.412 150.613 142.913 143.047 142.913C136.606 142.907 132.104 140.782 129.855 135.904ZM18 127.529C18 118.995 24.9759 112.141 33.6982 112.141C39.0206 112.104 44.0168 114.757 46.9664 119.187L40.4266 122.981C39.6695 121.9 38.6622 121.018 37.4906 120.411C36.3191 119.803 35.0179 119.488 33.6982 119.492C29.2133 119.492 25.5377 123.23 25.5377 127.529C25.5377 131.827 29.2133 135.565 33.6982 135.565C35.0801 135.574 36.4411 135.228 37.6516 134.561C38.862 133.894 39.8816 132.929 40.6132 131.757L47.0883 135.619C44.1732 140.181 39.1083 142.938 33.6944 142.909C24.9759 142.917 18 135.931 18 127.529Z" fill="white"/>
</g>
<defs>
<clipPath id="clip0_360_110">
<rect width="256" height="256" fill="white"/>
</clipPath>
</defs>
</svg>
