<svg width="256" height="256" viewBox="0 0 256 256" fill="none" xmlns="http://www.w3.org/2000/svg">
<g clip-path="url(#clip0_248_5350)">
<rect width="256" height="256" rx="60" fill="white"/>
<path d="M216.94 86.8001C216.939 83.4372 216.22 80.4656 214.765 77.9152C213.336 75.4073 211.197 73.3053 208.327 71.6434C184.637 57.9836 160.924 44.3656 137.242 30.692C130.857 27.006 124.667 27.1404 118.329 30.8793C108.9 36.4402 61.6908 63.4875 47.6231 71.6357C41.8296 74.9896 39.0104 80.1223 39.0091 86.7938C39 114.264 39.0091 141.734 39 169.206C39.0014 172.495 39.69 175.408 41.0804 177.921C42.5098 180.504 44.6793 182.664 47.6154 184.364C61.6839 192.512 108.899 219.557 118.327 225.119C124.667 228.86 130.857 228.994 137.244 225.307C160.927 211.632 184.641 198.015 208.335 184.355C211.271 182.656 213.44 180.495 214.87 177.914C216.258 175.402 216.948 172.488 216.949 169.198C216.949 169.198 216.949 114.271 216.94 86.8001Z" fill="#5C8DBC"/>
<path d="M128.247 127.732L41.0806 177.921C42.51 180.504 44.6795 182.664 47.6156 184.364C61.684 192.512 108.9 219.557 118.327 225.119C124.667 228.86 130.857 228.994 137.244 225.307C160.927 211.632 184.641 198.015 208.335 184.355C211.271 182.656 213.44 180.495 214.87 177.914L128.247 127.732Z" fill="#1A4674"/>
<path d="M102.429 142.598C107.501 151.453 117.037 157.426 127.975 157.426C138.98 157.426 148.57 151.377 153.616 142.428L128.247 127.732L102.429 142.598Z" fill="#1A4674"/>
<path d="M216.94 86.8004C216.939 83.4375 216.22 80.4659 214.765 77.9155L128.247 127.732L214.87 177.914C216.258 175.402 216.948 172.488 216.949 169.198C216.949 169.198 216.949 114.272 216.94 86.8004Z" fill="#1B598E"/>
<path d="M212.177 131.319H205.408V138.089H198.638V131.319H191.87V124.551H198.638V117.782H205.408V124.551H212.177V131.319ZM187.478 131.319H180.709V138.089H173.94V131.319H167.171V124.551H173.94V117.782H180.709V124.551H187.478V131.319Z" fill="white"/>
<path d="M153.616 142.428C148.57 151.377 138.98 157.426 127.975 157.426C117.037 157.426 107.501 151.453 102.429 142.598C99.8812 138.155 98.5431 133.121 98.5483 127.999C98.5483 111.748 111.723 98.5737 127.975 98.5737C138.842 98.5737 148.328 104.472 153.425 113.236L179.145 98.4254C168.922 80.7782 149.836 68.9058 127.975 68.9058C95.3372 68.9058 68.8804 95.3633 68.8804 127.999C68.8804 138.706 71.7287 148.747 76.7069 157.408C86.9042 175.148 106.045 187.094 127.975 187.094C149.945 187.094 169.116 175.1 179.298 157.307L153.616 142.428Z" fill="white"/>
</g>
<defs>
<clipPath id="clip0_248_5350">
<rect width="256" height="256" fill="white"/>
</clipPath>
</defs>
</svg>
