<svg width="256" height="256" viewBox="0 0 256 256" fill="none" xmlns="http://www.w3.org/2000/svg">
<g clip-path="url(#clip0_248_5336)">
<path d="M196 0H60C26.8629 0 0 26.8629 0 60V196C0 229.137 26.8629 256 60 256H196C229.137 256 256 229.137 256 196V60C256 26.8629 229.137 0 196 0Z" fill="url(#paint0_linear_248_5336)"/>
<path d="M116.004 34.001C150.779 34.001 181.14 52.8867 197.403 80.959L197.245 80.6889L156.328 104.247C148.268 90.5988 133.491 81.3875 116.537 81.1975L116.003 81.1945C90.1522 81.1945 69.1945 102.152 69.1945 128.003C69.186 136.151 71.3147 144.159 75.368 151.227C83.4365 165.312 98.6046 174.813 116.004 174.813C133.511 174.813 148.766 165.192 156.793 150.956L156.598 151.297L197.451 174.964C181.367 202.799 151.421 221.626 117.051 222.001L116.004 222.007C81.119 222.007 50.6719 203.005 34.45 174.784C26.5309 161.007 22 145.035 22 128.003C22 76.0877 64.0857 34 116.003 34L116.004 34.001Z" fill="white"/>
<path d="M180.13 123.166V113.966H189.321V123.166H198.513V132.358H189.321V141.558H180.13V132.358H170.93V123.166H180.13Z" fill="white"/>
<path d="M214.609 123.166V113.966H223.809V123.166H233V132.358H223.809V141.558H214.609V132.358H205.415V123.166H214.609Z" fill="white"/>
</g>
<defs>
<linearGradient id="paint0_linear_248_5336" x1="17.5" y1="17.5" x2="238.5" y2="238.5" gradientUnits="userSpaceOnUse">
<stop stop-color="#5C8DBC"/>
<stop offset="1" stop-color="#1A4674"/>
</linearGradient>
<clipPath id="clip0_248_5336">
<rect width="256" height="256" fill="white"/>
</clipPath>
</defs>
</svg>
