<svg width="256" height="256" viewBox="0 0 256 256" fill="none" xmlns="http://www.w3.org/2000/svg">
<g clip-path="url(#clip0_363_26)">
<rect width="256" height="256" rx="60" fill="#242938"/>
<path d="M48.6411 132.163C48.6411 131.068 48.6411 131.381 48.6411 131.381C48.6411 127.159 74.4426 94.3207 117.758 84.1565C63.6529 88.0658 28 123.562 28 131.537C28 131.537 28 131.068 28 132.163C28.7819 139.981 54.5833 168.128 111.972 172.663C62.4019 159.372 49.5794 136.854 48.6411 132.163Z" fill="white"/>
<path d="M228 132.006C227.687 122.155 193.285 87.1274 134.333 84C183.434 93.6951 207.046 127.628 207.046 132.006C207.046 132.475 206.89 133.101 206.733 133.257C206.108 134.352 204.701 136.228 202.355 138.418C181.714 155.462 159.822 157.026 153.88 157.182C160.291 150.458 164.513 140.92 164.513 131.068C164.513 110.896 148.094 94.3206 127.765 94.3206C107.593 94.3206 91.1743 110.74 91.1743 130.912C91.1743 173.914 146.374 177.98 180.619 166.721C208.766 157.495 227.531 137.479 228 132.475C228 131.694 228 132.006 228 132.006ZM127.765 151.866C116.35 151.866 106.968 142.483 106.968 131.068C106.968 119.653 116.35 110.271 127.765 110.271C139.181 110.271 148.563 119.653 148.563 131.068C148.563 142.483 139.181 151.866 127.765 151.866Z" fill="white"/>
</g>
<defs>
<clipPath id="clip0_363_26">
<rect width="256" height="256" fill="white"/>
</clipPath>
</defs>
</svg>
