<svg width="256" height="256" viewBox="0 0 256 256" fill="none" xmlns="http://www.w3.org/2000/svg">
<g clip-path="url(#clip0_248_5420)">
<path d="M196 0H60C26.8629 0 0 26.8629 0 60V196C0 229.137 26.8629 256 60 256H196C229.137 256 256 229.137 256 196V60C256 26.8629 229.137 0 196 0Z" fill="white"/>
<path d="M155.26 226.052L226.479 154.975C226.764 154.69 226.907 154.405 226.622 153.978L200.555 56.8344C200.555 56.5495 200.271 56.2647 199.843 56.1222L102.557 30.0559C102.272 29.9134 101.845 30.0559 101.56 30.3408L30.3408 101.418C30.0559 101.703 29.9134 101.988 30.0559 102.415L56.2647 199.558C56.2647 199.843 56.5495 200.128 56.9769 200.271L154.263 226.337C154.548 226.479 154.975 226.337 155.26 226.052Z" fill="black" stroke="white" stroke-width="5" stroke-linecap="round"/>
<path d="M105.691 173.208L35.4688 103.128L131.33 77.7734L105.691 173.208Z" fill="white"/>
</g>
<defs>
<clipPath id="clip0_248_5420">
<rect width="256" height="256" fill="white"/>
</clipPath>
</defs>
</svg>
