<svg width="256" height="256" viewBox="0 0 256 256" fill="none" xmlns="http://www.w3.org/2000/svg">
<g clip-path="url(#clip0_248_5373)">
<rect width="256" height="256" rx="60" fill="white"/>
<path d="M216.94 86.7998C216.939 83.4369 216.22 80.4653 214.765 77.9156C213.337 75.407 211.197 73.305 208.327 71.6431C184.637 57.9833 160.924 44.3653 137.242 30.6916C130.857 27.0057 124.667 27.1408 118.33 30.8796C108.9 36.4399 61.6909 63.4872 47.6231 71.6354C41.8296 74.99 39.0104 80.1227 39.0091 86.7935C39 114.264 39.0091 141.735 39 169.205C39 172.494 39.69 175.409 41.0804 177.92C42.5098 180.504 44.6793 182.664 47.6154 184.363C61.6839 192.512 108.9 219.557 118.327 225.119C124.667 228.86 130.857 228.994 137.244 225.307C160.927 211.633 184.641 198.015 208.335 184.355C211.271 182.656 213.44 180.495 214.87 177.913C216.258 175.401 216.949 172.488 216.949 169.198C216.949 169.198 216.949 114.271 216.94 86.7998Z" fill="#A179DC"/>
<path d="M128.247 127.731L41.0806 177.92C42.51 180.504 44.6795 182.664 47.6156 184.363C61.6841 192.511 108.9 219.557 118.327 225.119C124.667 228.86 130.857 228.994 137.244 225.307C160.927 211.633 184.641 198.015 208.335 184.355C211.271 182.656 213.441 180.495 214.87 177.913L128.247 127.731Z" fill="#280068"/>
<path d="M216.941 86.8002C216.939 83.4373 216.22 80.4657 214.765 77.916L128.247 127.733L214.87 177.914C216.258 175.402 216.948 172.488 216.95 169.198C216.95 169.198 216.95 114.272 216.941 86.8002Z" fill="#390091"/>
<path d="M179.568 108.97V118.352H188.949V108.97H193.64V118.352H203.021V123.042H193.64V132.423H203.021V137.113H193.64V146.495H188.949V137.113H179.568V146.495H174.877V137.113H165.497V132.423H174.877V123.042H165.497V118.352H174.877V108.97H179.568ZM188.949 123.041H179.568V132.423H188.949V123.041Z" fill="white"/>
<path d="M128.439 61.8557C152.908 61.8557 174.271 75.1443 185.714 94.897L185.602 94.7069L156.812 111.283C151.141 101.68 140.743 95.1985 128.814 95.0648L128.438 95.0627C110.248 95.0627 95.5017 109.809 95.5017 127.999C95.4957 133.732 96.9935 139.367 99.8456 144.34C105.523 154.251 116.196 160.936 128.439 160.936C140.757 160.936 151.491 154.166 157.139 144.149L157.002 144.389L185.748 161.042C174.43 180.628 153.36 193.875 129.175 194.139L128.439 194.144C103.892 194.144 82.4685 180.773 71.0542 160.916C65.4821 151.222 62.2939 139.983 62.2939 127.999C62.2939 91.4694 91.9069 61.855 128.438 61.855L128.439 61.8557Z" fill="white"/>
</g>
<defs>
<clipPath id="clip0_248_5373">
<rect width="256" height="256" fill="white"/>
</clipPath>
</defs>
</svg>
