<svg width="256" height="256" viewBox="0 0 256 256" fill="none" xmlns="http://www.w3.org/2000/svg">
<g clip-path="url(#clip0_248_5360)">
<path d="M196 0H60C26.8629 0 0 26.8629 0 60V196C0 229.137 26.8629 256 60 256H196C229.137 256 256 229.137 256 196V60C256 26.8629 229.137 0 196 0Z" fill="url(#paint0_linear_248_5360)"/>
<path d="M194.668 100.959V114.292H208.001V100.959H214.667V114.292H228V120.958H214.667V134.29H228V140.956H214.667V154.289H208.001V140.956H194.668V154.289H188.002V140.956H174.67V134.29H188.002V120.958H174.67V114.292H188.002V100.959H194.668ZM208.001 120.957H194.668V134.29H208.001V120.957Z" fill="white"/>
<path d="M122.004 34.001C156.779 34.001 187.14 52.8867 203.403 80.959L203.245 80.6889L162.328 104.247C154.268 90.5988 139.491 81.3875 122.537 81.1975L122.003 81.1945C96.1522 81.1945 75.1945 102.152 75.1945 128.003C75.186 136.151 77.3147 144.159 81.368 151.227C89.4365 165.312 104.605 174.813 122.004 174.813C139.511 174.813 154.766 165.192 162.793 150.956L162.598 151.297L203.451 174.964C187.367 202.799 157.421 221.626 123.051 222.001L122.004 222.007C87.119 222.007 56.6719 203.005 40.45 174.784C32.5309 161.007 28 145.035 28 128.003C28 76.0877 70.0857 34 122.003 34L122.004 34.001Z" fill="white"/>
</g>
<defs>
<linearGradient id="paint0_linear_248_5360" x1="17.5" y1="17.5" x2="238.5" y2="238.5" gradientUnits="userSpaceOnUse">
<stop stop-color="#A179DC"/>
<stop offset="1" stop-color="#280068"/>
</linearGradient>
<clipPath id="clip0_248_5360">
<rect width="256" height="256" fill="white"/>
</clipPath>
</defs>
</svg>
