<svg width="256" height="256" viewBox="0 0 256 256" fill="none" xmlns="http://www.w3.org/2000/svg">
<g clip-path="url(#clip0_248_3223)">
<rect width="256" height="256" rx="60" fill="white"/>
<path d="M56.0429 208.007L40 28H216.343L200.279 207.979L128.064 228L56.0429 208.007Z" fill="#1572B6"/>
<path d="M128.171 212.7L186.529 196.522L200.257 42.7217H128.171V212.7Z" fill="#33A9DC"/>
<path d="M128.171 107.936H157.386L159.4 85.3291H128.171V63.2505H183.529L183 69.1719L177.579 130.015H128.171V107.936Z" fill="white"/>
<path d="M128.307 165.271L128.207 165.299L103.621 158.656L102.05 141.049H79.8857L82.9786 175.714L128.2 188.271L128.307 188.242V165.271Z" fill="#EBEBEB"/>
<path d="M155.508 129.078L152.85 158.642L128.229 165.285V188.256L173.486 175.713L173.822 171.985L177.658 129.078H155.508Z" fill="white"/>
<path d="M128.25 63.2505V85.3291H74.921L74.4781 80.3648L73.471 69.1719L72.9424 63.2505H128.25ZM128.171 107.936V130.015H103.892L103.45 125.05L102.45 113.858L101.921 107.936H128.171Z" fill="#EBEBEB"/>
</g>
<defs>
<clipPath id="clip0_248_3223">
<rect width="256" height="256" fill="white"/>
</clipPath>
</defs>
</svg>
