<svg width="256" height="256" viewBox="0 0 256 256" fill="none" xmlns="http://www.w3.org/2000/svg">
<g clip-path="url(#clip0_248_3206)">
<path d="M196 0H60C26.8629 0 0 26.8629 0 60V196C0 229.137 26.8629 256 60 256H196C229.137 256 256 229.137 256 196V60C256 26.8629 229.137 0 196 0Z" fill="#1572B6"/>
<path d="M53.7246 102.336L56.5735 134.122H127.705V102.336H53.7246Z" fill="#EBEBEB"/>
<path d="M242 67.4375C242 37.9248 218.075 14 188.562 14H128V242H188.562C218.075 242 242 218.075 242 188.562V67.4375Z" fill="#33A9DC"/>
<path d="M127.704 38H127.595H48L50.8894 69.7865H127.704V38Z" fill="#EBEBEB"/>
<path d="M127.705 217.959V184.888L127.565 184.925L92.165 175.367L89.902 150.015H72.7001H57.9937L62.4468 199.925L127.558 218L127.705 217.959Z" fill="#EBEBEB"/>
<path d="M166.736 134.122L163.047 175.346L127.595 184.915V217.984L192.759 199.925L193.237 194.554L200.706 110.872L201.481 102.336L207.22 38H127.595V69.7866H172.385L169.493 102.336H127.595V134.122H166.736Z" fill="white"/>
</g>
<defs>
<clipPath id="clip0_248_3206">
<rect width="256" height="256" fill="white"/>
</clipPath>
</defs>
</svg>
