<svg width="256" height="848" viewBox="0 0 256 848" fill="none" xmlns="http://www.w3.org/2000/svg">
<g clip-path="url(#clip0_206_794)">
<path d="M196 0H60C26.8629 0 0 26.8629 0 60V196C0 229.137 26.8629 256 60 256H196C229.137 256 256 229.137 256 196V60C256 26.8629 229.137 0 196 0Z" fill="#1572B6"/>
<path d="M53.7246 102.336L56.5735 134.122H127.705V102.336H53.7246Z" fill="#EBEBEB"/>
<path d="M127.704 38H127.595H48L50.8894 69.7865H127.704V38Z" fill="#EBEBEB"/>
<path d="M127.704 217.959V184.888L127.565 184.925L92.1649 175.367L89.9019 150.015H72.7H57.9935L62.4467 199.925L127.558 218L127.704 217.959Z" fill="#EBEBEB"/>
<path d="M166.736 134.122L163.046 175.346L127.595 184.915V217.984L192.759 199.925L193.236 194.554L200.706 110.872L201.481 102.336L207.22 38H127.595V69.7866H172.385L169.493 102.336H127.595V134.122H166.736Z" fill="white"/>
</g>
<g clip-path="url(#clip1_206_794)">
<rect y="296" width="256" height="256" rx="60" fill="#242938"/>
<path d="M56.0429 504.007L40 324H216.343L200.279 503.979L128.064 524L56.0429 504.007Z" fill="#1572B6"/>
<path d="M128.171 508.7L186.529 492.522L200.257 338.722H128.171V508.7Z" fill="#33A9DC"/>
<path d="M128.171 403.936H157.386L159.4 381.329H128.171V359.25H183.529L183 365.172L177.579 426.015H128.171V403.936Z" fill="white"/>
<path d="M128.307 461.271L128.207 461.299L103.621 454.656L102.05 437.049H79.8856L82.9785 471.714L128.2 484.271L128.307 484.242V461.271Z" fill="#EBEBEB"/>
<path d="M155.507 425.078L152.85 454.642L128.229 461.285V484.256L173.486 471.713L173.822 467.985L177.657 425.078H155.507Z" fill="white"/>
<path d="M128.25 359.25V381.329H74.921L74.4781 376.365L73.471 365.172L72.9424 359.25H128.25ZM128.171 403.936V426.015H103.892L103.45 421.05L102.45 409.858L101.921 403.936H128.171Z" fill="#EBEBEB"/>
</g>
<g clip-path="url(#clip2_206_794)">
<rect y="592" width="256" height="256" rx="60" fill="white"/>
<path d="M56.0429 800.007L40 620H216.343L200.279 799.979L128.064 820L56.0429 800.007Z" fill="#1572B6"/>
<path d="M128.171 804.7L186.529 788.522L200.257 634.722H128.171V804.7Z" fill="#33A9DC"/>
<path d="M128.171 699.936H157.386L159.4 677.329H128.171V655.25H183.529L183 661.172L177.579 722.015H128.171V699.936Z" fill="white"/>
<path d="M128.307 757.271L128.207 757.299L103.621 750.656L102.05 733.049H79.8856L82.9785 767.714L128.2 780.271L128.307 780.242V757.271Z" fill="#EBEBEB"/>
<path d="M155.507 721.078L152.85 750.642L128.229 757.285V780.256L173.486 767.713L173.822 763.985L177.657 721.078H155.507Z" fill="white"/>
<path d="M128.25 655.25V677.329H74.921L74.4781 672.365L73.471 661.172L72.9424 655.25H128.25ZM128.171 699.936V722.015H103.892L103.45 717.05L102.45 705.858L101.921 699.936H128.171Z" fill="#EBEBEB"/>
</g>
<defs>
<clipPath id="clip0_206_794">
<rect width="256" height="256" fill="white"/>
</clipPath>
<clipPath id="clip1_206_794">
<rect width="256" height="256" fill="white" transform="translate(0 296)"/>
</clipPath>
<clipPath id="clip2_206_794">
<rect width="256" height="256" fill="white" transform="translate(0 592)"/>
</clipPath>
</defs>
</svg>
