<svg width="256" height="256" viewBox="0 0 256 256" fill="none" xmlns="http://www.w3.org/2000/svg">
<g clip-path="url(#clip0_360_128)">
<path d="M196 0H60C26.8629 0 0 26.8629 0 60V196C0 229.137 26.8629 256 60 256H196C229.137 256 256 229.137 256 196V60C256 26.8629 229.137 0 196 0Z" fill="#111213"/>
<path d="M177.001 28H79.0022C72.5013 28.0658 66.077 29.4114 60.0961 31.9601C54.1153 34.5088 48.6951 38.2107 44.145 42.8542C39.5949 47.4978 36.0041 52.9922 33.5775 59.0236C31.1509 65.055 29.9361 71.5054 30.0026 78.0062V177.994C29.8751 191.121 34.9645 203.762 44.1524 213.138C53.3403 222.515 65.8751 227.86 79.0022 228H177.001C190.128 227.86 202.663 222.515 211.851 213.138C221.039 203.762 226.128 191.121 226.001 177.994V78.0062C226.068 71.5054 224.853 65.055 222.426 59.0236C220 52.9922 216.409 47.4978 211.859 42.8542C207.308 38.2107 201.888 34.5088 195.908 31.9601C189.927 29.4114 183.502 28.0658 177.001 28ZM177.001 42.7477C186.248 42.854 195.076 46.6226 201.548 53.2273C208.021 59.832 211.611 68.7339 211.53 77.9812V177.994C211.611 187.241 208.021 196.143 201.548 202.747C195.076 209.352 186.248 213.121 177.001 213.227H79.0022C69.753 213.121 60.9229 209.353 54.4462 202.749C47.9696 196.145 44.3744 187.243 44.4483 177.994V78.0062C44.3744 68.7567 47.9696 59.855 54.4462 53.251C60.9229 46.647 69.753 42.8791 79.0022 42.7729L177.001 42.7477Z" fill="white"/>
<path d="M122.164 65.4473H140.737L96.7962 190.551H78.3237L122.164 65.4473Z" fill="#E5007B"/>
<path d="M159.208 65.4473H177.681L133.84 190.551H115.368L159.208 65.4473Z" fill="#E5007B"/>
</g>
<defs>
<clipPath id="clip0_360_128">
<rect width="256" height="256" fill="white"/>
</clipPath>
</defs>
</svg>
