<svg width="256" height="256" viewBox="0 0 256 256" fill="none" xmlns="http://www.w3.org/2000/svg">
<g clip-path="url(#clip0_248_726)">
<rect width="256" height="256" rx="60" fill="#242938"/>
<path d="M217.942 163.673C216.7 191.207 193.921 213.222 166.091 213.222H162.328L134.536 185.842C136.822 182.618 138.947 179.278 140.839 175.795H166.091C174.077 175.795 180.576 169.3 180.576 161.309C180.576 153.323 174.077 146.824 166.091 146.824H151.148C152.286 140.805 152.909 134.599 152.909 128.25C152.909 121.804 152.275 115.509 151.095 109.394H160.378L217.778 165.954C217.846 165.195 217.901 164.438 217.942 163.673ZM53.0989 43H38V80.4275H53.0989C79.4696 80.4275 100.927 101.879 100.927 128.25C100.927 135.424 99.3267 142.235 96.483 148.349L124.028 175.491C133.073 161.959 138.36 145.712 138.36 128.25C138.36 81.2434 100.111 43 53.0989 43Z" fill="url(#paint0_linear_248_726)"/>
<path d="M166.091 43H104.95C119.884 52.1176 132.249 65.0459 140.675 80.4275H166.091C174.077 80.4275 180.576 86.9229 180.576 94.913C180.576 102.901 174.077 109.396 166.091 109.396H160.38L217.781 165.955C217.916 164.421 218 162.877 218 161.309C218 148.692 213.473 137.118 205.955 128.109C213.473 119.105 218 107.528 218 94.913C218 66.2894 194.716 43 166.091 43Z" fill="url(#paint1_linear_248_726)"/>
<path d="M162.328 213.222H105.387C116.849 206.144 126.757 196.799 134.536 185.842L162.328 213.222ZM124.028 175.491L96.4851 148.349C88.8756 164.702 72.2933 176.076 53.0989 176.076H38V213.5H53.0989C82.6467 213.5 108.727 198.386 124.028 175.491Z" fill="url(#paint2_linear_248_726)"/>
</g>
<defs>
<linearGradient id="paint0_linear_248_726" x1="2078.36" y1="-267.145" x2="13993.3" y2="16358.9" gradientUnits="userSpaceOnUse">
<stop stop-color="#F26D58"/>
<stop offset="1" stop-color="#F9A03C"/>
</linearGradient>
<linearGradient id="paint1_linear_248_726" x1="1896.11" y1="517.361" x2="14261.8" y2="7988.07" gradientUnits="userSpaceOnUse">
<stop stop-color="#B84E51"/>
<stop offset="1" stop-color="#F68E48"/>
</linearGradient>
<linearGradient id="paint2_linear_248_726" x1="5879.43" y1="1677.19" x2="6046.81" y2="9760.23" gradientUnits="userSpaceOnUse">
<stop stop-color="#F9A03C"/>
<stop offset="1" stop-color="#F7974E"/>
</linearGradient>
<clipPath id="clip0_248_726">
<rect width="256" height="256" fill="white"/>
</clipPath>
</defs>
</svg>
