<svg width="256" height="256" viewBox="0 0 256 256" fill="none" xmlns="http://www.w3.org/2000/svg">
<g clip-path="url(#clip0_248_723)">
<path d="M196 0H60C26.8629 0 0 26.8629 0 60V196C0 229.137 26.8629 256 60 256H196C229.137 256 256 229.137 256 196V60C256 26.8629 229.137 0 196 0Z" fill="url(#paint0_linear_248_723)"/>
<path d="M137.84 128.113C137.84 81.1079 99.65 43 52.5275 43H38V80.4126H52.535C78.9428 80.4126 100.347 101.768 100.347 128.113C100.347 154.459 78.9428 175.814 52.535 175.814H38V213.227H52.535C99.6432 213.227 137.84 175.119 137.84 128.113ZM218 94.9132C218 66.2409 194.697 43 165.965 43H105.965C120.729 52.2251 132.839 65.1167 141.11 80.4126H165.965C173.983 80.4126 180.5 86.9068 180.5 94.9132C180.5 102.92 173.983 109.414 165.965 109.414H151.43C153.777 121.776 153.777 134.466 151.43 146.826H165.965C173.975 146.826 180.5 153.314 180.5 161.329C180.5 169.342 173.983 175.829 165.965 175.829H141.11C132.839 191.124 120.729 204.017 105.965 213.241H165.965C178.123 213.241 189.897 208.992 199.25 201.232C221.323 182.899 224.345 150.171 205.963 128.129C213.739 118.798 217.997 107.047 218 94.9132Z" fill="white"/>
</g>
<defs>
<linearGradient id="paint0_linear_248_723" x1="0" y1="128" x2="256" y2="128" gradientUnits="userSpaceOnUse">
<stop offset="0.185" stop-color="#F9A03C"/>
<stop offset="1" stop-color="#B84E51"/>
</linearGradient>
<clipPath id="clip0_248_723">
<rect width="256" height="256" fill="white"/>
</clipPath>
</defs>
</svg>
