<svg width="256" height="256" viewBox="0 0 256 256" fill="none" xmlns="http://www.w3.org/2000/svg">
<g clip-path="url(#clip0_248_5434)">
<path d="M196 0H60C26.8629 0 0 26.8629 0 60V196C0 229.137 26.8629 256 60 256H196C229.137 256 256 229.137 256 196V60C256 26.8629 229.137 0 196 0Z" fill="#003256"/>
<path d="M83.1082 82.4497L70.177 69.5122L70.227 162.958L70.3832 167.322C70.4458 169.384 70.8363 171.696 71.4613 174.103L173.883 210.227L199.507 198.884L199.529 198.846L83.1019 82.4497H83.1082Z" fill="#00C4B3"/>
<path d="M71.4645 174.104H71.474C71.4645 174.066 71.449 174.022 71.4302 173.978C71.4521 174.026 71.4521 174.072 71.4614 174.104H71.4645ZM199.483 198.885L173.857 210.228L71.4521 174.104C73.4052 181.616 77.7395 190.059 82.3957 194.666L115.802 227.907L190.14 228L199.452 198.885H199.483Z" fill="#22D3C5"/>
<path d="M70.5269 69.5146L30.7052 129.655C27.399 133.187 29.049 140.473 34.3708 145.842L57.3582 169.018L71.8081 174.111C71.1831 171.711 70.7894 169.423 70.73 167.33L70.5738 162.968L70.5269 69.5209V69.5146Z" fill="#0075C9"/>
<path d="M174.726 70.719C172.321 70.1095 170.014 69.7252 167.936 69.6657L163.317 69.4971L70.177 69.519L199.526 198.85L210.888 173.224L174.733 70.7252L174.726 70.719Z" fill="#0075C9"/>
<path d="M174.607 70.6971C174.648 70.7128 174.692 70.7221 174.726 70.7285V70.7159C174.686 70.7066 174.648 70.7066 174.607 70.6909V70.6971ZM195.279 81.6909C190.576 76.9566 182.248 72.6285 174.726 70.7285L210.883 173.219L199.507 198.843L227.264 189.974L227.326 113.875L195.276 81.6878L195.279 81.6909Z" fill="#00A8E1"/>
<path d="M169.657 56.3589L146.533 33.359C141.138 28.056 133.852 26.3997 130.352 29.6997L70.2144 69.5121L163.355 69.4902L167.973 69.6589C170.052 69.7214 172.361 70.1026 174.764 70.7121L169.664 56.3527L169.657 56.3589Z" fill="#00C4B3"/>
</g>
<defs>
<clipPath id="clip0_248_5434">
<rect width="256" height="256" fill="white"/>
</clipPath>
</defs>
</svg>
