<svg width="256" height="256" viewBox="0 0 256 256" fill="none" xmlns="http://www.w3.org/2000/svg">
<g clip-path="url(#clip0_248_6618)">
<path d="M196 0H60C26.8629 0 0 26.8629 0 60V196C0 229.137 26.8629 256 60 256H196C229.137 256 256 229.137 256 196V60C256 26.8629 229.137 0 196 0Z" fill="#D70751"/>
<path d="M190.01 113.6C190.21 118.997 188.434 121.619 186.828 126.258L183.941 127.693C181.579 132.283 184.176 130.607 182.485 134.253C178.794 137.53 171.302 144.504 168.902 145.144C167.149 145.105 170.09 143.075 170.473 142.283C165.539 145.668 166.513 147.366 158.965 149.428L158.746 148.935C140.139 157.691 114.291 140.341 114.63 116.672C114.433 118.173 114.065 117.798 113.653 118.402C112.693 106.226 119.279 93.9956 130.385 88.9939C141.246 83.6191 153.982 85.8223 161.757 93.0797C157.486 87.4827 148.979 81.5465 138.902 82.096C129.026 82.2571 119.786 88.5326 116.703 95.3474C111.645 98.5292 111.056 107.623 108.853 109.291C105.885 131.092 114.432 140.507 128.891 151.587C131.16 153.12 129.53 153.354 129.834 154.521C125.03 152.274 120.634 148.879 117.016 144.721C118.936 147.528 121.007 150.259 123.685 152.403C119.153 150.873 113.102 141.429 111.34 141.044C119.147 155.023 143.01 165.559 155.512 160.33C149.727 160.546 142.379 160.449 135.883 158.047C133.148 156.643 129.442 153.736 130.105 153.193C147.162 159.562 164.778 158.014 179.533 146.187C183.29 143.261 187.391 138.287 188.579 138.219C186.793 140.904 188.884 139.509 187.512 141.881C191.248 135.846 185.883 139.423 191.377 131.462L193.406 134.253C192.646 129.242 199.627 123.161 198.916 115.24C200.517 112.819 200.7 117.849 199.003 123.421C201.36 117.24 199.627 116.246 200.229 111.144C200.878 112.859 201.743 114.679 202.184 116.492C200.646 110.517 203.753 106.433 204.527 102.959C203.763 102.625 202.157 105.6 201.786 98.5461C201.842 95.4813 202.642 96.9399 202.948 96.1852C202.349 95.8375 200.77 93.4885 199.812 88.9837C200.502 87.922 201.67 91.7279 202.617 91.8823C202.008 88.3019 200.96 85.5695 200.914 82.8202C198.144 77.0348 199.934 83.5936 197.691 80.3362C194.742 71.1465 200.136 78.203 200.502 74.0303C204.964 80.4969 207.508 90.5271 208.682 94.6791C207.788 89.6146 206.346 84.7079 204.584 79.9608C205.945 80.5349 202.398 69.5449 206.352 76.8226C202.132 61.3092 188.307 46.8122 175.587 40.0127C177.139 41.4357 179.103 43.2227 178.4 43.5041C172.071 39.7402 173.183 39.4432 172.276 37.8528C167.127 35.7553 166.784 38.0248 163.377 37.8574C153.66 32.7018 151.787 33.2492 142.846 30.0236L143.253 31.9267C136.818 29.7824 135.755 32.7354 128.801 31.9315C128.378 31.6031 131.029 30.7342 133.214 30.4193C126.991 31.2412 127.283 29.1906 121.192 30.6448C122.691 29.5928 124.282 28.8935 125.882 28C120.809 28.3083 113.765 30.953 115.939 28.5451C107.663 32.2396 92.9629 37.4242 84.7132 45.1596L84.4554 43.4262C80.675 47.963 67.9717 56.9761 66.9598 62.8575L65.9479 63.0921C63.9846 66.4225 62.7091 70.1954 61.1499 73.6197C58.5789 78.0044 57.3794 75.3083 57.7458 75.9964C52.6864 86.253 50.1689 94.8708 48 101.943C49.5458 104.255 48.0382 115.865 48.6208 125.154C46.0833 171.044 80.8268 215.597 118.806 225.88C124.371 227.874 132.647 227.803 139.688 228C131.384 225.624 130.31 226.741 122.217 223.921C116.379 221.17 115.102 218.031 110.965 214.442L112.602 217.333C104.493 214.464 107.887 213.782 101.287 211.694L103.037 209.413C100.409 209.213 96.0751 204.986 94.8913 202.639L92.0131 202.752C88.5599 198.495 86.7179 195.419 86.8536 193.036L85.9242 194.693C84.8726 192.886 73.2122 178.704 79.261 182.004C78.1376 180.982 76.6432 180.337 75.0238 177.389L76.2546 175.985C73.3484 172.238 70.8979 167.439 71.0857 165.839C72.6381 167.936 73.7147 168.327 74.7826 168.687C67.4311 150.451 67.0178 167.685 61.4537 150.125L62.6287 150.032C61.7285 148.667 61.1767 147.194 60.453 145.744L60.9668 140.641C55.6772 134.53 59.488 114.628 60.2542 103.717C60.7792 99.2805 64.6703 94.557 67.6255 87.1469L65.8253 86.8382C69.2695 80.8346 85.4866 62.7168 93.0002 63.646C96.6399 59.0758 92.2776 63.6282 91.5653 62.48C99.5589 54.2084 102.072 56.6365 107.466 55.1467C113.282 51.6956 102.474 56.4958 105.23 53.8311C115.29 51.2644 112.356 47.992 125.475 46.6898C126.86 47.4761 122.264 47.9048 121.112 48.9257C129.489 44.8246 147.625 45.7605 159.41 51.1996C173.073 57.5904 188.434 76.4722 189.043 94.2364L189.734 94.423C189.384 101.485 190.814 109.654 188.333 117.155L190.01 113.6Z" fill="white"/>
</g>
<defs>
<clipPath id="clip0_248_6618">
<rect width="256" height="256" fill="white"/>
</clipPath>
</defs>
</svg>
