<svg width="256" height="256" viewBox="0 0 256 256" fill="none" xmlns="http://www.w3.org/2000/svg">
<g clip-path="url(#clip0_417_17)">
<rect width="256" height="256" rx="60" fill="white"/>
<path d="M224.902 66.3378C222.783 65.301 221.871 67.2768 220.632 68.2805C220.208 68.6043 219.85 69.0251 219.491 69.4136C216.395 72.7162 212.777 74.8864 208.051 74.6269C201.142 74.2381 195.242 76.4083 190.027 81.6866C188.919 75.1778 185.236 71.2913 179.63 68.7984C176.697 67.5029 173.731 66.2074 171.677 63.39C170.243 61.3829 169.852 59.1484 169.135 56.9462C168.679 55.6187 168.222 54.2581 166.69 54.0314C165.028 53.7726 164.376 55.1645 163.724 56.331C161.117 61.0915 160.107 66.3374 160.204 71.6481C160.432 83.5977 165.484 93.1176 175.523 99.8859C176.664 100.663 176.957 101.44 176.598 102.574C175.914 104.905 175.099 107.172 174.382 109.504C173.926 110.993 173.241 111.317 171.644 110.669C166.136 108.37 161.377 104.97 157.173 100.858C150.035 93.96 143.581 86.3501 135.531 80.3915C133.641 78.9989 131.75 77.7041 129.794 76.473C121.581 68.5073 130.87 61.9654 133.021 61.1888C135.27 60.3792 133.804 57.5938 126.535 57.6268C119.267 57.6588 112.618 60.0877 104.144 63.326C102.906 63.8118 101.601 64.1676 100.265 64.4591C92.5733 63.0022 84.5879 62.6777 76.2441 63.6174C60.5341 65.3657 47.9863 72.7816 38.7625 85.4434C27.6811 100.663 25.0738 117.955 28.2679 135.993C31.6251 155.001 41.3375 170.739 56.2653 183.045C71.7472 195.803 89.5756 202.053 109.913 200.855C122.266 200.143 136.021 198.491 151.535 185.376C155.446 187.32 159.553 188.096 166.365 188.679C171.612 189.165 176.664 188.42 180.575 187.611C186.703 186.315 186.279 180.648 184.063 179.612C166.104 171.258 170.048 174.658 166.463 171.905C175.589 161.122 189.343 149.917 194.721 113.616C195.144 110.734 194.786 108.92 194.721 106.589C194.688 105.164 195.014 104.614 196.644 104.452C201.142 103.933 205.509 102.703 209.518 100.501C221.154 94.1544 225.847 83.7271 226.955 71.2273C227.118 69.3166 226.923 67.3408 224.902 66.3378ZM123.505 178.835C106.1 165.17 97.6589 160.668 94.1711 160.862C90.9118 161.057 91.4986 164.781 92.2153 167.21C92.9651 169.606 93.943 171.258 95.3116 173.362C96.2568 174.755 96.9091 176.827 94.3668 178.382C88.7607 181.847 79.0152 177.216 78.5586 176.989C67.2168 170.318 57.7321 161.51 51.0502 149.464C44.5968 137.87 40.8489 125.436 40.2293 112.159C40.0664 108.953 41.0115 107.819 44.2057 107.237C48.4101 106.46 52.7452 106.297 56.9496 106.913C74.7132 109.504 89.8361 117.437 102.515 130.002C109.75 137.158 115.226 145.708 120.865 154.062C126.862 162.935 133.315 171.387 141.528 178.317C144.429 180.745 146.743 182.591 148.959 183.952C142.278 184.696 131.131 184.859 123.505 178.835ZM131.848 125.242C131.848 123.817 132.989 122.684 134.424 122.684C134.75 122.684 135.043 122.748 135.304 122.845C135.663 122.975 135.989 123.169 136.249 123.46C136.706 123.914 136.966 124.561 136.966 125.241C136.966 126.666 135.826 127.799 134.392 127.799C132.958 127.799 131.848 126.666 131.848 125.242ZM157.76 138.519C156.098 139.199 154.436 139.781 152.839 139.846C150.362 139.975 147.656 138.971 146.19 137.741C143.908 135.83 142.279 134.762 141.594 131.427C141.301 130.002 141.464 127.799 141.725 126.537C142.311 123.817 141.659 122.068 139.737 120.481C138.172 119.186 136.184 118.83 134 118.83C133.185 118.83 132.436 118.473 131.882 118.182C130.969 117.729 130.22 116.595 130.936 115.203C131.165 114.75 132.273 113.648 132.534 113.454C135.5 111.77 138.922 112.321 142.084 113.584C145.017 114.782 147.234 116.984 150.427 120.093C153.687 123.849 154.273 124.886 156.131 127.702C157.598 129.905 158.934 132.171 159.847 134.762C160.401 136.381 159.683 137.709 157.76 138.519Z" fill="#4D6BFE"/>
</g>
<defs>
<clipPath id="clip0_417_17">
<rect width="256" height="256" fill="white"/>
</clipPath>
</defs>
</svg>
