<svg width="256" height="256" viewBox="0 0 256 256" fill="none" xmlns="http://www.w3.org/2000/svg">
<g clip-path="url(#clip0_364_141)">
<path d="M196 0H60C26.8629 0 0 26.8629 0 60V196C0 229.137 26.8629 256 60 256H196C229.137 256 256 229.137 256 196V60C256 26.8629 229.137 0 196 0Z" fill="white"/>
<path d="M161.333 108.954L128 128.193L94.6667 108.954L128 89.7156L161.333 108.954ZM194.667 128.193V166.671L228 147.432L194.667 128.193ZM28.0337 147.432L61.3667 166.671V128.193L28.0337 147.432ZM128 205.148L161.333 224.387L194.666 205.148L161.333 185.909L194.666 166.67L161.333 147.432L128 166.671L94.6667 147.432L61.3337 166.671L94.6667 185.91L61.3337 205.149L94.6667 224.387L128 205.148Z" fill="#15244A"/>
<path d="M194.632 166.671V205.149L161.299 185.91L194.632 166.671ZM128 166.671V128.193L94.667 108.955V147.432L128 166.671ZM94.667 32V70.4777L128 51.2388L94.667 32ZM161.333 147.432L194.666 166.671V128.193L228 147.432V108.955L194.667 89.7157V51.238L161.333 32V70.4777L128 51.2388V89.7165L161.333 108.955V147.432Z" fill="url(#paint0_linear_364_141)"/>
<path d="M128 166.671V128.193L161.333 108.955V147.432L128 166.671ZM128 51.2388L161.333 70.4777V32L128 51.2388ZM94.6669 108.955L128 89.7157V51.2388L94.6669 70.4769V32L61.3339 51.2388V89.7165L28 108.955V147.432L61.333 128.193V166.671L94.6661 147.432L94.6669 108.955ZM61.3678 166.671V205.149L94.7008 185.91L61.3678 166.671Z" fill="url(#paint1_linear_364_141)"/>
</g>
<defs>
<linearGradient id="paint0_linear_364_141" x1="77.1139" y1="60.6607" x2="212.396" y2="138.333" gradientUnits="userSpaceOnUse">
<stop stop-color="#1C68EC"/>
<stop offset="1" stop-color="#00E9DF"/>
</linearGradient>
<linearGradient id="paint1_linear_364_141" x1="32.8552" y1="73.3159" x2="160.424" y2="146.869" gradientUnits="userSpaceOnUse">
<stop stop-color="#FF3C2A"/>
<stop offset="1" stop-color="#FFD215"/>
</linearGradient>
<clipPath id="clip0_364_141">
<rect width="256" height="256" fill="white"/>
</clipPath>
</defs>
</svg>
