<svg width="256" height="256" viewBox="0 0 256 256" fill="none" xmlns="http://www.w3.org/2000/svg">
<g clip-path="url(#clip0_364_153)">
<rect width="256" height="256" rx="60" fill="white"/>
<path d="M224.628 144.088L191.856 125.245V162.931L162.458 146.027V108.341L129.686 89.4981V55.6904L162.457 74.5333L162.458 36.8474L191.856 53.7513V91.4372L224.628 110.28V144.088ZM191.856 200.617L164.144 184.682L191.856 168.748V200.617ZM64.1436 168.748L91.8564 184.683L64.1436 200.617V168.748ZM31.3724 144.088V110.28L64.1436 91.4372V53.7513L93.5423 36.8474L93.543 74.5333L126.313 55.6904V89.4981L93.5423 108.341V146.027L64.1436 162.931V125.245L31.3724 144.088ZM124.628 52.7814L96.9154 68.716L96.9148 36.8474L124.628 52.7814ZM159.085 146.027L129.686 162.931V129.123L159.085 112.219V146.027ZM126.313 129.123V162.931L96.9148 146.027V112.219L126.313 129.123ZM159.085 36.8474L159.085 68.716L131.372 52.7814L159.085 36.8474ZM195.229 89.4981V51.8122L160.771 32L128 50.8429L95.2289 32L60.7712 51.8122V89.4981L28 108.341V147.966L60.7712 166.809V204.495L95.2289 224.308L128 205.465L160.771 224.308L195.229 204.495V166.809L228 147.966V108.341L195.229 89.4981Z" fill="#15244A"/>
</g>
<defs>
<clipPath id="clip0_364_153">
<rect width="256" height="256" fill="white"/>
</clipPath>
</defs>
</svg>
