<svg width="256" height="256" viewBox="0 0 256 256" fill="none" xmlns="http://www.w3.org/2000/svg">
<g clip-path="url(#clip0_364_147)">
<rect width="256" height="256" rx="60" fill="#242938"/>
<path d="M224.628 144.088L191.856 125.246V162.931L162.458 146.028V108.342L129.686 89.4987V55.691L162.457 74.534L162.458 36.8481L191.856 53.7519V91.4378L224.628 110.281V144.088ZM195.229 162.931V131.063L222.942 146.997L195.229 162.931ZM191.856 200.617L164.144 184.683L191.856 168.748V200.617ZM160.771 220.43L128 201.587L95.2289 220.43L65.8301 203.526L98.6013 184.683L65.8301 165.84L95.2282 148.936L128 167.779L160.771 148.936L190.171 165.84L157.399 184.683L190.17 203.526L160.771 220.43ZM33.0583 146.997L60.7712 131.063V162.931L33.0583 146.997ZM124.628 52.7821L96.9148 68.7167V36.8481L124.628 52.7821ZM96.9148 112.22L126.313 129.124V162.931L96.9148 146.028V112.22ZM157.399 109.311L128 126.215L98.6013 109.311L128 92.4071L157.399 109.311ZM195.229 89.4987V51.8128L160.771 32L128 50.8429L95.2289 32.0006L60.7712 51.8128V89.4987L28 108.342V147.967L60.7712 166.81V204.496L95.2289 224.308L128 205.465L160.771 224.308L195.229 204.495V166.81L228 147.967V108.342L195.229 89.4987Z" fill="white"/>
</g>
<defs>
<clipPath id="clip0_364_147">
<rect width="256" height="256" fill="white"/>
</clipPath>
</defs>
</svg>
