<svg width="256" height="256" viewBox="0 0 256 256" fill="none" xmlns="http://www.w3.org/2000/svg">
<g clip-path="url(#clip0_381_626)">
<rect width="256" height="256" rx="60" fill="#242938"/>
<path d="M226.357 142.171C226.357 138.896 229.026 136.35 232.179 136.35C235.453 136.35 238 139.018 238 142.171C238 145.324 235.332 147.992 232.179 147.992C229.026 147.992 226.357 145.446 226.357 142.171Z" fill="#86BC25"/>
<path d="M51.473 126.526C51.473 133.318 49.7751 138.412 46.1367 142.05C42.4984 145.688 37.4047 147.508 30.8556 147.508H18V107.122H31.5833C38.011 107.122 42.8622 108.698 46.258 112.094C49.7751 115.369 51.473 120.22 51.473 126.526ZM40.3154 126.89C40.3154 123.13 39.5877 120.462 38.1323 118.643C36.7983 116.945 34.494 115.975 31.5833 115.975H28.6726V138.533H31.0981C34.3727 138.533 36.677 137.563 38.2536 135.622C39.5877 133.682 40.3154 130.771 40.3154 126.89Z" fill="white"/>
<path d="M96.8318 107H86.7656V147.507H96.8318V107Z" fill="white"/>
<path d="M130.062 132.347C130.062 137.199 128.849 141.08 126.181 143.869C123.513 146.658 119.874 147.992 115.266 147.992C110.778 147.992 107.261 146.658 104.593 143.748C101.925 140.837 100.591 137.077 100.591 132.347C100.591 127.496 101.804 123.615 104.472 120.947C107.14 118.158 110.778 116.824 115.387 116.824C118.298 116.824 120.844 117.43 123.027 118.643C125.332 119.856 126.908 121.675 128.121 123.979C129.577 126.526 130.062 129.194 130.062 132.347ZM111.021 132.347C111.021 135.016 111.385 136.835 111.991 138.169C112.597 139.503 113.689 140.109 115.387 140.109C117.085 140.109 118.055 139.503 118.783 138.169C119.389 136.835 119.753 134.773 119.753 132.347C119.753 129.679 119.389 127.86 118.783 126.526C118.176 125.313 117.085 124.586 115.387 124.586C113.932 124.586 112.719 125.192 111.991 126.526C111.385 127.86 111.021 129.679 111.021 132.347Z" fill="white"/>
<path d="M144.252 117.309H134.186V147.386H144.252V117.309Z" fill="white"/>
<path d="M144.252 107H134.186V113.792H144.252V107Z" fill="white"/>
<path d="M164.747 139.745C166.081 139.745 167.779 139.381 169.598 138.775V146.415C168.264 147.022 166.93 147.386 165.717 147.628C164.505 147.871 163.049 147.992 161.351 147.992C157.955 147.992 155.53 147.143 153.953 145.324C152.498 143.626 151.649 140.958 151.649 137.441V125.07H148.132V117.309H151.649V109.789L161.836 108.091V117.551H168.385V125.192H161.836V136.834C162.079 138.896 162.928 139.745 164.747 139.745Z" fill="white"/>
<path d="M188.276 139.745C189.61 139.745 191.308 139.381 193.128 138.775V146.415C191.793 147.022 190.459 147.386 189.247 147.628C188.034 147.871 186.578 147.992 184.881 147.992C181.485 147.992 179.059 147.143 177.483 145.324C176.027 143.626 175.178 140.958 175.178 137.441V125.07H171.661V117.309H175.178V109.668L185.366 108.091V117.551H191.915V125.192H185.366V136.834C185.487 138.896 186.457 139.745 188.276 139.745Z" fill="white"/>
<path d="M220.294 120.341C217.868 117.915 214.472 116.824 210.106 116.824C205.498 116.824 201.859 118.158 199.312 120.947C196.766 123.737 195.553 127.618 195.553 132.711C195.553 137.562 196.887 141.443 199.555 144.112C202.344 146.78 206.104 148.114 210.955 148.114C213.381 148.114 215.321 147.992 217.019 147.629C218.596 147.265 220.415 146.78 221.87 145.931L220.415 139.139C219.323 139.624 218.111 139.988 217.14 140.231C215.685 140.594 213.987 140.716 212.289 140.716C210.349 140.716 208.772 140.231 207.681 139.382C206.589 138.411 205.983 137.077 205.983 135.379H224.053V130.65C223.932 126.162 222.598 122.766 220.294 120.341ZM205.983 128.709C206.104 127.132 206.589 125.798 207.317 125.071C208.044 124.343 209.015 123.979 210.349 123.979C211.562 123.979 212.774 124.343 213.502 125.192C214.23 126.041 214.594 127.132 214.715 128.709H205.983Z" fill="white"/>
<path d="M79.2458 120.341C76.699 117.915 73.4244 116.824 69.0584 116.824C64.4498 116.824 60.8114 118.158 58.2645 120.947C55.7177 123.737 54.5049 127.618 54.5049 132.711C54.5049 137.562 55.839 141.443 58.5071 144.112C61.2965 146.78 65.0562 148.114 69.9073 148.114C72.3329 148.114 74.2734 147.992 75.9713 147.629C77.5479 147.265 79.3671 146.78 80.8224 145.931L79.3671 139.018C78.2756 139.503 77.0628 139.867 76.0926 140.109C74.6372 140.473 72.9393 140.594 71.2414 140.594C69.3009 140.594 67.7243 140.109 66.6328 139.26C65.5413 138.29 64.9349 136.956 64.9349 135.258H83.0055V130.65C82.8842 126.162 81.5501 122.766 79.2458 120.341ZM64.8136 128.709C64.9349 127.132 65.42 125.798 66.1477 125.071C66.8753 124.343 67.8456 123.979 69.1797 123.979C70.5137 123.979 71.6052 124.343 72.3329 125.192C73.0606 126.041 73.4244 127.132 73.5457 128.709H64.8136Z" fill="white"/>
</g>
<defs>
<clipPath id="clip0_381_626">
<rect width="256" height="256" fill="white"/>
</clipPath>
</defs>
</svg>
