<svg width="256" height="256" viewBox="0 0 256 256" fill="none" xmlns="http://www.w3.org/2000/svg">
<g clip-path="url(#clip0_248_739)">
<path d="M196 0H60C26.8629 0 0 26.8629 0 60V196C0 229.137 26.8629 256 60 256H196C229.137 256 256 229.137 256 196V60C256 26.8629 229.137 0 196 0Z" fill="#F4F2ED"/>
<path d="M118.032 26.6558C117.554 26.7038 116.032 26.8818 114.656 27.0078C95.1019 29.0538 75.8439 37.3358 60.1399 50.4838C57.2419 52.8898 50.6399 59.4918 48.2339 62.3898C35.2339 77.9218 27.6339 95.3498 24.8279 115.976C24.2039 120.556 24.2039 136.008 24.8279 140.586C27.6319 161.21 35.2339 178.64 48.2339 194.172C50.6399 197.072 57.2419 203.672 60.1399 206.078C75.6719 219.078 93.0999 226.678 113.726 229.484C118.306 230.11 133.758 230.11 138.336 229.484C158.96 226.68 176.39 219.078 191.922 206.078C194.822 203.672 201.422 197.07 203.828 194.172C216.828 178.64 224.428 161.212 227.228 140.586C227.86 136.006 227.86 120.554 227.228 115.976C224.428 95.3518 216.828 77.9218 203.828 62.3898C201.422 59.4918 194.82 52.8898 191.922 50.4838C176.446 37.5318 158.836 29.8358 138.484 27.1098C136.282 26.8038 133.086 26.6798 127.156 26.6318C122.632 26.5778 118.5 26.6098 118.032 26.6558ZM119.282 37.4598C119.282 40.3818 119.476 46.7338 119.758 52.7658C119.906 55.7098 120.078 59.9378 120.158 62.1398C120.43 69.9458 121.258 90.4198 121.382 92.2498L121.508 94.0698L120.382 93.9458C119.758 93.8978 119.18 93.7498 119.078 93.6718C119.008 93.5718 118.828 91.8438 118.726 89.8198C118.282 80.9198 116.806 46.3818 116.656 41.3358L116.5 35.7818L117.204 35.6878C117.578 35.6318 118.204 35.5618 118.602 35.5318L119.282 35.5078V37.4598ZM143.21 36.8598C143.234 36.8818 143.312 44.4378 143.382 53.6398C143.484 62.8678 143.61 71.1398 143.688 72.0398C143.758 72.9678 143.734 73.7658 143.608 73.8198C143.508 73.8898 142.882 73.8898 142.258 73.8198L141.11 73.7198L140.938 66.4378C140.857 63.1302 140.763 59.8228 140.658 56.5158C140.46 52.0858 140.282 37.0618 140.438 36.6878C140.532 36.4078 140.812 36.3818 141.858 36.5618C142.586 36.7098 143.188 36.8358 143.21 36.8598ZM85.3679 45.2338C85.5239 45.4598 86.6959 59.2418 88.1479 77.2658C88.6259 83.3978 89.0939 88.9998 89.1719 89.6958C89.2959 90.9678 89.2719 91.0238 88.4679 91.5238C88.0239 91.7958 87.5699 92.0238 87.4679 92.0238C87.3979 92.0238 87.2499 91.3738 87.1719 90.5698C86.8199 87.3198 85.4679 71.6178 84.5239 60.2658C83.9679 53.5858 83.4679 47.6098 83.3979 46.9598C83.2739 45.8598 83.2979 45.7578 83.9459 45.4138C84.7419 44.9838 85.1959 44.9138 85.3659 45.2338H85.3679ZM154.21 50.2658C154.914 50.5158 154.984 50.6398 155.14 52.0618C155.39 54.5618 155.312 66.5158 155.04 66.5158C154.312 66.5158 152.812 65.6638 152.688 65.1878C152.608 64.8898 152.54 61.3438 152.54 57.3118C152.54 49.1878 152.438 49.6638 154.21 50.2658ZM108.024 51.4378C108.024 52.1098 108.204 55.8358 108.398 59.7658C108.602 63.6858 108.828 68.6638 108.93 70.8198C109.102 75.1718 109.15 75.0158 107.476 75.1178C106.648 75.1398 106.648 75.1398 106.602 73.8898C106.554 73.1958 106.43 71.0158 106.274 69.0158C106.148 67.0158 105.852 62.6878 105.648 59.3898C105.512 56.9606 105.338 54.5336 105.126 52.1098C104.976 50.8598 105 50.8118 105.672 50.5618C106.078 50.4138 106.772 50.2898 107.226 50.2898C108.024 50.2658 108.024 50.2658 108.024 51.4378ZM177.39 54.8678L178.242 55.2098L178.422 58.5618C178.492 60.3898 178.546 64.3418 178.492 67.3218L178.422 72.7658L177.368 72.2418L176.32 71.7418L176.242 63.4378C176.196 58.8678 176.218 54.9918 176.266 54.8118C176.366 54.4378 176.366 54.4378 177.39 54.8678ZM131.734 58.1398C131.882 58.2898 132.234 70.4138 132.258 76.5698L132.282 80.2738L131.11 80.0938C130.43 80.0138 129.882 79.9458 129.86 79.9218C129.78 79.8678 129.032 61.3418 129.032 59.5398V57.6878L130.304 57.8358C131.032 57.9358 131.656 58.0618 131.734 58.1398ZM189.32 59.9138C189.626 60.2658 189.672 65.7418 189.75 95.9458C189.82 130.632 189.82 131.532 189.374 131.532C189.055 131.512 188.748 131.398 188.494 131.204C188.118 130.93 188.07 127.906 187.946 98.2738C187.844 80.3198 187.718 64.0138 187.648 62.0398L187.492 58.4378L188.218 58.9598C188.648 59.2658 189.126 59.6878 189.32 59.9138ZM166.89 65.0398C167.016 65.1398 167.14 66.5618 167.164 68.1958C167.29 73.7178 167.312 107.602 167.188 107.704C167.14 107.75 166.688 107.624 166.188 107.43L165.288 107.054V64.5138L165.992 64.6638C166.368 64.7638 166.766 64.9138 166.892 65.0398H166.89ZM97.8759 66.4378C97.9459 67.1178 98.0699 68.6398 98.1479 69.8898C98.2279 71.1178 98.3979 73.9218 98.5479 76.0938C98.8519 80.4938 98.7959 80.7738 97.3739 80.7738C96.6259 80.7738 96.5239 80.6938 96.4219 79.9458C96.1719 78.4678 95.2959 66.1638 95.4219 65.9678C95.5459 65.7878 96.8519 65.3438 97.4459 65.2878C97.6019 65.2658 97.7959 65.7878 97.8759 66.4378ZM56.5159 72.8198C56.7899 75.4678 57.3359 81.0238 57.7419 85.1478C58.1639 89.2738 58.5159 92.7738 58.5159 92.9218C58.5159 93.2258 56.5859 94.1718 56.3899 93.9758C56.2659 93.8518 53.7659 71.7178 53.7659 70.7178C53.7659 70.1178 55.6859 67.5938 55.9379 67.8678C56.0159 67.9138 56.2659 70.1398 56.5159 72.8198ZM154.562 75.4458L155.29 75.8658L155.312 81.2738C155.336 84.2178 155.392 87.5238 155.392 88.5938C155.438 90.8438 155.164 91.2178 153.812 90.7498L153.04 90.4698V88.3198C153.04 87.1258 152.96 83.6478 152.86 80.5698L152.71 75.0158H153.29C153.586 75.0158 154.164 75.2178 154.562 75.4458ZM67.4919 85.1478C67.9459 89.9458 68.6639 98.0478 69.1399 103.148L69.9919 112.408L69.0159 113.374L68.0699 114.352L67.8899 112.374C67.7899 111.274 67.2899 106.18 66.7659 101.024C66.2006 95.4914 65.6513 89.9574 65.1179 84.4218L64.4139 77.2178L65.3899 76.3198C66.2659 75.4918 66.3679 75.4678 66.5399 75.9198C66.6399 76.1718 67.0619 80.3198 67.4919 85.1478ZM48.7659 88.1718C49.3119 93.1018 50.7659 106.204 52.0159 117.282C53.2659 128.36 54.4359 139.032 54.6639 141.032C54.8679 143.032 55.2099 146.062 55.4139 147.79C55.7659 150.71 55.7659 150.914 55.3679 151.21C54.7659 151.664 54.5159 151.61 54.5159 151.086C54.5159 150.86 54.2899 148.96 54.0159 146.914C53.5619 143.484 52.8119 137.68 51.1399 124.656C50.6246 120.783 50.1246 116.909 49.6399 113.032C49.1399 109.25 48.4139 103.626 48.0079 100.524C47.6079 97.4218 46.9379 92.1238 46.5079 88.6958C46.0619 85.2958 45.7879 82.2738 45.8599 81.9458C46.0399 81.2738 47.5079 78.9218 47.6639 79.0698C47.7099 79.1398 48.2099 83.2178 48.7639 88.1698L48.7659 88.1718ZM41.1099 98.9458C41.4839 101.954 42.1879 107.43 42.6639 111.148C43.1319 114.852 43.7339 119.476 44.0079 121.408L44.4839 124.908L43.9599 125.36C43.6639 125.61 43.3599 125.704 43.2579 125.61C43.1639 125.508 42.9599 124.508 42.8119 123.406C42.1364 118.651 41.4438 113.898 40.7339 109.148L38.9599 96.8978L39.5319 95.1958C39.8359 94.2738 40.1559 93.5238 40.2339 93.5238C40.3359 93.5238 40.7099 95.9758 41.1099 98.9438V98.9458ZM178.39 95.6718C178.742 96.0238 178.796 97.5718 178.796 109.054V122.032H178.094C176.57 122.032 176.594 122.406 176.494 108.204L176.422 95.2738H177.218C177.64 95.2738 178.196 95.4458 178.39 95.6718ZM123.656 100.148C129.304 101 134.236 102.578 139.11 105.078C142.258 106.704 143.758 107.828 147.258 111.178C152.46 116.158 155.664 120.508 158.664 126.658C163.04 135.61 164.744 143.532 166.89 164.79C167.868 174.32 169.14 191.594 169.414 198.67C169.494 200.726 169.664 204.102 169.82 206.17C170.094 210.578 170.414 209.976 166.54 211.85C161.164 214.454 155.984 216.25 149.164 217.93C140.812 219.976 135.406 220.624 127.156 220.656L121.156 220.68L121.204 217.804C121.204 216.226 121.352 212.554 121.508 209.68C122.258 195.75 122.102 178.172 121.132 168.414C120.578 162.814 119.508 156.014 118.906 154.514C118.782 154.188 119.352 153.914 121.828 153.062C126.36 151.484 130.282 149.508 130.882 148.54C131.962 146.688 130.032 144.032 127.578 144.032C127.158 144.032 125.882 144.484 124.704 145.008C119.102 147.586 107.876 150.608 101.398 151.288C96.9219 151.766 89.9679 151.484 85.1479 150.608C82.5239 150.132 77.8199 148.36 73.8899 146.336C69.3679 143.984 66.5939 140.86 65.7659 137.156C65.3119 135.156 65.4379 131.156 66.0159 128.906C66.6399 126.43 68.3899 122.828 69.9919 120.726C77.1179 111.352 91.8199 103.226 106.898 100.376C111.704 99.4758 118.5 99.3758 123.658 100.148H123.656ZM200.796 100.922C201.696 101.296 201.796 101.398 201.796 102.25C201.852 109.078 201.696 124.68 201.57 125.33C201.546 125.554 200.25 125.578 199.696 125.382C199.352 125.258 199.296 123.906 199.296 112.874C199.296 104.976 199.398 100.524 199.546 100.524C199.672 100.524 200.25 100.704 200.796 100.922ZM211.726 114.656L212.626 115.032L212.454 135.734C212.25 162.118 212.226 162.89 211.274 165.164C209.726 168.89 209.804 169.64 209.954 153.29C210 145.11 210.124 136.836 210.18 134.906C210.226 132.986 210.274 127.554 210.304 122.828C210.304 117.124 210.374 114.282 210.554 114.282C210.704 114.282 211.226 114.454 211.726 114.656ZM61.3439 120.882C61.4919 122.906 61.4379 123.102 60.7099 124.702L59.9139 126.406L59.6179 123.906C59.1399 119.906 59.1399 119.726 60.0859 119.132C60.5159 118.828 60.9679 118.632 61.0399 118.68C61.1179 118.726 61.2659 119.726 61.3439 120.882ZM45.8839 135.962C46.1099 138.008 47.8599 151.61 48.7639 158.29C50.1099 168.618 50.2099 170.094 49.6099 169.47C49.5399 169.39 48.9599 165.914 48.3599 161.742C44.4599 134.782 44.4839 134.962 44.8119 134.758C45.4839 134.304 45.7119 134.554 45.8819 135.96L45.8839 135.962ZM63.8899 147.414C64.0399 148.04 64.7659 154.814 64.7659 155.64C64.7659 156.336 63.8659 156.992 63.4679 156.586C63.3439 156.46 63.0159 154.336 62.7659 151.89C62.4919 149.414 62.2179 146.836 62.1399 146.164L61.9919 144.914L62.8679 145.914C63.3679 146.46 63.8119 147.134 63.8899 147.414ZM84.0699 156.836C84.3439 157.086 84.5239 158.086 84.7419 160.79C85.1179 165.664 85.1719 165.29 84.1479 165.29C83.0939 165.29 83.1179 165.368 82.7739 160.96C82.4219 156.484 82.4219 156.54 83.0939 156.54C83.4219 156.54 83.8439 156.688 84.0699 156.836ZM103.876 157.21C103.922 157.46 104.046 158.96 104.148 160.54C104.228 162.118 104.454 165.664 104.648 168.414C105.352 178.514 105.376 179.796 104.954 179.796C104.476 179.796 104.422 179.422 103.874 172.29C103.631 168.844 103.355 165.401 103.046 161.96C102.828 159.242 102.672 156.96 102.75 156.914C103.024 156.61 103.75 156.836 103.876 157.21ZM56.8679 162.016C57.0159 162.242 57.9599 170.242 59.1399 181.172C59.4919 184.468 59.8359 187.648 59.9139 188.242L60.0399 189.322L59.4139 188.922C58.9379 188.594 58.7659 188.274 58.7659 187.696C58.7659 186.116 57.6859 175.742 56.8659 169.39C56.3899 165.79 56.0159 162.618 56.0159 162.312C56.0159 161.79 56.6159 161.586 56.8679 162.016ZM201.172 172.468L201 182.922L200.374 183.842C198.946 185.946 199.024 186.342 199.102 174.642L199.148 163.914L200.07 162.96C200.57 162.46 201.07 162.04 201.17 162.04C201.25 162.04 201.25 166.742 201.17 172.468H201.172ZM178.046 189.048C178.172 203.578 178.14 204.704 177.742 205.148C177.492 205.422 177.266 205.602 177.196 205.524C177.016 205.328 176.766 173.64 176.968 173.468C177.07 173.368 177.32 173.32 177.548 173.344C177.868 173.414 177.946 175.196 178.048 189.046L178.046 189.048ZM96.3759 179.094C96.5459 180.64 97.1719 188.07 97.4219 191.57C97.5699 193.922 97.5699 194 97.0219 194.17C96.7259 194.274 96.3739 194.25 96.2739 194.126C96.1019 193.946 95.5459 188.398 94.8739 179.844L94.6939 177.796H95.4759C96.1959 177.796 96.2499 177.844 96.3759 179.094ZM76.7179 187.844C76.8899 188.024 77.0159 188.648 77.0159 189.274C77.0159 189.922 77.3199 193.296 77.6399 196.796C78.5939 206.376 78.6719 207.672 78.2419 207.422C77.5939 207.046 77.0159 206.476 77.1419 206.328C77.1959 206.228 77.0939 204.976 76.8899 203.548C76.688 201.801 76.5213 200.05 76.3899 198.296C76.2959 196.852 76.0699 194.196 75.8679 192.422C75.3899 188.046 75.4219 187.546 75.9679 187.546C76.2451 187.554 76.5107 187.66 76.7179 187.844ZM88.5459 204.672C88.6259 205.226 88.7739 207.272 88.8739 209.226C89.0459 212.976 88.9679 213.25 87.9459 212.476C87.6479 212.25 87.4459 211.304 87.1479 208.454C86.6259 203.296 86.5939 203.5 87.5699 203.602C88.2959 203.672 88.3979 203.774 88.5459 204.672Z" fill="black"/>
<path d="M79.618 112.127C77.016 113.251 76.82 116.783 79.266 118.033C81.046 118.931 82.844 118.501 83.774 116.953C85.524 114.103 82.672 110.805 79.618 112.127ZM96.57 114.533C94.17 116.001 94.17 119.555 96.57 121.033C98.946 122.453 102.024 120.579 102.024 117.727C102.024 114.977 98.874 113.127 96.57 114.533Z" fill="black"/>
</g>
<defs>
<clipPath id="clip0_248_739">
<rect width="256" height="256" fill="white"/>
</clipPath>
</defs>
</svg>
