<svg width="256" height="256" viewBox="0 0 256 256" fill="none" xmlns="http://www.w3.org/2000/svg">
<g clip-path="url(#clip0_248_6400)">
<path d="M196 0H60C26.8629 0 0 26.8629 0 60V196C0 229.137 26.8629 256 60 256H196C229.137 256 256 229.137 256 196V60C256 26.8629 229.137 0 196 0Z" fill="black"/>
<path fill-rule="evenodd" clip-rule="evenodd" d="M84.1474 149.182C84.1474 160.351 77.2682 177.271 55.493 177.236H28V79H56.0737C77.0727 79 84.1356 95.897 84.1415 107.071L84.1474 149.182ZM57.0514 97.3813C59.3504 97.3813 61.6553 98.2426 63.9543 99.9639C66.2473 101.685 67.4027 104.274 67.4086 107.718V149.07C67.4086 152.519 66.2591 155.102 63.9602 156.824C61.6612 158.545 59.3563 159.407 57.0573 159.407H46.7178V97.3813H57.0514Z" fill="white"/>
<path d="M143.802 96.5434H112.233V119.353H131.531V136.91H112.233V159.714H143.808V177.27H106.965C100.353 177.443 94.854 172.206 94.6881 165.581V91.301C94.5281 84.6811 99.7604 79.1833 106.367 79.0171H143.808L143.802 96.5434Z" fill="white"/>
<path d="M205.212 164.993C197.39 183.25 183.377 179.616 177.103 164.993L154.272 79.0234H173.57L191.175 146.541L208.695 79.0234H228L205.212 164.993Z" fill="white"/>
</g>
<defs>
<clipPath id="clip0_248_6400">
<rect width="256" height="256" fill="white"/>
</clipPath>
</defs>
</svg>
