<svg width="256" height="256" viewBox="0 0 256 256" fill="none" xmlns="http://www.w3.org/2000/svg">
<g clip-path="url(#clip0_248_3053)">
<rect width="256" height="256" rx="60" fill="white"/>
<path d="M228 160.481V165.764H204.128V160.481H228Z" fill="#E94D5F"/>
<path d="M201.922 148.044C201.922 154.463 196.706 159.612 190.354 159.612C184.001 159.612 178.786 154.396 178.786 148.044C178.786 141.691 184.001 136.476 190.354 136.476C196.706 136.476 201.922 141.625 201.922 148.044Z" fill="#E94D5F"/>
<path d="M167.151 152.457C174.239 146.907 178.786 138.348 178.786 128.652C178.786 118.957 174.239 110.398 167.151 104.848C162.002 100.836 155.583 98.4283 148.562 98.4283C131.845 98.4283 118.338 111.936 118.338 128.652C118.338 145.369 131.845 158.876 148.562 158.876C155.583 158.876 162.002 156.469 167.151 152.457Z" fill="url(#paint0_linear_248_3053)"/>
<path d="M88.3143 126.579V89.2005C79.9559 89.2005 72.6673 93.6137 68.5884 100.234C65.3788 99.03 61.8348 98.3613 58.224 98.3613C41.5072 98.3613 28 111.869 28 128.585C28 145.302 41.5072 158.809 58.224 158.809C65.2451 158.809 71.6643 156.402 76.8131 152.39C83.901 146.84 88.448 138.281 88.448 128.585C88.3811 127.917 88.3811 127.248 88.3143 126.579Z" fill="url(#paint1_linear_248_3053)"/>
<path d="M103.159 112.47C96.8065 112.47 91.6577 117.619 91.6577 123.972V158.809C104.429 158.809 114.861 148.445 114.861 135.607V124.172C114.794 117.753 109.578 112.47 103.159 112.47Z" fill="url(#paint2_linear_248_3053)"/>
<path d="M103.226 112.403C109.615 112.403 114.794 107.224 114.794 100.835C114.794 94.4466 109.615 89.2674 103.226 89.2674C96.8369 89.2674 91.6577 94.4466 91.6577 100.835C91.6577 107.224 96.8369 112.403 103.226 112.403Z" fill="url(#paint3_linear_248_3053)"/>
<path d="M103.226 112.604C96.7395 112.604 91.3901 107.322 91.3901 100.769C91.3901 94.2156 96.7395 89 103.226 89C109.712 89 115.061 94.2825 115.061 100.836C115.061 107.388 109.779 112.604 103.226 112.604ZM103.226 89.4681C96.9401 89.4681 91.8582 94.55 91.8582 100.836C91.8582 107.121 96.9401 112.203 103.226 112.203C109.511 112.203 114.593 107.121 114.593 100.836C114.593 94.55 109.511 89.4681 103.226 89.4681Z" fill="url(#paint4_linear_248_3053)"/>
</g>
<defs>
<linearGradient id="paint0_linear_248_3053" x1="118.338" y1="128.634" x2="178.758" y2="128.634" gradientUnits="userSpaceOnUse">
<stop stop-color="#56509A"/>
<stop offset="1" stop-color="#E94D5F"/>
</linearGradient>
<linearGradient id="paint1_linear_248_3053" x1="27.9556" y1="124.037" x2="88.3749" y2="124.037" gradientUnits="userSpaceOnUse">
<stop stop-color="#2EAAE1"/>
<stop offset="1" stop-color="#4A63A9"/>
</linearGradient>
<linearGradient id="paint2_linear_248_3053" x1="91.649" y1="135.671" x2="114.822" y2="135.671" gradientUnits="userSpaceOnUse">
<stop stop-color="#4A63A9"/>
<stop offset="1" stop-color="#56509A"/>
</linearGradient>
<linearGradient id="paint3_linear_248_3053" x1="91.649" y1="100.817" x2="114.822" y2="100.817" gradientUnits="userSpaceOnUse">
<stop stop-color="#4A63A9"/>
<stop offset="1" stop-color="#56509A"/>
</linearGradient>
<linearGradient id="paint4_linear_248_3053" x1="91.4218" y1="100.817" x2="115.049" y2="100.817" gradientUnits="userSpaceOnUse">
<stop stop-color="#4A63A9"/>
<stop offset="1" stop-color="#56509A"/>
</linearGradient>
<clipPath id="clip0_248_3053">
<rect width="256" height="256" fill="white"/>
</clipPath>
</defs>
</svg>
