<svg width="256" height="256" viewBox="0 0 256 256" fill="none" xmlns="http://www.w3.org/2000/svg">
<g clip-path="url(#clip0_248_3033)">
<path d="M196 0H60C26.8629 0 0 26.8629 0 60V196C0 229.137 26.8629 256 60 256H196C229.137 256 256 229.137 256 196V60C256 26.8629 229.137 0 196 0Z" fill="black"/>
<path d="M228 161.481V166.764H204.128V161.481H228Z" fill="#E94D5F"/>
<path d="M201.922 149.044C201.922 155.463 196.706 160.612 190.354 160.612C184.001 160.612 178.786 155.396 178.786 149.044C178.786 142.691 184.001 137.476 190.354 137.476C196.706 137.476 201.922 142.624 201.922 149.044Z" fill="#E94D5F"/>
<path d="M167.151 153.457C174.239 147.907 178.786 139.348 178.786 129.652C178.786 119.957 174.239 111.398 167.151 105.848C162.002 101.836 155.583 99.4283 148.562 99.4283C131.845 99.4283 118.338 112.936 118.338 129.652C118.338 146.369 131.845 159.876 148.562 159.876C155.583 159.876 162.002 157.469 167.151 153.457Z" fill="url(#paint0_linear_248_3033)"/>
<path d="M88.3143 127.579V90.2004C79.9559 90.2004 72.6673 94.6137 68.5884 101.234C65.3788 100.03 61.8348 99.3613 58.224 99.3613C41.5072 99.3613 28 112.868 28 129.585C28 146.302 41.5072 159.809 58.224 159.809C65.2451 159.809 71.6643 157.402 76.8131 153.39C83.901 147.84 88.448 139.281 88.448 129.585C88.3811 128.917 88.3811 128.248 88.3143 127.579Z" fill="url(#paint1_linear_248_3033)"/>
<path d="M103.159 113.47C96.8065 113.47 91.6577 118.619 91.6577 124.972V159.809C104.429 159.809 114.861 149.445 114.861 136.607V125.172C114.794 118.753 109.578 113.47 103.159 113.47Z" fill="url(#paint2_linear_248_3033)"/>
<path d="M103.226 113.404C109.615 113.404 114.794 108.224 114.794 101.835C114.794 95.4466 109.615 90.2675 103.226 90.2675C96.8369 90.2675 91.6577 95.4466 91.6577 101.835C91.6577 108.224 96.8369 113.404 103.226 113.404Z" fill="url(#paint3_linear_248_3033)"/>
<path d="M103.226 113.604C96.7395 113.604 91.3901 108.322 91.3901 101.769C91.3901 95.2156 96.7395 90 103.226 90C109.712 90 115.061 95.2825 115.061 101.836C115.061 108.388 109.779 113.604 103.226 113.604ZM103.226 90.4681C96.9401 90.4681 91.8582 95.55 91.8582 101.836C91.8582 108.121 96.9401 113.203 103.226 113.203C109.511 113.203 114.593 108.121 114.593 101.836C114.593 95.55 109.511 90.4681 103.226 90.4681Z" fill="url(#paint4_linear_248_3033)"/>
</g>
<defs>
<linearGradient id="paint0_linear_248_3033" x1="118.338" y1="129.634" x2="178.758" y2="129.634" gradientUnits="userSpaceOnUse">
<stop stop-color="#56509A"/>
<stop offset="1" stop-color="#E94D5F"/>
</linearGradient>
<linearGradient id="paint1_linear_248_3033" x1="27.9556" y1="125.037" x2="88.3749" y2="125.037" gradientUnits="userSpaceOnUse">
<stop stop-color="#2EAAE1"/>
<stop offset="1" stop-color="#4A63A9"/>
</linearGradient>
<linearGradient id="paint2_linear_248_3033" x1="91.649" y1="136.671" x2="114.822" y2="136.671" gradientUnits="userSpaceOnUse">
<stop stop-color="#4A63A9"/>
<stop offset="1" stop-color="#56509A"/>
</linearGradient>
<linearGradient id="paint3_linear_248_3033" x1="91.649" y1="101.817" x2="114.822" y2="101.817" gradientUnits="userSpaceOnUse">
<stop stop-color="#4A63A9"/>
<stop offset="1" stop-color="#56509A"/>
</linearGradient>
<linearGradient id="paint4_linear_248_3033" x1="91.4218" y1="101.817" x2="115.049" y2="101.817" gradientUnits="userSpaceOnUse">
<stop stop-color="#4A63A9"/>
<stop offset="1" stop-color="#56509A"/>
</linearGradient>
<clipPath id="clip0_248_3033">
<rect width="256" height="256" fill="white"/>
</clipPath>
</defs>
</svg>
