<svg width="256" height="256" viewBox="0 0 256 256" fill="none" xmlns="http://www.w3.org/2000/svg">
<g clip-path="url(#clip0_248_765)">
<rect width="256" height="256" rx="60" fill="#242938"/>
<path d="M82.5938 161.191C81.1157 161.821 79.047 162.673 77.3798 163.198C73.8485 164.31 71.0157 164.76 68.1125 165.201C71.6032 176.394 85.2782 187.384 101.226 186.346C116.258 186.346 126.666 178.936 132.203 168.187C116.5 167.965 93.6251 174.503 82.5938 161.191ZM226.086 163.037C220.596 163.691 216.673 162.587 207.677 165.475C185.897 174.445 164.342 166.837 157.48 165.349C155.227 165.115 154.193 161.818 149.57 167.273L147.316 169.93C157.96 180.405 172.55 186.415 187.659 186.415C208.003 186.415 221.758 176.59 226.328 163.245L226.086 163.037Z" fill="#B75CFF"/>
<path d="M227.24 145.56C215.278 137.252 212.886 143.258 206.888 149.742C207.442 151.161 207.742 152.773 207.742 154.649C207.742 163.405 200.705 169.072 188.173 169.072C177.7 169.072 166.886 163.922 158.819 156.368L149.569 167.273C162.093 167.837 174.772 171.071 187.453 170.571C201.331 170.021 219.665 165.627 226.086 163.039L226.33 163.246C227.441 159.981 228.006 156.555 228 153.105C228 150.376 227.735 147.871 227.24 145.56ZM136.888 145.741C130.109 140.571 123.612 142.331 117.382 149.637V150.887C117.382 160.785 109.385 168.808 99.519 168.808C96.4912 168.809 93.5133 168.039 90.8653 166.571C88.2174 165.103 85.9865 162.986 84.3827 160.418C84.3827 160.418 83.6031 160.761 82.5938 161.191C87.2625 167.076 93 170.118 104.386 170.571C113.659 170.938 122.932 169.313 132.207 168.188C135.305 162.179 136.888 155.129 136.888 147.737V145.741Z" fill="#5C6CFF"/>
<path d="M136.888 124.515C130.557 118.945 124.111 117.821 117.383 126.321V149.636C123.907 148.117 130.414 146.574 136.888 145.74V124.515ZM212.373 126.209C202.636 121.947 173.48 126.21 168.326 128.164C170.454 129.419 172.67 130.522 174.954 131.467L190.234 138.164C198.451 141.589 204.696 144.144 206.888 149.741C213.196 148.826 218.634 147.57 222.254 146.737L227.239 145.559C225.328 136.636 219.912 130.645 212.373 126.209Z" fill="#5CFF9D"/>
<path d="M152.32 103.018C152.833 115.399 160.001 123.228 168.362 128.179C174.743 129.438 181.124 130.53 187.507 130.53C196.414 130.53 205.312 128.409 212.381 126.213C210.113 124.893 207.762 123.723 205.341 122.713L190.234 116.359C182.772 113.318 175.758 110.609 173.304 105.102C158.251 97.4571 168.349 92.6341 152.323 103.02L152.32 103.018ZM136.888 104.518C131.162 100.568 124.703 101.752 117.381 108.095L117.383 126.334C123.883 125.683 130.386 124.817 136.888 124.515V104.518Z" fill="#FFDB5C"/>
<path d="M159.043 83.0144C154.747 88.1785 152.293 94.5644 152.293 101.592C152.293 102.073 152.304 102.549 152.323 103.018C159.283 102.949 166.284 103.721 173.304 105.103C172.678 103.673 172.363 102.124 172.381 100.563C172.381 92.3208 179.247 87.341 189.892 87.341C199.503 87.341 207.23 90.9473 214.267 96.9551L221.741 87.741C199.901 80.991 180.381 76.7458 159.047 83.0129L159.043 83.0144ZM136.888 87.427C128.831 80.352 122.647 85.5706 117.381 95.4425V108.096C123.884 107.088 130.384 105.616 136.888 104.518V87.427Z" fill="#F79454"/>
<path d="M117.381 70V95.4438C123.884 93.2484 130.384 90.0017 136.888 87.425V70H117.381ZM189.889 70C176.672 70 165.669 75.0548 159.046 83.0094C168.472 83.0453 177.961 84.95 187.451 86.0829C201.028 87.7048 214.558 87.7391 221.738 87.7391L224.569 84.25C215.812 75.4922 203.108 70 189.889 70Z" fill="#FF5C5C"/>
<path d="M28 70V155.941H60.5359C69.0641 155.941 75.5953 154.589 81.6609 151.53C81.65 151.319 81.65 151.103 81.65 150.889C81.65 140.991 89.65 132.971 99.5189 132.971C99.8111 132.971 100.1 132.976 100.389 132.992C103.484 126.691 104.733 120.442 104.733 112.233C104.733 103.763 103.139 96.3906 99.9456 90.0093C96.6312 83.7484 91.8422 78.8374 85.4609 75.275C79.0734 71.7171 71.3407 70 62.1312 70H28ZM48.625 88.414H61.0266C68.2719 88.414 73.7953 90.5031 77.4797 94.8C81.1624 99.0952 83.0031 104.987 83.0031 112.6C83.0031 120.334 81.0359 126.353 77.2312 130.772C73.4266 135.314 67.7781 137.523 60.2876 137.523H48.6266L48.625 88.414ZM99.57 139.602C98.0689 139.571 96.5758 139.841 95.1794 140.394C93.7831 140.947 92.5112 141.774 91.4383 142.825C90.3654 143.876 89.5131 145.131 88.9312 146.516C88.3493 147.901 88.0497 149.387 88.0497 150.89C88.0497 152.392 88.3493 153.879 88.9312 155.264C89.5131 156.649 90.3654 157.903 91.4383 158.954C92.5112 160.005 93.7831 160.832 95.1794 161.386C96.5758 161.94 98.0689 162.209 99.57 162.179C102.532 162.129 105.356 160.917 107.432 158.806C109.509 156.694 110.673 153.851 110.673 150.889C110.673 147.927 109.509 145.084 107.432 142.972C105.356 140.861 102.532 139.651 99.57 139.602Z" fill="#5865F2"/>
</g>
<defs>
<clipPath id="clip0_248_765">
<rect width="256" height="256" fill="white"/>
</clipPath>
</defs>
</svg>
