<svg width="256" height="256" viewBox="0 0 256 256" fill="none" xmlns="http://www.w3.org/2000/svg">
<g clip-path="url(#clip0_248_6425)">
<rect width="256" height="256" rx="60" fill="white"/>
<path d="M197.308 63.797C184.561 57.948 170.892 53.6387 156.599 51.1705C156.339 51.1229 156.079 51.2419 155.945 51.48C154.187 54.6068 152.239 58.686 150.876 61.8922C135.503 59.5908 120.21 59.5908 105.153 61.8922C103.789 58.6147 101.771 54.6068 100.005 51.48C99.8707 51.2499 99.6107 51.1309 99.3504 51.1705C85.0659 53.6308 71.3963 57.9401 58.6411 63.797C58.5307 63.8446 58.4361 63.924 58.3732 64.0271C32.4449 102.763 25.3421 140.547 28.8265 177.863C28.8423 178.046 28.9447 178.22 29.0867 178.331C46.1934 190.894 62.7642 198.521 79.0273 203.576C79.2876 203.655 79.5634 203.56 79.729 203.346C83.5761 198.092 87.0054 192.553 89.9456 186.728C90.1192 186.386 89.9535 185.982 89.5989 185.847C84.1594 183.783 78.98 181.268 73.9977 178.411C73.6037 178.181 73.5721 177.617 73.9347 177.347C74.9831 176.561 76.0318 175.744 77.033 174.919C77.2141 174.768 77.4665 174.736 77.6794 174.831C110.411 189.775 145.846 189.775 178.191 174.831C178.404 174.728 178.657 174.76 178.846 174.911C179.847 175.736 180.895 176.561 181.952 177.347C182.314 177.617 182.291 178.181 181.897 178.411C176.914 181.323 171.735 183.783 166.288 185.839C165.933 185.974 165.775 186.386 165.949 186.728C168.952 192.545 172.381 198.084 176.157 203.338C176.315 203.56 176.599 203.655 176.859 203.576C193.201 198.521 209.772 190.894 226.879 178.331C227.028 178.22 227.123 178.053 227.139 177.871C231.309 134.73 220.154 97.2558 197.568 64.035C197.513 63.924 197.419 63.8446 197.308 63.797ZM94.8335 155.142C84.9792 155.142 76.8594 146.095 76.8594 134.984C76.8594 123.873 84.8217 114.826 94.8335 114.826C104.924 114.826 112.965 123.953 112.807 134.984C112.807 146.095 104.845 155.142 94.8335 155.142ZM161.29 155.142C151.435 155.142 143.316 146.095 143.316 134.984C143.316 123.873 151.278 114.826 161.29 114.826C171.38 114.826 179.421 123.953 179.264 134.984C179.264 146.095 171.38 155.142 161.29 155.142Z" fill="#5865F2"/>
</g>
<defs>
<clipPath id="clip0_248_6425">
<rect width="256" height="256" fill="white"/>
</clipPath>
</defs>
</svg>
