<svg width="256" height="256" viewBox="0 0 256 256" fill="none" xmlns="http://www.w3.org/2000/svg">
<g clip-path="url(#clip0_248_3915)">
<path d="M196 0H60C26.8629 0 0 26.8629 0 60V196C0 229.137 26.8629 256 60 256H196C229.137 256 256 229.137 256 196V60C256 26.8629 229.137 0 196 0Z" fill="#092E20"/>
<path d="M112.452 49H141.884V185.234C126.786 188.101 115.701 189.248 103.661 189.248C67.7296 189.247 49 173.004 49 141.85C49 111.844 68.8774 92.3513 99.6469 92.3513C104.425 92.3513 108.055 92.7323 112.452 93.8789V49ZM112.452 117.576C109.012 116.431 106.145 116.048 102.515 116.048C87.607 116.048 79.006 125.222 79.006 141.275C79.006 156.949 87.2248 165.548 102.323 165.548C105.57 165.548 108.248 165.357 112.452 164.785V117.576Z" fill="white"/>
<path d="M188.707 94.4519V162.68C188.707 186.189 186.987 197.464 181.827 207.212C177.048 216.578 170.741 222.501 157.745 229L130.415 216.003C143.411 209.888 149.718 204.539 153.73 196.317C157.936 187.909 159.275 178.161 159.275 152.551V94.4519H188.707ZM159.275 49.1562H188.707V79.3534H159.275V49.1562Z" fill="white"/>
</g>
<defs>
<clipPath id="clip0_248_3915">
<rect width="256" height="256" fill="white"/>
</clipPath>
</defs>
</svg>
