<svg width="256" height="256" viewBox="0 0 256 256" fill="none" xmlns="http://www.w3.org/2000/svg">
<g clip-path="url(#clip0_170_1346)">
<path d="M196 0H60C26.8629 0 0 26.8629 0 60V196C0 229.137 26.8629 256 60 256H196C229.137 256 256 229.137 256 196V60C256 26.8629 229.137 0 196 0Z" fill="#242938"/>
<circle cx="128" cy="128" r="100" fill="#092E20"/>
<path d="M113.868 57H137V164.823C125.134 167.092 116.422 168 106.96 168C78.72 167.999 64 155.143 64 130.487C64 106.738 79.6222 91.3107 103.805 91.3107C107.56 91.3107 110.413 91.6122 113.868 92.5197V57ZM113.868 111.275C111.165 110.369 108.912 110.066 106.058 110.066C94.3422 110.066 87.5825 117.327 87.5825 130.032C87.5825 142.437 94.0418 149.243 105.908 149.243C108.46 149.243 110.564 149.092 113.868 148.639V111.275Z" fill="white"/>
<path d="M174 92.7642V146.635C174 165.197 172.643 174.1 168.571 181.797C164.8 189.192 159.822 193.869 149.567 199L128 188.738C138.256 183.91 143.233 179.686 146.399 173.194C149.718 166.555 150.775 158.859 150.775 138.638V92.7642H174ZM150.775 57H174V80.8429H150.775V57Z" fill="white"/>
</g>
<defs>
<clipPath id="clip0_170_1346">
<rect width="256" height="256" fill="white"/>
</clipPath>
</defs>
</svg>
