<svg width="256" height="256" viewBox="0 0 256 256" fill="none" xmlns="http://www.w3.org/2000/svg">
<g clip-path="url(#clip0_248_2322)">
<rect width="256" height="256" rx="60" fill="#242938"/>
<path fill-rule="evenodd" clip-rule="evenodd" d="M131.763 103.779H152.242V124.621H162.573C167.285 124.621 172.179 123.715 176.71 122.265C178.884 121.54 181.422 120.453 183.597 119.184C180.697 115.378 179.247 110.666 178.884 105.953C178.341 99.6101 179.609 91.2732 183.959 86.3797L186.134 83.8424L188.671 85.836C195.196 91.0919 200.452 98.1602 201.539 106.497C209.332 104.141 218.394 104.685 225.281 108.672L228 110.303L226.55 113.203C220.75 124.44 208.607 128.065 196.827 127.34C179.066 171.38 140.643 192.223 93.8837 192.223C69.779 192.223 47.668 183.161 34.9813 161.775L34.8001 161.412L32.9877 157.606C28.638 148.182 27.3693 137.851 28.2755 127.521L28.638 124.44H46.0368V103.779H66.5167V83.4799H107.295V63H131.763V103.779Z" fill="#3A4D54"/>
<path d="M198.096 111.572C199.546 100.879 191.571 92.5424 186.497 88.5552C180.878 95.0798 179.972 112.479 188.853 119.728C183.778 124.078 173.447 128.246 162.573 128.246H31.7191C30.6317 139.483 32.6253 149.814 37.1563 158.694L38.6062 161.413C39.5124 163.044 40.5998 164.494 41.6872 166.125C47.1244 166.488 52.0178 166.669 56.5488 166.488C65.4294 166.306 72.679 165.219 78.2974 163.407C79.2035 163.044 79.9285 163.588 80.291 164.313C80.6535 165.219 80.1097 165.944 79.3848 166.306C78.6598 166.488 77.9349 166.85 77.0287 167.031C72.679 168.3 67.9668 169.025 61.9859 169.387H60.8985C58.5424 169.569 56.0051 169.569 53.2865 169.569C50.3867 169.569 47.6681 169.569 44.4058 169.387C55.2801 181.712 72.3165 188.961 93.7026 188.961C139.012 188.961 177.435 168.844 194.29 123.897C206.433 125.165 218.032 122.084 223.288 111.754C215.132 106.86 204.258 108.491 198.096 111.572Z" fill="#00AADA"/>
<path d="M198.096 111.572C199.546 100.879 191.571 92.5424 186.497 88.5552C180.878 95.0798 179.972 112.479 188.853 119.728C183.778 124.078 173.447 128.246 162.573 128.246H39.3311C38.7874 145.464 45.1308 158.513 56.5488 166.306C65.4294 166.125 72.679 165.038 78.2974 163.225C79.2035 162.863 79.9285 163.407 80.291 164.132C80.6535 165.038 80.1097 165.763 79.3848 166.125C78.6598 166.306 77.9349 166.669 77.0287 166.85C72.679 168.119 67.6043 169.025 61.6234 169.387L61.4422 169.206C76.8475 177.181 99.1398 176.999 124.876 167.213C153.511 156.157 180.334 135.133 199.002 111.21C198.64 111.391 198.277 111.391 198.096 111.572Z" fill="#28B8EB"/>
<path d="M31.9004 141.838C32.6253 147.819 34.4377 153.438 37.1563 158.694L38.6062 161.412C39.5124 163.043 40.5998 164.493 41.6873 166.124C47.1244 166.487 52.0178 166.668 56.5488 166.487C65.4295 166.306 72.679 165.218 78.2974 163.406C79.2036 163.043 79.9285 163.587 80.291 164.312C80.6535 165.218 80.1098 165.943 79.3848 166.306C78.6599 166.487 77.9349 166.849 77.0287 167.03C72.679 168.299 67.6043 169.205 61.6235 169.568H60.8985C58.5424 169.749 56.0051 169.749 53.4677 169.749C50.5679 169.749 47.6681 169.749 44.5871 169.568C55.4614 181.892 72.679 189.142 94.0651 189.142C132.85 189.142 166.56 174.461 186.134 142.02H31.9004V141.838Z" fill="#028BB8"/>
<path d="M40.5996 141.838C42.9557 152.35 48.3929 160.687 56.5486 166.306C65.4292 166.124 72.6788 165.037 78.2972 163.224C79.2034 162.862 79.9283 163.406 80.2908 164.131C80.6533 165.037 80.1095 165.762 79.3846 166.124C78.6596 166.306 77.9347 166.668 77.0285 166.849C72.6788 168.118 67.6041 169.024 61.442 169.387C76.8473 177.361 99.1396 177.18 124.694 167.393C140.099 161.412 155.142 152.531 168.554 141.838H40.5996Z" fill="#019BC6"/>
<path fill-rule="evenodd" clip-rule="evenodd" d="M49.4805 107.223H67.2418V124.984H49.4805V107.223ZM50.9304 108.673H52.3803V123.353H50.9304V108.673ZM53.4677 108.673H54.9176V123.353H53.4677V108.673ZM56.1863 108.673H57.6362V123.353H56.1863V108.673ZM58.9049 108.673H60.3548V123.353H58.9049V108.673ZM61.6234 108.673H63.0733V123.353H61.6234V108.673ZM64.342 108.673H65.7919V123.353H64.342V108.673ZM69.7791 86.9243H87.5405V104.686H69.7791V86.9243ZM71.4103 88.3742H72.8602V103.055H71.4103V88.3742ZM73.9476 88.3742H75.3975V103.055H73.9476V88.3742ZM76.6662 88.3742H78.1161V103.055H76.6662V88.3742ZM79.3848 88.3742H80.8347V103.055H79.3848V88.3742ZM81.9221 88.3742H83.372V103.055H81.9221V88.3742ZM84.6407 88.3742H86.0906V103.055H84.6407V88.3742Z" fill="#00ACD3"/>
<path fill-rule="evenodd" clip-rule="evenodd" d="M69.7793 107.223H87.5406V124.984H69.7793V107.223ZM71.4104 108.673H72.8603V123.353H71.4104V108.673ZM73.9478 108.673H75.3977V123.353H73.9478V108.673ZM76.6664 108.673H78.1163V123.353H76.6664V108.673ZM79.3849 108.673H80.8348V123.353H79.3849V108.673ZM81.9223 108.673H83.3722V123.353H81.9223V108.673ZM84.6408 108.673H86.0907V123.353H84.6408V108.673Z" fill="#23C2EE"/>
<path fill-rule="evenodd" clip-rule="evenodd" d="M90.2593 107.223H108.021V124.984H90.2593V107.223ZM91.7092 108.673H93.1591V123.353H91.7092V108.673ZM94.4278 108.673H95.8777V123.353H94.4278V108.673ZM97.1463 108.673H98.5962V123.353H97.1463V108.673ZM99.6837 108.673H101.134V123.353H99.6837V108.673ZM102.402 108.673H103.852V123.353H102.402V108.673ZM105.121 108.673H106.571V123.353H105.121V108.673Z" fill="#00ACD3"/>
<path fill-rule="evenodd" clip-rule="evenodd" d="M90.2593 86.9243H108.021V104.686H90.2593V86.9243ZM91.7092 88.3742H93.1591V103.055H91.7092V88.3742ZM94.4278 88.3742H95.8777V103.055H94.4278V88.3742ZM97.1463 88.3742H98.5962V103.055H97.1463V88.3742ZM99.6837 88.3742H101.134V103.055H99.6837V88.3742ZM102.402 88.3742H103.852V103.055H102.402V88.3742ZM105.121 88.3742H106.571V103.055H105.121V88.3742ZM110.739 107.223H128.501V124.984H110.739V107.223ZM112.189 108.673H113.639V123.353H112.189V108.673ZM114.908 108.673H116.358V123.353H114.908V108.673ZM117.445 108.673H118.895V123.353H117.445V108.673ZM120.164 108.673H121.613V123.353H120.164V108.673ZM122.882 108.673H124.332V123.353H122.882V108.673ZM125.601 108.673H127.051V123.353H125.601V108.673Z" fill="#23C2EE"/>
<path fill-rule="evenodd" clip-rule="evenodd" d="M110.739 86.9243H128.5V104.686H110.739V86.9243ZM112.189 88.3742H113.639V103.055H112.189V88.3742ZM114.907 88.3742H116.357V103.055H114.907V88.3742ZM117.445 88.3742H118.894V103.055H117.445V88.3742ZM120.163 88.3742H121.613V103.055H120.163V88.3742ZM122.882 88.3742H124.332V103.055H122.882V88.3742ZM125.6 88.3742H127.05V103.055H125.6V88.3742Z" fill="#00ACD3"/>
<path fill-rule="evenodd" clip-rule="evenodd" d="M110.739 66.4443H128.5V84.2057H110.739V66.4443ZM112.189 67.8942H113.639V82.5745H112.189V67.8942ZM114.907 67.8942H116.357V82.5745H114.907V67.8942ZM117.445 67.8942H118.894V82.5745H117.445V67.8942ZM120.163 67.8942H121.613V82.5745H120.163V67.8942ZM122.882 67.8942H124.332V82.5745H122.882V67.8942ZM125.6 67.8942H127.05V82.5745H125.6V67.8942Z" fill="#23C2EE"/>
<path fill-rule="evenodd" clip-rule="evenodd" d="M131.219 107.223H148.98V124.984H131.219V107.223ZM132.669 108.673H134.119V123.353H132.669V108.673ZM135.206 108.673H136.656V123.353H135.206V108.673ZM137.925 108.673H139.374V123.353H137.925V108.673ZM140.643 108.673H142.093V123.353H140.643V108.673ZM143.362 108.673H144.812V123.353H143.362V108.673ZM146.08 108.673H147.53V123.353H146.08V108.673Z" fill="#00ACD3"/>
<path fill-rule="evenodd" clip-rule="evenodd" d="M86.453 153.619C89.1716 153.619 91.3464 155.794 91.3464 158.513C91.3464 161.231 89.1716 163.406 86.453 163.406C83.7344 163.406 81.5596 161.231 81.5596 158.513C81.5596 155.794 83.7344 153.619 86.453 153.619Z" fill="#D4EEF1"/>
<path fill-rule="evenodd" clip-rule="evenodd" d="M86.4528 155.068C86.8153 155.068 87.359 155.068 87.7215 155.25C87.359 155.431 86.9965 155.975 86.9965 156.518C86.9965 157.243 87.7215 157.968 88.4464 157.968C88.9901 157.968 89.5338 157.606 89.7151 157.243C89.8963 157.606 89.8963 158.149 89.8963 158.512C89.8963 160.506 88.2652 161.955 86.4528 161.955C84.4592 161.955 83.0093 160.324 83.0093 158.512C83.0093 156.7 84.4592 155.068 86.4528 155.068Z" fill="#3A4D54"/>
<path d="M99.5024 188.96C87.3594 183.161 80.8348 175.367 77.0288 166.849C72.4979 168.118 67.0607 169.024 60.8986 169.386C58.5425 169.568 56.0052 169.568 53.4678 169.568C50.3868 169.568 47.3057 169.568 44.0435 169.386C54.9178 180.261 68.6919 188.779 93.884 188.96H99.5024Z" fill="#BFDBE0"/>
<path d="M81.5596 174.642C79.9284 172.286 78.2973 169.568 77.0286 166.849C72.4977 168.118 67.0605 169.024 60.8984 169.386C65.0669 171.561 71.229 173.736 81.5596 174.642Z" fill="#D4EEF1"/>
</g>
<defs>
<clipPath id="clip0_248_2322">
<rect width="256" height="256" fill="white"/>
</clipPath>
</defs>
</svg>
