<svg width="256" height="256" viewBox="0 0 256 256" fill="none" xmlns="http://www.w3.org/2000/svg">
<g clip-path="url(#clip0_381_699)">
<rect width="256" height="256" rx="60" fill="#242938"/>
<path d="M75.4825 131.263H83.0263V123.719H75.4825V131.263ZM54.2631 95H46.7193V102.537H54.2631V95ZM46.7412 159.99H54.2851V152.446H46.7412V159.99ZM18 131.263H25.5439V123.719H18V131.263ZM66.4533 110.497V104.022H73.9971V111.558H67.5142C67.4271 111.558 67.3409 111.576 67.2604 111.609C67.1802 111.643 67.1072 111.692 67.046 111.754C66.9847 111.816 66.9363 111.889 66.9037 111.97C66.871 112.051 66.8547 112.137 66.8557 112.224V122.468H60.0435C59.5169 122.468 59.0118 122.677 58.6389 123.048C58.2659 123.42 58.0553 123.925 58.0533 124.451V130.531C58.0533 131.057 58.2623 131.562 58.634 131.934C59.0059 132.305 59.5103 132.514 60.0362 132.514H66.8557V142.758C66.8557 142.933 66.9251 143.1 67.0486 143.224C67.1721 143.347 67.3396 143.417 67.5142 143.417H73.9971V150.961H66.4533V144.478C66.4513 144.302 66.3803 144.135 66.2557 144.012C66.1311 143.888 65.9628 143.819 65.7875 143.819H55.5436V137.014C55.5436 136.488 55.3347 135.984 54.9628 135.612C54.591 135.24 54.0865 135.031 53.5606 135.031H47.4803C47.2192 135.031 46.9607 135.083 46.7198 135.183C46.4787 135.283 46.2598 135.43 46.0756 135.615C45.8913 135.8 45.7454 136.019 45.6462 136.261C45.547 136.502 45.4964 136.761 45.4973 137.022V143.826H35.2535C35.1664 143.826 35.0803 143.844 34.9999 143.877C34.9194 143.911 34.8465 143.96 34.7852 144.022C34.724 144.084 34.6757 144.157 34.6431 144.238C34.6104 144.319 34.594 144.405 34.595 144.492V150.968H27.0511V143.424H33.534C33.7087 143.424 33.8762 143.355 33.9997 143.231C34.1232 143.108 34.1926 142.94 34.1926 142.766V132.522H41.0046C41.5305 132.522 42.035 132.313 42.4067 131.941C42.7786 131.569 42.9876 131.065 42.9876 130.539V124.458C42.9876 123.932 42.7786 123.428 42.4067 123.056C42.035 122.684 41.5305 122.475 41.0046 122.475H34.1926V112.232C34.1926 112.056 34.1235 111.888 34.0002 111.763C33.8769 111.639 33.7093 111.568 33.534 111.566H27.0511V104.029H34.595V110.505C34.595 110.679 34.6643 110.847 34.7878 110.97C34.9113 111.094 35.0788 111.163 35.2535 111.163H45.4973V117.976C45.4973 118.236 45.5487 118.494 45.6483 118.734C45.7479 118.975 45.8941 119.193 46.0782 119.377C46.2623 119.562 46.4808 119.708 46.7214 119.807C46.962 119.907 47.2199 119.958 47.4803 119.958H53.5606C54.0865 119.958 54.591 119.749 54.9628 119.377C55.3347 119.006 55.5436 118.501 55.5436 117.976V111.163H65.7875C65.8745 111.164 65.961 111.148 66.0417 111.115C66.1225 111.083 66.1959 111.034 66.2578 110.973C66.3197 110.912 66.369 110.839 66.4024 110.758C66.4361 110.678 66.4533 110.592 66.4533 110.505" fill="#00D8D8"/>
<path d="M101.882 147.184H121.001C131.889 147.184 140.025 138.719 140.025 127.465C140.025 116.211 131.86 107.804 121.001 107.804H101.882V147.184ZM107.15 142.406V112.582H120.701C128.684 112.582 134.735 118.999 134.735 127.465C134.735 135.931 128.684 142.428 120.701 142.428L107.15 142.406ZM159.174 147.792C162.284 147.851 165.342 146.983 167.958 145.299C170.573 143.614 172.628 141.189 173.859 138.332C175.091 135.475 175.445 132.316 174.874 129.258C174.304 126.199 172.836 123.38 170.658 121.159C168.479 118.938 165.689 117.416 162.642 116.787C159.596 116.158 156.431 116.45 153.55 117.626C150.67 118.803 148.206 120.81 146.471 123.392C144.736 125.975 143.809 129.015 143.808 132.126C143.768 134.169 144.136 136.199 144.891 138.098C145.645 139.997 146.771 141.727 148.201 143.186C149.632 144.644 151.34 145.803 153.224 146.594C155.108 147.385 157.131 147.792 159.174 147.792ZM159.174 143.014C153.32 143.014 148.645 138.236 148.645 132.126C148.645 126.016 153.306 121.238 159.174 121.238C165.042 121.238 169.696 126.016 169.696 132.126C169.696 138.236 165.042 143.014 159.174 143.014ZM212.589 147.184H217.432V132.806C217.432 132.642 217.497 132.483 217.614 132.367C217.731 132.25 217.889 132.184 218.054 132.184H220.872C220.967 132.184 221.062 132.205 221.148 132.247C221.234 132.289 221.31 132.35 221.369 132.426L232.674 147.184H238L225.715 131.453L236.778 117.06H231.575L221.331 130.728C221.273 130.805 221.198 130.867 221.112 130.91C221.026 130.953 220.932 130.976 220.834 130.977H218.017C217.936 130.977 217.854 130.961 217.78 130.93C217.703 130.899 217.635 130.853 217.578 130.795C217.52 130.737 217.474 130.669 217.443 130.593C217.411 130.518 217.396 130.437 217.396 130.355V107.804H212.551L212.589 147.184ZM183.005 132.126C183.005 126.016 187.542 121.238 193.293 121.238C195.522 121.221 197.695 121.941 199.472 123.287C201.25 124.633 202.533 126.529 203.12 128.68H207.898C206.434 121.663 200.705 116.46 193.322 116.46C184.849 116.46 178.198 123.353 178.198 132.126C178.198 140.899 184.849 147.792 193.322 147.792C200.705 147.792 206.449 142.589 207.898 135.572H203.12C202.533 137.718 201.256 139.611 199.485 140.956C197.712 142.301 195.547 143.025 193.322 143.014C187.571 143.014 183.035 138.236 183.035 132.126" fill="#00D8D8"/>
</g>
<defs>
<clipPath id="clip0_381_699">
<rect width="256" height="256" fill="white"/>
</clipPath>
</defs>
</svg>
