<svg width="256" height="256" viewBox="0 0 256 256" fill="none" xmlns="http://www.w3.org/2000/svg">
<g clip-path="url(#clip0_381_686)">
<path fill-rule="evenodd" clip-rule="evenodd" d="M256.013 203.509C256.013 232.385 232.389 256.009 203.513 256.009H52.5124C23.6368 256.009 0.0126953 232.385 0.0126953 203.509V52.5085C0.0126953 23.6329 23.6368 0.00878906 52.5124 0.00878906H203.513C232.389 0.00878906 256.013 23.6329 256.013 52.5085V203.509Z" fill="#00D8D8"/>
<path d="M75.4825 132.263H83.0263V124.719H75.4825V132.263ZM54.2631 96H46.7193V103.537H54.2631V96ZM46.7412 160.99H54.2851V153.446H46.7412V160.99ZM18 132.263H25.5439V124.719H18V132.263ZM66.4533 111.497V105.022H73.9971V112.558H67.5142C67.4271 112.558 67.3409 112.576 67.2604 112.609C67.1802 112.643 67.1072 112.692 67.046 112.754C66.9847 112.816 66.9363 112.889 66.9037 112.97C66.871 113.051 66.8547 113.137 66.8557 113.224V123.468H60.0435C59.5169 123.468 59.0118 123.677 58.6389 124.048C58.2659 124.42 58.0553 124.925 58.0533 125.451V131.531C58.0533 132.057 58.2623 132.562 58.634 132.934C59.0059 133.305 59.5103 133.514 60.0362 133.514H66.8557V143.758C66.8557 143.933 66.9251 144.1 67.0486 144.224C67.1721 144.347 67.3396 144.417 67.5142 144.417H73.9971V151.961H66.4533V145.478C66.4513 145.302 66.3803 145.135 66.2557 145.012C66.1311 144.888 65.9628 144.819 65.7875 144.819H55.5436V138.014C55.5436 137.488 55.3347 136.984 54.9628 136.612C54.591 136.24 54.0865 136.031 53.5606 136.031H47.4803C47.2192 136.031 46.9607 136.083 46.7198 136.183C46.4787 136.283 46.2598 136.43 46.0756 136.615C45.8913 136.8 45.7454 137.019 45.6462 137.261C45.547 137.502 45.4964 137.761 45.4973 138.022V144.826H35.2535C35.1664 144.826 35.0803 144.844 34.9999 144.877C34.9194 144.911 34.8465 144.96 34.7852 145.022C34.724 145.084 34.6757 145.157 34.6431 145.238C34.6104 145.319 34.594 145.405 34.595 145.492V151.968H27.0511V144.424H33.534C33.7087 144.424 33.8762 144.355 33.9997 144.231C34.1232 144.108 34.1926 143.94 34.1926 143.766V133.522H41.0046C41.5305 133.522 42.035 133.313 42.4067 132.941C42.7786 132.569 42.9876 132.065 42.9876 131.539V125.458C42.9876 124.932 42.7786 124.428 42.4067 124.056C42.035 123.684 41.5305 123.475 41.0046 123.475H34.1926V113.232C34.1926 113.056 34.1235 112.888 34.0002 112.763C33.8769 112.639 33.7093 112.568 33.534 112.566H27.0511V105.029H34.595V111.505C34.595 111.679 34.6643 111.847 34.7878 111.97C34.9113 112.094 35.0788 112.163 35.2535 112.163H45.4973V118.976C45.4973 119.236 45.5487 119.494 45.6483 119.734C45.7479 119.975 45.8941 120.193 46.0782 120.377C46.2623 120.562 46.4808 120.708 46.7214 120.807C46.962 120.907 47.2199 120.958 47.4803 120.958H53.5606C54.0865 120.958 54.591 120.749 54.9628 120.377C55.3347 120.006 55.5436 119.501 55.5436 118.976V112.163H65.7875C65.8745 112.164 65.961 112.148 66.0417 112.115C66.1225 112.083 66.1959 112.034 66.2578 111.973C66.3197 111.912 66.369 111.839 66.4024 111.758C66.4361 111.678 66.4533 111.592 66.4533 111.505" fill="#080808"/>
<path d="M101.882 148.184H121.001C131.889 148.184 140.025 139.719 140.025 128.465C140.025 117.211 131.86 108.804 121.001 108.804H101.882V148.184ZM107.15 143.406V113.582H120.701C128.684 113.582 134.735 119.999 134.735 128.465C134.735 136.931 128.684 143.428 120.701 143.428L107.15 143.406ZM159.174 148.792C162.284 148.851 165.342 147.983 167.958 146.299C170.573 144.614 172.628 142.189 173.859 139.332C175.091 136.475 175.445 133.316 174.874 130.258C174.304 127.199 172.836 124.38 170.658 122.159C168.479 119.938 165.689 118.416 162.642 117.787C159.596 117.158 156.431 117.45 153.55 118.626C150.67 119.803 148.206 121.81 146.471 124.392C144.736 126.975 143.809 130.015 143.808 133.126C143.768 135.169 144.136 137.199 144.891 139.098C145.645 140.997 146.771 142.727 148.201 144.186C149.632 145.644 151.34 146.803 153.224 147.594C155.108 148.385 157.131 148.792 159.174 148.792ZM159.174 144.014C153.32 144.014 148.645 139.236 148.645 133.126C148.645 127.016 153.306 122.238 159.174 122.238C165.042 122.238 169.696 127.016 169.696 133.126C169.696 139.236 165.042 144.014 159.174 144.014ZM212.589 148.184H217.432V133.806C217.432 133.642 217.497 133.483 217.614 133.367C217.731 133.25 217.889 133.184 218.054 133.184H220.872C220.967 133.184 221.062 133.205 221.148 133.247C221.234 133.289 221.31 133.35 221.369 133.426L232.674 148.184H238L225.715 132.453L236.778 118.06H231.575L221.331 131.728C221.273 131.805 221.198 131.867 221.112 131.91C221.026 131.953 220.932 131.976 220.834 131.977H218.017C217.936 131.977 217.854 131.961 217.78 131.93C217.703 131.899 217.635 131.853 217.578 131.795C217.52 131.737 217.474 131.669 217.443 131.593C217.411 131.518 217.396 131.437 217.396 131.355V108.804H212.551L212.589 148.184ZM183.005 133.126C183.005 127.016 187.542 122.238 193.293 122.238C195.522 122.221 197.695 122.941 199.472 124.287C201.25 125.633 202.533 127.529 203.12 129.68H207.898C206.434 122.663 200.705 117.46 193.322 117.46C184.849 117.46 178.198 124.353 178.198 133.126C178.198 141.899 184.849 148.792 193.322 148.792C200.705 148.792 206.449 143.589 207.898 136.572H203.12C202.533 138.718 201.256 140.611 199.485 141.956C197.712 143.301 195.547 144.025 193.322 144.014C187.571 144.014 183.035 139.236 183.035 133.126" fill="#080808"/>
</g>
<defs>
<clipPath id="clip0_381_686">
<rect width="256" height="256" fill="white"/>
</clipPath>
</defs>
</svg>
