<svg width="256" height="256" viewBox="0 0 256 256" fill="none" xmlns="http://www.w3.org/2000/svg">
<g clip-path="url(#clip0_389_54)">
<rect width="256" height="256" rx="60" fill="#242938"/>
<path d="M63.4172 30H192.583C212.166 30 228 45.8328 228 65.4172V189.583C228 209.166 212.167 225 192.583 225H63.4172C43.8344 225 28 209.167 28 189.583V65.4172C28 45.8344 43.8328 30 63.4172 30Z" fill="#470137"/>
<path d="M193 167.498H177.417C177.083 167.581 176.667 167.416 176.417 167.166C176.185 166.869 176.015 166.529 175.917 166.166C174.516 160.264 173.182 154.347 171.917 148.416C170.833 143.248 169.917 138.916 169.25 135.331C168.687 132.3 168.104 129.272 167.5 126.248C167.083 123.748 166.667 121.666 166.417 119.916H166.333C165.5 123.581 164.75 127.166 164 130.581C163.333 133.998 162.5 137.498 161.667 140.998C160.835 144.498 159.917 148.331 158.833 152.498C157.833 156.666 156.667 161.248 155.417 166.166C155.25 167.083 154.833 167.498 154.083 167.498H138.5C138.083 167.583 137.667 167.416 137.333 167.248C137.083 166.998 136.917 166.666 136.75 166.333L120.5 101.916C120.25 101.166 120.583 100.831 121.5 100.831H137.25C138 100.831 138.417 101.081 138.5 101.666C140.167 108.998 141.583 115.331 142.667 120.666C143.752 126 144.667 130.498 145.25 134.248C145.833 137.998 146.417 141.081 146.833 143.416C147.25 145.748 147.583 147.748 147.833 149.248H148.083C148.25 147.914 148.417 146.666 148.667 145.331C149.001 143.748 149.417 141.664 149.917 139.081C150.417 136.498 151 133.498 151.75 129.998C152.5 126.498 153.333 122.498 154.333 117.831C155.25 113.248 156.583 107.998 158.167 102.081C158.167 101.748 158.333 101.331 158.5 100.998C158.583 100.831 158.917 100.748 159.417 100.748H175.75C176.25 100.748 176.5 101.081 176.583 101.664C177.816 106.989 179.01 112.322 180.166 117.664C181.083 122.247 181.916 126.331 182.666 129.914C183.333 133.414 183.916 136.498 184.25 138.998C184.583 141.581 185 143.664 185.333 145.414C185.583 146.831 185.833 148.248 185.916 149.664H186.166C186.583 147.998 186.916 145.998 187.25 143.748C187.585 141.498 188 138.998 188.583 136.164C189.083 133.331 189.666 130.248 190.333 126.831C190.916 123.414 191.75 119.664 192.666 115.414C193.583 111.248 194.583 106.664 195.75 101.748C195.916 100.998 196.25 100.664 196.833 100.664H211.416C212.166 100.664 212.416 101.081 212.249 101.831L194.249 166.081C194.166 166.414 193.999 166.748 193.749 166.998C193.749 167.414 193.417 167.581 193 167.498ZM47.0018 166.666V81.6655C46.919 81.1655 47.3346 80.6655 47.8346 80.5812H47.919C49.7776 80.4655 51.6395 80.4102 53.5018 80.4155C56.0018 80.3312 58.8346 80.3311 62.169 80.2483C65.5033 80.1655 69.0018 80.1655 72.7518 80.1655C82.919 80.1655 91.419 81.9983 98.0846 85.6655C104.5 89.0822 109.751 94.3334 113.167 100.748C116.502 107.166 118.167 114.498 118.167 122.831C118.252 128.664 117.417 134.414 115.585 139.914C113.996 144.592 111.567 148.941 108.417 152.747C105.502 156.247 102.002 159.247 98.1674 161.664C94.4174 163.997 90.2518 165.747 85.9174 166.914C81.7277 168.011 77.4156 168.572 73.0846 168.581H63.6674C60.3346 168.581 57.1674 168.581 54.3346 168.497C51.4174 168.414 49.2518 168.414 47.8346 168.331C47.2518 168.331 47.0018 167.831 47.0018 166.997V166.666ZM64.5846 96.3327V151.916C65.5018 151.916 66.3346 151.916 67.1674 151.998C67.9174 152.081 68.7518 152.081 69.5018 152.166C70.3346 152.248 71.2518 152.248 72.2518 152.248C76.0846 152.331 79.9174 151.666 83.5846 150.331C86.9174 149.166 89.8346 147.248 92.3346 144.666C94.828 142.011 96.7307 138.859 97.9174 135.416C99.2518 131.416 99.9174 127.166 99.9174 122.916C100.002 118.916 99.3346 114.916 98.0018 111.166C96.8532 107.955 94.9646 105.059 92.4889 102.714C90.0133 100.368 87.0201 98.639 83.7518 97.6655C80.1674 96.5811 76.5018 95.9983 72.7518 96.0811C71.0846 96.0811 69.6674 96.0811 68.5018 96.1655C67.3346 96.1655 66.0018 96.2483 64.5846 96.3311V96.3327Z" fill="#FF61F6"/>
</g>
<defs>
<clipPath id="clip0_389_54">
<rect width="256" height="256" fill="white"/>
</clipPath>
</defs>
</svg>
