<svg width="256" height="256" viewBox="0 0 256 256" fill="none" xmlns="http://www.w3.org/2000/svg">
<g clip-path="url(#clip0_389_51)">
<path d="M196 0H60C26.8629 0 0 26.8629 0 60V196C0 229.137 26.8629 256 60 256H196C229.137 256 256 229.137 256 196V60C256 26.8629 229.137 0 196 0Z" fill="#470137"/>
<path d="M200.053 177.322H182.331C181.951 177.416 181.478 177.227 181.194 176.943C180.93 176.606 180.736 176.219 180.625 175.806C179.031 169.095 177.514 162.365 176.076 155.619C174.843 149.743 173.801 144.815 173.042 140.739C172.402 137.291 171.738 133.848 171.052 130.409C170.578 127.566 170.105 125.197 169.821 123.207H169.725C168.778 127.376 167.925 131.452 167.072 135.337C166.313 139.223 165.366 143.203 164.419 147.184C163.472 151.164 162.428 155.523 161.195 160.262C160.058 165.002 158.732 170.214 157.311 175.806C157.121 176.849 156.646 177.322 155.793 177.322H138.071C137.597 177.418 137.124 177.227 136.744 177.037C136.459 176.753 136.271 176.375 136.081 175.996L117.6 102.736C117.316 101.883 117.694 101.503 118.737 101.503H136.65C137.503 101.503 137.977 101.787 138.071 102.451C139.967 110.791 141.577 117.993 142.81 124.06C144.044 130.126 145.085 135.242 145.748 139.507C146.411 143.772 147.075 147.278 147.548 149.933C148.022 152.586 148.401 154.86 148.685 156.566H148.969C149.16 155.049 149.35 153.629 149.634 152.111C150.013 150.311 150.487 147.941 151.056 145.003C151.624 142.066 152.287 138.654 153.14 134.674C153.993 130.693 154.94 126.144 156.077 120.836C157.121 115.624 158.636 109.654 160.438 102.924C160.438 102.546 160.627 102.071 160.817 101.693C160.911 101.503 161.291 101.408 161.86 101.408H180.435C181.003 101.408 181.288 101.787 181.382 102.45C182.784 108.505 184.142 114.571 185.457 120.646C186.499 125.859 187.447 130.503 188.3 134.578C189.058 138.558 189.721 142.066 190.102 144.909C190.48 147.847 190.955 150.215 191.333 152.206C191.617 153.817 191.902 155.429 191.996 157.039H192.28C192.755 155.145 193.133 152.87 193.513 150.311C193.894 147.752 194.366 144.909 195.029 141.686C195.598 138.464 196.261 134.958 197.019 131.072C197.682 127.185 198.631 122.921 199.672 118.087C200.716 113.35 201.853 108.136 203.18 102.546C203.369 101.693 203.749 101.312 204.412 101.312H220.996C221.849 101.312 222.134 101.787 221.944 102.64L201.473 175.71C201.378 176.088 201.188 176.469 200.904 176.753C200.904 177.226 200.527 177.416 200.053 177.322ZM34.012 176.375V79.7059C33.9178 79.1373 34.3905 78.5686 34.9592 78.4727H35.0551C37.1689 78.3411 39.2864 78.2783 41.4043 78.2843C44.2475 78.1884 47.4692 78.1884 51.2613 78.0942C55.0534 78 59.0321 78 63.2969 78C74.8598 78 84.5267 80.0844 92.1074 84.255C99.403 88.1408 105.375 94.1128 109.261 101.408C113.053 108.706 114.947 117.046 114.947 126.523C115.043 133.156 114.094 139.696 112.01 145.951C110.203 151.271 107.44 156.216 103.859 160.545C100.543 164.525 96.5623 167.937 92.2015 170.686C87.9368 173.339 83.1993 175.33 78.2699 176.657C73.5051 177.905 68.6009 178.542 63.6754 178.553H52.9655C49.1751 178.553 45.5732 178.553 42.3515 178.457C39.0338 178.363 36.5709 178.363 34.9592 178.269C34.2963 178.269 34.012 177.7 34.012 176.751V176.375ZM54.0086 96.3866V159.6C55.0517 159.6 55.9988 159.6 56.9459 159.694C57.7989 159.788 58.7478 159.788 59.6008 159.884C60.5479 159.978 61.591 159.978 62.7283 159.978C67.0872 160.072 71.4462 159.315 75.6168 157.798C79.4072 156.472 82.7248 154.292 85.568 151.354C88.4037 148.336 90.5676 144.75 91.9172 140.835C93.4348 136.285 94.1918 131.452 94.1918 126.619C94.2877 122.07 93.529 117.52 92.0132 113.256C90.7069 109.604 88.5591 106.311 85.7436 103.644C82.928 100.976 79.524 99.0095 75.807 97.9024C71.7305 96.6691 67.5617 96.0063 63.2969 96.1005C61.4009 96.1005 59.7891 96.1005 58.4635 96.1964C57.1361 96.1964 55.6203 96.2906 54.0086 96.3848V96.3866Z" fill="#FF61F6"/>
</g>
<defs>
<clipPath id="clip0_389_51">
<rect width="256" height="256" fill="white"/>
</clipPath>
</defs>
</svg>
