<svg width="256" height="256" viewBox="0 0 256 256" fill="none" xmlns="http://www.w3.org/2000/svg">
<g clip-path="url(#clip0_316_236)">
<rect width="256" height="256" rx="60" fill="white"/>
<circle cx="128" cy="128" r="100" fill="#E7528A"/>
<path d="M128 28C72.8 28 28 72.8 28 128C28 183.2 72.8 228 128 228C183.1 228 228 183.2 228 128C228 72.8 183.1 28 128 28ZM194.05 74.1C206.358 89.0923 213.169 107.843 213.35 127.24C210.54 126.7 182.34 120.95 153.92 124.53C153.27 123.12 152.72 121.6 152.08 120.08C150.312 115.91 148.432 111.788 146.44 107.72C177.89 94.92 192.21 76.48 194.05 74.1ZM128 42.75C149.7 42.75 169.54 50.89 184.62 64.23C183.1 66.39 170.19 83.64 139.82 95.03C125.83 69.33 110.32 48.28 107.93 45.03C114.509 43.4933 121.244 42.7282 128 42.75ZM91.67 50.78C103.113 66.6443 113.685 83.1186 123.34 100.13C83.42 110.76 48.17 110.53 44.38 110.53C47.1276 97.601 52.8251 85.4815 61.0281 75.1172C69.2311 64.7529 79.7178 56.4239 91.67 50.78ZM42.53 128.1V125.5C46.23 125.6 87.65 126.15 130.28 113.35C132.78 118.12 135.05 123 137.22 127.88C136.13 128.21 134.94 128.53 133.86 128.86C89.82 143.06 66.39 181.89 64.44 185.15C50.3367 169.496 42.5245 149.17 42.53 128.1ZM128 213.47C109.014 213.504 90.5659 207.166 75.61 195.47C77.13 192.32 94.49 158.91 142.64 142.1C142.86 142 142.97 142 143.18 141.88C151.304 162.834 157.408 184.516 161.41 206.63C150.858 211.17 139.487 213.498 128 213.47ZM175.61 198.82C174.75 193.62 170.19 168.67 159.01 137.98C185.81 133.75 209.24 140.69 212.16 141.67C210.335 153.201 206.146 164.229 199.856 174.064C193.567 183.899 185.312 192.327 175.61 198.82Z" fill="#E6176C"/>
</g>
<defs>
<clipPath id="clip0_316_236">
<rect width="256" height="256" fill="white"/>
</clipPath>
</defs>
</svg>
