<svg width="256" height="256" viewBox="0 0 256 256" fill="none" xmlns="http://www.w3.org/2000/svg">
<g clip-path="url(#clip0_316_231)">
<rect width="256" height="256" rx="60" fill="#242938"/>
<circle cx="129" cy="128" r="100" fill="#E7528A"/>
<path d="M129 28C73.8 28 29 72.8 29 128C29 183.2 73.8 228 129 228C184.1 228 229 183.2 229 128C229 72.8 184.1 28 129 28ZM195.05 74.1C207.358 89.0923 214.169 107.843 214.35 127.24C211.54 126.7 183.34 120.95 154.92 124.53C154.27 123.12 153.72 121.6 153.08 120.08C151.312 115.91 149.432 111.788 147.44 107.72C178.89 94.92 193.21 76.48 195.05 74.1ZM129 42.75C150.7 42.75 170.54 50.89 185.62 64.23C184.1 66.39 171.19 83.64 140.82 95.03C126.83 69.33 111.32 48.28 108.93 45.03C115.509 43.4933 122.244 42.7282 129 42.75ZM92.67 50.78C104.113 66.6443 114.685 83.1186 124.34 100.13C84.42 110.76 49.17 110.53 45.38 110.53C48.1276 97.601 53.8251 85.4815 62.0281 75.1172C70.2311 64.7529 80.7178 56.4239 92.67 50.78ZM43.53 128.1V125.5C47.23 125.6 88.65 126.15 131.28 113.35C133.78 118.12 136.05 123 138.22 127.88C137.13 128.21 135.94 128.53 134.86 128.86C90.82 143.06 67.39 181.89 65.44 185.15C51.3367 169.496 43.5245 149.17 43.53 128.1ZM129 213.47C110.014 213.504 91.5659 207.166 76.61 195.47C78.13 192.32 95.49 158.91 143.64 142.1C143.86 142 143.97 142 144.18 141.88C152.304 162.834 158.408 184.516 162.41 206.63C151.858 211.17 140.487 213.498 129 213.47ZM176.61 198.82C175.75 193.62 171.19 168.67 160.01 137.98C186.81 133.75 210.24 140.69 213.16 141.67C211.335 153.201 207.146 164.229 200.856 174.064C194.567 183.899 186.312 192.327 176.61 198.82Z" fill="#E6176C"/>
</g>
<defs>
<clipPath id="clip0_316_231">
<rect width="256" height="256" fill="white"/>
</clipPath>
</defs>
</svg>
