<svg width="256" height="256" viewBox="0 0 256 256" fill="none" xmlns="http://www.w3.org/2000/svg">
<g clip-path="url(#clip0_248_1440)">
<path d="M196 0H60C26.8629 0 0 26.8629 0 60V196C0 229.137 26.8629 256 60 256H196C229.137 256 256 229.137 256 196V60C256 26.8629 229.137 0 196 0Z" fill="url(#paint0_linear_248_1440)"/>
<g filter="url(#filter0_d_248_1440)">
<path d="M153.563 228H155.996L195.691 208.15L196.351 207.216V48.7722L195.691 47.8336L155.996 28H153.534L153.563 228Z" fill="#5294CF"/>
<path d="M101.905 228H99.4398L59.7781 208.15L58.9733 206.766L58.5649 49.5792L59.7781 47.8336L99.4398 28H101.936L101.905 228Z" fill="#1F5B98"/>
<path d="M99.5093 28H155.957V228H99.5093V28Z" fill="#2D72B8"/>
<path d="M216.469 123.507L215.127 123.209L195.976 121.424L195.691 121.565L155.96 119.977H99.5094L59.7778 121.565V91.2677L59.7362 91.2899L59.7778 91.2012L99.5094 81.995H155.96L195.691 91.2012L210.296 98.9648V93.9734L216.469 93.2983L215.83 92.0517L196.286 78.0767L195.691 78.2702L155.96 65.9589H99.5094L59.7778 78.2702V47.8335L39 72.1752V93.4341L39.1608 93.3176L45.1726 93.9734V99.0674L39 102.371V123.524L39.1608 123.507L45.1726 123.596V132.474L39.9857 132.551L39 132.458V153.619L45.1726 156.937V162.09L39.2586 162.744L39 162.549V183.804L59.7778 208.15V177.716L99.5094 190.028H155.96L195.808 177.68L196.337 177.912L215.624 164.143L216.469 162.771L210.296 162.09V157.041L209.488 156.718L196.286 163.834L195.808 164.832L155.96 173.985V173.996H99.5094V173.985L59.7778 164.793V134.385L99.5094 135.968V136.007H155.96L195.691 134.385L196.596 134.801L215.16 133.203L216.469 132.563L210.296 132.474V123.596L216.469 123.507Z" fill="#1A476F"/>
<path d="M195.69 177.716V208.15L216.469 183.805V162.688L195.811 177.681L195.69 177.716Z" fill="#2D72B8"/>
<path d="M195.69 164.86L195.811 164.833L216.469 153.721V132.474L195.69 134.385V164.86Z" fill="#2D72B8"/>
<path d="M195.811 91.229L195.69 91.2012V121.565L216.469 123.507V102.27L195.811 91.229Z" fill="#2D72B8"/>
<path d="M195.811 78.3894L216.469 93.2983V72.1808L195.69 47.8335V78.2702L195.811 78.3118V78.3894Z" fill="#2D72B8"/>
</g>
</g>
<defs>
<filter id="filter0_d_248_1440" x="27.6" y="27.6" width="200.269" height="222.8" filterUnits="userSpaceOnUse" color-interpolation-filters="sRGB">
<feFlood flood-opacity="0" result="BackgroundImageFix"/>
<feColorMatrix in="SourceAlpha" type="matrix" values="0 0 0 0 0 0 0 0 0 0 0 0 0 0 0 0 0 0 127 0" result="hardAlpha"/>
<feOffset dy="11"/>
<feGaussianBlur stdDeviation="5.7"/>
<feComposite in2="hardAlpha" operator="out"/>
<feColorMatrix type="matrix" values="0 0 0 0 0 0 0 0 0 0 0 0 0 0 0 0 0 0 0.25 0"/>
<feBlend mode="normal" in2="BackgroundImageFix" result="effect1_dropShadow_248_1440"/>
<feBlend mode="normal" in="SourceGraphic" in2="effect1_dropShadow_248_1440" result="shape"/>
</filter>
<linearGradient id="paint0_linear_248_1440" x1="17.5" y1="17.5" x2="238.5" y2="238.5" gradientUnits="userSpaceOnUse">
<stop stop-color="#5294CF"/>
<stop offset="1" stop-color="#1A476F"/>
</linearGradient>
<clipPath id="clip0_248_1440">
<rect width="256" height="256" fill="white"/>
</clipPath>
</defs>
</svg>
