<svg width="256" height="256" viewBox="0 0 256 256" fill="none" xmlns="http://www.w3.org/2000/svg">
<g clip-path="url(#clip0_360_189)">
<rect width="256" height="256" rx="60" fill="white"/>
<path d="M35.1328 32.5726L42.4581 38.6708V66.1561H82.0558L87.4407 72.9357L82.0383 79.3833H42.4581V105.663L35.1328 111.744L28 105.663V38.6533L35.1328 32.5726ZM56.5489 101.836H86.7413L91.7939 108.267L86.4089 115.064H56.5489L51.6713 108.791L56.5489 101.836ZM57.5979 31H86.3914L91.7764 37.7796L86.3914 44.2272H57.9475L52.1958 37.9718L57.5979 31ZM218.07 44.0525L224.521 51.0068L218.07 57.9786H120.57L114.294 51.0068L120.57 44.0525H218.07ZM109.067 72.9357L115.15 67.7112L121.252 72.9357V80.6066C121.252 93.484 124.731 104.091 140.238 104.091H143.367C157.3 104.091 164.958 94.6898 164.958 80.0647V72.761L170.884 67.5365L176.986 72.5862V80.5891C176.986 93.6414 180.814 103.392 195.797 103.392H198.402C213.035 103.392 215.64 92.2436 215.814 80.0647V72.2368L221.741 67.3618L228 72.4115V80.2396C227.825 97.1185 223.297 116.444 198.927 116.444H196.322C181.864 116.444 174.031 109.996 170.902 101.994C167.248 110.171 157.493 117.318 144.258 117.318H141.112C116.042 117.318 109.259 102.186 109.084 80.9385V72.9357H109.067ZM158.874 198.935L155.395 189.535L164.451 186.931L196.322 201.364V171.607L202.773 166.208L209.381 171.607V207.637L221.217 213.036L224.521 221.737L215.29 225.04L158.874 198.935ZM215.64 135.403L224.346 139.404L221.566 148.28L143.192 184.659L133.786 181.008L137.615 171.956L215.64 135.403ZM102.563 185.009L110.22 191.282C109.521 213.385 90.5351 225.04 68.0874 225.04H65.8147C54.6608 225.04 41.6189 220.864 33.2622 212.861L34.1189 203.985L42.3007 202.936C48.4021 208.161 56.9336 211.813 64.9405 211.813H67.3881C82.5456 211.813 94.2064 205.557 95.4302 190.757L102.563 185.009ZM95.4127 170.558C94.7133 155.234 83.227 149.154 67.3706 149.154H64.923C55.5175 149.154 48.3846 152.806 42.2832 158.03L34.1189 156.982L33.2448 148.105C41.6014 139.928 53.2622 136.101 65.465 136.101H67.8951C90.5351 136.101 109.521 147.599 110.203 170.034L102.545 176.132L95.4127 170.558Z" fill="black"/>
</g>
<defs>
<clipPath id="clip0_360_189">
<rect width="256" height="256" fill="white"/>
</clipPath>
</defs>
</svg>
