<svg width="256" height="256" viewBox="0 0 256 256" fill="none" xmlns="http://www.w3.org/2000/svg">
<g clip-path="url(#clip0_248_1484)">
<rect width="256" height="256" rx="60" fill="#242938"/>
<path d="M226.969 132.995C226.969 116.182 216.521 101.654 201.013 95.9402C201.67 92.3866 201.998 88.7799 201.992 85.166C201.992 53.9871 176.691 28.6855 145.512 28.6855C127.392 28.6855 110.416 37.3371 99.8047 52.1918C94.5813 48.1105 88.2148 45.9887 81.5219 45.9887C65.0344 45.9887 51.4859 59.3738 51.4859 76.0246C51.4859 79.616 52.1391 83.2074 53.2812 86.4723C37.6109 91.859 27 106.877 27 123.527C27 140.341 37.4477 155.032 53.118 160.746C52.4656 164.174 52.1391 167.765 52.1391 171.519C52.1391 202.535 77.4406 227.837 108.456 227.837C126.739 227.837 143.553 219.022 154.163 204.331C159.387 208.411 165.916 210.697 172.609 210.697C189.097 210.697 202.645 197.311 202.645 180.661C202.645 177.07 201.992 173.479 200.85 170.214C216.194 164.664 226.968 149.646 226.968 132.995H226.969Z" fill="white"/>
<path d="M105.192 114.222L149.756 134.628L194.81 95.1238C195.467 91.8454 195.795 88.5096 195.789 85.166C195.789 57.416 173.263 34.8887 145.512 34.8887C128.861 34.8887 113.354 43.0504 104.049 56.7621L96.54 95.6137L105.192 114.222Z" fill="#F4BD19"/>
<path d="M58.9945 161.399C58.3422 164.663 58.0156 168.092 58.0156 171.52C58.0156 199.27 80.7055 221.96 108.456 221.96C125.27 221.96 140.778 213.635 150.245 199.923L157.591 161.072L147.634 142.136L102.906 121.731L58.9945 161.399Z" fill="#3CBEB1"/>
<path d="M58.6688 84.1855L89.1945 91.3684L96.05 56.598C91.8063 53.3332 86.7453 51.7012 81.3586 51.7012C68.1359 51.7012 57.1992 62.4746 57.1992 75.8605C57.1992 78.6355 57.6898 81.5738 58.6688 84.1855Z" fill="#E9478C"/>
<path d="M56.0562 91.5312C42.3444 95.9391 32.8765 109.162 32.8765 123.527C32.8765 137.566 41.528 150.135 54.5874 155.032L97.5194 116.18L89.6835 99.368L56.0562 91.5312Z" fill="#2C458F"/>
<path d="M158.081 199.76C162.325 203.025 167.386 204.821 172.609 204.821C185.832 204.821 196.769 194.047 196.769 180.661C196.769 177.723 196.279 174.947 195.3 172.335L164.774 165.153L158.081 199.76Z" fill="#95C63D"/>
<path d="M164.284 157.154L197.912 164.99C211.623 160.42 221.091 147.361 221.091 132.995C221.091 118.956 212.44 106.55 199.38 101.49L155.306 140.014L164.284 157.154Z" fill="#176655"/>
</g>
<defs>
<clipPath id="clip0_248_1484">
<rect width="256" height="256" fill="white"/>
</clipPath>
</defs>
</svg>
