<svg width="256" height="256" viewBox="0 0 256 256" fill="none" xmlns="http://www.w3.org/2000/svg">
<g clip-path="url(#clip0_248_5462)">
<path d="M196 0H60C26.8629 0 0 26.8629 0 60V196C0 229.137 26.8629 256 60 256H196C229.137 256 256 229.137 256 196V60C256 26.8629 229.137 0 196 0Z" fill="url(#paint0_linear_248_5462)"/>
<path d="M168.055 153.325C169.308 152.542 170.718 151.759 171.971 150.975C180.744 143.456 177.611 129.827 162.728 110.714C163.042 120.27 164.608 130.14 166.175 140.636C166.802 144.709 167.428 148.939 168.055 153.325ZM83.303 189.67C88.316 211.132 101.005 222.725 115.418 227.581C123.407 228.991 131.397 228.678 139.386 226.954C140.64 226.328 141.736 225.544 142.833 224.761C145.966 222.725 148.629 220.375 151.136 218.025C140.953 213.639 130.614 205.179 120.901 195.153C113.381 194.683 106.018 193.9 99.5954 192.96C93.3291 192.333 88.0027 191.236 83.303 189.67ZM81.1098 88.6256L80.7964 90.8188C78.6032 103.195 78.4466 114.317 80.1698 124.03C81.893 112.438 84.2429 100.532 87.5327 89.0955C88.0027 87.3723 88.4727 85.4924 89.0993 83.6125H89.256C91.7625 75.7796 94.5823 68.2601 97.8721 61.2104C91.6058 69.5133 86.1228 78.7561 81.1098 88.6256Z" fill="white"/>
<path d="M80.0132 206.589C85.4963 213.482 91.7626 218.495 98.6555 222.098C89.8827 214.891 82.9897 204.082 79.8566 188.573C73.9036 186.38 69.2039 183.403 65.6007 179.643C68.1072 189.67 72.807 198.912 80.0132 206.589ZM79.0733 132.959C76.2535 123.717 75.3135 113.064 76.2535 101.001C74.5302 104.604 72.9636 108.521 71.2404 112.437C64.1908 132.959 61.0576 154.265 64.0341 173.064C67.324 178.077 72.1803 182.15 79.0733 184.97C76.8801 172.907 76.7234 153.795 79.0733 132.959ZM82.5198 185.91C82.5198 186.066 82.5198 186.066 82.5198 185.91C87.5328 187.79 93.1725 189.043 99.9088 189.826C105.392 190.766 111.345 191.393 117.611 191.863C104.609 177.607 93.1725 160.845 85.8096 147.059C84.0863 144.552 82.6764 141.889 81.4232 139.226C79.6999 158.338 80.1699 175.414 82.5198 185.91ZM163.042 140.949C161.319 129.2 159.439 117.294 159.439 106.014C139.543 87.5287 120.274 67.7898 121.058 35.9883C120.431 36.4583 119.804 36.9282 119.334 37.3982C115.888 40.3747 112.441 43.6645 109.152 47.2676C102.102 57.2937 96.4623 70.1397 92.0759 84.0822C89.5694 102.255 107.115 137.816 130.457 165.074C141.736 164.604 153.642 161.158 165.078 154.892C164.452 150.348 163.825 145.649 163.042 140.949ZM178.708 203.142C174.635 202.359 170.561 200.949 166.488 199.069C164.452 205.492 161.162 211.445 156.462 216.928C158.185 217.398 159.752 217.868 161.319 218.025C167.898 214.108 173.851 208.938 178.708 203.142Z" fill="white"/>
<path d="M124.191 33.6385C122.468 64.1867 140.013 83.6123 159.126 101.315C142.363 79.0692 132.65 65.7533 132.65 28.4688C129.987 29.8787 127.167 31.6019 124.191 33.6385ZM157.246 193.743C148.943 194.996 140.327 195.466 131.867 195.466C129.674 195.466 127.324 195.466 125.131 195.309C134.217 204.395 143.93 211.915 153.329 215.675C158.342 210.192 161.632 204.082 163.669 197.503C161.475 196.406 159.282 195.153 157.246 193.743ZM153.486 191.236C150.353 189.043 147.533 186.693 144.87 184.343C139.387 179.487 134.06 174.161 129.047 168.364C117.925 168.521 107.585 165.858 99.1256 160.375C97.8723 159.591 96.6191 158.651 95.5225 157.711C102.729 169.147 111.972 181.68 121.998 192.176C132.18 192.646 143.146 192.489 153.486 191.236ZM168.525 191.55C168.212 193.116 167.898 194.526 167.428 196.093C171.815 198.286 176.358 199.852 180.901 200.322C184.817 194.996 187.951 189.043 189.83 182.62C184.034 186.536 176.671 189.513 168.525 191.55Z" fill="white"/>
<path d="M100.849 157.711C108.212 162.411 116.984 164.918 126.384 165.231C107.115 142.359 92.2325 114.474 89.256 94.7349C85.6528 108.677 84.3996 117.294 82.363 131.706V132.019C83.773 135.623 85.6528 140.009 88.1594 144.709C91.4492 150.035 95.6789 154.421 100.849 157.711ZM165.548 158.338C154.896 164.134 143.773 167.424 133.12 168.207C137.663 173.22 142.206 177.92 146.906 181.993C150.196 184.97 153.956 187.946 158.029 190.609C160.692 190.139 163.198 189.669 165.705 189.2C167.272 179.33 166.802 168.991 165.548 158.338ZM168.995 188.26C177.768 185.91 185.444 182.62 191.084 177.92C193.433 167.111 192.65 155.361 187.48 142.829C182.937 135.153 178.551 128.416 174.478 122.463C181.997 136.249 181.841 146.275 173.851 153.168L173.695 153.325C171.971 154.421 170.248 155.518 168.368 156.615C169.778 167.424 170.405 178.233 168.995 188.26Z" fill="white"/>
</g>
<defs>
<linearGradient id="paint0_linear_248_5462" x1="0" y1="0" x2="256" y2="256" gradientUnits="userSpaceOnUse">
<stop stop-color="#391254"/>
<stop offset="1" stop-color="#857194"/>
</linearGradient>
<clipPath id="clip0_248_5462">
<rect width="256" height="256" fill="white"/>
</clipPath>
</defs>
</svg>
