<svg width="256" height="256" viewBox="0 0 256 256" fill="none" xmlns="http://www.w3.org/2000/svg">
<g clip-path="url(#clip0_248_4059)">
<rect width="256" height="256" rx="60" fill="white"/>
<path d="M205.408 189.81C205.465 188.445 205.693 184.809 205.976 181.683C207.341 166.68 203.476 151.335 195.293 139.231C192.508 135.083 192.508 135.083 183.075 131.956C173.64 128.831 173.64 128.831 173.584 126.728C173.584 124.683 173.526 124.626 170.628 124C161.82 122.068 153.238 122.921 142.27 126.842C138.747 128.092 135.053 129.116 134.087 129.116C132.268 129.116 132.268 129.116 131.87 122.921C131.7 119.511 131.017 114.737 130.393 112.35C128.348 104.394 127.892 104.848 137.951 104.507C147.442 104.224 151.761 103.257 159.206 99.8471C164.093 97.5748 168.753 94.5061 168.071 93.9367C167.844 93.7098 166.196 92.9147 164.491 92.2325C159.036 90.0729 152.67 85.9243 149.715 82.7418C147.328 80.1275 146.647 78.7636 145.397 74.6719C141.247 60.8622 135.28 54.3267 122.721 49.8372C121.187 49.2689 118.913 47.9049 117.719 46.7684C114.48 43.7564 111.07 39.0963 111.07 37.7892C111.07 36.7094 111.526 36.5957 116.356 36.2547C134.485 35.0045 145.112 35.9137 157.785 39.8351C185.006 48.3595 205.693 66.318 217.627 91.835C225.981 109.679 228.482 132.468 224.39 152.984C223.083 159.69 219.786 169.18 216.605 175.715C213.137 182.763 207.114 192.196 206.147 192.196C205.635 192.196 205.408 191.343 205.408 189.81Z" fill="#333333"/>
<path d="M30.9971 156.848C29.4059 148.551 29.0081 143.834 29.0081 132.24C28.9513 121.556 29.1786 118.828 30.2016 113.486C34.0091 94.8456 42.8178 78.1381 55.8887 64.9536C62.14 58.5886 66.4023 54.6672 66.9706 54.6672C67.0843 54.6672 67.6526 56.0312 68.2208 57.6792C69.4711 61.6006 71.858 66.2039 74.3586 69.7273C75.7225 71.6027 76.4044 73.1939 76.4044 74.3874C76.4044 76.0923 76.1203 76.3764 73.1083 77.9108C66.4023 81.3206 61.0034 86.0944 56.0024 93.1978C53.1041 97.2898 53.1041 97.2898 57.0821 97.2898C61.0602 97.2898 61.0602 97.2898 61.0602 99.2223C61.0602 100.927 60.7193 101.325 58.503 102.632C57.0821 103.485 54.4111 105.474 52.479 107.007C41.3403 116.328 33.2704 136.957 33.2136 156.28C33.2136 158.951 33.043 159.803 32.4179 159.803C31.8496 159.803 31.3949 158.78 30.9971 156.848Z" fill="#333333"/>
<path d="M136.645 79.3875C136.645 77.5122 136.759 77.3984 138.633 77.3984C140.508 77.3984 140.622 77.5122 140.622 79.3875C140.622 81.263 140.508 81.3766 138.633 81.3766C136.759 81.3766 136.645 81.263 136.645 79.3875Z" fill="#333333"/>
<path d="M120.732 69.1583C120.732 67.2829 120.846 67.1692 122.721 67.1692C124.597 67.1692 124.71 67.2829 124.71 69.1583C124.71 71.0337 124.597 71.1473 122.721 71.1473C120.846 71.1473 120.732 71.0337 120.732 69.1583Z" fill="#333333"/>
<path d="M178.186 224.59C183.017 217.486 185.802 207.995 184.438 203.108C183.529 199.755 180.631 197.027 177.05 196.174C171.31 194.811 164.774 196.857 144.032 206.632C132.268 212.201 122.891 215.553 115.333 216.974C109.479 218.054 94.4189 217.883 88.9067 216.633C75.7221 213.735 62.9353 208.109 57.9342 202.994C55.0928 200.096 55.0928 200.096 55.0928 188.901C55.0928 180.092 55.3201 176.795 56.1157 173.329C57.1386 168.896 57.1386 168.896 59.1277 168.896C60.6052 168.896 61.06 169.124 61.06 169.919C61.1168 170.714 61.344 170.602 62.3671 169.408C70.4368 159.804 72.7101 157.189 72.9942 156.962C73.1647 156.792 75.3811 154.235 77.8248 151.279C82.2007 145.994 82.2575 145.88 80.7799 145.71C79.4728 145.539 79.2455 145.256 79.2455 143.55C79.2455 142.186 79.5297 141.618 80.098 141.618C80.5526 141.618 80.9505 141.391 80.9505 141.106C80.9505 140.481 86.5198 138.037 91.2367 136.616C95.8961 135.196 105.387 134.059 108.626 134.571C110.9 134.912 111.07 135.026 111.014 136.731C111.014 138.208 110.559 138.776 108.399 140.197C106.922 141.164 105.103 142.811 104.307 143.891C102.659 146.107 103 145.937 107.717 142.073C111.867 138.719 122.323 131.9 127.21 129.399C131.643 127.126 131.643 127.126 131.358 121.159C131.188 117.863 130.62 113.771 130.108 112.067C129.597 110.361 129.028 107.975 128.858 106.837C128.575 104.678 128.575 104.678 130.563 104.678C131.814 104.678 132.665 105.019 132.893 105.531C133.12 106.099 132.836 106.384 132.041 106.384C131.132 106.384 130.961 106.611 131.246 107.407C132.268 110.134 133.235 115.817 133.576 121.329C133.803 124.683 134.03 127.41 134.086 127.41C134.144 127.41 137.042 126.387 140.566 125.137C150.908 121.444 160.967 120.25 169.378 121.785C173.811 122.58 183.813 125.819 183.813 126.445C183.813 126.786 182.393 126.842 180.516 126.615C173.924 125.877 175.174 126.899 184.779 130.138C194.213 133.377 194.213 133.377 196.997 137.526C205.522 150.143 209.216 165.771 207.738 182.99C207.397 186.854 207.227 190.207 207.397 190.492C207.568 190.719 207.227 191.514 206.659 192.254C206.091 192.993 204.897 195.436 204.044 197.595C200.18 207.371 192.735 217.373 184.95 223.169C183.073 224.59 176.823 228 176.141 228C175.97 228 176.88 226.465 178.186 224.59ZM202.851 155.768C201.657 151.108 195.747 138.89 194.497 138.322C194.213 138.208 194.043 137.81 194.043 137.469C194.043 137.072 193.473 136.446 192.792 135.992C190.746 134.685 175.856 129.684 172.788 129.229C169.89 128.831 169.89 128.831 169.89 126.445C169.89 124.057 169.89 124.057 166.253 123.659C161.081 123.091 153.579 123.716 148.578 125.137C143.293 126.615 135.451 129.684 135.735 130.196C136.189 130.877 147.555 136.162 151.363 137.469C152.784 137.924 156.818 139.572 160.228 141.164C168.242 144.744 168.355 144.8 178.415 149.005C183.131 150.938 187.962 152.984 189.212 153.553C190.462 154.121 193.531 155.371 196.032 156.394C198.532 157.36 201.203 158.496 201.999 158.895C202.794 159.292 203.476 159.576 203.59 159.463C203.704 159.405 203.363 157.757 202.851 155.768Z" fill="url(#paint0_linear_248_4059)"/>
<path d="M32.0766 160.994C31.4515 159.802 31.281 150.709 31.8494 148.606C32.0766 147.867 32.5881 147.299 32.9859 147.299C33.6111 147.299 33.7815 148.776 33.7815 154.687C33.7815 161.904 33.3837 163.382 32.0766 160.994Z" fill="#666666"/>
<path d="M32.3608 143.548C33.2701 135.99 37.646 122.407 39.3509 121.839C40.5443 121.441 40.1465 124.624 38.328 129.17C36.623 133.603 34.3498 142.753 34.3498 145.31C34.3498 146.39 34.0657 146.731 33.1564 146.731C32.0198 146.731 31.963 146.56 32.3608 143.548Z" fill="#666666"/>
<path d="M40.6011 118.374C40.6011 118.09 41.9082 115.93 43.4425 113.544C46.6819 108.769 51.1146 104.507 56.1725 101.382C59.5823 99.2787 59.5823 99.2787 57.5932 98.9376C56.5135 98.7106 56.1157 98.5401 56.684 98.4836C57.1954 98.4836 57.65 98.0284 57.65 97.5745C57.65 96.9487 58.2752 96.7217 59.9233 96.7217C62.1397 96.7217 62.1965 96.7781 62.1965 98.7106C62.1965 100.131 61.9123 100.87 61.2304 101.097C60.662 101.325 59.8665 101.836 59.4687 102.235C59.0709 102.632 58.332 102.973 57.8774 102.973C57.4228 102.973 57.0818 103.257 57.0818 103.541C57.0818 103.882 56.7408 104.109 56.2861 104.109C55.8315 104.109 55.3769 104.507 55.1496 104.962C54.9791 105.416 54.2972 105.815 53.672 105.815C53.0469 105.815 52.5353 106.155 52.5353 106.554C52.5353 107.463 47.8754 112.065 46.9661 112.065C46.5683 112.065 46.2841 112.577 46.2841 113.203C46.2841 113.827 46.0567 114.339 45.7158 114.339C45.4316 114.339 45.1474 114.736 45.1474 115.191C45.1474 115.645 44.9202 116.044 44.636 116.044C44.3518 116.044 43.9541 116.669 43.7835 117.465C43.4995 118.487 43.0447 118.885 42.0218 118.885C41.2262 118.885 40.6011 118.658 40.6011 118.374Z" fill="#666666"/>
<path d="M142.327 105.474C142.327 104.565 143.009 104.224 146.192 103.712C151.079 102.86 157.216 101.155 158.013 100.417C158.354 100.132 160.002 99.2228 161.706 98.4264C163.411 97.6314 164.889 96.8363 164.945 96.608C165.059 96.3247 165.4 96.1541 165.685 96.1541C165.968 96.1541 166.651 95.6988 167.219 95.1308C168.071 94.278 168.128 93.9369 167.56 93.4265C167.162 93.0277 166.309 92.7443 165.627 92.7443C165.003 92.7443 164.491 92.516 164.491 92.1762C164.491 91.8915 163.979 91.6068 163.411 91.6068C161.706 91.6068 160.513 90.9822 160.513 90.1298C160.513 89.6751 159.945 89.3341 159.149 89.3341C158.354 89.3341 157.387 88.9931 156.989 88.5385C156.535 88.1408 155.625 87.5724 154.944 87.402C154.262 87.1746 153.694 86.6063 153.694 86.1517C153.694 85.6971 153.238 85.3561 152.67 85.3561C151.534 85.3561 148.578 82.5713 148.578 81.4916C148.578 81.0938 148.351 80.8096 148.01 80.8096C147.725 80.8096 147.442 80.0709 147.442 79.1047C147.442 78.0818 147.157 77.3999 146.703 77.3999C146.021 77.3999 143.464 70.0119 143.464 68.0229C143.464 67.5683 143.236 67.1705 142.953 67.1705C142.668 67.1705 141.986 66.0338 141.361 64.6131C140.793 63.1923 140.167 62.0558 139.94 62.0558C139.656 62.0558 139.485 61.5442 139.485 60.9191C139.485 60.2939 139.145 59.7826 138.746 59.7826C137.837 59.7826 134.939 56.8273 134.939 55.9182C134.939 55.5202 134.427 55.2361 133.803 55.2361C133.177 55.2361 132.665 55.0088 132.665 54.7815C132.665 54.5541 131.756 53.9859 130.677 53.5881C129.597 53.1902 128.688 52.5082 128.688 52.0536C128.688 51.5422 128.063 51.2581 126.983 51.2581C126.074 51.2581 125.278 51.0875 125.278 50.8033C125.278 50.5761 123.971 50.0646 122.323 49.6668C118.97 48.8712 116.186 46.598 116.186 44.6657C116.186 43.7564 115.787 43.3018 114.936 43.1882C114.083 43.0744 113.571 42.563 113.457 41.7675C113.344 41.0286 112.889 40.4603 112.435 40.4603C111.98 40.4603 111.639 40.0626 111.639 39.6078C111.639 39.1532 111.412 38.7555 111.071 38.7555C110.786 38.7555 110.502 38.2439 110.502 37.6188C110.502 35.9139 112.377 36.198 113.457 38.0735C115.219 41.0855 121.243 47.1663 122.835 47.5073C123.744 47.7345 126.813 49.0416 129.711 50.4624C138.975 54.952 143.406 60.6919 147.101 72.9671C148.351 77.0589 149.033 78.4228 151.42 81.037C154.603 84.5036 160.854 88.3681 167.56 91.096C169.946 92.0621 171.879 93.1418 171.879 93.4829C171.879 94.8461 166.934 98.597 162.047 100.927C156.592 103.542 150.397 105.474 145.339 106.157C142.611 106.496 142.327 106.44 142.327 105.474Z" fill="#666666"/>
<path d="M49.1257 98.5389C49.1257 98.2542 49.9781 97.0616 51.001 95.8113C52.024 94.6174 54.0699 91.9463 55.4906 89.8439C56.9114 87.798 58.5026 85.8089 59.0141 85.4111C59.8097 84.7292 59.9235 84.8997 59.9235 86.775C59.9235 88.3663 59.6393 88.9345 58.7868 89.1619C58.1616 89.3325 57.6502 89.9576 57.6502 90.5258C57.6502 91.151 57.4228 91.6052 57.0819 91.6052C56.7977 91.6052 56.5135 92.004 56.5135 92.458C56.5135 92.9132 56.2863 93.3107 55.9453 93.3107C55.6611 93.3107 55.377 93.7083 55.377 94.1635C55.377 94.6174 54.8656 95.015 54.2404 95.015C53.3879 95.015 53.1037 95.4138 53.1037 96.4358C53.1037 97.2322 52.6491 98.0836 52.024 98.4248C50.6601 99.107 49.1257 99.1634 49.1257 98.5389Z" fill="#666666"/>
<path d="M62.1965 82.4558C64.5833 80.353 69.6982 76.8296 70.2664 76.8296C70.5505 76.8296 70.7211 77.4547 70.7211 78.2503C70.7211 79.1596 70.3801 79.671 69.8686 79.671C69.414 79.671 69.0162 79.9552 69.0162 80.2394C69.0162 80.5804 68.6183 80.8077 68.1637 80.8077C67.7091 80.8077 67.3112 81.0919 67.3112 81.3759C67.3112 81.7169 66.6861 81.9443 65.8904 81.9443C64.8675 81.9443 64.4697 82.2284 64.4697 83.0808C64.4697 84.047 64.0719 84.2175 62.367 84.2175C60.2074 84.1607 60.2074 84.1607 62.1965 82.4558Z" fill="#666666"/>
<path d="M128.346 80.5249C122.153 77.3992 118.799 71.8867 120.505 67.5108C121.073 65.9763 124.369 66.3173 125.278 67.9654C126.245 69.784 129.654 72.1709 135.394 75.0691C140.054 77.3992 140.054 77.3992 140.054 79.6724C140.054 81.9457 140.054 81.9457 135.621 81.9457C132.041 81.9457 130.676 81.6615 128.346 80.5249Z" fill="#666666"/>
<path d="M71.2895 76.8305C71.2895 76.5463 72.0851 75.8643 72.9944 75.4097C74.8698 74.4436 74.9266 74.5572 72.0851 70.5791C69.8688 67.3967 68.0501 63.8733 66.6862 59.9519C65.6633 56.9399 65.6633 56.9399 67.0272 56.9399C68.1071 56.9399 68.448 57.3945 69.0731 59.7815C69.471 61.3727 69.9824 62.623 70.2097 62.623C70.4371 62.623 71.0621 63.7595 71.6873 65.1802C72.2556 66.6011 72.8808 67.7377 73.1649 67.7377C73.3922 67.7377 73.5627 68.1354 73.5627 68.5902C73.5627 69.0448 73.8469 69.4426 74.1309 69.4426C74.4719 69.4426 74.6993 69.9541 74.6993 70.5791C74.6993 71.2043 75.0971 71.7158 75.5518 71.7158C76.12 71.7158 76.4042 72.3409 76.4042 73.7049C76.4042 74.7846 76.1769 75.6939 75.8358 75.6939C75.5518 75.6939 75.2676 76.0917 75.2676 76.5463C75.2676 77.1146 74.6425 77.3988 73.2785 77.3988C72.1988 77.3988 71.2895 77.1715 71.2895 76.8305Z" fill="#666666"/>
<path d="M198.874 64.7813C196.032 61.7693 196.032 61.7693 199.044 64.6108C200.634 66.1452 201.999 67.5091 201.999 67.5659C201.999 68.0206 201.487 67.5091 198.874 64.7813Z" fill="#666666"/>
<path d="M56.2865 201.345C54.1838 199.015 53.5587 185.887 55.0931 176.396C59.0143 152.187 80.553 134.229 105.728 134.229C111.071 134.229 111.071 134.229 111.071 136.218C111.071 137.582 110.673 138.548 109.82 139.23C106.468 141.957 104.251 144.06 104.251 144.628C104.251 144.97 104.648 144.685 105.16 144.004C105.615 143.322 106.354 142.754 106.695 142.754C107.093 142.754 107.717 142.242 108.116 141.616C108.514 140.992 109.025 140.48 109.366 140.48C109.65 140.48 110.559 139.854 111.412 139.059C112.264 138.264 113.288 137.638 113.685 137.638C114.139 137.638 114.48 137.411 114.48 137.127C114.48 136.217 131.246 126.273 132.78 126.273C133.007 126.273 133.235 126.67 133.235 127.126C133.235 128.262 133.632 128.205 138.122 126.386C146.987 122.749 150.852 122.01 161.366 122.01C170.97 122.067 171.084 122.067 176.994 124.113C182.961 126.159 182.961 126.159 177.107 126.215C171.084 126.273 169.719 127.011 174.55 127.58C176.085 127.75 181.142 129.227 185.803 130.933C194.326 133.945 194.326 133.945 196.486 137.07C200.066 142.298 203.59 150.085 205.125 156.335C205.92 159.574 206.488 162.644 206.374 163.155C206.147 163.895 206.091 163.895 206.034 163.042C206.034 162.474 205.693 162.189 205.352 162.36C205.067 162.587 203.476 162.133 201.828 161.336C200.18 160.541 196.827 159.064 194.326 158.097C191.826 157.132 188.757 155.825 187.507 155.255C186.257 154.687 181.426 152.642 176.709 150.709C166.651 146.505 166.536 146.447 158.524 142.867C155.114 141.275 151.079 139.627 149.658 139.173C147.157 138.321 143.123 136.502 135.848 132.978C134.03 132.125 132.155 131.387 131.7 131.387C131.188 131.387 130.961 131.046 131.132 130.592C131.359 130.024 131.188 129.853 130.677 130.08C130.223 130.251 129.996 130.648 130.223 130.989C130.393 131.33 130.279 131.387 129.881 131.16C128.517 130.307 114.48 139.514 104.307 148.038C101.75 150.141 99.5909 151.846 99.4203 151.846C99.0792 151.846 99.6473 148.777 100.329 146.334C101.182 143.549 104.024 140.025 106.866 138.264C109.366 136.615 109.366 136.615 107.717 136.388C102.944 135.706 88.566 138.718 89.1344 140.309C89.3048 140.707 89.248 141.048 88.9638 141.048C88.7366 141.048 87.3726 142.64 86.0086 144.572C83.7923 147.755 75.6088 157.927 74.6995 158.665C74.529 158.836 72.881 160.768 71.0056 162.928C60.2646 175.772 58.3324 177.647 58.162 175.317C58.1051 174.749 57.7642 175.942 57.3094 177.988C56.3434 182.648 56.3434 192.934 57.3094 198.334C57.7074 200.55 57.821 202.424 57.6504 202.424C57.4232 202.424 56.8549 201.97 56.2865 201.345Z" fill="url(#paint1_linear_248_4059)"/>
<path d="M32.3608 144.914C33.1564 138.946 35.0318 131.616 37.1913 125.989C39.5214 120.079 44.1247 112.067 46.2841 110.078C47.4776 108.998 47.4776 108.998 47.3071 111.214C47.1935 113.089 46.9093 113.544 45.8864 113.657C44.8634 113.827 44.5792 114.226 44.5792 115.533C44.5792 116.613 44.2951 117.181 43.7269 117.181C43.2721 117.181 42.8744 117.692 42.8744 118.317C42.8744 119.681 40.5443 124.568 39.9192 124.568C39.6919 124.568 39.4646 125.194 39.4646 125.989C39.4646 126.786 39.2372 127.41 38.8962 127.41C38.6122 127.41 38.328 127.808 38.328 128.263C38.328 128.717 37.646 131.332 36.8503 134.059C36.0548 136.844 35.1454 141.049 34.7477 143.494C34.2363 147.187 33.9521 147.869 33.0428 147.869C32.0766 147.869 32.0198 147.586 32.3608 144.914Z" fill="#999999"/>
<path d="M130.961 117.578C130.961 116.556 130.449 113.77 129.825 111.44C129.199 109.11 128.688 106.553 128.688 105.701C128.688 104.109 128.688 104.109 132.95 104.109C136.815 104.109 137.213 104.223 137.213 105.247C137.213 106.269 136.815 106.383 133.803 106.383C130.507 106.383 130.393 106.439 130.961 107.519C131.643 108.769 133.235 116.498 133.235 118.374C133.235 119.056 132.837 119.454 132.097 119.454C131.188 119.454 130.961 119.056 130.961 117.578Z" fill="#999999"/>
<path d="M50.8305 105.53C51.2283 105.075 53.3879 103.485 55.6042 102.007C57.8207 100.586 59.8097 99.2226 60.037 99.052C60.2643 98.8251 58.7298 98.7673 56.5704 98.8815C53.1038 99.1084 52.5922 98.9956 52.365 98.0864C52.1376 97.1195 52.0808 97.1195 52.024 98.0287C51.9671 98.6545 51.5125 98.9956 50.5463 98.9956C48.8415 98.9956 48.8983 98.8251 51.9671 94.8459C53.0469 93.3686 54.1835 92.176 54.4677 92.176C54.6949 92.176 54.8086 93.198 54.6949 94.4483C54.4677 96.722 54.4677 96.722 58.6162 96.722C62.7648 96.722 62.7648 96.722 62.7648 98.7109C62.7648 100.075 62.4807 100.7 61.9124 100.7C61.4578 100.7 61.0599 100.985 61.0599 101.268C61.0599 101.609 60.4347 101.836 59.6392 101.836C58.7298 101.836 58.2184 102.177 58.2184 102.689C58.2184 103.144 57.8207 103.542 57.3659 103.542C56.9113 103.542 56.5135 103.826 56.5135 104.11C56.5135 104.451 56.002 104.678 55.3769 104.678C54.7518 104.678 54.2403 105.075 54.2403 105.53C54.2403 106.155 53.6152 106.383 52.1944 106.383C50.4327 106.383 50.2054 106.269 50.8305 105.53Z" fill="#999999"/>
<path d="M140.054 105.416C140.054 104.394 140.566 104.223 143.976 103.882C148.124 103.541 158.581 100.416 159.831 99.1657C160.229 98.7669 161.366 98.4258 162.275 98.4258C163.355 98.4258 163.923 98.1424 163.923 97.5743C163.923 97.119 164.321 96.7215 164.776 96.7215C165.23 96.7215 165.627 96.4946 165.627 96.1534C165.627 95.8687 166.139 95.5854 166.765 95.5854C167.389 95.5854 167.901 95.2443 167.901 94.789C167.901 94.3351 167.389 93.767 166.765 93.5964C166.139 93.4259 165.627 92.9706 165.627 92.6859C165.627 92.4025 165.003 92.1756 164.206 92.1756C163.297 92.1756 162.787 91.8345 162.787 91.3227C162.787 90.8111 162.275 90.4701 161.422 90.4701C159.433 90.4701 158.24 89.9019 158.24 88.9926C158.24 88.538 157.671 88.197 156.819 88.197C155.966 88.197 155.398 87.8561 155.398 87.4013C155.398 86.8899 154.717 86.4921 153.864 86.3784C152.5 86.208 152.216 85.9238 152.102 84.2757C151.875 82.2866 151.875 82.2867 153.806 83.7643C156.876 86.0942 162.502 89.1632 167.048 91.0953C169.378 92.0614 171.425 93.027 171.595 93.3117C172.22 94.2773 167.219 98.1424 161.934 100.756C155.853 103.712 149.999 105.474 143.862 106.098C140.338 106.496 140.054 106.439 140.054 105.416Z" fill="#999999"/>
<path d="M56.0591 89.2205C58.3891 85.8106 63.106 81.4916 67.5956 78.5932C70.0394 77.0019 72.3125 75.695 72.7103 75.695C73.1082 75.695 73.7332 75.297 74.1311 74.8424C74.6425 74.2173 74.5289 73.649 73.3922 72.1714C69.8688 67.5681 65.0951 57.1114 65.8907 55.8044C66.0612 55.4634 66.5726 55.2361 67.0274 55.2361C67.8797 55.2361 70.153 61.4305 70.153 63.8743C70.153 65.0677 70.4371 65.4655 71.2895 65.4655C72.0283 65.4655 72.5398 65.977 72.7672 66.8862C72.9376 67.6819 73.3354 68.307 73.6196 68.307C73.9037 68.307 74.1311 68.7048 74.1311 69.1594C74.1311 69.6142 74.4151 70.0119 74.6993 70.0119C75.0403 70.0119 75.2677 70.5233 75.2677 71.1485C75.2677 71.7736 75.6086 72.285 76.0632 72.285C77.0294 72.285 77.5409 73.5353 77.5409 75.7518C77.5409 77.1157 77.3135 77.3999 76.1202 77.3999C74.6993 77.3999 70.5508 79.1048 70.2666 79.8435C70.153 80.0708 69.6984 80.2413 69.2437 80.2413C68.7891 80.2413 68.4481 80.5255 68.4481 80.8097C68.4481 81.1506 68.1071 81.3779 67.6524 81.3779C67.1978 81.3779 66.7432 81.7758 66.5158 82.2304C66.3454 82.685 65.6634 83.0828 65.0383 83.0828C64.4131 83.0828 63.9016 83.4237 63.9016 83.8217C63.9016 84.9014 60.3214 88.1976 59.1847 88.1976C58.5597 88.1976 58.2187 88.6522 58.2187 89.6183C58.2187 90.8117 57.9345 91.039 56.4569 91.039C54.752 91.039 54.752 91.039 56.0591 89.2205Z" fill="#999999"/>
<path d="M131.985 82.1156C131.075 82.0019 130.393 81.6041 130.393 81.3199C130.393 81.0357 129.767 80.8085 128.972 80.8085C128.176 80.8085 127.551 80.5811 127.551 80.2401C127.551 79.956 127.154 79.6718 126.699 79.6718C126.245 79.6718 125.846 79.4446 125.846 79.1036C125.846 78.8194 125.506 78.5352 125.107 78.5352C124.312 78.5352 121.868 76.0348 121.868 75.1823C121.868 74.8981 121.585 74.5571 121.186 74.4435C120.846 74.3298 120.447 72.6818 120.277 70.6927C120.05 67.1692 120.05 67.1692 122.664 67.1692C124.539 67.1692 125.278 67.3966 125.278 67.9649C125.278 68.4195 125.677 68.8741 126.131 69.1015C126.586 69.272 126.983 69.7834 126.983 70.2949C126.983 70.7495 127.495 71.1473 128.12 71.1473C128.745 71.1473 129.256 71.3747 129.256 71.6589C129.256 71.9429 129.881 72.3408 130.677 72.5112C131.7 72.7954 132.097 73.25 132.097 74.2729C132.097 75.0687 131.87 75.6938 131.586 75.6938C130.506 75.6938 124.312 71.0905 123.574 69.7266C122.38 67.5102 121.585 69.3856 122.664 71.8861C124.369 76.0916 130.847 80.2401 135.565 80.2401C138.975 80.2401 139.429 79.5582 136.928 78.3647C134.485 77.2281 134.371 76.262 136.645 76.262C139.656 76.262 141.191 77.3418 141.191 79.5014C141.191 81.2063 141.02 81.3767 139.486 81.3767C138.576 81.3767 137.781 81.6609 137.781 81.945C137.781 82.5134 135.053 82.5702 131.985 82.1156Z" fill="#999999"/>
<path d="M148.01 81.3191C148.01 80.9782 147.613 80.353 147.157 79.8984C146.703 79.3869 146.306 78.4208 146.306 77.682C146.306 76.9432 146.135 76.2613 145.851 76.1476C145.226 75.8635 142.896 68.1914 142.896 66.3729C142.896 63.2471 144.316 65.2931 146.362 71.2602C147.442 74.6132 149.033 78.3639 149.886 79.6143C151.42 81.9443 151.42 81.9443 149.716 81.9443C148.806 81.9443 148.01 81.6601 148.01 81.3191Z" fill="#999999"/>
<path d="M140.054 62.3963C140.054 61.9417 139.77 61.487 139.428 61.3734C139.087 61.2597 138.917 60.2936 139.031 59.2139C139.201 57.2248 139.201 57.2248 141.078 59.7253C143.293 62.7373 143.35 63.1919 141.475 63.1919C140.622 63.1919 140.054 62.8509 140.054 62.3963Z" fill="#999999"/>
<path d="M133.235 55.2343C133.235 54.9501 132.837 54.6659 132.382 54.6659C131.927 54.6659 131.529 54.1545 131.529 53.5294C131.529 52.6769 131.132 52.3928 129.995 52.3928C129.199 52.3928 126.642 51.7109 124.368 50.8583C120.902 49.5512 120.164 49.0398 120.164 48.0169C120.164 46.7098 120.164 46.7098 124.312 48.1873C128.631 49.7786 135.394 53.4726 136.644 54.8933C137.269 55.6889 137.098 55.8026 135.28 55.8026C134.144 55.8026 133.235 55.5752 133.235 55.2343Z" fill="#999999"/>
<path d="M89.0205 45.8014C87.5996 44.8352 87.3156 43.3008 88.5658 43.3008C89.0205 43.3008 89.4751 42.903 89.7024 42.4484C89.8729 41.9938 90.3275 41.5959 90.7254 41.5959C91.1232 41.5959 92.1466 41.1981 93.0558 40.8003C93.9073 40.3457 94.5895 40.1751 94.5895 40.4025C94.5895 40.6867 96.0668 41.0845 97.8865 41.2549C99.6471 41.4255 103.115 41.9369 105.558 42.2778C109.934 42.9598 109.934 42.9598 109.934 44.8352C109.934 46.7106 109.934 46.7106 100.102 46.7106C92.1466 46.7106 90.0434 46.5401 89.0205 45.8014Z" fill="#999999"/>
<path d="M115.447 45.1767C115.219 45.0062 115.048 44.2106 115.048 43.4718C115.048 42.5057 114.708 42.1647 113.856 42.1647C113.173 42.1647 112.548 41.7101 112.378 41.0282C112.208 40.403 111.867 39.8915 111.582 39.8915C111.297 39.8915 111.07 39.1527 111.07 38.1866C111.07 37.2774 111.297 36.4817 111.526 36.4817C111.809 36.4817 113.288 38.073 114.821 40.0052C119.538 46.0291 119.311 45.5745 117.436 45.5745C116.527 45.5745 115.618 45.4041 115.447 45.1767Z" fill="#999999"/>
<path d="M56.3434 201.29C55.5478 200.38 54.6385 199.585 54.4113 199.585C53.3883 199.585 50.4331 195.777 49.5238 193.334C47.4779 187.65 46.8528 183.446 46.8528 174.579C46.8528 161.281 49.2396 151.905 55.6046 140.254C61.3445 129.684 71.9718 117.749 80.7236 111.953C86.8612 107.861 95.8976 103.712 102.262 102.008C107.263 100.7 109.082 100.53 117.322 100.473C124.88 100.473 127.04 100.644 128.404 101.382C131.018 102.747 136.928 104.11 140.395 104.11C142.668 104.11 143.464 104.338 143.464 104.906C143.464 106.157 140.566 106.554 135.11 106.099C130.449 105.701 130.223 105.701 130.62 106.725C131.984 110.191 132.78 114.907 133.064 121.217C133.405 128.377 133.405 128.377 128.348 131.047C121.641 134.627 114.936 139.117 108.058 144.688C99.3638 151.734 99.705 151.507 99.705 150.597C99.705 146.619 103.398 140.652 107.377 138.208C108.457 137.527 109.366 136.731 109.366 136.447C109.366 135.651 102.603 135.821 97.5455 136.787C76.7455 140.766 60.1511 157.587 56.7981 178.103C55.491 186.173 55.8888 196.971 57.7073 201.233C58.5598 203.222 57.9915 203.279 56.3434 201.29Z" fill="#CCCCCC"/>
<path d="M32.6454 162.133C31.7361 160.371 31.9634 159.235 33.2136 159.235C34.1229 159.235 34.3503 159.632 34.3503 161.224C34.3503 163.439 33.5546 163.837 32.6454 162.133Z" fill="#CCCCCC"/>
<path d="M32.0769 149.175C32.0769 146.277 33.725 137.356 35.2025 132.354C36.9074 126.5 39.6921 120.022 40.5446 120.022C41.6811 120.022 41.1697 122.977 39.1807 127.921C36.7938 133.888 35.0321 141.049 34.5206 146.618C34.2364 150.086 34.0092 150.71 33.1567 150.71C32.3611 150.71 32.0769 150.313 32.0769 149.175Z" fill="#CCCCCC"/>
<path d="M40.6013 119.114C40.6013 118.317 44.1249 112.748 45.9434 110.646C47.9324 108.373 47.9324 108.373 47.9892 110.532C47.9892 112.238 47.8188 112.635 46.8527 112.635C46.0002 112.635 45.7161 113.033 45.7161 114.056C45.7161 114.965 45.3752 115.477 44.8636 115.477C44.409 115.477 44.0112 115.987 44.0112 116.557C44.0112 118.546 43.3292 119.455 41.9652 119.455C41.2265 119.455 40.6013 119.284 40.6013 119.114Z" fill="#CCCCCC"/>
<path d="M50.0349 106.325C50.6032 105.644 53.3878 103.598 56.1725 101.779C60.321 99.0517 61.003 98.4259 59.7528 98.4259C58.9003 98.4259 58.2183 98.1989 58.2183 97.9156C58.2183 97.2333 59.696 96.7217 61.6849 96.7217C63.1626 96.7217 63.333 96.8922 63.333 98.6542C63.333 100.643 62.5943 101.268 60.4348 101.268C59.8664 101.268 59.355 101.665 59.355 102.12C59.355 102.576 58.9571 102.973 58.5025 102.973C58.0479 102.973 57.65 103.257 57.65 103.541C57.65 103.882 57.2522 104.109 56.7976 104.109C56.343 104.109 55.9451 104.394 55.9451 104.677C55.9451 105.019 55.4905 105.246 54.8654 105.246C54.2972 105.246 53.672 105.757 53.5014 106.383C53.2741 107.292 52.7059 107.519 51.0578 107.519C48.9551 107.519 48.9551 107.519 50.0349 106.325Z" fill="#CCCCCC"/>
<path d="M144.6 104.79C144.6 103.654 146.76 102.972 150.454 102.972C151.307 102.972 151.988 102.745 151.988 102.404C151.988 102.119 152.784 101.836 153.694 101.836C154.659 101.836 155.398 101.607 155.398 101.266C155.398 100.983 156.024 100.698 156.819 100.698C157.615 100.698 158.24 100.471 158.24 100.13C158.24 99.8453 159.036 99.5619 159.945 99.5619C161.025 99.5619 161.649 99.2772 161.649 98.7655C161.649 97.8563 162.843 97.2882 164.832 97.2882C165.798 97.2882 166.197 96.9471 166.197 96.1521C166.197 95.2993 166.594 95.0146 167.674 95.0146C168.981 95.0146 169.037 94.9018 168.242 94.1632C167.787 93.7079 167.106 93.3104 166.707 93.3104C166.253 93.3104 164.832 92.9128 163.525 92.4012C161.876 91.719 161.081 91.0939 161.081 90.412C161.081 89.5596 160.626 89.3322 159.092 89.3322C157.728 89.3322 157.103 89.0481 157.103 88.4797C157.103 87.9683 156.592 87.6273 155.683 87.6273C154.546 87.6273 154.262 87.3432 154.262 86.2066C154.262 85.4109 154.376 84.7859 154.546 84.7859C154.717 84.7859 156.819 85.9225 159.263 87.2864C161.649 88.7071 165.344 90.5257 167.503 91.3779C169.606 92.2306 171.311 93.254 171.311 93.6515C171.311 94.9018 166.707 98.368 161.99 100.642C157.274 102.915 151.307 104.846 147.045 105.529C144.885 105.87 144.6 105.813 144.6 104.79Z" fill="#CCCCCC"/>
<path d="M49.6941 98.4242C49.6941 98.1408 50.376 97.0611 51.2854 96.0377C52.1378 95.0144 53.7858 92.7421 54.9793 90.9801C56.1727 89.2184 57.6504 87.2862 58.2186 86.7746C59.3553 85.7517 59.3553 85.8086 59.3553 87.8545C59.3553 89.5025 59.1279 90.0708 58.2186 90.2982C57.5934 90.4686 57.082 91.0937 57.082 91.6623C57.082 92.2868 56.8547 92.7421 56.5705 92.7421C56.2864 92.7421 55.8885 93.3666 55.7181 94.163C55.4339 95.185 54.9793 95.5838 53.9564 95.5838C53.1607 95.5838 52.5355 95.8672 52.5355 96.1519C52.5355 96.493 53.3312 96.72 54.2406 96.72C56.2864 96.72 56.5705 98.1408 54.6952 98.6525C52.7061 99.1642 49.6941 99.05 49.6941 98.4242Z" fill="#CCCCCC"/>
<path d="M61.6284 83.3669C61.6284 82.8554 68.7322 77.8544 71.4032 76.4905C73.0513 75.6949 74.472 75.297 75.0972 75.5243C76.0633 75.9221 76.0633 75.8653 75.154 74.5582C69.6983 66.8293 66.2885 59.6687 65.7771 54.9518C65.6634 53.7015 65.4361 49.212 65.2656 44.9497C64.9814 37.164 64.9814 37.164 70.5508 38.2439C76.2338 39.2668 83.6218 41.3695 84.6447 42.1651C84.9857 42.4492 86.2359 42.7902 87.4862 43.0176C88.7365 43.2448 90.1004 43.6995 90.4982 44.0405C90.8959 44.3247 91.7479 44.6657 92.4866 44.7225C93.1688 44.7793 94.078 44.8929 94.4768 44.9497C95.7835 45.0634 95.1577 46.4842 93.3393 47.5639C92.089 48.3027 90.0436 48.7006 86.9178 48.871C82.9398 49.0984 81.8031 48.9278 78.6775 47.6777C76.6884 46.8251 74.9835 46.2568 74.8699 46.3706C74.5858 46.6546 79.9846 54.4404 83.508 58.93C85.8381 61.8852 86.6336 63.3627 86.6336 64.7266C86.6336 66.4883 86.52 66.6021 84.5878 66.6021C82.2009 66.6021 80.7234 67.284 78.2797 69.6141C76.4611 71.319 75.8359 72.8533 76.9726 72.8533C77.3136 72.8533 77.541 73.7058 77.541 74.7856C77.541 76.4337 77.3136 76.8314 75.7791 77.3428C74.7562 77.6838 73.3355 77.968 72.6535 77.968C71.8011 77.968 71.2896 78.309 71.2896 78.8205C71.2896 79.2751 70.8918 79.6729 70.4371 79.6729C69.9825 79.6729 69.5847 79.9571 69.5847 80.2412C69.5847 80.5822 69.1869 80.8096 68.7322 80.8096C68.2776 80.8096 67.8798 81.0937 67.8798 81.3778C67.8798 81.7188 67.3683 81.9461 66.7432 81.9461C66.1181 81.9461 65.6065 82.3439 65.6065 82.7986C65.6065 83.3669 64.9814 83.651 63.6175 83.651C62.5377 83.651 61.6284 83.5374 61.6284 83.3669Z" fill="#CCCCCC"/>
<path d="M130.564 81.8877C129.54 81.6036 128.687 81.092 128.687 80.8079C128.687 80.4669 128.177 80.2396 127.551 80.2396C126.927 80.2396 126.415 80.0123 126.415 79.6713C126.415 79.3871 126.018 79.103 125.562 79.103C124.994 79.103 124.71 78.5347 124.71 77.3981C124.71 75.8637 124.539 75.6932 123.005 75.6932C121.697 75.6932 121.3 75.4658 121.3 74.5566C121.3 73.9315 121.073 73.4199 120.732 73.4199C120.447 73.4199 120.164 72.5107 120.164 71.431C120.164 70.3511 120.447 69.4419 120.732 69.4419C121.073 69.4419 121.3 68.8168 121.3 68.0211C121.3 66.7709 121.528 66.6003 123.289 66.6003C125.051 66.6003 125.335 66.7709 125.676 68.3052C125.903 69.4987 126.301 70.0101 127.097 70.0101C127.665 70.0101 128.29 70.4081 128.46 70.8626C128.687 71.3172 129.143 71.715 129.597 71.715C130.052 71.715 130.393 72.1129 130.393 72.5675C130.393 73.0221 130.905 73.4199 131.529 73.4199C132.894 73.4199 137.781 75.75 137.781 76.3751C137.781 76.6025 138.406 76.8298 139.201 76.8298C140.508 76.8298 140.622 77.0571 140.622 79.3303C140.622 81.433 140.395 81.8877 139.372 82.1718C137.497 82.6265 132.667 82.5127 130.564 81.8877ZM138.292 79.9555C139.428 79.6145 138.746 79.103 133.746 76.6593C129.825 74.727 126.927 72.8517 125.165 71.09C122.323 68.2484 121.528 68.3052 122.153 71.2604C122.891 74.5566 128.631 79.103 133.518 80.2964C135.224 80.6942 135.848 80.6374 138.292 79.9555Z" fill="#CCCCCC"/>
<path d="M147.442 79.6719C147.442 78.5353 147.157 77.967 146.589 77.967C146.021 77.967 145.736 77.3987 145.736 76.2621C145.736 75.3528 145.509 74.5571 145.282 74.5571C145.055 74.5571 144.088 72.284 143.179 69.4424C142.214 66.6578 141.304 64.3278 141.076 64.3278C140.793 64.3278 140.622 63.93 140.622 63.4754C140.622 63.0206 140.395 62.6229 140.054 62.6229C139.769 62.6229 139.486 62.2251 139.486 61.7705C139.486 61.3157 139.258 60.918 138.917 60.918C138.633 60.918 138.349 60.0086 138.349 58.8721C138.349 57.565 138.576 56.9966 138.974 57.2808C140.679 58.3037 144.203 65.0665 146.021 70.8064C147.157 74.2731 148.692 78.0807 149.487 79.274C150.852 81.3768 150.852 81.3768 149.146 81.3768C147.612 81.3768 147.442 81.2063 147.442 79.6719Z" fill="#CCCCCC"/>
<path d="M133.803 55.8036C133.803 55.5194 133.405 55.2353 132.95 55.2353C132.496 55.2353 132.099 55.0079 132.099 54.7807C132.099 54.5533 131.188 53.985 130.108 53.5872C129.029 53.1894 128.119 52.621 128.119 52.3369C128.119 52.0528 127.608 51.8255 126.983 51.8255C126.359 51.8255 125.847 51.5981 125.847 51.2571C125.847 50.973 125.335 50.6889 124.71 50.6889C124.085 50.6889 122.267 50.1774 120.619 49.5522C117.549 48.3589 109.82 47.279 104.421 47.279C102.205 47.279 101.409 47.0518 101.409 46.4834C101.409 46.0288 101.069 45.5173 100.728 45.4037C100.329 45.2331 101.921 45.0627 104.251 45.0059C108.513 44.8921 108.513 44.8921 104.535 44.1534C102.376 43.7556 98.8521 43.2442 96.749 43.0168C94.5895 42.7895 92.8853 42.3917 92.8853 42.1075C92.8853 41.8233 93.5097 40.63 94.2497 39.4365C94.9883 38.2999 95.7834 36.595 95.9539 35.6289C97.5453 26.7634 97.2042 27.218 100.841 29.1503C102.659 30.1164 105.729 32.1623 107.604 33.6966C109.537 35.2311 111.299 36.4813 111.582 36.4813C111.809 36.4813 112.718 37.4474 113.515 38.6409C114.31 39.7775 116.186 42.1643 117.777 43.8692C120.164 46.597 121.3 47.279 125.392 48.8703C129.938 50.5752 136.644 54.3829 137.44 55.7468C137.724 56.1446 137.156 56.3718 135.848 56.3718C134.712 56.3718 133.803 56.1446 133.803 55.8036Z" fill="#CCCCCC"/>
<path d="M51.5694 197.197C45.5455 191.003 34.9183 174.125 34.9183 170.828C34.9183 170.26 34.5773 168.783 34.1227 167.475C32.304 162.304 31.9063 158.724 32.2472 151.563C32.8724 139.458 35.2592 130.138 40.4307 119.625C44.5794 111.157 49.7509 105.701 58.446 100.473C61.8557 98.4275 61.8557 98.4275 55.7181 98.4275C49.5236 98.4275 49.5236 98.4275 51.058 96.5513C51.8536 95.5857 53.3881 93.4827 54.411 91.8913C59.0711 84.9013 69.0163 76.6609 73.7332 75.8654C74.8698 75.6948 75.8359 75.4106 75.8359 75.1833C75.8359 75.0129 75.2677 74.1035 74.5288 73.1943C73.2218 71.5463 73.2218 71.5463 75.4949 69.0457C78.2796 65.9768 79.3594 65.3517 82.5419 64.8971C84.9287 64.6129 84.9287 64.6129 81.8031 60.6348C75.6087 52.8491 69.4141 42.7333 70.2666 41.8241C70.4938 41.6536 73.2786 42.7333 76.5179 44.211C81.6895 46.6546 82.826 46.9956 86.0654 46.9956C88.7932 46.9956 90.2708 46.7114 91.4643 45.9159C92.9418 44.9497 93.7946 44.8929 101.068 45.2339C114.083 45.8591 118.629 46.4841 123.971 48.4732C136.645 53.1332 141.475 57.9638 145.68 70.2391C146.93 73.8194 148.237 77.3997 148.635 78.0817C150.681 82.1166 159.546 88.4248 167.503 91.6079C169.264 92.2888 170.913 93.1416 171.084 93.4263C172.22 95.2446 159.887 102.348 151.988 104.394C146.248 105.872 137.042 106.156 132.326 104.962C130.166 104.451 127.666 103.598 126.699 103.088C125.392 102.405 123.289 102.177 117.322 102.235C107.831 102.291 101.182 103.826 92.3737 108.087C84.3605 112.009 79.3026 115.419 73.3354 121.159C61.4011 132.582 52.6493 147.812 49.6373 162.361C48.2734 168.783 48.2164 180.092 49.4099 185.376C50.3761 189.525 52.8197 196.402 54.0132 198.335C55.3203 200.324 54.1268 199.812 51.5694 197.197ZM139.031 79.7866C139.316 79.5024 137.667 78.3658 134.598 76.8883C128.858 74.1603 124.369 71.0347 123.857 69.4434C123.403 68.0795 122.55 67.9659 122.096 69.1594C120.846 72.285 125.904 77.7975 132.041 80.0707C134.2 80.8663 138.122 80.6959 139.031 79.7866Z" fill="white"/>
</g>
<defs>
<linearGradient id="paint0_linear_248_4059" x1="17.0166" y1="15.171" x2="14.1751" y2="17.7284" gradientUnits="userSpaceOnUse">
<stop stop-color="#8D8E8D"/>
<stop offset="0.01" stop-color="#8B8C8B"/>
<stop offset="0.02" stop-color="#8A8C8A"/>
<stop offset="0.03" stop-color="#8A8B8A"/>
<stop offset="0.04" stop-color="#828382"/>
<stop offset="0.05" stop-color="#878987"/>
<stop offset="0.12" stop-color="#848584"/>
<stop offset="0.13" stop-color="#838583"/>
<stop offset="0.14" stop-color="#838483"/>
<stop offset="0.24" stop-color="#7D7E7D"/>
<stop offset="0.25" stop-color="#7C7E7C"/>
<stop offset="0.26" stop-color="#7C7D7C"/>
<stop offset="0.28" stop-color="#7B7C7B"/>
<stop offset="0.29" stop-color="#7A7C7A"/>
<stop offset="0.3" stop-color="#7A7B7A"/>
<stop offset="0.31" stop-color="#797B79"/>
<stop offset="0.37" stop-color="#777877"/>
<stop offset="0.38" stop-color="#767876"/>
<stop offset="0.92" stop-color="#616261"/>
<stop offset="0.93" stop-color="#5F605E"/>
<stop offset="0.94" stop-color="#5F5F5E"/>
<stop offset="0.98" stop-color="#5D5E5C"/>
<stop offset="1" stop-color="#5D5D5D"/>
</linearGradient>
<linearGradient id="paint1_linear_248_4059" x1="17.017" y1="15.1698" x2="14.1755" y2="17.7271" gradientUnits="userSpaceOnUse">
<stop stop-color="#8D8E8D"/>
<stop offset="0.01" stop-color="#8B8C8B"/>
<stop offset="0.02" stop-color="#8A8C8A"/>
<stop offset="0.03" stop-color="#8A8B8A"/>
<stop offset="0.04" stop-color="#828382"/>
<stop offset="0.05" stop-color="#878987"/>
<stop offset="0.12" stop-color="#848584"/>
<stop offset="0.13" stop-color="#838583"/>
<stop offset="0.14" stop-color="#838483"/>
<stop offset="0.24" stop-color="#7D7E7D"/>
<stop offset="0.25" stop-color="#7C7E7C"/>
<stop offset="0.26" stop-color="#7C7D7C"/>
<stop offset="0.28" stop-color="#7B7C7B"/>
<stop offset="0.29" stop-color="#7A7C7A"/>
<stop offset="0.3" stop-color="#7A7B7A"/>
<stop offset="0.31" stop-color="#797B79"/>
<stop offset="0.37" stop-color="#777877"/>
<stop offset="0.38" stop-color="#767876"/>
<stop offset="0.92" stop-color="#616261"/>
<stop offset="0.93" stop-color="#5F605E"/>
<stop offset="0.94" stop-color="#5F5F5E"/>
<stop offset="0.98" stop-color="#5D5E5C"/>
<stop offset="1" stop-color="#5D5D5D"/>
</linearGradient>
<clipPath id="clip0_248_4059">
<rect width="256" height="256" fill="white"/>
</clipPath>
</defs>
</svg>
