<svg width="256" height="256" viewBox="0 0 256 256" fill="none" xmlns="http://www.w3.org/2000/svg">
<g clip-path="url(#clip0_170_1363)">
<path d="M196 0H60C26.8629 0 0 26.8629 0 60V196C0 229.137 26.8629 256 60 256H196C229.137 256 256 229.137 256 196V60C256 26.8629 229.137 0 196 0Z" fill="#242938"/>
<path d="M205.408 189.81C205.465 188.445 205.693 184.808 205.976 181.683C207.341 166.68 203.476 151.335 195.293 139.231C192.508 135.082 192.508 135.082 183.075 131.956C173.641 128.831 173.641 128.831 173.584 126.728C173.584 124.682 173.526 124.626 170.628 124C161.82 122.068 153.238 122.92 142.27 126.842C138.748 128.092 135.053 129.116 134.087 129.116C132.268 129.116 132.268 129.116 131.87 122.921C131.7 119.511 131.017 114.736 130.393 112.35C128.348 104.394 127.892 104.848 137.951 104.507C147.442 104.224 151.761 103.257 159.206 99.847C164.093 97.5747 168.753 94.506 168.071 93.9366C167.844 93.7096 166.196 92.9146 164.491 92.2324C159.036 90.0727 152.67 85.9242 149.716 82.7416C147.328 80.1274 146.647 78.7635 145.397 74.6718C141.247 60.862 135.28 54.3266 122.721 49.8371C121.187 49.2687 118.913 47.9048 117.719 46.7683C114.48 43.7563 111.07 39.0962 111.07 37.7891C111.07 36.7093 111.526 36.5956 116.356 36.2546C134.485 35.0044 145.112 35.9136 157.785 39.8349C185.006 48.3594 205.693 66.3178 217.627 91.8349C225.981 109.679 228.482 132.468 224.39 152.984C223.083 159.69 219.786 169.18 216.605 175.715C213.137 182.763 207.114 192.196 206.147 192.196C205.635 192.196 205.408 191.343 205.408 189.81Z" fill="#333333"/>
<path d="M30.9971 156.848C29.4059 148.551 29.0081 143.834 29.0081 132.24C28.9513 121.556 29.1786 118.828 30.2016 113.486C34.0091 94.8456 42.8178 78.1381 55.8887 64.9536C62.14 58.5886 66.4023 54.6672 66.9706 54.6672C67.0843 54.6672 67.6526 56.0312 68.2208 57.6792C69.4711 61.6006 71.858 66.2039 74.3586 69.7273C75.7225 71.6027 76.4044 73.1939 76.4044 74.3874C76.4044 76.0923 76.1203 76.3764 73.1083 77.9108C66.4023 81.3206 61.0034 86.0944 56.0024 93.1978C53.1041 97.2898 53.1041 97.2898 57.0821 97.2898C61.0602 97.2898 61.0602 97.2898 61.0602 99.2223C61.0602 100.927 60.7193 101.325 58.503 102.632C57.0821 103.485 54.4111 105.474 52.479 107.007C41.3403 116.328 33.2704 136.957 33.2136 156.28C33.2136 158.951 33.043 159.803 32.4179 159.803C31.8496 159.803 31.3949 158.78 30.9971 156.848Z" fill="#333333"/>
<path d="M136.645 79.3875C136.645 77.5122 136.759 77.3984 138.633 77.3984C140.508 77.3984 140.622 77.5122 140.622 79.3875C140.622 81.263 140.508 81.3766 138.633 81.3766C136.759 81.3766 136.645 81.263 136.645 79.3875Z" fill="#333333"/>
<path d="M120.732 69.1584C120.732 67.2831 120.846 67.1693 122.721 67.1693C124.597 67.1693 124.71 67.2831 124.71 69.1584C124.71 71.0338 124.597 71.1475 122.721 71.1475C120.846 71.1475 120.732 71.0338 120.732 69.1584Z" fill="#333333"/>
<path d="M178.187 224.59C183.017 217.486 185.802 207.995 184.438 203.108C183.529 199.755 180.631 197.027 177.05 196.174C171.311 194.811 164.774 196.857 144.032 206.632C132.268 212.201 122.891 215.553 115.333 216.974C109.479 218.054 94.419 217.883 88.9068 216.633C75.7222 213.735 62.9354 208.109 57.9343 202.994C55.0929 200.096 55.0929 200.096 55.0929 188.901C55.0929 180.092 55.3203 176.795 56.1158 173.329C57.1388 168.896 57.1388 168.896 59.1278 168.896C60.6054 168.896 61.0601 169.124 61.0601 169.919C61.1169 170.714 61.3441 170.602 62.3672 169.408C70.4369 159.804 72.7102 157.189 72.9944 156.962C73.1648 156.792 75.3812 154.235 77.8249 151.279C82.2008 145.994 82.2576 145.88 80.7801 145.71C79.473 145.539 79.2456 145.256 79.2456 143.55C79.2456 142.186 79.5298 141.618 80.0981 141.618C80.5527 141.618 80.9506 141.391 80.9506 141.106C80.9506 140.482 86.5199 138.037 91.2368 136.617C95.8963 135.196 105.387 134.06 108.626 134.571C110.9 134.912 111.07 135.026 111.014 136.731C111.014 138.208 110.559 138.776 108.399 140.197C106.922 141.164 105.104 142.812 104.307 143.891C102.659 146.107 103.001 145.937 107.717 142.073C111.867 138.72 122.323 131.9 127.21 129.399C131.643 127.126 131.643 127.126 131.359 121.159C131.188 117.863 130.62 113.771 130.108 112.067C129.597 110.362 129.029 107.975 128.858 106.838C128.575 104.678 128.575 104.678 130.564 104.678C131.814 104.678 132.665 105.019 132.894 105.531C133.121 106.099 132.836 106.384 132.041 106.384C131.132 106.384 130.961 106.611 131.246 107.407C132.268 110.135 133.235 115.817 133.576 121.33C133.803 124.683 134.03 127.41 134.086 127.41C134.144 127.41 137.042 126.387 140.566 125.137C150.908 121.444 160.967 120.25 169.378 121.785C173.811 122.58 183.814 125.819 183.814 126.445C183.814 126.786 182.393 126.842 180.517 126.615C173.924 125.877 175.174 126.899 184.779 130.138C194.213 133.377 194.213 133.377 196.997 137.526C205.523 150.143 209.216 165.771 207.738 182.99C207.397 186.854 207.227 190.208 207.397 190.492C207.568 190.719 207.227 191.514 206.659 192.254C206.091 192.993 204.897 195.436 204.044 197.595C200.18 207.371 192.735 217.373 184.95 223.169C183.074 224.59 176.823 228 176.141 228C175.971 228 176.88 226.465 178.187 224.59ZM202.851 155.769C201.658 151.108 195.747 138.89 194.497 138.322C194.213 138.208 194.043 137.81 194.043 137.469C194.043 137.072 193.473 136.446 192.793 135.992C190.746 134.685 175.856 129.684 172.788 129.229C169.89 128.831 169.89 128.831 169.89 126.445C169.89 124.057 169.89 124.057 166.253 123.66C161.081 123.092 153.579 123.716 148.578 125.137C143.294 126.615 135.451 129.684 135.735 130.196C136.189 130.877 147.555 136.163 151.363 137.469C152.784 137.925 156.819 139.572 160.228 141.164C168.242 144.744 168.355 144.801 178.415 149.005C183.131 150.938 187.962 152.985 189.212 153.553C190.463 154.121 193.531 155.371 196.032 156.394C198.532 157.36 201.204 158.496 201.999 158.895C202.794 159.292 203.476 159.576 203.59 159.463C203.704 159.405 203.363 157.758 202.851 155.769Z" fill="url(#paint0_linear_170_1363)"/>
<path d="M32.0766 160.995C31.4515 159.802 31.281 150.709 31.8494 148.606C32.0766 147.867 32.5881 147.299 32.9859 147.299C33.6111 147.299 33.7815 148.776 33.7815 154.687C33.7815 161.904 33.3837 163.382 32.0766 160.995Z" fill="#666666"/>
<path d="M32.3609 143.548C33.2702 135.99 37.6461 122.407 39.351 121.839C40.5444 121.441 40.1466 124.624 38.3281 129.17C36.623 133.603 34.3499 142.753 34.3499 145.31C34.3499 146.39 34.0658 146.731 33.1564 146.731C32.0199 146.731 31.9631 146.56 32.3609 143.548Z" fill="#666666"/>
<path d="M40.6011 118.374C40.6011 118.09 41.9082 115.93 43.4425 113.544C46.6819 108.77 51.1146 104.507 56.1725 101.382C59.5823 99.2788 59.5823 99.2788 57.5932 98.9377C56.5135 98.7107 56.1157 98.5402 56.684 98.4838C57.1954 98.4838 57.65 98.0285 57.65 97.5746C57.65 96.9488 58.2752 96.7218 59.9233 96.7218C62.1397 96.7218 62.1965 96.7782 62.1965 98.7107C62.1965 100.132 61.9123 100.87 61.2304 101.097C60.662 101.325 59.8665 101.836 59.4687 102.235C59.0709 102.632 58.332 102.973 57.8774 102.973C57.4228 102.973 57.0818 103.257 57.0818 103.541C57.0818 103.882 56.7408 104.109 56.2861 104.109C55.8315 104.109 55.3769 104.507 55.1496 104.962C54.9791 105.416 54.2972 105.815 53.672 105.815C53.0469 105.815 52.5353 106.155 52.5353 106.554C52.5353 107.463 47.8754 112.065 46.9661 112.065C46.5683 112.065 46.2841 112.577 46.2841 113.203C46.2841 113.827 46.0567 114.339 45.7158 114.339C45.4316 114.339 45.1474 114.736 45.1474 115.192C45.1474 115.646 44.9202 116.044 44.636 116.044C44.3518 116.044 43.9541 116.669 43.7835 117.465C43.4995 118.487 43.0447 118.885 42.0218 118.885C41.2262 118.885 40.6011 118.658 40.6011 118.374Z" fill="#666666"/>
<path d="M142.327 105.474C142.327 104.565 143.009 104.224 146.192 103.712C151.079 102.86 157.216 101.155 158.012 100.417C158.354 100.132 160.001 99.2229 161.706 98.4265C163.411 97.6315 164.888 96.8364 164.945 96.6082C165.059 96.3248 165.4 96.1542 165.685 96.1542C165.968 96.1542 166.65 95.699 167.218 95.1309C168.071 94.2781 168.128 93.937 167.56 93.4266C167.162 93.0278 166.309 92.7444 165.627 92.7444C165.003 92.7444 164.491 92.5161 164.491 92.1763C164.491 91.8916 163.979 91.607 163.411 91.607C161.706 91.607 160.513 90.9823 160.513 90.1299C160.513 89.6752 159.945 89.3342 159.149 89.3342C158.354 89.3342 157.387 88.9933 156.989 88.5387C156.535 88.1409 155.625 87.5725 154.944 87.4021C154.262 87.1747 153.693 86.6064 153.693 86.1518C153.693 85.6972 153.238 85.3562 152.67 85.3562C151.534 85.3562 148.578 82.5715 148.578 81.4917C148.578 81.0939 148.351 80.8098 148.01 80.8098C147.725 80.8098 147.442 80.071 147.442 79.1049C147.442 78.0819 147.157 77.4 146.703 77.4C146.021 77.4 143.464 70.012 143.464 68.023C143.464 67.5684 143.236 67.1706 142.952 67.1706C142.668 67.1706 141.986 66.0339 141.361 64.6132C140.793 63.1925 140.167 62.0559 139.94 62.0559C139.655 62.0559 139.485 61.5444 139.485 60.9192C139.485 60.2941 139.145 59.7827 138.746 59.7827C137.837 59.7827 134.939 56.8275 134.939 55.9183C134.939 55.5204 134.427 55.2362 133.803 55.2362C133.177 55.2362 132.665 55.009 132.665 54.7816C132.665 54.5542 131.756 53.986 130.676 53.5882C129.597 53.1903 128.687 52.5084 128.687 52.0538C128.687 51.5424 128.063 51.2582 126.983 51.2582C126.074 51.2582 125.278 51.0876 125.278 50.8035C125.278 50.5762 123.971 50.0647 122.323 49.6669C118.97 48.8713 116.186 46.5981 116.186 44.6658C116.186 43.7565 115.787 43.3019 114.935 43.1883C114.083 43.0746 113.571 42.5632 113.457 41.7676C113.344 41.0287 112.889 40.4605 112.435 40.4605C111.98 40.4605 111.638 40.0627 111.638 39.608C111.638 39.1534 111.412 38.7556 111.07 38.7556C110.786 38.7556 110.502 38.244 110.502 37.6189C110.502 35.914 112.377 36.1982 113.457 38.0736C115.219 41.0856 121.243 47.1664 122.835 47.5074C123.744 47.7347 126.813 49.0418 129.711 50.4625C138.975 54.9522 143.406 60.692 147.101 72.9672C148.351 77.059 149.033 78.4229 151.42 81.0371C154.603 84.5037 160.854 88.3682 167.56 91.0961C169.946 92.0622 171.879 93.142 171.879 93.4831C171.879 94.8462 166.934 98.5971 162.047 100.927C156.592 103.542 150.396 105.474 145.339 106.157C142.611 106.496 142.327 106.44 142.327 105.474Z" fill="#666666"/>
<path d="M49.1256 98.539C49.1256 98.2543 49.978 97.0618 51.0009 95.8115C52.0239 94.6176 54.0698 91.9464 55.4905 89.844C56.9113 87.7981 58.5025 85.809 59.014 85.4113C59.8096 84.7293 59.9233 84.8999 59.9233 86.7752C59.9233 88.3665 59.6392 88.9347 58.7867 89.162C58.1615 89.3326 57.6501 89.9577 57.6501 90.5259C57.6501 91.1511 57.4227 91.6053 57.0818 91.6053C56.7976 91.6053 56.5134 92.0041 56.5134 92.4581C56.5134 92.9133 56.2862 93.3109 55.9452 93.3109C55.661 93.3109 55.3769 93.7084 55.3769 94.1636C55.3769 94.6176 54.8655 95.0151 54.2403 95.0151C53.3878 95.0151 53.1036 95.4139 53.1036 96.4359C53.1036 97.2323 52.649 98.0838 52.0239 98.4249C50.66 99.1071 49.1256 99.1635 49.1256 98.539Z" fill="#666666"/>
<path d="M62.1965 82.4558C64.5834 80.353 69.6982 76.8296 70.2664 76.8296C70.5506 76.8296 70.7211 77.4547 70.7211 78.2503C70.7211 79.1596 70.3802 79.671 69.8686 79.671C69.414 79.671 69.0163 79.9552 69.0163 80.2394C69.0163 80.5804 68.6183 80.8077 68.1637 80.8077C67.7092 80.8077 67.3112 81.0919 67.3112 81.3759C67.3112 81.7169 66.6862 81.9443 65.8905 81.9443C64.8676 81.9443 64.4698 82.2284 64.4698 83.0808C64.4698 84.047 64.072 84.2175 62.3671 84.2175C60.2075 84.1607 60.2075 84.1607 62.1965 82.4558Z" fill="#666666"/>
<path d="M128.346 80.5249C122.153 77.3992 118.799 71.8867 120.505 67.5108C121.073 65.9763 124.369 66.3173 125.278 67.9654C126.245 69.784 129.654 72.1709 135.394 75.0691C140.054 77.3992 140.054 77.3992 140.054 79.6724C140.054 81.9457 140.054 81.9457 135.621 81.9457C132.041 81.9457 130.676 81.6615 128.346 80.5249Z" fill="#666666"/>
<path d="M71.2894 76.8306C71.2894 76.5464 72.085 75.8645 72.9943 75.4099C74.8697 74.4437 74.9265 74.5574 72.085 70.5792C69.8687 67.3968 68.05 63.8734 66.6861 59.9521C65.6632 56.9401 65.6632 56.9401 67.0271 56.9401C68.107 56.9401 68.4479 57.3947 69.073 59.7816C69.4709 61.3728 69.9823 62.6231 70.2096 62.6231C70.437 62.6231 71.062 63.7596 71.6872 65.1804C72.2555 66.6012 72.8807 67.7378 73.1648 67.7378C73.3921 67.7378 73.5626 68.1356 73.5626 68.5903C73.5626 69.0449 73.8468 69.4427 74.1308 69.4427C74.4718 69.4427 74.6992 69.9542 74.6992 70.5792C74.6992 71.2044 75.097 71.7159 75.5517 71.7159C76.1199 71.7159 76.4041 72.3411 76.4041 73.705C76.4041 74.7847 76.1768 75.6941 75.8357 75.6941C75.5517 75.6941 75.2675 76.0918 75.2675 76.5464C75.2675 77.1148 74.6424 77.3989 73.2785 77.3989C72.1987 77.3989 71.2894 77.1716 71.2894 76.8306Z" fill="#666666"/>
<path d="M198.874 64.7813C196.032 61.7693 196.032 61.7693 199.044 64.6108C200.634 66.1452 201.999 67.5091 201.999 67.5659C201.999 68.0206 201.487 67.5091 198.874 64.7813Z" fill="#666666"/>
<path d="M56.2864 201.345C54.1837 199.015 53.5586 185.887 55.093 176.396C59.0142 152.187 80.5528 134.229 105.728 134.229C111.07 134.229 111.07 134.229 111.07 136.218C111.07 137.582 110.673 138.548 109.82 139.23C106.468 141.957 104.251 144.061 104.251 144.629C104.251 144.97 104.648 144.685 105.16 144.004C105.615 143.322 106.354 142.754 106.695 142.754C107.093 142.754 107.717 142.242 108.116 141.616C108.513 140.992 109.025 140.48 109.366 140.48C109.65 140.48 110.559 139.854 111.412 139.059C112.264 138.264 113.288 137.638 113.685 137.638C114.139 137.638 114.48 137.412 114.48 137.127C114.48 136.218 131.246 126.273 132.779 126.273C133.006 126.273 133.235 126.67 133.235 127.126C133.235 128.262 133.632 128.205 138.122 126.386C146.987 122.749 150.852 122.01 161.366 122.01C170.969 122.067 171.084 122.067 176.994 124.113C182.961 126.159 182.961 126.159 177.107 126.215C171.084 126.273 169.719 127.012 174.55 127.58C176.085 127.75 181.142 129.227 185.802 130.933C194.326 133.945 194.326 133.945 196.486 137.07C200.066 142.299 203.59 150.085 205.125 156.335C205.92 159.574 206.488 162.644 206.374 163.155C206.147 163.895 206.091 163.895 206.034 163.042C206.034 162.474 205.693 162.189 205.352 162.36C205.067 162.587 203.476 162.133 201.828 161.336C200.18 160.541 196.827 159.064 194.326 158.097C191.826 157.132 188.757 155.825 187.507 155.256C186.256 154.687 181.426 152.642 176.709 150.71C166.65 146.505 166.536 146.447 158.524 142.867C155.114 141.275 151.079 139.627 149.658 139.173C147.157 138.321 143.123 136.502 135.848 132.978C134.03 132.126 132.155 131.387 131.7 131.387C131.188 131.387 130.961 131.046 131.132 130.592C131.359 130.024 131.188 129.853 130.676 130.08C130.222 130.251 129.995 130.648 130.222 130.989C130.393 131.331 130.279 131.387 129.881 131.16C128.517 130.307 114.48 139.515 104.307 148.038C101.75 150.141 99.5907 151.846 99.4202 151.846C99.0791 151.846 99.6472 148.777 100.329 146.334C101.182 143.549 104.024 140.025 106.866 138.264C109.366 136.615 109.366 136.615 107.717 136.388C102.944 135.706 88.5659 138.718 89.1343 140.31C89.3047 140.707 89.2479 141.048 88.9637 141.048C88.7365 141.048 87.3724 142.64 86.0085 144.572C83.7922 147.755 75.6087 157.927 74.6994 158.665C74.5288 158.836 72.8809 160.768 71.0054 162.928C60.2645 175.772 58.3323 177.647 58.1618 175.317C58.105 174.749 57.7641 175.943 57.3093 177.988C56.3433 182.648 56.3433 192.934 57.3093 198.334C57.7072 200.55 57.8209 202.425 57.6503 202.425C57.4231 202.425 56.8547 201.971 56.2864 201.345Z" fill="url(#paint1_linear_170_1363)"/>
<path d="M32.3609 144.914C33.1565 138.946 35.0319 131.616 37.1914 125.989C39.5215 120.079 44.1248 112.067 46.2843 110.078C47.4777 108.998 47.4777 108.998 47.3072 111.214C47.1936 113.089 46.9094 113.544 45.8865 113.657C44.8635 113.827 44.5794 114.226 44.5794 115.533C44.5794 116.613 44.2952 117.181 43.727 117.181C43.2722 117.181 42.8745 117.692 42.8745 118.317C42.8745 119.681 40.5444 124.568 39.9193 124.568C39.692 124.568 39.4647 125.194 39.4647 125.989C39.4647 126.786 39.2373 127.41 38.8963 127.41C38.6123 127.41 38.3281 127.808 38.3281 128.263C38.3281 128.717 37.6462 131.331 36.8504 134.059C36.0549 136.844 35.1456 141.049 34.7478 143.493C34.2364 147.187 33.9522 147.869 33.0429 147.869C32.0767 147.869 32.0199 147.585 32.3609 144.914Z" fill="#999999"/>
<path d="M130.961 117.578C130.961 116.556 130.449 113.771 129.825 111.441C129.199 109.11 128.687 106.553 128.687 105.701C128.687 104.109 128.687 104.109 132.95 104.109C136.815 104.109 137.213 104.223 137.213 105.247C137.213 106.269 136.815 106.383 133.803 106.383C130.507 106.383 130.393 106.439 130.961 107.519C131.643 108.769 133.235 116.498 133.235 118.374C133.235 119.056 132.837 119.454 132.097 119.454C131.188 119.454 130.961 119.056 130.961 117.578Z" fill="#999999"/>
<path d="M50.8306 105.53C51.2284 105.075 53.388 103.485 55.6043 102.007C57.8207 100.586 59.8098 99.2226 60.037 99.052C60.2644 98.8251 58.7299 98.7673 56.5704 98.8815C53.1038 99.1084 52.5923 98.9956 52.3651 98.0864C52.1377 97.1195 52.0809 97.1195 52.0241 98.0287C51.9672 98.6545 51.5126 98.9956 50.5464 98.9956C48.8415 98.9956 48.8983 98.8251 51.9672 94.8459C53.047 93.3686 54.1836 92.176 54.4678 92.176C54.695 92.176 54.8087 93.198 54.695 94.4483C54.4678 96.722 54.4678 96.722 58.6163 96.722C62.7649 96.722 62.7649 96.722 62.7649 98.7109C62.7649 100.075 62.4808 100.7 61.9125 100.7C61.4579 100.7 61.06 100.985 61.06 101.268C61.06 101.609 60.4348 101.836 59.6393 101.836C58.7299 101.836 58.2185 102.177 58.2185 102.689C58.2185 103.144 57.8207 103.542 57.366 103.542C56.9114 103.542 56.5136 103.826 56.5136 104.11C56.5136 104.451 56.0021 104.678 55.377 104.678C54.7519 104.678 54.2404 105.075 54.2404 105.53C54.2404 106.155 53.6152 106.383 52.1945 106.383C50.4328 106.383 50.2055 106.269 50.8306 105.53Z" fill="#999999"/>
<path d="M140.054 105.416C140.054 104.394 140.566 104.223 143.976 103.882C148.124 103.541 158.581 100.416 159.831 99.1658C160.228 98.767 161.366 98.4259 162.275 98.4259C163.355 98.4259 163.923 98.1425 163.923 97.5744C163.923 97.1192 164.32 96.7216 164.776 96.7216C165.23 96.7216 165.627 96.4947 165.627 96.1536C165.627 95.8689 166.139 95.5855 166.765 95.5855C167.389 95.5855 167.901 95.2444 167.901 94.7891C167.901 94.3352 167.389 93.7671 166.765 93.5965C166.139 93.426 165.627 92.9707 165.627 92.686C165.627 92.4027 165.003 92.1757 164.206 92.1757C163.297 92.1757 162.787 91.8346 162.787 91.3228C162.787 90.8112 162.275 90.4703 161.422 90.4703C159.433 90.4703 158.239 89.9021 158.239 88.9927C158.239 88.5381 157.671 88.1972 156.819 88.1972C155.966 88.1972 155.398 87.8562 155.398 87.4015C155.398 86.89 154.717 86.4923 153.864 86.3785C152.5 86.2081 152.216 85.9239 152.102 84.2758C151.875 82.2868 151.875 82.2868 153.806 83.7644C156.876 86.0944 162.502 89.1633 167.048 91.0954C169.378 92.0616 171.425 93.0272 171.595 93.3119C172.22 94.2775 167.219 98.1425 161.934 100.756C155.853 103.712 149.999 105.474 143.862 106.098C140.338 106.496 140.054 106.439 140.054 105.416Z" fill="#999999"/>
<path d="M56.0592 89.2205C58.3892 85.8106 63.1061 81.4916 67.5957 78.5932C70.0394 77.0019 72.3126 75.695 72.7103 75.695C73.1083 75.695 73.7333 75.297 74.1312 74.8424C74.6426 74.2173 74.529 73.649 73.3923 72.1714C69.8689 67.5681 65.0952 57.1114 65.8908 55.8044C66.0613 55.4634 66.5727 55.2361 67.0274 55.2361C67.8798 55.2361 70.1531 61.4305 70.1531 63.8743C70.1531 65.0677 70.4372 65.4655 71.2896 65.4655C72.0284 65.4655 72.5399 65.977 72.7673 66.8862C72.9377 67.6819 73.3355 68.307 73.6197 68.307C73.9038 68.307 74.1312 68.7048 74.1312 69.1594C74.1312 69.6142 74.4152 70.0119 74.6994 70.0119C75.0404 70.0119 75.2678 70.5233 75.2678 71.1485C75.2678 71.7736 75.6087 72.285 76.0633 72.285C77.0295 72.285 77.541 73.5353 77.541 75.7518C77.541 77.1157 77.3136 77.3999 76.1203 77.3999C74.6994 77.3999 70.5509 79.1048 70.2667 79.8435C70.1531 80.0708 69.6985 80.2413 69.2437 80.2413C68.7891 80.2413 68.4482 80.5255 68.4482 80.8097C68.4482 81.1506 68.1072 81.3779 67.6525 81.3779C67.1979 81.3779 66.7433 81.7758 66.5159 82.2304C66.3455 82.685 65.6635 83.0828 65.0384 83.0828C64.4132 83.0828 63.9017 83.4237 63.9017 83.8217C63.9017 84.9014 60.3215 88.1976 59.1848 88.1976C58.5598 88.1976 58.2188 88.6522 58.2188 89.6183C58.2188 90.8117 57.9346 91.039 56.457 91.039C54.7521 91.039 54.7521 91.039 56.0592 89.2205Z" fill="#999999"/>
<path d="M131.984 82.1157C131.075 82.002 130.393 81.6042 130.393 81.32C130.393 81.0358 129.767 80.8086 128.972 80.8086C128.176 80.8086 127.551 80.5812 127.551 80.2403C127.551 79.9561 127.154 79.6719 126.699 79.6719C126.245 79.6719 125.846 79.4447 125.846 79.1037C125.846 78.8195 125.506 78.5354 125.107 78.5354C124.312 78.5354 121.868 76.0349 121.868 75.1824C121.868 74.8982 121.585 74.5572 121.186 74.4436C120.846 74.3299 120.447 72.6819 120.276 70.6928C120.05 67.1693 120.05 67.1693 122.664 67.1693C124.539 67.1693 125.278 67.3967 125.278 67.965C125.278 68.4196 125.677 68.8742 126.13 69.1016C126.586 69.2721 126.983 69.7835 126.983 70.2951C126.983 70.7497 127.495 71.1475 128.119 71.1475C128.745 71.1475 129.256 71.3748 129.256 71.659C129.256 71.943 129.881 72.3409 130.676 72.5114C131.7 72.7955 132.097 73.2501 132.097 74.2731C132.097 75.0688 131.87 75.6939 131.586 75.6939C130.506 75.6939 124.312 71.0906 123.573 69.7267C122.38 67.5103 121.585 69.3857 122.664 71.8862C124.368 76.0917 130.847 80.2403 135.565 80.2403C138.975 80.2403 139.429 79.5583 136.928 78.3648C134.485 77.2283 134.371 76.2621 136.645 76.2621C139.655 76.2621 141.19 77.3419 141.19 79.5015C141.19 81.2064 141.02 81.3768 139.486 81.3768C138.576 81.3768 137.781 81.661 137.781 81.9452C137.781 82.5135 135.053 82.5703 131.984 82.1157Z" fill="#999999"/>
<path d="M148.01 81.3191C148.01 80.9782 147.613 80.353 147.157 79.8984C146.703 79.3869 146.306 78.4208 146.306 77.682C146.306 76.9432 146.135 76.2613 145.851 76.1476C145.226 75.8635 142.896 68.1914 142.896 66.3729C142.896 63.2471 144.316 65.2931 146.362 71.2602C147.442 74.6132 149.033 78.3639 149.886 79.6143C151.42 81.9443 151.42 81.9443 149.716 81.9443C148.806 81.9443 148.01 81.6601 148.01 81.3191Z" fill="#999999"/>
<path d="M140.054 62.3963C140.054 61.9417 139.77 61.487 139.429 61.3734C139.087 61.2597 138.917 60.2936 139.031 59.2139C139.202 57.2248 139.202 57.2248 141.078 59.7253C143.294 62.7373 143.35 63.1919 141.475 63.1919C140.622 63.1919 140.054 62.8509 140.054 62.3963Z" fill="#999999"/>
<path d="M133.235 55.2341C133.235 54.95 132.837 54.6658 132.382 54.6658C131.927 54.6658 131.529 54.1544 131.529 53.5292C131.529 52.6767 131.132 52.3927 129.995 52.3927C129.199 52.3927 126.642 51.7107 124.368 50.8582C120.902 49.5511 120.164 49.0397 120.164 48.0168C120.164 46.7097 120.164 46.7097 124.312 48.1872C128.631 49.7785 135.394 53.4724 136.645 54.8932C137.269 55.6887 137.098 55.8025 135.28 55.8025C134.144 55.8025 133.235 55.5751 133.235 55.2341Z" fill="#999999"/>
<path d="M89.0205 45.8014C87.5997 44.8352 87.3156 43.3008 88.5658 43.3008C89.0205 43.3008 89.4751 42.903 89.7025 42.4484C89.8729 41.9938 90.3275 41.5959 90.7254 41.5959C91.1232 41.5959 92.1467 41.1981 93.0559 40.8003C93.9073 40.3457 94.5895 40.1751 94.5895 40.4025C94.5895 40.6867 96.0668 41.0845 97.8865 41.2549C99.6472 41.4255 103.115 41.9369 105.558 42.2778C109.934 42.9598 109.934 42.9598 109.934 44.8352C109.934 46.7106 109.934 46.7106 100.102 46.7106C92.1467 46.7106 90.0435 46.5401 89.0205 45.8014Z" fill="#999999"/>
<path d="M115.447 45.1767C115.219 45.0062 115.048 44.2106 115.048 43.4718C115.048 42.5057 114.708 42.1647 113.856 42.1647C113.173 42.1647 112.548 41.7101 112.378 41.0282C112.208 40.403 111.867 39.8915 111.582 39.8915C111.297 39.8915 111.07 39.1527 111.07 38.1866C111.07 37.2774 111.297 36.4817 111.526 36.4817C111.809 36.4817 113.288 38.073 114.821 40.0052C119.538 46.0291 119.311 45.5745 117.436 45.5745C116.527 45.5745 115.618 45.4041 115.447 45.1767Z" fill="#999999"/>
<path d="M56.3434 201.29C55.5478 200.38 54.6385 199.585 54.4112 199.585C53.3883 199.585 50.4331 195.777 49.5238 193.334C47.4779 187.65 46.8528 183.446 46.8528 174.579C46.8528 161.281 49.2396 151.905 55.6046 140.254C61.3444 129.684 71.9717 117.749 80.7236 111.953C86.8612 107.861 95.8976 103.712 102.262 102.008C107.263 100.7 109.082 100.53 117.322 100.473C124.88 100.473 127.04 100.644 128.404 101.382C131.018 102.747 136.928 104.11 140.395 104.11C142.668 104.11 143.464 104.338 143.464 104.906C143.464 106.157 140.566 106.554 135.11 106.099C130.449 105.701 130.222 105.701 130.62 106.725C131.984 110.191 132.78 114.907 133.064 121.217C133.405 128.377 133.405 128.377 128.348 131.047C121.641 134.627 114.936 139.117 108.058 144.688C99.3638 151.734 99.7049 151.507 99.7049 150.597C99.7049 146.619 103.398 140.652 107.377 138.208C108.457 137.527 109.366 136.731 109.366 136.447C109.366 135.651 102.603 135.821 97.5454 136.787C76.7454 140.766 60.1511 157.587 56.7981 178.103C55.491 186.173 55.8888 196.971 57.7073 201.233C58.5598 203.222 57.9915 203.279 56.3434 201.29Z" fill="#CCCCCC"/>
<path d="M32.6453 162.133C31.736 160.371 31.9633 159.235 33.2135 159.235C34.1228 159.235 34.3502 159.632 34.3502 161.224C34.3502 163.44 33.5545 163.837 32.6453 162.133Z" fill="#CCCCCC"/>
<path d="M32.0768 149.175C32.0768 146.277 33.7249 137.355 35.2024 132.354C36.9073 126.5 39.692 120.022 40.5445 120.022C41.6811 120.022 41.1697 122.976 39.1806 127.921C36.7937 133.888 35.032 141.049 34.5205 146.618C34.2363 150.085 34.0091 150.71 33.1566 150.71C32.361 150.71 32.0768 150.312 32.0768 149.175Z" fill="#CCCCCC"/>
<path d="M40.6014 119.114C40.6014 118.317 44.1249 112.748 45.9434 110.646C47.9325 108.373 47.9325 108.373 47.9893 110.532C47.9893 112.238 47.8189 112.635 46.8528 112.635C46.0002 112.635 45.7162 113.033 45.7162 114.056C45.7162 114.965 45.3752 115.477 44.8637 115.477C44.4091 115.477 44.0113 115.987 44.0113 116.557C44.0113 118.546 43.3292 119.455 41.9653 119.455C41.2265 119.455 40.6014 119.284 40.6014 119.114Z" fill="#CCCCCC"/>
<path d="M50.035 106.325C50.6033 105.644 53.388 103.598 56.1726 101.779C60.3212 99.0518 61.0031 98.426 59.7529 98.426C58.9004 98.426 58.2185 98.1991 58.2185 97.9157C58.2185 97.2335 59.6961 96.7218 61.6851 96.7218C63.1627 96.7218 63.3332 96.8924 63.3332 98.6543C63.3332 100.643 62.5944 101.268 60.4349 101.268C59.8666 101.268 59.3552 101.665 59.3552 102.121C59.3552 102.576 58.9572 102.973 58.5026 102.973C58.0481 102.973 57.6501 103.257 57.6501 103.541C57.6501 103.882 57.2523 104.109 56.7978 104.109C56.3432 104.109 55.9452 104.394 55.9452 104.678C55.9452 105.019 55.4906 105.246 54.8655 105.246C54.2973 105.246 53.6721 105.757 53.5016 106.383C53.2742 107.292 52.706 107.519 51.0579 107.519C48.9552 107.519 48.9552 107.519 50.035 106.325Z" fill="#CCCCCC"/>
<path d="M144.6 104.79C144.6 103.654 146.76 102.972 150.454 102.972C151.307 102.972 151.988 102.745 151.988 102.404C151.988 102.119 152.784 101.836 153.693 101.836C154.659 101.836 155.398 101.607 155.398 101.266C155.398 100.983 156.024 100.698 156.819 100.698C157.615 100.698 158.239 100.471 158.239 100.13C158.239 99.8454 159.036 99.562 159.945 99.562C161.025 99.562 161.649 99.2773 161.649 98.7656C161.649 97.8564 162.843 97.2884 164.832 97.2884C165.798 97.2884 166.196 96.9473 166.196 96.1522C166.196 95.2994 166.594 95.0147 167.674 95.0147C168.98 95.0147 169.037 94.9019 168.242 94.1633C167.787 93.708 167.106 93.3105 166.707 93.3105C166.253 93.3105 164.832 92.913 163.525 92.4013C161.876 91.7191 161.081 91.0941 161.081 90.4121C161.081 89.5597 160.626 89.3324 159.092 89.3324C157.728 89.3324 157.103 89.0482 157.103 88.4799C157.103 87.9684 156.592 87.6275 155.682 87.6275C154.546 87.6275 154.262 87.3433 154.262 86.2067C154.262 85.411 154.376 84.786 154.546 84.786C154.717 84.786 156.819 85.9226 159.263 87.2865C161.649 88.7072 165.344 90.5259 167.503 91.378C169.606 92.2308 171.311 93.2541 171.311 93.6516C171.311 94.9019 166.707 98.3681 161.99 100.642C157.274 102.915 151.307 104.847 147.044 105.529C144.885 105.87 144.6 105.814 144.6 104.79Z" fill="#CCCCCC"/>
<path d="M49.6942 98.4242C49.6942 98.1408 50.3761 97.0611 51.2854 96.0377C52.1378 95.0144 53.7859 92.7421 54.9794 90.9801C56.1728 89.2184 57.6504 87.2862 58.2187 86.7746C59.3553 85.7517 59.3553 85.8086 59.3553 87.8545C59.3553 89.5025 59.128 90.0708 58.2187 90.2982C57.5935 90.4686 57.0821 91.0937 57.0821 91.6623C57.0821 92.2868 56.8547 92.7421 56.5706 92.7421C56.2865 92.7421 55.8886 93.3666 55.7182 94.163C55.434 95.185 54.9794 95.5838 53.9565 95.5838C53.1608 95.5838 52.5356 95.8672 52.5356 96.1519C52.5356 96.493 53.3313 96.72 54.2406 96.72C56.2865 96.72 56.5706 98.1408 54.6952 98.6525C52.7062 99.1642 49.6942 99.05 49.6942 98.4242Z" fill="#CCCCCC"/>
<path d="M61.6284 83.3667C61.6284 82.8553 68.7321 77.8543 71.4031 76.4903C73.0512 75.6948 74.4719 75.2968 75.0971 75.5242C76.0632 75.922 76.0632 75.8652 75.1539 74.5581C69.6982 66.8292 66.2884 59.6686 65.777 54.9517C65.6633 53.7014 65.4361 49.2119 65.2655 44.9496C64.9813 37.1639 64.9813 37.1639 70.5507 38.2437C76.2338 39.2667 83.6217 41.3694 84.6446 42.1649C84.9856 42.4491 86.2358 42.7901 87.4861 43.0174C88.7364 43.2447 90.1003 43.6994 90.4981 44.0404C90.8959 44.3246 91.7479 44.6655 92.4865 44.7223C93.1687 44.7791 94.0779 44.8928 94.4768 44.9496C95.7835 45.0633 95.1577 46.484 93.3393 47.5638C92.089 48.3026 90.0435 48.7005 86.9177 48.8709C82.9397 49.0983 81.8031 48.9277 78.6774 47.6775C76.6884 46.825 74.9835 46.2567 74.8699 46.3704C74.5857 46.6545 79.9845 54.4403 83.508 58.9298C85.838 61.885 86.6336 63.3626 86.6336 64.7265C86.6336 66.4882 86.52 66.6019 84.5877 66.6019C82.2009 66.6019 80.7233 67.2839 78.2797 69.614C76.461 71.3188 75.8359 72.8532 76.9725 72.8532C77.3135 72.8532 77.5409 73.7057 77.5409 74.7854C77.5409 76.4335 77.3135 76.8313 75.7791 77.3427C74.7561 77.6837 73.3354 77.9679 72.6534 77.9679C71.8011 77.9679 71.2895 78.3089 71.2895 78.8204C71.2895 79.275 70.8917 79.6728 70.437 79.6728C69.9824 79.6728 69.5846 79.9569 69.5846 80.2411C69.5846 80.5821 69.1868 80.8095 68.7321 80.8095C68.2775 80.8095 67.8797 81.0936 67.8797 81.3777C67.8797 81.7186 67.3682 81.946 66.7432 81.946C66.118 81.946 65.6065 82.3438 65.6065 82.7985C65.6065 83.3667 64.9813 83.6509 63.6174 83.6509C62.5377 83.6509 61.6284 83.5373 61.6284 83.3667Z" fill="#CCCCCC"/>
<path d="M130.564 81.8878C129.54 81.6037 128.687 81.0921 128.687 80.808C128.687 80.467 128.177 80.2398 127.551 80.2398C126.927 80.2398 126.415 80.0124 126.415 79.6714C126.415 79.3872 126.018 79.1031 125.562 79.1031C124.994 79.1031 124.71 78.5349 124.71 77.3982C124.71 75.8638 124.539 75.6933 123.005 75.6933C121.697 75.6933 121.3 75.4659 121.3 74.5567C121.3 73.9316 121.073 73.42 120.732 73.42C120.447 73.42 120.164 72.5109 120.164 71.4311C120.164 70.3512 120.447 69.442 120.732 69.442C121.073 69.442 121.3 68.8169 121.3 68.0212C121.3 66.771 121.528 66.6005 123.289 66.6005C125.051 66.6005 125.335 66.771 125.676 68.3054C125.903 69.4989 126.301 70.0103 127.097 70.0103C127.665 70.0103 128.29 70.4082 128.46 70.8628C128.687 71.3174 129.143 71.7151 129.597 71.7151C130.052 71.7151 130.393 72.1131 130.393 72.5677C130.393 73.0223 130.905 73.42 131.529 73.42C132.894 73.42 137.781 75.7501 137.781 76.3752C137.781 76.6026 138.406 76.83 139.202 76.83C140.508 76.83 140.622 77.0572 140.622 79.3304C140.622 81.4331 140.395 81.8878 139.372 82.1719C137.497 82.6266 132.667 82.5129 130.564 81.8878ZM138.292 79.9556C139.428 79.6146 138.746 79.1031 133.746 76.6594C129.825 74.7272 126.927 72.8518 125.165 71.0901C122.323 68.2485 121.528 68.3054 122.153 71.2606C122.891 74.5567 128.631 79.1031 133.518 80.2966C135.224 80.6944 135.848 80.6375 138.292 79.9556Z" fill="#CCCCCC"/>
<path d="M147.442 79.6718C147.442 78.5351 147.157 77.9669 146.589 77.9669C146.021 77.9669 145.736 77.3986 145.736 76.262C145.736 75.3527 145.509 74.557 145.282 74.557C145.055 74.557 144.089 72.2839 143.179 69.4423C142.214 66.6577 141.305 64.3276 141.076 64.3276C140.793 64.3276 140.622 63.9298 140.622 63.4752C140.622 63.0205 140.395 62.6227 140.054 62.6227C139.77 62.6227 139.486 62.2249 139.486 61.7703C139.486 61.3156 139.258 60.9178 138.917 60.9178C138.633 60.9178 138.349 60.0085 138.349 58.872C138.349 57.5649 138.576 56.9965 138.975 57.2807C140.679 58.3036 144.203 65.0664 146.021 70.8062C147.157 74.273 148.692 78.0805 149.487 79.2739C150.852 81.3767 150.852 81.3767 149.146 81.3767C147.613 81.3767 147.442 81.2062 147.442 79.6718Z" fill="#CCCCCC"/>
<path d="M133.803 55.8036C133.803 55.5194 133.405 55.2353 132.95 55.2353C132.496 55.2353 132.099 55.0079 132.099 54.7807C132.099 54.5533 131.188 53.985 130.108 53.5872C129.029 53.1894 128.119 52.621 128.119 52.3369C128.119 52.0528 127.608 51.8255 126.983 51.8255C126.359 51.8255 125.847 51.5981 125.847 51.2571C125.847 50.973 125.335 50.6889 124.71 50.6889C124.085 50.6889 122.267 50.1774 120.619 49.5522C117.549 48.3589 109.82 47.279 104.421 47.279C102.205 47.279 101.409 47.0518 101.409 46.4834C101.409 46.0288 101.069 45.5173 100.728 45.4037C100.329 45.2331 101.921 45.0627 104.251 45.0059C108.513 44.8921 108.513 44.8921 104.536 44.1534C102.376 43.7556 98.8521 43.2442 96.749 43.0168C94.5896 42.7895 92.8853 42.3917 92.8853 42.1075C92.8853 41.8233 93.5098 40.63 94.2497 39.4365C94.9884 38.2999 95.7834 36.595 95.954 35.6289C97.5454 26.7634 97.2043 27.218 100.841 29.1503C102.659 30.1164 105.729 32.1623 107.604 33.6966C109.537 35.2311 111.299 36.4813 111.582 36.4813C111.809 36.4813 112.718 37.4474 113.515 38.6409C114.31 39.7775 116.186 42.1643 117.777 43.8692C120.164 46.597 121.3 47.279 125.392 48.8703C129.938 50.5752 136.645 54.3829 137.44 55.7468C137.724 56.1446 137.156 56.3718 135.848 56.3718C134.712 56.3718 133.803 56.1446 133.803 55.8036Z" fill="#CCCCCC"/>
<path d="M51.5694 197.197C45.5455 191.003 34.9182 174.125 34.9182 170.828C34.9182 170.26 34.5772 168.783 34.1226 167.475C32.304 162.304 31.9062 158.724 32.2472 151.563C32.8723 139.458 35.2592 130.138 40.4307 119.625C44.5794 111.157 49.7509 105.701 58.4459 100.473C61.8557 98.4275 61.8557 98.4275 55.7181 98.4275C49.5235 98.4275 49.5235 98.4275 51.058 96.5513C51.8535 95.5857 53.388 93.4827 54.4109 91.8913C59.071 84.9013 69.0162 76.6609 73.7331 75.8654C74.8697 75.6948 75.8358 75.4106 75.8358 75.1833C75.8358 75.0129 75.2676 74.1035 74.5287 73.1943C73.2217 71.5463 73.2217 71.5463 75.4949 69.0457C78.2795 65.9768 79.3594 65.3517 82.5418 64.8971C84.9287 64.6129 84.9286 64.6129 81.803 60.6348C75.6086 52.8491 69.414 42.7333 70.2666 41.8241C70.4938 41.6536 73.2786 42.7333 76.5178 44.211C81.6894 46.6546 82.826 46.9956 86.0653 46.9956C88.7932 46.9956 90.2707 46.7114 91.4642 45.9159C92.9417 44.9497 93.7945 44.8929 101.068 45.2339C114.083 45.8591 118.629 46.4841 123.971 48.4732C136.645 53.1332 141.475 57.9638 145.68 70.2391C146.93 73.8194 148.237 77.3997 148.635 78.0817C150.681 82.1166 159.546 88.4248 167.503 91.6079C169.264 92.2888 170.913 93.1416 171.084 93.4263C172.22 95.2446 159.887 102.348 151.988 104.394C146.248 105.872 137.042 106.156 132.326 104.962C130.166 104.451 127.665 103.598 126.699 103.088C125.392 102.405 123.289 102.177 117.322 102.235C107.831 102.291 101.182 103.826 92.3736 108.087C84.3604 112.009 79.3026 115.419 73.3354 121.159C61.4011 132.582 52.6493 147.812 49.6372 162.361C48.2733 168.783 48.2164 180.092 49.4099 185.376C50.376 189.525 52.8197 196.402 54.0132 198.335C55.3203 200.324 54.1268 199.812 51.5694 197.197ZM139.031 79.7866C139.316 79.5024 137.667 78.3658 134.598 76.8883C128.858 74.1603 124.368 71.0347 123.857 69.4434C123.403 68.0795 122.55 67.9659 122.096 69.1594C120.846 72.285 125.903 77.7975 132.041 80.0707C134.2 80.8663 138.122 80.6959 139.031 79.7866Z" fill="white"/>
</g>
<defs>
<linearGradient id="paint0_linear_170_1363" x1="17.0167" y1="15.1711" x2="14.1753" y2="17.7285" gradientUnits="userSpaceOnUse">
<stop stop-color="#8D8E8D"/>
<stop offset="0.01" stop-color="#8B8C8B"/>
<stop offset="0.02" stop-color="#8A8C8A"/>
<stop offset="0.03" stop-color="#8A8B8A"/>
<stop offset="0.04" stop-color="#828382"/>
<stop offset="0.05" stop-color="#878987"/>
<stop offset="0.12" stop-color="#848584"/>
<stop offset="0.13" stop-color="#838583"/>
<stop offset="0.14" stop-color="#838483"/>
<stop offset="0.24" stop-color="#7D7E7D"/>
<stop offset="0.25" stop-color="#7C7E7C"/>
<stop offset="0.26" stop-color="#7C7D7C"/>
<stop offset="0.28" stop-color="#7B7C7B"/>
<stop offset="0.29" stop-color="#7A7C7A"/>
<stop offset="0.3" stop-color="#7A7B7A"/>
<stop offset="0.31" stop-color="#797B79"/>
<stop offset="0.37" stop-color="#777877"/>
<stop offset="0.38" stop-color="#767876"/>
<stop offset="0.92" stop-color="#616261"/>
<stop offset="0.93" stop-color="#5F605E"/>
<stop offset="0.94" stop-color="#5F5F5E"/>
<stop offset="0.98" stop-color="#5D5E5C"/>
<stop offset="1" stop-color="#5D5D5D"/>
</linearGradient>
<linearGradient id="paint1_linear_170_1363" x1="17.0168" y1="15.1699" x2="14.1754" y2="17.7272" gradientUnits="userSpaceOnUse">
<stop stop-color="#8D8E8D"/>
<stop offset="0.01" stop-color="#8B8C8B"/>
<stop offset="0.02" stop-color="#8A8C8A"/>
<stop offset="0.03" stop-color="#8A8B8A"/>
<stop offset="0.04" stop-color="#828382"/>
<stop offset="0.05" stop-color="#878987"/>
<stop offset="0.12" stop-color="#848584"/>
<stop offset="0.13" stop-color="#838583"/>
<stop offset="0.14" stop-color="#838483"/>
<stop offset="0.24" stop-color="#7D7E7D"/>
<stop offset="0.25" stop-color="#7C7E7C"/>
<stop offset="0.26" stop-color="#7C7D7C"/>
<stop offset="0.28" stop-color="#7B7C7B"/>
<stop offset="0.29" stop-color="#7A7C7A"/>
<stop offset="0.3" stop-color="#7A7B7A"/>
<stop offset="0.31" stop-color="#797B79"/>
<stop offset="0.37" stop-color="#777877"/>
<stop offset="0.38" stop-color="#767876"/>
<stop offset="0.92" stop-color="#616261"/>
<stop offset="0.93" stop-color="#5F605E"/>
<stop offset="0.94" stop-color="#5F5F5E"/>
<stop offset="0.98" stop-color="#5D5E5C"/>
<stop offset="1" stop-color="#5D5D5D"/>
</linearGradient>
<clipPath id="clip0_170_1363">
<rect width="256" height="256" fill="white"/>
</clipPath>
</defs>
</svg>
