<svg width="256" height="256" viewBox="0 0 256 256" fill="none" xmlns="http://www.w3.org/2000/svg">
<g clip-path="url(#clip0_248_4968)">
<rect width="256" height="256" rx="60" fill="#242938"/>
<path d="M225.656 128C225.656 181.934 181.934 225.656 128 225.656C74.0656 225.656 30.3438 181.934 30.3438 128C30.3438 74.0656 74.0656 30.3438 128 30.3438C181.934 30.3438 225.656 74.0656 225.656 128Z" fill="url(#paint0_linear_248_4968)"/>
<path d="M128 28C72.7656 28 28 72.7781 28 128C28 183.222 72.7656 228 128 228C183.234 228 228 183.222 228 128C228 72.7781 183.234 28 128 28ZM128 33.5078C180.15 33.5078 222.438 75.807 222.438 128C222.438 180.193 180.15 222.492 128 222.492C75.85 222.492 33.5625 180.193 33.5625 128C33.5625 75.807 75.85 33.5078 128 33.5078Z" fill="url(#paint1_linear_248_4968)"/>
<path d="M94.5859 197.979C94.5859 197.979 102.817 198.561 113.407 197.628C117.696 197.249 133.978 195.651 146.151 192.981C146.151 192.981 160.994 189.804 168.935 186.878C177.244 183.816 181.765 181.217 183.8 177.535C183.711 176.781 184.426 174.105 180.594 172.499C170.799 168.389 159.438 169.133 136.958 168.656C112.028 167.799 103.735 163.627 99.3171 160.266C95.0812 156.856 97.2116 147.424 115.363 139.116C124.506 134.692 160.349 126.527 160.349 126.527C148.279 120.56 125.769 110.071 121.142 107.806C117.084 105.819 110.59 102.828 109.181 99.2088C107.586 95.7346 112.951 92.7416 115.948 91.8846C125.601 89.1002 139.226 87.3698 151.628 87.1752C157.862 87.0776 158.873 86.6768 158.873 86.6768C167.475 85.2502 173.137 79.3651 170.778 70.0455C168.66 60.533 157.491 54.9432 146.876 56.8783C136.88 58.7002 112.787 65.6987 112.787 65.6987C142.567 65.4408 147.551 65.9377 149.778 69.0502C151.093 70.8885 149.18 73.4088 141.239 74.7065C132.592 76.1182 114.618 77.8182 114.618 77.8182C97.3757 78.8424 85.2296 78.9112 81.5866 86.6229C79.2069 91.6619 84.1257 96.1166 86.2804 98.9049C95.389 109.035 108.546 114.498 117.015 118.521C120.201 120.035 129.55 122.893 129.55 122.893C102.076 121.382 82.2569 129.818 70.6319 139.531C57.4835 151.694 63.2999 166.19 90.2382 175.117C106.149 180.389 114.04 182.868 137.773 180.731C151.752 179.978 153.956 180.426 154.095 181.573C154.291 183.188 138.569 187.199 134.276 188.438C123.355 191.588 94.7288 197.948 94.5851 197.979" fill="white"/>
</g>
<defs>
<linearGradient id="paint0_linear_248_4968" x1="4940.7" y1="3963.16" x2="18076" y2="19850.1" gradientUnits="userSpaceOnUse">
<stop stop-color="#8381C5"/>
<stop offset="0.56639" stop-color="#7E55B3" stop-opacity="0.996"/>
<stop offset="1" stop-color="#A52ECB" stop-opacity="0.992"/>
</linearGradient>
<linearGradient id="paint1_linear_248_4968" x1="18171.2" y1="15846.4" x2="6577.8" y2="1993" gradientUnits="userSpaceOnUse">
<stop stop-color="#411F5D"/>
<stop offset="1" stop-color="#5B2A85"/>
</linearGradient>
<clipPath id="clip0_248_4968">
<rect width="256" height="256" fill="white"/>
</clipPath>
</defs>
</svg>
