<svg width="256" height="256" viewBox="0 0 256 256" fill="none" xmlns="http://www.w3.org/2000/svg">
<g clip-path="url(#clip0_248_4195)">
<rect width="256" height="256" rx="60" fill="#242938"/>
<path d="M167.888 150.487L167.877 150.476L167.866 150.465L167.898 150.497L167.888 150.487Z" fill="white"/>
<path d="M167.888 150.487L167.877 150.476L167.866 150.465L167.898 150.497L167.888 150.487Z" fill="#BA8449"/>
<path d="M142.795 178.046H161.311V194.711H142.795V178.046Z" fill="white"/>
<path d="M170.829 153.706C170.112 152.789 169.342 151.913 168.523 151.085L167.94 150.53L167.792 150.475C167.321 150.324 166.838 150.215 166.347 150.15C163.98 149.85 161.597 149.699 159.21 149.697C154.321 149.632 149.387 149.789 144.462 150.021C134.601 150.502 124.732 151.298 114.909 152.372C110.001 152.909 105.104 153.521 100.253 154.289C97.8363 154.669 95.4201 155.085 93.059 155.603C91.8831 155.854 90.7165 156.131 89.6151 156.464C89.0944 156.616 88.5815 156.791 88.0782 156.992C87.8751 157.073 87.6771 157.165 87.4855 157.27L87.3929 157.326C86.8168 158.107 86.2763 158.913 85.7728 159.742C85.2636 160.575 84.7912 161.52 84.3471 162.455C83.4677 164.306 82.7082 166.269 81.9767 168.251C81.2455 170.232 80.5325 172.241 79.7457 174.241C79.366 175.241 78.9681 175.935 78.5513 176.935C78.3568 177.408 78.1533 178.046 77.9495 178.046H84.6063C88.2076 169.713 94.9662 161.122 100.642 158.808C102.206 158.168 127.361 155.187 143.989 155.187C150.155 155.187 154.423 155.41 156.682 156.289C163.497 158.918 177.051 171.565 178.449 178.046H182.309C181.477 173.785 180.082 169.653 178.161 165.76C176.211 161.462 173.749 157.415 170.83 153.706H170.829ZM167.888 150.488L167.877 150.476L167.866 150.465L167.898 150.498L167.888 150.488Z" fill="#BA8449"/>
<path d="M181.735 164.455C179.684 159.745 177.083 155.295 173.986 151.197C173.177 150.154 172.309 149.158 171.384 148.216L170.653 147.512L170.514 147.383L170.412 147.299L170.264 147.188C170.13 147.094 169.991 147.008 169.848 146.929C169.624 146.819 169.396 146.72 169.162 146.633C168.455 146.393 167.727 146.219 166.986 146.114C164.434 145.766 161.861 145.584 159.284 145.568C154.247 145.466 149.257 145.568 144.267 145.799C134.307 146.225 124.362 146.95 114.446 147.975C109.483 148.493 104.53 149.077 99.5676 149.827C97.0863 150.206 94.6144 150.623 92.1611 151.141C90.911 151.409 89.6612 151.697 88.3744 152.067C87.7071 152.259 87.049 152.481 86.4023 152.734C86.0282 152.885 85.6636 153.058 85.3098 153.252C85.0884 153.371 84.875 153.504 84.671 153.65C84.3731 153.871 84.1054 154.129 83.8748 154.418C83.1596 155.309 82.492 156.236 81.875 157.196C81.2455 158.122 80.6437 159.14 80.0976 160.131C78.9125 162.196 77.9865 164.205 77.0605 166.232C76.135 168.26 75.3573 170.297 74.6534 172.37C74.304 173.403 73.9768 174.444 73.6722 175.49C73.5155 176.013 73.3673 176.537 73.2278 177.065L73.0148 177.851L72.9221 178.25C72.9221 178.314 73.0519 178.12 73.376 178.305L73.4592 178.046H77.9865C78.1904 178.046 78.3939 177.407 78.5883 176.935C79.0048 175.935 79.403 175.083 79.7828 174.092C80.5696 172.093 81.2731 170.158 82.0138 168.176C82.7547 166.195 83.5045 164.279 84.3839 162.418C84.8287 161.492 85.3098 160.566 85.8098 159.724C86.3099 158.882 86.8467 158.104 87.4299 157.316L87.5226 157.271C87.7142 157.165 87.9121 157.073 88.1153 156.992C88.6169 156.787 89.13 156.611 89.6518 156.464C90.7536 156.131 91.9201 155.854 93.0961 155.603C95.4571 155.085 97.8735 154.678 100.29 154.289C105.141 153.521 110.039 152.909 114.945 152.372C124.769 151.298 134.638 150.521 144.498 150.021C149.424 149.789 154.359 149.633 159.246 149.697C161.633 149.699 164.018 149.851 166.385 150.151C166.875 150.215 167.359 150.324 167.829 150.475L167.978 150.53L168.561 151.085C169.379 151.913 170.148 152.788 170.866 153.706C173.785 157.409 176.247 161.449 178.199 165.742C180.108 169.642 181.491 173.781 182.31 178.046H186.198C185.808 176.194 185.207 173.583 184.476 171.296C183.694 168.966 182.779 166.681 181.735 164.455Z" fill="#895C2F"/>
<path d="M156.126 157.817C154.044 157.011 149.961 156.761 143.989 156.761C127.26 156.761 102.577 159.696 101.225 160.205C96.1513 162.307 89.8372 170.639 86.3191 178.046H176.847C175.458 172.491 162.867 160.455 156.126 157.817Z" fill="#FFF8EF"/>
<path d="M156.682 156.363C154.423 155.437 150.155 155.187 143.989 155.187C127.324 155.187 102.206 158.084 100.641 158.724C94.9662 161.048 88.1709 169.714 84.606 178.046H86.319C89.8094 170.639 96.1236 162.353 101.197 160.279C102.549 159.77 127.231 156.761 143.961 156.761C149.933 156.761 154.016 156.937 156.099 157.742C162.839 160.344 175.431 172.49 176.847 178.046H178.421C177.051 171.565 163.497 158.993 156.682 156.363Z" fill="#E5D1AE"/>
<path d="M187.596 157.307C186.67 159.206 181.726 163.982 177.569 162.797C175.393 162.177 175.791 173.417 180.8 178.046H189.892C192.391 174.343 196.308 162.159 196.752 160.9C197.271 159.427 188.54 155.409 187.596 157.307Z" fill="#BA8449"/>
<path d="M197.224 159.899C197.113 157.391 195.549 155.761 192.928 155.168C190.818 154.696 187.984 155.168 187.281 156.492C185.893 159.121 184.161 162.427 175.606 162.797C175.33 162.813 175.07 162.939 174.885 163.145C174.7 163.351 174.603 163.622 174.615 163.899C174.628 164.173 174.747 164.432 174.948 164.619C175.149 164.806 175.415 164.907 175.689 164.899C184.623 164.51 187.216 161.094 189.077 157.594C190.424 157.058 191.925 157.058 193.271 157.594C193.803 157.729 194.276 158.038 194.612 158.473C194.947 158.908 195.127 159.443 195.123 159.991C195.346 164.852 190.29 173.416 187.513 178.045H190.012C193.104 172.491 197.418 164.899 197.224 159.899Z" fill="#895C2F"/>
<g style="mix-blend-mode:multiply" opacity="0.15">
<path d="M179.643 178.907C185.198 177.611 190.096 172.084 190.53 164.093C190.614 162.621 187.596 159.779 187.596 159.002C187.596 158.224 196.928 159.168 197.354 161.334C197.78 163.501 191.568 176.713 189.494 178.87C187.419 181.027 176.412 179.666 179.643 178.907Z" fill="#C7893E"/>
</g>
<path d="M184.05 151.956C183.356 156.752 192.789 163.473 199.169 163.232C204.529 163.057 210.492 160.557 209.621 157.621C208.751 154.687 203.575 158.141 203.14 156.067C202.705 153.992 209.196 150.188 206.603 147.419C204.205 144.873 201.418 151.484 198.567 150.53C195.715 149.576 199.123 143.123 195.632 142.753C191.484 142.328 193.04 151.567 189.929 151.743C187.679 151.9 184.272 150.373 184.05 151.956Z" fill="#F8B1AB" stroke="#F38089" stroke-width="0.531213"/>
<g style="mix-blend-mode:multiply" opacity="0.5">
<path d="M186.698 151.928C187.725 152.687 191.327 153.724 191.956 152.381C192.586 151.039 193.077 148.428 192.651 148.04C192.363 149.271 191.965 151.613 190.595 152.132C189.549 152.539 187.419 152.048 186.698 151.928ZM196.817 146.744C196.632 147.605 195.975 151.65 198.03 152.215C199.881 152.705 201.16 151.604 202.558 149.298C201.807 150.03 199.863 151.706 198.308 151.049C196.752 150.391 196.697 148.817 196.817 146.744Z" fill="#F8B1AB"/>
</g>
<g style="mix-blend-mode:multiply" opacity="0.25">
<path d="M187.698 157.678C198.326 152.493 200.493 160.937 199.975 162.668C195.826 163.399 188.346 159.057 187.698 157.678Z" fill="#F8B1AB"/>
</g>
<g style="mix-blend-mode:multiply" opacity="0.5">
<path d="M203.187 154.335C201.335 156.381 202.26 158.038 203.428 158.214C204.955 158.501 206.816 157.001 206.575 156.982C206.159 156.982 203.289 157.964 202.733 156.53C202.317 155.446 202.974 154.825 203.187 154.335Z" fill="#F8B1AB"/>
</g>
<g style="mix-blend-mode:multiply" opacity="0.15">
<path d="M81.9309 167.936C116.01 187.508 183.772 167.649 180.162 161.196C175.412 152.734 173.514 147.309 163.08 147.873C152.646 148.438 85.8375 153.706 83.1156 155.78C80.3936 157.853 77.4687 165.372 81.9309 167.936Z" fill="#C7893E"/>
</g>
<path d="M156.275 50.216C171.57 48.7904 180.513 32.9402 189.836 35.4026C183.615 39.2911 177.393 47.1049 168.718 59.9374C166.672 62.9464 152.109 50.6045 156.275 50.216Z" fill="#FFF8EF" stroke="#E5D1AE" stroke-width="0.797008" stroke-linecap="round" stroke-linejoin="round"/>
<path d="M60.6271 46.7165C67.543 40.3283 79.894 42.8186 89.9204 46.4571C95.6236 48.531 103.012 46.8462 103.53 48.0128C104.752 50.7902 97.3733 56.3453 91.2816 56.2432C85.1895 56.1414 75.1443 44.7723 60.6271 46.7165Z" fill="#BA8449" stroke="#895C2F" stroke-width="0.531213" stroke-linecap="round" stroke-linejoin="round"/>
<path d="M166.773 57.7338C170.274 58.771 183.615 32.5884 190.095 35.1806C210.714 43.4299 183.874 74.9915 175.282 75.6209C166.69 76.2507 164.765 57.1415 166.774 57.7338H166.773ZM92.2537 54.6231C86.5504 57.0859 66.33 35.9583 57.7754 49.5681C52.1467 58.5301 69.1819 76.6577 81.3657 78.6023C93.5499 80.5465 95.2627 53.3269 92.2537 54.6231Z" fill="#F8B1AB" stroke="#F38089" stroke-width="0.531213"/>
<g style="mix-blend-mode:multiply">
<path d="M182.67 40.2356C181.541 43.8187 172.347 53.1138 173.643 61.104C174.115 64.0388 177.264 72.8063 178.606 72.464C179.949 72.1213 183.318 70.0473 183.012 70.5197C181.053 72.2411 178.926 73.7609 176.661 75.0562C175.069 74.1953 168.06 58.0671 169.06 57.1691C172.042 54.4937 181.375 40.4115 182.67 40.2356ZM58.0814 50.0863C64.3029 46.2814 75.6719 47.883 82.3193 54.364C84.6713 56.6691 85.3377 64.548 80.0234 69.8715C77.9218 72.0011 92.5499 62.317 92.5961 59.5392C92.6425 56.7617 91.6704 55.9379 89.4853 55.1322C81.4584 52.1326 73.0151 45.337 65.6823 45.4853C64.1198 45.5025 62.5903 45.9386 61.2534 46.7477C59.9165 47.557 58.8214 48.7099 58.0814 50.0863Z" fill="#F8B1AB"/>
</g>
<g style="mix-blend-mode:multiply" opacity="0.25">
<path d="M185.17 38.2454C199.363 46.0873 176.495 57.947 178.17 72.7234C175.199 72.3992 167.866 58.1043 169.69 56.8451C172.218 55.0769 182.79 37.5695 185.17 38.2454Z" fill="#F8B1AB"/>
</g>
<path d="M78.6254 86.935L78.5513 87.2126C78.5513 87.3979 78.4401 87.6756 78.3012 88.1385C77.9506 89.2854 77.5175 90.4054 77.0054 91.4898C75.0694 95.3465 72.9052 99.0843 70.5244 102.683C69.0617 104.979 67.506 107.572 65.9506 110.46C64.2798 113.51 62.9033 116.713 61.8398 120.024C60.6557 123.687 60.2522 127.556 60.6551 131.384C61.2 135.587 62.8234 139.577 65.3674 142.966C66.0248 143.892 66.7286 144.753 67.4969 145.614C68.2405 146.471 69.045 147.272 69.9041 148.012C71.7406 149.542 73.7009 150.917 75.7647 152.123C80.1721 154.755 84.8227 156.956 89.6521 158.696C94.759 160.571 100.028 161.971 105.391 162.881C110.955 163.86 116.614 164.17 122.25 163.806C133.916 162.881 146.044 161.714 157.83 158.576C163.691 157.002 169.514 154.974 174.68 151.697C177.272 150.052 179.576 147.994 181.503 145.604C181.986 145.003 182.43 144.355 182.948 143.754C183.489 143.179 183.937 142.523 184.273 141.809C184.939 140.387 185.481 138.909 185.893 137.393C187.476 131.283 187.18 124.894 186.161 118.774C185.05 112.682 183.465 106.686 181.42 100.841C179.457 95.0083 177.171 89.3327 174.939 83.7407C174.357 82.3241 173.773 81.0188 173.199 79.5187C172.916 78.7738 172.674 78.0135 172.477 77.2415C172.264 76.482 172.088 75.732 171.921 74.9917C171.246 72.0289 170.745 69.1591 169.903 66.4462C169.128 63.7815 167.978 61.2408 166.487 58.9005C165.009 56.6367 163.159 54.6395 161.015 52.9938C156.68 49.8239 151.738 47.5801 146.498 46.402C141.455 45.1997 136.315 44.4559 131.139 44.1798C126.291 43.7912 121.419 43.816 116.575 44.2539C112.141 44.6729 107.801 45.7884 103.716 47.5594C96.7631 50.6229 91.0365 55.9258 87.4485 62.6225C86.0587 65.2514 84.8762 67.9847 83.9118 70.7976C83.0601 73.3528 82.3842 75.6491 81.8659 77.6765C81.6064 78.6857 81.375 79.6207 81.2085 80.454C80.9475 81.2167 80.6382 81.9619 80.2825 82.6853C79.7758 83.6799 79.3426 84.7104 78.9866 85.7684C78.7457 86.4811 78.6625 86.8608 78.6625 86.8608L78.6254 86.935ZM75.5423 86.194C75.876 84.6722 76.0651 83.1223 76.107 81.5649C76.1816 80.7184 76.3084 79.8774 76.4868 79.0465C76.6521 78.6005 76.8437 78.1646 77.0606 77.7412L77.6348 76.2599C78.5584 73.9266 79.6029 71.6429 80.764 69.4182C83.9056 63.4181 88.0125 57.9757 92.9203 53.3085C95.9431 50.4768 99.4161 48.1678 103.197 46.4761C107.385 44.6278 111.825 43.414 116.372 42.8744C121.286 42.2921 126.24 42.1095 131.185 42.3282C136.494 42.442 141.782 43.0245 146.989 44.0689C152.34 45.2448 157.895 47.0961 162.728 50.6516C165.169 52.4416 167.288 54.6329 168.996 57.1322C170.677 59.7047 171.965 62.5131 172.82 65.465C173.651 68.3906 174.331 71.3572 174.856 74.3528C175.014 75.0749 175.161 75.7879 175.348 76.4824C175.507 77.1677 175.711 77.842 175.958 78.5007C176.487 79.9066 177.021 81.3107 177.56 82.7129C179.714 88.4101 181.637 94.2737 183.327 100.304C185.062 106.328 186.301 112.484 187.031 118.709C187.4 121.843 187.524 125 187.401 128.153C187.303 131.289 186.809 134.4 185.929 137.411C185.501 138.927 184.941 140.402 184.254 141.819C184.087 142.169 183.939 142.531 183.781 142.901C183.624 143.272 183.54 143.66 183.383 144.031C183.245 144.407 183.078 144.772 182.883 145.123L182.253 146.141C180.473 148.823 178.265 151.194 175.717 153.159C174.451 154.146 173.128 155.058 171.755 155.891C170.366 156.696 168.978 157.446 167.506 158.122C164.629 159.446 161.658 160.554 158.617 161.436C152.649 163.118 146.574 164.396 140.434 165.261C134.397 166.186 128.398 166.797 122.501 167.279C116.581 167.724 110.63 167.438 104.78 166.427C99.2083 165.476 93.7353 164.016 88.43 162.066C83.3871 160.238 78.5294 157.935 73.9222 155.187C71.6939 153.857 69.5788 152.346 67.5987 150.669C66.6056 149.813 65.6773 148.885 64.8212 147.891C63.9978 146.953 63.2223 145.973 62.4976 144.956C59.6437 141.081 57.8416 136.533 57.2664 131.754C56.8707 127.458 57.3849 123.127 58.7756 119.042C59.9473 115.555 61.438 112.183 63.2287 108.97C64.8491 106.016 66.4878 103.415 67.9319 101.063C70.2191 97.5533 72.2968 93.9114 74.154 90.1565C74.596 89.2091 74.9703 88.2315 75.2741 87.2311C75.3557 86.9757 75.4237 86.716 75.4779 86.4534L75.552 86.1758L75.5423 86.194Z" fill="#E5D1AE"/>
<path d="M77.0606 86.546C73.774 101.063 45.0916 124.042 66.8766 147.548C74.2831 155.548 98.3547 167.797 122.519 165.519C185.281 159.593 201.141 144.437 174.699 79.4633C170.403 68.8995 175.218 44.5594 129.083 43.1799C109.724 42.5967 86.4303 45.2543 77.0606 86.546Z" fill="#FFF8EF"/>
<path d="M89.5409 59.1133L89.4112 59.3262C89.2854 59.5232 89.1711 59.7273 89.0688 59.9374C88.662 60.722 88.3303 61.5433 88.0782 62.3904C87.1575 65.7616 86.844 69.2697 87.1523 72.7507C87.5272 78.2255 88.8556 83.5928 91.0778 88.6104C93.8999 95.141 98.2462 100.9 103.752 105.405C106.888 107.966 110.369 110.07 114.094 111.654C118.098 113.331 122.302 114.486 126.602 115.089C131.182 115.717 135.815 115.857 140.424 115.506C141.6 115.432 142.795 115.302 143.979 115.172H144.405L144.841 115.098C145.11 115.042 145.368 114.996 145.665 114.923C146.229 114.784 146.813 114.617 147.396 114.45C149.739 113.784 152.127 113.052 154.59 112.497C159.497 111.395 164.774 110.84 169.921 111.969C172.502 112.547 174.965 113.558 177.208 114.959C177.768 115.284 178.312 115.637 178.837 116.015L179.625 116.635L180.365 117.293C180.874 117.728 181.291 118.218 181.791 118.699C182.028 118.936 182.253 119.183 182.466 119.441C182.689 119.709 182.897 119.99 183.087 120.283C184.451 122.665 185.121 125.382 185.022 128.125C185.002 130.813 184.691 133.492 184.096 136.115C183.81 137.427 183.486 138.729 183.124 140.022L182.605 141.938L182.337 142.864L182.235 143.309V143.365C182.04 143.225 182.689 143.735 181.773 142.633C180.476 142.633 181.115 142.855 180.93 142.789V142.735C182.265 140.513 183.385 138.169 184.272 135.735C186.012 130.855 186.758 125.677 186.466 120.506C186.154 115.387 185.035 110.35 183.152 105.581C182.252 103.204 181.208 100.885 180.022 98.637C179.438 97.5112 178.82 96.4028 178.17 95.3133C177.788 94.6849 177.461 94.0251 177.189 93.3412C176.935 92.6703 176.725 91.9837 176.559 91.2857C175.94 88.6104 175.634 86.092 175.236 83.5925C174.838 81.0923 174.477 78.6669 173.958 76.2874C173.029 71.6636 171.392 67.2107 169.107 63.0852C166.925 59.2165 163.954 55.8505 160.386 53.2065C156.917 50.7027 153.065 48.7767 148.98 47.5033C145.114 46.2843 141.139 45.4472 137.11 45.0037C133.374 44.5782 129.613 44.3896 125.852 44.439C122.469 44.4626 119.091 44.7194 115.742 45.2072C110.303 45.9261 105.021 47.5469 100.114 50.0031C96.9961 51.5883 94.1766 53.7028 91.7817 56.2525C91.1599 56.9259 90.5728 57.6304 90.0228 58.3635L89.4951 59.1412L89.5409 59.1133ZM87.9856 58.1877L88.5503 57.3453C89.1244 56.5401 89.7425 55.7673 90.4019 55.0305C92.9154 52.2828 95.8847 49.99 99.1787 48.2533C104.243 45.5875 109.71 43.7703 115.362 42.8742C118.818 42.2856 122.311 41.9422 125.815 41.8465C129.685 41.7162 133.56 41.8306 137.415 42.1892C141.65 42.5566 145.836 43.3443 149.914 44.5408C154.36 45.8284 158.561 47.8431 162.348 50.5032C166.365 53.3789 169.734 57.0661 172.236 61.326C174.733 65.768 176.511 70.5771 177.504 75.5747C178.05 78.0742 178.43 80.602 178.828 83.12C179.226 85.6384 179.476 88.1844 180.004 90.5269C180.126 91.0817 180.281 91.6289 180.467 92.1655C180.67 92.6814 180.914 93.1799 181.198 93.6562C181.837 94.8042 182.466 95.9707 183.05 97.1649C184.23 99.5685 185.263 102.043 186.142 104.572C187.96 109.696 188.938 115.079 189.04 120.515C189.135 125.993 188.125 131.435 186.068 136.513C185.033 139.041 183.749 141.46 182.235 143.735C182.201 143.788 182.164 143.841 182.124 143.892C181.883 143.892 182.476 144.179 181.106 144.188C180.124 143.021 180.81 143.428 180.615 143.215V143.03C180.657 142.852 180.706 142.677 180.763 142.503L181.078 141.577L181.671 139.726C182.06 138.475 182.409 137.212 182.717 135.939C183.35 133.417 183.716 130.835 183.809 128.236C183.968 125.698 183.417 123.165 182.217 120.922C182.055 120.665 181.881 120.414 181.698 120.172C181.498 119.924 181.285 119.686 181.059 119.459C180.612 119.002 180.155 118.554 179.689 118.117L178.977 117.478L178.227 116.895C177.735 116.487 177.189 116.154 176.671 115.792C174.533 114.435 172.159 113.492 169.671 113.015C164.718 112.043 159.654 112.775 154.923 114.024C152.535 114.626 150.21 115.404 147.859 116.144C147.276 116.329 146.683 116.515 146.072 116.681C145.776 116.764 145.443 116.839 145.146 116.913L144.693 116.996H144.211C142.989 117.145 141.786 117.301 140.573 117.395C135.827 117.838 131.047 117.777 126.315 117.209C121.797 116.658 117.373 115.496 113.168 113.756C109.233 112.129 105.55 109.946 102.234 107.275C96.4922 102.475 91.9868 96.3658 89.0965 89.4621C86.8338 84.2011 85.4994 78.5878 85.1525 72.8713C84.8865 69.1526 85.2813 65.4161 86.319 61.8352C86.6239 60.8763 87.0143 59.9467 87.4856 59.0576C87.6523 58.7244 87.7821 58.5579 87.8652 58.4097L87.9946 58.1967L87.9856 58.1877Z" fill="#E5BFA1"/>
<path d="M91.4576 60.2153L91.2075 60.7154L91.1424 60.8356V61.0671C91.184 61.4461 91.2973 61.8137 91.4761 62.1504C92.0907 63.2025 92.8547 64.1599 93.744 64.9926C95.7986 66.9079 98.0168 68.6397 100.373 70.1682C105.197 73.3251 110.391 76.2043 115.52 78.9818C125.917 84.4813 136.601 89.5457 147.248 94.7208C152.571 97.3039 157.895 99.9055 163.182 102.609C165.829 103.97 168.459 105.386 171.06 106.803C173.662 108.219 176.254 109.757 178.773 111.432C180.032 112.274 181.272 113.154 182.475 114.127C183.069 114.626 183.661 115.145 184.226 115.7L184.652 116.145L184.855 116.367L184.911 116.423L184.994 116.534L185.077 116.645L185.744 117.571L186.078 118.015C186.189 118.181 186.3 118.385 186.401 118.561L187.031 119.69C187.205 120.065 187.359 120.448 187.494 120.839C187.654 121.214 187.784 121.6 187.883 121.996C188.099 122.778 188.247 123.577 188.327 124.385C188.327 124.783 188.429 125.181 188.429 125.579V126.773C188.262 129.859 187.613 132.898 186.503 135.782C185.494 138.633 184.235 141.337 183.097 144.04L181.245 143.114C183.054 139.999 184.418 136.645 185.3 133.152C186.173 129.666 186.575 126.079 186.494 122.486C186.447 121.561 186.494 120.7 186.383 119.802L186.096 117.126C186.003 116.2 185.782 115.358 185.633 114.479C185.486 113.592 185.291 112.715 185.05 111.849L184.337 109.247C184.133 108.322 183.744 107.544 183.467 106.692L182.541 104.146L181.42 101.683C181.032 100.868 180.708 100.026 180.272 99.23L178.967 96.8504L178.31 95.6654L177.976 94.9988L177.763 94.5912L177.606 94.2767C177.505 94.0543 177.402 93.888 177.3 93.6285L176.995 92.8137L176.856 92.4064L176.754 92.0455L176.559 91.3234C175.634 87.4997 175.263 83.9165 174.56 80.2967C173.935 76.7605 173.005 73.285 171.783 69.9088C170.572 66.6063 168.905 63.4898 166.829 60.6503C164.761 57.8577 162.238 55.4323 159.367 53.4753C156.466 51.5077 153.306 49.95 149.979 48.8462C149.152 48.541 148.308 48.2814 147.452 48.0686C146.591 47.8462 145.748 47.5961 144.878 47.3926C143.128 47.0685 141.406 46.6614 139.619 46.4667C138.693 46.3554 137.85 46.2072 136.962 46.124L134.277 45.9296L132.935 45.8278H131.583L128.907 45.7816H126.222C125.297 45.7816 124.371 45.7816 123.51 45.8928L120.908 46.1149L118.279 46.4761C114.788 47.0211 111.356 47.8953 108.03 49.0868C104.728 50.2274 101.573 51.7564 98.6326 53.6417L97.5492 54.3547L96.5031 55.1601C95.7995 55.6601 95.1792 56.2342 94.5403 56.7807C93.3304 57.8778 92.2551 59.1147 91.3369 60.4653L91.4576 60.2153ZM87.032 57.6878C89.3481 54.3479 92.3183 51.5131 95.7624 49.355C99.0338 47.2086 102.549 45.4588 106.233 44.1427C109.89 42.8653 113.66 41.9354 117.492 41.3652L120.362 41.0044L123.288 40.7914C124.287 40.6987 125.139 40.7173 126.12 40.6987H128.982L131.832 40.819L133.249 40.884L134.675 41.0229L137.517 41.2914C138.444 41.4027 139.369 41.569 140.351 41.7078C142.202 41.9484 144.119 42.4299 145.998 42.8188C146.924 43.0598 147.849 43.3465 148.776 43.606C149.701 43.8654 150.627 44.1889 151.553 44.5315C155.244 45.8249 158.737 47.6261 161.931 49.883C165.156 52.1749 167.973 54.9914 170.264 58.2155C172.502 61.4046 174.282 64.8919 175.551 68.5754C176.801 72.1901 177.73 75.9078 178.328 79.6854C178.977 83.3888 179.319 87.0923 180.06 90.5362L180.207 91.1472L180.291 91.4527L180.375 91.7028L180.522 92.2028C180.578 92.3787 180.708 92.6102 180.8 92.8137L180.949 93.1285C180.949 93.1285 180.855 92.9525 180.949 93.0637V93.1378L181.032 93.2952L181.365 93.9247L182.013 95.1838L183.327 97.7022C183.762 98.5355 184.096 99.4335 184.476 100.294L185.595 102.905L186.522 105.599C186.799 106.526 187.179 107.377 187.383 108.312L188.068 111.089C188.302 112.004 188.481 112.931 188.604 113.867C188.744 114.793 188.947 115.719 189.021 116.645L189.244 119.496C189.345 120.422 189.244 121.403 189.244 122.357C189.213 126.172 188.68 129.967 187.66 133.643C186.626 137.309 185.083 140.811 183.078 144.049C182.946 144.279 182.731 144.45 182.478 144.527C182.225 144.604 181.951 144.58 181.715 144.461C181.477 144.343 181.295 144.138 181.204 143.89C181.113 143.641 181.121 143.367 181.226 143.123C182.319 140.346 183.485 137.651 184.374 134.902C185.332 132.224 185.864 129.413 185.948 126.569C186.042 123.891 185.222 121.259 183.624 119.108L182.93 118.247L182.846 118.136C182.781 118.061 182.911 118.209 182.846 118.191L182.799 118.145L182.624 117.968L182.272 117.617C181.771 117.142 181.246 116.695 180.699 116.274C179.578 115.413 178.374 114.617 177.162 113.84C172.151 110.806 166.99 108.024 161.7 105.506C156.405 102.924 151.053 100.443 145.683 97.9613C134.934 93.0546 124.13 88.2403 113.502 82.8423C108.187 80.1484 102.91 77.3618 97.7625 74.1028C96.4845 73.2789 95.2162 72.4271 93.9756 71.5103C92.6959 70.5871 91.4774 69.582 90.3277 68.5013C89.031 67.3329 87.9224 65.9713 87.0411 64.4646C86.5215 63.4993 86.2065 62.4373 86.1154 61.3447C86.0846 61.0369 86.0846 60.7267 86.1154 60.4188C86.1068 60.2586 86.1068 60.0979 86.1154 59.9377C86.1154 59.7523 86.1987 59.5579 86.2543 59.3729C86.3099 59.1876 86.3655 58.9932 86.4302 58.817L86.5229 58.5676L86.5876 58.447L86.8375 57.9469L87.032 57.6878Z" fill="#895C2F"/>
<path d="M88.7542 58.6132C80.1809 71.8621 90.439 122.893 144.35 116.015C150.063 115.293 169.023 105.182 181.801 119.385C188.8 127.162 179.356 146.919 181.801 142.845C184.522 138.309 195.021 120.811 179.338 93.8505C174.273 85.2495 182.606 43.5592 128.584 43.087C107.826 42.8741 94.4575 49.8271 88.7542 58.6132Z" fill="#BA8449"/>
<g style="mix-blend-mode:multiply" opacity="0.15">
<path d="M87.2447 61.8352C102.799 51.8175 149.803 52.5029 164.829 76.5283C174.828 92.4897 156.497 131.819 149.803 136.837C143.109 141.855 133.675 146.197 109.02 140.291C88.1706 135.272 119.649 115.82 95.0589 112.988C72.5984 110.395 70.3854 72.7322 87.2447 61.8352Z" fill="#C7893E"/>
</g>
<g style="mix-blend-mode:multiply" opacity="0.25">
<path d="M130.759 100.544C130.759 101.739 128.481 102.701 125.667 102.701C122.853 102.701 120.565 101.776 120.565 100.544C120.565 99.313 122.825 98.4241 125.649 98.4241C128.472 98.4241 130.759 99.35 130.759 100.544Z" fill="#C7893E"/>
</g>
<path d="M121.797 94.1469C122.964 93.3691 129.204 93.6283 129.963 94.4062C130.722 95.1836 132.49 98.4888 130.481 99.8501C129.796 100.322 129.741 98.3685 128.213 98.6832C126.361 99.0723 127.287 101.516 125.88 101.461C123.612 101.396 125.796 98.8315 123.806 98.4797C122.315 98.2202 121.954 99.6277 121.343 99.5164C119.139 99.1371 120.167 95.2392 121.797 94.1469Z" fill="#F38089"/>
<path d="M125.204 94.2026C126.708 94.1109 128.217 94.3057 129.648 94.7763C130.465 95.7324 130.92 96.9448 130.936 98.2021C130.924 98.4201 130.867 98.6331 130.767 98.8276C130.669 99.0222 130.53 99.1938 130.361 99.3316L130.24 99.1833C130.078 98.8808 129.84 98.6255 129.549 98.4422C129.259 98.2588 128.926 98.1537 128.583 98.1371C128.442 98.1194 128.299 98.1194 128.157 98.1371C127.681 98.2737 127.258 98.5527 126.946 98.9368C126.632 99.3207 126.445 99.7913 126.408 100.285C126.222 100.998 126.157 101.156 125.944 101.156C125.306 101.156 125.287 100.887 125.306 100.109C125.324 99.3316 125.306 98.2577 123.945 97.9983C123.799 97.9609 123.65 97.9361 123.501 97.9242C122.827 97.941 122.19 98.2359 121.741 98.7389L121.482 98.9798C121.277 98.9494 121.087 98.8507 120.945 98.6995C120.801 98.5484 120.714 98.3536 120.695 98.1466C120.624 97.4734 120.717 96.7931 120.967 96.164C121.217 95.535 121.616 94.9763 122.13 94.5358C123.12 94.209 124.164 94.0799 125.204 94.156V94.2026ZM125.204 93.6378C124.064 93.5535 122.918 93.7113 121.843 94.1008C120.213 95.1931 119.186 99.0911 121.389 99.4795H121.464C122.01 99.4795 122.389 98.4057 123.501 98.4057C123.612 98.4057 123.732 98.2763 123.852 98.3039C125.843 98.6466 123.657 101.146 125.926 101.146C127.324 101.146 126.361 98.8781 128.222 98.4983C128.329 98.4838 128.438 98.4838 128.546 98.4983C129.62 98.4983 129.824 99.8037 130.287 99.8037C130.353 99.8243 130.424 99.8243 130.491 99.8037C132.5 98.4427 130.749 95.1746 129.973 94.369C129.518 93.9154 127.194 93.6469 125.167 93.6469L125.204 93.6378Z" fill="#F38089"/>
<g style="mix-blend-mode:multiply" opacity="0.25">
<path d="M173.82 114.654C176.115 129.643 157.404 148.521 132.213 152.381C107.021 156.242 88.3744 133.68 86.0689 118.691C83.7635 103.702 99.2808 109.423 124.436 105.553C149.59 101.684 171.495 99.665 173.82 114.654Z" fill="#F6E8D0"/>
</g>
<path opacity="0.5" d="M108.076 137.42C108.535 138.049 109.152 138.547 109.863 138.865C110.559 139.201 111.287 139.466 112.038 139.652C113.558 140.027 115.106 140.271 116.668 140.383C119.749 140.622 122.843 140.641 125.926 140.438C129.027 140.253 132.111 139.92 135.184 139.457C136.712 139.217 138.24 138.957 139.749 138.615C141.249 138.315 142.716 137.868 144.128 137.282C144.424 137.143 144.804 136.883 144.785 136.79L145.072 135.671C145.295 134.921 145.554 134.152 145.813 133.412C146.359 131.949 146.943 130.505 147.544 129.06C148.748 126.181 150.063 123.357 151.414 120.542C152.081 119.135 152.784 117.765 153.488 116.339C154.192 114.914 154.923 113.561 155.655 112.182C156.394 110.789 157.174 109.417 157.997 108.071C158.423 107.396 158.83 106.72 159.303 106.034L160.043 105.026C160.339 104.674 160.672 104.322 160.968 103.979L162.468 106.646C159.617 107.571 156.765 108.497 153.886 109.294C152.451 109.71 150.998 110.072 149.553 110.45C148.109 110.831 146.646 111.155 145.193 111.506C143.739 111.858 142.276 112.136 140.814 112.432C139.35 112.728 137.869 112.988 136.406 113.265C134.944 113.543 133.453 113.738 131.972 113.987C130.491 114.237 129.009 114.404 127.527 114.58C126.046 114.756 124.556 114.941 123.056 115.052C121.556 115.163 120.075 115.339 118.575 115.385L114.094 115.571H109.585C108.085 115.571 106.576 115.432 105.076 115.358L102.827 115.219L100.577 114.95L98.3549 114.654L97.2345 114.515L96.1141 114.209L91.661 113.284L92.4943 110.386L94.3738 111.386L94.8368 111.664L95.2718 111.978L96.1422 112.608C96.4315 112.805 96.7097 113.018 96.9754 113.246L97.7437 113.96L98.5028 114.673C98.7438 114.933 98.9476 115.209 99.1696 115.469C99.626 115.98 100.047 116.521 100.429 117.089C100.815 117.638 101.174 118.206 101.503 118.793C101.799 119.404 102.16 119.969 102.428 120.579C102.697 121.19 102.984 121.793 103.233 122.431L103.919 124.283L104.53 126.134C104.909 127.392 105.26 128.657 105.585 129.93C105.911 131.202 106.26 132.467 106.632 133.727C106.836 134.356 107.002 134.985 107.252 135.578C107.476 136.214 107.751 136.83 108.076 137.42ZM108.076 137.42C107.736 136.857 107.445 136.265 107.205 135.652C106.938 135.05 106.761 134.411 106.548 133.8L105.41 130.032C105.019 128.788 104.599 127.553 104.151 126.329L103.437 124.478L102.605 122.718C102.299 122.135 101.975 121.579 101.679 121.014C101.382 120.449 100.966 119.931 100.605 119.404C100.237 118.884 99.835 118.389 99.4011 117.923C98.9959 117.437 98.5463 116.991 98.0584 116.589C97.8178 116.385 97.5957 116.163 97.3548 115.969L96.503 115.469L95.7348 114.959C95.4719 114.799 95.196 114.66 94.9105 114.543L94.0773 114.164L93.7255 113.978L93.2811 113.849L91.5313 113.386C91.1433 113.281 90.8117 113.029 90.6074 112.682C90.4033 112.336 90.3428 111.924 90.4389 111.534C90.5348 111.192 90.7476 110.894 91.0404 110.693C91.333 110.491 91.687 110.399 92.0407 110.432L92.374 110.488L96.6422 111.293L97.7069 111.479L98.7899 111.608L100.956 111.877L103.123 112.137L105.298 112.265C106.761 112.33 108.206 112.497 109.668 112.469H114.057L118.436 112.284C119.898 112.284 121.362 112.061 122.825 111.96C124.287 111.858 125.741 111.682 127.194 111.497C128.648 111.311 130.101 111.164 131.555 110.914C133.008 110.663 134.463 110.497 135.897 110.21C137.332 109.923 138.795 109.691 140.23 109.395C141.666 109.099 143.109 108.794 144.535 108.47C145.961 108.146 147.396 107.813 148.822 107.432C150.247 107.053 151.674 106.711 153.081 106.303C155.906 105.516 158.709 104.652 161.487 103.711C161.815 103.595 162.172 103.595 162.501 103.707C162.829 103.82 163.11 104.04 163.298 104.332C163.487 104.624 163.571 104.971 163.538 105.317C163.505 105.662 163.357 105.987 163.116 106.238L162.987 106.377L162.312 106.988L161.598 107.803C161.127 108.349 160.672 108.96 160.209 109.553C159.284 110.784 158.46 112.061 157.617 113.349C156.775 114.635 155.97 115.95 155.182 117.284C154.395 118.616 153.609 119.941 152.859 121.292C151.35 123.996 149.905 126.736 148.563 129.523C147.892 130.907 147.275 132.314 146.711 133.745C146.426 134.453 146.16 135.169 145.914 135.893L145.581 137.003C145.489 137.274 145.301 137.5 145.053 137.642C144.874 137.761 144.686 137.863 144.489 137.948C143.008 138.502 141.476 138.908 139.915 139.161C138.379 139.447 136.835 139.691 135.286 139.892C132.213 140.285 129.124 140.541 126.027 140.66C122.921 140.811 119.806 140.761 116.705 140.513C115.142 140.386 113.594 140.125 112.076 139.735C111.321 139.542 110.589 139.271 109.89 138.929C109.155 138.61 108.518 138.098 108.048 137.448L108.076 137.42Z" fill="#D7CAB2"/>
<path opacity="0.5" d="M108.067 137.429C108.532 138.053 109.147 138.55 109.854 138.874C110.552 139.214 111.284 139.478 112.038 139.661C113.559 140.035 115.107 140.283 116.668 140.402C119.749 140.629 122.842 140.65 125.926 140.466C129.025 140.301 132.114 139.992 135.184 139.541C136.712 139.318 138.249 139.068 139.758 138.744C141.269 138.451 142.749 138.01 144.174 137.429C144.489 137.272 144.887 137.059 144.942 136.837L145.24 135.707C145.462 134.967 145.73 134.217 145.989 133.485C146.543 132.027 147.132 130.582 147.757 129.152C149.008 126.301 150.359 123.505 151.757 120.718C152.442 119.32 153.155 117.941 153.877 116.561C154.598 115.18 155.345 113.813 156.117 112.46C156.876 111.136 157.691 109.757 158.534 108.432C158.969 107.775 159.386 107.108 159.858 106.469L160.589 105.544C160.874 105.213 161.184 104.903 161.515 104.618L162.265 105.951C159.442 106.877 156.599 107.803 153.729 108.581C152.303 108.998 150.849 109.358 149.415 109.738C147.979 110.117 146.526 110.432 145.072 110.784C143.619 111.136 142.165 111.413 140.712 111.71C139.258 112.007 137.786 112.256 136.323 112.534C134.86 112.811 133.389 113.006 131.916 113.246C130.444 113.488 128.972 113.663 127.491 113.849C126.009 114.034 124.537 114.209 123.047 114.311C121.556 114.413 120.075 114.599 118.584 114.645L114.094 114.793H109.613C108.123 114.793 106.632 114.654 105.141 114.58L102.901 114.441L100.669 114.163L98.4382 113.895L97.3273 113.756L96.2254 113.367L91.8184 112.312L92.2444 110.987L94.0959 111.96L94.5588 112.22L94.9848 112.515L95.846 113.09C96.1237 113.284 96.429 113.441 96.6884 113.663L97.4476 114.339L98.2158 115.006C98.4473 115.247 98.6606 115.515 98.8826 115.765C99.3646 116.245 99.8074 116.761 100.207 117.311C100.608 117.842 100.978 118.396 101.317 118.968C101.632 119.561 101.993 120.116 102.243 120.709C102.493 121.301 102.817 121.904 103.077 122.561L103.799 124.412L104.438 126.264C104.832 127.518 105.199 128.781 105.54 130.05C105.882 131.319 106.233 132.587 106.613 133.837C106.817 134.457 106.983 135.096 107.243 135.689C107.47 136.29 107.746 136.873 108.067 137.429ZM108.067 137.429C107.73 136.865 107.442 136.274 107.205 135.661C106.947 135.059 106.77 134.42 106.557 133.809L105.438 130.032C105.071 128.787 104.67 127.552 104.234 126.329L103.548 124.477L102.753 122.69C102.465 122.098 102.142 121.533 101.827 120.95C101.512 120.366 101.142 119.848 100.799 119.302C100.433 118.767 100.041 118.251 99.6232 117.755C99.2396 117.247 98.8154 116.77 98.3549 116.33C98.1235 116.108 97.9011 115.876 97.6605 115.673L96.8366 115.089L96.0681 114.524C95.8039 114.349 95.5289 114.191 95.2442 114.053L94.4019 113.608L93.9851 113.386L93.5402 113.237L91.7537 112.636C91.5588 112.571 91.3978 112.43 91.3058 112.247C91.2138 112.062 91.1985 111.849 91.2632 111.654C91.3292 111.495 91.4515 111.365 91.6067 111.29C91.7621 111.216 91.9396 111.199 92.1055 111.247L92.1702 111.377L96.4845 112.108L97.5678 112.256L98.6602 112.358L100.845 112.617L103.03 112.877L105.234 113.006C106.696 113.071 108.159 113.237 109.641 113.21L114.094 113.237L118.51 113.052C119.982 113.052 121.445 112.83 122.917 112.728C124.389 112.626 125.852 112.451 127.314 112.265C128.778 112.08 130.24 111.923 131.694 111.673C133.148 111.423 134.619 111.257 136.064 110.969C137.508 110.682 138.971 110.45 140.415 110.145C141.86 109.84 143.304 109.544 144.739 109.22C146.179 108.896 147.615 108.55 149.044 108.182C150.479 107.812 151.905 107.451 153.321 107.034C156.164 106.256 158.979 105.377 161.765 104.433C161.862 104.399 161.964 104.385 162.066 104.391C162.168 104.397 162.268 104.423 162.36 104.468C162.452 104.513 162.535 104.575 162.603 104.652C162.67 104.728 162.723 104.817 162.756 104.914C162.8 105.051 162.809 105.197 162.777 105.336C162.747 105.477 162.678 105.606 162.579 105.71L162.515 105.766L161.765 106.488L161.043 107.349C160.571 107.933 160.117 108.563 159.672 109.201C158.802 110.46 157.969 111.756 157.155 113.071C156.341 114.387 155.551 115.717 154.784 117.062C154.016 118.403 153.247 119.755 152.516 121.116C151.054 123.893 149.646 126.616 148.341 129.449C147.718 130.863 147.1 132.279 146.489 133.698C146.212 134.42 145.943 135.134 145.701 135.865L145.378 136.985C145.303 137.216 145.14 137.41 144.925 137.522C144.755 137.639 144.575 137.738 144.387 137.819C142.922 138.38 141.406 138.795 139.86 139.058C138.332 139.355 136.795 139.614 135.231 139.817C132.159 140.242 129.069 140.523 125.972 140.66C122.868 140.825 119.756 140.782 116.658 140.531C115.096 140.403 113.547 140.144 112.029 139.753C111.275 139.559 110.543 139.29 109.844 138.947C109.126 138.611 108.509 138.09 108.057 137.438L108.067 137.429Z" fill="#D7CAB2"/>
<path d="M108.057 137.439C112.076 143.66 144.572 139.373 145.091 136.92C146.517 130.569 158.182 108.275 161.941 105.164C155.201 107.498 120.334 118.644 91.9572 111.905C104.835 116.015 104.937 132.606 108.057 137.438V137.439Z" fill="#333333"/>
<path d="M157.682 108.182C152.803 115.543 145.313 129.902 143.721 136.161C141.795 137.216 131.685 139.096 121.75 139.096C113.826 139.096 110.16 137.809 109.381 136.596C108.457 134.734 107.76 132.765 107.307 130.736C105.966 125.94 104.132 119.422 99.6509 114.857C103.718 115.361 107.811 115.608 111.91 115.598C130.611 115.598 148.85 110.867 157.692 108.191L157.682 108.182ZM161.987 105.173C156.774 107.025 134.749 114.053 111.91 114.053C105.214 114.111 98.5339 113.394 92.0038 111.914C104.835 116.015 104.937 132.606 108.057 137.439C109.594 139.809 115.279 140.651 121.741 140.651C132.232 140.651 144.785 138.439 145.128 136.948C146.553 130.597 158.219 108.303 161.978 105.192L161.987 105.173Z" fill="#333333"/>
<g style="mix-blend-mode:multiply">
<path d="M106.122 131.995C108.28 133.847 115.621 125.597 114.844 122.403C112.854 114.284 103.873 115.404 100.586 114.886C97.2992 114.367 90.9481 111.562 93.5867 112.386C101.197 114.719 115.705 113.682 117.436 114.237C119.622 114.886 121.14 123.737 118.992 125.727C116.844 127.718 109.242 139.29 108.104 137.309C106.965 135.328 106.687 133.208 106.122 131.995ZM140.508 122.403C142.248 124.097 146.813 126.107 149.664 125.079C149.15 126.68 148.454 128.218 147.591 129.662C127.889 127.931 133.249 114.108 134.712 112.811C136.175 111.515 154.414 108.923 157.96 108.182C152.599 109.358 134.463 116.534 140.508 122.403Z" fill="#818181"/>
</g>
<path d="M121.5 140.697C114.798 140.697 110.391 139.772 108.705 137.92C108.576 137.763 108.549 136.827 109.317 135.077C111.168 130.8 116.955 123.403 126.907 122.801C127.574 122.801 128.241 122.736 128.889 122.736C140.601 122.736 147.655 128.681 147.674 129.745L147.099 131.124C146.47 132.643 145.507 134.939 144.656 137.494C143.823 138.328 132.027 140.697 121.5 140.697Z" fill="#F8B1AB"/>
<path d="M128.908 122.496V123.246C139.092 123.246 146.359 128.273 147.118 129.727C146.989 130.051 146.813 130.449 146.619 130.921C145.999 132.403 145.063 134.624 144.23 137.105C142.572 138.032 131.62 140.18 121.455 140.18C115.094 140.18 110.725 139.253 109.114 137.642C109.039 137.096 109.575 134.939 111.52 132.161C113.261 129.68 118.261 123.829 126.917 123.32C127.565 123.32 128.241 123.255 128.889 123.255V122.218L128.908 122.496ZM128.889 122.218C128.232 122.218 127.555 122.218 126.87 122.283C113.168 123.098 106.836 136.68 108.28 138.235C110.28 140.429 115.529 141.188 121.455 141.188C132.018 141.188 144.748 138.763 145.128 137.633C146.295 134.134 147.637 131.153 148.156 129.857C148.674 128.561 140.748 122.191 128.87 122.191L128.889 122.218Z" fill="#F38089"/>
<g style="mix-blend-mode:multiply">
<path d="M108.539 137.476C107.613 141.725 133.462 121.024 147.424 130.995C150.201 127.125 134.805 120.644 125.815 122.144C118.233 123.422 110.436 128.282 108.539 137.476Z" fill="#F8B1AB"/>
</g>
<path d="M113.76 115.274C115.02 117.607 117.519 128.977 118.557 129.273C119.593 129.569 125.963 131.347 126.889 130.957C127.815 130.569 127.731 128.365 128.741 129.013C129.518 129.532 129.907 130.569 130.685 130.18C132.074 129.486 136.239 126.94 136.907 125.773C137.573 124.606 137.425 118.126 136.907 112.941C134.11 114.108 118.427 115.792 113.76 115.274Z" fill="#FEF6E4"/>
<path d="M136.379 113.645C136.869 118.969 136.878 124.625 136.379 125.523C135.879 126.422 132.074 128.866 130.38 129.717C130.346 129.722 130.311 129.722 130.278 129.717C130.157 129.717 129.926 129.467 129.732 129.254C129.498 128.992 129.238 128.757 128.953 128.551C128.773 128.426 128.561 128.356 128.343 128.348C127.676 128.348 127.416 129.023 127.177 129.569C127.037 129.902 126.852 130.366 126.657 130.495C126.589 130.505 126.521 130.505 126.453 130.495C124.091 130.17 121.757 129.662 119.473 128.977L118.76 128.792C118.269 128.236 117.233 124.588 116.473 121.904C115.789 119.515 115.141 117.275 114.621 115.858H116.066C122.02 115.858 132.944 114.617 136.435 113.608L136.379 113.645ZM136.887 112.904C134.518 113.923 122.278 115.339 116.094 115.339C115.333 115.345 114.573 115.311 113.816 115.238C115.02 117.608 117.519 128.977 118.557 129.273C119.593 129.569 124.778 131.014 126.453 131.014C126.589 131.02 126.724 131.001 126.852 130.957C127.648 130.616 127.695 128.894 128.343 128.894C128.46 128.9 128.573 128.942 128.667 129.014C129.324 129.448 129.704 130.264 130.278 130.264C130.393 130.261 130.508 130.233 130.611 130.181C131.999 129.486 136.166 126.94 136.833 125.774C137.499 124.607 137.351 118.126 136.833 112.941L136.888 112.904H136.887Z" fill="#FFD085"/>
<g style="mix-blend-mode:multiply">
<path d="M115.575 120.719C115.149 116.525 134.583 115.163 137.008 115.487C137.008 114.497 136.833 113.811 136.878 112.71C133.675 114.32 116.223 116.015 113.807 115.321C114.529 117.073 115.121 118.878 115.575 120.719Z" fill="#EADCBE"/>
</g>
<g style="mix-blend-mode:multiply">
<path d="M125.278 117.552C125.548 118.107 125.788 118.676 126 119.255C126.408 120.293 126.926 121.691 127.343 123.089C127.759 124.487 128.268 125.866 128.556 126.95L129.083 128.69L127.741 129.079L127.333 127.227C127.092 126.153 126.768 124.728 126.408 123.302C126.046 121.876 125.685 120.468 125.37 119.422C125.055 118.376 124.797 117.71 124.797 117.71L125.278 117.552Z" fill="#FFD085"/>
</g>
<g style="mix-blend-mode:multiply" opacity="0.4">
<path d="M59.4697 51.4288C69.7929 54.0584 68.1078 71.899 74.2831 73.2879C80.4584 74.6765 88.4947 58.6137 89.2724 55.0767C77.3756 50.0217 71.8669 44.0502 63.349 45.8186C60.5348 46.3553 56.581 50.6791 59.4697 51.4288Z" fill="#F8B1AB"/>
</g>
<g style="mix-blend-mode:multiply" opacity="0.5">
<path d="M88.0597 103.572C101.021 104.608 111.733 105.127 115.538 101.146C119.343 97.1649 120.723 79.5464 127.028 79.9817C132.315 80.3426 134.111 103.312 137.564 103.998C141.018 104.683 165.339 111.349 171.348 105.127C177.356 98.9056 180.162 95.0172 178.754 91.2396C177.347 87.4624 141.869 75.2782 134.629 74.6212C127.389 73.9637 78.3012 80.065 77.0605 83.1756C75.8199 86.2864 74.524 85.842 74.7554 89.1657C75.209 95.3595 75.0978 102.535 88.0597 103.572Z" fill="#C7893E"/>
</g>
<path d="M124.389 77.4359C125.315 77.4359 129.018 77.1765 129.833 77.8248C134.536 81.5279 134.333 96.5357 139.295 101.276C143.674 105.461 167.551 108.534 171.7 103.739C175.847 98.9429 181.929 84.4348 183.355 83.3704C184.781 82.3056 187.892 81.5188 188.799 80.1299C189.707 78.7413 188.929 72.353 186.726 72.6125C184.522 72.8716 180.374 74.2972 177.782 73.5381C175.19 72.779 162.626 64.8539 130.999 69.6497C128.269 69.9957 125.498 69.8197 122.834 69.1311C120.76 68.6125 108.835 61.7246 77.0886 66.2795C73.9128 66.733 69.5708 65.3535 68.0155 65.5018C66.4601 65.6501 65.9506 70.5662 66.5895 71.8625C67.2284 73.1583 70.4779 74.1955 70.8668 75.7509C71.2556 77.3063 74.1072 92.5917 81.6249 98.9429C89.541 105.636 109.891 101.007 111.687 99.7206C119.853 93.888 121.667 77.4359 124.389 77.4359Z" fill="#333333"/>
<path d="M97.0678 66.2979C111.196 66.2979 118.418 69.1215 121.14 70.1772C121.559 70.3598 121.989 70.5175 122.427 70.6492C124.368 71.1359 126.36 71.3877 128.362 71.3993C129.309 71.4037 130.256 71.3353 131.194 71.1954C137.389 70.2372 143.646 69.7451 149.914 69.7233C164.774 69.7233 172.505 73.0473 175.838 74.4729C176.504 74.7601 176.985 74.9636 177.375 75.0839C178.11 75.2907 178.87 75.3905 179.634 75.3804C181.38 75.3106 183.114 75.0593 184.809 74.6303C185.531 74.4821 186.217 74.3338 186.754 74.2509C187.476 75.0377 187.911 78.5372 187.531 79.3615C186.747 80.0119 185.85 80.5109 184.883 80.8333C184.03 81.1788 183.214 81.61 182.448 82.1204C181.614 82.7222 180.727 84.3888 178.199 89.3881C175.792 94.1469 172.8 100.072 170.523 102.701C169.727 103.628 166.903 104.553 161.358 104.553C153.127 104.553 142.73 102.341 140.369 100.091C138.221 98.0353 137.074 93.2951 135.972 88.7216C134.74 83.6108 133.536 78.7873 130.759 76.6025C130.056 76.0469 128.908 75.8248 126.741 75.8248H124.353C122.167 75.8248 121.195 78.5373 119.584 83.046C117.798 88.2402 115.279 95.2487 110.808 98.4245C109.817 99.026 102.475 100.905 95.0684 100.905C89.4022 100.905 85.1064 99.8131 82.6527 97.7392C79.6807 95.2302 75.5147 89.4063 72.5519 76.0098C72.4872 75.7042 72.4407 75.4821 72.4036 75.3527C72.0428 73.9083 70.6542 73.0008 69.4226 72.2046C68.9172 71.9081 68.4455 71.557 68.0155 71.1584C67.7881 69.7732 67.9418 68.3522 68.46 67.0475C69.1805 67.1131 69.8974 67.2151 70.6077 67.3532C72.2839 67.6791 73.9838 67.8681 75.6906 67.9183C76.231 67.9408 76.7722 67.925 77.3107 67.8717C83.8515 66.886 90.4534 66.3598 97.0678 66.2979ZM97.0678 64.7424C90.3705 64.7821 83.6846 65.2988 77.0606 66.2887C76.5882 66.3527 76.1118 66.3838 75.635 66.3811C72.8575 66.3811 69.6817 65.4555 68.2284 65.4555H67.997C66.4416 65.5848 65.9231 70.5104 66.571 71.8066C67.2193 73.1026 70.4594 74.1397 70.8486 75.6951C71.2374 77.2505 74.0887 92.5359 81.6064 98.8872C84.7637 101.553 89.8837 102.424 95.0219 102.424C102.79 102.424 110.595 100.443 111.687 99.6463C119.853 93.8137 121.667 77.3617 124.39 77.3617C124.806 77.3617 125.769 77.3061 126.778 77.3061C128.037 77.3061 129.379 77.3893 129.833 77.7505C134.536 81.4536 134.333 96.4614 139.295 101.201C142.073 103.877 152.868 106.099 161.358 106.099C166.144 106.099 170.2 105.395 171.7 103.664C175.847 98.8687 181.929 84.3608 183.355 83.2961C184.781 82.2313 187.892 81.4445 188.8 80.0556C189.707 78.667 188.966 72.5287 186.855 72.5287H186.726C184.985 72.7322 182.04 73.6676 179.597 73.6676C178.971 73.6777 178.348 73.6002 177.745 73.4362C175.755 72.8344 167.838 68.0105 149.878 68.0105C143.543 68.0489 137.22 68.5627 130.962 69.5474C130.101 69.6729 129.231 69.7349 128.362 69.7327C126.488 69.7211 124.623 69.4849 122.806 69.0292C121.269 68.7977 114.094 64.7424 97.0678 64.7424Z" fill="#1A1A1A"/>
<g style="mix-blend-mode:multiply" opacity="0.5">
<path fill-rule="evenodd" clip-rule="evenodd" d="M79.6806 75.8802C78.9585 76.8062 78.5142 90.6476 84.3101 94.3971C88.1334 96.869 104.4 96.3413 107.64 94.5265C112.788 91.6752 117.798 78.528 116.353 76.658C114.02 73.5472 97.1789 69.3997 84.467 72.6401C82.622 73.2955 80.9745 74.4106 79.6806 75.8802Z" stroke="#333333" stroke-width="1.06243"/>
</g>
<path d="M79.6806 75.8802C78.9585 76.8062 78.5142 90.6476 84.3101 94.3971C88.1334 96.869 104.4 96.3413 107.64 94.5265C112.788 91.6752 117.798 78.528 116.353 76.658C114.02 73.5472 97.1789 69.3997 84.467 72.6401C82.622 73.2955 80.9745 74.4106 79.6806 75.8802Z" fill="white"/>
<g style="mix-blend-mode:multiply" opacity="0.5">
<path fill-rule="evenodd" clip-rule="evenodd" d="M175.116 81.935C175.708 82.9442 174.357 96.7485 168.088 99.7109C163.977 101.655 147.915 99.0353 144.942 96.8132C140.239 93.3135 137.008 79.63 138.647 77.954C141.36 75.1764 158.608 73.2417 170.773 78.1022C172.526 78.9866 174.02 80.3065 175.116 81.935Z" stroke="#333333" stroke-width="1.06243"/>
</g>
<path d="M175.116 81.935C175.708 82.9442 174.357 96.7485 168.088 99.7109C163.977 101.655 147.915 99.0353 144.942 96.8132C140.239 93.3135 137.008 79.63 138.647 77.954C141.36 75.1764 158.608 73.2417 170.773 78.1022C172.526 78.9866 174.02 80.3065 175.116 81.935Z" fill="white"/>
<path d="M98.1787 84.2777C97.7531 87.2866 96.2254 89.5642 94.7721 89.3512C93.3182 89.1382 92.4943 86.5737 92.9203 83.5276C93.3461 80.4817 94.8735 78.2412 96.3271 78.4542C97.7808 78.6671 98.6046 81.2687 98.1787 84.2777ZM160.386 87.7773C160.71 90.8048 159.774 93.3322 158.321 93.5267C156.867 93.7211 155.423 91.351 155.109 88.3235C154.794 85.296 155.719 82.7223 157.182 82.5741C158.645 82.4258 160.08 84.7498 160.386 87.7773Z" fill="#010101"/>
<g style="mix-blend-mode:multiply" opacity="0.3">
<path d="M68.2099 69.9177C69.9782 71.0936 71.6448 70.3715 72.0336 72.6951C72.4225 75.0191 77.8016 95.3686 84.5412 97.6926C95.5775 101.535 109.465 97.7762 111.316 96.5725C113.168 95.3689 122.01 75.6488 123.501 74.8708C124.991 74.0931 129.685 74.9544 130.694 75.3897C133.741 76.6856 139.323 98.0818 140.878 99.165C147.683 103.96 169.458 103.572 170.505 102.275C171.551 100.979 179.764 82.2773 181.189 81.1573C183.327 79.5373 188.253 78.4354 188.382 79.1484C188.512 79.8611 184.429 80.5093 183.198 82.0648C181.967 83.6201 173.746 101.507 171.163 103.054C168.58 104.599 149.488 107.174 139.86 100.396C135.231 97.1558 133.443 77.6578 129.814 76.621C127.928 76.0001 125.905 75.9326 123.982 76.4265C121.713 77.9169 118.538 94.4339 111.733 98.6465C109.039 100.322 87.8468 104.396 81.5417 97.8041C69.7467 85.4996 73.311 74.482 69.5058 72.862C66.8766 71.751 66.3304 70.3992 66.3951 69.427C66.4601 68.455 67.2375 69.2697 68.2099 69.9177ZM68.4043 65.7701C67.1727 65.3165 73.7184 68.0384 76.135 67.8717C78.5513 67.7052 82.6156 66.0201 83.9119 65.6033C85.2081 65.1868 77.8197 66.5293 76.0053 66.4457C74.1908 66.3624 69.117 66.0201 68.4043 65.7701ZM119.075 69.3994C121.343 70.4362 122.38 72.9637 124.63 73.2231C126.879 73.4823 129.491 73.8711 130.723 73.1581C132.384 72.1781 134.124 71.3388 135.925 70.6491C136.851 70.4547 129.121 71.6863 126.269 71.4268C123.241 71.1303 119.917 69.5288 119.075 69.3994ZM174.486 72.4454C173.56 72.0566 177.912 75.6209 179.208 75.4264C180.504 75.232 182.911 73.7508 183.837 73.4176C184.614 73.1581 180.727 74.1953 179.559 74.0005C177.833 73.6062 176.137 73.0865 174.486 72.4454Z" fill="#333333"/>
</g>
<g style="mix-blend-mode:multiply" opacity="0.3">
<path d="M77.2179 73.8713C82.9858 68.1681 96.7159 70.1123 99.2158 70.6308C82.7267 71.8253 82.4306 73.0569 79.5513 75.9729C78.7437 81.4475 79.2936 87.0367 81.1528 92.249C78.3197 90.6195 75.2923 75.7788 77.2179 73.8713ZM178.254 80.0005C173.292 73.5937 159.423 73.714 156.876 73.899C173.069 77.2507 173.19 78.5284 175.671 81.7779C175.754 87.3086 174.482 92.7755 171.968 97.7023C174.967 96.4616 179.92 82.1486 178.254 80.0005Z" fill="#333333"/>
</g>
<g style="mix-blend-mode:multiply">
<path d="M79.8383 85.4071C80.4121 78.6391 81.0045 73.2509 94.3272 72.8344C104.993 72.5009 113.502 75.0011 114.76 77.5653C115.548 79.1762 114.927 86.3793 109.585 92.9525C113.048 89.8694 118.51 77.8247 116.131 76.2876C107.446 70.7325 90.2073 70.5846 83.7915 72.8897C82.143 73.6066 80.673 74.6783 79.4862 76.0284C79.3198 77.7226 79.2922 84.4626 79.8383 85.4071Z" fill="#D0DDDC"/>
</g>
<g style="mix-blend-mode:multiply">
<path d="M80.2455 85.8605C82.2733 98.9426 106.252 94.9707 107.678 94.4525C107.586 95.1836 95.1051 98.6465 84.6063 94.6283C80.3843 93.0079 80.0049 84.3604 80.2455 85.8605ZM174.005 91.2581C174.264 84.4719 174.338 79.0558 161.172 77.0003C150.627 75.3617 141.869 76.8059 140.313 79.1855C139.332 80.6943 139.063 87.9159 143.563 95.1004C140.499 91.6193 136.554 78.9907 139.11 77.7689C148.368 73.3063 165.561 75.2876 171.615 78.3612C173.167 79.2728 174.495 80.519 175.504 82.0091C175.458 83.6939 174.671 90.3874 174.005 91.2581Z" fill="#D0DDDC"/>
</g>
<g style="mix-blend-mode:multiply">
<path d="M173.551 91.6565C169.931 104.396 146.628 97.5168 145.276 96.8227C145.276 97.5633 157.238 102.526 168.145 99.8222C172.533 98.7389 173.967 90.1934 173.551 91.6565Z" fill="#D0DDDC"/>
</g>
<g style="mix-blend-mode:screen" opacity="0.25">
<path d="M97.056 81.3374C97.525 81.3374 97.9051 80.9572 97.9051 80.4883C97.9051 80.0194 97.525 79.6392 97.056 79.6392C96.587 79.6392 96.2069 80.0194 96.2069 80.4883C96.2069 80.9572 96.587 81.3374 97.056 81.3374Z" fill="white"/>
</g>
<g style="mix-blend-mode:screen" opacity="0.25">
<path d="M158.744 84.9668C159.213 84.9668 159.594 84.5866 159.594 84.1176C159.594 83.6488 159.213 83.2686 158.744 83.2686C158.275 83.2686 157.895 83.6488 157.895 84.1176C157.895 84.5866 158.275 84.9668 158.744 84.9668Z" fill="white"/>
</g>
<g style="mix-blend-mode:screen" opacity="0.1">
<path d="M68.5988 69.0753C70.4503 71.2139 71.6078 71.4178 74.1537 71.0845C98.475 67.8717 111.881 68.0384 118.491 74.26C119.927 75.6118 119.14 70.3065 116.418 69.6309C95.9478 64.2147 81.1067 69.0753 77.9866 69.4641C74.8664 69.853 72.5519 69.1399 68.5988 69.0753ZM135.731 72.186C135.184 72.7507 135.416 78.3799 138.063 76.2688C145.711 70.1768 161.718 71.6398 172.866 75.3432C171.014 71.8436 158.052 69.3808 150.701 69.5106C147.258 69.5847 137.24 70.6495 135.731 72.186Z" fill="#D0DDDC"/>
</g>
<path d="M179.273 77.9671C180.776 77.9671 181.995 77.5869 181.995 77.1179C181.995 76.649 180.776 76.2688 179.273 76.2688C177.769 76.2688 176.55 76.649 176.55 77.1179C176.55 77.5869 177.769 77.9671 179.273 77.9671Z" fill="#D0DDDC"/>
<path d="M76.7273 69.8901C76.7273 70.1124 75.4496 70.0939 73.9498 69.8901C72.45 69.6866 71.3021 69.2513 71.3391 69.0197C71.3762 68.7883 72.6168 68.8068 74.1166 69.0197C75.6164 69.2327 76.7644 69.6586 76.7273 69.8901Z" fill="#D0DDDC"/>
<path d="M227.907 195.062C227.434 190.304 223.953 188.174 220.713 188.174C219.64 188.178 218.578 188.386 217.584 188.785L216.945 189.063L216.408 189.461C215.399 190.206 214.293 190.81 213.121 191.257C213.062 190.169 213.099 189.079 213.232 187.998V187.823C214.112 179.444 212.361 174.555 208.02 173.287C207.289 173.075 206.531 172.969 205.77 172.972C203.418 173.079 201.155 173.907 199.289 175.342C198.536 174.489 197.598 173.818 196.548 173.383C195.497 172.946 194.36 172.755 193.224 172.824C189.253 172.824 186.059 174.676 184.892 177.666C184.781 177.953 184.623 178.425 184.429 179.027C183.43 176.827 181.801 174.974 179.746 173.702C177.693 172.429 175.308 171.795 172.893 171.88C169.431 171.877 166.036 172.839 163.09 174.657L162.848 174.833C158.943 177.585 155.766 181.245 153.59 185.498C152.389 181.391 149.672 177.893 145.989 175.712L145.914 175.667L145.591 175.472C149.692 168.176 153.321 158.501 151.146 149.298C148.831 139.475 143.054 138.004 139.823 138.004C138.424 138.017 137.037 138.268 135.721 138.744H135.546C129.453 141.142 126.768 144.743 126.185 145.604C121.298 153.462 118.259 162.325 117.297 171.528C117.118 173.204 116.933 174.88 116.742 176.555C115.51 174.923 113.76 173.758 111.78 173.249C111.017 173.017 110.224 172.898 109.428 172.898C106.067 172.898 103.309 174.962 101.855 176.333C101.235 175.417 100.41 174.659 99.4457 174.119C98.4812 173.579 97.4039 173.272 96.2995 173.222H95.7533C92.5911 173.281 89.555 174.474 87.1985 176.583C86.5259 175.408 85.5496 174.435 84.372 173.767C83.1942 173.1 81.8585 172.761 80.5049 172.787H79.3569C75.3664 172.787 72.228 174.638 70.95 177.796C70.8343 178.102 70.7264 178.41 70.6265 178.721C67.4969 174.833 63.5067 173.009 58.1553 173.009H57.6182C54.2853 173.074 45.962 174.472 40.8423 185.971C40.0744 187.683 39.4549 189.458 38.9904 191.276C38.0686 190.857 37.0681 190.639 36.0556 190.637C34.9459 190.643 33.8539 190.915 32.8712 191.43C31.8884 191.946 31.0438 192.69 30.4083 193.6C29.6117 194.766 27.1028 198.868 28.3343 202.858C28.6647 203.914 29.2329 204.881 29.9952 205.683C30.7576 206.486 31.6938 207.103 32.7319 207.487C34.6485 208.237 37.0651 208.969 38.898 209.496C40.3744 212.786 42.6773 215.638 45.5826 217.773C48.351 219.754 51.6984 220.76 55.1001 220.634C59.6658 220.477 64.1568 219.43 68.3207 217.551L68.5707 217.439L68.6358 217.394C69.9411 218.74 71.6394 219.637 73.4869 219.958C74.2443 220.097 75.0129 220.169 75.7832 220.171C79.2363 220.171 81.662 218.458 83.8842 215.153C84.8785 216.62 86.2315 217.809 87.8146 218.606C89.3978 219.404 91.1584 219.783 92.9293 219.708C93.1423 219.708 93.3647 219.819 93.5962 219.819C95.6515 219.819 98.2252 219.06 100.392 215.606C101.286 217.185 102.596 218.489 104.179 219.375C105.763 220.261 107.559 220.697 109.372 220.634C111.811 220.578 114.209 219.994 116.4 218.921L116.511 218.866C117.677 218.246 118.631 217.718 119.409 217.264C122.893 219.159 126.793 220.165 130.759 220.19C131.582 220.192 132.404 220.149 133.221 220.06H133.656C143.842 218.06 150.451 215.615 154.404 213.773C157.847 217.601 162.654 219.928 167.792 220.254C168.505 220.31 169.218 220.337 169.922 220.337C174.231 220.351 178.475 219.291 182.272 217.255C183.319 218.387 184.603 219.275 186.031 219.856C186.952 220.241 187.94 220.439 188.938 220.439C195.271 220.439 198.196 212.922 199.039 210.357L200.576 206.274C201.969 207.813 203.759 208.939 205.751 209.524C206.977 209.873 208.245 210.047 209.52 210.042C216.463 210.042 223.176 205.117 224.231 204.302C225.589 203.21 226.64 201.785 227.285 200.166C227.928 198.547 228.143 196.789 227.907 195.062Z" fill="white"/>
<path d="M199.882 216.808C202.847 216.808 205.249 214.405 205.249 211.442C205.249 208.478 202.847 206.075 199.882 206.075C196.919 206.075 194.516 208.478 194.516 211.442C194.516 214.405 196.919 216.808 199.882 216.808Z" fill="white"/>
<path d="M199.897 208.287C200.31 208.287 200.719 208.369 201.101 208.528C201.484 208.686 201.83 208.919 202.122 209.212C202.413 209.505 202.645 209.853 202.802 210.235C202.959 210.618 203.039 211.028 203.037 211.442C203.037 212.066 202.852 212.677 202.505 213.196C202.157 213.715 201.663 214.119 201.086 214.358C200.509 214.596 199.874 214.658 199.262 214.535C198.65 214.411 198.088 214.11 197.647 213.668C197.206 213.225 196.907 212.662 196.787 212.049C196.667 211.436 196.731 210.801 196.973 210.225C197.213 209.648 197.62 209.157 198.141 208.812C198.661 208.467 199.272 208.284 199.897 208.287ZM199.897 208.806C199.198 208.806 198.527 209.083 198.032 209.578C197.538 210.072 197.261 210.743 197.261 211.442C197.261 212.141 197.538 212.811 198.032 213.305C198.527 213.8 199.198 214.078 199.897 214.078C200.595 214.074 201.262 213.795 201.757 213.302C202.25 212.808 202.529 212.14 202.532 211.442C202.532 210.743 202.254 210.072 201.76 209.578C201.266 209.083 200.596 208.806 199.897 208.806ZM199.992 209.707C200.251 209.693 200.51 209.725 200.757 209.803C200.915 209.864 201.049 209.974 201.139 210.117C201.236 210.272 201.283 210.453 201.276 210.636C201.28 210.745 201.263 210.856 201.227 210.958C201.189 211.061 201.132 211.156 201.058 211.237C200.886 211.412 200.659 211.523 200.415 211.551C200.547 211.623 200.667 211.715 200.77 211.824C200.913 211.981 201.04 212.15 201.152 212.33L201.562 212.971H200.77L200.279 212.247C200.115 212.001 199.937 211.837 199.937 211.769C199.879 211.71 199.81 211.664 199.733 211.632C199.625 211.614 199.514 211.614 199.404 211.632H199.268V212.998H198.627V209.707H199.992ZM200.265 210.268H199.268V211.101H199.746C199.948 211.108 200.15 211.089 200.347 211.045C200.426 211.026 200.494 210.976 200.538 210.909C200.583 210.835 200.606 210.75 200.606 210.663C200.61 210.566 200.581 210.47 200.524 210.39C200.455 210.32 200.363 210.276 200.265 210.268Z" fill="#E24C32"/>
<path d="M222.75 195.581C222.435 192.396 219.564 193.581 219.564 193.581C219.564 193.581 214.935 197.155 210.89 196.757C206.844 196.358 208.112 187.277 208.112 187.277C208.112 187.277 209.038 178.943 206.603 178.259C204.169 177.573 201.261 180.434 201.261 180.434C198.916 183.17 197.085 186.307 195.854 189.692L195.372 189.85C195.372 189.85 195.928 180.777 195.289 178.74C194.817 177.713 190.438 177.815 189.734 179.619C189.03 181.425 185.522 194.193 185.281 199.525C185.281 199.525 178.43 205.339 172.458 206.293C166.487 207.246 165.052 203.516 165.052 203.516C165.052 203.516 181.3 198.979 180.791 185.999C180.282 173.018 167.69 177.814 166.274 178.888C164.857 179.962 157.571 184.341 155.432 196.581C155.358 196.997 155.229 198.813 155.229 198.813C155.229 198.813 148.942 203.034 145.434 204.154C145.434 204.154 155.229 187.674 143.286 180.185C137.795 176.842 133.536 183.693 133.536 183.693C133.536 183.693 149.701 165.704 146.118 150.493C144.405 143.253 140.795 142.475 137.472 143.642C132.426 145.642 130.509 148.586 130.509 148.586C126.066 155.727 123.302 163.784 122.427 172.149C120.917 186.239 118.723 203.284 118.723 203.284C118.723 203.284 115.622 206.302 112.761 206.468C109.9 206.636 111.168 197.942 111.168 197.942C111.168 197.942 113.391 184.73 113.233 182.499C113.076 180.268 112.918 179.073 110.289 178.278C107.659 177.481 104.762 180.824 104.762 180.824C104.762 180.824 97.1975 192.294 96.5586 194.044L96.1607 194.757L95.7624 194.285C95.7624 194.285 101.095 178.676 96.0034 178.444C90.911 178.212 87.5593 183.999 87.5593 183.999C87.5593 183.999 81.7456 193.711 81.5046 194.822L81.1067 194.34C81.1067 194.34 83.5415 183.054 83.0229 180.268C82.9849 179.908 82.8711 179.562 82.6891 179.249C82.507 178.937 82.261 178.668 81.967 178.457C81.6731 178.248 81.338 178.102 80.9837 178.031C80.6296 177.961 80.2643 177.965 79.9122 178.046C79.9122 178.046 76.57 177.647 75.6996 179.795C74.8293 181.943 71.6353 196.192 71.2374 200.738C71.2374 200.738 62.9045 206.7 57.3499 206.783C51.7949 206.867 52.4149 203.303 52.4149 203.303C52.4149 203.303 72.5518 196.405 67.0618 182.787C64.5896 179.286 61.7289 178.157 57.6643 178.268C53.5999 178.38 48.5174 180.824 45.2584 188.147C43.8322 191.068 42.9984 194.244 42.805 197.489C42.805 197.489 39.3236 198.201 37.407 196.609C35.4908 195.016 34.5372 196.609 34.5372 196.609C34.5372 196.609 31.2688 201.285 34.5372 202.553C37.2605 203.519 40.0439 204.308 42.8697 204.914C43.772 208.342 45.8206 211.357 48.6747 213.458C54.6462 217.995 66.1079 212.801 66.1079 212.801L70.8021 210.024C70.8021 210.024 70.9594 214.274 74.3852 214.903C77.8107 215.533 79.2457 214.857 85.2172 200.368C88.7168 192.961 88.9206 193.349 88.9206 193.349L89.3186 193.257C89.3186 193.257 86.6061 207.422 87.6428 211.246C88.6801 215.069 93.1979 214.671 93.1979 214.671C93.1979 214.671 95.6698 215.329 97.6605 208.33C99.2277 203.328 101.203 198.463 103.567 193.785H104.04C104.04 193.785 102.373 208.089 104.965 212.708C107.558 217.328 114.094 214.153 114.094 214.153C115.934 213.236 117.715 212.203 119.427 211.061C123.196 213.945 127.914 215.3 132.639 214.857C149.924 211.459 156.062 206.848 156.062 206.848C157.151 209.192 158.857 211.195 160.996 212.645C163.136 214.095 165.629 214.936 168.209 215.079C171.179 215.368 174.177 214.997 176.986 213.99C179.796 212.983 182.347 211.366 184.457 209.255C184.457 209.255 184.374 213.551 188.041 215.069C191.706 216.588 194.17 208.459 194.17 208.459L200.299 191.934H200.853C200.853 191.934 201.177 202.543 207.223 204.293C213.269 206.043 221.111 200.006 221.111 200.006C221.111 200.006 223.074 198.766 222.75 195.581ZM51.4705 197.146C51.7113 187.674 57.9517 183.537 60.0718 185.609C62.1919 187.684 61.4233 192.137 57.3681 194.924C53.3132 197.711 51.4893 197.146 51.4893 197.146H51.4705ZM132.305 160.455C132.305 160.455 137.962 145.725 139.314 152.891C140.665 160.057 127.444 181.397 127.444 181.397C127.611 176.611 132.305 160.455 132.305 160.455ZM139.092 201.451C135.388 211.246 126.269 207.265 126.269 207.265C126.269 207.265 125.241 203.756 128.185 193.961C131.129 184.166 138.054 187.998 138.054 187.998C138.054 187.998 142.795 191.655 139.092 201.451ZM164.172 197.146C164.172 197.146 163.293 194.044 166.561 188.072C169.829 182.101 172.375 185.37 172.375 185.37C172.375 185.37 175.152 188.396 171.977 192.933C171.123 194.228 169.961 195.291 168.596 196.025C167.231 196.761 165.705 197.146 164.154 197.146H164.172Z" fill="#E24C32"/>
</g>
<defs>
<clipPath id="clip0_248_4195">
<rect width="256" height="256" fill="white"/>
</clipPath>
</defs>
</svg>
