<svg width="256" height="256" viewBox="0 0 256 256" fill="none" xmlns="http://www.w3.org/2000/svg">
<g clip-path="url(#clip0_360_287)">
<rect width="256" height="256" rx="60" fill="white"/>
<path d="M28 65.6528H77.2895V82.0965H46.0603V112.515H70.8723V128.959H46.0603V164.315H77.2895V180.759H28V65.6528Z" fill="black"/>
<path d="M86.1104 65.6528H104.359L116.357 156.114L128.335 65.6528H144.932L127.519 180.78H103.523L86.1104 65.6528Z" fill="black"/>
<path d="M174.112 153.478V92.9543C174.112 74.5441 183.309 64 201.056 64C218.802 64 228 74.5231 228 92.9543V102.829H210.902V91.8037C210.902 83.5817 207.285 80.4646 201.537 80.4646C195.789 80.4646 192.172 83.5817 192.172 91.8037V154.796C192.172 163.018 195.789 165.989 201.537 165.989C207.285 165.989 210.902 163.039 210.902 154.796V132.264H201.871V115.821H228V153.478C228 171.888 218.802 182.432 201.056 182.432C183.309 182.432 174.112 171.909 174.112 153.478Z" fill="black"/>
<path d="M153.877 191.847C161.75 191.847 168.133 185.459 168.133 177.579C168.133 169.699 161.75 163.311 153.877 163.311C146.004 163.311 139.621 169.699 139.621 177.579C139.621 185.459 146.004 191.847 153.877 191.847Z" fill="black"/>
</g>
<defs>
<clipPath id="clip0_360_287">
<rect width="256" height="256" fill="white"/>
</clipPath>
</defs>
</svg>
