<svg width="256" height="256" viewBox="0 0 256 256" fill="none" xmlns="http://www.w3.org/2000/svg">
<g clip-path="url(#clip0_360_882)">
<rect width="256" height="256" rx="60" fill="#242938"/>
<path d="M27.4471 122.609C21.8289 122.609 18 126.657 18 131.906C18 137.154 21.7945 141.202 27.805 141.202C31.2367 141.202 33.9282 139.832 35.6098 137.434L31.8594 135.321C30.8737 136.49 29.3914 137.141 27.8491 137.082C25.3979 137.082 23.4369 136.117 22.8045 133.773H36.2961C36.4117 133.157 36.4708 132.532 36.4726 131.906C36.4775 126.729 32.7222 122.609 27.4471 122.609ZM22.7603 130.251C23.2996 127.998 24.9812 126.695 27.4471 126.695C29.614 126.629 31.4979 128.147 31.8594 130.251H22.7603Z" fill="white"/>
<path d="M43.2436 128.104C43.2436 127.139 44.1751 126.657 45.3174 126.657C46.5566 126.621 47.6919 127.335 48.1804 128.456L52.1024 126.343C50.7101 123.931 48.1805 122.609 45.3027 122.609C41.6209 122.609 38.5029 124.616 38.5029 128.21C38.5029 134.405 47.7392 132.996 47.7392 135.567C47.7392 136.59 46.7587 137.082 45.288 137.082C43.4985 137.082 42.2827 136.238 41.7827 134.795L37.7725 137.015C39.0618 139.726 41.6944 141.202 45.288 141.202C49.1168 141.202 52.4799 139.374 52.4799 135.567C52.475 129.088 43.2436 130.709 43.2436 128.104Z" fill="white"/>
<path d="M63.6778 136.695C62.3837 136.727 61.134 136.23 60.2256 135.322C59.3172 134.415 58.8313 133.178 58.8832 131.905C58.8832 129.087 60.9226 127.08 63.6778 127.08C65.3872 127.022 66.9766 127.942 67.7567 129.439L71.7326 127.153C70.116 124.305 67.0415 122.559 63.7268 122.608C61.2018 122.548 58.7618 123.508 56.9745 125.264C55.1871 127.02 54.208 129.42 54.2651 131.905C54.2471 136.094 57.0888 139.774 61.1953 140.879C65.3018 141.984 69.6507 140.239 71.8012 136.623L67.7959 134.37C67.0001 135.868 65.3934 136.775 63.6778 136.695Z" fill="white"/>
<path d="M82.468 122.609C77.255 122.627 73.0426 126.798 73.0552 131.928C73.0678 137.058 77.3007 141.208 82.5137 141.202C87.7267 141.196 91.9494 137.035 91.9494 131.905C91.9761 129.426 90.9846 127.041 89.1997 125.291C87.4147 123.541 84.9875 122.574 82.468 122.609ZM82.468 136.768C81.1603 136.791 79.901 136.282 78.9864 135.362C78.0718 134.442 77.5827 133.192 77.6341 131.905C77.5778 130.164 78.4899 128.53 80.014 127.643C81.5381 126.756 83.4322 126.756 84.9563 127.643C86.4803 128.53 87.3924 130.164 87.3362 131.905C87.3866 133.197 86.8924 134.452 85.9705 135.373C85.0487 136.294 83.7812 136.799 82.468 136.768Z" fill="white"/>
<path d="M99.8276 115H95.2095V140.709H99.8276V115Z" fill="white"/>
<path d="M117.653 125.18C116.364 123.593 114.432 122.609 111.819 122.609C107.059 122.609 103.122 126.657 103.122 131.906C103.122 137.154 107.044 141.202 111.819 141.202C114.432 141.202 116.364 140.237 117.653 138.631V140.696H122.266V123.101H117.653V125.18ZM112.677 136.87C109.848 136.87 107.74 134.863 107.74 131.906C107.74 128.948 109.848 126.941 112.677 126.941C115.506 126.941 117.653 128.948 117.653 131.906C117.653 134.863 115.535 136.87 112.672 136.87H112.677Z" fill="white"/>
<path d="M142.808 135.427L138.474 123.101H133.396L140.195 140.71H145.456L152.255 123.101H147.171L142.808 135.427Z" fill="white"/>
<path d="M159.09 123.101H154.472V140.71H159.09V123.101Z" fill="white"/>
<path d="M156.76 115.392C155.2 115.425 153.949 116.673 153.937 118.209C153.937 119.754 155.21 121.007 156.78 121.007C158.35 121.007 159.623 119.754 159.623 118.209C159.607 116.66 158.335 115.407 156.76 115.392Z" fill="white"/>
<path d="M167.929 126.131V123.101H163.311V140.696H167.929V132.292C167.929 128.596 170.968 127.54 173.37 127.819V122.749C171.115 122.749 168.86 123.738 167.929 126.131Z" fill="white"/>
<path d="M182.744 118.169L178.126 119.544V123.1H175.013V127.442H178.126V134.794C178.126 139.546 180.312 141.413 186.788 140.709V136.589C184.141 136.729 182.744 136.695 182.744 134.794V127.466H186.779V123.124H182.734L182.744 118.169Z" fill="white"/>
<path d="M202.142 132.61C202.142 135.673 200.456 136.976 198.22 136.976C196.142 136.976 194.676 135.746 194.676 133.348V123.101H190.058V133.913C190.058 138.597 193.029 141.202 196.823 141.202C199.22 141.202 201.083 140.324 202.157 138.737V140.696H206.77V123.101H202.157L202.142 132.61Z" fill="white"/>
<path d="M224.581 125.18C223.292 123.593 221.36 122.609 218.747 122.609C213.987 122.609 210.05 126.657 210.05 131.906C210.05 137.154 213.972 141.202 218.747 141.202C221.36 141.202 223.292 140.237 224.581 138.631V140.696H229.195V123.101H224.581V125.18ZM219.625 136.87C216.796 136.87 214.688 134.863 214.688 131.906C214.688 128.948 216.796 126.941 219.625 126.941C222.454 126.941 224.601 128.948 224.601 131.906C224.601 134.863 222.468 136.87 219.625 136.87Z" fill="white"/>
<path d="M238 115H233.382V140.709H238V115Z" fill="white"/>
</g>
<defs>
<clipPath id="clip0_360_882">
<rect width="256" height="256" fill="white"/>
</clipPath>
</defs>
</svg>
