<svg width="256" height="256" viewBox="0 0 256 256" fill="none" xmlns="http://www.w3.org/2000/svg">
<g clip-path="url(#clip0_341_3)">
<path d="M196 0H60C26.8629 0 0 26.8629 0 60V196C0 229.137 26.8629 256 60 256H196C229.137 256 256 229.137 256 196V60C256 26.8629 229.137 0 196 0Z" fill="#ED1E24"/>
<path d="M135.708 189.032C136.69 178.312 134.923 167.517 130.573 157.67C126.224 147.822 119.436 139.245 110.85 132.75C101.653 125.508 90.5934 121.018 78.9509 119.8C77.4951 119.611 76.1651 118.877 75.2282 117.747C74.2913 116.617 73.8171 115.174 73.9009 113.708C73.9602 112.96 74.1686 112.232 74.514 111.566C74.8594 110.9 75.3346 110.31 75.9118 109.831C76.4889 109.352 77.1562 108.993 77.8742 108.776C78.5923 108.559 79.3465 108.488 80.0925 108.567C99.7485 110.608 117.796 120.349 130.289 135.661C142.782 150.973 148.704 170.608 146.758 190.274C146.354 194.628 145.522 198.932 144.275 203.124L160.85 207.79C165.754 206.383 170.531 204.568 175.133 202.366C176.374 195.932 176.98 189.393 176.941 182.841C176.913 157.836 167.94 133.666 151.645 114.699C135.35 95.7326 112.808 83.2209 88.0924 79.4254C82.5836 78.4068 76.9348 78.4068 71.426 79.4254C64.4511 81.2656 58.1839 85.1449 53.4262 90.5669C49.5909 95.0095 46.9129 100.331 45.6303 106.058C44.3478 111.785 44.5005 117.741 46.0748 123.395C47.6491 129.049 50.5962 134.226 54.6541 138.466C58.7121 142.707 63.7549 145.878 69.3343 147.7C72.2858 148.404 75.2736 148.946 78.2842 149.325C86.0637 150.649 93.1234 154.684 98.2131 160.715C103.303 166.745 106.094 174.383 106.092 182.274C106.09 188.663 104.237 194.915 100.759 200.274L112.184 207.607C117.783 209.152 123.528 210.107 129.325 210.457C132.744 203.604 134.874 196.181 135.608 188.557M136.942 227.974C108.134 227.974 80.4989 216.564 60.0827 196.24C39.6665 175.916 28.1315 148.332 28.0015 119.525C27.9568 105.21 30.7542 91.0278 36.2314 77.8017C41.7087 64.5755 49.7569 52.5682 59.9094 42.4759L66.101 48.2841C56.6686 57.6331 49.1815 68.7578 44.072 81.0161C38.9625 93.2745 36.3318 106.423 36.3318 119.704C36.3318 132.985 38.9625 146.134 44.072 158.392C49.1815 170.65 56.6686 181.775 66.101 191.124C75.45 200.556 86.5747 208.044 98.8331 213.153C111.091 218.263 124.24 220.893 137.521 220.893C150.802 220.893 163.951 218.263 176.209 213.153C188.467 208.044 199.592 200.556 208.941 191.124L214.749 196.932C204.5 207.024 192.339 214.969 178.98 220.3C165.621 225.632 151.332 228.244 136.95 227.982M227.991 119.608C227.991 107.537 225.605 95.5856 220.972 84.4397C216.338 73.2938 209.547 63.1735 200.989 54.6607C192.431 46.1478 182.275 39.4102 171.105 34.835C159.935 30.2598 147.971 27.9373 135.9 28.001C132.659 28.001 129.517 28.001 126.375 28.476L124.275 34.5759C146.573 42.3874 166.829 55.113 183.544 71.8109C200.26 88.5087 213.006 108.752 220.841 131.041L226.932 128.85C226.932 125.8 227.507 122.75 227.507 119.325M216.932 162.366C212.437 131.131 197.947 102.192 175.633 79.8784C153.318 57.5652 124.378 43.0778 93.1424 38.5842C85.6701 42.5334 78.7799 47.4971 72.6676 53.334V66.9589C103.378 66.9875 132.823 79.1928 154.547 100.899C176.272 122.604 188.503 152.039 188.558 182.749H202.174C207.954 176.621 212.914 169.769 216.932 162.366ZM93.9923 177.033C93.9923 179.82 93.1657 182.545 91.6169 184.862C90.0682 187.18 87.8669 188.986 85.2915 190.052C82.7161 191.118 79.8824 191.397 77.1487 190.853C74.415 190.308 71.9041 188.965 69.9337 186.994C67.9633 185.022 66.6219 182.511 66.0791 179.776C65.5363 177.042 65.8166 174.209 66.8844 171.634C67.9522 169.059 69.7597 166.859 72.0781 165.312C74.3965 163.764 77.1218 162.939 79.9092 162.941C81.7593 162.941 83.5913 163.306 85.3005 164.014C87.0097 164.722 88.5626 165.76 89.8704 167.069C91.1783 168.377 92.2155 169.931 92.9227 171.641C93.63 173.35 93.9934 175.182 93.9923 177.033Z" fill="white"/>
</g>
<defs>
<clipPath id="clip0_341_3">
<rect width="256" height="256" fill="white"/>
</clipPath>
</defs>
</svg>
