<svg width="256" height="256" viewBox="0 0 256 256" fill="none" xmlns="http://www.w3.org/2000/svg">
<g clip-path="url(#clip0_360_363)">
<rect width="256" height="256" rx="60" fill="white"/>
<path d="M21.5807 85.1658C21.4975 85.4571 20.6652 88.7863 19.708 92.5315C18.7925 96.3184 17.9602 99.7308 17.7938 100.147C17.5857 100.854 18.0851 100.896 27.5731 100.896C33.1078 100.896 37.6022 100.979 37.6022 101.104C37.6022 101.229 35.5214 109.052 32.983 118.499C30.4445 127.945 27.4899 139.098 26.3663 143.342C25.2427 147.587 23.7446 153.039 23.0788 155.494C22.4546 157.949 21.9968 160.071 22.1217 160.196C22.2465 160.321 27.2818 160.404 33.2743 160.404H44.2188L44.635 158.823C44.8846 157.991 45.5505 155.494 46.1331 153.33C46.7157 151.166 47.6728 147.587 48.2554 145.423C51.6678 132.606 53.4572 125.906 53.7901 124.824C54.0398 124.117 54.7056 121.62 55.2882 119.206C55.8708 116.793 56.9944 112.506 57.785 109.635C58.5341 106.764 59.408 103.643 59.6577 102.644L60.1154 100.896H71.4761H82.8368L84.7927 93.0309C85.833 88.703 86.7069 85.041 86.7069 84.9161C86.7069 84.7913 85.5001 84.6665 84.0436 84.6665H81.3387L80.7561 86.8304C80.4232 88.0372 79.799 90.4092 79.3828 92.0322L78.6338 95.07L76.345 95.1116C75.0549 95.1532 69.8532 95.1532 64.7762 95.1116C59.4912 95.07 55.4546 95.2365 55.3298 95.4445C55.0801 95.8191 52.9578 103.684 47.5479 123.784C41.6803 145.798 39.558 153.621 39.2251 154.204C38.9338 154.786 38.0599 154.911 34.4811 154.953C30.5277 155.036 30.1116 154.953 30.1116 154.287C30.1116 153.871 30.7774 151.083 31.6097 148.128C32.442 145.132 33.732 140.388 34.4811 137.516C35.2301 134.645 37.9767 124.242 40.64 114.421C43.2617 104.558 45.4672 96.2352 45.5505 95.9023C45.7169 95.3613 44.3853 95.2781 35.7295 95.2365C30.2364 95.1948 25.534 95.1532 25.2843 95.1116C24.8682 95.07 25.326 92.4483 27.0321 85.7484L27.2818 84.6665H24.5353C22.7043 84.6665 21.7055 84.8329 21.5807 85.1658Z" fill="#3A4953"/>
<path d="M89.7448 95.5696C89.5368 95.8609 88.8293 98.0665 88.2467 100.438C87.6225 102.852 87.0399 104.891 86.9151 104.974C86.8319 105.058 81.7133 105.224 75.596 105.349C69.4787 105.432 64.2353 105.599 63.9857 105.682C63.736 105.765 63.3198 106.639 63.0701 107.638C62.7788 108.595 61.7385 112.507 60.7397 116.294C59.6994 120.08 58.5342 124.575 58.0764 126.281C54.9138 138.141 51.2933 151.666 50.9604 152.706C50.7523 153.372 49.9617 156.202 49.2542 158.948C48.5052 161.695 47.5897 164.191 47.2567 164.483C46.7574 164.857 44.6767 164.982 39.3084 164.899L31.9843 164.816L31.2769 166.647C30.9024 167.687 30.5694 169.019 30.5694 169.685L30.5278 170.808L41.6804 170.725L52.7914 170.6L54.1647 165.606C55.6212 160.238 57.7019 152.456 59.8658 144.175C62.5292 134.063 67.5645 115.212 68.1055 113.381L68.6464 111.508L79.9239 111.3C86.1244 111.175 91.2846 111.008 91.4094 110.884C91.8256 110.426 95.0715 96.1522 94.8634 95.6529C94.5721 94.9038 90.2858 94.8622 89.7448 95.5696Z" fill="#BC0C09"/>
<path d="M98.9297 171.812V162.106H104.731V163.11H99.9708V166.345H104.235V167.376H99.9708V170.794H104.767V171.812H98.9297Z" fill="#3A4953"/>
<path d="M110.444 167.128C110.444 166.228 109.862 165.823 108.832 165.823C107.791 165.823 107.271 166.267 107.271 166.88C107.271 168.785 111.473 167.102 111.473 169.867C111.473 171.094 110.493 171.903 108.82 171.903C107.147 171.903 106.143 170.977 106.143 169.711V169.659H107.172C107.172 170.558 107.791 170.964 108.857 170.964C109.936 170.964 110.506 170.546 110.506 169.92C110.506 168.224 106.304 169.737 106.304 166.919C106.304 165.693 107.234 164.884 108.87 164.884C110.543 164.884 111.448 165.81 111.448 167.076V167.128H110.444Z" fill="#3A4953"/>
<path d="M118.277 169.45C118.277 171.028 117.198 171.916 115.575 171.916C113.988 171.916 112.91 170.938 112.91 169.281V167.506C112.91 165.85 113.988 164.871 115.575 164.871C117.198 164.871 118.277 165.758 118.277 167.337V167.441H117.298C117.298 166.319 116.653 165.837 115.575 165.837C114.521 165.837 113.913 166.398 113.913 167.598V169.189C113.913 170.39 114.521 170.951 115.575 170.951C116.653 170.951 117.298 170.468 117.298 169.346H118.277V169.45Z" fill="#3A4953"/>
<path d="M124.473 167.793C124.473 166.542 123.717 165.837 122.614 165.837C121.511 165.837 120.755 166.542 120.755 167.793V169.033C120.755 170.273 121.511 170.99 122.614 170.99C123.717 170.99 124.473 170.285 124.473 169.033V167.793ZM125.453 169.137C125.453 170.846 124.251 171.955 122.614 171.955C120.978 171.955 119.776 170.846 119.776 169.137V167.689C119.776 165.98 120.978 164.872 122.614 164.872C124.251 164.872 125.453 165.98 125.453 167.689V169.137Z" fill="#3A4953"/>
<path d="M127.199 162.106H128.215V171.812H127.199V162.106Z" fill="#3A4953"/>
<path d="M134.401 168.864H132.231C131.129 168.864 130.856 169.412 130.856 169.96C130.856 170.547 131.203 170.899 131.81 170.899C132.318 170.899 132.752 170.742 133.211 170.495L134.401 169.828V168.864ZM134.401 171.812V170.846L133.633 171.29C132.901 171.695 132.418 171.89 131.724 171.89C130.596 171.89 129.839 171.108 129.839 169.986C129.839 168.616 130.843 167.938 132.157 167.938H134.401V167.455C134.401 166.333 133.794 165.785 132.739 165.785C131.624 165.785 130.98 166.281 130.98 167.285H130.001V167.219C130.001 165.72 131.141 164.846 132.727 164.846C134.401 164.846 135.38 165.811 135.38 167.39V171.812H134.401Z" fill="#3A4953"/>
<path d="M143.113 171.812V163.11H140.349V162.106H146.968V163.11H144.203V171.812H143.113Z" fill="#3A4953"/>
<path d="M149.198 163.788L150.375 162.105H151.689L150.313 163.788H149.198ZM151.726 167.688C151.726 166.502 151.069 165.824 149.941 165.824C148.813 165.824 148.131 166.502 148.131 167.702V167.911H151.726V167.688ZM152.656 169.737C152.656 171.003 151.602 171.916 149.953 171.916C148.355 171.916 147.165 170.964 147.165 169.346V167.688C147.165 165.98 148.343 164.871 149.941 164.871C151.54 164.871 152.681 165.98 152.681 167.688V168.824H148.131V169.255C148.131 170.429 148.912 170.977 149.953 170.977C151.02 170.977 151.702 170.584 151.702 169.684H152.656V169.737Z" fill="#3A4953"/>
<path d="M159.609 169.45C159.609 171.028 158.53 171.916 156.907 171.916C155.32 171.916 154.242 170.938 154.242 169.281V167.506C154.242 165.85 155.32 164.871 156.907 164.871C158.53 164.871 159.609 165.758 159.609 167.337V167.441H158.63C158.63 166.319 157.985 165.837 156.907 165.837C155.853 165.837 155.245 166.398 155.245 167.598V169.189C155.245 170.39 155.853 170.951 156.907 170.951C157.985 170.951 158.63 170.468 158.63 169.346H159.609V169.45Z" fill="#3A4953"/>
<path d="M165.644 171.812V167.18C165.644 166.437 165.248 165.916 164.566 165.916C164.157 165.916 163.834 166.071 163.475 166.293L162.285 167.037V171.812H161.294V164.976H162.26V165.967L163.066 165.446C163.686 165.041 164.144 164.91 164.702 164.91C165.904 164.91 166.636 165.784 166.636 167.05V171.812H165.644Z" fill="#3A4953"/>
<path d="M168.544 164.976H169.56V171.812H168.544V164.976ZM169.647 162.876C169.647 163.228 169.399 163.463 169.052 163.463C168.693 163.463 168.445 163.228 168.445 162.876V162.628C168.445 162.276 168.693 162.041 169.052 162.041C169.399 162.041 169.647 162.276 169.647 162.628V162.876Z" fill="#3A4953"/>
<path d="M176.7 169.45C176.7 171.028 175.621 171.916 173.998 171.916C172.411 171.916 171.333 170.938 171.333 169.281V167.506C171.333 165.85 172.411 164.871 173.998 164.871C175.621 164.871 176.7 165.758 176.7 167.337V167.441H175.721C175.721 166.319 175.076 165.837 173.998 165.837C172.944 165.837 172.336 166.398 172.336 167.598V169.189C172.336 170.39 172.944 170.951 173.998 170.951C175.076 170.951 175.721 170.468 175.721 169.346H176.7V169.45Z" fill="#3A4953"/>
<path d="M182.636 168.864H180.467C179.364 168.864 179.091 169.412 179.091 169.96C179.091 170.547 179.438 170.899 180.045 170.899C180.554 170.899 180.987 170.742 181.446 170.495L182.636 169.828V168.864ZM182.636 171.812V170.846L181.868 171.29C181.137 171.695 180.653 171.89 179.959 171.89C178.831 171.89 178.074 171.108 178.074 169.986C178.074 168.616 179.079 167.938 180.392 167.938H182.636V167.455C182.636 166.333 182.029 165.785 180.975 165.785C179.86 165.785 179.215 166.281 179.215 167.285H178.236V167.219C178.236 165.72 179.376 164.846 180.963 164.846C182.636 164.846 183.615 165.811 183.615 167.39V171.812H182.636Z" fill="#3A4953"/>
<path d="M189.08 171.812V162.106H194.881V163.11H190.121V166.345H194.385V167.376H190.121V170.794H194.918V171.812H189.08Z" fill="#3A4953"/>
<path d="M200.594 167.128C200.594 166.228 200.012 165.823 198.982 165.823C197.941 165.823 197.421 166.267 197.421 166.88C197.421 168.785 201.623 167.102 201.623 169.867C201.623 171.094 200.643 171.903 198.97 171.903C197.297 171.903 196.293 170.977 196.293 169.711V169.659H197.322C197.322 170.558 197.941 170.964 199.007 170.964C200.086 170.964 200.656 170.546 200.656 169.92C200.656 168.224 196.454 169.737 196.454 166.919C196.454 165.693 197.384 164.884 199.02 164.884C200.693 164.884 201.598 165.81 201.598 167.076V167.128H200.594Z" fill="#3A4953"/>
<path d="M205.972 171.812C204.584 171.812 203.655 171.029 203.655 169.489V165.916H202.564V164.976H203.667V163.11H204.658V164.976H206.642V165.916H204.658V169.438C204.658 170.481 205.104 170.833 205.998 170.833H206.692V171.812H205.972Z" fill="#3A4953"/>
<path d="M212.318 168.864H210.149C209.046 168.864 208.773 169.412 208.773 169.96C208.773 170.547 209.12 170.899 209.727 170.899C210.236 170.899 210.669 170.742 211.128 170.495L212.318 169.828V168.864ZM212.318 171.812V170.846L211.55 171.29C210.819 171.695 210.335 171.89 209.641 171.89C208.513 171.89 207.756 171.108 207.756 169.986C207.756 168.616 208.761 167.938 210.074 167.938H212.318V167.455C212.318 166.333 211.711 165.785 210.657 165.785C209.542 165.785 208.897 166.281 208.897 167.285H207.918V167.219C207.918 165.72 209.058 164.846 210.645 164.846C212.318 164.846 213.297 165.811 213.297 167.39V171.812H212.318Z" fill="#3A4953"/>
<path d="M219.581 166.985L218.292 166.228C217.957 166.032 217.586 165.902 217.164 165.902C216.395 165.902 215.899 166.476 215.899 167.311V169.502C215.899 170.336 216.395 170.911 217.164 170.911C217.586 170.911 217.957 170.781 218.292 170.585L219.581 169.829V166.985ZM219.593 171.812V170.911L218.713 171.42C218.094 171.785 217.61 171.903 217.077 171.903C215.8 171.903 214.92 170.964 214.92 169.62V167.245C214.92 165.902 215.837 164.91 217.114 164.91C217.647 164.91 218.094 165.028 218.713 165.393L219.581 165.902V162.106H220.559V171.812H219.593Z" fill="#3A4953"/>
<path d="M226.806 171.812V170.82L226.001 171.342C225.381 171.746 224.922 171.877 224.364 171.877C223.162 171.877 222.431 171.003 222.431 169.737V164.977H223.422V169.607C223.422 170.351 223.819 170.872 224.501 170.872C224.91 170.872 225.232 170.716 225.592 170.494L226.782 169.75V164.977H227.773V171.812H226.806Z" fill="#3A4953"/>
<path d="M233.957 168.864H231.788C230.685 168.864 230.412 169.412 230.412 169.96C230.412 170.547 230.759 170.899 231.366 170.899C231.875 170.899 232.308 170.742 232.767 170.495L233.957 169.828V168.864ZM233.957 171.812V170.846L233.189 171.29C232.458 171.695 231.974 171.89 231.28 171.89C230.152 171.89 229.396 171.108 229.396 169.986C229.396 168.616 230.4 167.938 231.713 167.938H233.957V167.455C233.957 166.333 233.35 165.785 232.296 165.785C231.181 165.785 230.537 166.281 230.537 167.285H229.557V167.219C229.557 165.72 230.697 164.846 232.284 164.846C233.957 164.846 234.937 165.811 234.937 167.39V171.812H233.957Z" fill="#3A4953"/>
<path d="M236.745 162.106H237.761V171.812H236.745V162.106Z" fill="#3A4953"/>
<path d="M98.6709 154.274V102.561H133.016V110.763H107.922V123.967H130.373V132.17H107.922V146.001H133.15V154.274H98.6709Z" fill="#3A4953"/>
<path d="M157.014 154.274C148.534 154.274 143.045 150.034 143.045 141.695V124.803H137.49V117.646H143.045V107.706H151.665V117.646H161.81V124.803H151.665V141.21C151.665 145.514 153.614 146.978 157.716 146.978H162.024V154.274H157.014Z" fill="#3A4953"/>
<path d="M190.879 132.102C190.879 126.886 187.823 124.036 182.745 124.036C177.598 124.036 174.475 126.886 174.475 132.17V133.074H190.879V132.102ZM198.734 142.738C198.734 150.174 192.344 154.899 182.678 154.899C173.226 154.899 166.486 149.755 166.486 140.788V132.102C166.486 122.856 173.226 117.084 182.678 117.084C192.204 117.084 198.8 122.58 198.8 132.24V138.705H174.475V140.513C174.475 145.729 177.954 148.019 182.745 148.019C187.477 148.019 190.669 146.35 190.669 142.387H198.734V142.738Z" fill="#3A4953"/>
<path d="M237.685 140.932C237.685 150.102 231.359 154.899 221.832 154.899C212.378 154.899 206.059 149.687 206.059 140.581V131.475C206.059 122.372 212.378 117.085 221.832 117.085C231.359 117.085 237.685 121.951 237.685 131.127V131.754H229.555C229.555 126.541 226.701 124.387 221.832 124.387C217.038 124.387 214.257 126.885 214.257 132.17V139.813C214.257 145.099 217.038 147.602 221.832 147.602C226.701 147.602 229.555 145.514 229.555 140.304H237.685V140.932Z" fill="#3A4953"/>
</g>
<defs>
<clipPath id="clip0_360_363">
<rect width="256" height="256" fill="white"/>
</clipPath>
</defs>
</svg>
