<svg width="256" height="256" viewBox="0 0 256 256" fill="none" xmlns="http://www.w3.org/2000/svg">
<g clip-path="url(#clip0_294_110)">
<path d="M196 0H60C26.8629 0 0 26.8629 0 60V196C0 229.137 26.8629 256 60 256H196C229.137 256 256 229.137 256 196V60C256 26.8629 229.137 0 196 0Z" fill="white"/>
<path d="M153.079 123.964L74.0147 110.035V212.956C74.0137 214.075 74.2336 215.183 74.6617 216.216C75.0897 217.25 75.7176 218.189 76.5093 218.979C77.3009 219.769 78.2408 220.396 79.275 220.822C80.3092 221.248 81.4174 221.466 82.5361 221.464H218.964C220.084 221.468 221.194 221.252 222.23 220.826C223.266 220.401 224.207 219.775 225.001 218.984C225.794 218.194 226.423 217.254 226.852 216.22C227.281 215.185 227.501 214.076 227.5 212.956V175.035L153.079 123.964Z" fill="#185C37"/>
<path d="M153.079 35.75H82.5361C81.4174 35.7472 80.3092 35.9652 79.275 36.3916C78.2408 36.8179 77.3009 37.4442 76.5093 38.2346C75.7176 39.0249 75.0897 39.9637 74.6617 40.9972C74.2336 42.0307 74.0137 43.1385 74.0147 44.2572V82.1785L153.079 128.607L194.943 142.536L227.5 128.607V82.1785L153.079 35.75Z" fill="#21A366"/>
<path d="M74.0146 82.1787H153.079V128.607H74.0146V82.1787Z" fill="#107C41"/>
<path opacity="0.1" d="M130.6 72.8926H74.0146V188.964H130.6C132.855 188.953 135.015 188.053 136.611 186.461C138.207 184.869 139.112 182.711 139.129 180.457V81.3997C139.112 79.145 138.207 76.9877 136.611 75.3954C135.015 73.803 132.855 72.9038 130.6 72.8926Z" fill="black"/>
<path opacity="0.2" d="M125.95 77.5361H74.0146V193.607H125.95C128.205 193.596 130.365 192.697 131.961 191.105C133.557 189.512 134.462 187.355 134.479 185.1V86.0433C134.462 83.7885 133.557 81.6313 131.961 80.0389C130.365 78.4466 128.205 77.5473 125.95 77.5361Z" fill="black"/>
<path opacity="0.2" d="M125.95 77.5361H74.0146V184.322H125.95C128.205 184.311 130.365 183.411 131.961 181.819C133.557 180.227 134.462 178.069 134.479 175.815V86.0433C134.462 83.7885 133.557 81.6313 131.961 80.0389C130.365 78.4466 128.205 77.5473 125.95 77.5361Z" fill="black"/>
<path opacity="0.2" d="M121.3 77.5361H74.0146V184.322H121.3C123.555 184.311 125.715 183.411 127.311 181.819C128.907 180.227 129.812 178.069 129.829 175.815V86.0433C129.812 83.7885 128.907 81.6313 127.311 80.0389C125.715 78.4466 123.555 77.5473 121.3 77.5361Z" fill="black"/>
<path d="M36.0286 77.5362H121.3C123.559 77.5343 125.726 78.4293 127.325 80.0245C128.924 81.6197 129.825 83.7845 129.828 86.0433V171.172C129.825 173.431 128.924 175.595 127.325 177.191C125.726 178.786 123.559 179.681 121.3 179.679H36.0286C34.9093 179.683 33.8004 179.465 32.7653 179.039C31.7303 178.614 30.7896 177.987 29.9972 177.197C29.2047 176.406 28.5762 175.467 28.1477 174.433C27.7192 173.399 27.4991 172.291 27.5 171.172V86.0433C27.4991 84.9241 27.7192 83.8157 28.1477 82.7817C28.5762 81.7477 29.2047 80.8086 29.9972 80.0182C30.7896 79.2277 31.7303 78.6016 32.7653 78.1757C33.8004 77.7497 34.9093 77.5324 36.0286 77.5362Z" fill="url(#paint0_linear_294_110)"/>
<path d="M53.9287 156.272L71.8644 128.529L55.4359 100.943H68.6287L77.593 118.608C78.4215 120.279 79.0215 121.522 79.293 122.35H79.4144C80.0001 121.012 80.6192 119.712 81.2715 118.45L90.8572 100.972H103L86.1501 128.4L103.429 156.293H90.5072L80.1501 136.929C79.6706 136.096 79.262 135.224 78.9287 134.322H78.7573C78.4545 135.201 78.0519 136.042 77.5573 136.829L66.893 156.272H53.9287Z" fill="white"/>
<path d="M218.971 35.75H153.079V82.1786H227.5V44.2572C227.501 43.1379 227.281 42.0295 226.852 40.9956C226.424 39.9616 225.795 39.0225 225.003 38.232C224.21 37.4416 223.27 36.8155 222.235 36.3895C221.2 35.9636 220.091 35.7463 218.971 35.75Z" fill="#33C481"/>
<path d="M153.079 128.607H227.5V175.036H153.079V128.607Z" fill="#107C41"/>
</g>
<defs>
<linearGradient id="paint0_linear_294_110" x1="45.3143" y1="70.8505" x2="112.014" y2="186.365" gradientUnits="userSpaceOnUse">
<stop stop-color="#18884F"/>
<stop offset="0.5" stop-color="#117E43"/>
<stop offset="1" stop-color="#0B6631"/>
</linearGradient>
<clipPath id="clip0_294_110">
<rect width="256" height="256" fill="white"/>
</clipPath>
</defs>
</svg>
