<svg width="256" height="256" viewBox="0 0 256 256" fill="none" xmlns="http://www.w3.org/2000/svg">
<g clip-path="url(#clip0_381_747)">
<path fill-rule="evenodd" clip-rule="evenodd" d="M256.013 203.509C256.013 232.385 232.389 256.009 203.513 256.009H52.5124C23.6368 256.009 0.0126953 232.385 0.0126953 203.509V52.5085C0.0126953 23.6329 23.6368 0.00878906 52.5124 0.00878906H203.513C232.389 0.00878906 256.013 23.6329 256.013 52.5085V203.509Z" fill="#35353E"/>
<path d="M163.534 129.066L146.727 161.35L129.965 129.066H97.1582L131.724 188.923V228H161.306V188.923L195.922 129.066H163.534Z" fill="white"/>
<path d="M225.594 28L30 99.3851L225.594 64.834V28Z" fill="#FFE600"/>
<path d="M31.71 228H110.861V205.246H61.3815V188.923H97.1588V168.148H61.3815V151.82H100.962L87.8282 129.066H31.71V228Z" fill="white"/>
</g>
<defs>
<clipPath id="clip0_381_747">
<rect width="256" height="256" fill="white"/>
</clipPath>
</defs>
</svg>
