<svg width="256" height="256" viewBox="0 0 256 256" fill="none" xmlns="http://www.w3.org/2000/svg">
<g clip-path="url(#clip0_316_195)">
<rect width="256" height="256" rx="60" fill="#242938"/>
<circle cx="129" cy="128" r="100" fill="white"/>
<path d="M229.168 127.917C229.168 72.579 184.256 27.6667 128.918 27.6667C73.5793 27.6667 28.667 72.579 28.667 127.917C28.667 176.439 63.1532 216.84 108.868 226.163V157.992H88.8174V127.917H108.868V102.855C108.868 83.5063 124.607 67.7669 143.955 67.7669H169.018V97.8421H148.968C143.454 97.8421 138.943 102.353 138.943 107.867V127.917H169.018V157.992H138.943V227.667C189.569 222.654 229.168 179.947 229.168 127.917Z" fill="#0866FF"/>
</g>
<defs>
<clipPath id="clip0_316_195">
<rect width="256" height="256" fill="white"/>
</clipPath>
</defs>
</svg>
