<svg width="256" height="256" viewBox="0 0 256 256" fill="none" xmlns="http://www.w3.org/2000/svg">
<g clip-path="url(#clip0_316_192)">
<path d="M196 0H60C26.8629 0 0 26.8629 0 60V196C0 229.137 26.8629 256 60 256H196C229.137 256 256 229.137 256 196V60C256 26.8629 229.137 0 196 0Z" fill="#0866FF"/>
<path d="M164.667 167.6H190.619L201 126H164.667V105.2C164.667 94.488 164.667 84.4 185.429 84.4H201V49.456C197.616 49.0088 184.837 48 171.342 48C143.157 48 123.143 65.2328 123.143 96.88V126H92V167.6H123.143V256H164.667V167.6Z" fill="white"/>
</g>
<defs>
<clipPath id="clip0_316_192">
<rect width="256" height="256" fill="white"/>
</clipPath>
</defs>
</svg>
