<svg width="256" height="256" viewBox="0 0 256 256" fill="none" xmlns="http://www.w3.org/2000/svg">
<g clip-path="url(#clip0_170_1502)">
<path d="M196 0H60C26.8629 0 0 26.8629 0 60V196C0 229.137 26.8629 256 60 256H196C229.137 256 256 229.137 256 196V60C256 26.8629 229.137 0 196 0Z" fill="white"/>
<rect x="60" y="69" width="140" height="118" fill="white"/>
<path d="M128 28C114.868 27.9994 101.865 30.5769 89.7331 35.5853C77.6008 40.5937 66.5771 47.935 57.2912 57.1899C48.0054 66.4449 40.6393 77.4323 35.6135 89.5249C30.5877 101.617 28.0006 114.578 28 127.667C27.998 140.758 30.5832 153.721 35.6078 165.816C40.6325 177.911 47.9982 188.9 57.2843 198.157C66.5704 207.414 77.595 214.757 89.7285 219.767C101.862 224.777 114.867 227.355 128 227.354C141.133 227.355 154.138 224.777 166.271 219.767C178.405 214.757 189.43 207.414 198.716 198.157C208.002 188.9 215.368 177.911 220.392 165.816C225.417 153.721 228.002 140.758 228 127.667C227.999 114.578 225.412 101.617 220.387 89.5249C215.361 77.4323 207.995 66.4449 198.709 57.1899C189.423 47.935 178.399 40.5937 166.267 35.5853C154.135 30.5769 141.132 27.9994 128 28ZM121.092 73.1272H184.008L120.838 117.53H164.027L71.9922 182.207L91.9726 137.824L101.112 117.53L121.092 73.1272Z" fill="#049789"/>
</g>
<defs>
<clipPath id="clip0_170_1502">
<rect width="256" height="256" fill="white"/>
</clipPath>
</defs>
</svg>
