<svg width="256" height="256" viewBox="0 0 256 256" fill="none" xmlns="http://www.w3.org/2000/svg">
<g clip-path="url(#clip0_248_4400)">
<path d="M196 0H60C26.8629 0 0 26.8629 0 60V196C0 229.137 26.8629 256 60 256H196C229.137 256 256 229.137 256 196V60C256 26.8629 229.137 0 196 0Z" fill="#049789"/>
<path d="M127.02 28.0195C113.888 28.0189 100.885 30.5964 88.7526 35.6048C76.6204 40.6132 65.5966 47.9545 56.3108 57.2095C47.0249 66.4644 39.6588 77.4519 34.633 89.5444C29.6072 101.637 27.0201 114.598 27.0195 127.687C27.0176 140.778 29.6027 153.741 34.6274 165.835C39.652 177.93 47.0177 188.92 56.3038 198.177C65.5899 207.434 76.6146 214.777 88.7481 219.787C100.882 224.796 113.886 227.374 127.02 227.374C140.153 227.374 153.157 224.796 165.291 219.787C177.424 214.777 188.449 207.434 197.735 198.177C207.021 188.92 214.387 177.93 219.412 165.835C224.436 153.741 227.021 140.778 227.02 127.687C227.019 114.598 224.432 101.637 219.406 89.5444C214.38 77.4519 207.014 66.4644 197.728 57.2095C188.442 47.9545 177.419 40.6132 165.286 35.6048C153.154 30.5964 140.151 28.0189 127.02 28.0195ZM120.112 73.1467H183.027L119.857 117.55H163.047L71.0117 182.227L90.9921 137.843L100.131 117.55L120.112 73.1467Z" fill="white" fill-opacity="0.980392"/>
</g>
<defs>
<clipPath id="clip0_248_4400">
<rect width="256" height="256" fill="white"/>
</clipPath>
</defs>
</svg>
