<svg width="256" height="256" viewBox="0 0 256 256" fill="none" xmlns="http://www.w3.org/2000/svg">
<g clip-path="url(#clip0_248_6447)">
<rect width="256" height="256" rx="60" fill="#242938"/>
<path d="M65.7294 102.588C63.7257 106.429 60.5862 109.556 56.7397 111.544L106.091 161.134L117.99 155.098L65.7294 102.588ZM130.826 167.996L118.927 174.031L143.934 199.159C145.938 195.318 149.078 192.189 152.925 190.201L130.826 167.996Z" fill="#A730B8"/>
<path d="M187.925 122.21L159.985 136.383L162.045 149.572L193.658 133.536C190.628 130.441 188.625 126.486 187.925 122.21ZM143.766 144.61L77.7051 178.12C80.7364 181.215 82.739 185.17 83.4393 189.447L145.826 157.799L143.766 144.61Z" fill="#5496BE"/>
<path d="M122.522 62.0664L90.6448 124.355L100.056 133.811L133.807 67.8626C129.539 67.1399 125.597 65.1157 122.522 62.0664ZM82.3543 140.555L66.208 172.105C70.476 172.827 74.4169 174.851 77.4924 177.9L91.7651 150.011L82.3543 140.555Z" fill="#CE3D1A"/>
<path d="M56.4657 111.683C53.2144 113.311 49.5965 114.068 45.9655 113.879C45.2861 113.842 44.609 113.771 43.9365 113.668L53.3647 174.028C56.6159 172.4 60.2338 171.643 63.8648 171.832C64.5438 171.869 65.2205 171.94 65.8926 172.044L56.4657 111.683Z" fill="#D0188F"/>
<path d="M83.4891 189.746C83.7049 191.148 83.7786 192.567 83.7089 193.984C83.5481 196.874 82.7934 199.699 81.4917 202.284L141.788 211.968C141.571 210.567 141.498 209.146 141.567 207.73C141.728 204.841 142.483 202.015 143.785 199.431L83.4891 189.746Z" fill="#5B36E9"/>
<path d="M193.87 133.755L166.04 188.137C170.308 188.86 174.25 190.884 177.326 193.934L205.157 139.552C200.888 138.83 196.946 136.805 193.87 133.755Z" fill="#30B873"/>
<path d="M155.913 56.8418C153.909 60.6833 150.769 63.8115 146.922 65.7992L190.021 109.104C192.025 105.263 195.165 102.135 199.012 100.147L155.913 56.8418Z" fill="#EBE305"/>
<path d="M116.575 50.52L62.0928 78.1559C65.1236 81.2499 67.126 85.2052 67.8264 89.4811L122.308 61.844C119.279 58.7503 117.276 54.7955 116.575 50.52Z" fill="#F47601"/>
<path d="M146.823 65.8486C143.528 67.5376 139.846 68.3259 136.15 68.1336C135.534 68.0962 134.92 68.0317 134.31 67.9403L139.136 98.8722L152.305 100.987L146.823 65.8486ZM141.941 116.854L153.351 189.987C156.564 188.41 160.126 187.68 163.698 187.867C164.435 187.909 165.169 187.989 165.897 188.108L155.11 118.969L141.941 116.854Z" fill="#57C115"/>
<path d="M67.865 89.7129C68.0891 91.1361 68.1666 92.5784 68.0962 94.0174C67.9375 96.8844 67.194 99.6886 65.9116 102.257L96.8389 107.229L102.917 95.3474L67.865 89.7129ZM120.871 98.2331L114.792 110.116L187.866 121.863C187.657 120.476 187.585 119.073 187.655 117.673C187.817 114.767 188.58 111.925 189.896 109.329L120.871 98.2331Z" fill="#DBB210"/>
<path d="M136.253 66.2233C146.791 66.7978 155.798 58.7133 156.372 48.1662C156.946 37.6192 148.87 28.6033 138.331 28.0288C127.794 27.4543 118.787 35.5387 118.212 46.0858C117.639 56.6329 125.716 65.6488 136.253 66.2233Z" fill="#FFCA00" fill-opacity="0.995968"/>
<path d="M207.603 137.915C218.141 138.49 227.148 130.406 227.722 119.858C228.296 109.312 220.219 100.296 209.681 99.7212C199.144 99.1467 190.136 107.231 189.562 117.779C188.989 128.325 197.065 137.342 207.603 137.915Z" fill="#64FF00" fill-opacity="0.995968"/>
<path d="M161.515 227.971C172.053 228.546 181.06 220.461 181.634 209.914C182.208 199.366 174.131 190.351 163.594 189.776C153.057 189.202 144.049 197.287 143.475 207.833C142.9 218.381 150.978 227.396 161.515 227.971Z" fill="#00A3FF" fill-opacity="0.995968"/>
<path d="M61.6825 211.937C72.2199 212.511 81.2274 204.427 81.8013 193.88C82.3754 183.332 74.2984 174.317 63.761 173.742C53.2235 173.168 44.216 181.252 43.6421 191.799C43.068 202.346 51.145 211.362 61.6825 211.937Z" fill="#9500FF" fill-opacity="0.995968"/>
<path d="M46.0691 111.971C56.6066 112.546 65.6141 104.462 66.1881 93.9143C66.7621 83.3672 58.6851 74.3514 48.1477 73.7769C37.6103 73.2024 28.6027 81.2867 28.0288 91.8338C27.4548 102.381 35.5317 111.397 46.0691 111.971Z" fill="#FF0000" fill-opacity="0.995968"/>
</g>
<defs>
<clipPath id="clip0_248_6447">
<rect width="256" height="256" fill="white"/>
</clipPath>
</defs>
</svg>
