<svg width="256" height="256" viewBox="0 0 256 256" fill="none" xmlns="http://www.w3.org/2000/svg">
<g clip-path="url(#clip0_360_599)">
<rect width="256" height="256" rx="60" fill="#242938"/>
<path d="M130.031 100.667C129.306 101.835 121.215 115.038 112.037 129.973L95.3306 157.146L97.4238 157.266C98.9938 157.347 99.5976 157.226 100 156.703C100.282 156.34 107.85 144.183 116.867 129.732C125.844 115.24 133.332 103.405 133.452 103.405C133.613 103.445 137.599 109.684 142.309 117.293L150.923 131.181H153.298C155.714 131.181 155.714 131.181 155.19 130.215C154.909 129.691 150.4 122.365 145.207 113.951L135.747 98.6142L133.533 98.5739H131.319L130.031 100.667Z" fill="#ED145B"/>
<path d="M181.437 127.92V157.347H183.651H185.865V129.973V102.599H202.491C220.485 102.599 222.538 102.801 226.483 104.813C229.059 106.102 231.354 108.436 232.602 110.972C233.367 112.542 233.528 113.509 233.528 116.689C233.528 120.03 233.407 120.795 232.441 122.767C231.112 125.545 228.415 128.081 225.476 129.45C222.055 131.02 217.908 131.543 209.334 131.583H201.565V133.395V135.206H210.542C218.271 135.206 220.002 135.085 222.739 134.401C227.087 133.274 229.744 131.905 232.602 129.248C236.869 125.303 238.64 120.191 237.795 114.233C236.748 106.907 232.078 101.875 224.108 99.4996C222.216 98.9361 218.915 98.8153 201.685 98.6945L181.437 98.5335V127.92Z" fill="#ED145B"/>
<path d="M18 128.161V157.347H20.0128H22.0255L22.1061 130.054L22.2268 102.801L44.8906 102.68L67.5142 102.599V100.788V98.9763H42.7571H18V128.161Z" fill="#ED145B"/>
<path d="M80.396 128.161V157.347H82.61H84.8241V128.161V98.9763H82.61H80.396V128.161Z" fill="#ED145B"/>
<path d="M34.1021 128.967V130.778H44.7697H55.4374V128.967V127.155H44.7697H34.1021V128.967Z" fill="#ED145B"/>
<path d="M158.934 143.942C159.457 144.787 161.511 148.088 163.523 151.308L167.187 157.146L169.521 157.266C170.81 157.347 171.776 157.226 171.735 157.025C171.655 156.864 169.602 153.482 167.187 149.577L162.799 142.452H160.424H158.008L158.934 143.942Z" fill="#ED145B"/>
</g>
<defs>
<clipPath id="clip0_360_599">
<rect width="256" height="256" fill="white"/>
</clipPath>
</defs>
</svg>
