<svg width="256" height="256" viewBox="0 0 256 256" fill="none" xmlns="http://www.w3.org/2000/svg">
<g clip-path="url(#clip0_248_1508)">
<rect width="256" height="256" rx="60" fill="#242938"/>
<path d="M98.3774 222.587C106.746 225.955 115.825 227.954 125.358 228.287C138.259 228.737 150.527 226.069 161.495 221.003C148.343 215.836 136.431 208.279 126.266 198.884C119.676 209.435 109.93 217.768 98.3774 222.587Z" fill="#FF9100"/>
<path d="M126.264 198.886C103.058 177.425 88.981 146.362 90.1707 112.291C90.2094 111.185 90.2677 110.079 90.336 108.974C86.18 107.899 81.8412 107.243 77.3761 107.087C70.9847 106.864 64.7952 107.656 58.9518 109.302C52.7573 120.153 49.019 132.603 48.5533 145.939C47.3515 180.356 68.1792 210.428 98.3755 222.59C109.928 217.771 119.674 209.447 126.264 198.886Z" fill="#FFC400"/>
<path d="M126.264 198.886C131.66 190.252 134.931 180.129 135.312 169.224C136.313 140.537 117.028 115.859 90.3368 108.973C90.2685 110.078 90.2101 111.184 90.1715 112.29C88.9816 146.361 103.059 177.424 126.264 198.886Z" fill="#FF9100"/>
<path d="M132.327 28.3354C117.125 40.5139 105.121 56.5723 97.8586 75.0711C93.7005 85.6671 91.0876 97.0489 90.3247 108.98C117.016 115.866 136.301 140.544 135.3 169.231C134.919 180.137 131.638 190.249 126.253 198.893C136.418 208.298 148.33 215.845 161.482 221.012C187.88 208.809 206.61 182.551 207.695 151.493C208.397 131.37 200.666 113.436 189.741 98.2982C178.204 82.2881 132.327 28.3354 132.327 28.3354Z" fill="#DD2C00"/>
</g>
<defs>
<clipPath id="clip0_248_1508">
<rect width="256" height="256" fill="white"/>
</clipPath>
</defs>
</svg>
