<svg width="256" height="256" viewBox="0 0 256 256" fill="none" xmlns="http://www.w3.org/2000/svg">
<g clip-path="url(#clip0_248_1505)">
<path d="M196 0H60C26.8629 0 0 26.8629 0 60V196C0 229.137 26.8629 256 60 256H196C229.137 256 256 229.137 256 196V60C256 26.8629 229.137 0 196 0Z" fill="url(#paint0_linear_248_1505)"/>
<path d="M190.072 97.7417C185.589 91.5083 175.255 78.7 159.397 59.6667C154.184 53.4134 148.951 47.1773 143.697 40.9583L139.63 36.1583L137.905 34.1167L136.964 33.0083L136.78 32.7417L136.697 32.7L132.697 28L127.622 32.0667C114.629 42.4942 104.145 55.7087 96.9468 70.7333C92.7648 79.0805 89.8361 87.9986 88.2552 97.2C87.8553 99.239 87.519 101.29 87.2469 103.35C85.4943 103.208 83.738 103.116 81.9802 103.075L81.4885 103.05C75.0755 102.831 68.6671 103.601 62.4885 105.333L59.8469 106.075L58.4885 108.458C52.0862 119.701 48.5061 132.328 48.0552 145.258C47.4353 161.879 52.0495 178.275 61.2469 192.133C70.1781 205.677 83.0275 216.174 98.0802 222.225L100.047 223.017L100.639 223.225L100.664 223.217C108.535 226.067 116.805 227.664 125.172 227.95C126.122 227.983 127.072 228 128.022 228C138.582 228.01 149.037 225.908 158.772 221.817L158.839 221.85L161.447 220.642C174.677 214.522 185.99 204.914 194.172 192.85C202.584 180.406 207.323 165.845 207.847 150.833C208.472 132.825 202.488 114.967 190.072 97.7417ZM131.047 153.533C133.78 163.9 133.247 173.867 129.455 183.183C119.997 173.85 113.064 163.583 108.83 152.642C104.305 140.942 101.58 129.808 100.714 119.517C104.714 120.825 108.397 122.567 111.672 124.7C121.105 130.842 127.622 140.542 131.047 153.533ZM132.772 203.717C136.789 206.783 141.022 209.65 145.38 212.283C138.953 214.036 132.296 214.803 125.639 214.558C124.601 214.521 123.565 214.46 122.53 214.375C126.284 211.168 129.712 207.598 132.764 203.717H132.772ZM143.997 150.125C139.697 133.817 131.272 121.483 118.98 113.475C113.355 109.863 107.18 107.189 100.697 105.558C100.865 103.569 101.112 101.587 101.439 99.6167C102.989 91.6482 105.537 83.9067 109.022 76.575L109.055 76.5083C110.53 73.525 112.189 70.5167 114.139 67.3L114.905 66.0333L114.88 66.025C119.42 58.9337 124.86 52.4604 131.063 46.7667L133.464 49.6083C139.063 56.2417 144.33 62.5083 149.114 68.25C159.872 81.1583 173.83 98.1083 179.214 105.583C189.855 120.342 194.988 135.408 194.464 150.375C194.081 161.67 190.823 172.681 184.997 182.365C179.172 192.049 170.971 200.087 161.172 205.717C153.705 201.97 146.619 197.507 140.014 192.392C146.597 179.267 147.947 165.058 144.005 150.125H143.997ZM122.539 195.1C117.698 201.25 111.801 206.487 105.122 210.567C104.441 210.323 103.766 210.065 103.097 209.792L102.555 209.575C90.1572 204.464 79.5969 195.719 72.2635 184.492C64.7183 173.004 60.9377 159.451 61.4469 145.717C61.7656 135.9 64.277 126.279 68.7969 117.558C71.4413 116.975 74.108 116.611 76.7969 116.467L77.4969 116.45C78.858 116.422 80.1857 116.422 81.4802 116.45C83.3746 116.544 85.2552 116.739 87.1218 117.033C87.7302 129.642 90.8302 143.242 96.3302 157.467C101.639 171.167 110.447 183.817 122.53 195.092L122.539 195.1Z" fill="white"/>
</g>
<defs>
<linearGradient id="paint0_linear_248_1505" x1="0" y1="128" x2="256" y2="128" gradientUnits="userSpaceOnUse">
<stop stop-color="#FFC400"/>
<stop offset="1" stop-color="#DD2C00"/>
</linearGradient>
<clipPath id="clip0_248_1505">
<rect width="256" height="256" fill="white"/>
</clipPath>
</defs>
</svg>
