<svg width="256" height="256" viewBox="0 0 256 256" fill="none" xmlns="http://www.w3.org/2000/svg">
<g clip-path="url(#clip0_170_1528)">
<path d="M196 0H60C26.8629 0 0 26.8629 0 60V196C0 229.137 26.8629 256 60 256H196C229.137 256 256 229.137 256 196V60C256 26.8629 229.137 0 196 0Z" fill="white"/>
<path d="M136.804 143.336C138.3 145.535 139.666 147.722 141.014 150.008C150.876 165.871 164.4 175.737 182.582 179.997C189.024 181.049 195.621 181.738 202.094 180.645C203.521 179.31 204.904 177.926 206.239 176.499C209.219 175.378 209.219 175.378 212.457 174.621C213.526 174.358 214.595 174.095 215.696 173.823C218.596 173.402 220.151 173.283 222.821 174.427C226.426 177.785 227.938 180.862 228.326 185.762C228.166 187.333 228.166 187.333 228.003 188.935C222.173 192.044 222.173 192.044 218.675 192.044C218.611 192.686 218.547 193.327 218.481 193.988C217.639 196.19 217.639 196.19 215.372 197.485C212.208 198.329 209.5 198.414 206.239 198.262C206.239 197.578 206.239 196.894 206.239 196.19C204.787 196.791 204.787 196.791 203.304 197.404C174.48 208.966 141.906 212.196 112.713 200.056C99.295 194.086 86.1766 184.671 76.6963 173.39C76.6963 172.706 76.6963 172.022 76.6963 171.318C89.7947 164.393 102.952 157.578 116.17 150.885C117.663 150.127 119.155 149.366 120.645 148.6C122.75 147.52 124.861 146.453 126.975 145.389C127.609 145.06 128.243 144.731 128.896 144.393C133.34 142.182 133.34 142.182 136.804 143.336Z" fill="#38A8BE"/>
<path d="M119.186 49.0288C119.275 50.1621 119.364 51.2953 119.455 52.463C119.789 56.718 120.123 60.973 120.458 65.228C120.602 67.0602 120.745 68.8923 120.889 70.7245C122.027 85.2741 122.027 85.2741 123.332 99.8097C119.268 102.365 115.058 104.434 110.693 106.412C109.971 106.743 109.248 107.073 108.503 107.414C106.15 108.488 103.795 109.558 101.439 110.627C99.8115 111.367 98.184 112.107 96.5566 112.847C92.4507 114.713 88.3424 116.573 84.2336 118.433C81.989 119.45 79.7459 120.47 77.5034 121.492C73.633 123.256 69.7568 125.007 65.8794 126.755C64.7217 127.283 63.5639 127.811 62.3711 128.355C61.3072 128.832 60.2434 129.308 59.1472 129.799C58.2275 130.214 57.3078 130.63 56.3603 131.058C53.8967 131.936 53.8967 131.936 49.7513 131.936C40.4242 112.862 40.4242 112.862 40.4242 104.991C39.64 104.93 38.8558 104.869 38.0479 104.805C35.2425 103.955 35.2425 103.955 33.3763 101.615C27.7369 90.9193 27.7369 90.9193 29.0244 85.3009C32.3047 83.0266 35.7876 81.3985 39.4418 79.8153C40.9702 79.15 40.9702 79.15 42.5296 78.4712C43.6263 77.9984 44.723 77.5256 45.8529 77.0384C47.0057 76.5384 48.1585 76.0383 49.3463 75.523C51.796 74.4612 54.2466 73.4012 56.6978 72.3428C60.3586 70.7618 64.0169 69.1754 67.6748 67.5879C73.6376 65.0029 79.6088 62.4377 85.5837 59.8808C89.1584 58.3447 92.7248 56.7904 96.2912 55.2352C98.5398 54.2681 100.789 53.3017 103.038 52.3362C104.586 51.6534 104.586 51.6534 106.165 50.9568C107.123 50.5497 108.08 50.1427 109.067 49.7233C109.899 49.3625 110.731 49.0016 111.589 48.6298C114.466 47.8708 116.345 48.249 119.186 49.0288Z" fill="#38A8BE"/>
<path d="M125.404 109.136C126.447 112.87 127.481 116.606 128.513 120.342C128.81 121.403 129.107 122.465 129.412 123.558C129.833 125.086 129.833 125.086 130.262 126.645C130.523 127.584 130.783 128.523 131.052 129.49C131.622 131.936 131.622 131.936 131.622 135.045C130.928 135.391 130.234 135.737 129.519 136.093C122.976 139.354 116.434 142.617 109.894 145.883C106.531 147.561 103.168 149.239 99.8042 150.915C96.5578 152.533 93.3123 154.152 90.0676 155.773C88.2273 156.692 86.3859 157.609 84.5445 158.525C83.4243 159.085 82.3041 159.645 81.15 160.222C80.1628 160.715 79.1755 161.207 78.1583 161.715C75.4998 163.055 75.4998 163.055 72.5508 165.099C71.5249 165.099 70.4989 165.099 69.4418 165.099C67.5869 162.693 65.9464 160.336 64.3249 157.78C63.8793 157.099 63.4338 156.419 62.9748 155.717C61.6505 153.678 60.3571 151.622 59.0784 149.554C58.6654 148.886 58.2524 148.218 57.827 147.53C54.933 142.687 54.933 142.687 54.933 139.19C56.0899 138.685 57.2468 138.18 58.4387 137.659C63.8349 135.301 69.2294 132.939 74.6235 130.576C75.5905 130.153 76.5575 129.729 77.5537 129.293C90.2125 123.749 102.841 118.159 115.332 112.244C116.675 111.616 116.675 111.616 118.045 110.974C118.8 110.616 119.555 110.257 120.334 109.887C122.295 109.136 122.295 109.136 125.404 109.136Z" fill="#38A8BE"/>
</g>
<defs>
<clipPath id="clip0_170_1528">
<rect width="256" height="256" fill="white"/>
</clipPath>
</defs>
</svg>
