<svg width="256" height="256" viewBox="0 0 256 256" fill="none" xmlns="http://www.w3.org/2000/svg">
<g clip-path="url(#clip0_248_4437)">
<rect width="256" height="256" rx="60" fill="#242938"/>
<path d="M146.927 28.0683L208.899 28L104.927 131.918L77.8302 158.863L47 127.996L146.927 28.0683ZM146.35 120.855C147.155 119.792 148.635 120.317 149.758 120.18L208.846 120.195L154.993 173.995L124.003 143.195L146.35 120.855Z" fill="#44D1FD"/>
<path d="M93.1126 174.047L124.003 143.195L154.993 173.995L155.122 174.131L124.011 204.954L93.1126 174.047Z" fill="#1FBCFD"/>
<path d="M124.011 204.954L155.122 174.131L208.868 227.93C188.623 227.976 168.386 227.915 148.149 227.96C146.996 228.218 146.282 227.164 145.546 226.511L124.011 204.954Z" fill="#08589C"/>
</g>
<defs>
<clipPath id="clip0_248_4437">
<rect width="256" height="256" fill="white"/>
</clipPath>
</defs>
</svg>
