<svg width="256" height="256" viewBox="0 0 256 256" fill="none" xmlns="http://www.w3.org/2000/svg">
<g clip-path="url(#clip0_248_5521)">
<rect width="256" height="256" rx="60" fill="#242938"/>
<path d="M181.125 28H74.875C48.9867 28 28 48.9867 28 74.875V181.125C28 207.013 48.9867 228 74.875 228H181.125C207.013 228 228 207.013 228 181.125V74.875C228 48.9867 207.013 28 181.125 28Z" fill="#734F96"/>
<path d="M62.375 182.984L69.2656 182.563C83.2578 181.648 83.1172 181.719 83.8203 170.75C84.4531 160.344 83.656 78.868 83.1875 77.2344C82.4158 74.5435 79.5203 72.9959 70.8828 72.998L62.375 72.9453V57.6875H193.156V116.117L177.758 115.889C177.617 115.748 177.195 111.617 176.914 107.82C175.297 89.9609 171.289 79.6853 163.555 75.6775C159.477 73.5681 153.108 72.9464 132.712 72.9402L113.703 72.9453V116.75H117.078C122.773 116.68 130.016 115.344 132.406 113.867C135.5 111.969 138.102 106.484 139.016 99.875C139.705 95.0513 140.236 91.4422 140.236 91.4422L155.188 91.4375V161.047H139.719V158.305C139.719 153.805 137.609 143.328 136.133 140.164C133.812 135.312 129.875 133.625 118.695 132.57L113.563 132.078L113.844 154.648C114.055 176.094 114.195 177.289 115.531 179.117C117.219 181.367 119.047 181.789 130.227 182.633L137.731 182.99L137.68 198.312H62.375V182.984Z" fill="white"/>
</g>
<defs>
<clipPath id="clip0_248_5521">
<rect width="256" height="256" fill="white"/>
</clipPath>
</defs>
</svg>
