<svg width="256" height="256" viewBox="0 0 256 256" fill="none" xmlns="http://www.w3.org/2000/svg">
<g clip-path="url(#clip0_248_5496)">
<path d="M196 0H60C26.8629 0 0 26.8629 0 60V196C0 229.137 26.8629 256 60 256H196C229.137 256 256 229.137 256 196V60C256 26.8629 229.137 0 196 0Z" fill="white"/>
<path d="M145.57 125.646C165.196 125.646 184.822 125.646 205.042 125.646C205.103 134.493 205.163 143.341 205.225 152.457C205.265 156.596 205.265 156.596 205.306 160.818C205.426 182.009 204.512 203.224 189.23 219.61C183.676 224.945 178.149 228.34 170.919 230.94C170.078 231.251 169.237 231.561 168.371 231.881C160.691 234.35 153.566 234.085 145.57 233.865C145.57 225.822 145.57 217.778 145.57 209.491C149.109 208.204 152.648 206.917 156.295 205.591C163.248 201.46 166.982 196.572 169.944 189.017C170.266 186.765 170.588 184.513 170.919 182.193C162.554 182.193 154.189 182.193 145.57 182.193C145.57 163.532 145.57 144.872 145.57 125.646Z" fill="black"/>
<path d="M145.57 34C165.196 34 184.822 34 205.042 34C205.042 52.6606 205.042 71.3211 205.042 90.5471C185.417 90.5471 165.791 90.5471 145.57 90.5471C145.57 71.8866 145.57 53.226 145.57 34Z" fill="black"/>
<path d="M51 34C70.6258 34 90.2515 34 110.472 34C110.472 52.6606 110.472 71.3211 110.472 90.5471C90.8462 90.5471 71.2205 90.5471 51 90.5471C51 71.8866 51 53.226 51 34Z" fill="black"/>
<path d="M51 125.646C70.304 125.646 89.608 125.646 109.497 125.646C109.497 144.306 109.497 162.967 109.497 182.193C90.193 182.193 70.889 182.193 51 182.193C51 163.532 51 144.872 51 125.646Z" fill="black"/>
</g>
<defs>
<clipPath id="clip0_248_5496">
<rect width="256" height="256" fill="white"/>
</clipPath>
</defs>
</svg>
