<svg width="256" height="256" viewBox="0 0 256 256" fill="none" xmlns="http://www.w3.org/2000/svg">
<g clip-path="url(#clip0_342_324)">
<rect width="256" height="256" rx="60" fill="#242938"/>
<path d="M178.587 30.7598C175.399 28.9259 171.349 28 166.54 28H146.483C143.189 28 140.065 28.0717 137.224 28.2469C134.331 28.4221 131.521 28.8263 128.889 29.4356C126.105 30.0927 123.357 31.2038 120.707 32.7629C118.114 34.2822 115.46 36.4028 112.812 39.0312C107.282 44.2083 103.682 49.8395 102.057 55.821C100.502 61.5298 99.7075 67.8996 99.7075 74.7653V85.9658H89.6699C84.8592 85.9658 80.7872 86.9037 77.6212 88.7256C73.8936 90.8642 72 94.7888 72 100.386C72 107.172 75.0705 110.344 77.6212 111.822C80.7872 113.639 84.8592 114.575 89.6699 114.575H99.7075V166.9C89.1144 172.197 81.7908 183.13 81.7908 195.747C81.7908 213.554 96.2807 228 114.04 228C131.826 228 146.294 213.554 146.294 195.747C146.294 183.1 138.952 172.153 128.321 166.87V114.575H145.557C150.388 114.575 154.464 113.639 157.618 111.81C160.176 110.344 163.227 107.172 163.227 100.386C163.227 94.7888 161.351 90.8622 157.618 88.7256C154.464 86.9037 150.388 85.9658 145.557 85.9658H128.321V74.7653C128.321 71.1951 128.624 68.0231 129.231 65.3549C129.781 63.0272 130.953 61.0619 132.829 59.2877L132.869 59.2538L132.92 59.2198C134.248 57.8838 135.804 57.149 137.679 56.9698C140.138 56.7328 143.281 56.6094 146.974 56.6094H166.538C171.349 56.6094 175.421 55.6635 178.585 53.8396C181.135 52.386 184.188 49.1961 184.188 42.4221C184.188 36.8288 182.295 32.8984 178.587 30.7598Z" fill="white" fill-opacity="0.847059"/>
<path d="M114.027 184.014C107.55 184.014 102.301 189.261 102.301 195.746C102.301 202.234 107.55 207.486 114.027 207.486C120.506 207.486 125.785 202.234 125.785 195.746C125.785 189.261 120.506 184.014 114.027 184.014Z" fill="#4B1100"/>
</g>
<defs>
<clipPath id="clip0_342_324">
<rect width="256" height="256" fill="white"/>
</clipPath>
</defs>
</svg>
