<svg width="256" height="256" viewBox="0 0 256 256" fill="none" xmlns="http://www.w3.org/2000/svg">
<g clip-path="url(#clip0_342_330)">
<rect width="256" height="256" rx="60" fill="white"/>
<path d="M219.274 28.5H35.7261C31.183 28.5 27.5 32.183 27.5 36.7261V220.274C27.5 224.817 31.183 228.5 35.7261 228.5H219.274C223.817 228.5 227.5 224.817 227.5 220.274V36.7261C227.5 32.183 223.817 28.5 219.274 28.5Z" fill="url(#paint0_linear_342_330)"/>
<path d="M165.865 54.616C163.442 53.2226 160.365 52.519 156.711 52.519H141.471C138.969 52.519 136.595 52.5735 134.436 52.7066C132.238 52.8398 130.103 53.1469 128.103 53.6099C125.988 54.1091 123.9 54.9534 121.886 56.138C119.917 57.2924 117.9 58.9036 115.888 60.9007C111.686 64.8344 108.951 69.113 107.716 73.6578C106.535 77.9954 105.931 82.8353 105.931 88.052V96.5623H98.3043C94.649 96.5623 91.555 97.2749 89.1494 98.6592C86.3172 100.284 84.8784 103.266 84.8784 107.519C84.8784 112.675 87.2114 115.085 89.1494 116.208C91.555 117.589 94.649 118.3 98.3043 118.3H105.931V158.057C97.8821 162.082 92.3176 170.389 92.3176 179.975C92.3176 193.505 103.327 204.482 116.821 204.482C130.335 204.482 141.328 193.505 141.328 179.975C141.328 170.367 135.75 162.048 127.672 158.035V118.3H140.768C144.438 118.3 147.535 117.589 149.932 116.199C151.876 115.085 154.194 112.675 154.194 107.519C154.194 103.266 152.769 100.283 149.932 98.6592C147.535 97.2749 144.438 96.5623 140.768 96.5623H127.672V88.052C127.672 85.3392 127.902 82.9291 128.363 80.9018C128.781 79.1332 129.672 77.6399 131.097 76.2919L131.127 76.2661L131.167 76.2403C132.176 75.2251 133.357 74.6669 134.782 74.5307C136.651 74.3506 139.038 74.2568 141.845 74.2568H156.71C160.365 74.2568 163.459 73.5382 165.863 72.1523C167.801 71.0479 170.12 68.6241 170.12 63.4771C170.12 59.2273 168.682 56.2409 165.865 54.616Z" fill="white" fill-opacity="0.847059"/>
<path d="M116.811 171.061C111.889 171.061 107.901 175.047 107.901 179.975C107.901 184.904 111.889 188.895 116.811 188.895C121.734 188.895 125.745 184.904 125.745 179.975C125.745 175.047 121.734 171.061 116.811 171.061Z" fill="#4B1100"/>
</g>
<defs>
<linearGradient id="paint0_linear_342_330" x1="131.116" y1="228.5" x2="131.116" y2="28.5" gradientUnits="userSpaceOnUse">
<stop stop-color="#E02D2D"/>
<stop offset="1" stop-color="#F75151"/>
</linearGradient>
<clipPath id="clip0_342_330">
<rect width="256" height="256" fill="white"/>
</clipPath>
</defs>
</svg>
