<svg width="256" height="256" viewBox="0 0 256 256" fill="none" xmlns="http://www.w3.org/2000/svg">
<g clip-path="url(#clip0_360_695)">
<path d="M196 0H60C26.8629 0 0 26.8629 0 60V196C0 229.137 26.8629 256 60 256H196C229.137 256 256 229.137 256 196V60C256 26.8629 229.137 0 196 0Z" fill="#CC092F"/>
<path d="M46.0491 148.569C47.117 148.551 48.1829 148.665 49.2218 148.909C49.3149 148.385 49.3624 147.855 49.3637 147.323C49.3647 146.808 49.3171 146.294 49.2218 145.787C48.0393 145.505 46.8275 145.36 45.6109 145.355C40.494 145.355 36.5498 148.235 36.5498 154.704V179.456C37.1926 179.578 37.8455 179.643 38.5003 179.65C39.2018 179.638 39.9013 179.573 40.5927 179.456V159.217H49.2341C49.3271 158.662 49.3745 158.102 49.3761 157.54C49.377 157.025 49.3295 156.51 49.2341 156.003H40.5927V154.515C40.5927 150.391 42.5432 148.569 46.0491 148.569Z" fill="white"/>
<path d="M69.0523 156.004V176.006C67.4354 176.389 65.7776 176.581 64.1144 176.577C59.5776 176.577 57.1951 174.147 57.1951 168.954V156.004C56.5522 155.881 55.8994 155.816 55.2446 155.81C54.5408 155.817 53.8388 155.882 53.146 156.004V169.1C53.146 176.194 56.9482 179.79 63.8675 179.79C67.0003 179.746 70.1135 179.295 73.1261 178.448V156.004C72.4687 155.881 71.8015 155.816 71.1324 155.81C70.4346 155.815 69.7386 155.88 69.0523 156.004Z" fill="white"/>
<path d="M88.1083 155.623C84.9427 155.663 81.7964 156.114 78.751 156.965V179.44C79.3939 179.562 80.0467 179.627 80.7015 179.634C81.4053 179.627 82.1072 179.562 82.8001 179.44V159.395C84.4568 158.985 86.1593 158.781 87.8676 158.788C92.4475 158.788 94.8856 161.217 94.8856 166.459V179.458C95.5285 179.581 96.1813 179.646 96.8361 179.652C97.5379 179.645 98.2378 179.58 98.9286 179.458V166.368C98.9286 159.268 95.0276 155.623 88.1083 155.623Z" fill="white"/>
<path d="M119.493 148.569V156.101C118.078 155.77 116.627 155.609 115.172 155.621C108.105 155.621 103.445 160.42 103.445 168.091C103.445 175.763 107.994 179.839 114.938 179.839C117.877 179.809 120.794 179.324 123.579 178.399V145.022C122.386 145.458 121.268 146.073 120.265 146.844C119.741 147.264 119.454 147.906 119.493 148.569ZM119.493 176.006C118.047 176.4 116.555 176.604 115.055 176.613C110.234 176.613 107.506 173.449 107.506 168.11C107.506 161.92 110.592 158.853 115.351 158.853C116.747 158.833 118.14 158.995 119.493 159.333V176.006Z" fill="white"/>
<path d="M136.357 155.623C134.227 155.62 132.107 155.925 130.067 156.528C129.97 157.018 129.922 157.517 129.925 158.016C129.923 158.562 129.97 159.107 130.067 159.644C132.066 159.091 134.133 158.817 136.209 158.83C140.11 158.83 142.301 160.604 142.301 164.582V165.494C140.85 165.285 139.385 165.189 137.919 165.208C131.826 165.208 128.123 167.844 128.123 172.351C128.123 177.532 132.117 179.834 137.622 179.834C140.493 179.817 143.347 179.408 146.103 178.62V165.117C146.103 158.454 142.252 155.623 136.357 155.623ZM142.301 176.245C140.793 176.547 139.26 176.708 137.721 176.725C133.919 176.725 131.87 175.139 131.87 172.266C131.87 169.29 134.018 168.093 138.209 168.093C139.577 168.062 140.946 168.141 142.301 168.33V176.245Z" fill="white"/>
<path d="M162.181 176.528C157.021 176.528 154.774 173.175 154.774 167.659C154.774 162.144 157.064 158.882 162.138 158.882C163.883 158.894 165.606 159.254 167.206 159.939C167.3 159.4 167.347 158.853 167.348 158.305C167.352 157.79 167.304 157.275 167.206 156.769C165.378 155.98 163.399 155.588 161.404 155.621C154.725 155.621 150.682 160.51 150.682 167.708C150.682 174.614 153.997 179.121 160.089 179.741C160.677 180.445 161.003 181.326 161.015 182.237C161.015 183.677 159.99 184.588 158.385 184.588C157.192 184.589 156.012 184.343 154.923 183.865C154.858 184.31 154.825 184.758 154.824 185.208C154.827 185.642 154.86 186.077 154.923 186.507C156.169 187.037 157.516 187.298 158.873 187.273C161.842 187.273 164.039 185.687 164.039 182.814C164.015 181.697 163.62 180.618 162.916 179.741C164.528 179.676 166.114 179.32 167.595 178.69C167.695 178.167 167.745 177.637 167.743 177.105C167.745 176.589 167.695 176.074 167.595 175.568C165.856 176.18 164.027 176.504 162.181 176.528Z" fill="white"/>
<path d="M178.996 155.623C176.868 155.62 174.751 155.925 172.713 156.528C172.61 157.018 172.56 157.516 172.565 158.016C172.561 158.562 172.61 159.107 172.713 159.644C174.711 159.09 176.778 158.816 178.854 158.83C182.749 158.83 184.946 160.604 184.946 164.582V165.494C183.493 165.285 182.026 165.189 180.558 165.208C174.466 165.208 170.762 167.844 170.762 172.351C170.762 177.532 174.762 179.834 180.268 179.834C183.138 179.816 185.992 179.408 188.749 178.62V165.117C188.749 158.454 184.897 155.623 178.996 155.623ZM184.946 176.245C183.437 176.547 181.901 176.708 180.36 176.725C176.564 176.725 174.515 175.139 174.515 172.266C174.515 169.284 176.663 168.069 180.848 168.069C182.218 168.037 183.589 168.117 184.946 168.306V176.245Z" fill="white"/>
<path d="M177.144 150.588C178.044 150.634 178.924 150.861 179.73 151.256C180.712 151.755 181.793 152.035 182.897 152.076C184.287 152.047 185.627 151.557 186.699 150.685C186.758 150.223 186.791 149.759 186.798 149.294C186.793 148.845 186.76 148.396 186.699 147.951C185.609 148.786 184.277 149.256 182.897 149.294C181.823 149.266 180.768 149.002 179.811 148.522C178.981 148.091 178.064 147.846 177.126 147.806C175.738 147.847 174.405 148.353 173.348 149.239C173.247 149.68 173.198 150.13 173.2 150.582C173.192 151.033 173.242 151.484 173.348 151.924C174.432 151.084 175.765 150.615 177.144 150.588Z" fill="white"/>
<path d="M203.852 155.623C197.371 155.623 193.328 160.081 193.328 167.771C193.328 175.352 197.321 179.859 203.821 179.859C210.401 179.859 214.4 175.303 214.4 167.771C214.382 160.033 210.53 155.623 203.852 155.623ZM203.821 176.627C199.63 176.627 197.438 173.463 197.438 167.753C197.438 161.952 199.728 158.836 203.87 158.836C208.111 158.836 210.302 161.873 210.302 167.753C210.283 173.536 208.043 176.627 203.821 176.627Z" fill="white"/>
<path d="M44.3572 201.89C42.5365 201.866 40.7319 202.228 39.0659 202.951V190.518C36.9545 191.253 34.9751 192.313 33.2016 193.658C32.3906 194.239 31.9394 195.189 32.0066 196.174V226.871C33.8854 227.653 37.6983 228.326 41.345 228.326C50.5849 228.326 55.8578 222.779 55.8578 214.771C55.8578 206.764 52.1003 201.89 44.3572 201.89ZM41.7393 222.67C40.8389 222.713 39.9372 222.619 39.0659 222.391V208.449C40.3488 207.872 41.753 207.604 43.1622 207.667C46.6918 207.667 48.5706 210.092 48.5706 214.608C48.5706 219.366 46.3346 222.67 41.7393 222.67Z" fill="white"/>
<path d="M73.8444 202.115C70.481 202.115 68.5468 203.4 66.7296 205.697C66.5711 204.573 66.303 203.467 65.9288 202.394C64.9788 202.173 64.003 202.079 63.0275 202.115C62.0714 202.106 61.1172 202.2 60.1816 202.394V227.768C61.3442 227.989 62.5279 228.082 63.7113 228.047C64.8938 228.054 66.0747 227.961 67.2409 227.768V215.39C67.2409 210.462 69.8589 207.825 73.4008 207.825C74.1809 207.806 74.9612 207.845 75.7354 207.94C76.1408 206.098 76.1785 204.196 75.8463 202.339C75.1885 202.197 74.5177 202.122 73.8444 202.115Z" fill="white"/>
<path d="M118.469 196.174V202.284C117.26 201.992 116.017 201.859 114.773 201.89C106.974 201.89 101.683 207.043 101.683 215.275C101.683 223.676 106.864 228.326 114.945 228.326C118.534 228.368 122.107 227.846 125.528 226.78V190.518C123.407 191.248 121.419 192.308 119.639 193.658C118.838 194.244 118.396 195.193 118.469 196.174ZM118.469 222.276C117.489 222.559 116.471 222.692 115.451 222.67C110.781 222.67 108.964 219.639 108.964 215.275C108.964 210.425 110.812 207.437 115.395 207.437C116.435 207.421 117.472 207.551 118.475 207.825L118.469 222.276Z" fill="white"/>
<path d="M86.8811 201.774C84.3107 201.73 81.7453 202.013 79.2489 202.617C78.827 204.424 78.827 206.302 79.2489 208.109C81.3779 207.589 83.5667 207.344 85.76 207.381C89.4005 207.381 91.1684 208.842 91.1684 211.806V212.091C90.0842 211.976 88.7783 211.867 87.8666 211.867C81.8299 211.867 76.6494 213.995 76.6494 219.705C76.6494 226.149 81.3186 228.331 88.0946 228.331C91.4365 228.296 94.7558 227.788 97.9504 226.821V212.303C97.9196 205.363 94.1066 201.926 86.8811 201.774ZM91.1499 222.615C90.1524 222.783 89.1434 222.876 88.1315 222.893C84.8852 222.893 83.1235 221.942 83.1235 219.699C83.1235 217.456 84.8852 216.565 88.1315 216.565C89.2095 216.565 90.4661 216.674 91.1499 216.729V222.615Z" fill="white"/>
<path d="M190.921 222.614C187.391 222.614 185.063 219.868 185.063 215.049C185.063 210.46 186.911 207.489 190.982 207.489C192.526 207.478 194.056 207.783 195.473 208.387C195.997 206.632 196.847 204.987 197.98 203.537C195.543 202.29 192.816 201.69 190.071 201.797C182.272 201.797 177.751 207.253 177.751 215.073C177.751 223.196 182.359 228.348 190.33 228.348C193.013 228.436 195.675 227.859 198.073 226.669C196.899 225.218 195.993 223.577 195.393 221.82C193.986 222.425 192.454 222.697 190.921 222.614Z" fill="white"/>
<path d="M210.676 201.774C202.761 201.774 198.319 207.096 198.319 215.11C198.319 223.233 202.989 228.331 210.676 228.331C218.641 228.331 223.082 223.124 223.082 215.11C223.082 207.096 218.641 201.774 210.676 201.774ZM210.676 222.724C206.746 222.724 205.551 219.59 205.551 215.104C205.551 210.739 206.746 207.375 210.676 207.375C214.717 207.375 215.85 210.624 215.85 215.104C215.85 219.814 214.545 222.724 210.676 222.724Z" fill="white"/>
<path d="M141.814 201.774C134.188 201.774 129.494 206.817 129.494 215.219C129.494 223.621 134.422 228.325 142.928 228.325C145.83 228.325 148.959 227.822 150.936 226.87C151.331 225.099 151.331 223.264 150.936 221.493C148.58 222.223 146.131 222.619 143.661 222.669C139.738 222.669 137.003 221.214 136.436 217.122H152.482C152.699 215.959 152.794 214.777 152.766 213.594C152.784 206.035 148.46 201.774 141.814 201.774ZM136.454 212.024C136.966 208.945 138.844 207.096 141.69 207.096C144.875 207.096 146.125 209.224 146.242 212.024H136.454Z" fill="white"/>
<path d="M168.955 212.697L166.11 211.521C164.459 210.848 163.492 210.309 163.492 209.224C163.492 207.599 164.97 207.266 166.904 207.266C169.167 207.268 171.415 207.626 173.563 208.327C173.908 206.608 173.908 204.839 173.563 203.12C171.857 202.223 168.666 201.774 165.882 201.774C160.418 201.774 156.26 204.69 156.26 209.048C156.26 212.964 157.966 214.928 162.746 216.831L164.97 217.729C167.071 218.577 167.687 219.086 167.687 220.426C167.687 222.445 165.641 222.778 163.935 222.778C161.282 222.748 158.657 222.237 156.192 221.269C155.732 223.059 155.732 224.934 156.192 226.724C158.527 227.937 161.736 228.349 165.069 228.349C170.477 228.349 174.801 225.548 174.801 220.505C174.814 216.34 172.996 214.376 168.955 212.697Z" fill="white"/>
<path d="M124.55 50.2745C117.8 50.2987 111.064 50.8708 104.41 51.9852C111.686 42.8568 122.831 37.5378 134.619 37.5677C143.411 37.5941 151.936 40.5397 158.815 45.9277C159.908 46.8315 160.761 46.9068 161.603 46.0891C162.445 45.2714 162.368 44.4537 161.439 43.3885C151.712 31.9508 136.546 26.4537 121.604 28.9495C106.662 31.4452 94.1884 41.5587 88.841 55.5142C83.7933 57.0085 78.9165 59.0133 74.2886 61.4964C73.1078 62.1528 72.6814 62.9705 73.1078 63.9496C73.3104 64.3893 73.6824 64.7317 74.1418 64.9013C74.6013 65.0708 75.1104 65.0536 75.5569 64.8533C79.2852 63.7774 83.09 62.8844 87.0588 62.0667C86.6226 64.1701 86.3992 66.3109 86.3919 68.4577C86.1987 82.7752 93.5601 96.1682 105.843 103.845C107.034 104.588 108.029 104.588 108.729 103.684C109.068 103.295 109.216 102.78 109.133 102.274C109.051 101.768 108.747 101.324 108.303 101.058C100.733 94.214 96.433 84.5558 96.4507 74.4399C96.4281 69.5619 97.4371 64.7326 99.4137 60.2591C103.393 59.9363 107.712 59.6889 112.446 59.6889C143.246 59.6889 169.224 69.6843 169.224 82.7892C169.224 89.4277 160.674 96.0662 150.571 100.477C148.122 101.553 147.871 102.274 148.21 103.339C148.549 104.405 149.642 104.652 150.91 104.243C168.677 98.5085 182.136 89.0941 182.136 77.7C182.082 62.2281 156.694 50.2745 124.55 50.2745Z" fill="white"/>
<path d="M136.979 94.6904L127.861 99.8549V130.605H137.613C138.519 130.605 139.254 129.882 139.254 128.991V95.8524C139.271 95.3149 138.973 94.8154 138.488 94.5675C138.003 94.3197 137.416 94.3675 136.979 94.6904Z" fill="white"/>
<path d="M117.981 106.654V129.592C117.981 130.187 118.47 130.668 119.074 130.668H125.339V101.317L119.085 104.846C118.392 105.187 117.962 105.891 117.981 106.654Z" fill="white"/>
</g>
<defs>
<clipPath id="clip0_360_695">
<rect width="256" height="256" fill="white"/>
</clipPath>
</defs>
</svg>
