<svg width="256" height="256" viewBox="0 0 256 256" fill="none" xmlns="http://www.w3.org/2000/svg">
<g clip-path="url(#clip0_248_4450)">
<path d="M196 0H60C26.8629 0 0 26.8629 0 60V196C0 229.137 26.8629 256 60 256H196C229.137 256 256 229.137 256 196V60C256 26.8629 229.137 0 196 0Z" fill="#593389"/>
<path d="M228.913 128.457H164.987V146.722H208.822C202.429 174.119 182.337 196.95 155.854 206.082L50.8311 101.059C61.79 69.0959 92.8402 46.2648 128.457 46.2648C155.854 46.2648 180.511 59.9635 196.037 80.968L209.735 69.0959C191.47 44.4383 162.246 28 128.457 28C80.968 28 40.7854 61.79 30.7398 106.539L151.287 227.087C195.124 216.128 228.913 175.945 228.913 128.457ZM28 129.37C28 154.941 38.0457 179.598 57.2237 198.776C76.4018 217.954 101.972 228 126.63 228L28 129.37Z" fill="white"/>
</g>
<defs>
<clipPath id="clip0_248_4450">
<rect width="256" height="256" fill="white"/>
</clipPath>
</defs>
</svg>
