<svg width="256" height="256" viewBox="0 0 256 256" fill="none" xmlns="http://www.w3.org/2000/svg">
<g clip-path="url(#clip0_248_4453)">
<rect width="256" height="256" rx="60" fill="#242938"/>
<path d="M206.571 128H156.571V142.286H190.857C188.403 152.88 183.322 162.686 176.082 170.799C168.842 178.913 159.676 185.074 149.429 188.714L67.2857 106.571C71.723 94.0209 79.947 83.1573 90.8224 75.4806C101.698 67.8039 114.688 63.6926 128 63.7143C138.32 63.7858 148.479 66.2791 157.66 70.9934C166.84 75.7078 174.786 82.5116 180.857 90.8572L191.571 81.5715C182.659 69.3951 170.426 60.0447 156.338 54.6393C142.25 49.2338 126.903 48.0022 112.133 51.0918C97.3626 54.1814 83.7956 61.4615 73.0553 72.0607C62.315 82.6599 54.8562 96.1294 51.5714 110.857L145.857 205.143C163.08 200.802 178.379 190.878 189.364 176.921C200.348 162.964 206.4 145.76 206.571 128ZM49.4286 128.714C49.4505 138.826 51.4825 148.833 55.4065 158.152C59.3305 167.472 65.0681 175.918 72.2857 183C86.672 197.46 106.175 205.672 126.571 205.857L49.4286 128.714Z" fill="white"/>
<path d="M128 28C108.222 28 88.8879 33.8649 72.443 44.853C55.9981 55.8412 43.1809 71.459 35.6121 89.7316C28.0433 108.004 26.063 128.111 29.9215 147.509C33.78 166.907 43.3041 184.725 57.2894 198.711C71.2746 212.696 89.0929 222.22 108.491 226.078C127.889 229.937 147.996 227.957 166.268 220.388C184.541 212.819 200.159 200.002 211.147 183.557C222.135 167.112 228 147.778 228 128C227.925 101.502 217.365 76.1099 198.627 57.3726C179.89 38.6353 154.498 28.0754 128 28ZM72.2857 183.714C57.8258 169.328 49.6141 149.825 49.4286 129.429L127.286 206.571C106.716 206.207 87.0549 198.036 72.2857 183.714ZM145.143 204.429L51.5715 110.857C54.8562 96.1293 62.315 82.6598 73.0553 72.0606C83.7957 61.4614 97.3626 54.1814 112.133 51.0918C126.903 48.0021 142.25 49.2337 156.338 54.6392C170.426 60.0447 182.659 69.3951 191.571 81.5714L180.857 90.8571C174.786 82.5115 166.84 75.7077 157.66 70.9934C148.479 66.279 138.32 63.7858 128 63.7143C114.713 63.7957 101.769 67.9474 90.9139 75.6101C80.0584 83.2729 71.812 94.0785 67.2858 106.571L149.429 188.714C159.676 185.074 168.842 178.913 176.082 170.799C183.322 162.685 188.403 152.88 190.857 142.286H156.571V128H206.571C206.476 145.807 200.351 163.056 189.196 176.935C178.041 190.815 162.512 200.506 145.143 204.429Z" fill="#593389"/>
</g>
<defs>
<clipPath id="clip0_248_4453">
<rect width="256" height="256" fill="white"/>
</clipPath>
</defs>
</svg>
