<svg width="256" height="256" viewBox="0 0 256 256" fill="none" xmlns="http://www.w3.org/2000/svg">
<g clip-path="url(#clip0_365_204)">
<rect width="256" height="256" rx="60" fill="white"/>
<path d="M133.747 164.038C118.759 164.038 104.331 159.986 91.5841 151.162C82.6994 145.014 72.4165 131.132 72.4165 107.597C72.4165 63.9352 94.7194 48 139.539 48H220.231L228 72.8685H145.688C116.106 72.8685 98.5167 75.1753 98.5167 107.597C98.5167 118.306 101.537 125.928 107.753 130.894C118.258 139.288 138.677 139.645 151.154 138.442C151.154 138.442 156.273 121.981 157.116 119.309C158.103 116.177 157.671 115.43 154.59 115.43C150.14 115.43 142.141 115.43 133.651 115.43C127.701 115.43 121.856 112.435 121.856 105.243C121.856 98.297 127.294 94.2652 134.749 94.2652C147.657 94.2652 174.242 94.2652 179.218 94.2652C185.741 94.2652 192.398 95.2005 189.002 105.527L171.015 160.077C171.015 160.077 156.321 164.038 133.747 164.038Z" fill="black"/>
<path d="M184.123 173.298C175.057 179.646 161.629 183.154 138.844 183.154C99.572 183.154 70.8296 169.042 59.1109 141.684C53.5704 128.753 54.1036 114.097 54.1036 94.2761H28.0047C28.0047 115.177 27.6451 131.565 33.2366 146.66C47.8987 186.256 85.6557 207.53 136.377 207.53C185.472 207.53 205.817 193.53 219.08 173.298H184.123Z" fill="black"/>
</g>
<defs>
<clipPath id="clip0_365_204">
<rect width="256" height="256" fill="white"/>
</clipPath>
</defs>
</svg>
