<svg width="256" height="256" viewBox="0 0 256 256" fill="none" xmlns="http://www.w3.org/2000/svg">
<g clip-path="url(#clip0_381_828)">
<rect width="256" height="256" rx="60" fill="#242938"/>
<rect x="137" y="114" width="96" height="25" fill="white"/>
<path d="M18 107V147.305H238V107H18ZM161.084 132.863C159.405 135.214 156.55 136.557 153.191 136.557C147.313 136.557 143.282 132.695 143.282 126.817C143.282 120.939 147.313 117.076 153.191 117.076C156.214 117.076 158.733 118.084 160.412 119.931L160.58 120.099L158.229 122.45L158.061 122.282C156.718 121.107 155.038 120.435 153.191 120.435C149.664 120.435 147.145 122.954 147.145 126.817C147.145 130.679 149.664 133.198 153.191 133.198C154.87 133.198 156.382 132.695 157.389 131.687V128.496H153.023V125.305H161.252V132.863H161.084ZM180.229 120.939H169.649V125.305H179.557V128.664H169.649V136.389H165.786V117.58H180.397V120.939H180.229ZM196.351 120.939H191.145V136.389H187.282V120.939H182.244V117.58H196.351V120.939ZM227.252 136.389H208.611V117.58H227.252V136.389Z" fill="#213E7F"/>
</g>
<defs>
<clipPath id="clip0_381_828">
<rect width="256" height="256" fill="white"/>
</clipPath>
</defs>
</svg>
