<svg width="256" height="256" viewBox="0 0 256 256" fill="none" xmlns="http://www.w3.org/2000/svg">
<g clip-path="url(#clip0_381_834)">
<rect width="256" height="256" rx="60" fill="white"/>
<path d="M18 108V148.305H238V108H18ZM161.084 133.863C159.405 136.214 156.55 137.557 153.191 137.557C147.313 137.557 143.282 133.695 143.282 127.817C143.282 121.939 147.313 118.076 153.191 118.076C156.214 118.076 158.733 119.084 160.412 120.931L160.58 121.099L158.229 123.45L158.061 123.282C156.718 122.107 155.038 121.435 153.191 121.435C149.664 121.435 147.145 123.954 147.145 127.817C147.145 131.679 149.664 134.198 153.191 134.198C154.87 134.198 156.382 133.695 157.389 132.687V129.496H153.023V126.305H161.252V133.863H161.084ZM180.229 121.939H169.649V126.305H179.557V129.664H169.649V137.389H165.786V118.58H180.397V121.939H180.229ZM196.351 121.939H191.145V137.389H187.282V121.939H182.244V118.58H196.351V121.939ZM227.252 137.389H208.611V118.58H227.252V137.389Z" fill="#213E7F"/>
</g>
<defs>
<clipPath id="clip0_381_834">
<rect width="256" height="256" fill="white"/>
</clipPath>
</defs>
</svg>
