<svg width="256" height="256" viewBox="0 0 256 256" fill="none" xmlns="http://www.w3.org/2000/svg">
<g clip-path="url(#clip0_381_822)">
<path fill-rule="evenodd" clip-rule="evenodd" d="M256.013 203.509C256.013 232.385 232.389 256.009 203.513 256.009H52.5124C23.6368 256.009 0.0126953 232.385 0.0126953 203.509V52.5085C0.0126953 23.6329 23.6368 0.00878906 52.5124 0.00878906H203.513C232.389 0.00878906 256.013 23.6329 256.013 52.5085V203.509Z" fill="#213E7F"/>
<path d="M70.4 143.086C66.4 148.759 59.6 152 51.6 152C37.6 152 28 142.681 28 128.5C28 114.319 37.6 105 51.6 105C58.8 105 64.8 107.431 68.8 111.888L69.2 112.293L63.6 117.966L63.2 117.56C60 114.724 56 113.103 51.6 113.103C43.2 113.103 37.2 119.181 37.2 128.5C37.2 137.819 43.2 143.897 51.6 143.897C55.6 143.897 59.2 142.681 61.6 140.25V132.552H51.2V124.853H70.8V143.086H70.4ZM116 114.319H90.8V124.853H114.4V132.957H90.8V151.595H81.6V106.216H116.4V114.319H116ZM154.4 114.319H142V151.595H132.8V114.319H120.8V106.216H154.4V114.319ZM228 151.595H183.6V106.216H228V151.595Z" fill="white"/>
</g>
<defs>
<clipPath id="clip0_381_822">
<rect width="256" height="256" fill="white"/>
</clipPath>
</defs>
</svg>
