<svg width="256" height="256" viewBox="0 0 256 256" fill="none" xmlns="http://www.w3.org/2000/svg">
<g clip-path="url(#clip0_248_1958)">
<rect width="256" height="256" rx="60" fill="#242938"/>
<path d="M220.83 108.73L220.56 108.04L194.42 39.8203C193.888 38.4832 192.946 37.349 191.73 36.5803C190.513 35.8247 189.093 35.4608 187.662 35.5377C186.232 35.6146 184.859 36.1286 183.73 37.0103C182.613 37.9174 181.803 39.1465 181.41 40.5303L163.76 94.5303H92.2899L74.6399 40.5303C74.2571 39.1389 73.4453 37.9037 72.3199 37.0003C71.1907 36.1186 69.8181 35.6046 68.3875 35.5277C66.9569 35.4508 65.5371 35.8147 64.3199 36.5703C63.1062 37.3421 62.1653 38.4754 61.6299 39.8103L35.4399 108L35.1799 108.69C31.4169 118.522 30.9525 129.311 33.8565 139.43C36.7606 149.549 42.8757 158.45 51.2799 164.79L51.3699 164.86L51.6099 165.03L91.4299 194.85L111.13 209.76L123.13 218.82C124.534 219.886 126.248 220.463 128.01 220.463C129.772 220.463 131.486 219.886 132.89 218.82L144.89 209.76L164.59 194.85L204.65 164.85L204.75 164.77C213.135 158.429 219.236 149.537 222.136 139.432C225.035 129.327 224.577 118.553 220.83 108.73Z" fill="#E24329"/>
<path d="M220.83 108.731L220.56 108.041C207.823 110.655 195.82 116.05 185.41 123.841L128 167.251C147.55 182.041 164.57 194.891 164.57 194.891L204.63 164.891L204.73 164.811C213.127 158.469 219.238 149.572 222.141 139.458C225.045 129.344 224.585 118.56 220.83 108.731Z" fill="#FC6D26"/>
<path d="M91.4299 194.891L111.13 209.8L123.13 218.86C124.534 219.926 126.248 220.503 128.01 220.503C129.772 220.503 131.486 219.926 132.89 218.86L144.89 209.8L164.59 194.891C164.59 194.891 147.55 182 128 167.25C108.45 182 91.4299 194.891 91.4299 194.891Z" fill="#FCA326"/>
<path d="M70.5799 123.84C60.1778 116.034 48.1779 110.625 35.4399 108L35.1799 108.69C31.4169 118.523 30.9525 129.311 33.8565 139.431C36.7606 149.55 42.8757 158.45 51.2799 164.79L51.3699 164.86L51.6099 165.03L91.4299 194.85C91.4299 194.85 108.43 182 128 167.21L70.5799 123.84Z" fill="#FC6D26"/>
</g>
<defs>
<clipPath id="clip0_248_1958">
<rect width="256" height="256" fill="white"/>
</clipPath>
</defs>
</svg>
