<svg width="256" height="256" viewBox="0 0 256 256" fill="none" xmlns="http://www.w3.org/2000/svg">
<g clip-path="url(#clip0_248_2642)">
<path d="M196 0H60C26.8629 0 0 26.8629 0 60V196C0 229.137 26.8629 256 60 256H196C229.137 256 256 229.137 256 196V60C256 26.8629 229.137 0 196 0Z" fill="#478CBF"/>
<path d="M40.2195 109.501V151.539V156.879V161.738C40.3165 161.739 40.4134 161.742 40.5094 161.751L72.9812 164.839C74.6822 165.001 76.0152 166.35 76.1336 168.032L77.1348 182.168L105.46 184.161L107.411 171.114C107.664 169.422 109.136 168.169 110.871 168.169H145.13C146.863 168.169 148.336 169.422 148.588 171.114L150.539 184.161L178.865 182.168L179.866 168.032C179.985 166.35 181.317 165.001 183.018 164.839L215.478 161.751C215.574 161.742 215.67 161.739 215.766 161.738V157.57L215.78 157.565V109.501H215.9C220.202 104.086 224.182 98.3803 228 92.2932C222.93 83.7819 216.718 76.1756 210.079 69.1285C203.921 72.1854 197.94 75.6483 192.291 79.3333C189.464 76.5623 186.28 74.2955 183.153 71.9261C180.08 69.4922 176.618 67.7077 173.334 65.6285C174.311 58.4469 174.794 51.3769 174.989 43.998C166.515 39.7919 157.478 37.0031 148.337 35C144.688 41.0491 141.351 47.5998 138.444 54.0037C134.998 53.4357 131.535 53.2251 128.068 53.1844V53.1791C128.043 53.1791 128.021 53.1844 128 53.1844C127.979 53.1844 127.957 53.1791 127.935 53.1791V53.1844C124.461 53.2251 121.001 53.4357 117.554 54.0037C114.649 47.5998 111.313 41.0491 107.658 35C98.522 37.0031 89.4845 39.7919 81.0113 43.998C81.2051 51.3769 81.6886 58.4469 82.6692 65.6285C79.3786 67.7077 75.9201 69.4922 72.8467 71.9261C69.7238 74.2955 66.5346 76.5623 63.7068 79.3333C58.0578 75.6483 52.0785 72.1854 45.9189 69.1285C39.2794 76.1756 33.0713 83.7819 28 92.2932C31.8155 98.3803 35.7986 104.086 40.0993 109.501H40.2195Z" fill="white"/>
<path d="M186.636 171.423L185.63 185.635C185.509 187.349 184.127 188.711 182.391 188.835L147.802 191.269C147.718 191.275 147.634 191.277 147.55 191.277C145.831 191.277 144.349 190.033 144.095 188.331L142.111 175.065H113.889L111.905 188.331C111.639 190.116 110.02 191.401 108.198 191.269L73.6095 188.835C71.8726 188.711 70.4911 187.349 70.37 185.635L69.3643 171.423L40.166 168.647C40.1795 171.742 40.2199 175.133 40.2199 175.808C40.2199 206.22 79.3384 220.838 127.941 221.006H128H128.059C176.662 220.838 215.766 206.22 215.766 175.808C215.766 175.12 215.809 171.744 215.823 168.647L186.636 171.423Z" fill="white"/>
<path d="M101.538 130.706C101.538 141.368 92.7773 150.007 81.9689 150.007C71.1659 150.007 62.4028 141.368 62.4028 130.706C62.4028 120.05 71.1659 111.416 81.9689 111.416C92.7773 111.416 101.538 120.05 101.538 130.706Z" fill="#478CBF"/>
<path d="M96.8287 131.85C96.8287 138.923 91.0163 144.655 83.8394 144.655C76.6661 144.655 70.8501 138.923 70.8501 131.85C70.8501 124.777 76.6661 119.04 83.8394 119.04C91.0163 119.04 96.8287 124.777 96.8287 131.85Z" fill="white"/>
<path d="M127.999 151.762C124.519 151.762 121.7 149.233 121.7 146.116V128.35C121.7 125.235 124.519 122.704 127.999 122.704C131.477 122.704 134.303 125.235 134.303 128.35V146.116C134.303 149.233 131.477 151.762 127.999 151.762Z" fill="#478CBF"/>
<path d="M154.462 130.706C154.462 141.368 163.223 150.007 174.033 150.007C184.835 150.007 193.598 141.368 193.598 130.706C193.598 120.05 184.835 111.416 174.033 111.416C163.223 111.416 154.462 120.05 154.462 130.706Z" fill="#478CBF"/>
<path d="M159.172 131.85C159.172 138.923 164.983 144.655 172.155 144.655C179.333 144.655 185.144 138.923 185.144 131.85C185.144 124.777 179.333 119.04 172.155 119.04C164.983 119.04 159.172 124.777 159.172 131.85Z" fill="white"/>
</g>
<defs>
<clipPath id="clip0_248_2642">
<rect width="256" height="256" fill="white"/>
</clipPath>
</defs>
</svg>
