<svg width="256" height="256" viewBox="0 0 256 256" fill="none" xmlns="http://www.w3.org/2000/svg">
<g clip-path="url(#clip0_389_90)">
<rect width="256" height="256" rx="60" fill="white"/>
<mask id="mask0_389_90" style="mask-type:luminance" maskUnits="userSpaceOnUse" x="55" y="28" width="146" height="200">
<path d="M145.909 28H68.6364C61.1364 28 55 34.1364 55 41.6364V214.364C55 221.864 61.1364 228 68.6364 228H186.818C194.318 228 200.455 221.864 200.455 214.364V82.5455L145.909 28Z" fill="white"/>
</mask>
<g mask="url(#mask0_389_90)">
<path d="M145.909 28H68.6364C61.1364 28 55 34.1364 55 41.6364V214.364C55 221.864 61.1364 228 68.6364 228H186.818C194.318 228 200.455 221.864 200.455 214.364V82.5455L168.636 59.8182L145.909 28Z" fill="#F4B400"/>
</g>
<mask id="mask1_389_90" style="mask-type:luminance" maskUnits="userSpaceOnUse" x="55" y="28" width="146" height="200">
<path d="M145.909 28H68.6364C61.1364 28 55 34.1364 55 41.6364V214.364C55 221.864 61.1364 228 68.6364 228H186.818C194.318 228 200.455 221.864 200.455 214.364V82.5455L145.909 28Z" fill="white"/>
</mask>
<g mask="url(#mask1_389_90)">
<path d="M157.273 118.91H98.1824C94.4324 118.91 91.3643 121.978 91.3643 125.728V184.819C91.3643 188.569 94.4324 191.637 98.1824 191.637H157.273C161.023 191.637 164.092 188.569 164.092 184.819V125.728C164.092 121.978 161.023 118.91 157.273 118.91ZM155.001 171.182H100.455V139.364H155.001V171.182Z" fill="#F1F1F1"/>
</g>
<mask id="mask2_389_90" style="mask-type:luminance" maskUnits="userSpaceOnUse" x="55" y="28" width="146" height="200">
<path d="M145.909 28H68.6364C61.1364 28 55 34.1364 55 41.6364V214.364C55 221.864 61.1364 228 68.6364 228H186.818C194.318 228 200.455 221.864 200.455 214.364V82.5455L145.909 28Z" fill="white"/>
</mask>
<g mask="url(#mask2_389_90)">
<path d="M149.898 78.5571L200.455 129.103V82.5458L149.898 78.5571Z" fill="url(#paint0_linear_389_90)"/>
</g>
<mask id="mask3_389_90" style="mask-type:luminance" maskUnits="userSpaceOnUse" x="55" y="28" width="146" height="200">
<path d="M145.909 28H68.6364C61.1364 28 55 34.1364 55 41.6364V214.364C55 221.864 61.1364 228 68.6364 228H186.818C194.318 228 200.455 221.864 200.455 214.364V82.5455L145.909 28Z" fill="white"/>
</mask>
<g mask="url(#mask3_389_90)">
<path d="M145.91 28V68.9091C145.91 76.4432 152.012 82.5455 159.546 82.5455H200.455L145.91 28Z" fill="#FADA80"/>
</g>
<mask id="mask4_389_90" style="mask-type:luminance" maskUnits="userSpaceOnUse" x="55" y="28" width="146" height="200">
<path d="M145.909 28H68.6364C61.1364 28 55 34.1364 55 41.6364V214.364C55 221.864 61.1364 228 68.6364 228H186.818C194.318 228 200.455 221.864 200.455 214.364V82.5455L145.909 28Z" fill="white"/>
</mask>
<g mask="url(#mask4_389_90)">
<path d="M145.91 28V29.1364L199.319 82.5455H200.455L145.91 28Z" fill="white" fill-opacity="0.1"/>
</g>
<mask id="mask5_389_90" style="mask-type:luminance" maskUnits="userSpaceOnUse" x="55" y="28" width="146" height="200">
<path d="M145.909 28H68.6364C61.1364 28 55 34.1364 55 41.6364V214.364C55 221.864 61.1364 228 68.6364 228H186.818C194.318 228 200.455 221.864 200.455 214.364V82.5455L145.909 28Z" fill="white"/>
</mask>
<g mask="url(#mask5_389_90)">
<path d="M68.6364 28C61.1364 28 55 34.1364 55 41.6364V42.7727C55 35.2727 61.1364 29.1364 68.6364 29.1364H145.909V28H68.6364Z" fill="white" fill-opacity="0.2"/>
</g>
<mask id="mask6_389_90" style="mask-type:luminance" maskUnits="userSpaceOnUse" x="55" y="28" width="146" height="200">
<path d="M145.909 28H68.6364C61.1364 28 55 34.1364 55 41.6364V214.364C55 221.864 61.1364 228 68.6364 228H186.818C194.318 228 200.455 221.864 200.455 214.364V82.5455L145.909 28Z" fill="white"/>
</mask>
<g mask="url(#mask6_389_90)">
<path d="M186.818 226.863H68.6364C61.1364 226.863 55 220.727 55 213.227V214.363C55 221.863 61.1364 227.999 68.6364 227.999H186.818C194.318 227.999 200.455 221.863 200.455 214.363V213.227C200.455 220.727 194.318 226.863 186.818 226.863Z" fill="#BF360C" fill-opacity="0.2"/>
</g>
<mask id="mask7_389_90" style="mask-type:luminance" maskUnits="userSpaceOnUse" x="55" y="28" width="146" height="200">
<path d="M145.909 28H68.6364C61.1364 28 55 34.1364 55 41.6364V214.364C55 221.864 61.1364 228 68.6364 228H186.818C194.318 228 200.455 221.864 200.455 214.364V82.5455L145.909 28Z" fill="white"/>
</mask>
<g mask="url(#mask7_389_90)">
<path d="M159.546 82.5455C152.012 82.5455 145.91 76.4433 145.91 68.9092V70.0455C145.91 77.5796 152.012 83.6819 159.546 83.6819H200.455V82.5455H159.546Z" fill="#BF360C" fill-opacity="0.1"/>
<path d="M145.909 28H68.6364C61.1364 28 55 34.1364 55 41.6364V214.364C55 221.864 61.1364 228 68.6364 228H186.818C194.318 228 200.455 221.864 200.455 214.364V82.5455L145.909 28Z" fill="url(#paint1_radial_389_90)"/>
</g>
</g>
<defs>
<linearGradient id="paint0_linear_389_90" x1="2678.01" y1="512.546" x2="2678.01" y2="5133.81" gradientUnits="userSpaceOnUse">
<stop stop-color="#BF360C" stop-opacity="0.2"/>
<stop offset="1" stop-color="#BF360C" stop-opacity="0.02"/>
</linearGradient>
<radialGradient id="paint1_radial_389_90" cx="0" cy="0" r="1" gradientUnits="userSpaceOnUse" gradientTransform="translate(515.807 423.288) scale(23454.3 23454.3)">
<stop stop-color="white" stop-opacity="0.1"/>
<stop offset="1" stop-color="white" stop-opacity="0"/>
</radialGradient>
<clipPath id="clip0_389_90">
<rect width="256" height="256" fill="white"/>
</clipPath>
</defs>
</svg>
