<svg width="256" height="256" viewBox="0 0 256 256" fill="none" xmlns="http://www.w3.org/2000/svg">
<g clip-path="url(#clip0_392_406)">
<path d="M196 0H60C26.8629 0 0 26.8629 0 60V196C0 229.137 26.8629 256 60 256H196C229.137 256 256 229.137 256 196V60C256 26.8629 229.137 0 196 0Z" fill="white"/>
<path d="M186.818 228H68.6364C61.0909 228 55 221.909 55 214.364V41.6364C55 34.0909 61.0909 28 68.6364 28H150.455L200.455 78V214.364C200.455 221.909 194.364 228 186.818 228Z" fill="#FFBA00"/>
<path d="M150.454 28L200.454 78H150.454V28Z" fill="#FF9500"/>
<path d="M143.636 162.091V173.454H111.818V162.091H143.636ZM127.682 96.1822L128.125 96.1856C144.217 96.447 157.182 109.572 157.182 125.727C157.182 136.273 151.659 145.5 143.363 150.727H112C103.682 145.5 98.1816 136.273 98.1816 125.727C98.1816 109.409 111.409 96.1816 127.727 96.1816L127.682 96.1822Z" fill="white"/>
</g>
<defs>
<clipPath id="clip0_392_406">
<rect width="256" height="256" fill="white"/>
</clipPath>
</defs>
</svg>
