<svg width="256" height="256" viewBox="0 0 256 256" fill="none" xmlns="http://www.w3.org/2000/svg">
<g clip-path="url(#clip0_392_358)">
<path d="M196 0H60C26.8629 0 0 26.8629 0 60V196C0 229.137 26.8629 256 60 256H196C229.137 256 256 229.137 256 196V60C256 26.8629 229.137 0 196 0Z" fill="white"/>
<path d="M43.1203 192.151L51.9406 207.386C53.7734 210.593 56.4078 213.114 59.5008 214.946C68.3596 203.701 74.5263 195.072 78.0008 189.058C81.5268 182.956 85.8604 173.41 91.0016 160.421C77.1453 158.598 66.6453 157.686 59.5016 157.686C52.6448 157.686 42.1443 158.598 28 160.421C28 163.972 28.9164 167.523 30.7492 170.731L43.1203 192.151Z" fill="#0066DA"/>
<path d="M196.501 214.946C199.595 213.114 202.229 210.593 204.061 207.386L207.727 201.086L225.254 170.731C227.052 167.593 228 164.039 228.002 160.421C213.775 158.598 203.294 157.686 196.559 157.686C189.32 157.686 178.839 158.598 165.115 160.421C170.195 173.481 174.472 183.027 177.945 189.058C181.447 195.143 187.632 203.773 196.501 214.946Z" fill="#EA4335"/>
<path d="M128.001 96.2742C138.251 83.895 145.315 74.3495 149.192 67.6375C152.315 62.2328 155.752 53.6034 159.502 41.7492C156.409 39.9164 152.858 39 149.192 39H106.809C103.144 39 99.5938 40.0313 96.5 41.7492C101.271 55.3445 105.319 65.0201 108.644 70.7758C112.319 77.1367 118.771 85.6362 128.001 96.2742Z" fill="#00832D"/>
<path d="M165 160.422H91.002L59.502 214.947C62.5941 216.78 66.1449 217.696 69.8105 217.696H186.192C189.857 217.696 193.409 216.665 196.501 214.946L165 160.422Z" fill="#2684FC"/>
<path d="M128.001 96.2742L96.5008 41.75C93.407 43.5828 90.7727 46.1023 88.9398 49.3102L30.7492 150.112C28.9502 153.251 28.0025 156.805 28 160.422H91.0016L128.001 96.2742Z" fill="#00AC47"/>
<path d="M196.158 99.7107L167.062 49.3092C165.23 46.1014 162.595 43.5818 159.502 41.749L128.002 96.274L165 160.422H227.888C227.888 156.87 226.971 153.32 225.139 150.112L196.158 99.7107Z" fill="#FFBA00"/>
</g>
<defs>
<clipPath id="clip0_392_358">
<rect width="256" height="256" fill="white"/>
</clipPath>
</defs>
</svg>
