<svg width="256" height="256" viewBox="0 0 256 256" fill="none" xmlns="http://www.w3.org/2000/svg">
<g clip-path="url(#clip0_392_368)">
<rect width="256" height="256" rx="60" fill="white"/>
<path d="M42.1203 193.151L50.9406 208.386C52.7734 211.593 55.4078 214.114 58.5008 215.946C67.3596 204.701 73.5263 196.072 77.0008 190.058C80.5268 183.956 84.8604 174.41 90.0016 161.421C76.1453 159.598 65.6453 158.686 58.5016 158.686C51.6448 158.686 41.1443 159.598 27 161.421C27 164.972 27.9164 168.523 29.7492 171.731L42.1203 193.151Z" fill="#0066DA"/>
<path d="M195.501 215.946C198.595 214.114 201.229 211.593 203.061 208.386L206.727 202.086L224.254 171.731C226.052 168.593 227 165.039 227.002 161.421C212.775 159.598 202.294 158.686 195.559 158.686C188.32 158.686 177.839 159.598 164.115 161.421C169.195 174.481 173.472 184.027 176.945 190.058C180.447 196.143 186.632 204.773 195.501 215.946Z" fill="#EA4335"/>
<path d="M127.001 97.2742C137.251 84.895 144.315 75.3495 148.192 68.6375C151.315 63.2328 154.752 54.6034 158.502 42.7492C155.409 40.9164 151.858 40 148.192 40H105.809C102.144 40 98.5938 41.0313 95.5 42.7492C100.271 56.3445 104.319 66.0201 107.644 71.7758C111.319 78.1367 117.771 86.6362 127.001 97.2742Z" fill="#00832D"/>
<path d="M164 161.422H90.002L58.502 215.947C61.5941 217.78 65.1449 218.696 68.8105 218.696H185.192C188.857 218.696 192.409 217.665 195.501 215.946L164 161.422Z" fill="#2684FC"/>
<path d="M127.001 97.2742L95.5008 42.75C92.407 44.5828 89.7727 47.1023 87.9398 50.3102L29.7492 151.112C27.9502 154.251 27.0025 157.805 27 161.422H90.0016L127.001 97.2742Z" fill="#00AC47"/>
<path d="M195.158 100.711L166.062 50.3092C164.23 47.1014 161.595 44.5818 158.502 42.749L127.002 97.274L164 161.422H226.888C226.888 157.87 225.971 154.32 224.139 151.112L195.158 100.711Z" fill="#FFBA00"/>
</g>
<defs>
<clipPath id="clip0_392_368">
<rect width="256" height="256" fill="white"/>
</clipPath>
</defs>
</svg>
