<svg width="256" height="256" viewBox="0 0 256 256" fill="none" xmlns="http://www.w3.org/2000/svg">
<g clip-path="url(#clip0_389_610)">
<rect width="256" height="256" rx="60" fill="white"/>
<mask id="mask0_389_610" style="mask-type:luminance" maskUnits="userSpaceOnUse" x="54" y="27" width="147" height="201">
<path d="M145.743 27.9585H68.4699C60.9699 27.9585 54.8335 34.0949 54.8335 41.5949V214.322C54.8335 221.822 60.9699 227.958 68.4699 227.958H186.652C194.152 227.958 200.288 221.822 200.288 214.322V82.5039L145.743 27.9585Z" fill="white"/>
</mask>
<g mask="url(#mask0_389_610)">
<path d="M145.743 27.9585H68.4699C60.9699 27.9585 54.8335 34.0949 54.8335 41.5949V214.322C54.8335 221.822 60.9699 227.958 68.4699 227.958H186.652C194.152 227.958 200.288 221.822 200.288 214.322V82.5039L168.47 59.7767L145.743 27.9585Z" fill="#0F9D58"/>
</g>
<mask id="mask1_389_610" style="mask-type:luminance" maskUnits="userSpaceOnUse" x="54" y="27" width="147" height="201">
<path d="M145.743 27.9585H68.4699C60.9699 27.9585 54.8335 34.0949 54.8335 41.5949V214.322C54.8335 221.822 60.9699 227.958 68.4699 227.958H186.652C194.152 227.958 200.288 221.822 200.288 214.322V82.5039L145.743 27.9585Z" fill="white"/>
</mask>
<g mask="url(#mask1_389_610)">
<path d="M91.1978 125.686V191.595H163.925V125.686H91.1978ZM123.016 182.504H100.289V171.141H123.016V182.504ZM123.016 164.322H100.289V152.959H123.016V164.322ZM123.016 146.141H100.289V134.777H123.016V146.141ZM154.834 182.504H132.107V171.141H154.834V182.504ZM154.834 164.322H132.107V152.959H154.834V164.322ZM154.834 146.141H132.107V134.777H154.834V146.141Z" fill="#F1F1F1"/>
</g>
<mask id="mask2_389_610" style="mask-type:luminance" maskUnits="userSpaceOnUse" x="54" y="27" width="147" height="201">
<path d="M145.743 27.9585H68.4699C60.9699 27.9585 54.8335 34.0949 54.8335 41.5949V214.322C54.8335 221.822 60.9699 227.958 68.4699 227.958H186.652C194.152 227.958 200.288 221.822 200.288 214.322V82.5039L145.743 27.9585Z" fill="white"/>
</mask>
<g mask="url(#mask2_389_610)">
<path d="M149.731 78.5156L200.288 129.061V82.5043L149.731 78.5156Z" fill="url(#paint0_linear_389_610)"/>
</g>
<mask id="mask3_389_610" style="mask-type:luminance" maskUnits="userSpaceOnUse" x="54" y="27" width="147" height="201">
<path d="M145.743 27.9585H68.4699C60.9699 27.9585 54.8335 34.0949 54.8335 41.5949V214.322C54.8335 221.822 60.9699 227.958 68.4699 227.958H186.652C194.152 227.958 200.288 221.822 200.288 214.322V82.5039L145.743 27.9585Z" fill="white"/>
</mask>
<g mask="url(#mask3_389_610)">
<path d="M145.743 27.9585V68.8676C145.743 76.4017 151.845 82.5039 159.38 82.5039H200.289L145.743 27.9585Z" fill="#87CEAC"/>
</g>
<mask id="mask4_389_610" style="mask-type:luminance" maskUnits="userSpaceOnUse" x="54" y="27" width="147" height="201">
<path d="M145.743 27.9585H68.4699C60.9699 27.9585 54.8335 34.0949 54.8335 41.5949V214.322C54.8335 221.822 60.9699 227.958 68.4699 227.958H186.652C194.152 227.958 200.288 221.822 200.288 214.322V82.5039L145.743 27.9585Z" fill="white"/>
</mask>
<g mask="url(#mask4_389_610)">
<path d="M68.4699 27.9585C60.9699 27.9585 54.8335 34.0949 54.8335 41.5949V42.7312C54.8335 35.2312 60.9699 29.0949 68.4699 29.0949H145.743V27.9585H68.4699Z" fill="white" fill-opacity="0.2"/>
</g>
<mask id="mask5_389_610" style="mask-type:luminance" maskUnits="userSpaceOnUse" x="54" y="27" width="147" height="201">
<path d="M145.743 27.9585H68.4699C60.9699 27.9585 54.8335 34.0949 54.8335 41.5949V214.322C54.8335 221.822 60.9699 227.958 68.4699 227.958H186.652C194.152 227.958 200.288 221.822 200.288 214.322V82.5039L145.743 27.9585Z" fill="white"/>
</mask>
<g mask="url(#mask5_389_610)">
<path d="M186.652 226.821H68.4699C60.9699 226.821 54.8335 220.685 54.8335 213.185V214.321C54.8335 221.821 60.9699 227.958 68.4699 227.958H186.652C194.152 227.958 200.288 221.821 200.288 214.321V213.185C200.288 220.685 194.152 226.821 186.652 226.821Z" fill="#263238" fill-opacity="0.2"/>
</g>
<mask id="mask6_389_610" style="mask-type:luminance" maskUnits="userSpaceOnUse" x="54" y="27" width="147" height="201">
<path d="M145.743 27.9585H68.4699C60.9699 27.9585 54.8335 34.0949 54.8335 41.5949V214.322C54.8335 221.822 60.9699 227.958 68.4699 227.958H186.652C194.152 227.958 200.288 221.822 200.288 214.322V82.5039L145.743 27.9585Z" fill="white"/>
</mask>
<g mask="url(#mask6_389_610)">
<path d="M159.38 82.504C151.845 82.504 145.743 76.4018 145.743 68.8677V70.004C145.743 77.5381 151.845 83.6404 159.38 83.6404H200.289V82.504H159.38Z" fill="#263238" fill-opacity="0.1"/>
</g>
<path d="M145.743 27.9585H68.4699C60.9699 27.9585 54.8335 34.0949 54.8335 41.5949V214.322C54.8335 221.822 60.9699 227.958 68.4699 227.958H186.652C194.152 227.958 200.288 221.822 200.288 214.322V82.5039L145.743 27.9585Z" fill="url(#paint1_radial_389_610)"/>
</g>
<defs>
<linearGradient id="paint0_linear_389_610" x1="2677.84" y1="512.504" x2="2677.84" y2="5133.77" gradientUnits="userSpaceOnUse">
<stop stop-color="#263238" stop-opacity="0.2"/>
<stop offset="1" stop-color="#263238" stop-opacity="0.02"/>
</linearGradient>
<radialGradient id="paint1_radial_389_610" cx="0" cy="0" r="1" gradientUnits="userSpaceOnUse" gradientTransform="translate(515.641 423.246) scale(23454.3 23454.3)">
<stop stop-color="white" stop-opacity="0.1"/>
<stop offset="1" stop-color="white" stop-opacity="0"/>
</radialGradient>
<clipPath id="clip0_389_610">
<rect width="256" height="256" fill="white"/>
</clipPath>
</defs>
</svg>
