<svg width="256" height="256" viewBox="0 0 256 256" fill="none" xmlns="http://www.w3.org/2000/svg">
<g clip-path="url(#clip0_392_424)">
<rect width="256" height="256" rx="60" fill="white"/>
<path d="M185.818 229H67.6364C60.0909 229 54 222.909 54 215.364V42.6364C54 35.0909 60.0909 29 67.6364 29H149.455L199.455 79V215.364C199.455 222.909 193.364 229 185.818 229Z" fill="#FFBA00"/>
<path d="M149.454 29L199.454 79H149.454V29Z" fill="#FF9500"/>
<path d="M142.636 163.091V174.454H110.818V163.091H142.636ZM126.682 97.1822L127.125 97.1856C143.217 97.447 156.182 110.572 156.182 126.727C156.182 137.273 150.659 146.5 142.363 151.727H111C102.682 146.5 97.1816 137.273 97.1816 126.727C97.1816 110.409 110.409 97.1816 126.727 97.1816L126.682 97.1822Z" fill="white"/>
</g>
<defs>
<clipPath id="clip0_392_424">
<rect width="256" height="256" fill="white"/>
</clipPath>
</defs>
</svg>
