<svg width="256" height="256" viewBox="0 0 256 256" fill="none" xmlns="http://www.w3.org/2000/svg">
<g clip-path="url(#clip0_248_3606)">
<rect width="256" height="256" rx="60" fill="#242938"/>
<path d="M217.622 63.2934C205.539 51.2001 186.04 50.8731 173.558 62.5544C172.957 63.1073 172.614 63.8857 172.61 64.7022C172.593 65.5222 172.91 66.3141 173.488 66.8962L177.483 70.8915C178.549 71.9519 180.23 72.07 181.433 71.1687C184.566 68.8046 188.386 67.5311 192.31 67.5428C202.348 67.5426 210.486 75.68 210.486 85.7181C210.486 90.5331 208.576 95.1514 205.175 98.5591C180.07 123.802 146.375 53.2703 70.1393 89.5521C64.9569 91.9594 62.7071 98.112 65.1144 103.294C65.2385 103.561 65.3739 103.823 65.5203 104.079L78.5919 126.689C81.43 131.583 87.668 133.3 92.6105 130.545L92.9338 130.361L92.6798 130.545L98.4765 127.289C104.943 123.284 111.054 118.733 116.745 113.686C117.901 112.608 119.676 112.549 120.902 113.548C122.177 114.587 122.369 116.464 121.329 117.739C121.202 117.896 121.058 118.039 120.902 118.167C114.964 123.514 108.574 128.336 101.802 132.578L101.594 132.693L95.7976 135.926C93.3541 137.311 90.5922 138.036 87.7837 138.028C81.8604 138.043 76.3779 134.901 73.3956 129.783L61.0168 108.444C37.2755 125.21 22.8643 157.521 30.601 198.397C30.8781 199.823 32.1284 200.85 33.5803 200.846H47.6449C49.2039 200.906 50.5488 199.761 50.7397 198.213C52.2136 186.906 62.5748 178.934 73.882 180.408C83.1679 181.619 90.4763 188.928 91.6867 198.213C91.8708 199.7 93.1221 200.822 94.6197 200.846H108.338C109.858 200.847 111.143 199.72 111.34 198.213C112.764 186.912 123.079 178.905 134.379 180.328C143.726 181.506 151.087 188.866 152.264 198.213C152.451 199.717 153.728 200.846 155.244 200.846H168.8C170.44 200.846 171.777 199.53 171.802 197.89C172.126 178.768 177.276 156.804 191.987 145.811C242.773 107.751 229.4 75.1179 217.622 63.2934ZM165.728 120.869V120.846L156.029 115.973C156.016 112.605 158.736 109.865 162.103 109.853C165.47 109.841 168.21 112.56 168.223 115.927C168.23 117.879 167.303 119.716 165.728 120.869Z" fill="url(#paint0_linear_248_3606)"/>
</g>
<defs>
<linearGradient id="paint0_linear_248_3606" x1="67.9936" y1="66.6401" x2="177.427" y2="192.341" gradientUnits="userSpaceOnUse">
<stop stop-color="#209BC4"/>
<stop offset="1" stop-color="#4DC9C0"/>
</linearGradient>
<clipPath id="clip0_248_3606">
<rect width="256" height="256" fill="white"/>
</clipPath>
</defs>
</svg>
