<svg width="256" height="256" viewBox="0 0 256 256" fill="none" xmlns="http://www.w3.org/2000/svg">
<g clip-path="url(#clip0_248_3603)">
<path d="M196 0H60C26.8629 0 0 26.8629 0 60V196C0 229.137 26.8629 256 60 256H196C229.137 256 256 229.137 256 196V60C256 26.8629 229.137 0 196 0Z" fill="url(#paint0_linear_248_3603)"/>
<path d="M217.122 64.2894C205.039 52.1962 185.54 51.8691 173.058 63.5505C172.457 64.1034 172.114 64.8818 172.11 65.6983C172.093 66.5183 172.41 67.3102 172.988 67.8923L176.983 71.8876C178.049 72.948 179.73 73.0661 180.933 72.1648C184.066 69.8007 187.886 68.5272 191.81 68.5389C201.848 68.5387 209.986 76.6761 209.986 86.7142C209.986 91.5292 208.076 96.1475 204.675 99.5552C179.57 124.798 145.875 54.2664 69.6393 90.5482C64.4569 92.9555 62.2071 99.1081 64.6144 104.291C64.7385 104.558 64.8739 104.819 65.0203 105.075L78.0919 127.685C80.93 132.579 87.168 134.296 92.1105 131.542L92.4338 131.357L92.1798 131.542L97.9765 128.285C104.443 124.28 110.554 119.729 116.245 114.682C117.401 113.604 119.176 113.545 120.402 114.544C121.677 115.583 121.869 117.46 120.829 118.735C120.702 118.892 120.558 119.035 120.402 119.163C114.464 124.51 108.074 129.332 101.302 133.574L101.094 133.689L95.2976 136.923C92.8541 138.307 90.0922 139.032 87.2837 139.024C81.3604 139.039 75.8779 135.897 72.8956 130.779L60.5168 109.44C36.7755 126.207 22.3643 158.517 30.101 199.394C30.3781 200.819 31.6284 201.846 33.0803 201.842H47.1449C48.7039 201.902 50.0488 200.757 50.2397 199.209C51.7136 187.902 62.0748 179.93 73.382 181.404C82.6679 182.615 89.9763 189.924 91.1867 199.209C91.3708 200.696 92.6221 201.818 94.1197 201.842H107.838C109.358 201.843 110.643 200.716 110.84 199.209C112.264 187.908 122.579 179.901 133.879 181.324C143.226 182.502 150.587 189.862 151.764 199.209C151.951 200.713 153.228 201.842 154.744 201.842H168.3C169.94 201.842 171.277 200.526 171.302 198.886C171.626 179.764 176.776 157.8 191.487 146.807C242.273 108.747 228.9 76.114 217.122 64.2894ZM165.228 121.865V121.842L155.529 116.969C155.516 113.601 158.236 110.862 161.603 110.849C164.97 110.837 167.71 113.556 167.723 116.923C167.73 118.875 166.803 120.712 165.228 121.865Z" fill="white"/>
</g>
<defs>
<linearGradient id="paint0_linear_248_3603" x1="0" y1="128" x2="256" y2="128" gradientUnits="userSpaceOnUse">
<stop stop-color="#28A4C3"/>
<stop offset="1" stop-color="#45C1C1"/>
</linearGradient>
<clipPath id="clip0_248_3603">
<rect width="256" height="256" fill="white"/>
</clipPath>
</defs>
</svg>
