<svg width="256" height="256" viewBox="0 0 256 256" fill="none" xmlns="http://www.w3.org/2000/svg">
<g clip-path="url(#clip0_248_3625)">
<rect width="256" height="256" rx="60" fill="white"/>
<path d="M152.483 221.971L154.401 189.996L159.7 180.952C159.7 180.952 147.64 185.885 127.452 185.885C107.262 185.885 95.3855 181.043 95.3855 181.043L101.324 190.909L103.425 221.971C103.425 225.301 114.406 228 127.954 228C141.5 228 152.483 225.301 152.483 221.971ZM146.429 72.6555L150.457 56.7356L172.761 33.2663L166.883 28.2593L143.269 53.2598L138.593 72.2799C135.073 72.162 131.552 72.1035 128.03 72.1042C103.161 72.1042 83 74.9386 83 78.434C83 81.9298 103.161 84.7638 128.03 84.7638C152.899 84.7638 173.06 81.9298 173.06 78.434C173.06 75.8599 162.125 73.6444 146.429 72.6555Z" fill="#D34A47"/>
<path d="M144.087 81.5708C144.087 81.5708 143.215 81.7663 140.648 81.7772C138.082 81.7879 136.26 81.7607 135.534 81.0994C135.338 80.922 135.232 80.5694 135.233 80.3308C135.235 79.8764 135.557 79.6088 135.968 79.4411L136.357 80.0507C136.188 80.1091 136.091 80.1781 136.091 80.2516C136.089 80.5967 138.716 80.8329 140.724 80.8074C142.732 80.7826 145.159 80.6171 145.161 80.2771C145.161 80.1741 144.978 80.0772 144.658 80.0009L145.046 79.3955C145.566 79.5571 146.02 79.8693 146.019 80.4096C146.015 81.3282 144.846 81.4679 144.087 81.5708Z" fill="#D34A47"/>
<path d="M172.717 33.313C173.278 32.6653 172.427 31.0084 170.816 29.6128C169.205 28.2179 167.445 27.6119 166.883 28.2596C166.322 28.9074 167.173 30.5643 168.785 31.9592C170.395 33.3544 172.156 33.9611 172.717 33.313ZM151.41 143.871C150.881 138.785 162.534 131.419 159.544 131.184C153.105 131.551 149.901 138.728 146.662 146.245C145.475 148.999 141.414 160.745 138.75 159.3C136.086 157.855 142.203 148.195 143.916 142.458C141.938 143.908 134.685 149.545 132.815 144.266C129.81 146.819 123.388 148.202 124.113 141.497C122.514 144.329 118.925 148.283 114.618 146.64C108.961 144.483 117.895 126.464 120.117 127.373C122.339 128.282 119.669 132.386 118.969 133.98C117.431 137.488 115.655 141.898 116.842 142.801C118.875 144.347 124.408 136.95 124.532 136.787C125.566 135.42 128.515 126.475 130.892 127.502C133.268 128.529 124.964 140.34 128.069 142.684C128.695 143.157 131.257 142.392 132.815 140.705C133.824 139.615 133.477 137.199 136.838 129.183C140.2 121.166 143.196 111.184 145.501 111.945C147.806 112.705 145.906 117.828 145.079 119.738C141.198 128.703 134.487 143.514 137.653 142.392C140.817 141.271 142.465 141.205 145.565 137.579C148.664 133.952 148.521 127.978 150.586 128.105C152.653 128.233 152.306 130.148 151.805 131.606C153.838 129.28 161.442 124.38 163.278 129.233C165.453 134.978 152.398 143.277 155.654 142.854C158.826 142.441 163.967 139.185 166.163 136.225L172.205 81.9056C172.205 81.9056 166.125 86.9369 127.445 86.9369C88.7655 86.9369 83.3147 82.0102 83.3147 82.0102L88.4586 131.591C91.1889 123.831 97.6725 108.135 107.893 108.661C112.541 108.901 118.747 117.853 113.431 118.156C111.181 118.284 110.953 113.688 108.288 113.013C106.365 112.525 103.688 114.089 101.958 115.783C98.5081 119.159 91.0874 132.482 92.0679 139.124C93.3172 147.592 103.753 136.181 105.519 132.794C106.763 130.407 107.603 123.337 110.322 124.079C113.043 124.821 110.085 132.117 108.114 138.568C105.898 145.812 104.735 153.453 101.958 152.575C99.182 151.695 103.705 142.345 103.541 140.705C100.931 143.114 96.1238 149.208 89.9737 146.192L93.1682 176.981C93.1682 176.981 101.659 183.689 127.235 183.689C152.813 183.689 161.617 177.085 161.617 177.085L165.585 141.425C162.339 144.585 152.067 150.196 151.41 143.871Z" fill="#D34A47"/>
</g>
<defs>
<clipPath id="clip0_248_3625">
<rect width="256" height="256" fill="white"/>
</clipPath>
</defs>
</svg>
