<svg width="256" height="256" viewBox="0 0 256 256" fill="none" xmlns="http://www.w3.org/2000/svg">
<g clip-path="url(#clip0_392_475)">
<rect width="256" height="256" rx="60" fill="#242938"/>
<path fill-rule="evenodd" clip-rule="evenodd" d="M225.622 208.677C223.622 204.262 219.014 202.127 216.01 204.262C213.007 206.4 208.842 206.725 204.89 205.767C200.93 204.805 200.177 195.743 201.032 185.28C201.887 174.82 203.305 170.793 204.2 166.996C205.21 163.186 209.677 163.486 210.212 166.473C210.75 169.463 213.847 169.463 218.377 164.026C222.904 158.588 222.234 142.726 217.012 129.816C211.792 116.909 219.054 118.164 221.162 119.444C223.272 120.726 224.567 118.806 224.052 111.444C223.542 104.082 216.762 98.3266 211.312 94.8017C205.852 91.2767 199.207 87.3843 199.362 77.9394C199.52 68.4971 212.362 68.7946 214.105 68.9496C215.847 69.1071 219.197 68.3671 217.265 58.5572C215.332 48.7474 208.327 46.8749 203.935 47.1399C199.54 47.4049 196.577 49.8174 190.367 47.4724C184.158 45.1274 180.028 46.0424 174.243 47.3299C168.46 48.6174 160.885 52.1798 151.463 54.7273C146.491 56.0898 144.811 56.4348 139.393 56.5223C136.068 56.5723 134.681 60.6047 139.128 65.5471C142.648 69.5671 150.621 70.637 155.415 69.9671C158.505 69.5321 159.218 71.5795 158.933 74.592C158.493 78.3179 158.472 82.0814 158.873 85.8118C159.368 89.5617 159.998 95.9391 158.228 100.094C157.353 102.137 154.825 104.327 152.106 104.177C148.573 103.967 145.718 99.8016 143.263 94.8617C138.113 84.4818 132.063 82.2794 109.491 72.7745C89.1915 64.2321 78.2017 50.9024 71.3918 42.3125C65.3394 34.7076 59.277 37.5876 59.827 44.45C60.2745 49.7699 63.5269 66.9696 71.7793 77.3019C81.9241 93.0867 97.5789 100.244 115.614 101.649C120.326 102.022 123.276 102.949 123.676 105.107C124.266 109.694 119.784 112.881 111.431 111.911C103.079 110.936 99.5114 112.461 101.174 117.214C106.481 128.406 118.726 128.894 123.818 129.356C125.533 129.661 131.603 129.356 134.843 130.244C138.618 131.289 139.433 136.529 133.961 139.363C124.231 144.121 119.986 148.061 115.059 157.051C111.344 164.116 108.134 175.938 111.471 192.963C114.679 209.512 90.6165 210.037 80.2292 207.687C75.7467 206.745 71.0418 198.243 82.0191 191.125C90.9015 185.363 92.6915 181.815 92.2965 174.52C91.8365 166.021 87.1516 165.411 87.1641 158.026V140.401C87.1641 138.896 85.9441 137.681 84.4466 137.681H76.1117C75.391 137.681 74.6998 137.395 74.1902 136.885C73.6806 136.375 73.3943 135.684 73.3943 134.964V124.339C73.3943 122.834 72.1743 121.621 70.6743 121.621H62.382C62.0249 121.621 61.6713 121.551 61.3415 121.414C61.0116 121.277 60.7119 121.077 60.4595 120.824C60.2072 120.572 60.0071 120.272 59.8706 119.942C59.7342 119.612 59.6642 119.258 59.6645 118.901V109.376C59.6645 107.871 58.442 106.659 56.9445 106.659H46.8447C46.4872 106.66 46.1331 106.59 45.8027 106.453C45.4722 106.317 45.172 106.117 44.9191 105.864C44.6661 105.611 44.4656 105.311 44.3289 104.981C44.1921 104.651 44.1219 104.297 44.1222 103.939V93.9292C44.1222 92.4242 42.9023 91.2092 41.4048 91.2092H30.72C29.2125 91.2067 28 92.4292 28 93.9292V104.579C28 106.084 29.22 107.296 30.72 107.296H40.8423C42.3473 107.296 43.5598 108.519 43.5598 110.016V147.996C43.5598 149.501 44.7822 150.713 46.2797 150.713H56.972C58.477 150.713 59.692 151.936 59.692 153.433V165.853C59.692 167.358 60.912 168.57 62.4095 168.57H77.4217C82.0116 168.245 82.8116 174.408 82.7641 176.605C82.6641 181.623 76.9942 183.235 74.3093 185.323C67.1569 190.848 61.617 196.47 64.8594 207.275L64.9394 207.5C70.8443 220.042 87.0766 218.747 97.3289 218.747H161.87C165.518 218.747 169.268 219.595 168.405 215.342C167.55 211.092 165.748 205.282 160.5 205.282C155.25 205.282 156.105 208.197 150.976 206.707C145.841 205.215 145.833 198.28 153.543 186.213C161.518 175.908 175.173 176.688 183.423 183.975C191.675 191.263 189.235 203.92 187.505 211.187C186.515 216.307 188.867 218.837 191.68 218.767H224.447C229.484 218.68 228.497 215.29 225.607 208.68H225.627L225.622 208.677Z" fill="white"/>
</g>
<defs>
<clipPath id="clip0_392_475">
<rect width="256" height="256" fill="white"/>
</clipPath>
</defs>
</svg>
