<svg width="256" height="256" viewBox="0 0 256 256" fill="none" xmlns="http://www.w3.org/2000/svg">
<g clip-path="url(#clip0_392_481)">
<rect width="256" height="256" rx="60" fill="white"/>
<path fill-rule="evenodd" clip-rule="evenodd" d="M224.622 209.677C222.622 205.262 218.014 203.127 215.01 205.262C212.007 207.4 207.842 207.725 203.89 206.767C199.93 205.805 199.177 196.743 200.032 186.28C200.887 175.82 202.305 171.793 203.2 167.996C204.21 164.186 208.677 164.486 209.212 167.473C209.75 170.463 212.847 170.463 217.377 165.026C221.904 159.588 221.234 143.726 216.012 130.816C210.792 117.909 218.054 119.164 220.162 120.444C222.272 121.726 223.567 119.806 223.052 112.444C222.542 105.082 215.762 99.3266 210.312 95.8017C204.852 92.2767 198.207 88.3843 198.362 78.9394C198.52 69.4971 211.362 69.7946 213.105 69.9496C214.847 70.1071 218.197 69.3671 216.265 59.5572C214.332 49.7474 207.327 47.8749 202.935 48.1399C198.54 48.4049 195.577 50.8174 189.367 48.4724C183.158 46.1274 179.028 47.0424 173.243 48.3299C167.46 49.6174 159.885 53.1798 150.463 55.7273C145.491 57.0898 143.811 57.4348 138.393 57.5223C135.068 57.5723 133.681 61.6047 138.128 66.5471C141.648 70.5671 149.621 71.637 154.415 70.9671C157.505 70.5321 158.218 72.5795 157.933 75.592C157.493 79.3179 157.472 83.0814 157.873 86.8118C158.368 90.5617 158.998 96.9391 157.228 101.094C156.353 103.137 153.825 105.327 151.106 105.177C147.573 104.967 144.718 100.802 142.263 95.8617C137.113 85.4818 131.063 83.2794 108.491 73.7745C88.1915 65.2321 77.2017 51.9024 70.3918 43.3125C64.3394 35.7076 58.277 38.5876 58.827 45.45C59.2745 50.7699 62.5269 67.9696 70.7793 78.3019C80.9241 94.0867 96.5789 101.244 114.614 102.649C119.326 103.022 122.276 103.949 122.676 106.107C123.266 110.694 118.784 113.881 110.431 112.911C102.079 111.936 98.5114 113.461 100.174 118.214C105.481 129.406 117.726 129.894 122.818 130.356C124.533 130.661 130.603 130.356 133.843 131.244C137.618 132.289 138.433 137.529 132.961 140.363C123.231 145.121 118.986 149.061 114.059 158.051C110.344 165.116 107.134 176.938 110.471 193.963C113.679 210.512 89.6165 211.037 79.2292 208.687C74.7467 207.745 70.0418 199.243 81.0191 192.125C89.9015 186.363 91.6915 182.815 91.2965 175.52C90.8365 167.021 86.1516 166.411 86.1641 159.026V141.401C86.1641 139.896 84.9441 138.681 83.4466 138.681H75.1117C74.391 138.681 73.6998 138.395 73.1902 137.885C72.6806 137.375 72.3943 136.684 72.3943 135.964V125.339C72.3943 123.834 71.1743 122.621 69.6743 122.621H61.382C61.0249 122.621 60.6713 122.551 60.3415 122.414C60.0116 122.277 59.7119 122.077 59.4595 121.824C59.2072 121.572 59.0071 121.272 58.8706 120.942C58.7342 120.612 58.6642 120.258 58.6645 119.901V110.376C58.6645 108.871 57.442 107.659 55.9445 107.659H45.8447C45.4872 107.66 45.1331 107.59 44.8027 107.453C44.4722 107.317 44.172 107.117 43.9191 106.864C43.6661 106.611 43.4656 106.311 43.3289 105.981C43.1921 105.651 43.1219 105.297 43.1222 104.939V94.9292C43.1222 93.4242 41.9023 92.2092 40.4048 92.2092H29.72C28.2125 92.2067 27 93.4292 27 94.9292V105.579C27 107.084 28.22 108.296 29.72 108.296H39.8423C41.3473 108.296 42.5598 109.519 42.5598 111.016V148.996C42.5598 150.501 43.7822 151.713 45.2797 151.713H55.972C57.477 151.713 58.692 152.936 58.692 154.433V166.853C58.692 168.358 59.912 169.57 61.4095 169.57H76.4217C81.0116 169.245 81.8116 175.408 81.7641 177.605C81.6641 182.623 75.9942 184.235 73.3093 186.323C66.1569 191.848 60.617 197.47 63.8594 208.275L63.9394 208.5C69.8443 221.042 86.0766 219.747 96.3289 219.747H160.87C164.518 219.747 168.268 220.595 167.405 216.342C166.55 212.092 164.748 206.282 159.5 206.282C154.25 206.282 155.105 209.197 149.976 207.707C144.841 206.215 144.833 199.28 152.543 187.213C160.518 176.908 174.173 177.688 182.423 184.975C190.675 192.263 188.235 204.92 186.505 212.187C185.515 217.307 187.867 219.837 190.68 219.767H223.447C228.484 219.68 227.497 216.29 224.607 209.68H224.627L224.622 209.677Z" fill="#432874"/>
</g>
<defs>
<clipPath id="clip0_392_481">
<rect width="256" height="256" fill="white"/>
</clipPath>
</defs>
</svg>
