<svg width="256" height="256" viewBox="0 0 256 256" fill="none" xmlns="http://www.w3.org/2000/svg">
<g clip-path="url(#clip0_248_5557)">
<path d="M196 0H60C26.8629 0 0 26.8629 0 60V196C0 229.137 26.8629 256 60 256H196C229.137 256 256 229.137 256 196V60C256 26.8629 229.137 0 196 0Z" fill="#4A3A74"/>
<path d="M28 198.176L75.0593 127.588L28 57H63.2944L110.354 127.588L63.2944 198.176H28Z" fill="white"/>
<path d="M75.0595 198.176L122.119 127.588L75.0595 57H110.354L204.471 198.176H169.176L139.766 154.059L110.353 198.176H75.0595Z" fill="white"/>
<path d="M188.785 157L173.099 133.468L228 133.466V156.997H188.784L188.785 157ZM165.256 121.706L149.569 98.1735L228 98.1719V121.702H165.251L165.256 121.706Z" fill="white"/>
</g>
<defs>
<clipPath id="clip0_248_5557">
<rect width="256" height="256" fill="white"/>
</clipPath>
</defs>
</svg>
