<svg width="256" height="256" viewBox="0 0 256 256" fill="none" xmlns="http://www.w3.org/2000/svg">
<g clip-path="url(#clip0_248_2675)">
<path d="M196 0H60C26.8629 0 0 26.8629 0 60V196C0 229.137 26.8629 256 60 256H196C229.137 256 256 229.137 256 196V60C256 26.8629 229.137 0 196 0Z" fill="url(#paint0_linear_248_2675)"/>
<path d="M127.998 53.0005L71.0428 46.6926L28 28H77.9974L127.998 53.0038" fill="white"/>
<path d="M127.999 53.0005L186.259 47.9969L227.997 28H177.995L127.999 53.0038" fill="white"/>
<path d="M127.999 202.999L182.345 204.956L227.997 228H177.995L127.999 202.995" fill="white"/>
<path d="M127.998 202.999H73.2167L28 228H77.9974L127.998 202.995" fill="white"/>
<path d="M52.9987 128.001V180.608L28 228V178.001L52.9987 128.001Z" fill="white"/>
<path d="M52.9987 128.001L48.8691 75.8234L28 28V77.9986L52.9987 128.001Z" fill="white"/>
<path d="M202.994 128.001L208.431 73.2147L227.997 28V77.9986L202.994 128.001Z" fill="white"/>
<path d="M202.994 128.001L207.562 186.695L227.997 228V178.001L202.994 128.001Z" fill="white"/>
<path d="M28 28L127.998 53.0005L111.912 116.694L52.9987 128.001L28 28.0053" fill="white"/>
<path d="M227.997 28L202.994 128.001L135.824 115.821L127.999 52.9974L227.997 28.0053" fill="white"/>
<path d="M227.997 228L127.999 202.999L139.303 136.699L202.994 128.006L227.997 227.993" fill="white"/>
<path d="M28 228L52.9987 128L113.216 141.477L127.998 202.999L28 227.993" fill="white"/>
<path d="M127.998 53.0007L52.9985 128.001L127.998 203L202.993 128.001L127.998 53.0041" fill="white"/>
</g>
<defs>
<linearGradient id="paint0_linear_248_2675" x1="0" y1="119.5" x2="256" y2="119.5" gradientUnits="userSpaceOnUse">
<stop stop-color="#FFF200"/>
<stop offset="1" stop-color="#F1471D"/>
</linearGradient>
<clipPath id="clip0_248_2675">
<rect width="256" height="256" fill="white"/>
</clipPath>
</defs>
</svg>
