<svg width="256" height="256" viewBox="0 0 256 256" fill="none" xmlns="http://www.w3.org/2000/svg">
<g clip-path="url(#clip0_248_2691)">
<rect width="256" height="256" rx="60" fill="#242938"/>
<path d="M127.998 53.0005L71.0428 46.6926L28 28H77.9974L127.998 53.0038" fill="#FBC707"/>
<path d="M127.999 53.0005L186.259 47.9969L227.997 28H177.995L127.999 53.0038" fill="#FBC707"/>
<path d="M127.999 202.999L182.345 204.956L227.997 228H177.995L127.999 202.995" fill="#F68712"/>
<path d="M127.998 202.999H73.2167L28 228H77.9974L127.998 202.995" fill="#F25C19"/>
<path d="M52.9987 128.001V180.608L28 228V178.001L52.9987 128.001Z" fill="#FFF200"/>
<path d="M52.9987 128.001L48.8691 75.8234L28 28V77.9986L52.9987 128.001Z" fill="#FFF200"/>
<path d="M202.994 128.001L208.431 73.2147L227.997 28V77.9986L202.994 128.001Z" fill="#F1471D"/>
<path d="M202.994 128.001L207.562 186.695L227.997 228V178.001L202.994 128.001Z" fill="#F1471D"/>
<path d="M28 28L127.998 53.0005L111.912 116.694L52.9987 128.001L28 28.0053" fill="#FAB20B"/>
<path d="M227.997 28L202.994 128.001L135.824 115.821L127.999 52.9974L227.997 28.0053" fill="#F47216"/>
<path d="M227.997 228L127.999 202.999L139.303 136.699L202.994 128.006L227.997 227.993" fill="#F25C19"/>
<path d="M28 228L52.9987 128L113.216 141.477L127.998 202.999L28 227.993" fill="#F89C0E"/>
<path d="M127.998 53.0007L52.9985 128.001L127.998 203L202.993 128.001L127.998 53.0041" fill="#F68712"/>
</g>
<defs>
<clipPath id="clip0_248_2691">
<rect width="256" height="256" fill="white"/>
</clipPath>
</defs>
</svg>
