<svg width="256" height="256" viewBox="0 0 256 256" fill="none" xmlns="http://www.w3.org/2000/svg">
<g clip-path="url(#clip0_365_768)">
<rect width="256" height="256" rx="60" fill="white"/>
<path d="M110.133 146.042H109.318L109.558 146.09H109.845L110.133 146.042ZM223.318 126.595C221.785 127.457 220.54 128.702 219.582 130.331C218.656 131.96 218.177 133.939 218.145 136.27C218.177 138.601 218.656 140.581 219.582 142.21C220.54 143.838 221.785 145.084 223.318 145.946C224.883 146.808 226.559 147.239 228.347 147.239C230.136 147.239 231.796 146.808 233.329 145.946C234.894 145.084 236.139 143.838 237.065 142.21C238.023 140.581 238.518 138.601 238.55 136.27C238.518 133.939 238.023 131.96 237.065 130.331C236.139 128.702 234.894 127.457 233.329 126.595C231.796 125.765 230.136 125.333 228.347 125.302C226.559 125.333 224.883 125.765 223.318 126.595ZM228.347 130.331C229.625 130.363 230.583 130.906 231.221 131.96C231.892 133.013 232.227 134.45 232.227 136.27C232.227 138.123 231.892 139.575 231.221 140.629C230.583 141.683 229.625 142.21 228.347 142.21C227.07 142.21 226.112 141.683 225.473 140.629C224.835 139.575 224.515 138.123 224.515 136.27C224.515 134.45 224.835 133.013 225.473 131.96C226.112 130.906 227.07 130.363 228.347 130.331ZM65.395 152.221H64.0059L60.0303 163.477H59.9824L55.9589 152.221H54.6177V166.159H55.4799V157.011C55.4799 156.436 55.464 155.813 55.432 155.143C55.432 154.472 55.4161 153.833 55.3841 153.227H55.4799L59.5513 164.627H60.4135L64.4849 153.227H64.5807C64.5488 153.833 64.5169 154.472 64.4849 155.143C64.453 155.813 64.437 156.436 64.437 157.011V166.159H65.395V152.221ZM76.1244 153.083H82.7344V152.221H75.1664V166.159H82.9739V165.297H76.1244V159.166H81.6807V158.352H76.1244V153.083ZM41.8287 152.221H40.8228L35.9371 166.159H36.8951L38.5237 161.369H44.08L45.6606 166.159H46.7144L41.8287 152.221ZM41.3497 153.131C41.6052 153.993 41.8606 154.807 42.1161 155.574C42.3716 156.34 42.627 157.138 42.8825 157.969L43.7926 160.555H38.859L39.7212 157.969C40.0085 157.138 40.28 156.34 40.5354 155.574C40.7909 154.807 41.0304 153.993 41.2539 153.131H41.3497ZM137.914 155.813C138.329 154.887 138.92 154.169 139.686 153.658C140.453 153.147 141.363 152.891 142.417 152.891C143.183 152.891 143.822 153.019 144.333 153.275C144.843 153.562 145.275 153.897 145.626 154.28L146.201 153.658C145.945 153.402 145.642 153.147 145.291 152.891C144.971 152.636 144.572 152.428 144.093 152.269C143.614 152.077 143.055 151.981 142.417 151.981C141.203 151.981 140.133 152.269 139.207 152.843C138.281 153.45 137.563 154.28 137.052 155.334C136.541 156.42 136.285 157.697 136.285 159.166C136.285 160.667 136.525 161.944 137.004 162.998C137.515 164.084 138.217 164.914 139.112 165.489C140.006 166.096 141.043 166.399 142.225 166.399C143.151 166.399 143.965 166.255 144.668 165.968C145.37 165.68 145.929 165.297 146.344 164.818V159.31H142.129V160.124H145.434V164.483C145.083 164.802 144.636 165.058 144.093 165.249C143.55 165.441 142.959 165.537 142.321 165.537C141.267 165.505 140.357 165.233 139.591 164.722C138.856 164.211 138.281 163.477 137.866 162.519C137.483 161.561 137.291 160.443 137.291 159.166C137.291 157.889 137.499 156.771 137.914 155.813ZM156.547 152.221H155.589V166.159H156.547V152.221ZM119.138 152.221H118.132V166.159H119.042V157.538C119.042 156.835 119.026 156.164 118.994 155.526C118.962 154.887 118.93 154.233 118.898 153.562H118.994L126.418 166.159H127.424V152.221H126.514V160.795C126.514 161.465 126.53 162.136 126.562 162.806C126.594 163.477 126.626 164.148 126.658 164.818H126.562L119.138 152.221ZM109.223 153.083V152.221H101.655V166.159H109.462V165.297H102.613V159.166H108.169V158.352H102.613V153.083H109.223ZM175.611 152.221H174.7V160.795C174.7 161.465 174.716 162.136 174.748 162.806C174.78 163.477 174.812 164.148 174.844 164.818H174.748L167.324 152.221H166.318V166.159H167.228V157.538C167.228 156.835 167.212 156.164 167.18 155.526C167.148 154.887 167.116 154.233 167.085 153.562H167.18L174.605 166.159H175.611V152.221ZM192.95 153.083V152.221H185.382V166.159H193.189V165.297H186.34V159.166H191.896V158.352H186.34V153.083H192.95ZM198.985 140.581C198.315 141.284 197.963 142.21 197.931 143.359C197.963 144.477 198.315 145.403 198.985 146.138C199.688 146.84 200.598 147.207 201.715 147.239C202.801 147.207 203.695 146.84 204.398 146.138C205.068 145.403 205.42 144.477 205.452 143.359C205.42 142.21 205.068 141.284 204.398 140.581C203.695 139.847 202.801 139.464 201.715 139.432C200.598 139.464 199.688 139.847 198.985 140.581ZM215.463 125.781H209.236V146.76H215.463V125.781ZM214.936 117.159C214.265 116.584 213.403 116.281 212.349 116.249C211.295 116.281 210.433 116.584 209.763 117.159C209.124 117.734 208.789 118.5 208.757 119.458C208.789 120.448 209.124 121.23 209.763 121.805C210.433 122.412 211.295 122.715 212.349 122.715C213.403 122.715 214.265 122.412 214.936 121.805C215.574 121.23 215.91 120.448 215.941 119.458C215.91 118.5 215.574 117.734 214.936 117.159ZM21.9506 153.658C22.717 153.147 23.6271 152.891 24.6809 152.891C25.4473 152.891 26.0859 153.019 26.5968 153.275C27.1078 153.562 27.5388 153.897 27.8901 154.28L28.4649 153.658C28.2094 153.402 27.9061 153.147 27.5548 152.891C27.2355 152.636 26.8363 152.428 26.3573 152.269C25.8783 152.077 25.3195 151.981 24.6809 151.981C23.4674 151.981 22.3977 152.269 21.4716 152.843C20.5456 153.45 19.8271 154.28 19.3162 155.334C18.8053 156.42 18.5498 157.697 18.5498 159.166C18.5498 160.667 18.7893 161.944 19.2683 162.998C19.7792 164.084 20.4817 164.914 21.3758 165.489C22.27 166.096 23.3078 166.399 24.4893 166.399C25.4153 166.399 26.2296 166.255 26.9321 165.968C27.6346 165.68 28.1935 165.297 28.6086 164.818V159.31H24.3935V160.124H27.6985V164.483C27.3473 164.802 26.9002 165.058 26.3573 165.249C25.8145 165.441 25.2237 165.537 24.5851 165.537C23.5313 165.505 22.6212 165.233 21.8548 164.722C21.1204 164.211 20.5456 163.477 20.1305 162.519C19.7473 161.561 19.5557 160.443 19.5557 159.166C19.5557 157.889 19.7632 156.771 20.1784 155.813C20.5935 154.887 21.1842 154.169 21.9506 153.658ZM45.8522 121.47H28.3691V104.609H18.8851V146.808H28.3691V129.612H45.8522V146.808H55.432V104.609H45.8522V121.47ZM83.884 129.421V121.757H70.0412V112.369H84.8899V104.609H60.5572V146.808H85.8958V139.049H70.0412V129.421H83.884ZM102.181 119.123C102.309 119.059 102.501 119.027 102.756 119.027L105.055 118.883C105.215 118.532 105.455 118.404 105.774 118.5C105.838 118.181 106.093 118.069 106.54 118.165C107.051 118.26 107.355 118.308 107.45 118.308C107.195 118.117 107.051 117.941 107.019 117.781C106.923 117.494 106.971 117.286 107.163 117.159C107.291 117.095 107.514 117.143 107.833 117.302C108.312 117.494 108.791 117.67 109.27 117.829C108.983 117.702 108.807 117.462 108.744 117.111C108.744 116.887 108.839 116.728 109.031 116.632C109.127 116.568 109.27 116.552 109.462 116.584C109.622 116.648 109.813 116.76 110.037 116.919C110.165 116.983 110.356 117.111 110.612 117.302C110.803 117.43 111.139 117.606 111.618 117.829C111.841 117.957 112.128 118.181 112.48 118.5V118.548C112.607 118.676 112.735 118.787 112.863 118.883C113.182 119.202 113.342 119.394 113.342 119.458V119.506C114.3 119.761 115.258 120.128 116.216 120.607C117.844 121.502 119.186 122.539 120.239 123.721C121.229 124.87 121.868 126.196 122.155 127.696H120.479L120.383 129.086L120.239 130.81L119.473 130.331L117.317 128.942L109.797 132.582C112.16 136.51 116.216 138.554 121.964 138.713C121.229 140.086 120.271 141.332 119.09 142.449C117.653 143.854 115.96 144.86 114.012 145.467C113.693 145.563 113.374 145.659 113.054 145.754C113.054 145.946 113.054 146.122 113.054 146.281C113.054 146.537 113.039 146.792 113.007 147.048H130.49L109.749 90L88.8655 147.048H105.822C105.758 146.76 105.726 146.457 105.726 146.138C105.726 145.946 105.726 145.754 105.726 145.563C105.247 145.403 104.768 145.212 104.289 144.988C102.565 144.19 101.08 143.104 99.8344 141.731C98.589 140.39 97.6629 138.857 97.0562 137.133C96.3856 135.312 96.1302 133.444 96.2898 131.528C96.4495 129.612 96.9285 127.872 97.7268 126.307C98.3016 125.19 99.0041 124.184 99.8344 123.29C100.281 122.555 100.872 122.012 101.607 121.661L100.84 121.565C100.521 121.502 100.361 121.342 100.361 121.086C100.361 120.959 100.457 120.815 100.649 120.655C101.255 120.144 101.942 119.905 102.708 119.937C102.325 119.905 102.086 119.809 101.99 119.649C101.862 119.458 101.926 119.282 102.181 119.123ZM159.9 128.367C162.933 125.717 164.45 122.284 164.45 118.069C164.45 109.096 159.149 104.609 148.548 104.609H133.603V146.808H143.087V132.295H147.685C152.763 132.295 156.834 130.986 159.9 128.367ZM143.087 125.062V111.89H146.871C151.917 111.89 154.439 114.077 154.439 118.452C154.439 122.859 151.917 125.062 146.871 125.062H143.087ZM194.579 106.142C193.142 105.631 191.561 105.248 189.837 104.992C188.144 104.737 186.212 104.609 184.041 104.609C181.774 104.609 179.65 104.817 177.67 105.232C175.658 105.711 173.902 106.461 172.401 107.483C170.869 108.441 169.655 109.702 168.761 111.267C167.899 112.8 167.468 114.62 167.468 116.728C167.468 119.442 168.282 121.773 169.911 123.721C171.507 125.605 173.95 127.233 177.239 128.607C178.548 129.118 179.762 129.612 180.879 130.091C181.965 130.602 182.923 131.129 183.753 131.672C184.584 132.183 185.222 132.758 185.669 133.396C186.148 134.003 186.388 134.722 186.388 135.552C186.388 136.127 186.228 136.67 185.909 137.18C185.653 137.691 185.222 138.138 184.616 138.522C184.041 138.873 183.306 139.128 182.412 139.288C181.518 139.544 180.464 139.671 179.251 139.671C177.207 139.671 175.179 139.336 173.168 138.665C171.156 137.931 169.304 136.877 167.611 135.504V144.653C169.144 145.387 170.964 145.946 173.072 146.329C175.148 146.744 177.335 146.952 179.634 146.952C181.901 146.952 184.041 146.728 186.053 146.281C188.128 145.866 189.916 145.196 191.417 144.27C192.95 143.28 194.179 142.002 195.105 140.438C195.968 138.905 196.399 136.989 196.399 134.69C196.399 133.029 196.143 131.592 195.632 130.379C195.121 129.133 194.371 128.016 193.381 127.026C192.455 126.036 191.321 125.174 189.98 124.439C188.607 123.641 187.09 122.907 185.43 122.236C184.184 121.757 183.083 121.278 182.125 120.799C181.103 120.32 180.257 119.825 179.586 119.314C178.916 118.835 178.389 118.356 178.005 117.877C177.622 117.302 177.431 116.648 177.431 115.913C177.431 115.307 177.606 114.764 177.958 114.285C178.277 113.774 178.74 113.343 179.347 112.992C179.953 112.608 180.704 112.321 181.598 112.129C182.46 111.938 183.434 111.842 184.52 111.842C185.35 111.842 186.196 111.89 187.058 111.986C187.921 112.113 188.783 112.305 189.645 112.56C190.539 112.752 191.401 113.039 192.232 113.423C193.062 113.774 193.844 114.189 194.579 114.668V106.142Z" fill="url(#paint0_linear_365_768)"/>
</g>
<defs>
<linearGradient id="paint0_linear_365_768" x1="19" y1="90" x2="239" y2="166" gradientUnits="userSpaceOnUse">
<stop stop-color="#FFD57F"/>
<stop offset="1" stop-color="#BC384F"/>
</linearGradient>
<clipPath id="clip0_365_768">
<rect width="256" height="256" fill="white"/>
</clipPath>
</defs>
</svg>
