<svg width="256" height="256" viewBox="0 0 256 256" fill="none" xmlns="http://www.w3.org/2000/svg">
<g clip-path="url(#clip0_365_647)">
<path d="M196 0H60C26.8629 0 0 26.8629 0 60V196C0 229.137 26.8629 256 60 256H196C229.137 256 256 229.137 256 196V60C256 26.8629 229.137 0 196 0Z" fill="url(#paint0_linear_365_647)"/>
<path d="M109.583 146.042H108.769L109.008 146.09H109.295L109.583 146.042ZM222.768 126.595C221.235 127.457 219.99 128.702 219.032 130.331C218.106 131.96 217.627 133.939 217.595 136.27C217.627 138.601 218.106 140.581 219.032 142.21C219.99 143.838 221.235 145.084 222.768 145.946C224.333 146.808 226.009 147.239 227.798 147.239C229.586 147.239 231.246 146.808 232.779 145.946C234.344 145.084 235.589 143.838 236.515 142.21C237.473 140.581 237.968 138.601 238 136.27C237.968 133.939 237.473 131.96 236.515 130.331C235.589 128.702 234.344 127.457 232.779 126.595C231.246 125.765 229.586 125.333 227.798 125.302C226.009 125.333 224.333 125.765 222.768 126.595ZM227.798 130.331C229.075 130.363 230.033 130.906 230.671 131.96C231.342 133.013 231.677 134.45 231.677 136.27C231.677 138.123 231.342 139.575 230.671 140.629C230.033 141.683 229.075 142.21 227.798 142.21C226.52 142.21 225.562 141.683 224.924 140.629C224.285 139.575 223.966 138.123 223.966 136.27C223.966 134.45 224.285 133.013 224.924 131.96C225.562 130.906 226.52 130.363 227.798 130.331ZM64.8452 152.221H63.4561L59.4805 163.477H59.4326L55.4091 152.221H54.0679V166.159H54.9301V157.011C54.9301 156.436 54.9141 155.813 54.8822 155.143C54.8822 154.472 54.8662 153.833 54.8343 153.227H54.9301L59.0015 164.627H59.8637L63.9351 153.227H64.0309C63.999 153.833 63.9671 154.472 63.9351 155.143C63.9032 155.813 63.8872 156.436 63.8872 157.011V166.159H64.8452V152.221ZM75.5746 153.083H82.1846V152.221H74.6166V166.159H82.4241V165.297H75.5746V159.166H81.1308V158.352H75.5746V153.083ZM41.2789 152.221H40.273L35.3873 166.159H36.3453L37.9739 161.369H43.5302L45.1108 166.159H46.1646L41.2789 152.221ZM40.7999 153.131C41.0554 153.993 41.3108 154.807 41.5663 155.574C41.8218 156.34 42.0772 157.138 42.3327 157.969L43.2428 160.555H38.3092L39.1713 157.969C39.4587 157.138 39.7302 156.34 39.9856 155.574C40.2411 154.807 40.4806 153.993 40.7041 153.131H40.7999ZM137.364 155.813C137.779 154.887 138.37 154.169 139.137 153.658C139.903 153.147 140.813 152.891 141.867 152.891C142.633 152.891 143.272 153.019 143.783 153.275C144.294 153.562 144.725 153.897 145.076 154.28L145.651 153.658C145.395 153.402 145.092 153.147 144.741 152.891C144.421 152.636 144.022 152.428 143.543 152.269C143.064 152.077 142.505 151.981 141.867 151.981C140.653 151.981 139.584 152.269 138.658 152.843C137.731 153.45 137.013 154.28 136.502 155.334C135.991 156.42 135.736 157.697 135.736 159.166C135.736 160.667 135.975 161.944 136.454 162.998C136.965 164.084 137.668 164.914 138.562 165.489C139.456 166.096 140.494 166.399 141.675 166.399C142.601 166.399 143.415 166.255 144.118 165.968C144.821 165.68 145.379 165.297 145.794 164.818V159.31H141.579V160.124H144.884V164.483C144.533 164.802 144.086 165.058 143.543 165.249C143 165.441 142.41 165.537 141.771 165.537C140.717 165.505 139.807 165.233 139.041 164.722C138.306 164.211 137.731 163.477 137.316 162.519C136.933 161.561 136.742 160.443 136.742 159.166C136.742 157.889 136.949 156.771 137.364 155.813ZM155.997 152.221H155.039V166.159H155.997V152.221ZM118.588 152.221H117.582V166.159H118.492V157.538C118.492 156.835 118.476 156.164 118.444 155.526C118.412 154.887 118.38 154.233 118.348 153.562H118.444L125.868 166.159H126.874V152.221H125.964V160.795C125.964 161.465 125.98 162.136 126.012 162.806C126.044 163.477 126.076 164.148 126.108 164.818H126.012L118.588 152.221ZM108.673 153.083V152.221H101.105V166.159H108.912V165.297H102.063V159.166H107.619V158.352H102.063V153.083H108.673ZM175.061 152.221H174.151V160.795C174.151 161.465 174.167 162.136 174.199 162.806C174.23 163.477 174.262 164.148 174.294 164.818H174.199L166.774 152.221H165.768V166.159H166.678V157.538C166.678 156.835 166.662 156.164 166.631 155.526C166.599 154.887 166.567 154.233 166.535 153.562H166.631L174.055 166.159H175.061V152.221ZM192.4 153.083V152.221H184.832V166.159H192.64V165.297H185.79V159.166H191.346V158.352H185.79V153.083H192.4ZM198.435 140.581C197.765 141.284 197.414 142.21 197.382 143.359C197.414 144.477 197.765 145.403 198.435 146.138C199.138 146.84 200.048 147.207 201.166 147.239C202.251 147.207 203.146 146.84 203.848 146.138C204.519 145.403 204.87 144.477 204.902 143.359C204.87 142.21 204.519 141.284 203.848 140.581C203.146 139.847 202.251 139.464 201.166 139.432C200.048 139.464 199.138 139.847 198.435 140.581ZM214.913 125.781H208.686V146.76H214.913V125.781ZM214.386 117.159C213.715 116.584 212.853 116.281 211.799 116.249C210.745 116.281 209.883 116.584 209.213 117.159C208.574 117.734 208.239 118.5 208.207 119.458C208.239 120.448 208.574 121.23 209.213 121.805C209.883 122.412 210.745 122.715 211.799 122.715C212.853 122.715 213.715 122.412 214.386 121.805C215.024 121.23 215.36 120.448 215.392 119.458C215.36 118.5 215.024 117.734 214.386 117.159ZM21.4008 153.658C22.1672 153.147 23.0773 152.891 24.1311 152.891C24.8975 152.891 25.5361 153.019 26.047 153.275C26.558 153.562 26.989 153.897 27.3403 154.28L27.9151 153.658C27.6596 153.402 27.3563 153.147 27.005 152.891C26.6857 152.636 26.2865 152.428 25.8075 152.269C25.3285 152.077 24.7697 151.981 24.1311 151.981C22.9176 151.981 21.8479 152.269 20.9218 152.843C19.9958 153.45 19.2773 154.28 18.7664 155.334C18.2555 156.42 18 157.697 18 159.166C18 160.667 18.2395 161.944 18.7185 162.998C19.2294 164.084 19.9319 164.914 20.826 165.489C21.7202 166.096 22.758 166.399 23.9395 166.399C24.8655 166.399 25.6798 166.255 26.3823 165.968C27.0848 165.68 27.6437 165.297 28.0588 164.818V159.31H23.8437V160.124H27.1487V164.483C26.7974 164.802 26.3504 165.058 25.8075 165.249C25.2647 165.441 24.6739 165.537 24.0353 165.537C22.9815 165.505 22.0714 165.233 21.305 164.722C20.5706 164.211 19.9958 163.477 19.5807 162.519C19.1975 161.561 19.0059 160.443 19.0059 159.166C19.0059 157.889 19.2134 156.771 19.6286 155.813C20.0437 154.887 20.6344 154.169 21.4008 153.658ZM45.3024 121.47H27.8193V104.609H18.3353V146.808H27.8193V129.612H45.3024V146.808H54.8822V104.609H45.3024V121.47ZM83.3342 129.421V121.757H69.4914V112.369H84.3401V104.609H60.0074V146.808H85.346V139.049H69.4914V129.421H83.3342ZM101.632 119.123C101.759 119.059 101.951 119.027 102.206 119.027L104.506 118.883C104.665 118.532 104.905 118.404 105.224 118.5C105.288 118.181 105.543 118.069 105.99 118.165C106.501 118.26 106.805 118.308 106.9 118.308C106.645 118.117 106.501 117.941 106.469 117.781C106.374 117.494 106.422 117.286 106.613 117.159C106.741 117.095 106.964 117.143 107.284 117.302C107.763 117.494 108.242 117.67 108.721 117.829C108.433 117.702 108.258 117.462 108.194 117.111C108.194 116.887 108.29 116.728 108.481 116.632C108.577 116.568 108.721 116.552 108.912 116.584C109.072 116.648 109.264 116.76 109.487 116.919C109.615 116.983 109.806 117.111 110.062 117.302C110.253 117.43 110.589 117.606 111.068 117.829C111.291 117.957 111.579 118.181 111.93 118.5V118.548C112.058 118.676 112.185 118.787 112.313 118.883C112.632 119.202 112.792 119.394 112.792 119.458V119.506C113.75 119.761 114.708 120.128 115.666 120.607C117.295 121.502 118.636 122.539 119.69 123.721C120.679 124.87 121.318 126.196 121.605 127.696H119.929L119.833 129.086L119.69 130.81L118.923 130.331L116.768 128.942L109.248 132.582C111.611 136.51 115.666 138.554 121.414 138.713C120.679 140.086 119.721 141.332 118.54 142.449C117.103 143.854 115.411 144.86 113.463 145.467C113.143 145.563 112.824 145.659 112.505 145.754C112.505 145.946 112.505 146.122 112.505 146.281C112.505 146.537 112.489 146.792 112.457 147.048H129.94L109.2 90L88.3157 147.048H105.272C105.208 146.76 105.176 146.457 105.176 146.138C105.176 145.946 105.176 145.754 105.176 145.563C104.697 145.403 104.218 145.212 103.739 144.988C102.015 144.19 100.53 143.104 99.2846 141.731C98.0392 140.39 97.1131 138.857 96.5064 137.133C95.8358 135.312 95.5804 133.444 95.74 131.528C95.8997 129.612 96.3787 127.872 97.177 126.307C97.7518 125.19 98.4543 124.184 99.2846 123.29C99.7316 122.555 100.322 122.012 101.057 121.661L100.29 121.565C99.9711 121.502 99.8114 121.342 99.8114 121.086C99.8114 120.959 99.9072 120.815 100.099 120.655C100.706 120.144 101.392 119.905 102.159 119.937C101.775 119.905 101.536 119.809 101.44 119.649C101.312 119.458 101.376 119.282 101.632 119.123ZM159.35 128.367C162.383 125.717 163.9 122.284 163.9 118.069C163.9 109.096 158.599 104.609 147.998 104.609H133.053V146.808H142.537V132.295H147.136C152.213 132.295 156.284 130.986 159.35 128.367ZM142.537 125.062V111.89H146.321C151.367 111.89 153.889 114.077 153.889 118.452C153.889 122.859 151.367 125.062 146.321 125.062H142.537ZM194.029 106.142C192.592 105.631 191.011 105.248 189.287 104.992C187.594 104.737 185.662 104.609 183.491 104.609C181.224 104.609 179.1 104.817 177.12 105.232C175.109 105.711 173.352 106.461 171.852 107.483C170.319 108.441 169.105 109.702 168.211 111.267C167.349 112.8 166.918 114.62 166.918 116.728C166.918 119.442 167.732 121.773 169.361 123.721C170.957 125.605 173.4 127.233 176.689 128.607C177.999 129.118 179.212 129.612 180.33 130.091C181.415 130.602 182.373 131.129 183.204 131.672C184.034 132.183 184.672 132.758 185.12 133.396C185.599 134.003 185.838 134.722 185.838 135.552C185.838 136.127 185.678 136.67 185.359 137.18C185.104 137.691 184.672 138.138 184.066 138.522C183.491 138.873 182.757 139.128 181.862 139.288C180.968 139.544 179.915 139.671 178.701 139.671C176.657 139.671 174.63 139.336 172.618 138.665C170.606 137.931 168.754 136.877 167.062 135.504V144.653C168.594 145.387 170.415 145.946 172.522 146.329C174.598 146.744 176.785 146.952 179.084 146.952C181.351 146.952 183.491 146.728 185.503 146.281C187.578 145.866 189.367 145.196 190.867 144.27C192.4 143.28 193.63 142.002 194.556 140.438C195.418 138.905 195.849 136.989 195.849 134.69C195.849 133.029 195.593 131.592 195.083 130.379C194.572 129.133 193.821 128.016 192.831 127.026C191.905 126.036 190.772 125.174 189.43 124.439C188.057 123.641 186.541 122.907 184.88 122.236C183.635 121.757 182.533 121.278 181.575 120.799C180.553 120.32 179.707 119.825 179.036 119.314C178.366 118.835 177.839 118.356 177.456 117.877C177.073 117.302 176.881 116.648 176.881 115.913C176.881 115.307 177.057 114.764 177.408 114.285C177.727 113.774 178.19 113.343 178.797 112.992C179.404 112.608 180.154 112.321 181.048 112.129C181.91 111.938 182.884 111.842 183.97 111.842C184.8 111.842 185.646 111.89 186.509 111.986C187.371 112.113 188.233 112.305 189.095 112.56C189.989 112.752 190.851 113.039 191.682 113.423C192.512 113.774 193.294 114.189 194.029 114.668V106.142Z" fill="white"/>
</g>
<defs>
<linearGradient id="paint0_linear_365_647" x1="18" y1="18" x2="238" y2="238" gradientUnits="userSpaceOnUse">
<stop stop-color="#FFD57F"/>
<stop offset="1" stop-color="#BC384F"/>
</linearGradient>
<clipPath id="clip0_365_647">
<rect width="256" height="256" fill="white"/>
</clipPath>
</defs>
</svg>
