<svg width="256" height="256" viewBox="0 0 256 256" fill="none" xmlns="http://www.w3.org/2000/svg">
<g clip-path="url(#clip0_248_2386)">
<rect width="256" height="256" rx="60" fill="#242938"/>
<path d="M199.5 28H56C46 28 38 36 38 46V210C38 220 46 228 56 228H199.5C209.5 228 217.5 220 217.5 210V46C217.5 36 209.5 28 199.5 28ZM207.5 210C207.5 214.5 204 218 199.5 218H56C51.5 218 48 214.5 48 210V46C48 41.5 51.5 38 56 38H199.5C204 38 207.5 41.5 207.5 46V210ZM83 198L105.5 178L83 158V198ZM164 117C160 113 152.5 108 140 108C126.5 108 112.5 111.5 102.5 115V58H82.5V144.5L96.5 138C96.5 138 119.5 127.5 139.5 127.5C149.5 127.5 152 133 152 138V198H172V138C172.5 136.5 172.5 125.5 164 117ZM137.5 90.5H157.5C166.5 80 171 69.5 172.5 58H152.5C150.5 69.5 145.5 80 137.5 90.5Z" fill="white"/>
</g>
<defs>
<clipPath id="clip0_248_2386">
<rect width="256" height="256" fill="white"/>
</clipPath>
</defs>
</svg>
