<svg width="256" height="256" viewBox="0 0 256 256" fill="none" xmlns="http://www.w3.org/2000/svg">
<g clip-path="url(#clip0_248_4486)">
<path d="M196 0H60C26.8629 0 0 26.8629 0 60V196C0 229.137 26.8629 256 60 256H196C229.137 256 256 229.137 256 196V60C256 26.8629 229.137 0 196 0Z" fill="#FFF2C3"/>
<path d="M69.4624 28L107.931 94.6249L69.4437 161.343L31 94.6249L69.4624 28Z" fill="#59666C"/>
<path d="M146.412 28.0032H69.4841L107.953 94.6282H184.902L146.412 28.0032Z" fill="#BCAE79"/>
<path d="M184.862 228L146.393 161.375L184.881 94.6562L223.324 161.375L184.862 228Z" fill="#59666C"/>
<path d="M107.912 227.994H184.85L146.412 161.37H69.4218L107.912 227.994Z" fill="#BCAE79"/>
</g>
<defs>
<clipPath id="clip0_248_4486">
<rect width="256" height="256" fill="white"/>
</clipPath>
</defs>
</svg>
