<svg width="256" height="848" viewBox="0 0 256 848" fill="none" xmlns="http://www.w3.org/2000/svg">
<g clip-path="url(#clip0_208_1179)">
<path d="M196 0H60C26.8629 0 0 26.8629 0 60V196C0 229.137 26.8629 256 60 256H196C229.137 256 256 229.137 256 196V60C256 26.8629 229.137 0 196 0Z" fill="#E44F26"/>
<path d="M48 38L56.5675 134.119H166.734L163.037 175.345L127.566 184.936L92.1621 175.359L89.795 148.888H57.8901L62.4523 199.917L127.559 218L192.747 199.917L201.487 102.338H85.6384L82.7297 69.788H204.27H204.368L207.215 38H48Z" fill="white"/>
<path d="M128 38H48L56.6098 134.593H128V102.655H85.8241L82.901 69.9448H128V38Z" fill="#EBEBEB"/>
<path d="M128 185.647L127.959 185.661L92.3802 176.037L90.0014 149.435H57.939L62.5238 200.716L127.951 218.888L128 218.874V185.647Z" fill="#EBEBEB"/>
</g>
<g clip-path="url(#clip1_208_1179)">
<rect y="296" width="256" height="256" rx="60" fill="#242938"/>
<path d="M56.05 504.007L40 324H216.357L200.286 503.979L128.071 524L56.05 504.007Z" fill="#E44F26"/>
<path d="M128.178 508.7L186.535 492.522L200.264 338.722H128.178V508.7Z" fill="#F1662A"/>
<path d="M128.178 405.478H98.9641L96.9499 382.871H128.178V360.792H72.8213L73.3499 366.721L78.7713 427.556H128.178V405.478ZM128.178 462.813L128.078 462.842L103.493 456.206L101.921 438.599H79.757L82.8499 473.256L128.078 485.813L128.178 485.785V462.813Z" fill="#EBEBEB"/>
<path d="M128.1 405.478V427.556H155.286L152.729 456.192L128.1 462.835V485.806L173.364 473.256L173.693 469.528L178.879 411.406L179.422 405.478H128.1ZM128.1 360.792V382.871H181.429L181.872 377.913L182.879 366.721L183.407 360.792H128.1Z" fill="white"/>
</g>
<g clip-path="url(#clip2_208_1179)">
<rect y="592" width="256" height="256" rx="60" fill="white"/>
<path d="M56.05 800.007L40 620H216.357L200.286 799.979L128.071 820L56.05 800.007Z" fill="#E44F26"/>
<path d="M128.178 804.7L186.535 788.522L200.264 634.722H128.178V804.7Z" fill="#F1662A"/>
<path d="M128.178 701.478H98.964L96.9497 678.871H128.178V656.792H72.8212L73.3497 662.721L78.7712 723.556H128.178V701.478ZM128.178 758.813L128.078 758.842L103.493 752.206L101.921 734.599H79.7569L82.8497 769.256L128.078 781.813L128.178 781.785V758.813Z" fill="#EBEBEB"/>
<path d="M128.1 701.478V723.556H155.286L152.728 752.192L128.1 758.835V781.806L173.364 769.256L173.693 765.528L178.878 707.406L179.421 701.478H128.1ZM128.1 656.792V678.871H181.428L181.871 673.913L182.878 662.721L183.407 656.792H128.1Z" fill="white"/>
</g>
<defs>
<clipPath id="clip0_208_1179">
<rect width="256" height="256" fill="white"/>
</clipPath>
<clipPath id="clip1_208_1179">
<rect width="256" height="256" fill="white" transform="translate(0 296)"/>
</clipPath>
<clipPath id="clip2_208_1179">
<rect width="256" height="256" fill="white" transform="translate(0 592)"/>
</clipPath>
</defs>
</svg>
