<svg width="256" height="256" viewBox="0 0 256 256" fill="none" xmlns="http://www.w3.org/2000/svg">
<g clip-path="url(#clip0_248_3233)">
<path d="M196 0H60C26.8629 0 0 26.8629 0 60V196C0 229.137 26.8629 256 60 256H196C229.137 256 256 229.137 256 196V60C256 26.8629 229.137 0 196 0Z" fill="#E44F26"/>
<path d="M242 67.4375C242 37.9248 218.075 14 188.562 14H128V242H188.562C218.075 242 242 218.075 242 188.562V67.4375Z" fill="#F1662A"/>
<path d="M48 38L56.5675 134.119H166.734L163.037 175.345L127.566 184.936L92.1621 175.359L89.795 148.888H57.8901L62.4523 199.917L127.559 218L192.747 199.917L201.487 102.338H85.6384L82.7297 69.788H204.27H204.368L207.215 38H48Z" fill="white"/>
<path d="M128 38H48L56.6098 134.593H128V102.655H85.8241L82.901 69.9448H128V38Z" fill="#EBEBEB"/>
<path d="M128 185.647L127.959 185.661L92.3802 176.037L90.0014 149.435H57.939L62.5238 200.716L127.951 218.888L128 218.874V185.647Z" fill="#EBEBEB"/>
</g>
<defs>
<clipPath id="clip0_248_3233">
<rect width="256" height="256" fill="white"/>
</clipPath>
</defs>
</svg>
