<svg width="256" height="256" viewBox="0 0 256 256" fill="none" xmlns="http://www.w3.org/2000/svg">
<g clip-path="url(#clip0_248_3247)">
<rect width="256" height="256" rx="60" fill="white"/>
<path d="M56.05 208.007L40 28H216.357L200.286 207.979L128.071 228L56.05 208.007Z" fill="#E44F26"/>
<path d="M128.178 212.7L186.535 196.522L200.264 42.7217H128.178V212.7Z" fill="#F1662A"/>
<path d="M128.178 109.478H98.9641L96.9499 86.8706H128.178V64.792H72.8213L73.3499 70.7206L78.7713 131.556H128.178V109.478ZM128.178 166.813L128.078 166.842L103.493 160.206L101.921 142.599H79.757L82.8499 177.256L128.078 189.813L128.178 189.785V166.813Z" fill="#EBEBEB"/>
<path d="M128.1 109.478V131.556H155.286L152.729 160.192L128.1 166.835V189.806L173.364 177.256L173.693 173.528L178.879 115.406L179.422 109.478H128.1ZM128.1 64.792V86.8706H181.429L181.872 81.9134L182.879 70.7206L183.407 64.792H128.1Z" fill="white"/>
</g>
<defs>
<clipPath id="clip0_248_3247">
<rect width="256" height="256" fill="white"/>
</clipPath>
</defs>
</svg>
