<svg width="256" height="256" viewBox="0 0 256 256" fill="none" xmlns="http://www.w3.org/2000/svg">
<g clip-path="url(#clip0_248_878)">
<path d="M196 0H60C26.8629 0 0 26.8629 0 60V196C0 229.137 26.8629 256 60 256H196C229.137 256 256 229.137 256 196V60C256 26.8629 229.137 0 196 0Z" fill="#3D72D7"/>
<path d="M99.8921 183.172L137.716 71.2735C137.852 70.8706 138.122 70.5261 138.48 70.2964C138.837 70.0669 139.263 69.9659 139.686 70.0102L155.371 71.6161C155.65 71.6437 155.92 71.7337 156.16 71.8796C156.399 72.0255 156.604 72.2234 156.757 72.4588C156.91 72.6942 157.009 72.9611 157.045 73.2395C157.08 73.518 157.054 73.801 156.966 74.0677L120.03 184.425C119.906 184.799 119.668 185.124 119.349 185.354C119.03 185.586 118.647 185.71 118.253 185.71L101.659 185.646C101.362 185.644 101.07 185.573 100.806 185.436C100.542 185.3 100.315 185.103 100.143 184.861C99.9703 184.62 99.8579 184.34 99.814 184.047C99.7701 183.754 99.7968 183.454 99.8921 183.172Z" fill="white"/>
<path d="M53.3103 131.024C52.0542 131.516 52.0613 131.99 53.3317 132.447C66.3002 137.137 78.8048 141.537 90.8455 145.648C91.1258 145.746 91.3692 145.926 91.5434 146.166C91.7175 146.405 91.814 146.692 91.8198 146.986C91.9268 152.625 91.7805 158.306 91.3808 164.03C91.338 164.608 91.2167 165.162 91.0168 165.69C90.7599 166.353 90.303 166.549 89.6464 166.278L28.4403 140.873C28.3026 140.814 28.1866 140.714 28.108 140.587C28.0294 140.461 27.9922 140.314 28.0014 140.166L28.7936 123.54C28.8033 123.338 28.8695 123.142 28.985 122.975C29.1006 122.809 29.2605 122.678 29.4467 122.598L89.2931 96.9464C89.4428 96.8815 89.6047 96.8495 89.7682 96.8528C89.9316 96.856 90.093 96.8942 90.2417 96.9651C90.3903 97.0358 90.5228 97.1375 90.6306 97.2634C90.7383 97.3894 90.819 97.5363 90.8669 97.6959C91.1881 98.7879 91.388 99.8585 91.4665 100.908C91.859 106.261 91.9661 111.595 91.7876 116.913C91.7807 117.068 91.7283 117.218 91.6369 117.343C91.5456 117.469 91.4192 117.565 91.2737 117.62C79.6042 121.931 67.5635 126.299 55.1518 130.724C54.8448 130.831 54.5343 130.892 54.2203 130.906C53.7635 130.927 53.4602 130.967 53.3103 131.024ZM202.873 130.842L164.663 117.502C164.588 117.477 164.524 117.43 164.478 117.367C164.432 117.303 164.406 117.227 164.406 117.149C164.299 111.867 164.321 106.489 164.471 101.015C164.5 99.8156 164.699 98.699 165.07 97.6637C165.206 97.3068 165.456 97.1783 165.82 97.2783C167.033 97.6134 168.167 97.9988 169.224 98.4346C188.616 106.414 207.991 114.433 227.347 122.491C227.761 122.662 227.968 122.973 227.968 123.422L228 140.241C227.999 140.445 227.939 140.643 227.827 140.812C227.715 140.982 227.556 141.115 227.368 141.194L166.441 166.353C166.28 166.42 166.105 166.448 165.932 166.435C165.759 166.423 165.591 166.37 165.442 166.282C165.293 166.193 165.168 166.072 165.075 165.926C164.982 165.781 164.926 165.615 164.91 165.443C164.275 159.055 164.114 152.781 164.428 146.622C164.441 146.433 164.508 146.251 164.622 146.101C164.736 145.95 164.893 145.837 165.07 145.776C178.267 141.33 190.875 136.805 202.894 132.201C204.129 131.73 204.122 131.277 202.873 130.842Z" fill="#F5F5F5"/>
</g>
<defs>
<clipPath id="clip0_248_878">
<rect width="256" height="256" fill="white"/>
</clipPath>
</defs>
</svg>
