<svg width="256" height="256" viewBox="0 0 256 256" fill="none" xmlns="http://www.w3.org/2000/svg">
<g clip-path="url(#clip0_248_4984)">
<rect width="256" height="256" rx="60" fill="#242938"/>
<path d="M77.8361 46.1763L40.7254 46.1817C33.6964 46.1817 28 51.8799 28 58.9089V94.867C28 98.5817 29.6236 102.112 32.4436 104.531L151.696 206.749C154.003 208.725 156.941 209.812 159.98 209.812H197.09C204.119 209.812 209.818 204.114 209.818 197.085V161.121C209.818 157.407 208.194 153.876 205.374 151.458L86.1217 49.2417C83.8145 47.2635 80.8761 46.1763 77.8361 46.1763Z" fill="#FF8100"/>
<path d="M73.3727 46.1763H40.7272C33.6982 46.1763 28 51.8744 28 58.9035V99.8179C28 100.42 28.0436 101.022 28.1273 101.618L44.6181 217.067C45.5145 223.338 50.8836 227.994 57.2181 227.994H106.196C113.227 227.994 118.925 222.294 118.923 215.263L118.909 157.331C118.909 155.963 118.689 154.605 118.256 153.309L85.4451 54.8781C83.7126 49.6817 78.8508 46.1763 73.3727 46.1763Z" fill="url(#paint0_linear_248_4984)"/>
<path d="M215.273 28H109.122C104.031 28 99.4295 31.0345 97.4239 35.7127L47.2115 152.871C46.5333 154.454 46.1824 156.161 46.1824 157.885V215.272C46.1824 222.301 51.8805 227.999 58.9096 227.999H115.053C117.568 227.999 120.026 227.254 122.119 225.858L222.333 158.972C225.871 156.612 227.994 152.64 227.994 148.387L228 40.7272C228 33.6982 222.302 28 215.273 28Z" fill="url(#paint1_linear_248_4984)"/>
<path d="M190.5 65.5H65.5V190.5H190.5V65.5Z" fill="black"/>
<path d="M81.1248 119.83H90.4335V89.295H81.1248V81.125H108.747V89.295H99.4378V119.83H108.747V128H81.1248V119.83Z" fill="white"/>
<path d="M113.434 119.563H120.164C121.525 119.563 122.737 119.273 123.797 118.693C124.857 118.113 125.677 117.293 126.257 116.233C126.837 115.173 127.127 113.962 127.127 112.6V81.125H136.268V113.234C136.268 116.046 135.619 118.575 134.325 120.818C133.03 123.062 131.245 124.82 128.968 126.091C126.69 127.364 124.135 128 121.301 128H113.434V119.563Z" fill="white"/>
<path d="M81.1248 165.5H131.125V174.874H81.1248V165.5Z" fill="white"/>
</g>
<defs>
<linearGradient id="paint0_linear_248_4984" x1="25.7582" y1="51.8108" x2="103.454" y2="219.392" gradientUnits="userSpaceOnUse">
<stop offset="0.1" stop-color="#FC801D"/>
<stop offset="0.59" stop-color="#FE2857"/>
</linearGradient>
<linearGradient id="paint1_linear_248_4984" x1="41.1951" y1="215.558" x2="224.647" y2="32.1036" gradientUnits="userSpaceOnUse">
<stop offset="0.21" stop-color="#FE2857"/>
<stop offset="0.7" stop-color="#007EFF"/>
</linearGradient>
<clipPath id="clip0_248_4984">
<rect width="256" height="256" fill="white"/>
</clipPath>
</defs>
</svg>
