<svg width="256" height="256" viewBox="0 0 256 256" fill="none" xmlns="http://www.w3.org/2000/svg">
<g clip-path="url(#clip0_381_866)">
<rect width="256" height="256" rx="60" fill="white"/>
<path d="M28 135.646H43.2236L51.7466 93.6792H36.5209L28 135.646Z" fill="#EA1D2C"/>
<path d="M37.8667 87.0895H53.0842L55.5397 75H40.3039L37.8667 87.0895Z" fill="#EA1D2C"/>
<path d="M49.2451 147.463H64.4688L73.7068 102.045H84.816L86.5648 93.6798H75.3615L75.7455 91.7404C76.4625 88.1625 77.625 84.001 83.3655 84.001C86.767 84.001 90.0275 84.37 93.1897 85.6997L94.9222 76.8612C91.4017 75.6261 87.6905 74.9965 83.9518 75C71.7171 75 63.2901 82.2842 60.2053 93.6798H54.9181L53.2656 102.045H58.4749L49.2451 147.463Z" fill="#EA1D2C"/>
<path d="M97.4752 136.582C115.453 136.582 127.927 120.16 127.927 106.765C127.927 97.01 118.705 92.7441 109.939 92.7441C90.2127 92.7441 79.4795 110.403 79.4795 122.563C79.4795 132.318 88.795 136.582 97.4752 136.582Z" fill="#EA1D2C"/>
<path d="M145.501 136.582C163.479 136.582 175.953 120.16 175.953 106.765C175.953 97.01 166.713 92.7441 157.955 92.7441C138.239 92.7441 127.489 110.403 127.489 122.563C127.489 132.318 136.815 136.582 145.493 136.582" fill="#EA1D2C"/>
<path d="M200.705 135.645H215.843L228 75.9351H212.774L209.146 93.6783C207.125 93.2409 205.064 93.005 202.995 92.9743C188.082 92.9743 174.519 111.945 174.519 125.503C174.519 131.08 178.145 136.579 184.3 136.579C193.048 136.579 199.103 132.297 201.63 128.284H202.574L200.705 135.645Z" fill="#EA1D2C"/>
<path d="M153.803 167.273C142.669 176.754 127.784 181.621 111.607 180.616C91.2084 179.363 77.0654 163.569 74.2217 147.549H75.1899C79.7784 157.777 90.9489 167.221 104.967 168.773C118.655 170.284 135.427 164.099 144.63 155.27L134.305 147.46L164.965 147.549L158.367 180.007L153.803 167.273Z" fill="#EA1D2C"/>
</g>
<defs>
<clipPath id="clip0_381_866">
<rect width="256" height="256" fill="white"/>
</clipPath>
</defs>
</svg>
