<svg width="256" height="256" viewBox="0 0 256 256" fill="none" xmlns="http://www.w3.org/2000/svg">
<g clip-path="url(#clip0_381_858)">
<path fill-rule="evenodd" clip-rule="evenodd" d="M256.013 203.509C256.013 232.385 232.389 256.009 203.513 256.009H52.5124C23.6368 256.009 0.0126953 232.385 0.0126953 203.509V52.5085C0.0126953 23.6329 23.6368 0.00878906 52.5124 0.00878906H203.513C232.389 0.00878906 256.013 23.6329 256.013 52.5085V203.509Z" fill="#EA1D2C"/>
<path d="M28 136.646H43.2236L51.7466 94.6792H36.5209L28 136.646Z" fill="white"/>
<path d="M37.8667 88.0895H53.0842L55.5397 76H40.3039L37.8667 88.0895Z" fill="white"/>
<path d="M49.2451 148.463H64.4688L73.7068 103.045H84.816L86.5648 94.6798H75.3615L75.7455 92.7404C76.4625 89.1625 77.625 85.001 83.3655 85.001C86.767 85.001 90.0275 85.37 93.1897 86.6997L94.9222 77.8612C91.4017 76.6261 87.6905 75.9965 83.9518 76C71.7171 76 63.2901 83.2842 60.2053 94.6798H54.9181L53.2656 103.045H58.4749L49.2451 148.463Z" fill="white"/>
<path d="M97.4752 137.582C115.453 137.582 127.927 121.16 127.927 107.765C127.927 98.01 118.705 93.7441 109.939 93.7441C90.2127 93.7441 79.4795 111.403 79.4795 123.563C79.4795 133.318 88.795 137.582 97.4752 137.582Z" fill="white"/>
<path d="M145.501 137.582C163.479 137.582 175.953 121.16 175.953 107.765C175.953 98.01 166.713 93.7441 157.955 93.7441C138.239 93.7441 127.489 111.403 127.489 123.563C127.489 133.318 136.815 137.582 145.493 137.582" fill="white"/>
<path d="M200.705 136.645H215.843L228 76.9351H212.774L209.146 94.6783C207.125 94.2409 205.064 94.005 202.995 93.9743C188.082 93.9743 174.519 112.945 174.519 126.503C174.519 132.08 178.145 137.579 184.3 137.579C193.048 137.579 199.103 133.297 201.63 129.284H202.574L200.705 136.645Z" fill="white"/>
<path d="M153.803 168.273C142.669 177.754 127.784 182.621 111.607 181.616C91.2084 180.363 77.0654 164.569 74.2217 148.549H75.1899C79.7784 158.777 90.9489 168.221 104.967 169.773C118.655 171.284 135.427 165.099 144.63 156.27L134.305 148.46L164.965 148.549L158.367 181.007L153.803 168.273Z" fill="white"/>
</g>
<defs>
<clipPath id="clip0_381_858">
<rect width="256" height="256" fill="white"/>
</clipPath>
</defs>
</svg>
