<svg width="256" height="256" viewBox="0 0 256 256" fill="none" xmlns="http://www.w3.org/2000/svg">
<g clip-path="url(#clip0_381_861)">
<rect width="256" height="256" rx="60" fill="#242938"/>
<path d="M28 134.646H43.2236L51.7466 92.6792H36.5209L28 134.646Z" fill="#EA1D2C"/>
<path d="M37.8667 86.0895H53.0842L55.5397 74H40.3039L37.8667 86.0895Z" fill="#EA1D2C"/>
<path d="M49.2451 146.463H64.4688L73.7068 101.045H84.816L86.5648 92.6798H75.3615L75.7455 90.7404C76.4625 87.1625 77.625 83.001 83.3655 83.001C86.767 83.001 90.0275 83.37 93.1897 84.6997L94.9222 75.8612C91.4017 74.6261 87.6905 73.9965 83.9518 74C71.7171 74 63.2901 81.2842 60.2053 92.6798H54.9181L53.2656 101.045H58.4749L49.2451 146.463Z" fill="#EA1D2C"/>
<path d="M97.4752 135.582C115.453 135.582 127.927 119.16 127.927 105.765C127.927 96.01 118.705 91.7441 109.939 91.7441C90.2127 91.7441 79.4795 109.403 79.4795 121.563C79.4795 131.318 88.795 135.582 97.4752 135.582Z" fill="#EA1D2C"/>
<path d="M145.501 135.582C163.479 135.582 175.953 119.16 175.953 105.765C175.953 96.01 166.713 91.7441 157.955 91.7441C138.239 91.7441 127.489 109.403 127.489 121.563C127.489 131.318 136.815 135.582 145.493 135.582" fill="#EA1D2C"/>
<path d="M200.705 134.645H215.843L228 74.9351H212.774L209.146 92.6783C207.125 92.2409 205.064 92.005 202.995 91.9743C188.082 91.9743 174.519 110.945 174.519 124.503C174.519 130.08 178.145 135.579 184.3 135.579C193.048 135.579 199.103 131.297 201.63 127.284H202.574L200.705 134.645Z" fill="#EA1D2C"/>
<path d="M153.803 166.273C142.669 175.754 127.784 180.621 111.607 179.616C91.2084 178.363 77.0654 162.569 74.2217 146.549H75.1899C79.7784 156.777 90.9489 166.221 104.967 167.773C118.655 169.284 135.427 163.099 144.63 154.27L134.305 146.46L164.965 146.549L158.367 179.007L153.803 166.273Z" fill="#EA1D2C"/>
</g>
<defs>
<clipPath id="clip0_381_861">
<rect width="256" height="256" fill="white"/>
</clipPath>
</defs>
</svg>
