<svg width="256" height="256" viewBox="0 0 256 256" fill="none" xmlns="http://www.w3.org/2000/svg">
<g clip-path="url(#clip0_248_2909)">
<rect width="256" height="256" rx="60" fill="#242938"/>
<path d="M181.125 28H74.875C48.9867 28 28 48.9867 28 74.875V181.125C28 207.013 48.9867 228 74.875 228H181.125C207.013 228 228 207.013 228 181.125V74.875C228 48.9867 207.013 28 181.125 28Z" fill="#330000"/>
<path d="M124.666 147.01H93.6665L87.3332 166.594C87.1665 167.344 86.4999 167.844 85.7499 167.76H70.0832C69.1665 167.76 68.9165 167.26 69.1665 166.26L95.9999 89.0106C96.2499 88.1772 96.4999 87.2606 96.8332 86.2606C97.1665 84.5106 97.3332 82.6772 97.3332 80.8439C97.2499 80.4272 97.5832 80.0106 97.9999 79.9272H98.2499H119.583C120.25 79.9272 120.583 80.1772 120.666 80.5939L151.083 166.427C151.333 167.344 151.083 167.76 150.25 167.76H132.833C132.25 167.844 131.666 167.427 131.5 166.844L124.666 147.01ZM98.4999 130.094H119.666C119.166 128.344 118.5 126.26 117.75 124.094C117 121.844 116.25 119.427 115.5 116.927C114.666 114.344 113.916 111.844 113.083 109.26C112.25 106.677 111.5 104.261 110.833 101.844C110.166 99.5106 109.583 97.3439 109 95.3439H108.833C108.083 98.9273 107.166 102.511 106 106.094C104.75 110.094 103.5 114.26 102.166 118.427C101 122.677 99.7499 126.594 98.4999 130.094Z" fill="#FF9A00"/>
<path d="M169.666 94.5104C166.916 94.5938 164.25 93.5104 162.25 91.5938C160.334 89.5104 159.334 86.7604 159.416 83.9271C159.334 81.0938 160.416 78.4271 162.416 76.5104C164.416 74.5937 167.084 73.5938 169.834 73.5938C173.084 73.5938 175.584 74.5937 177.416 76.5104C179.25 78.5104 180.25 81.1771 180.166 83.9271C180.25 86.7604 179.25 89.5104 177.25 91.5938C175.334 93.5938 172.5 94.6771 169.666 94.5104ZM160.334 166.844V102.677C160.334 101.844 160.666 101.51 161.416 101.51H177.916C178.666 101.51 179 101.927 179 102.677V166.844C179 167.76 178.666 168.177 177.916 168.177H161.584C160.75 168.177 160.334 167.677 160.334 166.844Z" fill="#FF9A00"/>
</g>
<defs>
<clipPath id="clip0_248_2909">
<rect width="256" height="256" fill="white"/>
</clipPath>
</defs>
</svg>
