<svg width="256" height="256" viewBox="0 0 256 256" fill="none" xmlns="http://www.w3.org/2000/svg">
<g clip-path="url(#clip0_389_963)">
<path d="M196 0H60C26.8629 0 0 26.8629 0 60V196C0 229.137 26.8629 256 60 256H196C229.137 256 256 229.137 256 196V60C256 26.8629 229.137 0 196 0Z" fill="#49021F"/>
<path d="M89.9481 74.2178V189.377C89.9481 190.583 89.4056 191.186 88.3206 191.186H66.4454C65.4797 191.186 64.9979 190.583 65 189.377V74.2178C65 73.2543 65.5422 72.7721 66.6264 72.7714H88.5016C88.6856 72.7454 88.873 72.7597 89.0509 72.8134C89.2287 72.8672 89.3927 72.959 89.5315 73.0825C89.6702 73.2061 89.7804 73.3583 89.8544 73.5288C89.9283 73.6992 89.9642 73.8837 89.9596 74.0694L89.9481 74.2178ZM155.833 192.982L154.668 192.993C146.347 193.12 138.103 191.391 130.534 187.932C123.483 184.669 117.589 179.341 113.631 172.655C109.632 166.013 107.584 157.736 107.487 147.822L107.484 147.074C107.416 138.777 109.537 130.608 113.632 123.392C117.737 116.238 123.723 110.346 130.941 106.356L131.529 106.036C139.361 101.697 148.822 99.528 159.912 99.528L160.146 99.5291L160.665 99.5407L161.252 99.5638L161.908 99.5975L162.631 99.6428L163.422 99.7007L165.208 99.847L165.696 99.8891V64.2761C165.696 63.4332 166.058 63.0111 166.781 63.0097H189.56C189.708 62.9886 189.858 63.0021 189.999 63.0491C190.14 63.0961 190.268 63.1754 190.374 63.2806C190.479 63.3858 190.558 63.5141 190.605 63.6553C190.652 63.7965 190.666 63.9467 190.645 64.094V170.938C190.652 173.17 190.742 175.402 190.916 177.627L191.087 179.958L191.237 182.127L191.368 184.135C191.39 184.511 191.299 184.884 191.105 185.207C190.912 185.529 190.625 185.786 190.283 185.944C184.407 188.394 178.286 190.212 172.024 191.366C166.682 192.353 161.266 192.893 155.834 192.982M165.698 170.576V121.222C164.721 120.957 163.723 120.776 162.715 120.68C161.484 120.556 160.246 120.495 159.009 120.499C154.621 120.456 150.286 121.446 146.354 123.392C142.525 125.297 139.255 128.162 136.863 131.708C134.391 135.323 133.156 140.084 133.156 145.99C133.069 149.931 133.712 153.853 135.054 157.559C136.147 160.546 137.874 163.26 140.117 165.515C142.264 167.589 144.863 169.136 147.71 170.034C150.717 171.007 153.86 171.496 157.02 171.481C158.707 171.481 160.273 171.421 161.72 171.299C162.875 171.212 164.019 171.022 165.14 170.731L165.698 170.576Z" fill="#FF3366"/>
</g>
<defs>
<clipPath id="clip0_389_963">
<rect width="256" height="256" fill="white"/>
</clipPath>
</defs>
</svg>
