<svg width="256" height="256" viewBox="0 0 256 256" fill="none" xmlns="http://www.w3.org/2000/svg">
<g clip-path="url(#clip0_389_966)">
<rect width="256" height="256" rx="60" fill="#242938"/>
<path d="M194.797 30H61.2031C42.8655 30 28 44.8655 28 63.2031V191.797C28 210.134 42.8655 225 61.2031 225H194.797C213.134 225 228 210.134 228 191.797V63.2031C228 44.8655 213.134 30 194.797 30Z" fill="#49021F"/>
<path d="M100.632 81.0132V166.477C100.632 167.372 100.229 167.819 99.4237 167.819H83.1894C82.4727 167.819 82.1151 167.372 82.1167 166.477V81.0132C82.1167 80.2981 82.5191 79.9402 83.3237 79.9397H99.5581C99.6946 79.9204 99.8337 79.931 99.9657 79.9709C100.098 80.0108 100.219 80.0789 100.322 80.1706C100.425 80.2623 100.507 80.3753 100.562 80.5018C100.617 80.6282 100.644 80.7652 100.64 80.903L100.632 81.0132ZM149.527 169.152L148.663 169.161C142.488 169.255 136.369 167.972 130.752 165.405C125.519 162.983 121.145 159.029 118.207 154.067C115.24 149.138 113.72 142.995 113.648 135.637L113.646 135.083C113.595 128.925 115.169 122.863 118.208 117.507C121.254 112.198 125.697 107.825 131.054 104.864L131.49 104.626C137.303 101.407 144.324 99.7967 152.554 99.7967L152.728 99.7975L153.113 99.8061L153.549 99.8233L154.035 99.8483L154.572 99.8819L155.159 99.9249L156.485 100.033L156.847 100.065V73.635C156.847 73.0095 157.115 72.6962 157.652 72.6952H174.557C174.667 72.6795 174.778 72.6895 174.883 72.7244C174.988 72.7593 175.083 72.8181 175.161 72.8962C175.239 72.9743 175.298 73.0695 175.333 73.1743C175.368 73.2791 175.378 73.3906 175.362 73.4999V152.793C175.367 154.449 175.435 156.105 175.564 157.757L175.69 159.487L175.802 161.097L175.899 162.587C175.915 162.865 175.847 163.143 175.704 163.382C175.56 163.622 175.348 163.812 175.094 163.929C170.733 165.747 166.19 167.096 161.543 167.953C157.578 168.685 153.559 169.087 149.528 169.152M156.848 152.524V115.897C156.123 115.7 155.382 115.566 154.635 115.494C153.721 115.402 152.803 115.357 151.884 115.36C148.628 115.328 145.41 116.063 142.492 117.507C139.651 118.921 137.224 121.047 135.449 123.679C133.614 126.362 132.697 129.895 132.698 134.278C132.633 137.202 133.111 140.114 134.107 142.864C134.918 145.08 136.199 147.095 137.864 148.768C139.457 150.307 141.386 151.455 143.499 152.122C145.73 152.844 148.063 153.207 150.408 153.196C151.66 153.196 152.822 153.151 153.896 153.061C154.753 152.996 155.602 152.855 156.434 152.639L156.848 152.524Z" fill="#FF3366"/>
</g>
<defs>
<clipPath id="clip0_389_966">
<rect width="256" height="256" fill="white"/>
</clipPath>
</defs>
</svg>
