<svg width="256" height="256" viewBox="0 0 256 256" fill="none" xmlns="http://www.w3.org/2000/svg">
<g clip-path="url(#clip0_381_916)">
<path fill-rule="evenodd" clip-rule="evenodd" d="M256.013 203.509C256.013 232.385 232.389 256.009 203.513 256.009H52.5124C23.6368 256.009 0.0126953 232.385 0.0126953 203.509V52.5085C0.0126953 23.6329 23.6368 0.00878906 52.5124 0.00878906H203.513C232.389 0.00878906 256.013 23.6329 256.013 52.5085V203.509Z" fill="#EA7100"/>
<path d="M18 154.222H41.451L41.5758 153.572L18.4495 148.777L18.8989 146.205L42.0252 151.2L42.225 150.301L20.3725 140.81L21.3215 138.188L43.2242 147.403L43.6736 146.754L24.2688 132.344L26.2667 129.197L45.5469 143.607L46.1213 142.833L30.9369 123.553L34.6582 120.531L49.7176 138.912L50.367 138.338L41.6009 116.035L46.9204 113.788L55.1871 135.64L55.8365 135.44V111.215H64.3276V156.069H18.0001L18 154.222ZM152.961 146.28H162.126V156.145H154.509C146.492 156.145 141.572 153.373 141.572 143.208V121.18H136.128C135.179 121.18 134.679 120.032 135.328 119.332L151.087 101.451C151.762 100.726 152.986 101.201 152.986 102.2V111.315H162.076V121.18H152.986V146.279L152.961 146.28ZM120.294 110.591C114.825 110.591 110.729 113.738 108.731 118.683H108.356V111.291H97.4925V156.144H108.906V121.38H116.523C119.845 121.38 121.068 122.079 121.068 125.625V156.144H132.482V123.402C132.458 114.387 128.136 110.591 120.295 110.591L120.294 110.591ZM77.7628 156.144H89.1759V111.291H77.7628V156.144ZM227.085 119.232H226.612V111.29H215.272V156.144H227.36V122.004H238V110.591H236.526C230.931 110.591 228.459 113.063 227.085 119.232L227.085 119.232ZM209.979 132.568V135.965H175.764C176.387 142.633 180.558 147.054 187.001 147.054C192.771 147.054 196.941 143.982 197.79 140.186H209.953C207.406 149.651 198.715 156.894 186.827 156.894C172.966 156.894 163.551 147.029 163.551 134.092C163.551 121.155 172.642 110.591 187.127 110.591C200.812 110.591 209.979 120.007 209.979 132.569L209.979 132.568ZM176.112 127.699H198.19C196.467 123.203 192.821 119.981 187.176 119.981C182.232 120.006 177.886 122.604 176.112 127.699Z" fill="white"/>
</g>
<defs>
<clipPath id="clip0_381_916">
<rect width="256" height="256" fill="white"/>
</clipPath>
</defs>
</svg>
