<svg width="256" height="256" viewBox="0 0 256 256" fill="none" xmlns="http://www.w3.org/2000/svg">
<g clip-path="url(#clip0_381_926)">
<rect width="256" height="256" rx="60" fill="#242938"/>
<path d="M18 152.222H41.451L41.5758 151.572L18.4495 146.777L18.8989 144.205L42.0252 149.2L42.225 148.301L20.3725 138.81L21.3215 136.188L43.2242 145.403L43.6736 144.754L24.2688 130.344L26.2667 127.197L45.5469 141.607L46.1213 140.833L30.9369 121.553L34.6582 118.531L49.7176 136.912L50.367 136.338L41.6009 114.035L46.9204 111.788L55.1871 133.64L55.8365 133.44V109.215H64.3276V154.069H18.0001L18 152.222ZM152.961 144.28H162.126V154.145H154.509C146.492 154.145 141.572 151.373 141.572 141.208V119.18H136.128C135.179 119.18 134.679 118.032 135.328 117.332L151.087 99.4507C151.762 98.7265 152.986 99.201 152.986 100.2V109.315H162.076V119.18H152.986V144.279L152.961 144.28ZM120.294 108.591C114.825 108.591 110.729 111.738 108.731 116.683H108.356V109.291H97.4925V154.144H108.906V119.38H116.523C119.845 119.38 121.068 120.079 121.068 123.625V154.144H132.482V121.402C132.458 112.387 128.136 108.591 120.295 108.591L120.294 108.591ZM77.7628 154.144H89.1759V109.291H77.7628V154.144ZM227.085 117.232H226.612V109.29H215.272V154.144H227.36V120.004H238V108.591H236.526C230.931 108.591 228.459 111.063 227.085 117.232L227.085 117.232ZM209.979 130.568V133.965H175.764C176.387 140.633 180.558 145.054 187.001 145.054C192.771 145.054 196.941 141.982 197.79 138.186H209.953C207.406 147.651 198.715 154.894 186.827 154.894C172.966 154.894 163.551 145.029 163.551 132.092C163.551 119.155 172.642 108.591 187.127 108.591C200.812 108.591 209.979 118.007 209.979 130.569L209.979 130.568ZM176.112 125.699H198.19C196.467 121.203 192.821 117.981 187.176 117.981C182.232 118.006 177.886 120.604 176.112 125.699Z" fill="#EA7100"/>
</g>
<defs>
<clipPath id="clip0_381_926">
<rect width="256" height="256" fill="white"/>
</clipPath>
</defs>
</svg>
