<svg width="256" height="256" viewBox="0 0 256 256" fill="none" xmlns="http://www.w3.org/2000/svg">
<g clip-path="url(#clip0_381_936)">
<rect width="256" height="256" rx="60" fill="white"/>
<path d="M18 153.222H41.451L41.5758 152.572L18.4495 147.777L18.8989 145.205L42.0252 150.2L42.225 149.301L20.3725 139.81L21.3215 137.188L43.2242 146.403L43.6736 145.754L24.2688 131.344L26.2667 128.197L45.5469 142.607L46.1213 141.833L30.9369 122.553L34.6582 119.531L49.7176 137.912L50.367 137.338L41.6009 115.035L46.9204 112.788L55.1871 134.64L55.8365 134.44V110.215H64.3276V155.069H18.0001L18 153.222ZM152.961 145.28H162.126V155.145H154.509C146.492 155.145 141.572 152.373 141.572 142.208V120.18H136.128C135.179 120.18 134.679 119.032 135.328 118.332L151.087 100.451C151.762 99.7265 152.986 100.201 152.986 101.2V110.315H162.076V120.18H152.986V145.279L152.961 145.28ZM120.294 109.591C114.825 109.591 110.729 112.738 108.731 117.683H108.356V110.291H97.4925V155.144H108.906V120.38H116.523C119.845 120.38 121.068 121.079 121.068 124.625V155.144H132.482V122.402C132.458 113.387 128.136 109.591 120.295 109.591L120.294 109.591ZM77.7628 155.144H89.1759V110.291H77.7628V155.144ZM227.085 118.232H226.612V110.29H215.272V155.144H227.36V121.004H238V109.591H236.526C230.931 109.591 228.459 112.063 227.085 118.232L227.085 118.232ZM209.979 131.568V134.965H175.764C176.387 141.633 180.558 146.054 187.001 146.054C192.771 146.054 196.941 142.982 197.79 139.186H209.953C207.406 148.651 198.715 155.894 186.827 155.894C172.966 155.894 163.551 146.029 163.551 133.092C163.551 120.155 172.642 109.591 187.127 109.591C200.812 109.591 209.979 119.007 209.979 131.569L209.979 131.568ZM176.112 126.699H198.19C196.467 122.203 192.821 118.981 187.176 118.981C182.232 119.006 177.886 121.604 176.112 126.699Z" fill="#EA7100"/>
</g>
<defs>
<clipPath id="clip0_381_936">
<rect width="256" height="256" fill="white"/>
</clipPath>
</defs>
</svg>
