<svg width="256" height="256" viewBox="0 0 256 256" fill="none" xmlns="http://www.w3.org/2000/svg">
<g clip-path="url(#clip0_350_65)">
<path d="M196 0H60C26.8629 0 0 26.8629 0 60V196C0 229.137 26.8629 256 60 256H196C229.137 256 256 229.137 256 196V60C256 26.8629 229.137 0 196 0Z" fill="#FF6200"/>
<path d="M115.259 28.3974C109.502 28.5343 105.278 28.7367 97.5351 29.2141C93.9538 29.4278 90.0445 29.7424 87.2915 30.0178C86.6005 30.0929 85.1549 30.2315 84.0866 30.3325C79.5994 30.7727 72.9371 31.6136 70.1349 32.0914C69.5431 32.1924 68.676 32.3309 68.1869 32.4061C67.7091 32.4695 66.8536 32.6193 66.3007 32.7207C65.7482 32.8217 64.8176 32.9978 64.2275 33.0971C62.1523 33.4493 58.6214 34.1663 56.623 34.6441C56.0688 34.7826 55.076 35.0205 54.4225 35.1724C53.7686 35.3222 53.179 35.4607 53.1038 35.4737C49.4195 36.3525 45.7618 38.1261 42.9466 40.4258C40.2062 42.6509 37.7562 46.2456 36.5239 49.8152C36.3236 50.3681 36.1212 50.9336 36.0594 51.0721C35.8458 51.5499 34.9152 55.5711 34.2483 58.8657C34.149 59.4182 33.9729 60.2349 33.8719 60.6881C33.7705 61.1396 33.6341 61.9316 33.5456 62.447C33.4692 62.9619 33.3695 63.5912 33.3061 63.8291C33.117 64.5469 32.3509 69.4481 31.8601 73.0052C31.3827 76.4497 31.0681 78.9518 30.7926 81.4899C30.6541 82.7334 30.5155 83.9528 30.4909 84.1923C30.4534 84.4302 30.3394 85.65 30.2268 86.8952C30.1258 88.1388 29.976 89.6599 29.8992 90.2891C29.635 92.6006 28.9811 102.67 28.6556 109.772C28.4044 115.037 28.2412 126.313 28.3293 132.459C28.4173 140.126 28.6047 146.977 28.7808 149.365C28.8447 150.332 28.9698 152.37 29.045 153.891C29.1201 155.411 29.2211 157.359 29.2845 158.226C29.5733 162.576 29.7999 165.428 29.9121 166.333C29.976 166.887 30.1258 168.358 30.2268 169.588C30.3278 170.821 30.478 172.291 30.5414 172.857C30.6165 173.423 30.7551 174.641 30.8544 175.572C31.169 178.551 31.4086 180.499 31.6093 181.794C31.7103 182.486 31.8864 183.667 31.9857 184.434C32.3509 187.198 32.7778 189.888 33.2426 192.353C33.3436 192.905 33.5068 193.836 33.6207 194.426C33.8344 195.683 34.3247 198.185 34.6769 199.768C35.8829 205.312 36.4112 206.97 37.8313 209.698C38.2207 210.452 38.7231 211.332 38.9497 211.646C39.1629 211.961 39.4776 212.413 39.6407 212.652C40.3577 213.72 42.4071 215.806 43.5384 216.612C43.7257 216.749 44.0909 217.012 44.3288 217.202C44.5816 217.402 44.8195 217.554 44.8829 217.554C44.9334 217.554 45.059 217.642 45.1584 217.743C45.6491 218.221 49.1065 219.867 50.5883 220.307C50.8654 220.395 51.2047 220.507 51.3432 220.571C51.6708 220.722 53.5174 221.186 55.7429 221.69C56.711 221.916 57.7038 222.154 57.9421 222.218C58.5204 222.368 62.1652 223.096 64.9186 223.6C66.5014 223.888 69.5824 224.379 71.517 224.656C72.246 224.756 73.1766 224.894 73.591 224.969C75.1117 225.233 81.3971 225.964 85.3436 226.34C86.7636 226.479 88.5109 226.642 89.2395 226.717C90.4213 226.842 91.6277 226.943 97.4095 227.357C98.2767 227.421 100.251 227.534 101.809 227.61C103.368 227.685 105.542 227.798 106.649 227.861C115.598 228.376 141.189 228.376 150.013 227.861C151.12 227.786 153.294 227.685 154.853 227.61C157.529 227.485 158.51 227.421 162.708 227.106C168.087 226.692 175.995 225.924 178.672 225.548C179.438 225.435 180.758 225.259 181.625 225.145C184.83 224.731 189.23 224.065 191.743 223.6C194.497 223.096 198.141 222.368 198.72 222.218C198.958 222.154 199.951 221.916 200.919 221.69C203.094 221.199 204.98 220.722 205.319 220.571C205.736 220.421 206.155 220.274 206.576 220.131C207.606 219.792 211.026 218.17 211.314 217.893C211.402 217.805 211.653 217.618 211.867 217.49C212.848 216.876 213.3 216.524 214.193 215.718C215.199 214.8 216.594 213.293 216.933 212.778C217.046 212.602 217.347 212.175 217.598 211.835C217.862 211.484 218.076 211.169 218.076 211.118C218.076 211.068 218.278 210.716 218.516 210.339C218.756 209.963 219.044 209.408 219.159 209.107C219.284 208.818 219.409 208.504 219.46 208.442C219.698 208.127 220.578 205.625 220.955 204.205C221.546 202.006 222.651 196.815 223.054 194.362C223.155 193.735 223.268 193.145 223.305 193.044C223.419 192.767 224.111 188.455 224.738 184.057C224.876 183.089 225.015 182.121 225.053 181.92C225.154 181.341 225.606 177.483 225.808 175.447C225.907 174.441 226.045 173.284 226.12 172.87C226.197 172.454 226.334 171.098 226.435 169.852C226.536 168.609 226.675 167.075 226.737 166.459C226.812 165.831 226.926 164.398 227.001 163.254C227.076 162.109 227.19 160.703 227.252 160.111C227.328 159.521 227.465 157.346 227.566 155.273C227.68 153.198 227.806 150.646 227.881 149.617C228.447 140.478 228.447 116.496 227.881 107.069C227.817 106 227.705 103.902 227.63 102.419C227.554 100.935 227.441 98.9741 227.377 98.0811C227.302 97.1763 227.14 94.9513 227.001 93.1172C226.862 91.2819 226.723 89.5589 226.686 89.2834C226.648 89.0059 226.536 87.787 226.435 86.5806C226.334 85.3746 226.221 84.2428 226.184 84.0671C226.146 83.891 226.008 82.7334 225.869 81.4899C225.544 78.4853 225.141 75.1681 225.053 74.7788C225.015 74.6027 224.876 73.597 224.738 72.565C224.122 67.8653 222.979 61.3157 221.998 56.8543C221.859 56.225 221.634 55.2076 221.496 54.5917C221.144 52.9825 220.728 51.3609 220.591 51.0721C220.528 50.9336 220.415 50.5947 220.327 50.3176C220.05 49.3883 218.654 46.2831 218.303 45.7924C218.252 45.7172 217.851 45.1272 217.422 44.4737C216.53 43.1287 214.244 40.7405 212.873 39.7348C210.159 37.7363 207.141 36.3784 203.245 35.4232C202.574 35.2591 201.904 35.0912 201.234 34.9195C200.769 34.7826 199.838 34.5806 197.84 34.1663C197.274 34.0475 196.708 33.9258 196.143 33.8011C193.717 33.211 185.823 31.9282 180.683 31.2747C179.651 31.1491 178.634 31.0106 178.42 30.9618C178.042 30.885 176.22 30.6976 172.513 30.3325C171.481 30.2315 170.061 30.0813 169.37 30.0178C168.679 29.9427 167.434 29.83 166.606 29.7537C165.776 29.6919 164.418 29.5776 163.589 29.5158C160.773 29.2763 152.955 28.8247 148.631 28.6353C140.271 28.2706 124.836 28.1579 115.259 28.3974ZM59.8784 113.329C59.9535 113.391 60.3186 113.505 60.6821 113.593C61.3619 113.756 62.3171 114.196 63.0324 114.674C63.5982 115.05 64.9315 116.483 65.194 116.987C65.3213 117.238 65.4581 117.464 65.4957 117.502C65.5349 117.54 65.6472 117.79 65.7482 118.067C65.8362 118.343 65.9485 118.633 66.0123 118.695C66.1751 118.935 66.3645 120.429 66.3645 121.537C66.3645 122.617 66.1997 123.887 65.9864 124.352C65.3083 125.91 64.9807 126.425 64.1265 127.331C63.3341 128.148 63.0081 128.399 61.9273 128.927C61.0468 129.367 60.4179 129.594 59.9159 129.643C59.5132 129.693 59.161 129.781 59.1235 129.832C59.0358 129.984 56.3083 129.984 56.3083 129.832C56.3083 129.781 55.9937 129.693 55.591 129.643C55.2016 129.594 54.7125 129.48 54.4989 129.392C54.2264 129.269 53.9497 129.156 53.6693 129.053C53.4298 128.965 53.2032 128.864 53.1656 128.826C53.128 128.776 52.939 128.663 52.7253 128.562C51.9967 128.198 50.4886 126.526 50.0487 125.608C49.8092 125.118 49.5843 124.64 49.5209 124.541C49.0935 123.685 49.0184 119.789 49.4195 118.884C49.5338 118.645 49.6965 118.244 49.7846 118.004C49.8726 117.766 49.9736 117.539 50.0112 117.502C50.0487 117.464 50.199 117.212 50.3375 116.936C50.5771 116.47 52.0718 114.861 52.2855 114.861C52.3356 114.861 52.4499 114.773 52.538 114.661C52.7758 114.396 53.9952 113.806 54.7372 113.618C55.089 113.529 55.4787 113.404 55.6173 113.34C55.7558 113.278 56.0947 113.215 56.3705 113.177C57.112 113.102 59.7152 113.215 59.8784 113.329ZM196.834 122.089V128.436H172.45V119.94L173.808 119.725C176.812 119.261 178.685 118.946 178.797 118.871C178.872 118.821 179.488 118.721 180.179 118.633C180.87 118.545 181.5 118.431 181.562 118.38C181.638 118.332 182.228 118.218 182.882 118.13C183.536 118.055 184.39 117.903 184.769 117.803C185.145 117.716 185.937 117.577 186.527 117.502C187.119 117.425 187.709 117.313 187.847 117.262C187.986 117.2 188.614 117.086 189.23 116.998C189.859 116.923 190.562 116.811 190.801 116.734C191.039 116.672 191.945 116.496 192.812 116.357C193.68 116.219 194.811 116.032 195.326 115.943C195.841 115.842 196.394 115.767 196.557 115.754L196.834 115.741V122.089ZM92.7591 127.695V135.224H105.328V146.412H92.7474L92.7966 158.064C92.8354 170.62 92.8091 170.004 93.4893 171.549C94.0043 172.744 95.4615 173.963 96.7184 174.265C96.9321 174.316 97.1716 174.415 97.2726 174.492C97.5105 174.679 102.602 174.679 102.828 174.479C102.928 174.404 103.381 174.303 103.858 174.252L104.701 174.164V185.188L104.361 185.339C104.048 185.477 102.602 185.703 100.616 185.942C97.788 186.269 92.6334 186.307 92.3317 185.992C92.2566 185.93 92.0563 185.879 91.8673 185.879C91.3765 185.879 89.3405 185.501 89.189 185.389C89.1139 185.339 88.7751 185.213 88.4228 185.138C88.084 185.05 87.7447 184.936 87.6684 184.887C87.6062 184.823 87.3178 184.711 87.0407 184.623C86.7636 184.535 86.5124 184.421 86.4749 184.383C86.4373 184.345 86.2107 184.207 85.9712 184.068C84.9279 183.516 84.6149 183.316 84.0608 182.849C83.7348 182.585 83.4331 182.36 83.3697 182.36C83.2441 182.347 82.2889 181.304 81.5356 180.349C80.9573 179.607 80.1014 178.187 79.8126 177.457C79.7116 177.219 79.5993 176.992 79.5618 176.955C79.5113 176.917 79.3857 176.528 79.2601 176.074C79.1462 175.623 78.9959 175.145 78.9325 175.007C78.8707 174.868 78.7188 174.303 78.6195 173.75C78.513 173.225 78.3995 172.701 78.279 172.179C78.1909 171.802 78.1288 167.376 78.0912 159.006L78.0411 146.412H70.7625V135.224H78.0541V122.553L78.9079 122.466C79.3728 122.417 79.8126 122.329 79.876 122.278C79.9511 122.228 80.5675 122.115 81.2586 122.027C81.9496 121.939 82.5789 121.812 82.6411 121.763C82.7162 121.713 83.5082 121.574 84.4013 121.461C85.306 121.334 86.0985 121.197 86.1602 121.147C86.2353 121.096 86.651 121.008 87.1025 120.971C87.6932 120.9 88.2806 120.804 88.8631 120.682C90.2081 120.405 92.5583 120.04 92.671 120.103C92.7215 120.128 92.7591 123.548 92.7591 127.695ZM134.427 134.029C136.186 134.13 138.174 134.357 138.323 134.47C138.398 134.52 138.7 134.608 139.015 134.646C139.732 134.76 141.479 135.275 142.534 135.702C143.414 136.054 145.375 137.034 145.677 137.286C145.778 137.362 146.003 137.511 146.179 137.588C146.355 137.676 146.909 138.114 147.398 138.543C147.889 138.983 148.342 139.36 148.404 139.384C148.593 139.472 150.83 142.188 150.83 142.338C150.83 142.375 150.944 142.578 151.082 142.765C151.346 143.143 152.465 145.318 152.465 145.456C152.465 145.505 152.566 145.782 152.702 146.071C152.828 146.361 152.979 146.801 153.03 147.039C153.08 147.279 153.169 147.53 153.218 147.605C153.268 147.669 153.382 148.07 153.47 148.485C153.545 148.899 153.646 149.328 153.684 149.427C153.734 149.528 153.847 150.068 153.948 150.622C154.098 151.452 154.135 154.582 154.186 168.433L154.236 185.25H140.524L140.511 183.767C140.498 182.963 140.46 181.794 140.41 181.178L140.335 180.047L139.97 180.549C139.393 181.317 137.494 183.126 136.74 183.629C135.093 184.711 134.654 184.973 134.201 185.125C133.924 185.2 133.56 185.352 133.384 185.45C133.195 185.539 132.731 185.69 132.353 185.766C131.976 185.853 131.599 185.968 131.536 186.016C130.895 186.494 122.976 186.482 122.36 186.005C122.298 185.955 121.845 185.842 121.354 185.754C120.877 185.666 120.311 185.527 120.098 185.426C119.897 185.339 119.356 185.112 118.917 184.936C118.412 184.716 117.917 184.473 117.434 184.207C117.1 184.001 116.76 183.804 116.415 183.617C115.887 183.327 115.711 183.164 114.278 181.731C112.808 180.26 112.619 180.06 112.619 179.922C112.619 179.871 112.455 179.594 112.268 179.305C112.066 179.017 111.777 178.489 111.625 178.148C111.476 177.798 111.274 177.382 111.186 177.206C111.086 177.03 110.948 176.578 110.86 176.2C110.772 175.823 110.659 175.447 110.608 175.383C110.47 175.207 110.23 173.422 110.23 172.643C110.23 172.28 110.169 171.914 110.093 171.84C109.942 171.688 109.979 171.186 110.369 168.155C110.444 167.565 110.558 167.024 110.608 166.962C110.659 166.887 110.771 166.56 110.846 166.221C111.009 165.567 111.35 164.713 111.702 164.07C111.815 163.857 111.965 163.568 112.041 163.417C112.117 163.254 112.218 163.128 112.279 163.128C112.33 163.128 112.367 163.053 112.367 162.965C112.367 162.827 113.75 161.029 113.989 160.866C114.04 160.828 114.128 160.703 114.166 160.577C114.216 160.438 114.366 160.313 114.504 160.276C114.643 160.238 114.756 160.161 114.756 160.111C114.756 159.986 116.868 158.326 117.584 157.912C118.099 157.597 119.256 157.007 120.94 156.202C121.18 156.077 123.529 155.323 124.561 155.034C124.937 154.921 125.679 154.769 126.194 154.694C126.709 154.606 127.2 154.505 127.263 154.456C127.338 154.406 128.091 154.292 128.96 154.216C129.827 154.141 130.895 154.016 131.348 153.952C133.133 153.689 139.404 153.739 140.071 154.016C140.298 154.115 140.309 154.066 140.221 152.997C140.172 152.381 140.084 151.853 140.033 151.815C139.97 151.778 139.895 151.54 139.844 151.287C139.756 150.823 139.279 149.806 138.827 149.113C138.537 148.674 137.318 147.416 137.179 147.416C137.13 147.416 136.917 147.29 136.702 147.127C136.149 146.725 135.257 146.324 134.716 146.223C134.452 146.172 134.238 146.084 134.238 146.034C134.238 145.481 126.119 145.393 123.681 145.934C123.366 145.996 122.637 146.134 122.047 146.236C121.455 146.335 120.865 146.473 120.726 146.537C120.588 146.599 120.136 146.713 119.721 146.788C119.307 146.863 118.854 146.977 118.715 147.039C118.576 147.103 118.074 147.241 117.597 147.354C117.119 147.467 116.666 147.592 116.591 147.655C116.516 147.706 116.177 147.831 115.825 147.919C115.486 148.007 115.134 148.133 115.07 148.184C114.995 148.234 114.656 148.346 114.315 148.435C113.965 148.51 113.474 148.686 113.223 148.811C112.959 148.95 112.72 149.051 112.682 149.051C112.644 149.051 112.619 146.423 112.619 143.218C112.619 138.68 112.657 137.361 112.783 137.26C112.871 137.185 113.223 137.06 113.562 136.972C113.914 136.897 114.254 136.783 114.315 136.732C114.392 136.682 114.806 136.532 115.259 136.418C115.711 136.292 116.138 136.155 116.202 136.105C116.277 136.041 116.666 135.94 117.069 135.853C117.484 135.766 117.912 135.651 118.011 135.589C118.125 135.539 118.64 135.4 119.155 135.288C119.556 135.21 119.954 135.122 120.35 135.024C120.487 134.985 121.191 134.872 121.92 134.771C122.65 134.672 123.416 134.533 123.617 134.47C124.347 134.244 130.932 133.829 132.416 133.917C132.83 133.941 133.736 133.992 134.427 134.03V134.029ZM65.1059 160.238V185.25H50.401V135.224H65.1059V160.238ZM176.22 150.81C176.22 165.692 176.283 168.571 176.585 168.974C176.647 169.036 176.724 169.287 176.774 169.527C176.95 170.468 177.767 171.84 178.696 172.769C179.187 173.272 179.739 173.712 179.915 173.761C180.104 173.801 180.243 173.876 180.243 173.926C180.243 173.975 180.683 174.151 181.223 174.327C182.028 174.58 182.455 174.629 183.712 174.629C184.592 174.629 185.358 174.567 185.534 174.492C185.697 174.404 186.087 174.278 186.401 174.19C186.716 174.102 187.282 173.838 187.658 173.585C188.362 173.134 189.67 171.928 189.67 171.725C189.67 171.664 189.846 171.386 190.047 171.122C190.26 170.845 190.425 170.57 190.425 170.495C190.425 170.418 190.537 170.154 190.663 169.903C190.801 169.652 190.951 169.225 191.002 168.961C191.039 168.684 191.127 168.408 191.191 168.345C191.505 167.942 191.556 165.404 191.556 150.659V135.224H206.261V185.251H199.298C193.856 185.251 192.296 185.213 192.222 185.087C192.171 185.012 192.109 183.818 192.083 182.448C192.058 181.09 191.995 179.972 191.946 179.972C191.896 179.972 191.744 180.122 191.594 180.311C190.89 181.267 189.783 182.347 188.049 183.78C187.797 183.98 187.282 184.257 186.151 184.81C185.636 185.061 185.07 185.351 184.894 185.439C184.718 185.527 184.241 185.666 183.825 185.754C183.411 185.842 183.045 185.954 183.008 186.005C182.883 186.193 180.658 186.381 178.458 186.381C176.297 186.381 174.537 186.231 174.021 186.016C173.883 185.955 173.405 185.803 172.952 185.69C172.501 185.578 172.085 185.426 172.01 185.376C171.948 185.325 171.646 185.2 171.356 185.112C171.055 185.037 170.817 184.924 170.817 184.874C170.817 184.823 170.59 184.711 170.313 184.623C170.038 184.535 169.811 184.421 169.811 184.37C169.811 184.321 169.672 184.22 169.509 184.145C168.429 183.654 165.977 181.354 164.947 179.871C164.317 178.966 163.349 177.155 163.149 176.49C163.074 176.226 162.922 175.837 162.834 175.635C162.746 175.421 162.596 174.969 162.519 174.629C162.444 174.278 162.332 173.913 162.268 173.788C162.207 173.673 162.092 173.083 162.017 172.467C161.942 171.864 161.804 171.248 161.729 171.109C161.615 170.922 161.564 166.434 161.54 153.035L161.502 135.224H176.22L176.22 150.81Z" fill="white"/>
<path d="M132.792 163.016C132.178 163.078 131.549 163.178 131.41 163.241C131.272 163.317 130.82 163.43 130.404 163.518C130.003 163.593 129.462 163.744 129.211 163.857C127.325 164.674 126.407 165.215 125.78 165.868C125.176 166.498 124.572 167.666 124.472 168.395C124.446 168.646 124.358 168.973 124.283 169.111C124.145 169.401 124.195 170.293 124.422 171.461C124.673 172.731 125.679 174.278 126.57 174.743C128.155 175.559 128.456 175.685 129.337 175.824C130.919 176.061 133.937 175.925 134.59 175.572C134.703 175.509 135.169 175.295 135.621 175.094C136.074 174.881 136.664 174.54 136.941 174.327C137.218 174.113 137.531 173.862 137.645 173.774C138.361 173.235 139.681 171.047 139.857 170.142C139.895 169.916 139.996 169.652 140.071 169.551C140.158 169.438 140.221 168.281 140.247 166.207L140.297 163.04L139.618 162.965C138.7 162.851 134.176 162.89 132.792 163.016Z" fill="white"/>
</g>
<defs>
<clipPath id="clip0_350_65">
<rect width="256" height="256" fill="white"/>
</clipPath>
</defs>
</svg>
