<svg width="256" height="256" viewBox="0 0 256 256" fill="none" xmlns="http://www.w3.org/2000/svg">
<g clip-path="url(#clip0_350_68)">
<rect width="256" height="256" rx="60" fill="#242938"/>
<rect x="43" y="108" width="173" height="92" fill="white"/>
<path d="M116.259 28.3974C110.502 28.5343 106.278 28.7367 98.5351 29.2141C94.9538 29.4278 91.0445 29.7424 88.2915 30.0178C87.6005 30.0929 86.1549 30.2315 85.0866 30.3325C80.5994 30.7727 73.9371 31.6136 71.1349 32.0914C70.5431 32.1924 69.676 32.3309 69.1869 32.4061C68.7091 32.4695 67.8536 32.6193 67.3007 32.7207C66.7482 32.8217 65.8176 32.9978 65.2275 33.0971C63.1523 33.4493 59.6214 34.1663 57.623 34.6441C57.0688 34.7826 56.076 35.0205 55.4225 35.1724C54.7686 35.3222 54.179 35.4607 54.1038 35.4737C50.4195 36.3525 46.7618 38.1261 43.9466 40.4258C41.2062 42.6509 38.7562 46.2456 37.5239 49.8152C37.3236 50.3681 37.1212 50.9336 37.0594 51.0721C36.8458 51.5499 35.9152 55.5711 35.2483 58.8657C35.149 59.4182 34.9729 60.2349 34.8719 60.6881C34.7705 61.1396 34.6341 61.9316 34.5456 62.447C34.4692 62.9619 34.3695 63.5912 34.3061 63.8291C34.117 64.5469 33.3509 69.4481 32.8601 73.0052C32.3827 76.4497 32.0681 78.9518 31.7926 81.4899C31.6541 82.7334 31.5155 83.9528 31.4909 84.1923C31.4534 84.4302 31.3394 85.65 31.2268 86.8952C31.1258 88.1388 30.976 89.6599 30.8992 90.2891C30.635 92.6006 29.9811 102.67 29.6556 109.772C29.4044 115.037 29.2412 126.313 29.3293 132.459C29.4173 140.126 29.6047 146.977 29.7808 149.365C29.8447 150.332 29.9698 152.37 30.045 153.891C30.1201 155.411 30.2211 157.359 30.2845 158.226C30.5733 162.576 30.7999 165.428 30.9121 166.333C30.976 166.887 31.1258 168.358 31.2268 169.588C31.3278 170.821 31.478 172.291 31.5414 172.857C31.6165 173.423 31.7551 174.641 31.8544 175.572C32.169 178.551 32.4086 180.499 32.6093 181.794C32.7103 182.486 32.8864 183.667 32.9857 184.434C33.3509 187.198 33.7778 189.888 34.2426 192.353C34.3436 192.905 34.5068 193.836 34.6207 194.426C34.8344 195.683 35.3247 198.185 35.6769 199.768C36.8829 205.312 37.4112 206.97 38.8313 209.698C39.2207 210.452 39.7231 211.332 39.9497 211.646C40.1629 211.961 40.4776 212.413 40.6407 212.652C41.3577 213.72 43.4071 215.806 44.5384 216.612C44.7257 216.749 45.0909 217.012 45.3288 217.202C45.5816 217.402 45.8195 217.554 45.8829 217.554C45.9334 217.554 46.059 217.642 46.1584 217.743C46.6491 218.221 50.1065 219.867 51.5883 220.307C51.8654 220.395 52.2047 220.507 52.3432 220.571C52.6708 220.722 54.5174 221.186 56.7429 221.69C57.711 221.916 58.7038 222.154 58.9421 222.218C59.5204 222.368 63.1652 223.096 65.9186 223.6C67.5014 223.888 70.5824 224.379 72.517 224.656C73.246 224.756 74.1766 224.894 74.591 224.969C76.1117 225.233 82.3971 225.964 86.3436 226.34C87.7636 226.479 89.5109 226.642 90.2395 226.717C91.4213 226.842 92.6277 226.943 98.4095 227.357C99.2767 227.421 101.251 227.534 102.809 227.61C104.368 227.685 106.542 227.798 107.649 227.861C116.598 228.376 142.189 228.376 151.013 227.861C152.12 227.786 154.294 227.685 155.853 227.61C158.529 227.485 159.51 227.421 163.708 227.106C169.087 226.692 176.995 225.924 179.672 225.548C180.438 225.435 181.758 225.259 182.625 225.145C185.83 224.731 190.23 224.065 192.743 223.6C195.497 223.096 199.141 222.368 199.72 222.218C199.958 222.154 200.951 221.916 201.919 221.69C204.094 221.199 205.98 220.722 206.319 220.571C206.736 220.421 207.155 220.274 207.576 220.131C208.606 219.792 212.026 218.17 212.314 217.893C212.402 217.805 212.653 217.618 212.867 217.49C213.848 216.876 214.3 216.524 215.193 215.718C216.199 214.8 217.594 213.293 217.933 212.778C218.046 212.602 218.347 212.175 218.598 211.835C218.862 211.484 219.076 211.169 219.076 211.118C219.076 211.068 219.278 210.716 219.516 210.339C219.756 209.963 220.044 209.408 220.159 209.107C220.284 208.818 220.409 208.504 220.46 208.442C220.698 208.127 221.578 205.625 221.955 204.205C222.546 202.006 223.651 196.815 224.054 194.362C224.155 193.735 224.268 193.145 224.305 193.044C224.419 192.767 225.111 188.455 225.738 184.057C225.876 183.089 226.015 182.121 226.053 181.92C226.154 181.341 226.606 177.483 226.808 175.447C226.907 174.441 227.045 173.284 227.12 172.87C227.197 172.454 227.334 171.098 227.435 169.852C227.536 168.609 227.675 167.075 227.737 166.459C227.812 165.831 227.926 164.398 228.001 163.254C228.076 162.109 228.19 160.703 228.252 160.111C228.328 159.521 228.465 157.346 228.566 155.273C228.68 153.198 228.806 150.646 228.881 149.617C229.447 140.478 229.447 116.496 228.881 107.069C228.817 106 228.705 103.902 228.63 102.419C228.554 100.935 228.441 98.9741 228.377 98.0811C228.302 97.1763 228.14 94.9513 228.001 93.1172C227.862 91.2819 227.723 89.5589 227.686 89.2834C227.648 89.0059 227.536 87.787 227.435 86.5806C227.334 85.3746 227.221 84.2428 227.184 84.0671C227.146 83.891 227.008 82.7334 226.869 81.4899C226.544 78.4853 226.141 75.1681 226.053 74.7788C226.015 74.6027 225.876 73.597 225.738 72.565C225.122 67.8653 223.979 61.3157 222.998 56.8543C222.859 56.225 222.634 55.2076 222.496 54.5917C222.144 52.9825 221.728 51.3609 221.591 51.0721C221.528 50.9336 221.415 50.5947 221.327 50.3176C221.05 49.3883 219.654 46.2831 219.303 45.7924C219.252 45.7172 218.851 45.1272 218.422 44.4737C217.53 43.1287 215.244 40.7405 213.873 39.7348C211.159 37.7363 208.141 36.3784 204.245 35.4232C203.574 35.2591 202.904 35.0912 202.234 34.9195C201.769 34.7826 200.838 34.5806 198.84 34.1663C198.274 34.0475 197.708 33.9258 197.143 33.8011C194.717 33.211 186.823 31.9282 181.683 31.2747C180.651 31.1491 179.634 31.0106 179.42 30.9618C179.042 30.885 177.22 30.6976 173.513 30.3325C172.481 30.2315 171.061 30.0813 170.37 30.0178C169.679 29.9427 168.434 29.83 167.606 29.7537C166.776 29.6919 165.418 29.5776 164.589 29.5158C161.773 29.2763 153.955 28.8247 149.631 28.6353C141.271 28.2706 125.836 28.1579 116.259 28.3974ZM60.8784 113.329C60.9535 113.391 61.3186 113.505 61.6821 113.593C62.3619 113.756 63.3171 114.196 64.0324 114.674C64.5982 115.05 65.9315 116.483 66.194 116.987C66.3213 117.238 66.4581 117.464 66.4957 117.502C66.5349 117.54 66.6472 117.79 66.7482 118.067C66.8362 118.343 66.9485 118.633 67.0123 118.695C67.1751 118.935 67.3645 120.429 67.3645 121.537C67.3645 122.617 67.1997 123.887 66.9864 124.352C66.3083 125.91 65.9807 126.425 65.1265 127.331C64.3341 128.148 64.0081 128.399 62.9273 128.927C62.0468 129.367 61.4179 129.594 60.9159 129.643C60.5132 129.693 60.161 129.781 60.1235 129.832C60.0358 129.984 57.3083 129.984 57.3083 129.832C57.3083 129.781 56.9937 129.693 56.591 129.643C56.2016 129.594 55.7125 129.48 55.4989 129.392C55.2264 129.269 54.9497 129.156 54.6693 129.053C54.4298 128.965 54.2032 128.864 54.1656 128.826C54.128 128.776 53.939 128.663 53.7253 128.562C52.9967 128.198 51.4886 126.526 51.0487 125.608C50.8092 125.118 50.5843 124.64 50.5209 124.541C50.0935 123.685 50.0184 119.789 50.4195 118.884C50.5338 118.645 50.6965 118.244 50.7846 118.004C50.8726 117.766 50.9736 117.539 51.0112 117.502C51.0487 117.464 51.199 117.212 51.3375 116.936C51.5771 116.47 53.0718 114.861 53.2855 114.861C53.3356 114.861 53.4499 114.773 53.538 114.661C53.7758 114.396 54.9952 113.806 55.7372 113.618C56.089 113.529 56.4787 113.404 56.6173 113.34C56.7558 113.278 57.0947 113.215 57.3705 113.177C58.112 113.102 60.7152 113.215 60.8784 113.329ZM197.834 122.089V128.436H173.45V119.94L174.808 119.725C177.812 119.261 179.685 118.946 179.797 118.871C179.872 118.821 180.488 118.721 181.179 118.633C181.87 118.545 182.5 118.431 182.562 118.38C182.638 118.332 183.228 118.218 183.882 118.13C184.536 118.055 185.39 117.903 185.769 117.803C186.145 117.716 186.937 117.577 187.527 117.502C188.119 117.425 188.709 117.313 188.847 117.262C188.986 117.2 189.614 117.086 190.23 116.998C190.859 116.923 191.562 116.811 191.801 116.734C192.039 116.672 192.945 116.496 193.812 116.357C194.68 116.219 195.811 116.032 196.326 115.943C196.841 115.842 197.394 115.767 197.557 115.754L197.834 115.741V122.089ZM93.7591 127.695V135.224H106.328V146.412H93.7474L93.7966 158.064C93.8354 170.62 93.8091 170.004 94.4893 171.549C95.0043 172.744 96.4615 173.963 97.7184 174.265C97.9321 174.316 98.1716 174.415 98.2726 174.492C98.5105 174.679 103.602 174.679 103.828 174.479C103.928 174.404 104.381 174.303 104.858 174.252L105.701 174.164V185.188L105.361 185.339C105.048 185.477 103.602 185.703 101.616 185.942C98.788 186.269 93.6334 186.307 93.3317 185.992C93.2566 185.93 93.0563 185.879 92.8673 185.879C92.3765 185.879 90.3405 185.501 90.189 185.389C90.1139 185.339 89.7751 185.213 89.4228 185.138C89.084 185.05 88.7447 184.936 88.6684 184.887C88.6062 184.823 88.3178 184.711 88.0407 184.623C87.7636 184.535 87.5124 184.421 87.4749 184.383C87.4373 184.345 87.2107 184.207 86.9712 184.068C85.9279 183.516 85.6149 183.316 85.0608 182.849C84.7348 182.585 84.4331 182.36 84.3697 182.36C84.2441 182.347 83.2889 181.304 82.5356 180.349C81.9573 179.607 81.1014 178.187 80.8126 177.457C80.7116 177.219 80.5993 176.992 80.5618 176.955C80.5113 176.917 80.3857 176.528 80.2601 176.074C80.1462 175.623 79.9959 175.145 79.9325 175.007C79.8707 174.868 79.7188 174.303 79.6195 173.75C79.513 173.225 79.3995 172.701 79.279 172.179C79.1909 171.802 79.1288 167.376 79.0912 159.006L79.0411 146.412H71.7625V135.224H79.0541V122.553L79.9079 122.466C80.3728 122.417 80.8126 122.329 80.876 122.278C80.9511 122.228 81.5675 122.115 82.2586 122.027C82.9496 121.939 83.5789 121.812 83.6411 121.763C83.7162 121.713 84.5082 121.574 85.4013 121.461C86.306 121.334 87.0985 121.197 87.1602 121.147C87.2353 121.096 87.651 121.008 88.1025 120.971C88.6932 120.9 89.2806 120.804 89.8631 120.682C91.2081 120.405 93.5583 120.04 93.671 120.103C93.7215 120.128 93.7591 123.548 93.7591 127.695ZM135.427 134.029C137.186 134.13 139.174 134.357 139.323 134.47C139.398 134.52 139.7 134.608 140.015 134.646C140.732 134.76 142.479 135.275 143.534 135.702C144.414 136.054 146.375 137.034 146.677 137.286C146.778 137.362 147.003 137.511 147.179 137.588C147.355 137.676 147.909 138.114 148.398 138.543C148.889 138.983 149.342 139.36 149.404 139.384C149.593 139.472 151.83 142.188 151.83 142.338C151.83 142.375 151.944 142.578 152.082 142.765C152.346 143.143 153.465 145.318 153.465 145.456C153.465 145.505 153.566 145.782 153.702 146.071C153.828 146.361 153.979 146.801 154.03 147.039C154.08 147.279 154.169 147.53 154.218 147.605C154.268 147.669 154.382 148.07 154.47 148.485C154.545 148.899 154.646 149.328 154.684 149.427C154.734 149.528 154.847 150.068 154.948 150.622C155.098 151.452 155.135 154.582 155.186 168.433L155.236 185.25H141.524L141.511 183.767C141.498 182.963 141.46 181.794 141.41 181.178L141.335 180.047L140.97 180.549C140.393 181.317 138.494 183.126 137.74 183.629C136.093 184.711 135.654 184.973 135.201 185.125C134.924 185.2 134.56 185.352 134.384 185.45C134.195 185.539 133.731 185.69 133.353 185.766C132.976 185.853 132.599 185.968 132.536 186.016C131.895 186.494 123.976 186.482 123.36 186.005C123.298 185.955 122.845 185.842 122.354 185.754C121.877 185.666 121.311 185.527 121.098 185.426C120.897 185.339 120.356 185.112 119.917 184.936C119.412 184.716 118.917 184.473 118.434 184.207C118.1 184.001 117.76 183.804 117.415 183.617C116.887 183.327 116.711 183.164 115.278 181.731C113.808 180.26 113.619 180.06 113.619 179.922C113.619 179.871 113.455 179.594 113.268 179.305C113.066 179.017 112.777 178.489 112.625 178.148C112.476 177.798 112.274 177.382 112.186 177.206C112.086 177.03 111.948 176.578 111.86 176.2C111.772 175.823 111.659 175.447 111.608 175.383C111.47 175.207 111.23 173.422 111.23 172.643C111.23 172.28 111.169 171.914 111.093 171.84C110.942 171.688 110.979 171.186 111.369 168.155C111.444 167.565 111.558 167.024 111.608 166.962C111.659 166.887 111.771 166.56 111.846 166.221C112.009 165.567 112.35 164.713 112.702 164.07C112.815 163.857 112.965 163.568 113.041 163.417C113.117 163.254 113.218 163.128 113.279 163.128C113.33 163.128 113.367 163.053 113.367 162.965C113.367 162.827 114.75 161.029 114.989 160.866C115.04 160.828 115.128 160.703 115.166 160.577C115.216 160.438 115.366 160.313 115.504 160.276C115.643 160.238 115.756 160.161 115.756 160.111C115.756 159.986 117.868 158.326 118.584 157.912C119.099 157.597 120.256 157.007 121.94 156.202C122.18 156.077 124.529 155.323 125.561 155.034C125.937 154.921 126.679 154.769 127.194 154.694C127.709 154.606 128.2 154.505 128.263 154.456C128.338 154.406 129.091 154.292 129.96 154.216C130.827 154.141 131.895 154.016 132.348 153.952C134.133 153.689 140.404 153.739 141.071 154.016C141.298 154.115 141.309 154.066 141.221 152.997C141.172 152.381 141.084 151.853 141.033 151.815C140.97 151.778 140.895 151.54 140.844 151.287C140.756 150.823 140.279 149.806 139.827 149.113C139.537 148.674 138.318 147.416 138.179 147.416C138.13 147.416 137.917 147.29 137.702 147.127C137.149 146.725 136.257 146.324 135.716 146.223C135.452 146.172 135.238 146.084 135.238 146.034C135.238 145.481 127.119 145.393 124.681 145.934C124.366 145.996 123.637 146.134 123.047 146.236C122.455 146.335 121.865 146.473 121.726 146.537C121.588 146.599 121.136 146.713 120.721 146.788C120.307 146.863 119.854 146.977 119.715 147.039C119.576 147.103 119.074 147.241 118.597 147.354C118.119 147.467 117.666 147.592 117.591 147.655C117.516 147.706 117.177 147.831 116.825 147.919C116.486 148.007 116.134 148.133 116.07 148.184C115.995 148.234 115.656 148.346 115.315 148.435C114.965 148.51 114.474 148.686 114.223 148.811C113.959 148.95 113.72 149.051 113.682 149.051C113.644 149.051 113.619 146.423 113.619 143.218C113.619 138.68 113.657 137.361 113.783 137.26C113.871 137.185 114.223 137.06 114.562 136.972C114.914 136.897 115.254 136.783 115.315 136.732C115.392 136.682 115.806 136.532 116.259 136.418C116.711 136.292 117.138 136.155 117.202 136.105C117.277 136.041 117.666 135.94 118.069 135.853C118.484 135.766 118.912 135.651 119.011 135.589C119.125 135.539 119.64 135.4 120.155 135.288C120.556 135.21 120.954 135.122 121.35 135.024C121.487 134.985 122.191 134.872 122.92 134.771C123.65 134.672 124.416 134.533 124.617 134.47C125.347 134.244 131.932 133.829 133.416 133.917C133.83 133.941 134.736 133.992 135.427 134.03V134.029ZM66.1059 160.238V185.25H51.401V135.224H66.1059V160.238ZM177.22 150.81C177.22 165.692 177.283 168.571 177.585 168.974C177.647 169.036 177.724 169.287 177.774 169.527C177.95 170.468 178.767 171.84 179.696 172.769C180.187 173.272 180.739 173.712 180.915 173.761C181.104 173.801 181.243 173.876 181.243 173.926C181.243 173.975 181.683 174.151 182.223 174.327C183.028 174.58 183.455 174.629 184.712 174.629C185.592 174.629 186.358 174.567 186.534 174.492C186.697 174.404 187.087 174.278 187.401 174.19C187.716 174.102 188.282 173.838 188.658 173.585C189.362 173.134 190.67 171.928 190.67 171.725C190.67 171.664 190.846 171.386 191.047 171.122C191.26 170.845 191.425 170.57 191.425 170.495C191.425 170.418 191.537 170.154 191.663 169.903C191.801 169.652 191.951 169.225 192.002 168.961C192.039 168.684 192.127 168.408 192.191 168.345C192.505 167.942 192.556 165.404 192.556 150.659V135.224H207.261V185.251H200.298C194.856 185.251 193.296 185.213 193.222 185.087C193.171 185.012 193.109 183.818 193.083 182.448C193.058 181.09 192.995 179.972 192.946 179.972C192.896 179.972 192.744 180.122 192.594 180.311C191.89 181.267 190.783 182.347 189.049 183.78C188.797 183.98 188.282 184.257 187.151 184.81C186.636 185.061 186.07 185.351 185.894 185.439C185.718 185.527 185.241 185.666 184.825 185.754C184.411 185.842 184.045 185.954 184.008 186.005C183.883 186.193 181.658 186.381 179.458 186.381C177.297 186.381 175.537 186.231 175.021 186.016C174.883 185.955 174.405 185.803 173.952 185.69C173.501 185.578 173.085 185.426 173.01 185.376C172.948 185.325 172.646 185.2 172.356 185.112C172.055 185.037 171.817 184.924 171.817 184.874C171.817 184.823 171.59 184.711 171.313 184.623C171.038 184.535 170.811 184.421 170.811 184.37C170.811 184.321 170.672 184.22 170.509 184.145C169.429 183.654 166.977 181.354 165.947 179.871C165.317 178.966 164.349 177.155 164.149 176.49C164.074 176.226 163.922 175.837 163.834 175.635C163.746 175.421 163.596 174.969 163.519 174.629C163.444 174.278 163.332 173.913 163.268 173.788C163.207 173.673 163.092 173.083 163.017 172.467C162.942 171.864 162.804 171.248 162.729 171.109C162.615 170.922 162.564 166.434 162.54 153.035L162.502 135.224H177.22L177.22 150.81Z" fill="#FF6200"/>
<path d="M133.792 163.016C133.178 163.078 132.549 163.178 132.41 163.241C132.272 163.317 131.82 163.43 131.404 163.518C131.003 163.593 130.462 163.744 130.211 163.857C128.325 164.674 127.407 165.215 126.78 165.868C126.176 166.498 125.572 167.666 125.472 168.395C125.446 168.646 125.358 168.973 125.283 169.111C125.145 169.401 125.195 170.293 125.422 171.461C125.673 172.731 126.679 174.278 127.57 174.743C129.155 175.559 129.456 175.685 130.337 175.824C131.919 176.061 134.937 175.925 135.59 175.572C135.703 175.509 136.169 175.295 136.621 175.094C137.074 174.881 137.664 174.54 137.941 174.327C138.218 174.113 138.531 173.862 138.645 173.774C139.361 173.235 140.681 171.047 140.857 170.142C140.895 169.916 140.996 169.652 141.071 169.551C141.158 169.438 141.221 168.281 141.247 166.207L141.297 163.04L140.618 162.965C139.7 162.851 135.176 162.89 133.792 163.016Z" fill="#FF6200"/>
</g>
<defs>
<clipPath id="clip0_350_68">
<rect width="256" height="256" fill="white"/>
</clipPath>
</defs>
</svg>
