<svg width="256" height="848" viewBox="0 0 256 848" fill="none" xmlns="http://www.w3.org/2000/svg">
<g clip-path="url(#clip0_208_1230)">
<path d="M196 0H60C26.8629 0 0 26.8629 0 60V196C0 229.137 26.8629 256 60 256H196C229.137 256 256 229.137 256 196V60C256 26.8629 229.137 0 196 0Z" fill="#F0DB4F"/>
<path d="M67.3117 213.932L86.9027 202.076C90.6821 208.777 94.1202 214.447 102.367 214.447C110.272 214.447 115.256 211.355 115.256 199.327V117.529H139.314V199.667C139.314 224.584 124.708 235.926 103.398 235.926C84.1533 235.926 72.9819 225.959 67.3113 213.93" fill="#323330"/>
<path d="M152.381 211.353L171.969 200.012C177.126 208.433 183.828 214.619 195.684 214.619C205.653 214.619 212.009 209.635 212.009 202.761C212.009 194.513 205.479 191.591 194.481 186.781L188.468 184.202C171.111 176.814 159.597 167.534 159.597 147.944C159.597 129.9 173.345 116.152 194.826 116.152C210.12 116.152 221.118 121.48 229.022 135.399L210.291 147.428C206.166 140.039 201.7 137.118 194.826 137.118C187.78 137.118 183.312 141.586 183.312 147.428C183.312 154.645 187.78 157.567 198.09 162.036L204.104 164.613C224.553 173.378 236.067 182.312 236.067 202.417C236.067 224.071 219.055 235.927 196.2 235.927C173.861 235.927 159.426 225.273 152.381 211.353Z" fill="#323330"/>
</g>
<g clip-path="url(#clip1_208_1230)">
<rect y="296" width="256" height="256" rx="60" fill="#242938"/>
<path d="M181.125 324H74.875C48.9867 324 28 344.987 28 370.875V477.125C28 503.013 48.9867 524 74.875 524H181.125C207.013 524 228 503.013 228 477.125V370.875C228 344.987 207.013 324 181.125 324Z" fill="#F0DB4F"/>
<path d="M80.5875 491.134L95.8921 481.871C98.8453 487.107 101.531 491.536 107.974 491.536C114.15 491.536 118.044 489.121 118.044 479.724V415.819H136.839V479.989C136.839 499.456 125.428 508.317 108.78 508.317C93.7445 508.317 85.0171 500.53 80.5867 491.132M147.048 489.12L162.351 480.26C166.38 486.839 171.616 491.671 180.878 491.671C188.666 491.671 193.632 487.778 193.632 482.407C193.632 475.964 188.53 473.681 179.938 469.923L175.241 467.908C161.68 462.136 152.685 454.886 152.685 439.582C152.685 425.485 163.426 414.744 180.208 414.744C192.156 414.744 200.748 418.907 206.923 429.781L192.29 439.179C189.067 433.406 185.578 431.124 180.208 431.124C174.703 431.124 171.212 434.614 171.212 439.179C171.212 444.817 174.703 447.1 182.758 450.591L187.456 452.604C203.432 459.452 212.427 466.432 212.427 482.139C212.427 499.056 199.137 508.318 181.281 508.318C163.829 508.318 152.552 499.995 147.048 489.12Z" fill="#323330"/>
</g>
<g clip-path="url(#clip2_208_1230)">
<rect y="592" width="256" height="256" rx="60" fill="white"/>
<path d="M181.125 620H74.875C48.9867 620 28 640.987 28 666.875V773.125C28 799.013 48.9867 820 74.875 820H181.125C207.013 820 228 799.013 228 773.125V666.875C228 640.987 207.013 620 181.125 620Z" fill="#F0DB4F"/>
<path d="M80.5875 787.134L95.8921 777.871C98.8453 783.107 101.531 787.536 107.974 787.536C114.15 787.536 118.044 785.121 118.044 775.724V711.819H136.839V775.989C136.839 795.456 125.428 804.317 108.78 804.317C93.7445 804.317 85.0171 796.53 80.5867 787.132M147.048 785.12L162.351 776.26C166.38 782.839 171.616 787.671 180.878 787.671C188.666 787.671 193.632 783.778 193.632 778.407C193.632 771.964 188.53 769.681 179.938 765.923L175.241 763.908C161.68 758.136 152.685 750.886 152.685 735.582C152.685 721.485 163.426 710.744 180.208 710.744C192.156 710.744 200.748 714.907 206.923 725.781L192.29 735.179C189.067 729.406 185.578 727.124 180.208 727.124C174.703 727.124 171.212 730.614 171.212 735.179C171.212 740.817 174.703 743.1 182.758 746.591L187.456 748.604C203.432 755.452 212.427 762.432 212.427 778.139C212.427 795.056 199.137 804.318 181.281 804.318C163.829 804.318 152.552 795.995 147.048 785.12Z" fill="#323330"/>
</g>
<defs>
<clipPath id="clip0_208_1230">
<rect width="256" height="256" fill="white"/>
</clipPath>
<clipPath id="clip1_208_1230">
<rect width="256" height="256" fill="white" transform="translate(0 296)"/>
</clipPath>
<clipPath id="clip2_208_1230">
<rect width="256" height="256" fill="white" transform="translate(0 592)"/>
</clipPath>
</defs>
</svg>
