<svg width="256" height="256" viewBox="0 0 256 256" fill="none" xmlns="http://www.w3.org/2000/svg">
<g clip-path="url(#clip0_248_5592)">
<rect width="256" height="256" rx="60" fill="white"/>
<path d="M101.503 182.67C101.503 182.67 93.8648 187.115 106.945 188.614C122.795 190.425 130.894 190.165 148.355 186.865C148.355 186.865 152.955 189.741 159.367 192.234C120.21 209.009 70.751 191.261 101.503 182.67ZM96.7152 160.775C96.7152 160.775 88.1464 167.119 101.238 168.474C118.169 170.222 131.537 170.365 154.679 165.911C154.679 165.911 157.873 169.155 162.902 170.927C115.569 184.77 62.8487 172.017 96.7152 160.775Z" fill="#0074BD"/>
<path d="M137.048 123.629C146.702 134.741 134.517 144.731 134.517 144.731C134.517 144.731 159.013 132.087 147.766 116.248C137.257 101.483 129.201 94.1496 172.817 68.8535C172.817 68.8551 104.351 85.9494 137.048 123.629Z" fill="#EA2D2E"/>
<path d="M188.834 198.867C188.834 198.867 194.488 203.529 182.605 207.133C160.01 213.977 88.5437 216.041 68.6952 207.407C61.5636 204.301 74.9423 199.996 79.1514 199.088C83.5399 198.138 86.0458 198.311 86.0458 198.311C78.1099 192.724 34.7534 209.286 64.0263 214.037C143.851 226.976 209.536 208.209 188.834 198.867ZM105.18 138.086C105.18 138.086 68.8314 146.72 92.3089 149.859C102.224 151.186 121.979 150.881 140.394 149.337C155.439 148.073 170.536 145.373 170.536 145.373C170.536 145.373 165.236 147.646 161.397 150.264C124.479 159.976 53.1759 155.452 73.7054 145.525C91.0608 137.131 105.18 138.086 105.18 138.086ZM170.386 174.532C207.912 155.038 190.56 136.303 178.448 138.826C175.487 139.443 174.159 139.98 174.159 139.98C174.159 139.98 175.261 138.251 177.364 137.507C201.322 129.088 219.744 162.347 169.636 175.52C169.636 175.517 170.211 174.997 170.386 174.532Z" fill="#0074BD"/>
<path d="M147.766 28.001C147.766 28.001 168.543 48.7916 128.053 80.7514C95.5825 106.397 120.649 121.016 128.042 137.725C109.086 120.625 95.1819 105.568 104.508 91.5568C118.204 70.9938 156.147 61.0198 147.766 28.001Z" fill="#EA2D2E"/>
<path d="M108.868 227.373C144.88 229.676 200.195 226.092 201.504 209.05C201.504 209.05 198.987 215.511 171.74 220.636C140.999 226.423 103.077 225.749 80.5933 222.036C80.5933 222.038 85.1997 225.851 108.868 227.373Z" fill="#0074BD"/>
</g>
<defs>
<clipPath id="clip0_248_5592">
<rect width="256" height="256" fill="white"/>
</clipPath>
</defs>
</svg>
