<svg width="256" height="256" viewBox="0 0 256 256" fill="none" xmlns="http://www.w3.org/2000/svg">
<g clip-path="url(#clip0_248_5611)">
<rect width="256" height="256" rx="60" fill="white"/>
<path d="M181.125 28H74.875C48.9867 28 28 48.9867 28 74.875V181.125C28 207.013 48.9867 228 74.875 228H181.125C207.013 228 228 207.013 228 181.125V74.875C228 48.9867 207.013 28 181.125 28Z" fill="#F0DB4F"/>
<path d="M80.5875 195.134L95.8921 185.871C98.8453 191.107 101.531 195.536 107.974 195.536C114.15 195.536 118.044 193.121 118.044 183.724V119.819H136.839V183.989C136.839 203.456 125.428 212.317 108.78 212.317C93.7445 212.317 85.0171 204.53 80.5867 195.132M147.048 193.12L162.351 184.26C166.38 190.839 171.616 195.671 180.878 195.671C188.666 195.671 193.632 191.778 193.632 186.407C193.632 179.964 188.53 177.681 179.938 173.923L175.241 171.908C161.68 166.136 152.685 158.886 152.685 143.582C152.685 129.485 163.426 118.744 180.208 118.744C192.156 118.744 200.748 122.907 206.923 133.781L192.29 143.179C189.067 137.406 185.578 135.124 180.208 135.124C174.703 135.124 171.212 138.614 171.212 143.179C171.212 148.817 174.703 151.1 182.758 154.591L187.456 156.604C203.432 163.452 212.427 170.432 212.427 186.139C212.427 203.056 199.137 212.318 181.281 212.318C163.829 212.318 152.552 203.995 147.048 193.12Z" fill="#323330"/>
</g>
<defs>
<clipPath id="clip0_248_5611">
<rect width="256" height="256" fill="white"/>
</clipPath>
</defs>
</svg>
