<svg width="256" height="848" viewBox="0 0 256 848" fill="none" xmlns="http://www.w3.org/2000/svg">
<g clip-path="url(#clip0_211_3204)">
<path d="M196 0H60C26.8629 0 0 26.8629 0 60V196C0 229.137 26.8629 256 60 256H196C229.137 256 256 229.137 256 196V60C256 26.8629 229.137 0 196 0Z" fill="#EB3436"/>
<path d="M101.472 182.256C101.472 182.256 93.8341 186.7 106.915 188.2C122.764 190.011 130.863 189.751 148.324 186.451C148.324 186.451 152.925 189.327 159.337 191.82C120.18 208.595 70.7202 190.847 101.472 182.256ZM96.6844 160.361C96.6844 160.361 88.1157 166.705 101.208 168.06C118.138 169.808 131.506 169.951 154.649 165.496C154.649 165.496 157.842 168.741 162.871 170.513C115.538 184.356 62.818 171.603 96.6844 160.361Z" fill="white"/>
<path d="M137.018 123.215C146.671 134.327 134.486 144.317 134.486 144.317C134.486 144.317 158.983 131.673 147.735 115.834C137.226 101.069 129.17 93.7355 172.786 68.4395C172.786 68.4411 104.321 85.5353 137.018 123.215Z" fill="white"/>
<path d="M188.803 198.453C188.803 198.453 194.458 203.115 182.574 206.719C159.979 213.563 88.5129 215.627 68.6644 206.993C61.5329 203.887 74.9115 199.582 79.1206 198.674C83.5091 197.724 86.015 197.897 86.015 197.897C78.0792 192.31 34.7227 208.872 63.9955 213.623C143.82 226.562 209.506 207.795 188.803 198.453ZM105.149 137.672C105.149 137.672 68.8006 146.306 92.2782 149.445C102.193 150.772 121.948 150.467 140.363 148.923C155.408 147.659 170.506 144.959 170.506 144.959C170.506 144.959 165.206 147.232 161.367 149.85C124.448 159.562 53.1452 155.038 73.6746 145.111C91.03 136.717 105.149 137.672 105.149 137.672ZM170.355 174.118C207.881 154.623 190.529 135.889 178.418 138.412C175.457 139.029 174.128 139.566 174.128 139.566C174.128 139.566 175.231 137.837 177.333 137.093C201.291 128.674 219.714 161.933 169.605 175.106C169.605 175.103 170.18 174.582 170.355 174.118Z" fill="white"/>
<path d="M147.735 27.5869C147.735 27.5869 168.513 48.3775 128.023 80.3373C95.5517 105.983 120.619 120.601 128.011 137.311C109.055 120.211 95.1511 105.154 104.478 91.1428C118.174 70.5797 156.116 60.6058 147.735 27.5869Z" fill="white"/>
<path d="M108.837 226.959C144.849 229.262 200.165 225.678 201.474 208.636C201.474 208.636 198.956 215.096 171.709 220.222C140.968 226.009 103.047 225.335 80.5625 221.622C80.5625 221.624 85.1689 225.437 108.837 226.959Z" fill="white"/>
</g>
<g clip-path="url(#clip1_211_3204)">
<rect y="296" width="256" height="256" rx="60" fill="#242938"/>
<path d="M101.472 478.256C101.472 478.256 93.8341 482.7 106.915 484.2C122.764 486.011 130.863 485.751 148.324 482.451C148.324 482.451 152.925 485.327 159.337 487.82C120.18 504.595 70.7202 486.847 101.472 478.256ZM96.6844 456.361C96.6844 456.361 88.1157 462.705 101.208 464.06C118.138 465.808 131.506 465.951 154.649 461.496C154.649 461.496 157.842 464.741 162.871 466.513C115.538 480.356 62.818 467.603 96.6844 456.361Z" fill="#0074BD"/>
<path d="M137.018 419.215C146.671 430.327 134.486 440.317 134.486 440.317C134.486 440.317 158.983 427.673 147.735 411.834C137.226 397.069 129.17 389.736 172.786 364.439C172.786 364.441 104.321 381.535 137.018 419.215Z" fill="#EA2D2E"/>
<path d="M188.803 494.453C188.803 494.453 194.458 499.115 182.574 502.719C159.979 509.563 88.5129 511.627 68.6644 502.993C61.5329 499.887 74.9115 495.582 79.1206 494.674C83.5091 493.724 86.015 493.897 86.015 493.897C78.0792 488.31 34.7227 504.872 63.9955 509.623C143.82 522.562 209.506 503.795 188.803 494.453ZM105.149 433.672C105.149 433.672 68.8006 442.306 92.2782 445.445C102.193 446.772 121.948 446.467 140.363 444.923C155.408 443.659 170.506 440.959 170.506 440.959C170.506 440.959 165.206 443.232 161.367 445.85C124.448 455.562 53.1452 451.038 73.6746 441.111C91.03 432.717 105.149 433.672 105.149 433.672ZM170.355 470.118C207.881 450.623 190.529 431.889 178.418 434.412C175.457 435.029 174.128 435.566 174.128 435.566C174.128 435.566 175.231 433.837 177.333 433.093C201.291 424.674 219.714 457.933 169.605 471.106C169.605 471.103 170.18 470.582 170.355 470.118Z" fill="#0074BD"/>
<path d="M147.735 323.587C147.735 323.587 168.513 344.378 128.023 376.337C95.5517 401.983 120.619 416.601 128.011 433.311C109.055 416.211 95.1511 401.154 104.478 387.143C118.174 366.58 156.116 356.606 147.735 323.587Z" fill="#EA2D2E"/>
<path d="M108.837 522.959C144.849 525.262 200.165 521.678 201.474 504.636C201.474 504.636 198.956 511.096 171.709 516.222C140.968 522.009 103.047 521.335 80.5625 517.622C80.5625 517.624 85.1689 521.437 108.837 522.959Z" fill="#0074BD"/>
</g>
<g clip-path="url(#clip2_211_3204)">
<rect y="592" width="256" height="256" rx="60" fill="white"/>
<path d="M101.503 774.67C101.503 774.67 93.8648 779.115 106.945 780.614C122.795 782.425 130.894 782.165 148.355 778.865C148.355 778.865 152.955 781.741 159.367 784.234C120.21 801.009 70.751 783.261 101.503 774.67ZM96.7152 752.775C96.7152 752.775 88.1464 759.119 101.238 760.474C118.169 762.222 131.537 762.365 154.679 757.911C154.679 757.911 157.873 761.155 162.902 762.927C115.569 776.77 62.8487 764.017 96.7152 752.775Z" fill="#0074BD"/>
<path d="M137.048 715.629C146.702 726.741 134.517 736.731 134.517 736.731C134.517 736.731 159.013 724.087 147.766 708.248C137.257 693.483 129.201 686.15 172.817 660.854C172.817 660.855 104.351 677.949 137.048 715.629Z" fill="#EA2D2E"/>
<path d="M188.834 790.867C188.834 790.867 194.488 795.529 182.605 799.133C160.01 805.977 88.5437 808.041 68.6952 799.407C61.5636 796.301 74.9423 791.996 79.1514 791.088C83.5399 790.138 86.0458 790.311 86.0458 790.311C78.1099 784.724 34.7534 801.286 64.0263 806.037C143.851 818.976 209.536 800.209 188.834 790.867ZM105.18 730.086C105.18 730.086 68.8314 738.72 92.3089 741.859C102.224 743.186 121.979 742.881 140.394 741.337C155.439 740.073 170.536 737.373 170.536 737.373C170.536 737.373 165.236 739.646 161.397 742.264C124.479 751.976 53.1759 747.452 73.7054 737.525C91.0608 729.131 105.18 730.086 105.18 730.086ZM170.386 766.532C207.912 747.038 190.56 728.303 178.448 730.826C175.487 731.443 174.159 731.98 174.159 731.98C174.159 731.98 175.261 730.251 177.364 729.507C201.322 721.088 219.744 754.347 169.636 767.52C169.636 767.517 170.211 766.997 170.386 766.532Z" fill="#0074BD"/>
<path d="M147.766 620.001C147.766 620.001 168.543 640.792 128.053 672.751C95.5825 698.397 120.649 713.016 128.042 729.725C109.086 712.625 95.1819 697.568 104.508 683.557C118.204 662.994 156.147 653.02 147.766 620.001Z" fill="#EA2D2E"/>
<path d="M108.868 819.373C144.88 821.676 200.195 818.092 201.504 801.05C201.504 801.05 198.987 807.511 171.74 812.636C140.999 818.423 103.077 817.749 80.5933 814.036C80.5933 814.038 85.1997 817.851 108.868 819.373Z" fill="#0074BD"/>
</g>
<defs>
<clipPath id="clip0_211_3204">
<rect width="256" height="256" fill="white"/>
</clipPath>
<clipPath id="clip1_211_3204">
<rect width="256" height="256" fill="white" transform="translate(0 296)"/>
</clipPath>
<clipPath id="clip2_211_3204">
<rect width="256" height="256" fill="white" transform="translate(0 592)"/>
</clipPath>
</defs>
</svg>
