<svg width="256" height="256" viewBox="0 0 256 256" fill="none" xmlns="http://www.w3.org/2000/svg">
<g clip-path="url(#clip0_248_5576)">
<path d="M196 0H60C26.8629 0 0 26.8629 0 60V196C0 229.137 26.8629 256 60 256H196C229.137 256 256 229.137 256 196V60C256 26.8629 229.137 0 196 0Z" fill="#EB3436"/>
<path d="M101.472 182.256C101.472 182.256 93.8341 186.7 106.915 188.2C122.764 190.011 130.863 189.751 148.324 186.451C148.324 186.451 152.925 189.327 159.337 191.82C120.18 208.595 70.7202 190.847 101.472 182.256ZM96.6844 160.361C96.6844 160.361 88.1157 166.705 101.208 168.06C118.138 169.808 131.506 169.951 154.649 165.496C154.649 165.496 157.842 168.741 162.871 170.513C115.538 184.356 62.818 171.603 96.6844 160.361Z" fill="white"/>
<path d="M137.018 123.215C146.671 134.327 134.486 144.317 134.486 144.317C134.486 144.317 158.983 131.673 147.735 115.834C137.226 101.069 129.17 93.7355 172.786 68.4395C172.786 68.4411 104.321 85.5353 137.018 123.215Z" fill="white"/>
<path d="M188.803 198.453C188.803 198.453 194.458 203.115 182.574 206.719C159.979 213.563 88.5129 215.627 68.6644 206.993C61.5329 203.887 74.9115 199.582 79.1206 198.674C83.5091 197.724 86.015 197.897 86.015 197.897C78.0792 192.31 34.7227 208.872 63.9955 213.623C143.82 226.562 209.506 207.795 188.803 198.453ZM105.149 137.672C105.149 137.672 68.8006 146.306 92.2782 149.445C102.193 150.772 121.948 150.467 140.363 148.923C155.408 147.659 170.506 144.959 170.506 144.959C170.506 144.959 165.206 147.232 161.367 149.85C124.448 159.562 53.1452 155.038 73.6746 145.111C91.03 136.717 105.149 137.672 105.149 137.672ZM170.355 174.118C207.881 154.623 190.529 135.889 178.418 138.412C175.457 139.029 174.128 139.566 174.128 139.566C174.128 139.566 175.231 137.837 177.333 137.093C201.291 128.674 219.714 161.933 169.605 175.106C169.605 175.103 170.18 174.582 170.355 174.118Z" fill="white"/>
<path d="M147.735 27.5869C147.735 27.5869 168.513 48.3775 128.023 80.3373C95.5517 105.983 120.619 120.601 128.011 137.311C109.055 120.211 95.1511 105.154 104.478 91.1428C118.174 70.5797 156.116 60.6058 147.735 27.5869Z" fill="white"/>
<path d="M108.837 226.959C144.849 229.262 200.165 225.678 201.474 208.636C201.474 208.636 198.956 215.096 171.709 220.222C140.968 226.009 103.047 225.335 80.5625 221.622C80.5625 221.624 85.1689 225.437 108.837 226.959Z" fill="white"/>
</g>
<defs>
<clipPath id="clip0_248_5576">
<rect width="256" height="256" fill="white"/>
</clipPath>
</defs>
</svg>
