<svg width="256" height="256" viewBox="0 0 256 256" fill="none" xmlns="http://www.w3.org/2000/svg">
<g clip-path="url(#clip0_381_1151)">
<path fill-rule="evenodd" clip-rule="evenodd" d="M256.013 203.509C256.013 232.385 232.389 256.009 203.513 256.009H52.5124C23.6368 256.009 0.0126953 232.385 0.0126953 203.509V52.5085C0.0126953 23.6329 23.6368 0.00878906 52.5124 0.00878906H203.513C232.389 0.00878906 256.013 23.6329 256.013 52.5085V203.509Z" fill="#13BCA7"/>
<path d="M143.415 157.908H138.791C138.349 157.908 137.995 157.557 137.995 157.117C137.995 156.677 138.349 156.326 138.791 156.326H149.837C150.279 156.326 150.632 156.677 150.632 157.117C150.632 157.557 150.279 157.908 149.837 157.908H145.212V171.391C145.212 171.889 144.829 172.27 144.328 172.27C143.828 172.27 143.445 171.889 143.445 171.391V157.908H143.415Z" fill="white"/>
<path d="M165.214 156.297H176.172C176.614 156.297 176.967 156.648 176.967 157.088C176.967 157.528 176.614 157.88 176.172 157.88H166.983V163.331H174.758C175.2 163.331 175.553 163.683 175.553 164.122C175.553 164.562 175.2 164.914 174.758 164.914H166.983V170.6H176.172C176.614 170.6 176.967 170.951 176.967 171.391C176.967 171.831 176.614 172.182 176.172 172.182H165.214V156.297Z" fill="white"/>
<path d="M191.223 164.298C191.223 159.521 194.757 156.003 199.765 156.003C203.27 156.003 206.069 157.733 207.424 160.4C207.718 160.986 207.276 161.66 206.628 161.66C206.304 161.66 205.98 161.455 205.833 161.162C204.773 158.993 202.563 157.615 199.765 157.615C195.759 157.615 192.99 160.458 192.99 164.298C192.99 168.167 195.759 170.98 199.765 170.98C202.563 170.98 204.773 169.574 205.833 167.434C205.98 167.141 206.275 166.936 206.628 166.936C207.276 166.936 207.718 167.61 207.424 168.196C206.069 170.892 203.27 172.592 199.765 172.592C194.757 172.592 191.223 169.075 191.223 164.298Z" fill="white"/>
<path d="M223.623 156.297C224.124 156.297 224.507 156.678 224.507 157.176V163.36H234.905V157.176C234.905 156.678 235.288 156.297 235.789 156.297C236.289 156.297 236.672 156.678 236.672 157.176V171.391C236.672 171.889 236.289 172.27 235.789 172.27C235.288 172.27 234.905 171.889 234.905 171.391V164.972H224.507V171.391C224.507 171.889 224.124 172.27 223.623 172.27C223.122 172.27 222.74 171.889 222.74 171.391V157.176C222.74 156.707 223.122 156.297 223.623 156.297Z" fill="white"/>
<path d="M139.055 134.081L172.222 91.8461C172.252 91.8168 172.222 91.7875 172.193 91.7875H141.617C140.086 91.7875 138.819 90.5565 138.819 89.0031C138.819 87.479 140.056 86.2188 141.617 86.2188H175.433C177.789 86.2188 179.704 88.1238 179.704 90.4686C179.704 91.0841 179.498 91.6996 179.115 92.1685L145.034 135.576C145.005 135.605 145.034 135.634 145.064 135.634H177.76C179.292 135.634 180.558 136.865 180.558 138.419C180.558 139.943 179.321 141.203 177.76 141.203H140.351C138.819 141.203 137.552 139.972 137.552 138.419C137.552 136.836 138.083 135.312 139.055 134.081Z" fill="white"/>
<path d="M196.497 134.081L229.664 91.8461C229.694 91.8168 229.664 91.7875 229.635 91.7875H199.06C197.528 91.7875 196.261 90.5565 196.261 89.0031C196.261 87.479 197.498 86.2188 199.06 86.2188H232.875C235.232 86.2188 237.146 88.1238 237.146 90.4686C237.146 91.0841 236.94 91.6996 236.557 92.1685L202.476 135.576C202.447 135.605 202.476 135.634 202.506 135.634H235.202C236.734 135.634 238 136.865 238 138.419C238 139.943 236.763 141.203 235.202 141.203H197.793C196.261 141.203 194.995 139.972 194.995 138.419C194.995 136.836 195.525 135.312 196.497 134.081Z" fill="white"/>
<path d="M59.6145 121.86V89.327C59.7029 85.4289 53.4878 85.253 53.5466 89.2098V121.86C55.0194 141.703 22.559 141.703 23.9729 121.89C23.9729 117.024 18.0817 117.992 18.0522 121.89C16.2554 149.265 61.4408 148.854 59.6145 121.86Z" fill="white"/>
<path d="M95.2321 89.0091C96.7751 85.7594 101.454 85.7708 102.963 88.9767C102.963 88.9765 102.963 88.9769 102.963 88.9767L125.555 137.189C125.555 137.189 125.555 137.189 125.555 137.19C126.272 138.734 125.138 140.516 123.414 140.516C122.505 140.516 121.694 140.009 121.299 139.2C121.298 139.199 121.298 139.199 121.298 139.198L112.584 121.038L109.966 115.212L109.961 115.201L99.6216 93.3652L99.0557 92.1701L98.4871 93.364L88.0892 115.199L85.3201 121.033L76.6895 139.204L76.6861 139.212C76.3192 140.01 75.4842 140.546 74.5763 140.546H74.3994C72.6737 140.546 71.5462 138.764 72.2851 137.225L72.2859 137.223L95.2321 89.0091Z" fill="white"/>
<path d="M102.963 88.9767C101.454 85.7708 96.7751 85.7594 95.2321 89.0091L72.2859 137.223L72.2851 137.225C71.5462 138.764 72.6737 140.546 74.3994 140.546H74.5763C75.4842 140.546 76.3192 140.01 76.6861 139.212L76.6895 139.204L85.3201 121.033L88.0892 115.199L98.4871 93.364L99.0557 92.1701L99.6216 93.3652L109.961 115.201L109.966 115.212L112.584 121.038L121.298 139.198C121.298 139.199 121.298 139.199 121.299 139.2C121.694 140.009 122.505 140.516 123.414 140.516C125.138 140.516 126.272 138.734 125.555 137.19C125.555 137.189 125.555 137.189 125.555 137.189L102.963 88.9767ZM102.963 88.9767C102.963 88.9769 102.963 88.9765 102.963 88.9767Z" stroke="white"/>
</g>
<defs>
<clipPath id="clip0_381_1151">
<rect width="256" height="256" fill="white"/>
</clipPath>
</defs>
</svg>
