<svg width="256" height="256" viewBox="0 0 256 256" fill="none" xmlns="http://www.w3.org/2000/svg">
<g clip-path="url(#clip0_381_1154)">
<rect width="256" height="256" rx="60" fill="#242938"/>
<path d="M143.415 155.908H138.791C138.349 155.908 137.995 155.557 137.995 155.117C137.995 154.677 138.349 154.326 138.791 154.326H149.837C150.279 154.326 150.632 154.677 150.632 155.117C150.632 155.557 150.279 155.908 149.837 155.908H145.212V169.391C145.212 169.889 144.829 170.27 144.328 170.27C143.828 170.27 143.445 169.889 143.445 169.391V155.908H143.415Z" fill="#13BCA7"/>
<path d="M165.214 154.297H176.172C176.614 154.297 176.967 154.648 176.967 155.088C176.967 155.528 176.614 155.88 176.172 155.88H166.983V161.331H174.758C175.2 161.331 175.553 161.683 175.553 162.122C175.553 162.562 175.2 162.914 174.758 162.914H166.983V168.6H176.172C176.614 168.6 176.967 168.951 176.967 169.391C176.967 169.831 176.614 170.182 176.172 170.182H165.214V154.297Z" fill="#13BCA7"/>
<path d="M191.223 162.298C191.223 157.521 194.757 154.003 199.765 154.003C203.27 154.003 206.069 155.733 207.424 158.4C207.718 158.986 207.276 159.66 206.628 159.66C206.304 159.66 205.98 159.455 205.833 159.162C204.773 156.993 202.563 155.615 199.765 155.615C195.759 155.615 192.99 158.458 192.99 162.298C192.99 166.167 195.759 168.98 199.765 168.98C202.563 168.98 204.773 167.574 205.833 165.434C205.98 165.141 206.275 164.936 206.628 164.936C207.276 164.936 207.718 165.61 207.424 166.196C206.069 168.892 203.27 170.592 199.765 170.592C194.757 170.592 191.223 167.075 191.223 162.298Z" fill="#13BCA7"/>
<path d="M223.623 154.297C224.124 154.297 224.507 154.678 224.507 155.176V161.36H234.905V155.176C234.905 154.678 235.288 154.297 235.789 154.297C236.289 154.297 236.672 154.678 236.672 155.176V169.391C236.672 169.889 236.289 170.27 235.789 170.27C235.288 170.27 234.905 169.889 234.905 169.391V162.972H224.507V169.391C224.507 169.889 224.124 170.27 223.623 170.27C223.122 170.27 222.74 169.889 222.74 169.391V155.176C222.74 154.707 223.122 154.297 223.623 154.297Z" fill="#13BCA7"/>
<path d="M139.055 132.081L172.222 89.8461C172.252 89.8168 172.222 89.7875 172.193 89.7875H141.617C140.086 89.7875 138.819 88.5565 138.819 87.0031C138.819 85.479 140.056 84.2188 141.617 84.2188H175.433C177.789 84.2188 179.704 86.1238 179.704 88.4686C179.704 89.0841 179.498 89.6996 179.115 90.1685L145.034 133.576C145.005 133.605 145.034 133.634 145.064 133.634H177.76C179.292 133.634 180.558 134.865 180.558 136.419C180.558 137.943 179.321 139.203 177.76 139.203H140.351C138.819 139.203 137.552 137.972 137.552 136.419C137.552 134.836 138.083 133.312 139.055 132.081Z" fill="white"/>
<path d="M196.497 132.081L229.664 89.8461C229.694 89.8168 229.664 89.7875 229.635 89.7875H199.06C197.528 89.7875 196.261 88.5565 196.261 87.0031C196.261 85.479 197.498 84.2188 199.06 84.2188H232.875C235.232 84.2188 237.146 86.1238 237.146 88.4686C237.146 89.0841 236.94 89.6996 236.557 90.1685L202.476 133.576C202.447 133.605 202.476 133.634 202.506 133.634H235.202C236.734 133.634 238 134.865 238 136.419C238 137.943 236.763 139.203 235.202 139.203H197.793C196.261 139.203 194.995 137.972 194.995 136.419C194.995 134.836 195.525 133.312 196.497 132.081Z" fill="white"/>
<path d="M59.6145 119.86V87.327C59.7029 83.4289 53.4878 83.253 53.5466 87.2098V119.86C55.0194 139.703 22.559 139.703 23.9729 119.89C23.9729 115.024 18.0817 115.992 18.0522 119.89C16.2554 147.265 61.4408 146.854 59.6145 119.86Z" fill="white"/>
<path d="M95.2321 87.0091C96.7751 83.7594 101.454 83.7708 102.963 86.9767C102.963 86.9765 102.963 86.9769 102.963 86.9767L125.555 135.189C125.555 135.189 125.555 135.189 125.555 135.19C126.272 136.734 125.138 138.516 123.414 138.516C122.505 138.516 121.694 138.009 121.299 137.2C121.298 137.199 121.298 137.199 121.298 137.198L112.584 119.038L109.966 113.212L109.961 113.201L99.6216 91.3652L99.0557 90.1701L98.4871 91.364L88.0892 113.199L85.3201 119.033L76.6895 137.204L76.6861 137.212C76.3192 138.01 75.4842 138.546 74.5763 138.546H74.3994C72.6737 138.546 71.5462 136.764 72.2851 135.225L72.2859 135.223L95.2321 87.0091Z" fill="#13BCA7"/>
<path d="M102.963 86.9767C101.454 83.7708 96.7751 83.7594 95.2321 87.0091L72.2859 135.223L72.2851 135.225C71.5462 136.764 72.6737 138.546 74.3994 138.546H74.5763C75.4842 138.546 76.3192 138.01 76.6861 137.212L76.6895 137.204L85.3201 119.033L88.0892 113.199L98.4871 91.364L99.0557 90.1701L99.6216 91.3652L109.961 113.201L109.966 113.212L112.584 119.038L121.298 137.198C121.298 137.199 121.298 137.199 121.299 137.2C121.694 138.009 122.505 138.516 123.414 138.516C125.138 138.516 126.272 136.734 125.555 135.19C125.555 135.189 125.555 135.189 125.555 135.189L102.963 86.9767ZM102.963 86.9767C102.963 86.9769 102.963 86.9765 102.963 86.9767Z" stroke="#13BCA7"/>
</g>
<defs>
<clipPath id="clip0_381_1154">
<rect width="256" height="256" fill="white"/>
</clipPath>
</defs>
</svg>
