<svg width="256" height="256" viewBox="0 0 256 256" fill="none" xmlns="http://www.w3.org/2000/svg">
<g clip-path="url(#clip0_381_1157)">
<rect width="256" height="256" rx="60" fill="white"/>
<path d="M143.415 156.908H138.791C138.349 156.908 137.995 156.557 137.995 156.117C137.995 155.677 138.349 155.326 138.791 155.326H149.837C150.279 155.326 150.632 155.677 150.632 156.117C150.632 156.557 150.279 156.908 149.837 156.908H145.212V170.391C145.212 170.889 144.829 171.27 144.328 171.27C143.828 171.27 143.445 170.889 143.445 170.391V156.908H143.415Z" fill="#13BCA7"/>
<path d="M165.214 155.297H176.172C176.614 155.297 176.967 155.648 176.967 156.088C176.967 156.528 176.614 156.88 176.172 156.88H166.983V162.331H174.758C175.2 162.331 175.553 162.683 175.553 163.122C175.553 163.562 175.2 163.914 174.758 163.914H166.983V169.6H176.172C176.614 169.6 176.967 169.951 176.967 170.391C176.967 170.831 176.614 171.182 176.172 171.182H165.214V155.297Z" fill="#13BCA7"/>
<path d="M191.223 163.298C191.223 158.521 194.757 155.003 199.765 155.003C203.27 155.003 206.069 156.733 207.424 159.4C207.718 159.986 207.276 160.66 206.628 160.66C206.304 160.66 205.98 160.455 205.833 160.162C204.773 157.993 202.563 156.615 199.765 156.615C195.759 156.615 192.99 159.458 192.99 163.298C192.99 167.167 195.759 169.98 199.765 169.98C202.563 169.98 204.773 168.574 205.833 166.434C205.98 166.141 206.275 165.936 206.628 165.936C207.276 165.936 207.718 166.61 207.424 167.196C206.069 169.892 203.27 171.592 199.765 171.592C194.757 171.592 191.223 168.075 191.223 163.298Z" fill="#13BCA7"/>
<path d="M223.623 155.297C224.124 155.297 224.507 155.678 224.507 156.176V162.36H234.905V156.176C234.905 155.678 235.288 155.297 235.789 155.297C236.289 155.297 236.672 155.678 236.672 156.176V170.391C236.672 170.889 236.289 171.27 235.789 171.27C235.288 171.27 234.905 170.889 234.905 170.391V163.972H224.507V170.391C224.507 170.889 224.124 171.27 223.623 171.27C223.122 171.27 222.74 170.889 222.74 170.391V156.176C222.74 155.707 223.122 155.297 223.623 155.297Z" fill="#13BCA7"/>
<path d="M139.055 133.081L172.222 90.8461C172.252 90.8168 172.222 90.7875 172.193 90.7875H141.617C140.086 90.7875 138.819 89.5565 138.819 88.0031C138.819 86.479 140.056 85.2188 141.617 85.2188H175.433C177.789 85.2188 179.704 87.1238 179.704 89.4686C179.704 90.0841 179.498 90.6996 179.115 91.1685L145.034 134.576C145.005 134.605 145.034 134.634 145.064 134.634H177.76C179.292 134.634 180.558 135.865 180.558 137.419C180.558 138.943 179.321 140.203 177.76 140.203H140.351C138.819 140.203 137.552 138.972 137.552 137.419C137.552 135.836 138.083 134.312 139.055 133.081Z" fill="black"/>
<path d="M196.497 133.081L229.664 90.8461C229.694 90.8168 229.664 90.7875 229.635 90.7875H199.06C197.528 90.7875 196.261 89.5565 196.261 88.0031C196.261 86.479 197.498 85.2188 199.06 85.2188H232.875C235.232 85.2188 237.146 87.1238 237.146 89.4686C237.146 90.0841 236.94 90.6996 236.557 91.1685L202.476 134.576C202.447 134.605 202.476 134.634 202.506 134.634H235.202C236.734 134.634 238 135.865 238 137.419C238 138.943 236.763 140.203 235.202 140.203H197.793C196.261 140.203 194.995 138.972 194.995 137.419C194.995 135.836 195.525 134.312 196.497 133.081Z" fill="black"/>
<path d="M59.6145 120.86V88.327C59.7029 84.4289 53.4878 84.253 53.5466 88.2098V120.86C55.0194 140.703 22.559 140.703 23.9729 120.89C23.9729 116.024 18.0817 116.992 18.0522 120.89C16.2554 148.265 61.4408 147.854 59.6145 120.86Z" fill="black"/>
<path d="M95.2321 88.0091C96.7751 84.7594 101.454 84.7708 102.963 87.9767C102.963 87.9765 102.963 87.9769 102.963 87.9767L125.555 136.189C125.555 136.189 125.555 136.189 125.555 136.19C126.272 137.734 125.138 139.516 123.414 139.516C122.505 139.516 121.694 139.009 121.299 138.2C121.298 138.199 121.298 138.199 121.298 138.198L112.584 120.038L109.966 114.212L109.961 114.201L99.6216 92.3652L99.0557 91.1701L98.4871 92.364L88.0892 114.199L85.3201 120.033L76.6895 138.204L76.6861 138.212C76.3192 139.01 75.4842 139.546 74.5763 139.546H74.3994C72.6737 139.546 71.5462 137.764 72.2851 136.225L72.2859 136.223L95.2321 88.0091Z" fill="#13BCA7"/>
<path d="M102.963 87.9767C101.454 84.7708 96.7751 84.7594 95.2321 88.0091L72.2859 136.223L72.2851 136.225C71.5462 137.764 72.6737 139.546 74.3994 139.546H74.5763C75.4842 139.546 76.3192 139.01 76.6861 138.212L76.6895 138.204L85.3201 120.033L88.0892 114.199L98.4871 92.364L99.0557 91.1701L99.6216 92.3652L109.961 114.201L109.966 114.212L112.584 120.038L121.298 138.198C121.298 138.199 121.298 138.199 121.299 138.2C121.694 139.009 122.505 139.516 123.414 139.516C125.138 139.516 126.272 137.734 125.555 136.19C125.555 136.189 125.555 136.189 125.555 136.189L102.963 87.9767ZM102.963 87.9767C102.963 87.9769 102.963 87.9765 102.963 87.9767Z" stroke="#13BCA7"/>
</g>
<defs>
<clipPath id="clip0_381_1157">
<rect width="256" height="256" fill="white"/>
</clipPath>
</defs>
</svg>
