<svg width="256" height="256" viewBox="0 0 256 256" fill="none" xmlns="http://www.w3.org/2000/svg">
<g clip-path="url(#clip0_248_900)">
<rect width="256" height="256" rx="60" fill="white"/>
<path d="M40.703 76.0795C22.9983 101.995 25.2036 135.708 38.6923 163.212L39.6842 165.171L40.3544 166.412C40.4785 166.653 40.6225 166.891 40.75 167.125C40.9845 167.561 41.2191 167.98 41.4201 168.409L42.7103 170.664L43.4477 171.905L44.9457 174.291L45.6159 175.297C46.2862 176.369 47.0434 177.435 47.7876 178.486C47.8042 178.513 47.8276 178.543 47.8478 178.569C47.965 178.738 48.0959 178.905 48.1829 179.073C48.8263 179.977 49.5235 180.869 50.1936 181.754L50.9376 182.718L52.7641 185.005L53.4612 185.856C54.2919 186.858 55.1409 187.847 56.0081 188.819L56.0616 188.872C56.0951 188.915 56.1286 188.94 56.1621 188.982C57.0024 189.931 57.8649 190.858 58.7494 191.764L59.5804 192.615L61.6482 194.68L62.4927 195.498C63.4219 196.388 64.366 197.262 65.3245 198.122L65.8606 198.59L68.431 200.802L69.4968 201.668L71.6415 203.343L72.7877 204.231L76.0652 206.627C76.1489 206.683 76.2227 206.744 76.3066 206.8C77.0773 207.338 77.8584 207.857 78.6421 208.377L79.6544 209.063L83.3138 211.343L84.3262 211.922L87.0743 213.49C87.576 213.765 88.0902 214.027 88.5919 214.288L90.5564 215.293L91.0085 215.514L91.8134 215.91L94.9285 217.378L95.5898 217.713C96.7919 218.247 98.0028 218.759 99.2226 219.25L100.107 219.606L103.534 220.899L103.964 221.053C105.229 221.5 106.504 221.926 107.784 222.328L108.706 222.608C110.047 223.011 111.304 223.491 112.651 223.748C198.267 239.687 223.144 171.382 223.144 171.382C202.257 199.097 165.18 206.401 130.054 198.269C128.723 197.934 127.432 197.542 126.133 197.15L125.154 196.815C123.888 196.42 122.628 195.999 121.381 195.565L120.862 195.374C119.746 194.971 118.637 194.553 117.534 194.117L116.596 193.741C115.388 193.257 114.19 192.75 113.002 192.22L112.286 191.899L109.256 190.457L108.385 190.028C107.598 189.633 106.816 189.227 106.038 188.812L104.474 187.973C103.527 187.456 102.591 186.92 101.666 186.369L100.717 185.832C99.4832 185.096 98.2635 184.325 97.0578 183.553C96.7228 183.335 96.4001 183.105 96.0685 182.883L93.464 181.121L92.6272 180.518L90.1646 178.708L89.0706 177.869L86.8491 176.1L85.858 175.297L83.0922 172.951C82.9982 172.866 82.8919 172.783 82.7571 172.692C81.7731 171.811 80.8033 170.907 79.8495 169.997L79.0304 169.194L76.9399 167.109L76.1222 166.27C75.2511 165.366 74.3965 164.446 73.5585 163.51C73.5182 163.462 73.4714 163.42 73.4312 163.375C72.5454 162.388 71.6784 161.381 70.8306 160.359L70.1503 159.535L68.2736 157.179L67.5866 156.308L65.425 153.376C45.9208 126.281 38.9502 88.9147 54.5 58.2241L40.703 76.0795ZM95.6625 54.243C82.8617 73.0098 83.555 98.124 93.5421 117.97C95.2122 121.302 97.1039 124.519 99.2049 127.598C101.123 130.396 103.251 133.731 105.797 135.976C106.719 136.981 107.683 137.986 108.669 139.013C108.917 139.27 109.172 139.515 109.426 139.774C110.383 140.722 111.362 141.649 112.362 142.552C112.403 142.585 112.44 142.624 112.483 142.658C113.61 143.66 114.761 144.631 115.938 145.575L116.716 146.19C117.887 147.112 119.083 148 120.301 148.858C120.333 148.885 120.367 148.911 120.402 148.936C120.938 149.314 121.491 149.672 122.037 150.034C122.3 150.209 122.546 150.394 122.808 150.557C123.682 151.129 124.569 151.683 125.466 152.216L125.842 152.438L128.188 153.778C128.462 153.936 128.742 154.072 129.024 154.22L130.7 155.085C130.785 155.129 130.868 155.161 130.948 155.202C132.077 155.771 133.214 156.308 134.377 156.828C134.625 156.938 134.879 157.039 135.134 157.145C136.063 157.547 137.001 157.938 137.949 158.308L139.155 158.758C140.011 159.076 140.871 159.381 141.737 159.673L142.901 160.051C144.132 160.443 145.348 160.932 146.632 161.15C212.735 172.304 228 120.467 228 120.467C214.244 140.64 187.605 150.273 159.172 142.759C157.915 142.424 156.667 142.055 155.429 141.653C155.05 141.536 154.679 141.412 154.303 141.318C153.426 141.029 152.553 140.722 151.686 140.399L150.502 139.951C149.553 139.616 148.616 139.197 147.688 138.795C147.433 138.683 147.178 138.584 146.928 138.467C145.761 137.956 144.61 137.412 143.476 136.834C142.892 136.543 142.32 136.238 141.745 135.935L140.747 135.414C140.01 135.008 139.281 134.589 138.559 134.157L138.036 133.822C137.145 133.288 136.262 132.738 135.389 132.173C135.12 131.997 134.859 131.838 134.591 131.63L132.875 130.473C131.663 129.615 130.473 128.728 129.303 127.812L128.498 127.169C116.055 117.162 106.189 103.489 101.501 87.9832C96.5845 71.8972 97.6465 53.8508 106.192 39.2026L95.6625 54.243ZM141.877 37.929C134.329 49.2428 133.59 63.2913 138.861 75.7846C144.384 89.0455 155.7 99.451 168.907 104.381C169.451 104.588 169.998 104.773 170.583 104.961L171.308 105.195C172.084 105.443 172.859 105.731 173.66 105.885C210.162 113.067 220.061 86.8102 222.695 82.9462C214.022 95.6642 199.448 98.717 181.566 94.2968C180.158 93.9449 178.6 93.4254 177.208 92.9363C175.458 92.303 173.744 91.5771 172.072 90.7612C168.889 89.2006 165.872 87.3247 163.063 85.1613C147.027 72.7952 137.084 49.2093 147.527 30" fill="#0868AC"/>
</g>
<defs>
<clipPath id="clip0_248_900">
<rect width="256" height="256" fill="white"/>
</clipPath>
</defs>
</svg>
