<svg width="256" height="256" viewBox="0 0 256 256" fill="none" xmlns="http://www.w3.org/2000/svg">
<g clip-path="url(#clip0_248_2427)">
<rect width="256" height="256" rx="60" fill="white"/>
<path d="M163.11 138.774C155.321 138.774 148.339 142.225 143.557 147.658L131.305 138.984C132.606 135.404 133.352 131.558 133.352 127.534C133.352 123.579 132.632 119.798 131.374 116.271L143.598 107.689C148.38 113.093 155.344 116.525 163.11 116.525C177.484 116.525 189.182 104.83 189.182 90.4531C189.182 76.0759 177.484 64.3809 163.11 64.3809C148.734 64.3809 137.038 76.0759 137.038 90.4531C137.038 93.0263 137.426 95.5078 138.124 97.8579L125.891 106.444C120.781 100.104 113.422 95.6782 105.04 94.327V79.5837C116.849 77.1032 125.749 66.6102 125.749 54.0722C125.749 39.695 114.051 28 99.6762 28C85.301 28 73.604 39.695 73.604 54.0722C73.604 66.4423 82.272 76.8059 93.8458 79.4634V94.3982C78.0506 97.1708 66 110.956 66 127.534C66 144.193 78.17 158.028 94.0792 160.706V176.476C82.387 179.046 73.604 189.473 73.604 201.927C73.604 216.305 85.301 228 99.6762 228C114.051 228 125.749 216.305 125.749 201.927C125.749 189.473 116.966 179.046 105.273 176.476V160.706C113.325 159.349 120.611 155.112 125.772 148.784L138.106 157.514C137.421 159.843 137.038 162.299 137.038 164.847C137.038 179.224 148.734 190.919 163.11 190.919C177.484 190.919 189.182 179.224 189.182 164.847C189.182 150.47 177.484 138.774 163.11 138.774ZM163.11 77.812C170.081 77.812 175.75 83.4841 175.75 90.4531C175.75 97.422 170.081 103.093 163.11 103.093C156.139 103.093 150.469 97.422 150.469 90.4531C150.469 83.4841 156.139 77.812 163.11 77.812ZM87.0352 54.0722C87.0352 47.1032 92.7054 41.4316 99.6762 41.4316C106.647 41.4316 112.317 47.1032 112.317 54.0722C112.317 61.0411 106.647 66.7127 99.6762 66.7127C92.7054 66.7127 87.0352 61.0411 87.0352 54.0722ZM112.317 201.927C112.317 208.896 106.647 214.568 99.6762 214.568C92.7054 214.568 87.0352 208.896 87.0352 201.927C87.0352 194.959 92.7054 189.286 99.6762 189.286C106.647 189.286 112.317 194.959 112.317 201.927ZM99.6752 145.163C89.953 145.163 82.0439 137.256 82.0439 127.534C82.0439 117.811 89.953 109.902 99.6752 109.902C109.397 109.902 117.306 117.811 117.306 127.534C117.306 137.256 109.397 145.163 99.6752 145.163ZM163.11 177.488C156.139 177.488 150.469 171.815 150.469 164.847C150.469 157.878 156.139 152.207 163.11 152.207C170.081 152.207 175.75 157.878 175.75 164.847C175.75 171.815 170.081 177.488 163.11 177.488Z" fill="black"/>
</g>
<defs>
<clipPath id="clip0_248_2427">
<rect width="256" height="256" fill="white"/>
</clipPath>
</defs>
</svg>
