<svg width="256" height="256" viewBox="0 0 256 256" fill="none" xmlns="http://www.w3.org/2000/svg">
<g clip-path="url(#clip0_248_6631)">
<rect width="256" height="256" rx="60" fill="#242938"/>
<path d="M134.483 77.8796C134.483 77.8796 118.067 76.7963 90.0917 85.5463C61.5917 94.4629 45.425 107.105 45.425 107.105C45.425 107.105 87.9083 83.3796 135.858 82.0379L134.483 77.8796ZM195.742 103.671L197.883 103.53C197.883 103.53 185.65 88.6963 162.233 81.4629C175.4 86.8129 186.85 93.9046 195.742 103.671ZM199.242 109.838C199.567 109.271 200.625 111.646 201.433 112.646C201.467 112.846 201.517 112.971 201.058 112.871C201.017 112.663 200.95 112.605 200.95 112.605C200.95 112.605 199.825 111.938 199.475 111.463C199.125 110.988 199.067 110.155 199.242 109.838ZM227.975 180.496C227.975 180.496 230.575 150.68 183.725 143.805C176.759 142.792 169.731 142.272 162.692 142.246C125.142 142.746 123.775 98.9379 152.067 96.7296C163.792 95.7629 177.792 102.088 191.483 108.463C191.425 110.163 191.5 111.671 192.617 113.063C193.733 114.455 198.017 115.98 199.392 116.771C200.758 117.555 205.15 120.355 207.842 123.855C208.425 122.763 213.292 119.588 213.292 119.588C213.292 119.588 212.125 119.613 209.417 118.596C206.7 117.58 203.475 114.513 203.4 114.338C203.325 114.163 203.275 113.88 203.9 113.755C204.392 113.346 203.3 112.03 202.817 111.546C202.333 111.063 199.108 105.58 199.033 105.463C198.958 105.33 198.933 105.205 198.7 105.046C197.992 104.821 194.867 105.38 194.867 105.38C194.867 105.38 190.075 103.021 188.417 97.9379C188.442 98.8296 187.592 99.8046 188.417 101.846C185.917 100.788 183.767 98.9796 182.067 94.5129C181.067 97.0546 182.067 98.6713 182.067 98.6713C182.067 98.6713 176.175 97.0213 175.233 91.5879C174.2 94.0296 175.233 95.4963 175.233 95.4963C175.233 95.4963 165.625 90.4796 149.658 90.4129C138.967 89.4296 136.742 70.6296 137.742 67.4629C137.742 67.4629 122.325 59.3379 91.9667 55.7463C61.6167 52.1629 36.7333 55.2046 36.7333 55.2046C36.7333 55.2046 90.4833 52.6213 133.542 70.0629C135.008 76.6046 139.408 87.5129 141.783 92.7546C134.992 97.4463 127.342 101.855 126.15 117.505C124.958 133.155 138.417 146.921 155.1 147.338C170.933 148.188 181.883 148.305 195.15 155.188C207.817 162.188 218.2 183.521 219.233 202.713C220.333 188.471 214.992 157.855 190.067 148.563C224.908 154.663 227.975 180.496 227.975 180.496ZM133.667 75.5463L132.417 71.5046C132.417 71.5046 111.717 67.8296 83.9 69.8046C56.0833 71.7796 28 81.5213 28 81.5213C28 81.5213 85.4667 67.0629 133.667 75.5463Z" fill="white"/>
</g>
<defs>
<clipPath id="clip0_248_6631">
<rect width="256" height="256" fill="white"/>
</clipPath>
</defs>
</svg>
