<svg width="256" height="256" viewBox="0 0 256 256" fill="none" xmlns="http://www.w3.org/2000/svg">
<g clip-path="url(#clip0_342_288)">
<path d="M60 4H196C226.928 4 252 29.0721 252 60V196C252 226.928 226.928 252 196 252H60C29.0721 252 4 226.928 4 196V60C4 29.0721 29.0721 4 60 4Z" fill="#3752B2" stroke="#24346D" stroke-width="8"/>
<rect x="34" y="49" width="184" height="169" fill="white"/>
<rect x="172" y="38" width="46" height="46" fill="#FF7B08"/>
<path d="M28 28V228H228V28H28ZM187.242 44.4117C200.742 36.6289 217.709 46.4102 217.709 61.9762C217.709 77.5422 200.742 87.3238 187.242 79.5406C173.742 71.7574 173.742 52.1945 187.242 44.4117ZM115.215 205.772C116.889 198.568 113.902 194.55 108.111 185.477L78.784 145.494V185.984C78.784 195.387 80.6783 201.983 84.4668 205.772H36.7715C41.7344 200.225 42.5938 197.045 42.4531 186.085V74.3566C42.4512 63.2629 41.9398 60.491 36.7715 54.6695H84.4668C80.678 58.4586 78.7837 65.0211 78.784 74.357V111.599L107.908 74.7625C113.62 67.3211 118.513 60.0887 116.331 54.6699H167.172C157.606 60.9996 152.66 68.3691 144.441 78.416L106.284 125.908L151.848 188.622C157.238 195.823 163.345 203.109 167.375 205.772H115.215ZM175.088 205.772C178.513 201.72 179.932 199.52 179.755 187.912V112.411C179.98 103.162 179.422 99.6488 175.189 94.7539H215.07V187.912C215.173 197.863 215.221 200.464 219.738 205.772H175.088Z" fill="#3752B2"/>
</g>
<defs>
<clipPath id="clip0_342_288">
<rect width="256" height="256" fill="white"/>
</clipPath>
</defs>
</svg>
