<svg width="256" height="256" viewBox="0 0 256 256" fill="none" xmlns="http://www.w3.org/2000/svg">
<g clip-path="url(#clip0_342_294)">
<rect width="256" height="256" rx="60" fill="white"/>
<rect x="169.8" y="42.5" width="43.7" height="43.7" fill="#FF7B08"/>
<path d="M33 33V223H223V33H33ZM184.28 48.5911C197.105 41.1975 213.223 50.4896 213.223 65.2774C213.223 80.0651 197.105 89.3576 184.28 81.9636C171.455 74.5696 171.455 55.9848 184.28 48.5911ZM115.854 201.884C117.444 195.04 114.607 191.222 109.106 182.603L81.2448 144.619V183.084C81.2448 192.018 83.0443 198.284 86.6435 201.884H41.3329C46.0477 196.614 46.8641 193.593 46.7305 183.181V77.0388C46.7286 66.4997 46.2429 63.8665 41.3329 58.3361H86.6435C83.0441 61.9357 81.2445 68.17 81.2448 77.0392V112.419L108.913 77.4244C114.339 70.355 118.988 63.4842 116.915 58.3364H165.213C156.126 64.3496 151.427 71.3507 143.619 80.8952L107.37 126.013L150.656 185.591C155.776 192.432 161.577 199.353 165.406 201.884H115.854ZM172.733 201.884C175.987 198.034 177.335 195.944 177.168 184.916V113.191C177.381 104.404 176.851 101.066 172.83 96.4162H210.717V184.916C210.814 194.37 210.86 196.84 215.151 201.884H172.733Z" fill="#3752B2"/>
</g>
<defs>
<clipPath id="clip0_342_294">
<rect width="256" height="256" fill="white"/>
</clipPath>
</defs>
</svg>
