<svg width="256" height="256" viewBox="0 0 256 256" fill="none" xmlns="http://www.w3.org/2000/svg">
<g clip-path="url(#clip0_248_2439)">
<rect width="256" height="256" rx="60" fill="white"/>
<path d="M127.306 31.017C125.538 31.1067 123.806 31.5454 122.212 32.3076L52.6793 65.5295C50.8798 66.3889 49.2986 67.6394 48.0532 69.188C46.8078 70.7367 45.9302 72.5436 45.4855 74.4748L28.3339 149.1C27.938 150.819 27.8936 152.599 28.2036 154.336C28.5136 156.072 29.1716 157.729 30.1386 159.209C30.3733 159.571 30.6257 159.922 30.8949 160.259L79.0199 220.097C80.2656 221.645 81.847 222.895 83.6466 223.754C85.4463 224.613 87.4179 225.059 89.4152 225.059L166.593 225.04C168.59 225.042 170.561 224.597 172.361 223.74C174.16 222.882 175.742 221.634 176.989 220.087L225.096 160.242C226.343 158.693 227.221 156.885 227.666 154.953C228.111 153.021 228.111 151.015 227.667 149.083L210.486 74.4576C210.041 72.5262 209.163 70.7189 207.918 69.17C206.673 67.6211 205.091 66.3703 203.292 65.5107L133.753 32.3076C131.747 31.3488 129.53 30.905 127.306 31.017Z" fill="#326CE5"/>
<path d="M127.961 56.3774V56.3931C125.661 56.4149 123.798 58.4806 123.798 61.0368C123.798 61.0806 123.806 61.1181 123.806 61.1524C123.803 61.4993 123.787 61.9181 123.798 62.2212C123.853 63.6993 124.173 64.8274 124.368 66.1821C124.634 68.4009 124.704 70.1618 124.718 71.9431L124.775 71.6868C124.75 70.4384 124.688 69.191 124.59 67.9462C124.808 69.8649 124.965 71.6399 124.881 73.2462C124.858 72.7384 124.786 72.1884 124.778 71.7118L124.722 71.9681C124.726 72.5103 124.872 73.2024 124.829 73.7228C124.734 74.1759 124.375 74.4962 124.1 74.8821L124.061 75.0712C124.331 74.7165 124.614 74.3774 124.779 73.979C124.57 74.6399 124.123 75.2228 123.675 75.6884C123.8 75.4946 123.903 75.279 124.05 75.0868L124.09 74.8993C123.864 75.2165 123.736 75.6134 123.489 75.8524L123.479 75.8618L123.379 77.6118C120.857 77.8213 118.353 78.2055 115.884 78.7618C105.48 81.1156 96.0144 86.5207 88.6997 94.2853C88.2372 93.9696 87.4497 93.4103 87.2154 93.2353L87.2076 93.2274L87.1919 93.2306C86.4451 93.3306 85.7076 93.554 84.7388 92.9915C82.8841 91.7415 81.1904 90.0118 79.1388 87.929C78.1997 86.9337 77.5185 85.9821 76.3982 85.0212C76.1435 84.8009 75.7576 84.5056 75.4732 84.2821C74.6418 83.6124 73.6179 83.2264 72.5513 83.1806C71.2622 83.1368 70.0201 83.6399 69.2076 84.6603C67.7622 86.4728 68.2263 89.2431 70.2357 90.8478L70.2982 90.8884C70.5701 91.1118 70.9076 91.3978 71.1607 91.5853C72.3513 92.4618 73.4372 92.9118 74.6138 93.6056C77.1044 95.1431 79.1607 96.4149 80.7951 97.9478C81.4232 98.6149 81.5357 99.8071 81.6232 100.331V100.343L82.9466 101.521C75.8201 112.262 72.5169 125.521 74.4591 139.031L72.7357 139.537L72.7294 139.546C72.2685 140.142 71.6169 141.065 70.956 141.338C68.8216 142.01 66.4122 142.257 63.5029 142.562C62.1404 142.676 60.9622 142.61 59.5091 142.885C59.1888 142.948 58.7435 143.06 58.3951 143.142L58.3591 143.151L58.2966 143.168C55.8279 143.767 54.2341 146.038 54.7497 148.281C55.2607 150.523 57.6763 151.884 60.1622 151.348L60.2232 151.338H60.2263C60.2576 151.331 60.2857 151.315 60.3044 151.31C60.6482 151.235 61.0794 151.152 61.3826 151.07C62.8091 150.687 63.8419 150.127 65.1216 149.638C67.8716 148.651 70.1497 147.826 72.3669 147.506C73.2763 147.434 74.2482 148.071 74.7372 148.345L74.7497 148.351L76.5497 148.043C80.7279 160.971 89.4654 171.418 100.528 177.984L99.7779 179.784L99.7826 179.799C100.054 180.502 100.351 181.451 100.153 182.131C99.3466 184.218 97.9654 186.426 96.3904 188.89C95.6279 190.027 94.8435 190.913 94.156 192.22C93.9888 192.534 93.781 193.012 93.6216 193.34C92.5435 195.645 93.3341 198.304 95.4076 199.302C97.4935 200.307 100.079 199.246 101.2 196.938L101.211 196.926V196.91C101.367 196.587 101.589 196.163 101.725 195.857C102.315 194.504 102.514 193.346 102.928 192.043H102.923C104.026 189.273 104.633 186.376 106.14 184.577C106.547 184.093 107.215 183.902 107.915 183.715L107.931 183.709L108.868 182.015C121.212 186.761 134.87 186.795 147.237 182.112C147.506 182.585 147.984 183.463 148.117 183.69L148.123 183.699L148.136 183.706C148.851 183.938 149.617 184.054 150.245 184.981C151.373 186.913 152.148 189.204 153.092 191.973C153.506 193.273 153.712 194.434 154.303 195.787C154.439 196.099 154.662 196.529 154.818 196.856C155.936 199.171 158.529 200.235 160.62 199.231C162.692 198.231 163.483 195.574 162.406 193.27C162.247 192.941 162.026 192.46 161.862 192.146C161.173 190.84 160.389 189.963 159.628 188.826C158.05 186.362 156.748 184.318 155.94 182.229C155.608 181.159 155.997 180.504 156.262 179.799L156.272 179.777L156.256 179.762C156.201 179.679 156.154 179.591 156.115 179.499C156.049 179.35 155.986 179.199 155.928 179.046C155.803 178.718 155.678 178.356 155.578 178.115C167.075 171.318 175.556 160.482 179.547 147.967C180.089 148.051 181 148.209 181.297 148.268L181.312 148.271L181.326 148.265C181.954 147.851 182.514 147.318 183.631 147.407C185.848 147.727 188.125 148.554 190.878 149.542C192.154 150.029 193.189 150.599 194.617 150.981C194.92 151.062 195.351 151.138 195.695 151.213C195.714 151.218 195.74 151.232 195.773 151.24H195.776L195.839 151.246C198.323 151.779 200.74 150.421 201.251 148.179C201.762 145.937 200.172 143.667 197.701 143.071C197.347 142.99 196.84 142.851 196.49 142.784C195.037 142.509 193.861 142.577 192.495 142.463C189.589 142.159 187.179 141.912 185.042 141.24C184.187 140.907 183.57 139.877 183.264 139.446L183.254 139.437L181.589 138.952C182.479 132.482 182.183 125.903 180.714 119.538C179.242 113.11 176.603 107.006 172.928 101.531C173.362 101.137 174.154 100.435 174.384 100.224L174.395 100.215V100.199C174.464 99.4493 174.404 98.6837 175.169 97.8649C176.801 96.3337 178.862 95.0571 181.351 93.5228C182.529 92.829 183.623 92.3806 184.811 91.5024C185.083 91.3024 185.448 90.9899 185.729 90.7634C187.739 89.1603 188.204 86.3915 186.758 84.5774C185.312 82.7649 182.511 82.5978 180.503 84.1993C180.218 84.4259 179.831 84.7181 179.575 84.9384C178.454 85.904 177.762 86.854 176.825 87.8493C174.773 89.9353 173.078 91.6712 171.222 92.9212C170.429 93.3806 169.256 93.2228 168.717 93.1899H168.704L167.136 94.3134C158.112 84.8634 145.839 78.8196 132.62 77.6384C132.581 77.0272 132.548 76.4158 132.52 75.804V75.7915L132.511 75.7821C131.964 75.2618 131.323 74.829 131.161 73.7228V73.7196C130.981 71.4884 131.281 69.0837 131.629 66.1821C131.825 64.8274 132.148 63.6978 132.201 62.2212C132.215 61.8837 132.193 61.3978 132.193 61.0368C132.193 58.4665 130.314 56.3774 127.993 56.3774H127.961ZM72.9997 83.3056C73.2206 83.3368 73.4383 83.3816 73.6529 83.4399C73.4386 83.3797 73.2204 83.3348 72.9997 83.3056ZM122.747 88.7353L121.517 110.501L121.428 110.546L121.425 110.567C121.422 110.645 121.403 110.715 121.393 110.79C121.342 111.258 121.202 111.712 120.983 112.129C120.925 112.239 120.862 112.347 120.793 112.452C120.509 112.867 120.142 113.22 119.715 113.487C119.606 113.557 119.486 113.612 119.368 113.671C118.94 113.874 118.477 113.994 118.004 114.024C117.934 114.029 117.867 114.046 117.797 114.046C117.718 114.046 117.65 114.012 117.573 114.006C117.053 113.956 116.551 113.794 116.1 113.531C116.029 113.49 115.953 113.467 115.886 113.423L115.876 113.457L115.883 113.423C115.814 113.381 115.723 113.398 115.658 113.349L115.639 113.334L115.604 113.356L97.7591 100.704C97.9044 100.562 98.0591 100.432 98.2076 100.292C99.7829 98.7929 101.47 97.4166 103.254 96.1743C103.625 95.9165 103.993 95.6556 104.372 95.4087C106.27 94.1703 108.264 93.0846 110.334 92.1618C110.709 91.9946 111.095 91.8431 111.475 91.6853C113.525 90.8393 115.637 90.1539 117.793 89.6353C117.981 89.5884 118.165 89.5306 118.356 89.4884C119.256 89.2853 120.172 89.1665 121.083 89.0212L121.092 88.9821H121.098L121.089 89.0212C121.643 88.9337 122.19 88.8024 122.747 88.7353ZM133.256 88.7384C133.564 88.7759 133.865 88.8446 134.172 88.8899C135.836 89.1364 137.484 89.4786 139.109 89.9149C139.753 90.0879 140.391 90.2754 141.023 90.4774C142.637 90.9935 144.219 91.6029 145.762 92.3024C146.348 92.5681 146.927 92.8467 147.5 93.1384C149.023 93.9168 150.5 94.7839 151.922 95.7353C152.457 96.0957 152.986 96.4691 153.508 96.8556C154.869 97.8595 156.171 98.9415 157.408 100.096C157.633 100.306 157.872 100.498 158.092 100.713L140.364 113.282L140.301 113.259L140.286 113.271C140.215 113.321 140.139 113.342 140.067 113.387C139.648 113.652 139.179 113.83 138.689 113.909C138.568 113.927 138.45 113.956 138.329 113.96C137.8 113.981 137.272 113.887 136.783 113.685C136.64 113.629 136.501 113.563 136.368 113.487C135.912 113.235 135.515 112.889 135.203 112.471C135.125 112.363 135.065 112.243 135 112.127C134.761 111.699 134.608 111.228 134.55 110.742C134.54 110.656 134.509 110.581 134.503 110.493V110.476L134.486 110.466L133.256 88.7384ZM176.493 107.838C177.256 109.391 177.942 110.977 178.551 112.596C177.941 110.979 177.254 109.391 176.493 107.838ZM91.2185 108.917L107.515 123.492L107.497 123.579L107.512 123.591C108.981 124.868 109.184 127.076 107.97 128.596C107.926 128.651 107.864 128.685 107.817 128.737C107.398 129.201 106.868 129.551 106.276 129.752C106.209 129.776 106.154 129.82 106.087 129.838L106.065 129.842L106.047 129.915L85.1607 135.946C85.1294 135.657 85.1294 135.368 85.1029 135.079C84.947 133.342 84.899 131.597 84.9591 129.854C84.9789 129.25 85.0117 128.647 85.0576 128.045C85.1888 126.309 85.4272 124.583 85.7716 122.877C85.8977 122.242 86.0399 121.609 86.1982 120.979C86.6122 119.302 87.1288 117.652 87.7451 116.038C87.9638 115.461 88.1971 114.89 88.4451 114.324C89.1342 112.721 89.9222 111.163 90.8044 109.657C90.9451 109.413 91.0701 109.157 91.2185 108.917ZM164.659 108.927C164.811 109.174 164.934 109.434 165.081 109.682C165.972 111.2 166.77 112.771 167.472 114.385C167.706 114.926 167.937 115.47 168.15 116.02C168.796 117.697 169.339 119.413 169.775 121.157C169.845 121.431 169.937 121.698 170 121.974C171.078 126.665 171.343 131.348 170.903 135.874L149.912 129.827L149.895 129.738L149.873 129.732C149.803 129.713 149.742 129.679 149.675 129.656C149.222 129.5 148.803 129.258 148.44 128.945C148.349 128.865 148.26 128.782 148.175 128.695C147.833 128.323 147.572 127.884 147.408 127.407C147.365 127.285 147.339 127.16 147.309 127.034C147.206 126.576 147.191 126.103 147.262 125.64C147.276 125.563 147.278 125.49 147.293 125.413C147.309 125.343 147.353 125.282 147.372 125.212C147.545 124.621 147.867 124.086 148.308 123.656C148.361 123.604 148.392 123.537 148.448 123.488L148.464 123.473L148.454 123.426L164.659 108.927ZM179.078 114.092C179.596 115.6 180.046 117.13 180.428 118.682C180.045 117.133 179.595 115.601 179.078 114.092ZM124.665 124.642H131.325L135.465 129.82L133.981 136.277L127.997 139.152L122.001 136.265L120.512 129.809L124.665 124.642ZM146.114 142.446C146.395 142.431 146.672 142.459 146.947 142.509L146.968 142.513L147.004 142.467L168.611 146.12C168.511 146.401 168.381 146.668 168.275 146.948C167.66 148.556 166.95 150.127 166.15 151.652C165.854 152.219 165.545 152.778 165.223 153.331C164.345 154.828 163.378 156.273 162.328 157.656C161.949 158.156 161.559 158.646 161.159 159.126C160.043 160.463 158.848 161.732 157.581 162.926C157.127 163.353 156.662 163.77 156.187 164.176C154.876 165.304 153.498 166.354 152.062 167.32C151.812 167.487 151.578 167.671 151.326 167.834L142.943 147.573L142.967 147.538L142.961 147.521C142.929 147.451 142.92 147.377 142.893 147.307C142.736 146.862 142.665 146.39 142.683 145.918C142.689 145.792 142.692 145.665 142.711 145.54C142.788 145.046 142.966 144.572 143.233 144.149C143.303 144.037 143.386 143.935 143.467 143.831C143.762 143.466 144.122 143.159 144.529 142.927C144.597 142.89 144.653 142.842 144.722 142.809C145.173 142.592 145.645 142.468 146.114 142.446ZM109.692 142.534L109.712 142.537C109.759 142.537 109.806 142.549 109.856 142.552C110.547 142.599 111.211 142.84 111.772 143.248C111.879 143.325 111.981 143.407 112.078 143.495C112.592 143.958 112.966 144.557 113.154 145.223C113.167 145.27 113.189 145.315 113.201 145.363C113.373 146.112 113.303 146.895 112.998 147.599L112.99 147.618L113.053 147.696L104.756 167.754C104.514 167.598 104.287 167.423 104.051 167.262C102.615 166.297 101.238 165.248 99.9263 164.12C99.4533 163.711 98.9892 163.293 98.5341 162.865C97.2776 161.682 96.0922 160.426 94.9841 159.102C94.5779 158.615 94.182 158.12 93.7966 157.617C92.7675 156.265 91.8179 154.854 90.9529 153.392C90.6124 152.814 90.2858 152.229 89.9732 151.637C89.1838 150.144 88.4816 148.606 87.8701 147.032C87.7607 146.749 87.6294 146.476 87.5263 146.19L108.943 142.556L108.979 142.602L109.001 142.595C109.23 142.553 109.46 142.533 109.692 142.534ZM127.864 151.348C127.954 151.345 128.042 151.368 128.133 151.371C128.535 151.388 128.933 151.471 129.308 151.62C129.392 151.652 129.483 151.667 129.564 151.707V151.71C130.258 152.038 130.83 152.581 131.193 153.257L131.203 153.276H131.286L141.843 172.359C141.412 172.502 140.973 172.629 140.537 172.759C140.021 172.913 139.502 173.057 138.981 173.192C138.539 173.307 138.1 173.426 137.653 173.527C137.459 173.573 137.262 173.599 137.065 173.64C134.914 174.099 132.73 174.392 130.534 174.517C130.097 174.542 129.662 174.571 129.225 174.584C126.969 174.645 124.712 174.528 122.475 174.235C122.037 174.179 121.6 174.102 121.165 174.032C119.018 173.685 116.9 173.176 114.829 172.509C114.631 172.445 114.428 172.396 114.229 172.329L124.764 153.285H124.779L124.79 153.267C124.831 153.192 124.892 153.134 124.937 153.063C125.187 152.671 125.508 152.328 125.884 152.052C126.012 151.959 126.148 151.873 126.29 151.796C126.704 151.578 127.154 151.439 127.618 151.387C127.703 151.379 127.779 151.351 127.864 151.348ZM146.253 182.373C144.581 182.969 142.884 183.481 141.162 183.909C142.883 183.48 144.582 182.967 146.253 182.373Z" fill="white"/>
</g>
<defs>
<clipPath id="clip0_248_2439">
<rect width="256" height="256" fill="white"/>
</clipPath>
</defs>
</svg>
