<svg width="256" height="256" viewBox="0 0 256 256" fill="none" xmlns="http://www.w3.org/2000/svg">
<g clip-path="url(#clip0_248_4530)">
<rect width="256" height="256" rx="60" fill="white"/>
<path fill-rule="evenodd" clip-rule="evenodd" d="M215.846 73.2453C215.91 73.5118 215.944 73.7868 215.944 74.063V116.993C215.944 117.544 215.813 118.085 215.565 118.561C215.316 119.039 214.958 119.434 214.528 119.708L182.082 140.452V181.57C182.082 182.689 181.547 183.722 180.673 184.286L112.945 227.583C112.79 227.681 112.621 227.743 112.452 227.81C112.388 227.834 112.329 227.877 112.262 227.896C111.788 228.034 111.291 228.034 110.817 227.896C110.74 227.872 110.669 227.825 110.595 227.795C110.44 227.732 110.278 227.677 110.13 227.583L42.4164 184.286C41.9862 184.011 41.6288 183.616 41.3801 183.139C41.1314 182.663 41.0003 182.121 41 181.57V52.7822C41 52.5004 41.0352 52.2265 41.0986 51.9605C41.1198 51.8705 41.1691 51.7883 41.1973 51.6983C41.2501 51.534 41.2995 51.3658 41.377 51.2131C41.4298 51.1114 41.5073 51.0293 41.5708 50.9354C41.6518 50.8101 41.7258 50.681 41.8209 50.5715C41.9019 50.4815 42.0076 50.415 42.0993 50.3368C42.2014 50.2428 42.293 50.1411 42.4093 50.0667H42.4128L76.2714 28.4181C76.7001 28.1442 77.1861 28 77.6807 28C78.1753 28 78.6613 28.1442 79.09 28.4181L112.949 50.0667H112.956C113.068 50.145 113.164 50.2428 113.266 50.3329C113.357 50.4111 113.459 50.4815 113.54 50.5676C113.639 50.681 113.71 50.8101 113.794 50.9354C113.854 51.0293 113.935 51.1114 113.984 51.2131C114.065 51.3696 114.111 51.534 114.168 51.6983C114.196 51.7883 114.245 51.8705 114.266 51.9644C114.331 52.231 114.364 52.506 114.365 52.7822V133.222L142.579 115.181V74.0591C142.579 73.7852 142.614 73.5073 142.678 73.2453C142.703 73.1513 142.748 73.0692 142.777 72.9792C142.833 72.8149 142.882 72.6467 142.96 72.494C143.013 72.3923 143.09 72.3101 143.15 72.2163C143.235 72.091 143.305 71.9619 143.404 71.8523C143.485 71.7623 143.587 71.6958 143.679 71.6175C143.784 71.5237 143.876 71.4219 143.989 71.3476H143.993L177.855 49.699C178.283 49.4246 178.769 49.2802 179.264 49.2802C179.759 49.2802 180.245 49.4246 180.673 49.699L214.532 71.3476C214.652 71.4259 214.743 71.5237 214.849 71.6137C214.937 71.6919 215.039 71.7623 215.12 71.8484C215.219 71.9619 215.289 72.091 215.374 72.2163C215.437 72.3101 215.515 72.3923 215.564 72.494C215.645 72.6467 215.691 72.8149 215.747 72.9792C215.779 73.0692 215.825 73.1513 215.846 73.2453ZM210.3 115.181V79.482L198.451 87.0569L182.082 97.523V133.222L210.303 115.181H210.3ZM176.441 179.759V144.037L160.34 154.249L114.361 183.39V219.448L176.441 179.759ZM46.6443 58.2012V179.759L108.717 219.445V183.394L76.289 163.013L76.2784 163.005L76.2643 162.997C76.1551 162.927 76.0635 162.825 75.9613 162.739C75.8732 162.661 75.7711 162.599 75.6936 162.512L75.6866 162.501C75.595 162.403 75.5315 162.282 75.454 162.171C75.3835 162.066 75.299 161.977 75.2426 161.867L75.2386 161.855C75.1752 161.738 75.1364 161.597 75.0906 161.464C75.0448 161.347 74.9849 161.237 74.9568 161.111V161.107C74.9216 160.959 74.9145 160.803 74.9004 160.649C74.8863 160.532 74.8581 160.415 74.8581 160.298V160.29V76.2424L58.493 65.7721L46.6443 58.2051V58.2012ZM77.6842 34.7488L49.4735 52.7822L77.6772 70.8154L105.884 52.7782L77.6772 34.7488H77.6842ZM92.3551 147.292L108.721 136.829V58.2012L96.8719 65.7761L80.5029 76.2423V154.871L92.3551 147.292ZM179.264 56.0297L151.056 74.063L179.264 92.0963L207.467 74.0591L179.264 56.0297ZM176.441 97.523L160.072 87.0569L148.224 79.482V115.181L164.589 125.643L176.441 133.222V97.523ZM111.536 177.971L152.909 151.74L173.591 138.633L145.405 120.611L112.952 141.36L83.3743 160.27L111.536 177.971Z" fill="#FF2D20"/>
</g>
<defs>
<clipPath id="clip0_248_4530">
<rect width="256" height="256" fill="white"/>
</clipPath>
</defs>
</svg>
