<svg width="256" height="256" viewBox="0 0 256 256" fill="none" xmlns="http://www.w3.org/2000/svg">
<g clip-path="url(#clip0_248_3255)">
<path d="M196 0H60C26.8629 0 0 26.8629 0 60V196C0 229.137 26.8629 256 60 256H196C229.137 256 256 229.137 256 196V60C256 26.8629 229.137 0 196 0Z" fill="#008080"/>
<path d="M46.1333 51C48.075 54.5 50.1 57.5 52.2167 60.0833C54.275 59.975 61.65 63.8833 63.15 64.4417C67.3833 66.7917 72.0083 69.6917 76.2083 72.4917C80.4167 75.3 84.2083 78.0083 86.8083 79.9917C88.1083 80.9917 89.125 81.8083 89.7417 82.375C89.9835 82.5774 90.2016 82.8067 90.3917 83.0583L90.475 83.2333C90.4962 83.2975 90.5042 83.3653 90.4984 83.4326C90.4927 83.4999 90.4734 83.5654 90.4417 83.625C90.4073 83.6882 90.3598 83.7432 90.3023 83.7864C90.2448 83.8295 90.1786 83.8597 90.1083 83.875H89.875C89.4 83.875 88.1833 82.5167 85.7333 80.4167C78.4367 74.8077 70.7538 69.7201 62.7417 65.1917C58.5417 62.8583 54.7833 60.675 52.2167 60.0833C51.2237 59.9354 50.2122 59.8658 49.2083 59.875C46.9766 59.9167 44.7635 60.2902 42.6417 60.9833C46.7583 64.4333 50.225 66.95 53.3083 68.8917C48.5583 67.375 43.4583 67.1417 37.4583 70C41.8417 72.7417 45.5167 74.725 48.7417 76.2083C57.9333 77.5083 67.5583 82.0083 75.6083 87.1167C79.6333 89.675 83.1417 92.2417 85.7667 94.3417C87.075 95.3833 88.1833 96.3167 89.0167 97.075C89.8333 97.8333 90.4667 98.3583 90.6583 98.825C90.9083 99.4333 90.5 99.6917 89.9583 99.3083C89.6917 99.125 89.225 98.4583 88.425 97.7167C87.3914 96.7702 86.3241 95.8613 85.225 94.9917C81.9951 92.4349 78.6321 90.051 75.15 87.85C67.7083 83.1667 56.55 79.4083 48.7083 76.2083C45.979 75.6417 43.1627 75.6377 40.4317 76.1965C37.7008 76.7553 35.1124 77.8652 32.825 79.4583C36.5667 81.125 39.8 82.3667 42.675 83.3167C49.4417 83.3167 58.4417 86.3583 67.1333 91C75.8167 95.6333 84.1333 101.117 88.1583 105.783C88.7083 106.425 88.025 106.833 87.5417 106.367C83.2083 102.242 75.35 96.3333 66.725 91.7333C61.4 88.925 48.7833 83.3167 42.675 83.3167L42.7083 83.3333C37.9833 83.5 33.2917 84.9583 28.7167 89.3C32.6917 90.2833 36.0917 90.9333 39.0833 91.375C35.4167 92.1083 31.8333 93.875 28.3417 97.3917C31.0361 97.9639 33.4861 98.4139 35.6917 98.7417C32.6348 100.247 29.9938 102.479 28 105.242C31.1083 105.492 33.8583 105.592 36.3333 105.608C33.3333 106.992 30.5333 109.192 28.0333 112.692C32.475 112.917 36.2 112.9 39.4 112.717C35.8833 114.15 32.6333 116.583 29.8583 120.783C35.375 120.867 39.7583 120.6 43.425 120.15L43.375 120.167C51.625 119.558 62.5167 121.225 68.0583 127.225C68.4917 127.7 67.8583 128.208 67.4583 127.842C62.0583 123.008 55.0167 120.95 43.375 120.167H43.3583C38.8333 121.408 34.6417 123.883 31.1917 129.117C35.6583 129.183 39.375 129.008 42.575 128.7C38.6667 130.842 35.3 134.067 33.0833 139.583C37.1083 138.817 40.4833 138 43.3917 137.15C40.3667 139.358 37.825 142.45 36.1167 147.1C38.8056 146.5 41.225 145.886 43.375 145.258C41.2248 147.904 39.7568 151.038 39.1 154.383C42.0333 153.3 44.5583 152.267 46.8167 151.242C44.675 153.742 43.0417 156.917 42.2333 161.158C46.3583 159.5 49.725 157.925 52.55 156.425C49.9667 159.2 48.025 162.758 47.2583 167.725C51.3992 165.932 55.4139 163.86 59.275 161.525C55.6667 164.542 52.9083 168.55 51.95 174.75C58.5167 171.85 63.1083 169.225 66.675 166.792C65.1417 169.892 64.325 173.508 64.7167 178.025C71.0667 173.158 75.075 169.225 78.0667 165.75C77.8667 167.992 78.0417 170.417 78.7083 173.117C83.2583 165.292 87.7833 163.017 92.4583 160.4C85 164.158 86.1083 166.983 86.1083 170.267C91.8 164.267 99.7333 157.917 102.167 153.933C98.9167 158.808 97.6083 163.433 96.75 167.517C80.1417 176.3 70.025 178.592 58.6833 182.1C63.0833 183.717 67.7917 185.292 65.8417 187.533L60.6417 192.717C63.9667 191.683 67.35 190.217 70.2917 192.225C70 194.95 66.5667 196.325 63.625 197.917C68.8 196.05 69.925 196.483 71.2917 196.917C71.9667 200.192 69.6 201.942 68.0583 204.1C81.1 194.183 98.1083 186.35 110.092 183.083C126.942 177.408 148.675 171.508 154.583 157.125L160.517 133.4L160.483 133.433C159.558 133.15 158.433 132.908 157.567 132.325C156.683 131.713 156.001 130.851 155.608 129.85C153.508 130.392 151.942 130.1 150.942 129.117C149.967 128.142 149.55 126.65 149.25 125.025C147.558 125.367 146.233 125.158 145.358 124.383C144.392 123.542 143.942 122.217 143.708 120.683L143.642 120.358L143.95 120.233C144.901 119.892 145.761 119.339 146.467 118.617C146.705 118.372 146.882 118.075 146.983 117.749C147.084 117.423 147.107 117.078 147.05 116.742L147 116.433L147.25 116.3C148.608 115.525 150.125 114.892 150.817 113.967C151.007 113.721 151.145 113.439 151.221 113.138C151.297 112.837 151.31 112.523 151.258 112.217C151.05 111.143 150.609 110.127 149.967 109.242L149.742 108.908L150.075 108.683C151.058 107.933 152.108 107.192 152.642 106.517C152.908 106.183 153.039 105.878 153.033 105.6C153.033 105.325 152.908 105.017 152.5 104.625L151.683 103.842L152.808 103.892C154.592 103.975 156.086 103.828 157.292 103.45C158.22 103.184 159.027 102.604 159.575 101.808C159.517 101.533 159.408 101.283 159.408 100.992C159.455 99.9548 159.901 98.976 160.651 98.2589C161.402 97.5418 162.4 97.1416 163.438 97.1416C164.475 97.1416 165.473 97.5418 166.224 98.2589C166.974 98.976 167.419 99.9548 167.467 100.992C167.467 101.358 167.342 101.692 167.25 102.033C168.725 102.15 170.142 102.117 171.475 101.533L171.492 101.542L171.783 101.433C173.75 100.725 174.567 101.808 177.783 97.6333C163.7 79.3833 143.142 92.3417 136.308 111.15C134.558 115.95 124.6 115.967 121.717 111.15C110.3 86.5667 75.6333 60.5833 46.1333 51ZM53.3 68.875C60.85 71.3167 69.2417 75.3917 76.3833 79.9417C79.9667 82.2167 83.1583 84.4667 85.6667 86.4333C88.175 88.4 90.3833 90.375 90.8333 91.225C91.2833 92.075 90.8333 92.3917 90.15 91.725C89.475 91.075 87.625 89.0583 85.15 87.1167C82.1838 84.8112 79.108 82.6503 75.9333 80.6417C69.475 76.5583 59.4167 72.6583 53.3 68.875ZM39.1333 91.375C48.4333 91.4917 58.7167 95.1 67.75 99.6833C71.7831 101.712 75.6678 104.023 79.375 106.6C82.475 108.792 84.975 110.967 85.4917 112.075C86 113.192 85.325 113.158 84.7667 112.533C83.0034 110.59 81.0366 108.841 78.9 107.317C75.2186 104.755 71.3619 102.455 67.3583 100.433C59.3333 96.4167 48.325 92.7083 39.1333 91.375ZM163.433 97.8083C163.016 97.8083 162.604 97.8905 162.218 98.05C161.833 98.2096 161.483 98.4434 161.188 98.7383C160.893 99.0331 160.66 99.3831 160.5 99.7683C160.34 100.154 160.258 100.566 160.258 100.983C160.258 101.4 160.34 101.813 160.5 102.198C160.66 102.584 160.893 102.934 161.188 103.228C161.483 103.523 161.833 103.757 162.218 103.917C162.604 104.076 163.016 104.158 163.433 104.158C164.275 104.158 165.083 103.824 165.678 103.228C166.274 102.633 166.608 101.825 166.608 100.983C166.608 100.141 166.274 99.3337 165.678 98.7383C165.083 98.1428 164.275 97.8083 163.433 97.8083ZM42.1667 98.2C49.0167 98.8 56.5 101.267 63.2833 104.45C72.3333 108.692 80.2417 114.1 83.5667 118.342C83.8583 118.717 83.45 119.433 82.9 118.858C79.3333 115.192 71.8833 109.433 62.925 105.233C55.3167 101.725 43.9083 97.9833 35.7417 98.7333C37.8333 98.4833 39.8833 98 42.1667 98.2ZM178.325 98.2833C175.275 102.242 173.908 101.808 172.467 102.15C173.25 105.733 175.383 107.033 177.342 108.567L176.842 108.667C196.133 104.942 211.725 106.283 228 106.7L178.325 98.2833ZM176.842 108.667H176.825L176.792 108.8L176.842 108.667ZM171.633 102.358C170.131 102.894 168.522 103.063 166.942 102.85C166.609 103.494 166.108 104.036 165.492 104.418C164.875 104.8 164.167 105.007 163.442 105.017C162.68 105.016 161.933 104.798 161.291 104.387C160.649 103.977 160.137 103.391 159.817 102.7C159.218 103.427 158.427 103.97 157.533 104.267C156.196 104.632 154.81 104.787 153.425 104.725C153.592 105.017 153.875 105.292 153.883 105.592C153.871 106.128 153.667 106.642 153.308 107.042C152.7 107.808 151.733 108.458 150.85 109.108C151.572 110.275 151.986 111.281 152.092 112.125C152.203 112.959 151.995 113.805 151.508 114.492C150.625 115.658 149.108 116.242 147.85 116.933C147.905 117.748 147.636 118.551 147.1 119.167C146.393 119.876 145.552 120.437 144.625 120.817C144.85 122.117 145.242 123.175 145.908 123.767C146.625 124.4 147.667 124.625 149.45 124.158L149.908 124.042L149.992 124.5C150.267 126.225 150.725 127.708 151.55 128.525C152.383 129.35 153.583 129.65 155.742 128.983L156.15 128.858L156.283 129.258C156.574 130.22 157.19 131.051 158.025 131.608C158.75 132.108 160.083 132.542 161.008 132.833C167.658 125.592 173.717 118.067 176.708 109C174.833 107.525 172.492 106.183 171.633 102.358ZM36.3833 105.575C46.0917 104.908 55.4083 107.208 63.0667 110.792C70.7333 114.375 76.8833 118.617 79.5167 121.683C80.1417 122.408 79.3583 122.683 78.9167 122.283C74.049 117.944 68.5852 114.324 62.6917 111.533C55.1583 108.083 44.4167 106.167 36.3833 105.575ZM43.5833 112.258C48.6667 112.425 53.9167 113.55 58.6333 115.192C64.9333 117.375 70.475 120.308 73.1917 123.358C73.5667 123.775 73.1333 124.417 72.575 123.933C69.6667 121.4 64.5667 118.158 58.3583 116.008C53.575 114.383 44.9167 112.933 39.4583 112.7C41.1 112.517 41.8917 112.2 43.5833 112.258ZM52.3333 127.158C55.8583 127.442 59.7167 128.267 63.5083 130.55C63.8667 130.767 63.9167 131.683 63.1 131.3C55.9667 127.95 52.05 127.217 42.625 128.717C45.8417 127.65 48.7917 126.875 52.325 127.158H52.3333ZM52 133.725C55.3333 133.433 58.5333 133.708 62.8083 135.425C63.175 135.575 63.475 136.475 62.5333 136.208C55.3917 134.183 52.8083 133.475 43.475 137.075C45.909 135.116 48.8834 133.947 52 133.725ZM62.7083 139.45C65.35 139.258 68 139.233 70.4917 139.5C70.925 139.55 70.95 140.375 70.4417 140.35C65.319 140.079 60.1822 140.401 55.1333 141.308C53.1083 141.692 51.6083 141.667 43.425 145.125C45.8167 143.183 50.0417 141.358 54.9667 140.458C57.5309 139.991 60.1177 139.657 62.7167 139.458L62.7083 139.45ZM73.375 143.533C74.2 143.558 73.8917 144.4 73.425 144.392C67.3583 144.308 62.5583 145.492 57.8 146.85C54.0399 148.046 50.3696 149.508 46.8167 151.225C49.175 149.308 52.7583 147.417 57.575 146.042C62.4 144.658 67.975 143.325 73.375 143.525V143.533ZM77.775 146.85C78.075 146.808 78.65 147.55 77.925 147.683C71.8417 148.825 67.5583 149.908 62.975 151.467C61.175 152.083 58.1417 153.192 52.6167 156.358C54.7833 154.117 58.0833 152.258 62.725 150.692C67.6194 148.975 72.6555 147.692 77.775 146.858V146.85ZM80.3667 151.075C80.9917 150.975 81.175 151.8 80.5333 151.925C70.3917 153.933 65.8667 156.558 59.3667 161.458C63.5667 157.1 70.175 152.7 80.3667 151.075ZM85.325 154.808C86.05 154.7 86.2417 155.533 85.5 155.642C78.2333 156.725 73.1917 160.25 66.7083 166.725C69.1667 162.617 75.075 156.392 85.325 154.808ZM88.425 158.058C88.8083 158.008 89.375 158.667 88.6167 158.892C86.6496 159.457 84.7726 160.299 83.0417 161.392C81.525 162.375 80.5417 163.058 78.0667 165.617C78.9917 163.575 80.5333 162 82.5833 160.7C84.6417 159.392 86.8333 158.258 88.425 158.058Z" fill="white"/>
</g>
<defs>
<clipPath id="clip0_248_3255">
<rect width="256" height="256" fill="white"/>
</clipPath>
</defs>
</svg>
