<svg width="256" height="256" viewBox="0 0 256 256" fill="none" xmlns="http://www.w3.org/2000/svg">
<g clip-path="url(#clip0_248_3258)">
<rect width="256" height="256" rx="60" fill="#242938"/>
<path d="M46.1333 51.45C48.075 54.95 50.1 57.95 52.2167 60.5333C54.275 60.425 61.65 64.3333 63.15 64.8916C67.3833 67.2416 72.0083 70.1416 76.2083 72.9416C80.4167 75.75 84.2083 78.4583 86.8083 80.4416C88.1083 81.4416 89.125 82.2583 89.7417 82.825C89.9835 83.0274 90.2016 83.2566 90.3917 83.5083L90.475 83.6833C90.4962 83.7474 90.5042 83.8152 90.4984 83.8825C90.4927 83.9498 90.4734 84.0153 90.4417 84.075C90.4073 84.1381 90.3598 84.1932 90.3023 84.2363C90.2448 84.2795 90.1786 84.3097 90.1083 84.325H89.875C89.4 84.325 88.1833 82.9666 85.7333 80.8666C78.4367 75.2577 70.7538 70.1701 62.7417 65.6416C58.5417 63.3083 54.7833 61.125 52.2167 60.5333C51.2237 60.3854 50.2122 60.3157 49.2083 60.325C46.9766 60.3666 44.7635 60.7402 42.6417 61.4333C46.7583 64.8833 50.225 67.4 53.3083 69.3416C48.5583 67.825 43.4583 67.5916 37.4583 70.4499C41.8417 73.1916 45.5167 75.175 48.7417 76.6583C57.9333 77.9583 67.5583 82.4583 75.6083 87.5666C79.6333 90.1249 83.1417 92.6916 85.7667 94.7916C87.075 95.8333 88.1833 96.7666 89.0167 97.525C89.8333 98.2833 90.4667 98.8083 90.6583 99.275C90.9083 99.8833 90.5 100.142 89.9583 99.7583C89.6917 99.5749 89.225 98.9083 88.425 98.1666C87.3914 97.2201 86.3241 96.3112 85.225 95.4416C81.9951 92.8849 78.6321 90.501 75.15 88.2999C67.7083 83.6166 56.55 79.8583 48.7083 76.6583C45.979 76.0917 43.1627 76.0876 40.4317 76.6464C37.7008 77.2052 35.1124 78.3151 32.825 79.9083C36.5667 81.575 39.8 82.8166 42.675 83.7666C49.4417 83.7666 58.4417 86.8083 67.1333 91.45C75.8167 96.0833 84.1333 101.567 88.1583 106.233C88.7083 106.875 88.025 107.283 87.5417 106.817C83.2083 102.692 75.35 96.7833 66.725 92.1833C61.4 89.375 48.7833 83.7666 42.675 83.7666L42.7083 83.7833C37.9833 83.9499 33.2917 85.4083 28.7167 89.7499C32.6917 90.7333 36.0917 91.3833 39.0833 91.825C35.4167 92.5583 31.8333 94.3249 28.3417 97.8416C31.0361 98.4138 33.4861 98.8638 35.6917 99.1916C32.6348 100.697 29.9938 102.929 28 105.692C31.1083 105.942 33.8583 106.042 36.3333 106.058C33.3333 107.442 30.5333 109.642 28.0333 113.142C32.475 113.367 36.2 113.35 39.4 113.167C35.8833 114.6 32.6333 117.033 29.8583 121.233C35.375 121.317 39.7583 121.05 43.425 120.6L43.375 120.617C51.625 120.008 62.5167 121.675 68.0583 127.675C68.4917 128.15 67.8583 128.658 67.4583 128.292C62.0583 123.458 55.0167 121.4 43.375 120.617H43.3583C38.8333 121.858 34.6417 124.333 31.1917 129.567C35.6583 129.633 39.375 129.458 42.575 129.15C38.6667 131.292 35.3 134.517 33.0833 140.033C37.1083 139.267 40.4833 138.45 43.3917 137.6C40.3667 139.808 37.825 142.9 36.1167 147.55C38.8056 146.95 41.225 146.336 43.375 145.708C41.2248 148.354 39.7568 151.488 39.1 154.833C42.0333 153.75 44.5583 152.717 46.8167 151.692C44.675 154.192 43.0417 157.367 42.2333 161.608C46.3583 159.95 49.725 158.375 52.55 156.875C49.9667 159.65 48.025 163.208 47.2583 168.175C51.3992 166.382 55.4139 164.31 59.275 161.975C55.6667 164.992 52.9083 169 51.95 175.2C58.5167 172.3 63.1083 169.675 66.675 167.242C65.1417 170.342 64.325 173.958 64.7167 178.475C71.0667 173.608 75.075 169.675 78.0667 166.2C77.8667 168.442 78.0417 170.867 78.7083 173.567C83.2583 165.742 87.7833 163.467 92.4583 160.85C85 164.608 86.1083 167.433 86.1083 170.717C91.8 164.717 99.7333 158.367 102.167 154.383C98.9167 159.258 97.6083 163.883 96.75 167.967C80.1417 176.75 70.025 179.042 58.6833 182.55C63.0833 184.167 67.7917 185.742 65.8417 187.983L60.6417 193.167C63.9667 192.133 67.35 190.667 70.2917 192.675C70 195.4 66.5667 196.775 63.625 198.367C68.8 196.5 69.925 196.933 71.2917 197.367C71.9667 200.642 69.6 202.392 68.0583 204.55C81.1 194.633 98.1083 186.8 110.092 183.533C126.942 177.858 148.675 171.958 154.583 157.575L160.517 133.85L160.483 133.883C159.558 133.6 158.433 133.358 157.567 132.775C156.683 132.163 156.001 131.301 155.608 130.3C153.508 130.842 151.942 130.55 150.942 129.567C149.967 128.592 149.55 127.1 149.25 125.475C147.558 125.817 146.233 125.608 145.358 124.833C144.392 123.992 143.942 122.667 143.708 121.133L143.642 120.808L143.95 120.683C144.901 120.342 145.761 119.789 146.467 119.067C146.705 118.822 146.882 118.525 146.983 118.199C147.084 117.873 147.107 117.528 147.05 117.192L147 116.883L147.25 116.75C148.608 115.975 150.125 115.342 150.817 114.417C151.007 114.171 151.145 113.889 151.221 113.588C151.297 113.287 151.31 112.973 151.258 112.667C151.05 111.593 150.609 110.577 149.967 109.692L149.742 109.358L150.075 109.133C151.058 108.383 152.108 107.642 152.642 106.967C152.908 106.633 153.039 106.328 153.033 106.05C153.033 105.775 152.908 105.467 152.5 105.075L151.683 104.292L152.808 104.342C154.592 104.425 156.086 104.278 157.292 103.9C158.22 103.634 159.027 103.054 159.575 102.258C159.517 101.983 159.408 101.733 159.408 101.442C159.455 100.405 159.901 99.4259 160.651 98.7088C161.402 97.9917 162.4 97.5916 163.438 97.5916C164.475 97.5916 165.473 97.9917 166.224 98.7088C166.974 99.4259 167.419 100.405 167.467 101.442C167.467 101.808 167.342 102.142 167.25 102.483C168.725 102.6 170.142 102.567 171.475 101.983L171.492 101.992L171.783 101.883C173.75 101.175 174.567 102.258 177.783 98.0833C163.7 79.8333 143.142 92.7916 136.308 111.6C134.558 116.4 124.6 116.417 121.717 111.6C110.3 87.0166 75.6333 61.0333 46.1333 51.45ZM53.3 69.325C60.85 71.7666 69.2417 75.8416 76.3833 80.3916C79.9667 82.6666 83.1583 84.9166 85.6667 86.8833C88.175 88.8499 90.3833 90.8249 90.8333 91.6749C91.2833 92.5249 90.8333 92.8416 90.15 92.1749C89.475 91.525 87.625 89.5083 85.15 87.5666C82.1838 85.2611 79.108 83.1003 75.9333 81.0916C69.475 77.0083 59.4167 73.1083 53.3 69.325ZM39.1333 91.825C48.4333 91.9416 58.7167 95.5499 67.75 100.133C71.7831 102.162 75.6678 104.473 79.375 107.05C82.475 109.242 84.975 111.417 85.4917 112.525C86 113.642 85.325 113.608 84.7667 112.983C83.0034 111.039 81.0366 109.291 78.9 107.767C75.2186 105.205 71.3619 102.905 67.3583 100.883C59.3333 96.8666 48.325 93.1583 39.1333 91.825ZM163.433 98.2583C163.016 98.2583 162.604 98.3404 162.218 98.5C161.833 98.6595 161.483 98.8934 161.188 99.1882C160.893 99.483 160.66 99.8331 160.5 100.218C160.34 100.603 160.258 101.016 160.258 101.433C160.258 101.85 160.34 102.263 160.5 102.648C160.66 103.034 160.893 103.384 161.188 103.678C161.483 103.973 161.833 104.207 162.218 104.367C162.604 104.526 163.016 104.608 163.433 104.608C164.275 104.608 165.083 104.274 165.678 103.678C166.274 103.083 166.608 102.275 166.608 101.433C166.608 100.591 166.274 99.7836 165.678 99.1882C165.083 98.5928 164.275 98.2583 163.433 98.2583ZM42.1667 98.6499C49.0167 99.2499 56.5 101.717 63.2833 104.9C72.3333 109.142 80.2417 114.55 83.5667 118.792C83.8583 119.167 83.45 119.883 82.9 119.308C79.3333 115.642 71.8833 109.883 62.925 105.683C55.3167 102.175 43.9083 98.4333 35.7417 99.1833C37.8333 98.9333 39.8833 98.4499 42.1667 98.6499ZM178.325 98.7333C175.275 102.692 173.908 102.258 172.467 102.6C173.25 106.183 175.383 107.483 177.342 109.017L176.842 109.117C196.133 105.392 211.725 106.733 228 107.15L178.325 98.7333ZM176.842 109.117H176.825L176.792 109.25L176.842 109.117ZM171.633 102.808C170.131 103.344 168.522 103.513 166.942 103.3C166.609 103.944 166.108 104.486 165.492 104.868C164.875 105.25 164.167 105.457 163.442 105.467C162.68 105.466 161.933 105.248 161.291 104.837C160.649 104.427 160.137 103.841 159.817 103.15C159.218 103.877 158.427 104.42 157.533 104.717C156.196 105.082 154.81 105.237 153.425 105.175C153.592 105.467 153.875 105.742 153.883 106.042C153.871 106.578 153.667 107.092 153.308 107.492C152.7 108.258 151.733 108.908 150.85 109.558C151.572 110.725 151.986 111.731 152.092 112.575C152.203 113.409 151.995 114.255 151.508 114.942C150.625 116.108 149.108 116.692 147.85 117.383C147.905 118.198 147.636 119.001 147.1 119.617C146.393 120.326 145.552 120.887 144.625 121.267C144.85 122.567 145.242 123.625 145.908 124.217C146.625 124.85 147.667 125.075 149.45 124.608L149.908 124.492L149.992 124.95C150.267 126.675 150.725 128.158 151.55 128.975C152.383 129.8 153.583 130.1 155.742 129.433L156.15 129.308L156.283 129.708C156.574 130.67 157.19 131.5 158.025 132.058C158.75 132.558 160.083 132.992 161.008 133.283C167.658 126.042 173.717 118.517 176.708 109.45C174.833 107.975 172.492 106.633 171.633 102.808ZM36.3833 106.025C46.0917 105.358 55.4083 107.658 63.0667 111.242C70.7333 114.825 76.8833 119.067 79.5167 122.133C80.1417 122.858 79.3583 123.133 78.9167 122.733C74.049 118.394 68.5852 114.774 62.6917 111.983C55.1583 108.533 44.4167 106.617 36.3833 106.025ZM43.5833 112.708C48.6667 112.875 53.9167 114 58.6333 115.642C64.9333 117.825 70.475 120.758 73.1917 123.808C73.5667 124.225 73.1333 124.867 72.575 124.383C69.6667 121.85 64.5667 118.608 58.3583 116.458C53.575 114.833 44.9167 113.383 39.4583 113.15C41.1 112.967 41.8917 112.65 43.5833 112.708ZM52.3333 127.608C55.8583 127.892 59.7167 128.717 63.5083 131C63.8667 131.217 63.9167 132.133 63.1 131.75C55.9667 128.4 52.05 127.667 42.625 129.167C45.8417 128.1 48.7917 127.325 52.325 127.608H52.3333ZM52 134.175C55.3333 133.883 58.5333 134.158 62.8083 135.875C63.175 136.025 63.475 136.925 62.5333 136.658C55.3917 134.633 52.8083 133.925 43.475 137.525C45.909 135.566 48.8834 134.397 52 134.175ZM62.7083 139.9C65.35 139.708 68 139.683 70.4917 139.95C70.925 140 70.95 140.825 70.4417 140.8C65.319 140.529 60.1822 140.851 55.1333 141.758C53.1083 142.142 51.6083 142.117 43.425 145.575C45.8167 143.633 50.0417 141.808 54.9667 140.908C57.5309 140.44 60.1177 140.107 62.7167 139.908L62.7083 139.9ZM73.375 143.983C74.2 144.008 73.8917 144.85 73.425 144.842C67.3583 144.758 62.5583 145.942 57.8 147.3C54.0399 148.496 50.3696 149.958 46.8167 151.675C49.175 149.758 52.7583 147.867 57.575 146.492C62.4 145.108 67.975 143.775 73.375 143.975V143.983ZM77.775 147.3C78.075 147.258 78.65 148 77.925 148.133C71.8417 149.275 67.5583 150.358 62.975 151.917C61.175 152.533 58.1417 153.642 52.6167 156.808C54.7833 154.567 58.0833 152.708 62.725 151.142C67.6194 149.424 72.6555 148.142 77.775 147.308V147.3ZM80.3667 151.525C80.9917 151.425 81.175 152.25 80.5333 152.375C70.3917 154.383 65.8667 157.008 59.3667 161.908C63.5667 157.55 70.175 153.15 80.3667 151.525ZM85.325 155.258C86.05 155.15 86.2417 155.983 85.5 156.092C78.2333 157.175 73.1917 160.7 66.7083 167.175C69.1667 163.067 75.075 156.842 85.325 155.258ZM88.425 158.508C88.8083 158.458 89.375 159.117 88.6167 159.342C86.6496 159.907 84.7726 160.749 83.0417 161.842C81.525 162.825 80.5417 163.508 78.0667 166.067C78.9917 164.025 80.5333 162.45 82.5833 161.15C84.6417 159.842 86.8333 158.708 88.425 158.508Z" fill="#008080"/>
</g>
<defs>
<clipPath id="clip0_248_3258">
<rect width="256" height="256" fill="white"/>
</clipPath>
</defs>
</svg>
