<svg width="256" height="256" viewBox="0 0 256 256" fill="none" xmlns="http://www.w3.org/2000/svg">
<g clip-path="url(#clip0_377_198)">
<rect width="256" height="256" rx="60" fill="white"/>
<path d="M162.302 170.184C162.298 170.125 162.294 170.066 162.286 170.008C162.27 169.836 162.256 169.695 162.255 169.689C161.993 168.545 161.099 167.638 159.964 167.352C159.763 167.296 159.552 167.26 159.337 167.245C159.261 167.24 159.183 167.237 159.106 167.237C159.006 167.237 158.902 167.253 158.796 167.28C157.387 167.456 156.268 168.566 156.079 169.972C155.919 170.644 155.688 171.288 155.394 171.896C153.946 175.194 150.572 177.297 146.637 177.297C144.242 177.297 142.058 176.338 140.386 174.942C137.496 171.929 133.342 170.05 128.749 170.038C124.141 170.05 119.999 171.929 117.108 174.942C115.436 176.338 113.25 177.297 110.856 177.297C106.921 177.297 103.546 175.194 102.098 171.896C101.803 171.288 101.573 170.644 101.412 169.972C101.223 168.566 100.104 167.456 98.695 167.28C98.5892 167.253 98.4864 167.237 98.386 167.237C98.3086 167.237 98.2318 167.24 98.1555 167.245C97.9416 167.26 97.7325 167.296 97.531 167.352C96.3959 167.638 95.5078 168.545 95.2449 169.689C95.2413 169.705 95.2378 169.719 95.2348 169.735C95.2325 169.746 95.2413 169.757 95.2384 169.768C95.1882 169.995 95.1722 170.231 95.1722 170.473V171.049H95.145C95.1462 171.049 95.148 170.788 95.1497 170.8C95.9303 177.352 101.985 183.418 110.856 183.518C115.429 183.518 119.548 181.522 122.444 178.556C124.117 177.118 126.324 176.171 128.749 176.161C131.179 176.171 133.377 177.065 135.051 178.503C137.946 181.468 142.062 183.385 146.635 183.385C155.506 183.284 161.56 177.188 162.34 170.635C162.341 170.629 162.323 170.409 162.302 170.184Z" fill="#135EB1"/>
<path d="M145.208 145.339C145.268 144.925 145.28 144.498 145.28 144.058C145.28 140.797 142.712 138.143 139.485 138.004C139.451 137.999 139.429 137.991 139.396 137.991C139.371 137.991 139.376 137.995 139.352 137.995C139.322 137.995 139.349 137.991 139.319 137.991C139.108 137.991 129.353 138.023 129.353 138.023C129.353 138.023 119.485 137.991 119.274 137.991C119.244 137.991 119.215 137.995 119.185 137.995C119.162 137.995 119.139 137.991 119.114 137.991C119.081 137.991 119.045 137.999 119.01 138.004C115.784 138.143 113.208 140.797 113.208 144.058C113.208 144.553 113.273 145.033 113.388 145.493C113.703 146.233 114.069 146.947 114.48 147.63C116.254 150.385 118.71 152.654 121.611 154.205C123.918 155.35 126.516 155.998 129.267 155.998C132.325 155.998 135.196 155.199 137.687 153.802C139.683 152.619 141.461 151.084 142.921 149.282C143.848 148.083 144.621 146.759 145.208 145.339Z" fill="#135EB1"/>
<path d="M82.8989 73.7925V73.7943C82.9072 73.7972 82.9155 73.8002 82.9243 73.8037C82.9155 73.8002 82.9078 73.796 82.8989 73.7925Z" fill="#135EB1"/>
<path d="M194.293 138.999C187.803 128.831 186.525 122.101 185.397 116.163C184.356 110.683 183.458 105.95 178.312 97.8888C173.167 89.8287 169.252 87.0208 164.718 83.7698C164.102 83.3272 163.474 82.8776 162.836 82.409C154.15 93.859 153.785 112.677 163.127 129.409C173.383 147.775 191.917 157.512 207.119 153.598C203.264 150.54 199.024 146.41 194.293 138.999Z" fill="#135EB1"/>
<path d="M219.294 146.475C229.96 135.41 231.136 115.023 221.095 97.04C210.008 77.1824 189.243 67.4181 173.474 74.085C178.09 77.4282 183.278 81.5549 189.248 90.9073C195.738 101.074 197.017 107.804 198.144 113.742C199.184 119.223 200.083 123.956 205.229 132.017C210.375 140.078 214.29 142.886 218.824 146.137C218.98 146.249 219.137 146.362 219.294 146.475Z" fill="#135EB1"/>
<path d="M61.7069 138.999C68.1971 128.831 69.4752 122.101 70.6032 116.163C71.6437 110.683 72.5425 105.95 77.6878 97.8888C82.8332 89.8287 86.7483 87.0208 91.2816 83.7698C91.8984 83.3272 92.5259 82.8776 93.1641 82.409C101.85 93.859 102.215 112.677 92.8728 129.409C82.6175 147.775 64.0835 157.512 48.8813 153.598C52.7356 150.54 56.9758 146.41 61.7069 138.999Z" fill="#135EB1"/>
<path d="M36.7053 146.475C26.0394 135.41 24.8641 115.023 34.9043 97.04C45.9922 77.1824 66.7568 67.4181 82.5261 74.085C77.9102 77.4282 72.7217 81.5549 66.7515 90.9073C60.2613 101.074 58.9832 107.804 57.8558 113.742C56.8153 119.223 55.9165 123.956 50.7706 132.017C45.6246 140.078 41.7095 142.886 37.1757 146.137C37.0197 146.249 36.8631 146.362 36.7053 146.475Z" fill="#135EB1"/>
</g>
<defs>
<clipPath id="clip0_377_198">
<rect width="256" height="256" fill="white"/>
</clipPath>
</defs>
</svg>
