<svg width="256" height="256" viewBox="0 0 256 256" fill="none" xmlns="http://www.w3.org/2000/svg">
<g clip-path="url(#clip0_355_224)">
<rect width="256" height="256" rx="60" fill="#242938"/>
<path d="M238 93H18V163.968H238V93Z" fill="white"/>
<path d="M18 163.968V93H238V163.968H18ZM63.8824 137.532H46.2629V107.976H38.4032V144.638H63.8824V137.532ZM90.7224 120.575C89.319 119.028 87.5909 117.81 85.662 117.009C83.733 116.209 81.6508 115.844 79.5645 115.942C77.6139 115.876 75.6701 116.205 73.8502 116.911C72.0304 117.616 70.3722 118.682 68.9756 120.046C67.5791 121.409 66.4731 123.041 65.7243 124.844C64.9755 126.646 64.5994 128.581 64.6187 130.533C64.6187 139.049 71.0608 145.124 80.4232 145.124C85.3362 145.131 90.0522 143.193 93.5398 139.732L88.6377 135.967C86.4152 137.949 83.5245 139.015 80.5474 138.952C79.4054 139.005 78.2642 138.83 77.1902 138.438C76.1162 138.046 75.1309 137.445 74.2916 136.668L94.1129 128.448C93.7592 125.555 92.5859 122.822 90.7313 120.573L90.7224 120.575ZM125.31 127.157C125.359 125.65 125.094 124.149 124.532 122.75C123.97 121.35 123.122 120.084 122.044 119.03C120.965 117.976 119.679 117.158 118.268 116.628C116.856 116.098 115.349 115.867 113.844 115.951C112.068 115.959 110.318 116.37 108.725 117.153C107.131 117.936 105.736 119.07 104.645 120.47V116.405H96.8895V144.629H104.645V128.567C104.655 127.751 104.83 126.945 105.16 126.198C105.49 125.451 105.968 124.778 106.565 124.221C107.161 123.663 107.865 123.232 108.632 122.954C109.4 122.676 110.216 122.555 111.032 122.601C111.853 122.558 112.675 122.68 113.449 122.958C114.223 123.236 114.934 123.665 115.541 124.22C116.148 124.775 116.639 125.445 116.984 126.192C117.33 126.938 117.524 127.745 117.555 128.567V144.629H125.31V127.153V127.157ZM143.597 115.951C140.733 116.052 137.962 116.994 135.629 118.66C133.297 120.325 131.506 122.64 130.48 125.316C129.453 127.992 129.238 130.911 129.859 133.708C130.48 136.506 131.911 139.06 133.973 141.05C136.035 143.04 138.638 144.38 141.456 144.901C144.274 145.423 147.183 145.104 149.821 143.983C152.459 142.863 154.709 140.991 156.291 138.601C157.872 136.211 158.715 133.408 158.715 130.542C158.695 128.586 158.287 126.654 157.513 124.858C156.74 123.062 155.617 121.437 154.211 120.079C152.804 118.72 151.141 117.655 149.319 116.945C147.497 116.235 145.552 115.894 143.597 115.942V115.951ZM180.392 116.419L173.386 135.641L166.374 116.419H157.526L169.138 144.629H177.63L189.242 116.419H180.392ZM203.265 115.942C200.401 116.043 197.63 116.985 195.297 118.651C192.964 120.316 191.174 122.631 190.147 125.307C189.121 127.983 188.905 130.902 189.527 133.7C190.148 136.497 191.579 139.051 193.641 141.041C195.703 143.031 198.305 144.371 201.124 144.892C203.942 145.414 206.851 145.095 209.489 143.974C212.127 142.854 214.377 140.982 215.958 138.592C217.54 136.202 218.383 133.399 218.383 130.533C218.362 128.578 217.952 126.647 217.179 124.852C216.405 123.057 215.282 121.433 213.876 120.076C212.469 118.718 210.807 117.654 208.985 116.944C207.164 116.234 205.219 115.894 203.265 115.942ZM203.265 138.474C202.243 138.46 201.234 138.242 200.297 137.833C199.36 137.424 198.514 136.833 197.809 136.093C197.103 135.353 196.552 134.48 196.188 133.525C195.825 132.569 195.655 131.551 195.689 130.53C195.617 129.508 195.758 128.483 196.101 127.518C196.445 126.554 196.984 125.67 197.685 124.924C198.386 124.178 199.234 123.585 200.175 123.182C201.116 122.779 202.131 122.575 203.155 122.583C204.177 122.597 205.186 122.815 206.123 123.224C207.06 123.633 207.906 124.225 208.612 124.965C209.317 125.705 209.868 126.578 210.232 127.534C210.596 128.489 210.765 129.508 210.731 130.53C210.793 131.549 210.647 132.57 210.3 133.531C209.953 134.491 209.413 135.37 208.713 136.114C208.014 136.858 207.169 137.451 206.232 137.856C205.295 138.262 204.284 138.471 203.263 138.471L203.265 138.474ZM143.599 138.474C142.577 138.46 141.568 138.242 140.631 137.833C139.694 137.424 138.848 136.833 138.143 136.093C137.437 135.353 136.886 134.48 136.522 133.525C136.158 132.569 135.989 131.551 136.023 130.53C135.951 129.508 136.092 128.482 136.436 127.517C136.78 126.552 137.32 125.668 138.022 124.922C138.724 124.176 139.572 123.583 140.514 123.18C141.456 122.778 142.471 122.574 143.496 122.583C144.517 122.598 145.525 122.817 146.461 123.226C147.397 123.635 148.242 124.227 148.947 124.966C149.651 125.706 150.202 126.578 150.565 127.533C150.929 128.488 151.099 129.505 151.065 130.526C151.128 131.546 150.981 132.567 150.635 133.528C150.288 134.489 149.748 135.369 149.049 136.113C148.349 136.858 147.504 137.451 146.567 137.856C145.629 138.262 144.618 138.471 143.597 138.471L143.599 138.474ZM73.7558 124.92C74.4546 124.011 75.3598 123.282 76.3966 122.793C77.4333 122.305 78.5716 122.07 79.7171 122.109C80.9961 122.102 82.2488 122.472 83.3179 123.174C84.3871 123.876 85.2249 124.878 85.7263 126.055L72.1803 131.677C71.7884 129.307 72.3517 126.878 73.7469 124.921L73.7558 124.92Z" fill="#E1251B"/>
</g>
<defs>
<clipPath id="clip0_355_224">
<rect width="256" height="256" fill="white"/>
</clipPath>
</defs>
</svg>
