<svg width="256" height="256" viewBox="0 0 256 256" fill="none" xmlns="http://www.w3.org/2000/svg">
<g clip-path="url(#clip0_248_3265)">
<path d="M196 0H60C26.8629 0 0 26.8629 0 60V196C0 229.137 26.8629 256 60 256H196C229.137 256 256 229.137 256 196V60C256 26.8629 229.137 0 196 0Z" fill="#2E4F82"/>
<path fill-rule="evenodd" clip-rule="evenodd" d="M219.443 116.241C219.443 109.907 220.428 106.172 220.428 99.3511C220.428 88.7941 216.487 85.3833 207.787 85.3833H201.384V92.854H203.354C207.787 92.854 208.772 94.316 208.772 99.6757C208.772 104.71 208.279 109.745 208.279 115.592C208.279 123.063 210.742 125.986 215.666 127.123V127.611C210.742 128.747 208.279 131.671 208.279 139.142C208.279 144.988 208.772 149.699 208.772 155.059C208.772 160.58 207.623 162.042 203.354 162.042V162.204H201.384V170H207.787C216.487 170 220.428 166.589 220.428 156.033C220.428 149.049 219.443 145.476 219.443 139.142C219.443 135.731 221.577 132.158 227.98 131.833V123.388C221.577 123.225 219.443 119.652 219.443 116.241ZM146.716 126.149C141.626 124.2 137.029 123.063 137.029 119.814C137.029 117.379 138.999 115.917 142.611 115.917C146.223 115.917 149.506 117.379 153.118 119.978L159.685 111.369C155.58 108.284 149.999 105.035 142.447 105.035C131.284 105.035 123.731 111.369 123.731 120.302C123.731 128.26 130.791 132.32 136.701 134.594C141.79 136.543 146.716 138.168 146.716 141.415C146.716 143.852 144.745 145.476 140.313 145.476C136.208 145.476 132.105 143.852 127.672 140.441L121.269 149.861C126.194 153.921 133.746 156.682 139.984 156.682C153.118 156.682 160.177 149.861 160.177 140.928C160.177 131.996 153.118 128.26 146.716 126.149ZM186.444 126.149C181.519 124.2 176.923 123.063 176.923 119.814C176.923 117.379 178.893 115.917 182.504 115.917C186.116 115.917 189.4 117.379 193.012 119.978L199.578 111.369C195.474 108.284 189.892 105.035 182.34 105.035C171.176 105.035 163.625 111.369 163.625 120.302C163.625 128.26 170.684 132.32 176.594 134.594C181.683 136.543 186.608 138.168 186.608 141.415C186.608 143.852 184.638 145.476 180.206 145.476C176.102 145.476 171.997 143.852 167.565 140.441L160.998 149.861C165.923 153.921 173.475 156.682 179.714 156.682C192.847 156.682 199.906 149.861 199.906 140.928C199.906 131.996 192.847 128.26 186.444 126.149ZM88.9269 125.336C89.9118 118.84 93.8517 115.755 98.4484 115.755C104.359 115.755 106.658 119.814 106.658 125.336H88.9269ZM119.135 128.26C119.299 115.105 112.075 104.873 98.2844 104.873C86.3001 104.873 74.8087 114.78 75.1367 130.371C75.1367 146.45 85.808 155.87 99.9262 155.87C105.837 155.87 112.404 153.759 117.493 150.348L112.568 141.741C108.956 143.852 105.508 144.826 101.897 144.826C95.3295 144.826 90.2399 141.741 88.9269 134.269H118.642C118.806 133.132 119.135 130.859 119.135 128.26Z" fill="white"/>
<path fill-rule="evenodd" clip-rule="evenodd" d="M74.3165 144.502C73.1675 144.502 71.6897 143.527 71.6897 140.441V85.3833H48.3772C39.5126 85.3833 35.572 88.7941 35.572 99.3511C35.572 106.334 36.557 110.233 36.557 116.241C36.557 119.652 34.4231 123.225 28.0205 123.55V131.996C34.4231 132.158 36.557 135.731 36.557 139.142C36.557 145.151 35.572 148.724 35.572 155.708C35.572 166.265 39.5126 169.675 48.2132 169.675H54.6158V162.204H52.6459C48.5421 162.204 47.2283 160.58 47.2283 155.221C47.2283 149.861 47.7211 145.314 47.7211 139.304C47.7211 131.833 45.2583 128.909 40.3328 127.773V127.286C45.2583 126.149 47.7211 123.225 47.7211 115.755C47.7211 109.907 47.2283 105.198 47.2283 99.8379C47.2283 94.4783 48.3772 93.0171 52.6459 93.0171H57.0786V139.629C57.0786 149.536 60.5263 156.033 70.5407 156.033C73.6596 156.033 76.1224 155.545 77.9283 154.896L76.2864 144.339C75.3014 144.502 74.8094 144.502 74.3165 144.502Z" fill="white"/>
</g>
<defs>
<clipPath id="clip0_248_3265">
<rect width="256" height="256" fill="white"/>
</clipPath>
</defs>
</svg>
