<svg width="256" height="256" viewBox="0 0 256 256" fill="none" xmlns="http://www.w3.org/2000/svg">
<g clip-path="url(#clip0_248_3270)">
<rect width="256" height="256" rx="60" fill="#242938"/>
<path fill-rule="evenodd" clip-rule="evenodd" d="M219.422 116.858C219.422 110.524 220.407 106.789 220.407 99.9678C220.407 89.4108 216.466 86 207.766 86H201.363V93.4707H203.333C207.766 93.4707 208.751 94.9327 208.751 100.292C208.751 105.327 208.258 110.362 208.258 116.209C208.258 123.68 210.721 126.603 215.645 127.74V128.228C210.721 129.364 208.258 132.288 208.258 139.759C208.258 145.605 208.751 150.316 208.751 155.676C208.751 161.197 207.602 162.659 203.333 162.659V162.821H201.363V170.617H207.766C216.466 170.617 220.407 167.206 220.407 156.65C220.407 149.666 219.422 146.093 219.422 139.759C219.422 136.348 221.556 132.775 227.959 132.45V124.005C221.556 123.842 219.422 120.269 219.422 116.858ZM146.695 126.766C141.605 124.817 137.008 123.68 137.008 120.431C137.008 117.996 138.978 116.534 142.59 116.534C146.202 116.534 149.485 117.996 153.097 120.595L159.664 111.986C155.559 108.901 149.978 105.652 142.426 105.652C131.263 105.652 123.71 111.986 123.71 120.919C123.71 128.877 130.77 132.937 136.68 135.211C141.769 137.16 146.695 138.785 146.695 142.032C146.695 144.469 144.724 146.093 140.292 146.093C136.187 146.093 132.084 144.469 127.651 141.058L121.248 150.478C126.173 154.538 133.725 157.299 139.963 157.299C153.097 157.299 160.156 150.478 160.156 141.545C160.156 132.613 153.097 128.877 146.695 126.766ZM186.423 126.766C181.498 124.817 176.902 123.68 176.902 120.431C176.902 117.996 178.872 116.534 182.483 116.534C186.095 116.534 189.379 117.996 192.991 120.595L199.557 111.986C195.453 108.901 189.871 105.652 182.319 105.652C171.155 105.652 163.604 111.986 163.604 120.919C163.604 128.877 170.663 132.937 176.573 135.211C181.662 137.16 186.587 138.785 186.587 142.032C186.587 144.469 184.617 146.093 180.185 146.093C176.081 146.093 171.976 144.469 167.544 141.058L160.977 150.478C165.902 154.538 173.454 157.299 179.693 157.299C192.826 157.299 199.885 150.478 199.885 141.545C199.885 132.613 192.826 128.877 186.423 126.766ZM88.9064 125.953C89.8913 119.457 93.8312 116.372 98.4279 116.372C104.338 116.372 106.637 120.431 106.637 125.953H88.9064ZM119.114 128.877C119.278 115.722 112.054 105.49 98.2639 105.49C86.2796 105.49 74.7882 115.397 75.1162 130.988C75.1162 147.067 85.7875 156.487 99.9057 156.487C105.816 156.487 112.383 154.376 117.472 150.965L112.547 142.358C108.935 144.469 105.487 145.443 101.876 145.443C95.309 145.443 90.2194 142.358 88.9064 134.886H118.621C118.785 133.749 119.114 131.476 119.114 128.877Z" fill="white"/>
<path fill-rule="evenodd" clip-rule="evenodd" d="M74.296 145.119C73.147 145.119 71.6692 144.144 71.6692 141.058V86H48.3567C39.4921 86 35.5515 89.4108 35.5515 99.9678C35.5515 106.951 36.5365 110.85 36.5365 116.858C36.5365 120.269 34.4026 123.842 28 124.167V132.613C34.4026 132.775 36.5365 136.348 36.5365 139.759C36.5365 145.768 35.5515 149.341 35.5515 156.325C35.5515 166.882 39.4921 170.292 48.1927 170.292H54.5953V162.821H52.6254C48.5216 162.821 47.2078 161.197 47.2078 155.838C47.2078 150.478 47.7006 145.931 47.7006 139.921C47.7006 132.45 45.2378 129.526 40.3123 128.39V127.903C45.2378 126.766 47.7006 123.842 47.7006 116.372C47.7006 110.524 47.2078 105.815 47.2078 100.455C47.2078 95.095 48.3567 93.6338 52.6254 93.6338H57.0581V140.246C57.0581 150.153 60.5058 156.65 70.5202 156.65C73.6391 156.65 76.1019 156.162 77.9078 155.513L76.2659 144.956C75.2809 145.119 74.7889 145.119 74.296 145.119Z" fill="white"/>
</g>
<defs>
<clipPath id="clip0_248_3270">
<rect width="256" height="256" fill="white"/>
</clipPath>
</defs>
</svg>
