<svg width="256" height="256" viewBox="0 0 256 256" fill="none" xmlns="http://www.w3.org/2000/svg">
<g clip-path="url(#clip0_389_1003)">
<rect width="256" height="256" rx="60" fill="white"/>
<path d="M194.797 30H61.2031C42.8655 30 28 44.8655 28 63.2031V191.797C28 210.134 42.8655 225 61.2031 225H194.797C213.134 225 228 210.134 228 191.797V63.2031C228 44.8655 213.134 30 194.797 30Z" fill="#001E36"/>
<path d="M133.033 167.819H80.1715C79.2762 167.819 78.8291 167.327 78.8301 166.343V81.1482C78.8066 80.9842 78.8216 80.8169 78.874 80.6597C78.9263 80.5025 79.0145 80.3597 79.1317 80.2425C79.2488 80.1253 79.3916 80.037 79.5487 79.9846C79.7059 79.9321 79.8731 79.917 80.0371 79.9404H96.4059C96.5335 79.9224 96.6635 79.9343 96.7857 79.9752C96.9079 80.0161 97.0189 80.0848 97.11 80.1759C97.201 80.2671 97.2697 80.3782 97.3105 80.5004C97.3512 80.6226 97.3631 80.7526 97.345 80.8802V150.915H135.85C136.655 150.915 136.968 151.318 136.79 152.122L134.375 166.612C134.369 166.81 134.318 167.004 134.224 167.178C134.131 167.353 133.999 167.504 133.838 167.618C133.589 167.748 133.314 167.817 133.033 167.82M146.314 101.139H160.939C161.754 101.147 162.467 101.693 162.682 102.481C163.002 103.069 163.229 103.702 163.354 104.359C163.541 105.223 163.675 106.095 163.756 106.976C163.844 107.915 163.889 108.921 163.89 109.994C166.398 107.074 169.422 104.64 172.812 102.816C176.62 100.757 180.895 99.7174 185.223 99.7974C185.387 99.774 185.554 99.7891 185.711 99.8416C185.869 99.894 186.011 99.9823 186.129 100.1C186.246 100.217 186.334 100.36 186.386 100.517C186.439 100.674 186.454 100.841 186.43 101.005V117.24C186.43 117.866 185.983 118.179 185.089 118.179C179.684 117.844 174.278 118.81 169.324 120.996C167.641 121.725 166.114 122.773 164.829 124.082V166.613C164.829 167.418 164.472 167.82 163.756 167.82H147.522C147.339 167.846 147.153 167.83 146.979 167.771C146.804 167.713 146.645 167.615 146.515 167.485C146.385 167.355 146.287 167.196 146.229 167.021C146.171 166.847 146.154 166.661 146.18 166.479V120.325C146.18 119.201 146.173 118.041 146.158 116.843L146.131 115.019C146.126 114.71 146.12 114.399 146.113 114.086C146.079 112.455 146.032 110.824 145.974 109.193L145.911 107.579C145.852 105.736 145.673 103.899 145.375 102.079C145.344 101.957 145.343 101.83 145.372 101.707C145.401 101.585 145.459 101.472 145.542 101.377C145.625 101.283 145.729 101.21 145.847 101.165C145.964 101.12 146.091 101.105 146.215 101.12L146.314 101.139Z" fill="#31A8FF"/>
</g>
<defs>
<clipPath id="clip0_389_1003">
<rect width="256" height="256" fill="white"/>
</clipPath>
</defs>
</svg>
