<svg width="256" height="256" viewBox="0 0 256 256" fill="none" xmlns="http://www.w3.org/2000/svg">
<g clip-path="url(#clip0_389_995)">
<path d="M196 0H60C26.8629 0 0 26.8629 0 60V196C0 229.137 26.8629 256 60 256H196C229.137 256 256 229.137 256 196V60C256 26.8629 229.137 0 196 0Z" fill="#001E36"/>
<path d="M128.539 186.598H57.8093C56.6113 186.598 56.013 185.94 56.0144 184.623V70.6304C55.983 70.4109 56.0031 70.1872 56.0731 69.9768C56.1431 69.7665 56.2612 69.5754 56.4179 69.4186C56.5746 69.2617 56.7657 69.1436 56.976 69.0734C57.1863 69.0032 57.41 68.983 57.6295 69.0143H79.5312C79.7019 68.9902 79.8759 69.0062 80.0394 69.0609C80.2029 69.1156 80.3514 69.2075 80.4733 69.3295C80.5951 69.4515 80.687 69.6001 80.7415 69.7636C80.7961 69.9271 80.8119 70.1011 80.7877 70.2718V163.98H132.309C133.386 163.98 133.805 164.519 133.566 165.595L130.334 184.983C130.327 185.248 130.258 185.507 130.133 185.741C130.009 185.974 129.832 186.176 129.616 186.33C129.283 186.502 128.914 186.595 128.539 186.599M146.31 97.3783H165.878C166.969 97.3887 167.922 98.1205 168.211 99.1741C168.638 99.9604 168.941 100.808 169.11 101.687C169.359 102.843 169.538 104.01 169.647 105.188C169.765 106.444 169.825 107.791 169.827 109.227C173.182 105.319 177.229 102.063 181.764 99.6226C186.859 96.8677 192.58 95.4764 198.371 95.5834C198.59 95.5521 198.814 95.5724 199.024 95.6426C199.234 95.7127 199.425 95.8309 199.582 95.9877C199.739 96.1445 199.857 96.3356 199.927 96.546C199.997 96.7563 200.017 96.9801 199.986 97.1995V118.921C199.986 119.76 199.387 120.179 198.191 120.178C190.959 119.73 183.726 121.023 177.097 123.947C174.845 124.923 172.803 126.325 171.083 128.076V184.984C171.083 186.061 170.605 186.599 169.647 186.599H147.925C147.681 186.634 147.433 186.612 147.199 186.534C146.965 186.456 146.753 186.325 146.579 186.151C146.404 185.977 146.273 185.764 146.195 185.531C146.118 185.297 146.095 185.048 146.13 184.804V123.049C146.13 121.546 146.12 119.993 146.101 118.39L146.064 115.951C146.057 115.537 146.049 115.121 146.04 114.703C145.995 112.52 145.933 110.337 145.854 108.156L145.771 105.996C145.691 103.53 145.452 101.071 145.054 98.6358C145.011 98.4731 145.01 98.3025 145.049 98.139C145.087 97.9754 145.166 97.8239 145.276 97.6974C145.387 97.571 145.527 97.4736 145.684 97.4136C145.841 97.3536 146.01 97.3328 146.177 97.3532L146.31 97.3783Z" fill="#31A8FF"/>
</g>
<defs>
<clipPath id="clip0_389_995">
<rect width="256" height="256" fill="white"/>
</clipPath>
</defs>
</svg>
