<svg width="256" height="256" viewBox="0 0 256 256" fill="none" xmlns="http://www.w3.org/2000/svg">
<g clip-path="url(#clip0_248_6527)">
<rect width="256" height="256" rx="60" fill="#242938"/>
<path d="M181.125 28H74.875C48.9867 28 28 48.9867 28 74.875V181.125C28 207.013 48.9867 228 74.875 228H181.125C207.013 228 228 207.013 228 181.125V74.875C228 48.9867 207.013 28 181.125 28Z" fill="#0A66C2"/>
<path d="M172.309 198.067H195.176C196.902 198.067 198.301 196.668 198.301 194.942L198.313 146.628C198.313 121.376 192.871 101.965 163.361 101.965C152.143 101.549 141.564 107.331 135.856 116.988C135.81 117.064 135.729 117.111 135.64 117.111C135.502 117.111 135.391 116.999 135.391 116.862V107.422C135.391 105.696 133.992 104.297 132.266 104.297H110.565C108.839 104.297 107.44 105.696 107.44 107.422V194.938C107.44 196.664 108.839 198.063 110.565 198.063H133.431C135.156 198.063 136.556 196.664 136.556 194.938V151.678C136.556 139.446 138.876 127.599 154.041 127.599C168.99 127.599 169.184 141.596 169.184 152.47V194.942C169.184 196.667 170.583 198.067 172.309 198.067Z" fill="white"/>
<path d="M57.6875 74.584C57.6875 83.8532 65.3184 91.4796 74.5876 91.4796C83.855 91.4787 91.4805 83.8479 91.4805 74.5805C91.4787 65.313 83.8523 57.6875 74.584 57.6875C65.3148 57.6875 57.6875 65.3148 57.6875 74.584Z" fill="white"/>
<path d="M63.124 198.066H86.0202C87.7461 198.066 89.1452 196.667 89.1452 194.941V107.422C89.1452 105.696 87.7461 104.297 86.0202 104.297H63.124C61.3982 104.297 59.999 105.696 59.999 107.422V194.941C59.999 196.667 61.3982 198.066 63.124 198.066Z" fill="white"/>
</g>
<defs>
<clipPath id="clip0_248_6527">
<rect width="256" height="256" fill="white"/>
</clipPath>
</defs>
</svg>
