<svg width="256" height="256" viewBox="0 0 256 256" fill="none" xmlns="http://www.w3.org/2000/svg">
<g clip-path="url(#clip0_177_7468)">
<path d="M196 0H60C26.8629 0 0 26.8629 0 60V196C0 229.137 26.8629 256 60 256H196C229.137 256 256 229.137 256 196V60C256 26.8629 229.137 0 196 0Z" fill="url(#paint0_linear_177_7468)"/>
<path d="M85.9493 199.926L110.48 213.546H147.576L182.278 187.491L197.834 146.632L161.935 103.405L151.764 79.127L102.104 80.9034L102.702 94.5229L93.1291 112.287L78.1713 141.303L75.1797 165.581L85.9493 199.926Z" fill="#ECEFF1"/>
<path d="M162.646 48.4525L162.645 48.4482C160.871 40.8381 157.918 35.5728 154.962 31.4728C151.426 27.3976 147.331 25.103 145.062 24.5417L144.998 24.5259L144.941 24.4944C139.646 21.5824 127.268 16.9063 111.912 25.0897L111.905 25.0934L111.905 25.0933C107.94 27.1283 105.096 29.7324 103.092 33.0404C101.085 36.3553 99.9027 40.4062 99.3095 45.3594C98.1638 54.927 99.2258 67.7243 100.645 84.8253C100.699 85.4719 100.753 86.1246 100.807 86.7835L100.809 86.8041V86.8248C100.809 89.2591 100.198 92.2934 98.9654 94.7379C96.6267 99.9399 92.6114 104.573 89.1268 108.593C88.9959 108.744 88.8658 108.894 88.7365 109.044C84.5483 114.965 80.3945 120.843 77.429 127.3L77.4233 127.312L77.4169 127.324C73.8364 134.116 70.4075 141.79 68.0993 148.57C66.9449 151.96 66.0745 155.117 65.6037 157.821C65.1606 160.367 65.0809 162.462 65.4162 163.966C65.4983 163.998 65.5723 164.036 65.6349 164.071C65.8358 164.185 66.0554 164.353 66.2869 164.555C66.7524 164.961 67.3279 165.561 67.9912 166.317C69.321 167.831 71.0479 170.02 73.0273 172.655C76.9882 177.929 81.9852 185.023 86.8853 192.168C91.7862 199.314 96.5936 206.515 100.176 212.005C101.967 214.75 103.454 217.069 104.493 218.74C105.012 219.575 105.422 220.251 105.703 220.74C105.821 220.945 105.919 221.121 105.993 221.264C106.662 221.148 107.622 221.062 108.778 220.995C110.218 220.911 112.001 220.855 113.986 220.818C117.952 220.744 122.738 220.744 127.221 220.744C128.2 220.698 129.146 220.652 130.065 220.607C140.666 220.09 147.498 219.757 156.624 221.795C156.578 221.162 156.47 220.518 156.356 219.847L156.353 219.827C156.206 218.952 156.05 218.029 156.05 217.099C156.05 214.248 156.432 211.763 156.885 208.81C157.004 208.034 157.129 207.225 157.252 206.369L157.254 206.355L157.257 206.341L157.274 206.255C157.788 203.711 158.301 201.169 158.814 198.249C152.617 203.378 142.405 208.79 132.709 210.485C128.132 211.389 122.071 211.083 116.252 209.438C110.432 207.792 104.792 204.788 101.116 200.24L100.458 199.426H101.505C101.807 199.426 102.218 199.425 102.621 199.359C103.035 199.29 103.359 199.165 103.548 198.978L103.631 198.896L103.742 198.859C104.649 198.56 105.51 198.275 106.22 197.924C106.937 197.569 107.415 197.186 107.641 196.741L107.649 196.723L107.659 196.707C109.301 193.998 108.231 191.266 107.074 189.547C106.956 189.372 106.718 189.106 106.353 188.754C105.995 188.409 105.539 188.003 105.005 187.548C103.938 186.639 102.579 185.552 101.122 184.405C100.352 183.8 99.5541 183.177 98.758 182.556C96.5484 180.832 94.352 179.118 92.8057 177.806L93.1291 177.425L92.8056 177.806C91.4267 176.636 90.2375 175.656 89.176 174.78C87.0357 173.014 85.4143 171.677 83.8027 170.082L84.1544 169.727L83.8026 170.082L83.8025 170.082L83.802 170.082L83.8001 170.08L83.7923 170.072L83.7621 170.042L83.6461 169.927L83.223 169.509L81.8581 168.158C80.8111 167.121 79.6146 165.937 79.0161 165.344C79.0161 165.344 79.016 165.344 79.016 165.344L79.3678 164.989C78.6662 164.295 78.1704 163.601 77.7595 163.026C77.4697 162.62 77.2221 162.273 76.9746 162.028L162.646 48.4525ZM162.646 48.4525C163.539 52.1329 163.868 54.5771 163.932 56.4385C163.991 58.1563 163.825 59.3904 163.651 60.6826C163.637 60.788 163.623 60.8937 163.609 61.0001C163.226 63.881 162.932 67.0525 165.039 75.6923C168.532 90.0128 174.522 98.2255 181.899 108.339C183.428 110.435 185.017 112.613 186.655 114.944C191.42 121.723 196.334 130.567 199.533 139.401C202.738 148.255 204.187 157.008 202.142 163.658L202.12 163.73V163.805C202.12 164.185 202.021 164.764 201.845 165.48C201.671 166.186 201.432 166.988 201.172 167.797C200.827 168.871 200.454 169.93 200.152 170.789C200.032 171.13 199.923 171.44 199.831 171.707C199.698 171.754 199.51 171.821 199.28 171.9C198.798 172.065 198.132 172.285 197.392 172.504C195.907 172.945 194.196 173.364 193.081 173.372C193.08 173.372 193.08 173.372 193.08 173.372C193.055 173.365 193.016 173.354 192.961 173.336C192.852 173.301 192.701 173.247 192.511 173.175C192.132 173.032 191.619 172.826 191.012 172.577C189.8 172.078 188.233 171.413 186.661 170.747L186.66 170.746C185.091 170.08 183.518 169.413 182.3 168.912C181.691 168.662 181.167 168.452 180.774 168.303C180.732 168.287 180.691 168.272 180.652 168.257M162.646 48.4525L180.652 168.257M180.652 168.257C182.331 165.418 186.925 155.854 186.368 144.242C186.06 136.357 181.617 130.467 177.303 126.572C175.143 124.622 173.003 123.16 171.404 122.186C170.604 121.699 169.938 121.333 169.47 121.088C169.236 120.965 169.052 120.873 168.925 120.811C168.895 120.796 168.868 120.783 168.845 120.772C168.819 120.76 168.797 120.749 168.779 120.741L168.741 120.723L168.73 120.718L168.727 120.716L168.726 120.716C168.726 120.716 168.726 120.716 168.517 121.17L168.726 120.716L168.216 121.569C175.029 126.7 178.66 132.059 180.287 137.189C181.915 142.321 181.552 147.27 180.302 151.601C179.05 155.936 176.913 159.641 175.011 162.263C174.061 163.573 173.174 164.607 172.493 165.309C172.398 165.406 172.308 165.497 172.223 165.581C172.606 163.023 172.606 160.6 172.606 159.078V159.068C172.606 150.146 171.405 141.219 169.597 134.656L169.597 134.656L169.593 134.644C168.685 131.646 167.474 128.953 166.198 126.353C165.769 125.48 165.335 124.62 164.902 123.764C164.041 122.059 163.186 120.367 162.393 118.6C160.003 112.981 156.715 104.846 153.949 97.8185C152.566 94.3039 151.314 91.0681 150.371 88.5638C149.422 86.0424 148.8 84.2992 148.659 83.7416L148.652 83.7162L148.643 83.6916C148.26 82.648 147.142 81.9638 145.747 81.4987C144.321 81.0231 142.452 80.7252 140.322 80.562C136.057 80.2351 130.64 80.4411 125.392 80.9234C120.142 81.406 115.036 82.1672 111.384 82.959C109.564 83.3536 108.08 83.7611 107.117 84.154C106.65 84.345 106.242 84.5566 105.992 84.801C105.866 84.9246 105.726 85.1084 105.698 85.3521C105.678 85.5241 105.72 85.676 105.791 85.8027C105.782 87.1035 105.663 88.6307 105.532 90.3063C105.519 90.4639 105.507 90.6229 105.494 90.7831C105.345 92.7025 105.195 94.7867 105.194 96.8754C104.897 101.505 102.546 107.639 99.7864 113.175C97.0277 118.709 93.9084 123.553 92.1527 125.58L92.5307 125.907L92.1527 125.58C90.3111 127.706 88.6423 130.718 87.2147 133.841C85.7839 136.972 84.581 140.246 83.6805 142.92L83.6804 142.92L83.6769 142.932C82.4706 146.812 81.718 150.687 81.267 153.588C81.0694 154.86 80.9294 155.946 80.8344 156.766C80.1793 155.042 79.9889 152.764 80.1382 150.168C80.3318 146.801 81.0896 143.006 82.0206 139.431C82.9508 135.859 84.049 132.524 84.9154 130.08C85.3484 128.859 85.7232 127.862 85.9894 127.17C86.1225 126.825 86.2284 126.555 86.301 126.373C86.3373 126.282 86.3652 126.212 86.384 126.166L86.4052 126.113L86.4105 126.1L86.4117 126.097L86.412 126.096C86.4121 126.096 86.4121 126.096 85.9493 125.907M180.652 168.257L75.2809 150.724C75.8897 144.113 78.3207 138.713 81.3148 132.788C81.923 131.584 82.9795 129.792 83.8764 128.312C84.3263 127.57 84.7387 126.902 85.0386 126.42C85.1885 126.179 85.3104 125.984 85.3948 125.849L85.4923 125.694L85.5177 125.654L85.5243 125.644L85.526 125.641L85.5264 125.64L85.5265 125.64L85.9493 125.907M85.9493 125.907L86.4121 126.096L85.5265 125.64L85.9493 125.907Z" fill="#263238" stroke="black"/>
<path d="M111.078 75.5739C115.374 75.5739 118.856 70.2715 118.856 63.7308C118.856 57.19 115.374 51.8877 111.078 51.8877C106.783 51.8877 103.3 57.19 103.3 63.7308C103.3 70.2715 106.783 75.5739 111.078 75.5739Z" fill="#ECEFF1"/>
<path d="M138.002 76.7577C143.62 76.7577 148.174 70.66 148.174 63.1382C148.174 55.6163 143.62 49.5186 138.002 49.5186C132.385 49.5186 127.831 55.6163 127.831 63.1382C127.831 70.66 132.385 76.7577 138.002 76.7577Z" fill="#ECEFF1"/>
<path d="M115.424 64.5407C114.927 60.6472 112.663 57.7237 110.368 58.0107C108.074 58.2978 106.616 61.6868 107.114 65.5803C107.611 69.4737 109.874 72.3973 112.169 72.1102C114.464 71.8231 115.921 68.4341 115.424 64.5407Z" fill="#212121"/>
<path d="M137.404 73.2057C140.709 73.2057 143.387 69.7592 143.387 65.5077C143.387 61.2562 140.709 57.8096 137.404 57.8096C134.1 57.8096 131.421 61.2562 131.421 65.5077C131.421 69.7592 134.1 73.2057 137.404 73.2057Z" fill="#212121"/>
<path d="M216.758 196.229L216.79 196.245L216.823 196.256C217.698 196.544 218.667 196.962 219.413 197.633C220.141 198.289 220.668 199.194 220.668 200.518C220.668 202.198 220.248 203.119 219.732 203.757C219.465 204.087 219.16 204.358 218.83 204.63C218.764 204.684 218.695 204.74 218.626 204.797C218.361 205.012 218.078 205.242 217.824 205.493L217.824 205.493C217.423 205.89 216.501 206.528 215.183 207.348C213.881 208.157 212.243 209.116 210.448 210.152C209.807 210.522 209.147 210.901 208.476 211.287C205.392 213.06 202.074 214.968 199.363 216.676L199.351 216.683L199.34 216.691C196.615 218.617 194.535 220.034 192.853 221.179C191.947 221.797 191.156 222.335 190.443 222.832C188.413 224.246 187.041 225.301 185.516 226.81L185.868 227.165L185.516 226.81C181.397 230.887 177.329 233.179 170.91 233.179C164.371 233.179 161.547 231.999 159.894 230.363L159.868 230.338L159.84 230.316C157.636 228.682 155.854 224.739 155.854 218.283C155.854 215.37 156.295 212.447 156.893 208.967C156.984 208.44 157.078 207.9 157.175 207.346C157.715 204.254 158.332 200.718 158.841 196.438C159.443 192.259 159.443 186.905 159.443 182.188V182.162C159.443 176.202 159.454 174.561 160.586 172.32C161.174 171.157 161.728 170.356 162.451 169.836C163.163 169.324 164.096 169.042 165.525 169.042C168.284 169.042 169.947 170.662 171.145 171.847C175.498 176.76 180.947 177.044 185.897 175.989C188.369 175.462 190.737 174.598 192.806 173.801C193.135 173.675 193.454 173.551 193.765 173.43C195.414 172.789 196.81 172.246 197.898 172.001C198.017 171.993 198.142 171.968 198.245 171.945C198.307 171.931 198.374 171.916 198.441 171.9L198.458 171.896C198.532 171.879 198.608 171.861 198.689 171.843C199.012 171.772 199.382 171.707 199.778 171.707C200.544 171.707 201.433 171.948 202.222 172.989L202.229 172.999L202.238 173.009C202.922 173.822 203.421 174.932 203.805 176.225C204.188 177.514 204.445 178.948 204.669 180.388C204.734 180.808 204.797 181.23 204.859 181.649C205.008 182.651 205.154 183.634 205.327 184.524C205.571 185.779 205.882 186.928 206.38 187.75L206.387 187.76L206.393 187.77C209.815 192.849 213.784 194.781 216.244 195.978C216.424 196.065 216.595 196.149 216.758 196.229Z" fill="#FFC107" stroke="black"/>
<path d="M85.5216 180.644L85.5308 180.659L85.541 180.674C87.9856 184.13 89.1928 186.153 90.9749 189.139C92.2404 191.259 93.7958 193.865 96.29 197.815C97.6479 200.203 99.0048 202.142 100.261 203.85C100.618 204.334 100.964 204.797 101.299 205.245C102.155 206.39 102.939 207.438 103.631 208.491C105.527 211.379 106.682 214.234 106.391 218.843L106.39 218.859V218.875C106.39 226.735 103.609 230.689 100.137 232.652C96.6125 234.646 92.2571 234.66 88.9857 234.366C85.7827 234.077 81.6711 232.484 76.9329 230.623L76.6783 230.523C72.0385 228.7 66.8582 226.666 61.5258 225.493L61.5258 225.493L61.5182 225.491C51.3378 223.417 45.5403 222.091 41.989 220.846C40.2192 220.226 39.0341 219.634 38.1526 218.997C37.2869 218.372 36.6931 217.688 36.1233 216.846C35.165 214.929 35.4708 213.478 35.9764 211.077C36.0413 210.769 36.1094 210.446 36.1785 210.104C36.3111 209.586 36.5792 209.048 36.9335 208.454C37.1377 208.112 37.3486 207.786 37.5699 207.444C37.751 207.164 37.9389 206.873 38.1356 206.555C38.97 205.203 39.7808 203.624 39.7808 201.703C39.7808 197.441 38.6982 193.98 37.8254 191.19C37.7707 191.015 37.7168 190.843 37.6641 190.674C37.2131 189.223 36.8558 187.994 36.7494 186.915C36.6445 185.851 36.7888 184.979 37.3022 184.217C37.8102 183.463 38.7703 182.88 40.0876 182.4C41.3941 181.924 42.9676 181.579 44.6152 181.245C44.8716 181.193 45.1299 181.142 45.3889 181.09C46.7798 180.812 48.1943 180.529 49.474 180.173C50.9779 179.754 52.3649 179.217 53.3455 178.415C55.505 176.884 57.1862 174.757 58.6099 172.755C58.9676 172.252 59.3109 171.754 59.6413 171.274L59.6543 171.255C59.9809 170.781 60.2945 170.326 60.6009 169.896C61.2243 169.021 61.8021 168.274 62.3684 167.713L62.3685 167.713C64.7682 165.338 66.4307 163.713 69.7948 163.713C70.8157 163.713 72.0857 164.325 73.5243 165.456C74.9448 166.574 76.453 168.137 77.9383 169.901C80.907 173.426 83.7339 177.696 85.5216 180.644Z" fill="#FFC107" stroke="black"/>
<path d="M108.087 90.3779C104.497 88.0093 101.505 85.6406 101.505 82.0877C101.505 78.5348 103.899 77.3505 107.489 74.3897C108.087 73.7975 114.668 67.876 121.25 67.876C127.831 67.876 135.609 72.0211 138.601 73.2054C143.986 74.3897 149.37 75.574 148.772 79.7191C148.174 85.6406 147.576 86.825 141.592 89.7857C137.404 90.97 129.626 97.4837 124.241 97.4837C121.848 97.4837 118.258 97.4837 115.865 96.8916C114.07 96.2994 111.078 93.3387 108.087 90.3779Z" fill="#FFC107"/>
<path d="M106.89 85.6401C108.087 86.8244 109.882 88.0087 111.677 88.6008C112.873 89.193 114.668 89.7852 114.668 89.7852C117.062 89.7852 118.857 89.7852 120.053 89.7852C123.045 89.7852 127.233 88.6009 131.421 86.2322C135.609 84.4558 136.208 83.2714 139.199 82.0871C142.191 80.3107 145.182 78.5342 143.986 77.9421C142.789 77.3499 141.592 77.9421 137.404 80.3107C133.814 82.6793 130.823 83.8636 127.233 85.6401C125.438 86.2322 123.045 87.4165 121.25 87.4165C119.455 87.4165 117.66 87.4165 115.865 87.4165C114.07 87.4165 112.873 86.8244 111.078 86.2322C109.882 85.6401 109.283 85.0479 108.685 85.0479C107.489 84.4558 105.095 82.0871 103.899 81.495C103.899 81.495 102.702 81.495 103.3 82.0871C105.095 83.8636 105.694 84.4558 106.89 85.6401Z" fill="#634703"/>
<path d="M124.84 72.6125C125.438 73.7968 126.635 73.7969 127.233 74.3891C127.831 74.9812 128.429 74.9811 128.429 74.9811C129.028 74.389 128.429 73.2047 127.831 73.2047C127.831 72.0204 124.84 72.0204 124.84 72.6125Z" fill="#634703"/>
<path d="M115.267 73.7969C115.267 74.3891 116.463 74.9812 116.463 74.3891C117.062 73.7969 117.66 73.2048 118.258 73.2048C119.455 72.6126 118.856 72.0205 117.062 72.0205C115.865 72.6126 115.865 73.2048 115.267 73.7969Z" fill="#634703"/>
<path d="M173.303 178.609C173.303 179.201 173.303 179.793 173.303 180.385C174.5 182.754 177.491 183.346 179.884 183.346C183.474 183.346 187.064 180.977 188.859 178.609C188.859 178.017 189.457 177.424 190.056 176.832C191.252 175.056 191.851 173.872 192.449 173.279C192.449 173.279 191.851 172.687 191.851 172.095C191.252 170.911 189.457 169.726 187.064 169.134C185.269 168.542 182.278 167.95 181.081 167.95C175.696 167.358 172.705 169.134 170.91 170.911C170.91 170.911 171.508 170.911 171.508 171.503C172.705 172.687 173.303 173.872 173.303 175.648C173.901 176.832 173.303 177.424 173.303 178.609Z" fill="#455A64"/>
</g>
<defs>
<linearGradient id="paint0_linear_177_7468" x1="17.5" y1="17.5" x2="238" y2="238" gradientUnits="userSpaceOnUse">
<stop stop-color="#FFE900"/>
<stop offset="1" stop-color="#F75527"/>
</linearGradient>
<clipPath id="clip0_177_7468">
<rect width="256" height="256" fill="white"/>
</clipPath>
</defs>
</svg>
