<svg width="256" height="256" viewBox="0 0 256 256" fill="none" xmlns="http://www.w3.org/2000/svg">
<g clip-path="url(#clip0_257_143)">
<rect width="256" height="256" rx="60" fill="white"/>
<path d="M103.779 84.6535L104.33 97.3226L95.5162 113.848L81.7454 140.838L78.9912 163.423L88.9062 195.371L111.49 208.04H145.642L177.59 183.803L191.912 145.796L158.862 105.585L149.498 83.001L103.779 84.6535Z" fill="#ECEFF1"/>
<path d="M88.9061 126.516L88.482 126.252L88.4819 126.252L88.4815 126.252L88.48 126.255L88.4739 126.264L88.4505 126.302L88.3608 126.446C88.283 126.572 88.1708 126.753 88.0327 126.977C87.7566 127.426 87.3769 128.047 86.9625 128.738C86.1369 130.114 85.1636 131.782 84.603 132.903C81.8464 138.416 79.6059 143.443 79.0447 149.598C78.4859 154.078 79.0448 157.467 80.1793 160.303L80.2175 160.398L80.29 160.471C80.4853 160.666 80.6827 160.945 80.9497 161.322C81.007 161.403 81.0675 161.488 81.1318 161.578C81.4813 162.068 81.9133 162.645 82.4934 163.225L86.9 167.632C88.385 169.117 89.8797 170.362 91.8512 172.005C92.8283 172.82 93.9225 173.732 95.1907 174.819C96.6164 176.041 98.6422 177.638 100.679 179.244C101.409 179.82 102.141 180.397 102.848 180.958C104.19 182.025 105.44 183.036 106.422 183.881C106.913 184.304 107.332 184.681 107.661 185.001C107.996 185.328 108.213 185.573 108.32 185.733C109.383 187.327 110.36 189.855 108.858 192.359L108.848 192.376L108.84 192.393C108.637 192.798 108.205 193.149 107.548 193.477C106.898 193.803 106.108 194.067 105.273 194.345L105.161 194.383L105.077 194.466C104.913 194.631 104.626 194.745 104.247 194.809C103.88 194.87 103.506 194.871 103.228 194.871H102.187L102.837 195.683C106.228 199.921 111.428 202.719 116.792 204.252C122.154 205.784 127.742 206.069 131.963 205.226C140.854 203.656 150.214 198.659 155.932 193.905C155.46 196.61 154.988 198.968 154.516 201.332L154.513 201.345L154.511 201.359C154.398 202.152 154.284 202.902 154.174 203.622C153.756 206.372 153.404 208.688 153.404 211.345C153.404 212.212 153.548 213.073 153.683 213.886L153.687 213.906C153.788 214.514 153.884 215.096 153.929 215.668C145.548 213.783 139.257 214.093 129.519 214.573C128.674 214.615 127.802 214.658 126.902 214.701C122.775 214.701 118.368 214.701 114.717 214.769C112.89 214.804 111.247 214.856 109.92 214.934C108.874 214.995 107.999 215.074 107.382 215.18C107.315 215.051 107.23 214.895 107.128 214.716C106.869 214.261 106.491 213.631 106.013 212.855C105.056 211.3 103.687 209.143 102.038 206.589C98.7397 201.482 94.3138 194.783 89.8018 188.135C85.2904 181.489 80.6897 174.889 77.0427 169.984C75.2203 167.532 73.6297 165.495 72.4046 164.085C71.7936 163.382 71.2625 162.822 70.832 162.443C70.6181 162.254 70.4137 162.096 70.2253 161.988C70.1719 161.958 70.1085 161.924 70.0375 161.895C69.7346 160.504 69.8082 158.566 70.2143 156.209C70.6474 153.695 71.4482 150.761 72.5106 147.608C74.6351 141.303 77.7912 134.166 81.0869 127.849L81.0931 127.837L81.0988 127.825C83.8273 121.822 87.6492 116.357 91.505 110.849C91.6223 110.712 91.7404 110.575 91.8591 110.436C95.0675 106.697 98.7696 102.382 100.926 97.5357C102.063 95.2569 102.626 92.4298 102.626 90.1615V90.1411L102.624 90.1207C102.574 89.5084 102.524 88.9019 102.475 88.301C101.168 72.3912 100.191 60.4899 101.245 51.5932C101.791 46.9882 102.879 43.2247 104.724 40.1465C106.565 37.0753 109.178 34.6577 112.822 32.768L112.822 32.768L112.829 32.7643C126.949 25.1614 138.327 29.5056 143.196 32.2103L143.253 32.2424L143.317 32.2583C145.395 32.7777 149.158 34.906 152.409 38.6919C155.128 42.5026 157.844 47.3962 159.476 54.4698L159.477 54.4741C160.299 57.8963 160.601 60.1679 160.66 61.8967C160.714 63.4922 160.562 64.6379 160.402 65.84C160.389 65.9379 160.376 66.0362 160.363 66.1351C160.01 68.819 159.74 71.7729 161.681 79.813C164.898 93.1413 170.417 100.787 177.21 110.195C178.617 112.144 180.079 114.169 181.586 116.336C185.972 122.641 190.494 130.864 193.438 139.079C196.389 147.313 197.72 155.448 195.84 161.624L195.818 161.695V161.77C195.818 162.119 195.728 162.655 195.566 163.321C195.406 163.977 195.186 164.722 194.947 165.474C194.631 166.467 194.29 167.445 194.013 168.241C193.903 168.558 193.803 168.846 193.718 169.094C193.597 169.138 193.431 169.197 193.229 169.267C192.786 169.42 192.173 169.625 191.493 169.829C190.127 170.238 188.561 170.625 187.541 170.634C187.52 170.628 187.486 170.618 187.44 170.603C187.34 170.57 187.202 170.52 187.027 170.454C186.679 170.321 186.207 170.129 185.649 169.898C184.533 169.434 183.091 168.816 181.645 168.197L181.643 168.196L181.64 168.194C180.196 167.576 178.748 166.955 177.627 166.489C177.066 166.256 176.583 166.061 176.221 165.922C176.196 165.913 176.172 165.903 176.148 165.894C177.712 163.207 181.907 154.335 181.395 143.571C181.111 136.225 177.014 130.738 173.038 127.111C171.048 125.295 169.076 123.934 167.602 123.027C166.864 122.573 166.25 122.232 165.819 122.004C165.603 121.889 165.433 121.803 165.316 121.746C165.258 121.717 165.212 121.695 165.181 121.68L165.145 121.663L165.136 121.658L165.133 121.657L165.132 121.657C165.132 121.656 165.132 121.656 164.921 122.11L165.132 121.656L164.618 122.508C170.885 127.276 174.223 132.255 175.719 137.02C177.215 141.788 176.882 146.385 175.732 150.409C174.581 154.437 172.616 157.88 170.867 160.316C169.993 161.534 169.177 162.494 168.552 163.146C168.496 163.204 168.442 163.26 168.389 163.312C168.726 160.974 168.726 158.767 168.726 157.374V157.363C168.726 149.062 167.62 140.755 165.954 134.647L165.954 134.647L165.951 134.635C165.113 131.844 163.998 129.337 162.823 126.918C162.428 126.103 162.027 125.302 161.628 124.504C160.836 122.921 160.05 121.349 159.321 119.708C157.12 114.481 154.093 106.914 151.547 100.377C150.274 97.1078 149.122 94.0979 148.253 91.7685C147.379 89.4222 146.807 87.8027 146.678 87.2861L146.671 87.2609L146.663 87.2365C146.304 86.2502 145.26 85.6083 143.973 85.1746C142.655 84.7304 140.929 84.453 138.967 84.301C135.037 83.9967 130.047 84.1886 125.215 84.6373C120.38 85.0863 115.677 85.7947 112.313 86.5317C110.637 86.8989 109.267 87.2785 108.378 87.6455C107.946 87.8235 107.565 88.0228 107.329 88.2559C107.209 88.3739 107.075 88.5517 107.048 88.7883C107.03 88.952 107.067 89.097 107.134 89.2185C107.125 90.4257 107.015 91.8425 106.895 93.3982C106.883 93.5447 106.872 93.6924 106.86 93.8413C106.723 95.6265 106.584 97.566 106.584 99.5099C106.31 103.81 104.148 109.511 101.609 114.659C99.0695 119.806 96.1992 124.309 94.5856 126.191C92.8868 128.173 91.3489 130.978 90.0342 133.884C88.7162 136.798 87.6085 139.845 86.7792 142.333L86.7791 142.332L86.7757 142.344C85.6645 145.955 84.9714 149.561 84.5561 152.261C84.387 153.36 84.2637 154.31 84.1769 155.051C83.623 153.475 83.4628 151.421 83.5957 149.086C83.7738 145.956 84.4709 142.429 85.3279 139.104C86.1839 135.782 87.1947 132.681 87.9922 130.409C88.3907 129.273 88.7356 128.346 88.9806 127.703C89.1031 127.381 89.2006 127.131 89.2674 126.961C89.3008 126.876 89.3264 126.812 89.3437 126.768L89.3632 126.72L89.3681 126.708L89.3692 126.705L89.3695 126.704C89.3695 126.704 89.3695 126.704 88.9061 126.516ZM88.9061 126.516L88.4821 126.251L89.3695 126.704L88.9061 126.516Z" fill="#263238" stroke="black"/>
<path d="M112.041 79.6974C115.996 79.6974 119.202 74.765 119.202 68.6807C119.202 62.5964 115.996 57.6641 112.041 57.6641C108.086 57.6641 104.88 62.5964 104.88 68.6807C104.88 74.765 108.086 79.6974 112.041 79.6974Z" fill="#ECEFF1"/>
<path d="M136.829 80.7983C142 80.7983 146.193 75.1261 146.193 68.1291C146.193 61.1321 142 55.46 136.829 55.46C131.657 55.46 127.464 61.1321 127.464 68.1291C127.464 75.1261 131.657 80.7983 136.829 80.7983Z" fill="#ECEFF1"/>
<path d="M116.045 69.4322C115.587 65.8104 113.503 63.0908 111.391 63.3579C109.278 63.6249 107.936 66.7774 108.394 70.3992C108.852 74.021 110.936 76.7405 113.049 76.4735C115.161 76.2065 116.503 73.0539 116.045 69.4322Z" fill="#212121"/>
<path d="M136.278 77.4925C139.32 77.4925 141.786 74.2865 141.786 70.3317C141.786 66.3769 139.32 63.1709 136.278 63.1709C133.235 63.1709 130.769 66.3769 130.769 70.3317C130.769 74.2865 133.235 77.4925 136.278 77.4925Z" fill="#212121"/>
<path d="M209.315 191.962L209.347 191.978L209.38 191.989C210.183 192.257 211.069 192.643 211.75 193.262C212.413 193.865 212.894 194.699 212.894 195.922C212.894 197.479 212.509 198.328 212.04 198.914C211.797 199.218 211.518 199.468 211.215 199.72C211.155 199.771 211.092 199.822 211.028 199.874C210.784 200.075 210.522 200.29 210.286 200.526C209.92 200.892 209.075 201.483 207.861 202.246C206.664 202.999 205.155 203.89 203.503 204.854C202.913 205.198 202.306 205.55 201.688 205.909C198.849 207.559 195.793 209.334 193.296 210.923L193.284 210.93L193.274 210.938C190.762 212.732 188.846 214.051 187.297 215.117C186.465 215.689 185.739 216.189 185.083 216.651C183.213 217.967 181.947 218.95 180.541 220.356C178.638 222.259 176.757 223.732 174.624 224.732C172.494 225.73 170.089 226.268 167.124 226.268C161.109 226.268 158.523 225.171 157.012 223.661L156.987 223.635L156.958 223.614C154.944 222.103 153.303 218.449 153.303 212.447C153.303 209.739 153.709 207.022 154.259 203.786C154.343 203.296 154.429 202.795 154.518 202.281C155.015 199.404 155.584 196.114 156.053 192.13C156.608 188.24 156.608 183.258 156.608 178.871V178.846C156.608 173.3 156.619 171.781 157.656 169.705C158.197 168.624 158.704 167.886 159.362 167.407C160.008 166.938 160.858 166.677 162.167 166.677C164.687 166.677 166.207 168.17 167.31 169.273C171.331 173.858 176.366 174.121 180.931 173.138C183.211 172.647 185.394 171.842 187.299 171.101C187.602 170.983 187.896 170.867 188.183 170.755C189.7 170.159 190.98 169.656 191.978 169.429C192.09 169.421 192.207 169.397 192.3 169.376C192.357 169.363 192.417 169.349 192.479 169.335L192.496 169.33C192.564 169.314 192.635 169.298 192.709 169.281C193.005 169.215 193.342 169.155 193.702 169.155C194.395 169.155 195.2 169.375 195.918 170.333L195.926 170.343L195.934 170.353C196.56 171.104 197.018 172.132 197.371 173.332C197.722 174.529 197.959 175.862 198.165 177.201C198.225 177.59 198.283 177.982 198.34 178.371C198.477 179.305 198.611 180.22 198.771 181.049C198.996 182.217 199.284 183.291 199.745 184.061L199.752 184.071L199.758 184.081C202.913 188.813 206.574 190.614 208.841 191.728C209.006 191.809 209.165 191.887 209.315 191.962ZM88.4772 177.451L88.4863 177.466L88.4964 177.48C90.7462 180.694 91.8567 182.574 93.4964 185.35C94.6613 187.322 96.0934 189.747 98.3909 193.423C99.6418 195.645 100.892 197.45 102.049 199.039C102.377 199.49 102.696 199.921 103.005 200.339C103.793 201.403 104.513 202.376 105.149 203.355C106.893 206.037 107.954 208.686 107.686 212.966L107.685 212.982V212.997C107.685 220.302 105.127 223.966 101.947 225.783C98.7136 227.631 94.7154 227.646 91.7054 227.372C88.7645 227.105 84.9859 225.626 80.6214 223.894L80.3848 223.8C76.1143 222.105 71.3426 220.211 66.4303 219.119L66.4227 219.118C57.0494 217.188 51.7151 215.955 48.449 214.798C46.8219 214.222 45.7349 213.674 44.9276 213.084C44.1359 212.506 43.5923 211.874 43.0695 211.094C42.1935 209.322 42.4727 207.982 42.9382 205.749C42.9977 205.463 43.0603 205.163 43.1239 204.845C43.245 204.368 43.4899 203.87 43.8153 203.32C44.0033 203.002 44.1966 202.699 44.3998 202.382C44.5664 202.122 44.7396 201.851 44.9217 201.553C45.6908 200.295 46.441 198.819 46.441 197.023C46.441 193.054 45.4431 189.831 44.6396 187.236C44.5892 187.073 44.5396 186.913 44.491 186.755C44.0757 185.405 43.7477 184.265 43.6501 183.264C43.554 182.279 43.6867 181.476 44.1537 180.776C44.6149 180.084 45.4892 179.545 46.699 179.1C47.8984 178.658 49.3439 178.338 50.861 178.027C51.0966 177.979 51.334 177.931 51.5722 177.883C52.8529 177.625 54.1572 177.361 55.3373 177.029C56.7229 176.639 58.0063 176.138 58.9157 175.386C60.9088 173.958 62.4592 171.977 63.77 170.114C64.0995 169.645 64.4157 169.182 64.7199 168.736L64.7323 168.718C65.0328 168.277 65.3212 167.854 65.603 167.455C66.1767 166.641 66.7073 165.948 67.2262 165.429C69.437 163.218 70.9564 161.719 74.0335 161.719C74.9577 161.719 76.1172 162.28 77.4405 163.332C78.7454 164.369 80.1321 165.821 81.4988 167.461C84.2303 170.739 86.8319 174.708 88.4772 177.451ZM109.64 93.1132L109.605 93.0782L109.564 93.0508C107.914 91.9505 106.447 90.8791 105.392 89.6919C104.346 88.5154 103.728 87.2516 103.728 85.7551C103.728 84.2462 104.218 83.2627 105.108 82.3093C105.565 81.8201 106.127 81.3392 106.795 80.7993C107.02 80.6181 107.257 80.4293 107.506 80.2318C107.987 79.8491 108.509 79.434 109.056 78.9784L109.073 78.9639L109.09 78.9479C109.341 78.6965 110.963 77.2068 113.268 75.7836C115.58 74.3553 118.514 73.0352 121.405 73.0352C124.342 73.0352 127.578 73.9727 130.454 75.068C131.886 75.6138 133.219 76.1946 134.369 76.7096C134.661 76.8403 134.943 76.9674 135.212 77.0889C135.994 77.4423 136.672 77.7482 137.194 77.9569L137.231 77.9719L137.271 77.9807C139.77 78.5362 142.18 79.0751 143.903 79.9366C144.759 80.3645 145.402 80.8517 145.8 81.4204C146.189 81.9743 146.369 82.637 146.248 83.4811L146.247 83.4916L146.246 83.5021C145.969 86.2744 145.697 87.7974 144.885 88.9844C144.076 90.1666 142.686 91.0785 139.951 92.4484C138.935 92.7462 137.737 93.3504 136.464 94.0634C135.756 94.4598 134.996 94.9065 134.22 95.3634C133.589 95.7344 132.947 96.1122 132.311 96.4754C130.871 97.2986 129.413 98.0775 128.015 98.6501C126.612 99.2247 125.305 99.5768 124.159 99.5768C121.941 99.5768 118.719 99.5735 116.588 99.0457C116.247 98.9287 115.818 98.688 115.308 98.3264C114.795 97.9623 114.225 97.4934 113.613 96.9489C112.386 95.859 111.02 94.4933 109.64 93.1132Z" fill="#FFC107" stroke="black"/>
<path d="M108.185 89.0598C109.287 90.1614 110.939 91.2631 112.592 91.8139C113.693 92.3648 115.346 92.9156 115.346 92.9156H120.303C123.058 92.9156 126.913 91.8139 130.769 89.6106C134.625 87.9581 135.176 86.8564 137.93 85.7548C140.684 84.1023 143.438 82.4498 142.337 81.899C141.235 81.3481 140.133 81.899 136.278 84.1023C132.973 86.3056 130.218 87.4073 126.913 89.0598C125.261 89.6106 123.058 90.7123 121.405 90.7123H116.448C114.795 90.7123 113.693 90.1614 112.041 89.6106C110.939 89.0598 110.388 88.5089 109.838 88.5089C108.736 87.9581 106.533 85.7548 105.431 85.2039C105.431 85.2039 104.329 85.2039 104.88 85.7548L108.185 89.0598ZM124.71 76.9415C125.261 78.0431 126.363 78.0431 126.913 78.594C127.464 79.1448 128.015 79.1448 128.015 79.1448C128.566 78.594 128.015 77.4923 127.464 77.4923C127.464 76.3906 124.71 76.3906 124.71 76.9415ZM115.897 78.0431C115.897 78.594 116.998 79.1448 116.998 78.594C117.549 78.0431 118.1 77.4923 118.651 77.4923C119.753 76.9415 119.202 76.3906 117.549 76.3906C116.448 76.9415 116.448 77.4923 115.897 78.0431Z" fill="#634703"/>
<path d="M169.328 175.541V177.193C170.43 179.396 173.184 179.947 175.387 179.947C178.692 179.947 181.997 177.744 183.649 175.541C183.649 174.99 184.2 174.439 184.751 173.888C185.853 172.236 186.404 171.134 186.954 170.583C186.954 170.583 186.404 170.032 186.404 169.481C185.853 168.38 184.2 167.278 181.997 166.727C180.344 166.176 177.59 165.626 176.489 165.626C171.531 165.075 168.777 166.727 167.125 168.38C167.125 168.38 167.675 168.38 167.675 168.931C168.777 170.032 169.328 171.134 169.328 172.786C169.879 173.888 169.328 174.439 169.328 175.541Z" fill="#455A64"/>
</g>
<defs>
<clipPath id="clip0_257_143">
<rect width="256" height="256" fill="white"/>
</clipPath>
</defs>
</svg>
