<svg width="256" height="256" viewBox="0 0 256 256" fill="none" xmlns="http://www.w3.org/2000/svg">
<g clip-path="url(#clip0_248_6654)">
<rect width="256" height="256" rx="60" fill="#242938"/>
<path d="M88.3938 195.37L111.213 208.04H145.72L178 183.803L192.471 145.795L159.077 105.585L149.616 83.001L103.421 84.6534L103.977 97.3226L95.0725 113.847L81.1586 140.838L78.3757 163.422L88.3938 195.37Z" fill="#ECEFF1"/>
<path d="M159.704 54.4752L159.703 54.4709C158.054 47.3979 155.31 42.5046 152.563 38.6939C149.278 34.9079 145.475 32.7786 143.373 32.2586L143.309 32.2429L143.252 32.2114C138.332 29.506 126.831 25.1604 112.561 32.7654L112.554 32.769L112.554 32.7689C108.871 34.6593 106.231 37.0774 104.37 40.1485C102.506 43.2263 101.408 46.9893 100.856 51.5938C99.791 60.4901 100.779 72.3912 102.099 88.3019C102.149 88.9023 102.199 89.5083 102.25 90.1202L102.251 90.1408V90.1614C102.251 92.4305 101.682 95.2583 100.533 97.5374C98.3554 102.381 94.6174 106.694 91.377 110.433C91.2553 110.573 91.1343 110.713 91.0141 110.851C87.1182 116.359 83.2565 121.824 80.4998 127.826L80.4941 127.839L80.4877 127.851C77.1578 134.168 73.969 141.304 71.8225 147.609C70.7491 150.762 69.94 153.696 69.5025 156.209C69.0922 158.566 69.0179 160.503 69.3237 161.894C69.3955 161.923 69.4599 161.956 69.5143 161.987C69.7041 162.095 69.9104 162.252 70.1265 162.441C70.5612 162.82 71.0978 163.38 71.7151 164.083C72.953 165.493 74.5601 167.53 76.4015 169.981C80.0865 174.887 84.7351 181.487 89.2933 188.133C93.8523 194.781 98.3244 201.48 101.657 206.587C103.323 209.14 104.706 211.298 105.673 212.852C106.156 213.629 106.538 214.259 106.8 214.714C106.903 214.894 106.99 215.051 107.058 215.18C107.681 215.074 108.567 214.995 109.627 214.933C110.967 214.855 112.627 214.804 114.473 214.769C118.163 214.7 122.615 214.7 126.785 214.7C127.695 214.657 128.575 214.614 129.43 214.573C139.272 214.093 145.628 213.783 154.099 215.669C154.053 215.097 153.956 214.514 153.853 213.906L153.85 213.886C153.713 213.073 153.568 212.212 153.568 211.344C153.568 208.69 153.923 206.375 154.345 203.628C154.456 202.906 154.571 202.154 154.686 201.358L154.688 201.344L154.691 201.33L154.707 201.25C155.18 198.91 155.652 196.574 156.123 193.897C150.347 198.653 140.885 203.655 131.897 205.226C127.633 206.068 121.99 205.783 116.573 204.251C111.154 202.719 105.901 199.922 102.475 195.684L101.817 194.87H102.864C103.145 194.87 103.524 194.869 103.896 194.808C104.28 194.744 104.572 194.629 104.739 194.464L104.823 194.381L104.934 194.344C105.778 194.066 106.577 193.802 107.235 193.476C107.899 193.148 108.336 192.796 108.54 192.391L108.549 192.374L108.559 192.357C110.076 189.855 109.089 187.329 108.016 185.735C107.908 185.575 107.688 185.33 107.349 185.003C107.017 184.683 106.593 184.305 106.097 183.882C105.105 183.037 103.842 182.026 102.486 180.96C101.77 180.397 101.028 179.818 100.288 179.24C98.2324 177.636 96.1883 176.041 94.7492 174.82L95.0726 174.439L94.7491 174.82C93.4676 173.733 92.3619 172.821 91.3746 172.007C89.3828 170.364 87.8728 169.118 86.3725 167.634L86.7242 167.278L86.3724 167.634L86.3723 167.634L86.3719 167.633L86.37 167.631L86.3629 167.624L86.3347 167.596L86.2268 167.49L85.8333 167.1L84.5636 165.843C83.5897 164.879 82.4766 163.778 81.9199 163.226C81.334 162.647 80.8976 162.07 80.5444 161.58C80.4789 161.49 80.4174 161.404 80.3592 161.322C80.09 160.946 79.8907 160.667 79.6935 160.472L79.6204 160.399L79.5819 160.304C78.4353 157.468 77.8704 154.078 78.4352 149.597C79.0023 143.441 81.2663 138.414 84.0516 132.901M159.704 54.4752L80.0454 160.117C78.9323 157.363 78.3757 154.058 78.9323 149.652C79.4889 143.592 81.7151 138.634 84.4979 133.126C85.0819 131.97 86.1255 130.208 86.9857 128.793C87.1966 128.22 87.3815 127.732 87.5305 127.345C87.6556 127.02 87.7555 126.766 87.8242 126.593C87.8403 126.553 87.8546 126.517 87.8672 126.485C87.8815 126.45 87.8936 126.42 87.9032 126.396L87.9238 126.345L87.9291 126.332L87.9305 126.328L87.9309 126.327C87.931 126.327 87.931 126.327 88.3938 126.516M159.704 54.4752C160.534 57.8973 160.84 60.1685 160.899 61.8968C160.954 63.4918 160.8 64.6372 160.639 65.8392C160.625 65.9371 160.612 66.0354 160.599 66.1343C160.242 68.8189 159.97 71.7735 161.931 79.8141C165.181 93.1424 170.758 100.788 177.62 110.196C179.043 112.145 180.52 114.171 182.043 116.338C186.475 122.643 191.044 130.866 194.018 139.08C196.999 147.315 198.344 155.448 196.445 161.623L196.423 161.694V161.77C196.423 162.118 196.332 162.654 196.168 163.32C196.007 163.975 195.784 164.72 195.543 165.472C195.222 166.471 194.875 167.455 194.595 168.253C194.485 168.565 194.385 168.848 194.301 169.093M159.704 54.4752L196.923 161.77C196.923 163.143 195.77 166.418 195.061 168.434C194.917 168.844 194.791 169.202 194.697 169.481M84.0516 132.901L84.4963 133.126L84.0516 132.901C84.0516 132.901 84.0516 132.901 84.0516 132.901ZM84.0516 132.901C84.618 131.78 85.6015 130.112 86.4357 128.736C86.8544 128.045 87.238 127.424 87.517 126.975C87.6565 126.751 87.7699 126.57 87.8485 126.444L87.9392 126.3L87.9629 126.262L87.969 126.253L87.9705 126.25L87.9709 126.25L87.971 126.249L88.3938 126.516M88.3938 126.516C88.8566 126.706 88.8566 126.706 88.8566 126.706L88.8563 126.706L88.8551 126.709L88.8502 126.721L88.8305 126.77C88.8249 126.784 88.8184 126.8 88.811 126.819C88.7955 126.857 88.7762 126.905 88.7534 126.963C88.686 127.132 88.5875 127.383 88.4637 127.704C88.2161 128.347 87.8677 129.275 87.465 130.41C86.6593 132.682 85.638 135.784 84.7731 139.105C83.9073 142.43 83.203 145.957 83.0231 149.086C82.8882 151.432 83.0522 153.494 83.6181 155.073C83.706 154.328 83.8313 153.37 84.0039 152.26C84.4235 149.56 85.1239 145.954 86.2467 142.342L86.2502 142.331L86.2503 142.331C87.0882 139.843 88.2075 136.796 89.5392 133.882C90.8676 130.976 92.4217 128.171 94.138 126.189L94.516 126.516L94.138 126.189C95.7684 124.306 98.6685 119.804 101.234 114.657C103.8 109.509 105.984 103.809 106.261 99.5096C106.261 97.5655 106.402 95.6259 106.54 93.8408C106.552 93.6919 106.563 93.5442 106.575 93.3977C106.696 91.8425 106.807 90.4263 106.816 89.2196C106.749 89.0979 106.711 88.9523 106.73 88.7876C106.757 88.5495 106.893 88.3715 107.014 88.254C107.252 88.0215 107.636 87.8226 108.072 87.6447C108.97 87.278 110.353 86.8985 112.046 86.5313C115.445 85.7945 120.196 85.0861 125.081 84.6372C129.964 84.1884 135.004 83.9966 138.975 84.3009C140.957 84.4528 142.7 84.7302 144.03 85.1739C145.329 85.6071 146.383 86.2481 146.746 87.2348L146.755 87.2594L146.761 87.2849C146.891 87.8012 147.469 89.4204 148.353 91.7668C149.23 94.0961 150.394 97.1059 151.681 100.375C154.253 106.912 157.312 114.479 159.535 119.706C160.272 121.348 161.067 122.921 161.868 124.506C162.271 125.303 162.675 126.103 163.074 126.916C164.261 129.335 165.388 131.842 166.234 134.633L166.238 134.646L166.238 134.646C167.921 140.754 169.038 149.061 169.038 157.363V157.374C169.038 158.769 169.038 160.98 168.697 163.323C168.753 163.266 168.812 163.207 168.873 163.144C169.505 162.492 170.329 161.532 171.212 160.314C172.979 157.878 174.966 154.435 176.128 150.408C177.29 146.384 177.627 141.788 176.115 137.021C174.604 132.257 171.231 127.278 164.899 122.509L165.408 121.656L165.2 122.11C165.408 121.656 165.409 121.656 165.409 121.656L165.41 121.656L165.413 121.657L165.422 121.662L165.458 121.679C165.474 121.686 165.493 121.696 165.516 121.707C165.539 121.718 165.565 121.73 165.595 121.745C165.713 121.803 165.884 121.889 166.102 122.003C166.538 122.231 167.158 122.572 167.903 123.025C169.392 123.932 171.384 125.293 173.396 127.109C177.412 130.736 181.553 136.222 181.839 143.57C182.356 154.332 178.121 163.203 176.539 165.893C176.563 165.902 176.588 165.912 176.614 165.921C176.98 166.06 177.468 166.255 178.034 166.488C179.167 166.954 180.63 167.575 182.09 168.194L182.091 168.195C183.553 168.815 185.011 169.433 186.138 169.897C186.702 170.129 187.18 170.32 187.532 170.453C187.708 170.52 187.848 170.57 187.949 170.603C187.997 170.618 188.031 170.628 188.053 170.634M88.3938 126.516L88.8566 126.706L87.9711 126.249L88.3938 126.516ZM88.3938 126.516L88.8166 126.783L88.8165 126.783L88.8161 126.784L88.8147 126.786L88.8088 126.796L88.7855 126.833L88.6957 126.976C88.6177 127.1 88.505 127.28 88.3662 127.503C88.1218 127.896 87.7966 128.423 87.4382 129.012C85.2601 134.941 80.3524 149.844 83.507 156.083L188.053 170.634M143.493 31.7732C145.72 32.3241 149.616 34.5274 152.955 38.3832C155.737 42.2391 158.521 47.1966 160.19 54.3574L143.493 31.7732ZM143.493 31.7732C138.485 29.0191 126.797 24.6124 112.326 32.3241L143.493 31.7732ZM194.697 169.481L194.523 169.012L194.522 169.013L194.52 169.013L194.511 169.017L194.475 169.03C194.442 169.042 194.394 169.059 194.332 169.081C194.322 169.085 194.312 169.089 194.301 169.093M194.697 169.481C194.697 169.481 190.245 171.134 188.018 171.134C187.74 171.134 184.818 169.895 181.896 168.655C179.586 167.675 177.276 166.695 176.273 166.328L194.697 169.481ZM194.301 169.093C194.179 169.136 194.01 169.196 193.804 169.266C193.357 169.42 192.737 169.624 192.05 169.828C190.67 170.238 189.086 170.625 188.053 170.634M194.301 169.093L188.053 170.634M84.0197 155.985C84.2366 153.901 84.9504 148.196 86.7242 142.491L84.0197 155.985Z" fill="#263238" stroke="white"/>
<path d="M111.769 79.6944C115.765 79.6944 119.004 74.762 119.004 68.6778C119.004 62.5934 115.765 57.6611 111.769 57.6611C107.774 57.6611 104.534 62.5934 104.534 68.6778C104.534 74.762 107.774 79.6944 111.769 79.6944Z" fill="#ECEFF1"/>
<path d="M136.814 80.7982C142.04 80.7982 146.276 75.126 146.276 68.1291C146.276 61.1321 142.04 55.46 136.814 55.46C131.589 55.46 127.353 61.1321 127.353 68.1291C127.353 75.126 131.589 80.7982 136.814 80.7982Z" fill="#ECEFF1"/>
<path d="M115.812 69.4332C115.349 65.8114 113.243 63.0919 111.108 63.3589C108.974 63.626 107.618 66.7785 108.081 70.4003C108.544 74.022 110.649 76.7415 112.784 76.4745C114.919 76.2074 116.274 73.0549 115.812 69.4332Z" fill="#212121"/>
<path d="M136.258 77.4916C139.332 77.4916 141.823 74.2856 141.823 70.3308C141.823 66.376 139.332 63.1699 136.258 63.1699C133.184 63.1699 130.692 66.376 130.692 70.3308C130.692 74.2856 133.184 77.4916 136.258 77.4916Z" fill="#212121"/>
<path d="M210.059 191.963L210.09 191.979L210.124 191.99C210.936 192.258 211.832 192.644 212.52 193.264C213.191 193.868 213.676 194.701 213.676 195.921C213.676 197.478 213.287 198.326 212.813 198.912C212.567 199.217 212.286 199.466 211.98 199.719C211.918 199.77 211.855 199.821 211.79 199.874C211.544 200.074 211.279 200.289 211.041 200.524L211.041 200.524C210.671 200.891 209.817 201.481 208.59 202.245C207.38 202.997 205.856 203.889 204.187 204.853C203.591 205.197 202.977 205.55 202.353 205.908C199.484 207.558 196.397 209.333 193.874 210.922L193.863 210.929L193.852 210.937C191.317 212.728 189.383 214.046 187.818 215.112C186.975 215.686 186.24 216.187 185.575 216.65C183.686 217.966 182.408 218.948 180.988 220.353L181.34 220.709L180.988 220.353C177.161 224.141 173.385 226.268 167.426 226.268C161.346 226.268 158.73 225.171 157.203 223.658L157.177 223.633L157.149 223.612C155.112 222.101 153.455 218.448 153.455 212.447C153.455 209.74 153.865 207.023 154.421 203.787C154.506 203.297 154.593 202.794 154.683 202.279C155.185 199.402 155.759 196.113 156.233 192.131C156.794 188.24 156.794 183.258 156.794 178.872V178.846C156.794 173.299 156.805 171.783 157.853 169.707C158.4 168.626 158.912 167.888 159.578 167.409C160.232 166.938 161.092 166.677 162.416 166.677C164.967 166.677 166.504 168.173 167.618 169.275C171.679 173.858 176.763 174.121 181.374 173.138C183.676 172.647 185.881 171.843 187.806 171.102C188.112 170.984 188.41 170.868 188.699 170.756C190.232 170.16 191.526 169.657 192.536 169.429C192.649 169.422 192.766 169.397 192.861 169.376C192.918 169.364 192.981 169.349 193.043 169.334L193.059 169.331C193.128 169.315 193.199 169.298 193.274 169.282C193.573 169.216 193.915 169.156 194.279 169.156C194.982 169.156 195.798 169.377 196.524 170.335L196.532 170.345L196.54 170.355C197.173 171.106 197.635 172.133 197.991 173.333C198.347 174.53 198.586 175.862 198.794 177.201C198.855 177.592 198.913 177.984 198.971 178.373C199.109 179.306 199.245 180.222 199.406 181.05C199.633 182.218 199.924 183.292 200.391 184.062L200.397 184.073L200.404 184.083C203.592 188.815 207.291 190.615 209.58 191.729C209.748 191.81 209.907 191.888 210.059 191.963Z" fill="#FFC107" stroke="white"/>
<path d="M87.9662 177.452L87.9753 177.467L87.9855 177.481C90.2589 180.696 91.3809 182.576 93.0379 185.352C94.2148 187.324 95.6617 189.748 97.9829 193.424C99.2469 195.647 100.51 197.451 101.679 199.04C102.011 199.491 102.333 199.922 102.645 200.339C103.441 201.404 104.169 202.378 104.812 203.356C106.573 206.038 107.645 208.686 107.374 212.965L107.373 212.981V212.996C107.373 220.299 104.79 223.963 101.575 225.782C98.3055 227.631 94.2632 227.645 91.2214 227.372C88.2481 227.104 84.4288 225.624 80.0194 223.892L79.7816 223.799C75.4662 222.104 70.6452 220.21 65.6822 219.118L65.6822 219.118L65.6746 219.117C56.204 217.187 50.8136 215.954 47.5128 214.797C45.8682 214.221 44.7693 213.672 43.953 213.082C43.1526 212.504 42.6031 211.871 42.075 211.091C41.1906 209.321 41.4723 207.983 41.9425 205.75C42.0027 205.464 42.066 205.163 42.1303 204.845C42.2525 204.369 42.4997 203.871 42.8286 203.321C43.0185 203.003 43.2139 202.7 43.4193 202.383C43.5876 202.123 43.7625 201.852 43.9465 201.554C44.7234 200.296 45.4821 198.82 45.4821 197.023C45.4821 193.053 44.4736 189.829 43.6617 187.234C43.6108 187.071 43.5606 186.911 43.5115 186.753C43.0919 185.403 42.7606 184.263 42.662 183.263C42.565 182.279 42.6989 181.477 43.1705 180.777C43.6367 180.085 44.5211 179.545 45.7445 179.1C46.9571 178.658 48.4183 178.337 49.9512 178.027C50.1895 177.979 50.4295 177.931 50.6704 177.882C51.9642 177.624 53.2815 177.36 54.4733 177.029C55.8728 176.639 57.1685 176.138 58.0864 175.387C60.0998 173.96 61.6661 171.978 62.9908 170.115C63.3237 169.647 63.6431 169.183 63.9505 168.737L63.9624 168.72C64.2663 168.279 64.5579 167.856 64.8427 167.456C65.4224 166.642 65.9585 165.949 66.483 165.43L66.4831 165.43C68.7159 163.22 70.2531 161.719 73.3667 161.719C74.304 161.719 75.4775 162.281 76.8143 163.333C78.133 164.371 79.5343 165.822 80.9151 167.462C83.6751 170.74 86.3037 174.71 87.9662 177.452Z" fill="#FFC107" stroke="white"/>
<path d="M108.987 93.4658C105.647 91.2625 102.864 89.0591 102.864 85.7541C102.864 82.4492 105.091 81.3475 108.43 78.5933C108.987 78.0425 115.108 72.5342 121.231 72.5342C127.353 72.5342 134.588 76.39 137.371 77.4917C142.38 78.5933 147.389 79.695 146.833 83.5508C146.276 89.0591 145.72 90.1608 140.154 92.9149C136.258 94.0166 129.023 100.076 124.013 100.076C121.787 100.076 118.448 100.076 116.222 99.5249C114.552 98.9741 111.769 96.22 108.987 93.4658Z" fill="#FFC107"/>
<path d="M107.873 89.0597C108.987 90.1613 110.657 91.263 112.326 91.8138C113.439 92.3646 115.109 92.9155 115.109 92.9155C117.335 92.9155 119.005 92.9155 120.118 92.9155C122.901 92.9155 126.797 91.8139 130.692 89.6105C134.588 87.958 135.145 86.8563 137.928 85.7546C140.711 84.1022 143.493 82.4497 142.381 81.8989C141.267 81.348 140.154 81.8989 136.258 84.1022C132.918 86.3055 130.136 87.4072 126.797 89.0597C125.127 89.6105 122.901 90.7121 121.231 90.7121C119.561 90.7121 117.892 90.7121 116.222 90.7121C114.552 90.7121 113.439 90.1613 111.769 89.6105C110.657 89.0597 110.099 88.5088 109.543 88.5088C108.43 87.958 106.204 85.7546 105.091 85.2039C105.091 85.2039 103.978 85.2039 104.534 85.7546C106.204 87.4072 106.761 87.958 107.873 89.0597Z" fill="#634703"/>
<path d="M124.571 76.9419C125.127 78.0435 126.24 78.0435 126.797 78.5944C127.353 79.1452 127.909 79.1452 127.909 79.1452C128.466 78.5944 127.909 77.4927 127.353 77.4927C127.353 76.3911 124.571 76.3911 124.571 76.9419Z" fill="#634703"/>
<path d="M115.666 78.044C115.666 78.5949 116.778 79.1457 116.778 78.5949C117.335 78.044 117.892 77.4933 118.448 77.4933C119.561 76.9424 119.004 76.3916 117.335 76.3916C116.222 76.9424 116.222 77.4933 115.666 78.044Z" fill="#634703"/>
<path d="M169.652 175.541C169.652 176.091 169.652 176.642 169.652 177.193C170.765 179.396 173.547 179.947 175.773 179.947C179.113 179.947 182.452 177.744 184.122 175.541C184.122 174.99 184.678 174.438 185.235 173.888C186.348 172.236 186.905 171.134 187.461 170.583C187.461 170.583 186.905 170.032 186.905 169.481C186.348 168.38 184.678 167.278 182.452 166.727C180.782 166.176 178 165.626 176.887 165.626C171.878 165.075 169.095 166.727 167.426 168.38C167.426 168.38 167.982 168.38 167.982 168.931C169.095 170.032 169.652 171.134 169.652 172.786C170.208 173.888 169.652 174.438 169.652 175.541Z" fill="#455A64"/>
</g>
<defs>
<clipPath id="clip0_248_6654">
<rect width="256" height="256" fill="white"/>
</clipPath>
</defs>
</svg>
