<svg width="256" height="256" viewBox="0 0 256 256" fill="none" xmlns="http://www.w3.org/2000/svg">
<g clip-path="url(#clip0_248_904)">
<path d="M196 0H60C26.8629 0 0 26.8629 0 60V196C0 229.137 26.8629 256 60 256H196C229.137 256 256 229.137 256 196V60C256 26.8629 229.137 0 196 0Z" fill="url(#paint0_linear_248_904)"/>
<path d="M48 108L88 148V228L48 188V108ZM88 68V148L128 108V28L88 68ZM128 108V188L168 148V68L128 108ZM168 148V228L208 188V108L168 148Z" fill="white"/>
</g>
<defs>
<linearGradient id="paint0_linear_248_904" x1="128" y1="0" x2="128" y2="256" gradientUnits="userSpaceOnUse">
<stop stop-color="#324FFF"/>
<stop offset="1" stop-color="#283198"/>
</linearGradient>
<clipPath id="clip0_248_904">
<rect width="256" height="256" fill="white"/>
</clipPath>
</defs>
</svg>
