<svg width="256" height="256" viewBox="0 0 256 256" fill="none" xmlns="http://www.w3.org/2000/svg">
<g clip-path="url(#clip0_248_3064)">
<path d="M196 0H60C26.8629 0 0 26.8629 0 60V196C0 229.137 26.8629 256 60 256H196C229.137 256 256 229.137 256 196V60C256 26.8629 229.137 0 196 0Z" fill="#3F51B5"/>
<path d="M181.98 123.469L183.531 150.898C183.755 154.898 181.388 158.592 176.408 162C171.429 165.408 164.633 168.122 156 170.122C147.388 172.122 138.041 173.122 127.959 173.122C117.898 173.122 108.551 172.122 99.9184 170.122C91.3061 168.122 84.4898 165.429 79.5102 162C74.5306 158.592 72.1633 154.878 72.3878 150.898L73.9388 123.469L123.776 139.184C125.041 139.592 126.429 139.796 127.939 139.796C129.449 139.796 130.837 139.592 132.102 139.184L181.98 123.469ZM228 95.3469C228 96.6735 227.367 97.5714 226.082 98.0408L128.857 128.592C128.633 128.653 128.327 128.673 128 128.673C127.653 128.673 127.367 128.653 127.143 128.592L70.551 110.714C68.0612 112.673 66 115.898 64.3878 120.388C62.7755 124.878 61.7959 130.041 61.4286 135.878C65.0816 137.959 66.898 141.122 66.898 145.347C66.898 149.347 65.2245 152.429 61.8571 154.633L66.898 192.224C67.0204 193.041 66.7755 193.755 66.2041 194.388C65.6735 195.02 64.9796 195.347 64.1225 195.347H47.449C46.5918 195.347 45.898 195.02 45.3673 194.388C44.7959 193.755 44.551 193.02 44.6735 192.224L49.7143 154.633C46.3673 152.429 44.6735 149.327 44.6735 145.347C44.6735 141.122 46.551 137.918 50.3265 135.714C50.9592 123.735 53.7959 114.184 58.8367 107.061L29.9184 98.0204C28.6531 97.551 28 96.6531 28 95.3265C28 94 28.6327 93.102 29.9184 92.6327L127.143 62.0816C127.367 62.0204 127.673 62 128 62C128.347 62 128.633 62.0204 128.857 62.0816L226.082 92.6327C227.367 93.1224 228 94.0204 228 95.3469Z" fill="white"/>
</g>
<defs>
<clipPath id="clip0_248_3064">
<rect width="256" height="256" fill="white"/>
</clipPath>
</defs>
</svg>
