<svg width="256" height="256" viewBox="0 0 256 256" fill="none" xmlns="http://www.w3.org/2000/svg">
<g clip-path="url(#clip0_414_9)">
<path d="M196 0H60C26.8629 0 0 26.8629 0 60V196C0 229.137 26.8629 256 60 256H196C229.137 256 256 229.137 256 196V60C256 26.8629 229.137 0 196 0Z" fill="white"/>
<path d="M126.663 28C120.203 28.0028 114.271 31.5666 111.235 37.2684C108.198 42.9702 108.553 49.8814 112.156 55.2427L119.625 47.7842C119.379 47.0401 119.254 46.261 119.257 45.4771C119.257 41.4044 122.558 38.1028 126.631 38.1028C130.704 38.1028 134.005 41.4044 134.005 45.4771C134.005 49.5498 130.704 52.8514 126.631 52.8514C125.851 52.8531 125.075 52.7286 124.334 52.4826L116.876 59.9412C123.087 64.1538 131.294 63.9306 137.267 59.3867C143.24 54.8429 145.646 46.9928 143.243 39.8827C140.841 32.7726 134.168 27.99 126.663 28Z" fill="#34A853"/>
<path d="M119.71 78.9354C119.722 73.0316 117.81 67.2847 114.264 62.5645L104.572 72.2458C107.603 77.7896 106.512 84.6804 101.917 89.0171L107.184 101.89C114.989 96.8641 119.706 88.2183 119.71 78.9354Z" fill="#FBBC04"/>
<path d="M92.6248 92.8307H92.372C86.4273 92.8312 81.1397 89.0527 79.2145 83.4284C77.2892 77.804 79.1522 71.5779 83.8502 67.9353C88.5483 64.2928 95.0422 64.0395 100.01 67.3051L109.607 57.708C100.275 50.1424 87.0961 49.5588 77.1319 56.2699C67.1676 62.981 62.7549 75.4126 66.2581 86.904C69.7612 98.3954 80.3585 106.251 92.372 106.262C94.2257 106.263 96.0749 106.08 97.8922 105.715L92.6248 92.8307Z" fill="#EA4335"/>
<path d="M127.031 103.966C120.965 103.959 114.932 104.843 109.122 106.589L116.802 125.351C120.145 124.523 123.577 124.105 127.021 124.108C146.977 124.114 164.151 138.215 168.04 157.789C171.929 177.363 161.45 196.959 143.011 204.593C124.573 212.227 103.309 205.774 92.2232 189.179C81.1376 172.585 83.317 150.471 97.4288 136.36C100.373 133.424 103.735 130.939 107.405 128.985L99.8096 110.276C71.497 124.142 58.0919 157.042 68.652 186.747C79.212 216.451 110.377 233.507 141.088 226.389C171.8 219.272 192.286 190.246 188.703 158.925C185.12 127.603 158.61 103.954 127.084 103.955L127.031 103.966Z" fill="#4285F4"/>
</g>
<defs>
<clipPath id="clip0_414_9">
<rect width="256" height="256" fill="white"/>
</clipPath>
</defs>
</svg>
