<svg width="256" height="256" viewBox="0 0 256 256" fill="none" xmlns="http://www.w3.org/2000/svg">
<g clip-path="url(#clip0_416_10)">
<rect width="256" height="256" rx="60" fill="#242938"/>
<path d="M226.115 47.0919C225.6 46.6663 224.947 46.447 224.281 46.4762C222.456 46.4762 220.093 47.7216 218.82 48.3891L218.317 48.6482C216.184 49.6863 213.863 50.2742 211.496 50.3758C209.068 50.4528 206.977 50.5957 204.254 50.8815C188.118 52.5463 180.921 64.9769 173.989 76.9993C170.214 83.5389 166.317 90.3314 160.973 95.5204C159.867 96.5983 158.691 97.6019 157.454 98.5248C151.923 102.657 144.978 105.608 139.575 107.697C134.373 109.696 128.693 111.493 123.209 113.231C118.179 114.821 113.436 116.325 109.072 117.955C107.377 118.583 105.671 119.18 103.954 119.746C99.9779 121.041 97.1138 122.035 92.9232 124.935C91.4217 125.959 89.9602 127.041 88.542 128.179C85.2173 130.846 82.2744 133.961 79.7967 137.436C77.666 140.642 75.2039 143.612 72.4514 146.297C71.567 147.167 69.9983 147.594 67.6483 147.594C64.8983 147.594 61.5624 147.024 58.0327 146.421C54.3921 145.772 50.6296 145.157 47.4031 145.157C44.7827 145.157 42.7749 145.585 41.2781 146.454C41.2781 146.454 38.7515 147.933 37.6875 149.846L38.7343 150.321C40.3562 151.204 41.8577 152.294 43.2015 153.564C44.6025 154.866 46.1636 155.982 47.8468 156.885C48.3847 157.083 48.874 157.395 49.2812 157.799C48.8421 158.448 48.1968 159.285 47.5171 160.18C43.7921 165.079 41.6203 168.174 42.8656 169.859C43.4624 170.171 44.1293 170.322 44.8015 170.299C52.9202 170.299 57.2843 168.179 62.8014 165.493C64.4014 164.716 66.0295 163.916 67.9655 163.094C71.192 161.686 74.6655 159.442 78.3514 157.066C83.1701 153.909 88.2107 150.664 93.1044 149.1C97.1247 147.867 101.313 147.276 105.515 147.349C110.679 147.349 116.114 148.042 121.356 148.719C125.261 149.224 129.307 149.743 133.278 149.983C134.818 150.072 136.246 150.118 137.632 150.118C139.489 150.125 141.344 150.028 143.19 149.827L143.634 149.67C146.417 147.952 147.723 144.261 148.985 140.692C149.798 138.396 150.485 136.333 151.567 135.022C151.63 134.959 151.699 134.901 151.773 134.849C151.824 134.821 151.882 134.811 151.939 134.82C151.997 134.829 152.049 134.857 152.089 134.9V135.003C151.445 148.957 145.854 157.818 140.201 165.696L136.426 169.764C136.426 169.764 141.712 169.764 144.718 168.595C155.693 165.299 163.975 158.033 170.001 146.446C171.488 143.472 172.818 140.421 173.984 137.306C174.085 137.046 175.035 136.567 174.946 137.909C174.914 138.304 174.887 138.746 174.854 139.208C174.854 139.479 174.854 139.757 174.803 140.037C174.646 141.984 174.19 146.097 174.19 146.097L177.579 144.272C185.749 139.083 192.048 128.614 196.826 112.323C198.813 105.537 200.271 98.7965 201.556 92.8615C203.092 85.7235 204.415 79.6063 205.932 77.2317C208.313 73.5096 211.948 70.992 215.465 68.5467C215.943 68.2153 216.427 67.8965 216.898 67.5463C221.32 64.4272 225.715 60.826 226.684 54.1105V53.9613C227.387 48.9529 226.793 47.6745 226.115 47.0919ZM214.735 209.997H198.599V181.745H213.154C218.716 181.745 224.016 182.797 223.938 189.064C223.938 193.482 221.209 194.702 218.331 195.167C222.416 195.518 224.874 198.138 224.874 202.369C224.901 208.706 219.37 209.999 214.735 209.999V209.997ZM213.529 194.072C219.099 194.072 220.345 191.917 220.345 189.18C220.345 185.067 217.852 184.132 213.529 184.132H201.963V194.07L213.529 194.072ZM213.684 196.459H201.963V207.61H214.187C217.615 207.61 221.235 206.474 221.235 202.135C221.235 197.125 217.071 196.459 213.684 196.459ZM164.47 181.743H177.165C187.834 181.743 193.165 187.655 193.087 195.869C193.165 204.406 187.281 209.999 178.101 209.999H164.468L164.47 181.743ZM167.973 184.25V207.533H177.656C186.143 207.533 189.376 201.777 189.376 195.79C189.376 189.023 185.329 184.25 177.657 184.25H167.973ZM151.039 192.663V189.373H156.357V209.997H151.057V206.677C149.657 209.064 146.778 210.432 143.273 210.432C135.954 210.432 131.862 205.242 131.862 199.274C131.862 193.519 135.736 188.894 142.493 188.894C146.328 188.94 149.521 190.237 151.039 192.663ZM137.484 199.553C137.484 203.348 139.859 206.597 144.456 206.597C148.895 206.597 151.309 203.424 151.309 199.669C151.309 195.913 148.811 192.703 144.209 192.703C139.79 192.703 137.49 195.906 137.49 199.553H137.484ZM121.839 183.931C121.828 183.557 121.894 183.184 122.034 182.837C122.174 182.49 122.384 182.176 122.651 181.915C122.918 181.654 123.237 181.451 123.586 181.32C123.935 181.19 124.307 181.133 124.679 181.155C125.058 181.142 125.436 181.208 125.788 181.347C126.141 181.485 126.463 181.695 126.732 181.962C127.002 182.23 127.215 182.55 127.359 182.902C127.502 183.255 127.572 183.634 127.565 184.014C127.573 184.39 127.502 184.763 127.358 185.11C127.213 185.457 126.998 185.769 126.726 186.027C126.455 186.285 126.132 186.483 125.779 186.608C125.427 186.733 125.052 186.783 124.679 186.753C124.305 186.77 123.931 186.708 123.581 186.573C123.231 186.437 122.913 186.23 122.646 185.965C122.38 185.701 122.17 185.383 122.031 185.033C121.892 184.683 121.827 184.308 121.839 183.931ZM122.073 189.373H127.37V204.444C127.37 205.378 127.565 206.046 128.339 206.046C128.679 206.037 129.018 205.999 129.351 205.931L130.172 209.823C129.057 210.266 127.867 210.487 126.668 210.473C124.448 210.473 122.072 209.823 122.072 204.756L122.073 189.373ZM108.484 209.999H103.193V189.375H108.484V193.995C109.09 192.517 110.114 191.251 111.429 190.353C112.744 189.454 114.293 188.963 115.882 188.941C117.01 188.925 118.131 189.109 119.193 189.486L118.064 193.379C117.149 193.134 116.208 193.003 115.262 192.988C111.442 192.988 108.484 195.883 108.484 200.126V209.999ZM91.2388 192.665V189.375H96.5388V209.999H91.2388V206.679C89.8388 209.066 86.9607 210.434 83.4545 210.434C76.1295 210.434 72.0436 205.243 72.0436 199.275C72.0436 193.521 75.917 188.896 82.6748 188.896C86.5279 188.941 89.7216 190.238 91.2388 192.665ZM77.6842 199.555C77.6842 203.349 80.0592 206.599 84.656 206.599C89.0904 206.599 91.5045 203.426 91.5045 199.671C91.5045 195.916 89.0123 192.704 84.4045 192.704C79.9889 192.704 77.692 195.908 77.692 199.555H77.6842ZM63.2467 181.745L70.5139 209.999H65.0296L60.1874 189.645L51.0624 209.999H46.4296L37.3547 189.766L32.3703 209.999H27L34.2031 181.745H38.9531L48.7655 203.622L58.5358 181.745H63.2467Z" fill="white"/>
</g>
<defs>
<clipPath id="clip0_416_10">
<rect width="256" height="256" fill="white"/>
</clipPath>
</defs>
</svg>
