<svg width="256" height="256" viewBox="0 0 256 256" fill="none" xmlns="http://www.w3.org/2000/svg">
<g clip-path="url(#clip0_248_3281)">
<path d="M196 0H60C26.8629 0 0 26.8629 0 60V196C0 229.137 26.8629 256 60 256H196C229.137 256 256 229.137 256 196V60C256 26.8629 229.137 0 196 0Z" fill="#F4F2ED"/>
<path d="M217.899 68H38.101C32.5224 68 28 72.5224 28 78.101V177.091C28 182.67 32.5224 187.192 38.101 187.192H217.899C223.478 187.192 228 182.67 228 177.091V78.101C228 72.5224 223.478 68 217.899 68Z" stroke="black" stroke-width="10"/>
<path d="M54 162V94H74L94 119L114 94H134V162H114V123L94 148L74 123V162H54ZM179 162L149 129H169V94H189V129H209L179 162Z" fill="black"/>
</g>
<defs>
<clipPath id="clip0_248_3281">
<rect width="256" height="256" fill="white"/>
</clipPath>
</defs>
</svg>
