<svg width="256" height="256" viewBox="0 0 256 256" fill="none" xmlns="http://www.w3.org/2000/svg">
<g clip-path="url(#clip0_248_6542)">
<path d="M196 0H60C26.8629 0 0 26.8629 0 60V196C0 229.137 26.8629 256 60 256H196C229.137 256 256 229.137 256 196V60C256 26.8629 229.137 0 196 0Z" fill="#2B90D9"/>
<path d="M218 115.045V192.875H186.646V117.333C186.646 101.408 179.832 93.3256 166.204 93.3256C151.137 93.3256 143.586 102.914 143.586 121.874V163.222H112.416V121.874C112.416 102.914 104.862 93.3256 89.7947 93.3256C76.1673 93.3256 69.3543 101.408 69.3543 117.333V192.875H38V115.045C38 99.1382 42.1184 86.4978 50.3907 77.146C58.9213 67.7941 70.093 63 83.9609 63C100.006 63 112.157 69.0648 120.19 81.196L128 94.0712L135.811 81.196C143.844 69.0648 155.994 63 172.041 63C185.907 63 197.078 67.7941 205.611 77.146C213.881 86.4978 218 99.1382 218 115.045Z" fill="white"/>
</g>
<defs>
<clipPath id="clip0_248_6542">
<rect width="256" height="256" fill="white"/>
</clipPath>
</defs>
</svg>
