<svg width="256" height="256" viewBox="0 0 256 256" fill="none" xmlns="http://www.w3.org/2000/svg">
<g clip-path="url(#clip0_248_6545)">
<rect width="256" height="256" rx="60" fill="#242938"/>
<path d="M218.324 148.035C215.556 162.042 193.529 177.371 168.231 180.341C155.039 181.889 142.05 183.312 128.2 182.687C105.55 181.667 87.6776 177.371 87.6776 177.371C87.6776 179.539 87.8136 181.604 88.0855 183.535C91.0302 205.518 110.251 206.835 128.457 207.449C146.833 208.067 163.196 202.993 163.196 202.993L163.951 219.331C163.951 219.331 151.098 226.119 128.2 227.367C115.574 228.049 99.8969 227.055 81.637 222.302C42.0344 211.993 35.2236 170.478 34.1815 128.354C33.8639 115.847 34.0597 104.054 34.0597 94.1905C34.0597 51.1167 62.7571 38.4911 62.7571 38.4911C77.227 31.9558 102.056 29.2075 127.869 29H128.503C154.315 29.2075 179.161 31.9558 193.63 38.4911C193.63 38.4911 222.326 51.1167 222.326 94.1905C222.326 94.1905 222.686 125.971 218.324 148.035Z" fill="#2B90D9"/>
<path d="M188.477 97.5323V149.687H167.466V99.0654C167.466 88.3943 162.9 82.9779 153.768 82.9779C143.671 82.9779 138.611 89.4031 138.611 102.108V129.816H117.724V102.108C117.724 89.4031 112.662 82.9779 102.565 82.9779C93.4331 82.9779 88.8676 88.3943 88.8676 99.0654V149.687H67.8567V97.5323C67.8567 86.8729 70.6165 78.4025 76.1599 72.1357C81.8763 65.8689 89.3626 62.6562 98.6557 62.6562C109.408 62.6562 117.55 66.7204 122.933 74.8497L128.167 83.4775L133.401 74.8497C138.784 66.7204 146.926 62.6562 157.679 62.6562C166.971 62.6562 174.457 65.8689 180.175 72.1357C185.717 78.4025 188.477 86.8729 188.477 97.5323Z" fill="white"/>
</g>
<defs>
<clipPath id="clip0_248_6545">
<rect width="256" height="256" fill="white"/>
</clipPath>
</defs>
</svg>
