<svg width="256" height="256" viewBox="0 0 256 256" fill="none" xmlns="http://www.w3.org/2000/svg">
<g clip-path="url(#clip0_248_1189)">
<path d="M196 0H60C26.8629 0 0 26.8629 0 60V196C0 229.137 26.8629 256 60 256H196C229.137 256 256 229.137 256 196V60C256 26.8629 229.137 0 196 0Z" fill="#F4F4ED"/>
<path d="M28 138.785L84.9285 115.785C90.707 108.149 97.2136 101.092 104.357 94.7141C109.071 92.2142 117.928 93.5712 134.143 73.4285C149.857 53.7857 154.857 37 162.214 37C173.857 37 182.429 62.1427 195.429 100.214C204.697 129.294 215.57 157.838 227.999 185.714C214.429 173.071 202.857 159.429 189.642 159.785C177.357 160.071 163.714 174.642 148.785 193.357C136.928 208.357 121.214 218.642 115.071 218.429C115.071 218.429 99.2137 173.571 85.9283 166.286C83.1721 165.16 80.1883 164.702 77.2212 164.95C74.2541 165.198 71.3879 166.145 68.857 167.714L28 138.714V138.785Z" fill="#4499DD"/>
<path d="M155.144 42.144C150.359 48.5726 144.573 60.3583 134.144 73.4296C117.93 93.5725 109.144 92.2154 104.359 94.7154C97.1813 101.059 90.6713 108.119 84.9302 115.787L108.502 133.001C128.502 105.715 139.216 76.1439 147.573 57.0012C149.666 51.8407 152.199 46.8699 155.144 42.144Z" fill="url(#paint0_linear_248_1189)"/>
<path d="M162.286 37C146.714 37 136.072 119 78.5718 164.785C94.7146 162.143 108.714 202.214 115.143 218.429C143.714 213.571 166.571 158.928 189.643 159.785C202.857 160.286 214.428 173.071 228 185.714C197 120.571 182.5 37 162.286 37Z" fill="url(#paint1_linear_248_1189)"/>
</g>
<defs>
<linearGradient id="paint0_linear_248_1189" x1="133.737" y1="123.208" x2="120.952" y2="81.9226" gradientUnits="userSpaceOnUse">
<stop stop-color="#551122"/>
<stop offset="0.23" stop-color="#552233"/>
<stop offset="0.36" stop-color="#553344"/>
<stop offset="0.51" stop-color="#664455"/>
<stop offset="0.66" stop-color="#556688"/>
<stop offset="0.84" stop-color="#2299DD"/>
</linearGradient>
<linearGradient id="paint1_linear_248_1189" x1="225.929" y1="149.021" x2="97.3575" y2="117.45" gradientUnits="userSpaceOnUse">
<stop offset="0.081" stop-color="#CC3333"/>
<stop offset="0.189" stop-color="#DE5239"/>
<stop offset="0.313" stop-color="#F06E3E"/>
<stop offset="0.421" stop-color="#FA8042"/>
<stop offset="0.5" stop-color="#FE8643"/>
<stop offset="0.58" stop-color="#FA7F42"/>
<stop offset="0.696" stop-color="#EF6C3E"/>
<stop offset="0.833" stop-color="#DC4C37"/>
<stop offset="0.916" stop-color="#CF3633"/>
</linearGradient>
<clipPath id="clip0_248_1189">
<rect width="256" height="256" fill="white"/>
</clipPath>
</defs>
</svg>
