<svg width="256" height="256" viewBox="0 0 256 256" fill="none" xmlns="http://www.w3.org/2000/svg">
<g clip-path="url(#clip0_248_1201)">
<rect width="256" height="256" rx="60" fill="white"/>
<path d="M28 133.785L84.9285 110.785C90.707 103.149 97.2136 96.0922 104.357 89.7141C109.071 87.2142 117.928 88.5712 134.143 68.4285C149.857 48.7857 154.857 32 162.214 32C173.857 32 182.429 57.1427 195.429 95.2141C204.697 124.294 215.57 152.838 227.999 180.714C214.429 168.071 202.857 154.429 189.642 154.785C177.357 155.071 163.714 169.642 148.785 188.357C136.928 203.357 121.214 213.642 115.071 213.429C115.071 213.429 99.2137 168.571 85.9283 161.286C83.1721 160.16 80.1883 159.702 77.2212 159.95C74.2541 160.198 71.3879 161.145 68.857 162.714L28 133.714V133.785Z" fill="#4499DD"/>
<path d="M155.144 37.144C150.359 43.5726 144.573 55.3583 134.144 68.4296C117.93 88.5725 109.144 87.2154 104.359 89.7154C97.1813 96.0586 90.6713 103.119 84.9302 110.787L108.502 128.001C128.502 100.715 139.216 71.1439 147.573 52.0012C149.666 46.8407 152.199 41.8699 155.144 37.144Z" fill="url(#paint0_linear_248_1201)"/>
<path d="M162.286 32C146.714 32 136.072 114 78.5718 159.785C94.7146 157.143 108.714 197.214 115.143 213.429C143.714 208.571 166.571 153.928 189.643 154.785C202.857 155.286 214.428 168.071 228 180.714C197 115.571 182.5 32 162.286 32Z" fill="url(#paint1_linear_248_1201)"/>
</g>
<defs>
<linearGradient id="paint0_linear_248_1201" x1="133.737" y1="118.208" x2="120.952" y2="76.9226" gradientUnits="userSpaceOnUse">
<stop stop-color="#551122"/>
<stop offset="0.23" stop-color="#552233"/>
<stop offset="0.36" stop-color="#553344"/>
<stop offset="0.51" stop-color="#664455"/>
<stop offset="0.66" stop-color="#556688"/>
<stop offset="0.84" stop-color="#2299DD"/>
</linearGradient>
<linearGradient id="paint1_linear_248_1201" x1="225.929" y1="144.021" x2="97.3575" y2="112.45" gradientUnits="userSpaceOnUse">
<stop offset="0.081" stop-color="#CC3333"/>
<stop offset="0.189" stop-color="#DE5239"/>
<stop offset="0.313" stop-color="#F06E3E"/>
<stop offset="0.421" stop-color="#FA8042"/>
<stop offset="0.5" stop-color="#FE8643"/>
<stop offset="0.58" stop-color="#FA7F42"/>
<stop offset="0.696" stop-color="#EF6C3E"/>
<stop offset="0.833" stop-color="#DC4C37"/>
<stop offset="0.916" stop-color="#CF3633"/>
</linearGradient>
<clipPath id="clip0_248_1201">
<rect width="256" height="256" fill="white"/>
</clipPath>
</defs>
</svg>
