<svg width="256" height="256" viewBox="0 0 256 256" fill="none" xmlns="http://www.w3.org/2000/svg">
<g clip-path="url(#clip0_350_97)">
<rect width="256" height="256" rx="60" fill="#242938"/>
<path d="M229 124.349C229 88.2489 184.204 58.9999 129 58.9999C73.7958 58.9999 29 88.3807 29 124.349V128.17C29 166.378 68.1304 197.34 129 197.34C190.265 197.34 229 166.378 229 128.17V124.349Z" fill="#2D3277"/>
<path d="M225.172 124.34C225.172 158.2 182.089 185.868 128.993 185.868C75.897 185.868 32.814 158.332 32.814 124.34C32.814 90.3477 75.897 62.8115 128.993 62.8115C182.089 62.8115 225.172 90.3477 225.172 124.34Z" fill="#F7D032"/>
<path d="M97.0518 104.864C97.0518 104.996 95.9978 105.918 96.6565 106.708C98.2376 108.685 102.849 109.739 107.592 108.685C110.359 108.026 114.048 105.127 117.473 102.361C121.294 99.3303 124.983 96.3 128.804 95.1142C132.757 93.7967 135.392 94.3237 137.104 94.8507C138.949 95.3777 141.189 96.5635 144.614 99.1985C151.202 104.205 177.684 127.262 182.164 131.214C185.853 129.502 202.19 122.519 224.456 117.644C222.48 105.786 215.365 94.9825 204.43 86.0233C189.147 92.4792 170.57 95.773 152.388 86.8138C152.256 86.8138 142.375 82.0707 132.757 82.3342C118.264 82.7295 112.072 88.9219 105.484 95.5095L97.0518 104.864Z" fill="white"/>
<path d="M181.258 134.002C180.995 133.738 150.165 106.729 143.182 101.591C139.098 98.5605 136.858 97.77 134.486 97.5065C133.3 97.3748 131.588 97.6383 130.402 97.9018C127.108 98.824 122.892 101.591 119.203 104.621C115.25 107.783 111.561 110.682 108.268 111.472C103.92 112.395 98.5178 111.341 96.1463 109.628C95.224 108.969 94.4335 108.178 94.17 107.388C93.2478 105.28 94.9605 103.699 95.224 103.304L103.656 94.0809C104.71 93.0269 105.632 92.1047 106.686 91.1824C103.92 91.5777 101.416 92.2364 98.9131 92.8952C95.8828 93.8174 92.8525 94.608 89.8222 94.608C88.5047 94.608 81.9171 93.5539 80.5995 93.1587C72.9579 91.0506 66.1068 88.9426 56.0936 84.3313C43.9724 93.2904 35.9355 104.621 33.564 117.006C35.2767 117.533 38.0435 118.323 39.2293 118.587C66.6338 124.647 75.0659 130.972 76.647 132.289C78.3597 130.445 80.7313 129.259 83.3663 129.259C86.3966 129.259 89.1634 130.84 90.7445 133.08C92.3255 131.894 94.4335 130.84 97.2003 130.84C98.5178 130.84 99.8354 131.103 101.153 131.499C104.183 132.553 105.896 134.661 106.686 136.505C107.741 135.978 109.058 135.715 110.507 135.715C111.957 135.715 113.538 136.11 114.987 136.769C119.993 138.877 120.784 143.883 120.389 147.572H121.443C127.372 147.572 132.246 152.447 132.246 158.376C132.246 160.221 131.719 161.933 130.929 163.514C132.51 164.437 136.726 166.545 140.283 166.018C143.182 165.622 144.236 164.7 144.631 164.041C144.895 163.646 145.158 163.251 144.895 162.856L137.121 154.292C137.121 154.292 135.804 153.106 136.331 152.579C136.726 152.052 137.517 152.842 138.044 153.238C141.996 156.532 146.739 161.406 146.739 161.406C146.871 161.406 147.134 162.065 148.847 162.46C150.428 162.724 153.063 162.592 154.908 161.011C155.435 160.616 155.83 160.089 156.225 159.694L156.094 159.825C158.07 157.322 155.83 154.687 155.83 154.687L146.871 144.542C146.871 144.542 145.553 143.356 146.08 142.829C146.476 142.434 147.266 143.093 147.925 143.488C151.351 145.728 155.303 149.812 159.256 153.633C160.046 154.16 163.472 156.268 167.951 153.369C170.718 151.525 171.245 149.417 171.113 147.704C170.982 145.464 169.269 143.883 169.269 143.883L157.016 131.499C157.016 131.499 155.698 130.445 156.225 129.786C156.621 129.259 157.411 130.049 157.938 130.445C161.891 133.738 172.431 143.488 172.431 143.488C172.563 143.62 176.252 146.255 180.731 143.356C182.312 142.302 183.366 140.721 183.498 139.008C183.498 135.846 181.258 134.002 181.258 134.002Z" fill="white"/>
<path d="M121.637 149.678C119.792 149.678 117.684 150.732 117.421 150.6C117.289 150.469 117.552 149.678 117.684 149.283C117.816 148.888 120.319 141.246 114.258 138.611C109.515 136.635 106.749 138.874 105.695 139.929C105.431 140.192 105.299 140.192 105.299 139.797C105.168 138.479 104.641 134.79 100.556 133.473C94.7591 131.76 91.0701 135.712 90.1478 137.162C89.7525 133.868 86.9857 131.365 83.5602 131.365C79.8711 131.365 76.8408 134.395 76.8408 138.084C76.8408 141.773 79.8711 144.803 83.5602 144.803C85.4047 144.803 86.9857 144.145 88.1715 142.959V143.222C87.908 144.803 87.381 150.864 93.7051 153.367C96.2084 154.29 98.4482 153.631 100.161 152.313C100.688 151.918 100.82 152.05 100.688 152.577C100.424 154.158 100.688 157.452 105.431 159.296C108.988 160.745 111.096 159.296 112.414 157.979C113.073 157.452 113.204 157.583 113.204 158.374C113.336 162.985 117.157 166.542 121.637 166.542C126.248 166.542 130.069 162.722 130.069 158.11C130.069 153.367 126.248 149.678 121.637 149.678Z" fill="white"/>
<path d="M121.637 165.915C117.42 165.915 113.995 162.621 113.863 158.405C113.863 158.01 113.863 157.088 113.073 157.088C112.677 157.088 112.414 157.351 112.15 157.615C111.228 158.537 110.042 159.327 108.33 159.327C107.539 159.327 106.748 159.196 105.826 158.8C101.347 156.956 101.347 153.925 101.478 152.74C101.478 152.344 101.478 152.081 101.347 151.817L101.083 151.554H100.556C100.293 151.554 100.029 151.686 99.7656 151.817C98.4481 152.74 97.2623 153.135 95.9448 153.135C95.286 153.135 94.4955 153.003 93.8368 152.74C87.9079 150.5 88.4349 144.966 88.6984 143.254C88.6984 142.858 88.6984 142.595 88.4349 142.463L88.0397 142.068L87.6444 142.463C86.4586 143.517 85.0094 144.176 83.4283 144.176C80.0028 144.176 77.3677 141.409 77.3677 138.115C77.3677 134.69 80.1345 132.055 83.4283 132.055C86.4586 132.055 89.0937 134.294 89.4889 137.325L89.7524 138.906L90.6747 137.456C90.8065 137.325 93.178 133.504 97.7893 133.636C98.7116 133.636 99.5021 133.767 100.424 134.031C103.982 135.085 104.64 138.379 104.772 139.828C104.904 140.618 105.431 140.618 105.563 140.618C105.826 140.618 106.09 140.355 106.221 140.223C106.88 139.564 108.33 138.379 110.701 138.379C111.755 138.379 112.941 138.642 114.127 139.169C119.924 141.673 117.289 148.919 117.289 149.051C116.762 150.236 116.762 150.763 117.289 151.159L117.552 151.29H117.684C117.947 151.29 118.211 151.159 118.738 151.027C119.528 150.763 120.714 150.368 121.768 150.368C126.116 150.368 129.673 153.925 129.673 158.273C129.542 162.358 125.984 165.915 121.637 165.915ZM182.506 130.737C173.02 122.437 151.149 103.333 145.22 98.9848C141.795 96.4815 139.555 95.0322 137.447 94.5052C136.525 94.2417 135.207 93.9782 133.626 93.9782C132.177 93.9782 130.464 94.2417 128.751 94.7687C124.93 95.9545 121.109 98.9848 117.42 102.015L117.289 102.147C113.863 104.914 110.306 107.68 107.539 108.339C106.353 108.603 105.167 108.734 103.982 108.734C100.951 108.734 98.3163 107.812 97.2623 106.626C97.1306 106.363 97.2623 106.099 97.6576 105.572V105.441L105.958 96.4815C112.546 89.8939 118.606 83.8332 132.835 83.438H133.494C142.322 83.438 151.149 87.3906 152.203 87.9176C160.503 92.0019 169.067 93.9782 177.631 93.9782C186.59 93.9782 195.813 91.7384 205.563 87.2588C204.509 86.3365 203.323 85.4143 202.137 84.6238C193.573 88.3128 185.405 90.1574 177.631 90.1574C169.594 90.1574 161.557 88.1811 153.784 84.492C153.389 84.2285 143.639 79.7489 133.494 79.7489H132.704C120.714 80.0124 113.995 84.2285 109.515 87.9176C105.167 88.0493 101.347 89.1033 97.9211 90.0256C94.8908 90.8161 92.2557 91.6066 89.7524 91.6066C88.6984 91.6066 86.8539 91.4749 86.7221 91.4749C83.8236 91.3431 69.0673 87.7858 57.4731 83.3062C56.2874 84.0968 55.1016 85.019 54.0476 85.9413C66.3005 90.9479 81.1885 94.7687 85.7999 95.1639C87.1174 95.2957 88.4349 95.4274 89.8842 95.4274C93.0462 95.4274 96.0766 94.5052 99.1069 93.7147C100.82 93.1877 102.796 92.6607 104.904 92.2654C104.377 92.7924 103.85 93.3194 103.191 93.8464L94.759 103.069C94.1003 103.728 92.651 105.572 93.5733 107.812C93.9685 108.734 94.759 109.525 95.8131 110.315C97.7893 111.633 101.478 112.555 104.772 112.555C106.09 112.555 107.276 112.423 108.33 112.16C111.887 111.369 115.576 108.339 119.528 105.309C122.691 102.806 127.17 99.6435 130.596 98.7213C131.518 98.4578 132.704 98.326 133.626 98.326H134.416C136.656 98.5895 138.896 99.38 142.717 102.279C149.7 107.549 180.53 134.426 180.793 134.69C180.793 134.69 182.77 136.402 182.638 139.169C182.506 140.75 181.716 142.2 180.135 143.122C178.817 143.912 177.499 144.439 176.05 144.439C173.942 144.439 172.625 143.517 172.493 143.385C172.361 143.254 161.821 133.636 158 130.342C157.341 129.815 156.814 129.42 156.156 129.42C155.892 129.42 155.497 129.551 155.365 129.815C154.706 130.605 155.497 131.659 156.287 132.318L168.672 144.703C168.672 144.703 170.253 146.152 170.385 147.997C170.517 150.105 169.463 151.817 167.486 153.135C166.037 154.057 164.588 154.584 163.138 154.584C161.294 154.584 159.976 153.662 159.581 153.53L157.868 151.817C154.575 148.655 151.281 145.362 148.909 143.254C148.25 142.727 147.723 142.331 147.065 142.331C146.801 142.331 146.538 142.463 146.274 142.595C146.011 142.858 145.747 143.517 146.538 144.439C146.801 144.835 147.196 145.098 147.196 145.098L156.156 155.243C156.287 155.375 158 157.483 156.419 159.591H155.892L155.102 160.381C153.521 161.699 151.544 161.831 150.754 161.831C150.359 161.831 149.963 161.831 149.568 161.699C148.646 161.567 148.119 161.304 147.855 160.908L147.723 160.777C147.196 160.25 142.717 155.638 138.896 152.476C138.369 152.081 137.842 151.554 137.183 151.554C136.92 151.554 136.656 151.686 136.393 151.949C135.602 152.74 136.788 153.925 137.183 154.452L144.825 162.885C144.825 163.016 144.693 163.148 144.561 163.412C144.298 163.807 143.376 164.729 140.609 165.124H139.555C136.656 165.124 133.626 163.675 132.045 162.885C132.704 161.304 133.099 159.723 133.099 158.01C133.099 151.686 127.961 146.547 121.637 146.547H121.241C121.505 143.649 120.978 138.247 115.444 135.744C113.863 135.085 112.282 134.69 110.701 134.69C109.515 134.69 108.33 134.953 107.144 135.348C105.958 133.109 104.113 131.396 101.478 130.605C100.029 130.078 98.7116 129.947 97.3941 129.947C95.0225 129.947 92.9145 130.605 90.9382 132.055C89.0937 129.815 86.3269 128.366 83.4283 128.366C80.925 128.366 78.4217 129.42 76.5772 131.132C74.2057 129.288 64.7195 123.227 39.2913 117.562C38.1055 117.298 35.207 116.508 33.4942 115.981C33.2307 117.298 32.9672 118.748 32.8354 120.197C32.8354 120.197 37.4468 121.383 38.369 121.514C64.3242 127.312 72.8881 133.24 74.3374 134.426C73.8104 135.612 73.5469 136.929 73.5469 138.115C73.5469 143.517 77.8947 147.865 83.2966 147.865C83.9553 147.865 84.4823 147.865 85.0094 147.733C85.7999 151.686 88.4349 154.716 92.3875 156.165C93.5733 156.561 94.759 156.824 95.8131 156.824C96.6036 156.824 97.2623 156.692 98.0528 156.561C98.8434 158.405 100.424 160.777 104.113 162.226C105.431 162.753 106.617 163.016 107.934 163.016C108.988 163.016 109.911 162.885 110.833 162.489C112.546 166.705 116.762 169.604 121.373 169.604C124.403 169.604 127.434 168.418 129.542 166.178C131.386 167.232 135.339 169.077 139.291 169.077C139.818 169.077 140.345 169.077 140.741 168.945C144.693 168.418 146.538 166.969 147.328 165.783C147.46 165.52 147.592 165.388 147.723 165.124C148.646 165.388 149.7 165.651 150.886 165.651C152.994 165.651 155.102 164.861 157.21 163.412C159.186 161.962 160.635 159.854 160.899 158.01V157.878C161.689 157.878 162.48 158.01 163.138 158.01C165.378 158.01 167.486 157.351 169.594 156.034C173.547 153.398 174.337 149.973 174.206 147.733C174.864 147.865 175.655 147.997 176.314 147.997C178.422 147.997 180.398 147.338 182.374 146.152C184.878 144.571 186.327 142.2 186.59 139.301C186.722 137.325 186.327 135.48 185.273 133.767C191.992 130.869 207.275 125.335 225.194 121.251C225.062 119.802 224.93 118.484 224.667 117.167C202.796 121.91 186.59 128.893 182.506 130.737Z" fill="#2D3277"/>
</g>
<defs>
<clipPath id="clip0_350_97">
<rect width="256" height="256" fill="white"/>
</clipPath>
</defs>
</svg>
