<svg width="256" height="256" viewBox="0 0 256 256" fill="none" xmlns="http://www.w3.org/2000/svg">
<g clip-path="url(#clip0_350_92)">
<path d="M196 0H60C26.8629 0 0 26.8629 0 60V196C0 229.137 26.8629 256 60 256H196C229.137 256 256 229.137 256 196V60C256 26.8629 229.137 0 196 0Z" fill="#FEE708"/>
<path d="M228 124.349C228 88.2489 183.204 58.9999 128 58.9999C72.7958 58.9999 28 88.3807 28 124.349V128.17C28 166.378 67.1304 197.34 128 197.34C189.265 197.34 228 166.378 228 128.17V124.349Z" fill="#2D3277"/>
<path d="M224.172 124.34C224.172 158.2 181.089 185.868 127.993 185.868C74.897 185.868 31.814 158.332 31.814 124.34C31.814 90.3477 74.897 62.8115 127.993 62.8115C181.089 62.8115 224.172 90.3477 224.172 124.34Z" fill="#F7D032"/>
<path d="M96.0518 104.864C96.0518 104.996 94.9978 105.918 95.6565 106.708C97.2376 108.685 101.849 109.739 106.592 108.685C109.359 108.026 113.048 105.127 116.473 102.361C120.294 99.3303 123.983 96.3 127.804 95.1142C131.757 93.7967 134.392 94.3237 136.104 94.8507C137.949 95.3777 140.189 96.5635 143.614 99.1985C150.202 104.205 176.684 127.262 181.164 131.214C184.853 129.502 201.19 122.519 223.456 117.644C221.48 105.786 214.365 94.9825 203.43 86.0233C188.147 92.4792 169.57 95.773 151.388 86.8138C151.256 86.8138 141.375 82.0707 131.757 82.3342C117.264 82.7295 111.072 88.9219 104.484 95.5095L96.0518 104.864Z" fill="white"/>
<path d="M180.258 134.002C179.995 133.738 149.165 106.729 142.182 101.591C138.098 98.5605 135.858 97.77 133.486 97.5065C132.3 97.3748 130.588 97.6383 129.402 97.9018C126.108 98.824 121.892 101.591 118.203 104.621C114.25 107.783 110.561 110.682 107.268 111.472C102.92 112.395 97.5178 111.341 95.1463 109.628C94.224 108.969 93.4335 108.178 93.17 107.388C92.2478 105.28 93.9605 103.699 94.224 103.304L102.656 94.0809C103.71 93.0269 104.632 92.1047 105.686 91.1824C102.92 91.5777 100.416 92.2364 97.9131 92.8952C94.8828 93.8174 91.8525 94.608 88.8222 94.608C87.5047 94.608 80.9171 93.5539 79.5995 93.1587C71.9579 91.0506 65.1068 88.9426 55.0936 84.3313C42.9724 93.2904 34.9355 104.621 32.564 117.006C34.2767 117.533 37.0435 118.323 38.2293 118.587C65.6338 124.647 74.0659 130.972 75.647 132.289C77.3597 130.445 79.7313 129.259 82.3663 129.259C85.3966 129.259 88.1634 130.84 89.7445 133.08C91.3255 131.894 93.4335 130.84 96.2003 130.84C97.5178 130.84 98.8354 131.103 100.153 131.499C103.183 132.553 104.896 134.661 105.686 136.505C106.741 135.978 108.058 135.715 109.507 135.715C110.957 135.715 112.538 136.11 113.987 136.769C118.993 138.877 119.784 143.883 119.389 147.572H120.443C126.372 147.572 131.246 152.447 131.246 158.376C131.246 160.221 130.719 161.933 129.929 163.514C131.51 164.437 135.726 166.545 139.283 166.018C142.182 165.622 143.236 164.7 143.631 164.041C143.895 163.646 144.158 163.251 143.895 162.856L136.121 154.292C136.121 154.292 134.804 153.106 135.331 152.579C135.726 152.052 136.517 152.842 137.044 153.238C140.996 156.532 145.739 161.406 145.739 161.406C145.871 161.406 146.134 162.065 147.847 162.46C149.428 162.724 152.063 162.592 153.908 161.011C154.435 160.616 154.83 160.089 155.225 159.694L155.094 159.825C157.07 157.322 154.83 154.687 154.83 154.687L145.871 144.542C145.871 144.542 144.553 143.356 145.08 142.829C145.476 142.434 146.266 143.093 146.925 143.488C150.351 145.728 154.303 149.812 158.256 153.633C159.046 154.16 162.472 156.268 166.951 153.369C169.718 151.525 170.245 149.417 170.113 147.704C169.982 145.464 168.269 143.883 168.269 143.883L156.016 131.499C156.016 131.499 154.698 130.445 155.225 129.786C155.621 129.259 156.411 130.049 156.938 130.445C160.891 133.738 171.431 143.488 171.431 143.488C171.563 143.62 175.252 146.255 179.731 143.356C181.312 142.302 182.366 140.721 182.498 139.008C182.498 135.846 180.258 134.002 180.258 134.002Z" fill="white"/>
<path d="M120.637 149.678C118.792 149.678 116.684 150.732 116.421 150.6C116.289 150.469 116.552 149.678 116.684 149.283C116.816 148.888 119.319 141.246 113.258 138.611C108.515 136.635 105.749 138.874 104.695 139.929C104.431 140.192 104.299 140.192 104.299 139.797C104.168 138.479 103.641 134.79 99.5562 133.473C93.7591 131.76 90.0701 135.712 89.1478 137.162C88.7525 133.868 85.9857 131.365 82.5602 131.365C78.8711 131.365 75.8408 134.395 75.8408 138.084C75.8408 141.773 78.8711 144.803 82.5602 144.803C84.4047 144.803 85.9857 144.145 87.1715 142.959V143.222C86.908 144.803 86.381 150.864 92.7051 153.367C95.2084 154.29 97.4482 153.631 99.161 152.313C99.688 151.918 99.8197 152.05 99.688 152.577C99.4245 154.158 99.688 157.452 104.431 159.296C107.988 160.745 110.096 159.296 111.414 157.979C112.073 157.452 112.204 157.583 112.204 158.374C112.336 162.985 116.157 166.542 120.637 166.542C125.248 166.542 129.069 162.722 129.069 158.11C129.069 153.367 125.248 149.678 120.637 149.678Z" fill="white"/>
<path d="M120.637 165.915C116.42 165.915 112.995 162.621 112.863 158.405C112.863 158.01 112.863 157.088 112.073 157.088C111.677 157.088 111.414 157.351 111.15 157.615C110.228 158.537 109.042 159.327 107.33 159.327C106.539 159.327 105.748 159.196 104.826 158.8C100.347 156.956 100.347 153.925 100.478 152.74C100.478 152.344 100.478 152.081 100.347 151.817L100.083 151.554H99.5561C99.2926 151.554 99.0291 151.686 98.7656 151.817C97.4481 152.74 96.2623 153.135 94.9448 153.135C94.286 153.135 93.4955 153.003 92.8368 152.74C86.9079 150.5 87.4349 144.966 87.6984 143.254C87.6984 142.858 87.6984 142.595 87.4349 142.463L87.0397 142.068L86.6444 142.463C85.4586 143.517 84.0094 144.176 82.4283 144.176C79.0028 144.176 76.3677 141.409 76.3677 138.115C76.3677 134.69 79.1345 132.055 82.4283 132.055C85.4586 132.055 88.0937 134.294 88.4889 137.325L88.7524 138.906L89.6747 137.456C89.8065 137.325 92.178 133.504 96.7893 133.636C97.7116 133.636 98.5021 133.767 99.4244 134.031C102.982 135.085 103.64 138.379 103.772 139.828C103.904 140.618 104.431 140.618 104.563 140.618C104.826 140.618 105.09 140.355 105.221 140.223C105.88 139.564 107.33 138.379 109.701 138.379C110.755 138.379 111.941 138.642 113.127 139.169C118.924 141.673 116.289 148.919 116.289 149.051C115.762 150.236 115.762 150.763 116.289 151.159L116.552 151.29H116.684C116.947 151.29 117.211 151.159 117.738 151.027C118.528 150.763 119.714 150.368 120.768 150.368C125.116 150.368 128.673 153.925 128.673 158.273C128.542 162.358 124.984 165.915 120.637 165.915ZM181.506 130.737C172.02 122.437 150.149 103.333 144.22 98.9848C140.795 96.4815 138.555 95.0322 136.447 94.5052C135.525 94.2417 134.207 93.9782 132.626 93.9782C131.177 93.9782 129.464 94.2417 127.751 94.7687C123.93 95.9545 120.109 98.9848 116.42 102.015L116.289 102.147C112.863 104.914 109.306 107.68 106.539 108.339C105.353 108.603 104.167 108.734 102.982 108.734C99.9514 108.734 97.3163 107.812 96.2623 106.626C96.1306 106.363 96.2623 106.099 96.6576 105.572V105.441L104.958 96.4815C111.546 89.8939 117.606 83.8332 131.835 83.438H132.494C141.322 83.438 150.149 87.3906 151.203 87.9176C159.503 92.0019 168.067 93.9782 176.631 93.9782C185.59 93.9782 194.813 91.7384 204.563 87.2588C203.509 86.3365 202.323 85.4143 201.137 84.6238C192.573 88.3128 184.405 90.1574 176.631 90.1574C168.594 90.1574 160.557 88.1811 152.784 84.492C152.389 84.2285 142.639 79.7489 132.494 79.7489H131.704C119.714 80.0124 112.995 84.2285 108.515 87.9176C104.167 88.0493 100.347 89.1033 96.9211 90.0256C93.8908 90.8161 91.2557 91.6066 88.7524 91.6066C87.6984 91.6066 85.8539 91.4749 85.7221 91.4749C82.8236 91.3431 68.0673 87.7858 56.4731 83.3062C55.2874 84.0968 54.1016 85.019 53.0476 85.9413C65.3005 90.9479 80.1885 94.7687 84.7999 95.1639C86.1174 95.2957 87.4349 95.4274 88.8842 95.4274C92.0462 95.4274 95.0766 94.5052 98.1069 93.7147C99.8196 93.1877 101.796 92.6607 103.904 92.2654C103.377 92.7924 102.85 93.3194 102.191 93.8464L93.759 103.069C93.1003 103.728 91.651 105.572 92.5733 107.812C92.9685 108.734 93.759 109.525 94.8131 110.315C96.7893 111.633 100.478 112.555 103.772 112.555C105.09 112.555 106.276 112.423 107.33 112.16C110.887 111.369 114.576 108.339 118.528 105.309C121.691 102.806 126.17 99.6435 129.596 98.7213C130.518 98.4578 131.704 98.326 132.626 98.326H133.416C135.656 98.5895 137.896 99.38 141.717 102.279C148.7 107.549 179.53 134.426 179.793 134.69C179.793 134.69 181.77 136.402 181.638 139.169C181.506 140.75 180.716 142.2 179.135 143.122C177.817 143.912 176.499 144.439 175.05 144.439C172.942 144.439 171.625 143.517 171.493 143.385C171.361 143.254 160.821 133.636 157 130.342C156.341 129.815 155.814 129.42 155.156 129.42C154.892 129.42 154.497 129.551 154.365 129.815C153.706 130.605 154.497 131.659 155.287 132.318L167.672 144.703C167.672 144.703 169.253 146.152 169.385 147.997C169.517 150.105 168.463 151.817 166.486 153.135C165.037 154.057 163.588 154.584 162.138 154.584C160.294 154.584 158.976 153.662 158.581 153.53L156.868 151.817C153.575 148.655 150.281 145.362 147.909 143.254C147.25 142.727 146.723 142.331 146.065 142.331C145.801 142.331 145.538 142.463 145.274 142.595C145.011 142.858 144.747 143.517 145.538 144.439C145.801 144.835 146.196 145.098 146.196 145.098L155.156 155.243C155.287 155.375 157 157.483 155.419 159.591H154.892L154.102 160.381C152.521 161.699 150.544 161.831 149.754 161.831C149.359 161.831 148.963 161.831 148.568 161.699C147.646 161.567 147.119 161.304 146.855 160.908L146.723 160.777C146.196 160.25 141.717 155.638 137.896 152.476C137.369 152.081 136.842 151.554 136.183 151.554C135.92 151.554 135.656 151.686 135.393 151.949C134.602 152.74 135.788 153.925 136.183 154.452L143.825 162.885C143.825 163.016 143.693 163.148 143.561 163.412C143.298 163.807 142.376 164.729 139.609 165.124H138.555C135.656 165.124 132.626 163.675 131.045 162.885C131.704 161.304 132.099 159.723 132.099 158.01C132.099 151.686 126.961 146.547 120.637 146.547H120.241C120.505 143.649 119.978 138.247 114.444 135.744C112.863 135.085 111.282 134.69 109.701 134.69C108.515 134.69 107.33 134.953 106.144 135.348C104.958 133.109 103.113 131.396 100.478 130.605C99.0291 130.078 97.7116 129.947 96.3941 129.947C94.0225 129.947 91.9145 130.605 89.9382 132.055C88.0937 129.815 85.3269 128.366 82.4283 128.366C79.925 128.366 77.4217 129.42 75.5772 131.132C73.2057 129.288 63.7195 123.227 38.2913 117.562C37.1055 117.298 34.207 116.508 32.4942 115.981C32.2307 117.298 31.9672 118.748 31.8354 120.197C31.8354 120.197 36.4468 121.383 37.369 121.514C63.3242 127.312 71.8881 133.24 73.3374 134.426C72.8104 135.612 72.5469 136.929 72.5469 138.115C72.5469 143.517 76.8947 147.865 82.2966 147.865C82.9553 147.865 83.4823 147.865 84.0094 147.733C84.7999 151.686 87.4349 154.716 91.3875 156.165C92.5733 156.561 93.759 156.824 94.8131 156.824C95.6036 156.824 96.2623 156.692 97.0528 156.561C97.8434 158.405 99.4244 160.777 103.113 162.226C104.431 162.753 105.617 163.016 106.934 163.016C107.988 163.016 108.911 162.885 109.833 162.489C111.546 166.705 115.762 169.604 120.373 169.604C123.403 169.604 126.434 168.418 128.542 166.178C130.386 167.232 134.339 169.077 138.291 169.077C138.818 169.077 139.345 169.077 139.741 168.945C143.693 168.418 145.538 166.969 146.328 165.783C146.46 165.52 146.592 165.388 146.723 165.124C147.646 165.388 148.7 165.651 149.886 165.651C151.994 165.651 154.102 164.861 156.21 163.412C158.186 161.962 159.635 159.854 159.899 158.01V157.878C160.689 157.878 161.48 158.01 162.138 158.01C164.378 158.01 166.486 157.351 168.594 156.034C172.547 153.398 173.337 149.973 173.206 147.733C173.864 147.865 174.655 147.997 175.314 147.997C177.422 147.997 179.398 147.338 181.374 146.152C183.878 144.571 185.327 142.2 185.59 139.301C185.722 137.325 185.327 135.48 184.273 133.767C190.992 130.869 206.275 125.335 224.194 121.251C224.062 119.802 223.93 118.484 223.667 117.167C201.796 121.91 185.59 128.893 181.506 130.737Z" fill="#2D3277"/>
</g>
<defs>
<clipPath id="clip0_350_92">
<rect width="256" height="256" fill="white"/>
</clipPath>
</defs>
</svg>
