<svg width="256" height="256" viewBox="0 0 256 256" fill="none" xmlns="http://www.w3.org/2000/svg">
<g clip-path="url(#clip0_392_506)">
<rect width="256" height="256" rx="60" fill="white"/>
<path d="M127 29C182.228 29 227 73.7722 227 129C227 184.228 182.228 229 127 229C71.7722 229 27 184.228 27 129C27 73.7722 71.7722 29 127 29ZM127 136.856L152.478 162.333H101.522L127 136.856ZM160.333 103.522V154.478L134.856 129L160.333 103.522ZM93.6667 154.478V103.522L119.144 129L93.6667 154.478ZM167.978 173.033C168.666 172.755 169.291 172.341 169.816 171.816C170.341 171.291 170.755 170.666 171.033 169.978L171.006 170.05C171.295 169.366 171.444 168.631 171.444 167.889V90.1111C171.444 85.1667 165.461 82.6833 161.961 86.1833L127 121.144L92.0389 86.1833C88.5389 82.6833 82.5556 85.1611 82.5556 90.1111V167.889C82.5556 169.362 83.1409 170.775 84.1827 171.817C85.2246 172.859 86.6377 173.444 88.1111 173.444H165.889C166.656 173.444 167.389 173.289 168.056 173.006L167.978 173.033Z" fill="#31303A"/>
</g>
<defs>
<clipPath id="clip0_392_506">
<rect width="256" height="256" fill="white"/>
</clipPath>
</defs>
</svg>
