<svg width="256" height="256" viewBox="0 0 256 256" fill="none" xmlns="http://www.w3.org/2000/svg">
<g clip-path="url(#clip0_392_500)">
<path d="M196 0H60C26.8629 0 0 26.8629 0 60V196C0 229.137 26.8629 256 60 256H196C229.137 256 256 229.137 256 196V60C256 26.8629 229.137 0 196 0Z" fill="white"/>
<path d="M128 28C183.228 28 228 72.7722 228 128C228 183.228 183.228 228 128 228C72.7722 228 28 183.228 28 128C28 72.7722 72.7722 28 128 28ZM128 135.856L153.478 161.333H102.522L128 135.856ZM161.333 102.522V153.478L135.856 128L161.333 102.522ZM94.6667 153.478V102.522L120.144 128L94.6667 153.478ZM168.978 172.033C169.666 171.755 170.291 171.341 170.816 170.816C171.341 170.291 171.755 169.666 172.033 168.978L172.006 169.05C172.295 168.366 172.444 167.631 172.444 166.889V89.1111C172.444 84.1667 166.461 81.6833 162.961 85.1833L128 120.144L93.0389 85.1833C89.5389 81.6833 83.5556 84.1611 83.5556 89.1111V166.889C83.5556 168.362 84.1409 169.775 85.1827 170.817C86.2246 171.859 87.6377 172.444 89.1111 172.444H166.889C167.656 172.444 168.389 172.289 169.056 172.006L168.978 172.033Z" fill="#31303A"/>
</g>
<defs>
<clipPath id="clip0_392_500">
<rect width="256" height="256" fill="white"/>
</clipPath>
</defs>
</svg>
