<svg width="256" height="256" viewBox="0 0 256 256" fill="none" xmlns="http://www.w3.org/2000/svg">
<g clip-path="url(#clip0_248_6699)">
<rect width="256" height="256" rx="60" fill="white"/>
<path d="M128 228C183.229 228 228 183.229 228 128C228 72.7715 183.229 28 128 28C72.7715 28 28 72.7715 28 128C28 183.229 72.7715 228 128 228Z" fill="#69B53F"/>
<path d="M128 212.375C174.599 212.375 212.375 174.599 212.375 128C212.375 81.401 174.599 43.625 128 43.625C81.401 43.625 43.625 81.401 43.625 128C43.625 174.599 81.401 212.375 128 212.375Z" fill="white"/>
<path d="M73.3125 77.2188V147.531C73.3907 164.797 87.297 178.703 104.562 178.782H151.438C168.703 178.703 182.609 164.797 182.688 147.531V108.469C182.609 95.5782 172.141 85.1094 159.25 85.0312C153.469 85.0312 147.922 87.2187 143.625 91.2031C139.328 87.2969 133.782 85.1094 128 85.0312C115.11 85.1094 104.641 95.5782 104.562 108.469V147.531H120.187V108.469C120.187 104.171 123.703 100.656 128 100.656C132.297 100.656 135.813 104.171 135.813 108.469V147.531H151.438V108.469C151.438 104.171 154.953 100.656 159.25 100.656C163.547 100.656 167.063 104.171 167.063 108.469V147.531C167.141 156.125 160.187 163.078 151.672 163.157C151.594 163.157 151.515 163.157 151.438 163.157H104.562C95.9688 163.234 89.0157 156.281 88.9375 147.766C88.9375 147.688 88.9375 147.609 88.9375 147.531V77.2188H73.3125Z" fill="#69B53F"/>
</g>
<defs>
<clipPath id="clip0_248_6699">
<rect width="256" height="256" fill="white"/>
</clipPath>
</defs>
</svg>
