<svg width="256" height="256" viewBox="0 0 256 256" fill="none" xmlns="http://www.w3.org/2000/svg">
<g clip-path="url(#clip0_248_6562)">
<rect width="256" height="256" rx="60" fill="white"/>
<path d="M52.4039 56C49.4838 56 46.7023 56.4964 44.0605 57.4887C39.3328 59.1899 35.4391 62.2382 32.38 66.6327C29.4599 70.8856 28 75.6346 28 80.8798V174.021C28 180.825 30.3636 186.708 35.0915 191.67C39.9582 196.49 45.7293 198.9 52.4039 198.9C59.2176 198.9 64.9879 196.49 69.7156 191.67C74.5824 186.708 77.016 180.825 77.016 174.021V157.083C77.0685 153.415 80.7748 154.377 82.648 157.083C86.1563 163.277 93.5941 168.597 102.254 168.567C110.914 168.536 118.107 164.171 121.86 157.083C123.282 155.373 127.29 152.46 127.701 157.083V174.021C127.701 180.825 130.064 186.708 134.793 191.67C139.659 196.49 145.43 198.9 152.104 198.9C158.918 198.9 164.689 196.49 169.416 191.67C174.283 186.708 176.717 180.825 176.717 174.021V80.8798C176.717 75.6346 175.187 70.8856 172.128 66.6327C169.208 62.2382 165.384 59.19 160.656 57.4887C157.876 56.4964 155.094 56 152.313 56C144.804 56 138.478 58.9775 133.332 64.9317L108.566 94.4808C108.01 94.9061 106.168 98.1575 102.253 98.1575C98.3399 98.1575 96.7063 94.9061 96.15 94.4808L71.175 64.9317C66.1691 58.9776 59.9118 56 52.4028 56H52.4039ZM206.725 56C200.884 56 195.879 58.1267 191.707 62.3798C187.674 66.4908 185.658 71.5238 185.658 77.478C185.658 83.432 187.674 88.5355 191.707 92.7882C195.879 96.8993 200.884 98.9555 206.725 98.9555C212.565 98.9555 217.571 96.8993 221.742 92.7882C225.914 88.5355 228 83.432 228 77.478C228 71.5238 225.914 66.4908 221.742 62.3798C217.571 58.127 212.565 56 206.725 56ZM206.933 103.208C201.093 103.208 196.087 105.335 191.915 109.587C187.743 113.84 185.658 118.944 185.658 124.898V177.421C185.658 183.375 187.743 188.479 191.915 192.732C196.087 196.843 201.093 198.899 206.933 198.899C212.773 198.899 217.709 196.843 221.742 192.732C225.914 188.479 228 183.375 228 177.421V124.898C228 118.944 225.914 113.84 221.742 109.587C217.709 105.335 212.773 103.208 206.933 103.208Z" fill="#86B300"/>
</g>
<defs>
<clipPath id="clip0_248_6562">
<rect width="256" height="256" fill="white"/>
</clipPath>
</defs>
</svg>
