<svg width="256" height="256" viewBox="0 0 256 256" fill="none" xmlns="http://www.w3.org/2000/svg">
<g clip-path="url(#clip0_248_1545)">
<rect width="256" height="256" rx="60" fill="#242938"/>
<path fill-rule="evenodd" clip-rule="evenodd" d="M212.223 181.789C201.346 181.487 192.907 182.601 185.835 185.577C183.798 186.394 180.53 186.394 180.261 188.958C181.35 190.033 181.481 191.793 182.436 193.284C184.066 195.99 186.926 199.634 189.508 201.526L198.212 207.746C203.517 210.987 209.501 212.881 214.669 216.126C217.662 218.019 220.653 220.452 223.647 222.482C225.171 223.563 226.095 225.324 228 225.997V225.588C227.049 224.376 226.775 222.619 225.827 221.261L221.741 217.343C217.8 212.072 212.9 207.472 207.596 203.691C203.242 200.717 193.725 196.662 191.956 191.663L191.688 191.36C194.676 191.058 198.212 190.006 201.071 189.194C205.699 187.982 209.912 188.249 214.669 187.033L221.202 185.14V183.928C218.753 181.496 216.986 178.25 214.403 175.954C207.468 170.007 199.846 164.192 191.956 159.327C187.74 156.624 182.298 154.863 177.81 152.57C176.173 151.758 173.457 151.352 172.506 150.001C170.051 147.032 168.695 143.108 166.927 139.591L155.775 116.071C153.327 110.799 151.827 105.527 148.839 100.661C134.827 77.6805 119.59 63.7587 96.1945 50.1036C91.1642 47.2647 85.1796 46.0437 78.8171 44.5591L68.6163 44.0138C66.4365 43.0685 64.2627 40.4992 62.3574 39.2812C54.6046 34.4155 34.6084 23.8719 28.8922 37.7663C25.2185 46.5527 34.3341 55.2027 37.4284 59.6656C39.7454 62.774 42.7331 66.2886 44.3703 69.8031C45.2849 72.0997 45.5897 74.5356 46.544 76.9686C48.7176 82.9159 50.7603 89.542 53.6169 95.0867C55.1412 97.9256 56.7417 100.903 58.6472 103.47C59.7355 104.984 61.641 105.633 62.0464 108.066C60.141 110.771 60.01 114.822 58.9215 118.207C54.0223 133.482 55.9277 152.407 62.8634 163.653C65.0433 167.031 70.1803 174.469 77.1495 171.628C83.2712 169.194 81.9054 161.49 83.6736 154.73C84.0852 153.11 83.8109 152.028 84.6249 150.943V151.247L90.2039 162.466C94.4202 169.089 101.768 175.984 107.886 180.583C111.148 183.017 113.733 187.21 117.812 188.694V188.286H117.545C116.727 187.073 115.501 186.528 114.413 185.582C111.966 183.15 109.246 180.174 107.34 177.472C101.63 169.903 96.6 161.52 92.1093 152.87C89.9295 148.68 88.0241 144.083 86.262 139.893C85.4389 138.27 85.4389 135.833 84.0822 135.028C82.0395 137.997 79.0519 140.572 77.5489 144.22C74.9636 150.031 74.6953 157.197 73.7442 164.632C73.1954 164.768 73.4393 164.632 73.1954 164.934C68.848 163.857 67.3481 159.39 65.7171 155.609C61.6379 146.011 60.955 130.601 64.4914 119.516C65.4426 116.677 69.5279 107.754 67.8969 105.051C67.0736 102.482 64.3603 100.998 62.8604 98.9678C61.0922 96.3989 59.1929 93.1566 57.9673 90.3177C54.7052 82.7432 53.0742 74.3659 49.5347 66.7946C47.8975 63.28 45.0441 59.6291 42.7301 56.3874C40.1449 52.7365 37.2943 50.1672 35.2517 45.8437C34.5719 44.3288 33.6206 41.9232 34.7091 40.2992C34.9773 39.2177 35.5261 38.7843 36.6084 38.542C38.3766 37.0271 43.413 38.948 45.1812 39.7539C50.2115 41.7838 54.4277 43.6745 58.6441 46.5102C60.5495 47.8616 62.5922 50.4308 65.0402 51.1095H67.8999C72.2533 52.0548 77.1464 51.4125 81.2225 52.6243C88.4326 54.927 94.9597 58.3021 100.813 61.956C118.63 73.1752 133.325 89.127 143.25 108.19C144.881 111.299 145.561 114.138 147.061 117.382C149.921 124.009 153.458 130.766 156.308 137.258C159.168 143.611 161.887 150.104 165.967 155.376C168.009 158.214 176.167 159.699 179.838 161.187C182.56 162.399 186.773 163.49 189.228 164.974C193.849 167.813 198.475 171.058 202.825 174.167C204.998 175.784 211.803 179.166 212.208 181.862L212.223 181.789ZM73.5094 64.3192C71.6301 64.3027 69.7566 64.5299 67.9364 64.9949V65.2979H68.2047C69.2931 67.4611 71.1985 68.9487 72.5582 70.8424L75.6892 77.3321L75.9574 77.0291C77.8629 75.6778 78.8171 73.5146 78.8171 70.2727C78.0001 69.3275 77.866 68.3791 77.1861 67.4338C76.3691 66.0826 74.6009 65.4039 73.5094 64.3253V64.3192Z" fill="white"/>
</g>
<defs>
<clipPath id="clip0_248_1545">
<rect width="256" height="256" fill="white"/>
</clipPath>
</defs>
</svg>
