<svg width="256" height="256" viewBox="0 0 256 256" fill="none" xmlns="http://www.w3.org/2000/svg">
<g clip-path="url(#clip0_248_1542)">
<path d="M196 0H60C26.8629 0 0 26.8629 0 60V196C0 229.137 26.8629 256 60 256H196C229.137 256 256 229.137 256 196V60C256 26.8629 229.137 0 196 0Z" fill="#086590"/>
<path fill-rule="evenodd" clip-rule="evenodd" d="M212.223 183.789C201.346 183.487 192.907 184.601 185.835 187.577C183.798 188.394 180.53 188.394 180.261 190.958C181.35 192.033 181.481 193.793 182.436 195.284C184.066 197.99 186.926 201.634 189.508 203.526L198.212 209.746C203.517 212.987 209.501 214.881 214.669 218.126C217.662 220.019 220.653 222.452 223.647 224.482C225.171 225.563 226.095 227.324 228 227.997V227.588C227.049 226.376 226.775 224.619 225.827 223.261L221.741 219.343C217.8 214.072 212.9 209.472 207.596 205.691C203.242 202.717 193.725 198.662 191.956 193.663L191.688 193.36C194.676 193.058 198.212 192.006 201.071 191.194C205.699 189.982 209.912 190.249 214.669 189.033L221.202 187.14V185.928C218.753 183.496 216.986 180.25 214.403 177.954C207.468 172.007 199.846 166.192 191.956 161.327C187.74 158.624 182.298 156.863 177.81 154.57C176.173 153.758 173.457 153.352 172.506 152.001C170.051 149.032 168.695 145.108 166.927 141.591L155.775 118.071C153.327 112.799 151.827 107.527 148.839 102.661C134.827 79.6805 119.59 65.7587 96.1945 52.1036C91.1642 49.2647 85.1796 48.0437 78.8171 46.5591L68.6163 46.0138C66.4365 45.0685 64.2627 42.4992 62.3574 41.2812C54.6046 36.4155 34.6084 25.8719 28.8922 39.7663C25.2185 48.5527 34.3341 57.2027 37.4284 61.6656C39.7454 64.774 42.7331 68.2886 44.3703 71.8031C45.2849 74.0997 45.5897 76.5356 46.544 78.9686C48.7176 84.9159 50.7603 91.542 53.6169 97.0867C55.1412 99.9256 56.7417 102.903 58.6472 105.47C59.7355 106.984 61.641 107.633 62.0464 110.066C60.141 112.771 60.01 116.822 58.9215 120.207C54.0223 135.482 55.9277 154.407 62.8634 165.653C65.0433 169.031 70.1803 176.469 77.1495 173.628C83.2712 171.194 81.9054 163.49 83.6736 156.73C84.0852 155.11 83.8109 154.028 84.6249 152.943V153.247L90.2039 164.466C94.4202 171.089 101.768 177.984 107.886 182.583C111.148 185.017 113.733 189.21 117.812 190.694V190.286H117.545C116.727 189.073 115.501 188.528 114.413 187.582C111.966 185.15 109.246 182.174 107.34 179.472C101.63 171.903 96.6 163.52 92.1093 154.87C89.9295 150.68 88.0241 146.083 86.262 141.893C85.4389 140.27 85.4389 137.833 84.0822 137.028C82.0395 139.997 79.0519 142.572 77.5489 146.22C74.9636 152.031 74.6953 159.197 73.7442 166.632C73.1954 166.768 73.4393 166.632 73.1954 166.934C68.848 165.857 67.3481 161.39 65.7171 157.609C61.6379 148.011 60.955 132.601 64.4914 121.516C65.4426 118.677 69.5279 109.754 67.8969 107.051C67.0736 104.482 64.3603 102.998 62.8604 100.968C61.0922 98.3989 59.1929 95.1566 57.9673 92.3177C54.7052 84.7432 53.0742 76.3659 49.5347 68.7946C47.8975 65.28 45.0441 61.6291 42.7301 58.3874C40.1449 54.7365 37.2943 52.1672 35.2517 47.8437C34.5719 46.3288 33.6206 43.9232 34.7091 42.2992C34.9773 41.2177 35.5261 40.7843 36.6084 40.542C38.3766 39.0271 43.413 40.948 45.1812 41.7539C50.2115 43.7838 54.4277 45.6745 58.6441 48.5102C60.5495 49.8616 62.5922 52.4308 65.0402 53.1095H67.8999C72.2533 54.0548 77.1464 53.4125 81.2225 54.6243C88.4326 56.927 94.9597 60.3021 100.813 63.956C118.63 75.1752 133.325 91.127 143.25 110.19C144.881 113.299 145.561 116.138 147.061 119.382C149.921 126.009 153.458 132.766 156.308 139.258C159.168 145.611 161.887 152.104 165.967 157.376C168.009 160.214 176.167 161.699 179.838 163.187C182.56 164.399 186.773 165.49 189.228 166.974C193.849 169.813 198.475 173.058 202.825 176.167C204.998 177.784 211.803 181.166 212.208 183.862L212.223 183.789ZM73.5094 66.3192C71.6301 66.3027 69.7566 66.5299 67.9364 66.9949V67.2979H68.2047C69.2931 69.4611 71.1985 70.9487 72.5582 72.8424L75.6892 79.3321L75.9574 79.0291C77.8629 77.6778 78.8171 75.5146 78.8171 72.2727C78.0001 71.3275 77.866 70.3791 77.1861 69.4338C76.3691 68.0826 74.6009 67.4039 73.5094 66.3253V66.3192Z" fill="white"/>
</g>
<defs>
<clipPath id="clip0_248_1542">
<rect width="256" height="256" fill="white"/>
</clipPath>
</defs>
</svg>
