<svg width="256" height="256" viewBox="0 0 256 256" fill="none" xmlns="http://www.w3.org/2000/svg">
<g clip-path="url(#clip0_248_1562)">
<rect width="256" height="256" rx="60" fill="white"/>
<path d="M28 62.4836C28 43.4391 43.4391 28 62.4836 28H193.516C212.561 28 228 43.4391 228 62.4836V173.928C228 193.628 203.066 202.178 190.978 186.628L153.172 137.995V196.966C153.172 214.106 139.278 228 122.139 228H62.4828C43.4398 228 28 212.561 28 193.516V62.4836ZM62.4836 55.5891C61.5784 55.5882 60.682 55.7658 59.8455 56.1117C59.009 56.4575 58.2488 56.9649 57.6085 57.6047C56.9682 58.2445 56.4603 59.0042 56.1138 59.8404C55.7673 60.6766 55.589 61.573 55.5891 62.4781V193.517C55.5891 197.328 58.6719 200.416 62.4781 200.416H123.172C125.078 200.416 125.584 198.872 125.584 196.966V117.888C125.584 98.1836 150.516 89.6336 162.611 105.189L200.416 153.816V62.4844C200.416 58.6727 200.772 55.5898 196.966 55.5898L62.4836 55.5891Z" fill="#00E0D9"/>
<path d="M193.516 28C212.561 28 228 43.4391 228 62.4836V173.928C228 193.628 203.067 202.178 190.978 186.628L153.172 137.995V196.966C153.172 214.106 139.278 228 122.139 228C123.053 228 123.929 227.637 124.575 226.991C125.221 226.345 125.583 225.469 125.584 224.555V117.889C125.584 98.1836 150.517 89.6336 162.611 105.189L200.416 153.816V34.8945C200.416 31.0891 197.328 28 193.516 28Z" fill="#63F655"/>
</g>
<defs>
<clipPath id="clip0_248_1562">
<rect width="256" height="256" fill="white"/>
</clipPath>
</defs>
</svg>
