<svg width="256" height="256" viewBox="0 0 256 256" fill="none" xmlns="http://www.w3.org/2000/svg">
<g clip-path="url(#clip0_248_2455)">
<path d="M196 0H60C26.8629 0 0 26.8629 0 60V196C0 229.137 26.8629 256 60 256H196C229.137 256 256 229.137 256 196V60C256 26.8629 229.137 0 196 0Z" fill="#009639"/>
<path d="M38.0051 59.6027C38.0051 105.454 38.0051 151.31 38.0051 197.171C37.9466 199.71 38.3948 202.236 39.3236 204.6C40.2524 206.965 41.6432 209.12 43.4145 210.941C46.81 214.296 51.2527 216.384 56.0019 216.859C60.751 217.334 65.5194 216.166 69.5118 213.551C72.1842 211.735 74.372 209.293 75.8845 206.438C77.3971 203.583 78.1885 200.402 78.1898 197.171C78.1898 163.979 78.1264 130.787 78.1898 97.5957C108.451 133.828 138.775 170.009 169.163 206.14C173.385 210.417 178.613 213.565 184.368 215.296C190.123 217.027 196.22 217.285 202.101 216.047C206.253 215.229 210.034 213.1 212.887 209.974C215.74 206.847 217.514 202.888 217.949 198.678C218.017 151.88 218.017 105.087 217.949 58.2978C217.513 53.3033 215.221 48.6537 211.525 45.2664C207.829 41.879 202.997 40 197.984 40C192.97 40 188.139 41.879 184.443 45.2664C180.747 48.6537 178.454 53.3033 178.018 58.2978C178.018 92.0215 177.815 125.707 178.018 159.418C148.298 124.377 118.945 89.0317 89.3381 53.8638C85.4349 48.8588 80.2674 44.9853 74.3685 42.6427C68.4696 40.3 62.0526 39.573 55.7791 40.5365C51.0266 41.0655 46.6209 43.2795 43.3603 46.7771C40.0996 50.2748 38.1998 54.8248 38.0051 59.6027Z" fill="white"/>
</g>
<defs>
<clipPath id="clip0_248_2455">
<rect width="256" height="256" fill="white"/>
</clipPath>
</defs>
</svg>
