<svg width="256" height="256" viewBox="0 0 256 256" fill="none" xmlns="http://www.w3.org/2000/svg">
<g clip-path="url(#clip0_248_2463)">
<rect width="256" height="256" rx="60" fill="white"/>
<path d="M127.199 28H127.663C130.043 29.1334 132.361 30.3925 134.607 31.7718C160.462 46.64 186.317 61.5129 212.172 76.3906C213.172 76.9246 213.989 77.7467 214.516 78.7504C215.044 79.7542 215.257 80.8932 215.129 82.0198C215.072 113.373 215.129 144.719 215.094 176.058C214.757 177.554 213.843 178.855 212.551 179.68C185.057 195.51 157.562 211.331 130.064 227.142C129.397 227.65 128.594 227.946 127.758 227.993C126.921 228.04 126.09 227.836 125.37 227.406C97.8437 211.623 70.3433 195.812 42.869 179.973C41.9761 179.55 41.2283 178.873 40.7197 178.027C40.2112 177.18 39.9648 176.202 40.0116 175.215C40.0116 143.869 40.0116 112.525 40.0116 81.184C39.9442 80.2017 40.1713 79.2217 40.6637 78.3691C41.1562 77.5166 41.8917 76.8302 42.7762 76.3978C68.5979 61.5487 94.4195 46.69 120.241 31.8218C122.541 30.5074 124.799 29.1144 127.199 28Z" fill="#019639"/>
<path d="M75.9011 88.9921C75.9011 114.847 75.9011 140.704 75.9011 166.564C75.8681 167.996 76.1208 169.421 76.6446 170.754C77.1683 172.087 77.9525 173.303 78.9514 174.329C80.866 176.221 83.3712 177.399 86.0491 177.666C88.7271 177.934 91.4159 177.276 93.6671 175.801C95.1741 174.777 96.4077 173.4 97.2606 171.79C98.1135 170.18 98.5598 168.386 98.5605 166.564C98.5605 147.848 98.5248 129.132 98.5605 110.416C115.624 130.846 132.724 151.248 149.859 171.622C152.239 174.034 155.187 175.809 158.432 176.785C161.678 177.761 165.116 177.907 168.432 177.208C170.773 176.747 172.905 175.547 174.514 173.784C176.122 172.021 177.123 169.788 177.369 167.414C177.407 141.026 177.407 114.64 177.369 88.2563C177.123 85.44 175.83 82.8182 173.746 80.9081C171.662 78.998 168.937 77.9385 166.11 77.9385C163.283 77.9385 160.559 78.998 158.475 80.9081C156.391 82.8182 155.098 85.44 154.852 88.2563C154.852 107.273 154.738 126.267 154.852 145.276C138.093 125.517 121.541 105.587 104.847 85.756C102.646 82.9338 99.7321 80.7496 96.4058 79.4286C93.0795 78.1076 89.461 77.6977 85.9235 78.241C83.2437 78.5393 80.7594 79.7877 78.9208 81.76C77.0821 83.7323 76.0109 86.298 75.9011 88.9921Z" fill="white"/>
</g>
<defs>
<clipPath id="clip0_248_2463">
<rect width="256" height="256" fill="white"/>
</clipPath>
</defs>
</svg>
