<svg width="256" height="256" viewBox="0 0 256 256" fill="none" xmlns="http://www.w3.org/2000/svg">
<g clip-path="url(#clip0_248_5658)">
<path d="M196 0H60C26.8629 0 0 26.8629 0 60V196C0 229.137 26.8629 256 60 256H196C229.137 256 256 229.137 256 196V60C256 26.8629 229.137 0 196 0Z" fill="#F3D400"/>
<path d="M128.793 56.0002C128.793 56.0002 121.13 62.4026 113.318 68.7617C105.281 68.4918 89.5174 70.3942 80.9762 73.6781C73.108 68.4083 66.1945 62.59 66.1945 62.59C66.1945 62.59 60.2865 73.335 56.5713 79.6405C51.0615 82.7384 45.5296 86.223 40.5991 90.8331C34.8646 88.4258 28.217 85.4907 28 85.3937C35.5942 101.588 40.6995 117.803 54.5872 127.549C76.6973 90.6329 179.44 94.0353 202.008 127.34C216.592 119.297 222.265 101.995 228 86.0213C227.371 86.2403 219.567 89.0024 214.508 91.0422C211.488 87.5658 204.368 82.2206 200.321 79.6404C196.484 72.2099 190.897 62.1717 190.897 62.1717C190.897 62.1717 184.28 67.3742 176.611 73.0503C166.25 71.0284 153.718 68.5717 143.179 69.18C136.004 62.9453 128.793 56.0002 128.793 56.0002Z" fill="white"/>
<path d="M35.852 119.807C35.852 119.807 46.6157 147.36 54.0914 166.506C85.7683 210.688 166.658 213.759 201.923 167.362C210.267 147.48 221.525 119.539 221.525 119.539C212.479 133.708 197.755 143.489 188.687 148.757C182.244 152.489 167.376 154.745 167.376 154.745L128.343 133.361L89.0863 154.317C89.0863 154.317 74.4165 151.825 67.7752 148.544C54.3714 140.979 45.3563 132.042 35.852 119.807Z" fill="white"/>
</g>
<defs>
<clipPath id="clip0_248_5658">
<rect width="256" height="256" fill="white"/>
</clipPath>
</defs>
</svg>
