<svg width="256" height="256" viewBox="0 0 256 256" fill="none" xmlns="http://www.w3.org/2000/svg">
<g clip-path="url(#clip0_248_6706)">
<path d="M196 0H60C26.8629 0 0 26.8629 0 60V196C0 229.137 26.8629 256 60 256H196C229.137 256 256 229.137 256 196V60C256 26.8629 229.137 0 196 0Z" fill="#5074BD"/>
<path fill-rule="evenodd" clip-rule="evenodd" d="M89.0317 129.893L137.755 214.294L115.364 214.504L102.356 191.828L89.2549 214.383L78.1294 214.378L72.4312 204.534L91.0959 172.44L77.8463 149.383L89.0317 129.893Z" fill="white"/>
<path fill-rule="evenodd" clip-rule="evenodd" d="M106.618 95.127L57.8861 179.523L46.5085 160.236L59.642 137.633L33.559 137.565L28 127.928L33.6765 118.071L70.8029 118.188L84.1459 95.1853L106.618 95.127Z" fill="white"/>
<path fill-rule="evenodd" clip-rule="evenodd" d="M110.356 162.592L207.812 162.597L196.798 182.093L170.656 182.021L183.639 204.644L178.072 214.276L166.697 214.289L148.236 182.078L121.643 182.024L110.356 162.592Z" fill="white"/>
<path fill-rule="evenodd" clip-rule="evenodd" d="M167.079 125.611L118.355 41.21L140.747 41L153.755 63.6755L166.856 41.1212L177.981 41.1256L183.68 50.9701L165.015 83.0639L178.264 106.121L167.079 125.611Z" fill="white"/>
<path fill-rule="evenodd" clip-rule="evenodd" d="M89.0317 129.892L137.755 214.293L115.364 214.503L102.356 191.828L89.2549 214.382L78.1294 214.378L72.4312 204.533L91.0959 172.439L77.8463 149.383L89.0317 129.892Z" fill="white"/>
<path fill-rule="evenodd" clip-rule="evenodd" d="M145.553 92.7186L48.0977 92.7138L59.1115 73.2172L85.253 73.2896L72.2709 50.6668L77.8374 41.034L89.2121 41.0215L107.674 73.2326L134.266 73.2865L145.553 92.7186Z" fill="white"/>
<path fill-rule="evenodd" clip-rule="evenodd" d="M149.382 160.738L198.114 76.3418L209.491 95.6284L196.358 118.231L222.441 118.3L228 127.937L222.323 137.794L185.197 137.677L171.854 160.68L149.382 160.738Z" fill="white"/>
</g>
<defs>
<clipPath id="clip0_248_6706">
<rect width="256" height="256" fill="white"/>
</clipPath>
</defs>
</svg>
