<svg width="256" height="848" viewBox="0 0 256 848" fill="none" xmlns="http://www.w3.org/2000/svg">
<g clip-path="url(#clip0_211_3338)">
<path d="M196 0H60C26.8629 0 0 26.8629 0 60V196C0 229.137 26.8629 256 60 256H196C229.137 256 256 229.137 256 196V60C256 26.8629 229.137 0 196 0Z" fill="#81CD39"/>
<path d="M119.556 30.1339C124.516 27.295 130.975 27.2824 135.93 30.1339C160.857 44.2188 185.792 58.282 210.714 72.3754C215.403 75.0159 218.538 80.233 218.49 85.6343V170.376C218.526 176.001 215.08 181.343 210.135 183.923C185.289 197.931 160.456 211.955 135.615 225.964C130.555 228.857 123.966 228.635 119.061 225.503C111.613 221.185 104.152 216.888 96.7027 212.575C95.1802 211.667 93.4644 210.945 92.3896 209.469C93.3395 208.189 95.0387 208.029 96.4191 207.47C99.5278 206.48 102.384 204.893 105.24 203.354C105.963 202.86 106.844 203.049 107.537 203.491C113.906 207.143 120.22 210.902 126.61 214.519C127.973 215.306 129.354 214.26 130.519 213.611C154.9 199.831 179.31 186.104 203.688 172.32C204.591 171.885 205.09 170.926 205.017 169.937C205.034 141.983 205.021 114.024 205.026 86.0689C205.128 84.9464 204.479 83.9144 203.464 83.4546C178.705 69.5113 153.958 55.5468 129.204 41.5999C128.325 40.9961 127.167 40.9946 126.288 41.5954C101.532 55.5468 76.7907 69.5244 52.036 83.4667C51.0244 83.927 50.3457 84.9424 50.4661 86.0689C50.4703 114.024 50.4661 141.983 50.4661 169.941C50.3781 170.93 50.9153 171.869 51.8123 172.295C58.4182 176.04 65.0327 179.76 71.6429 183.494C75.3669 185.497 79.9391 186.689 84.042 185.153C87.6626 183.855 90.2004 180.159 90.1314 176.316C90.1656 148.524 90.1142 120.729 90.1571 92.9414C90.0669 91.7075 91.2369 90.6882 92.4365 90.8045C95.6108 90.7828 98.7887 90.7618 101.963 90.8131C103.288 90.7828 104.199 92.1115 104.036 93.3544C104.023 121.322 104.07 149.29 104.015 177.256C104.023 184.711 100.961 192.821 94.0662 196.468C85.5728 200.867 75.0748 199.935 66.6838 195.716C59.4197 192.09 52.4876 187.811 45.3524 183.927C40.394 181.361 36.9657 175.998 37.0006 170.377V85.6343C36.9486 80.1211 40.2089 74.8094 45.0425 72.2077C69.8835 58.1888 94.7204 44.1589 119.556 30.1339Z" fill="white"/>
<path d="M141.228 88.8349C152.062 88.1374 163.661 88.4219 173.41 93.7588C180.959 97.8493 185.143 106.433 185.276 114.819C185.065 115.95 183.883 116.574 182.803 116.496C179.66 116.492 176.515 116.539 173.372 116.475C172.038 116.526 171.264 115.297 171.097 114.119C170.193 110.106 168.004 106.132 164.228 104.196C158.431 101.294 151.709 101.44 145.387 101.501C140.773 101.745 135.81 102.145 131.9 104.858C128.898 106.914 127.986 111.064 129.057 114.407C130.068 116.807 132.837 117.581 135.105 118.295C148.161 121.71 161.997 121.369 174.804 125.863C180.107 127.695 185.293 131.257 187.108 136.809C189.483 144.25 188.442 153.143 183.148 159.116C178.854 164.032 172.602 166.708 166.366 168.161C158.07 170.011 149.46 170.058 141.035 169.236C133.113 168.333 124.868 166.252 118.753 160.855C113.523 156.313 110.969 149.237 111.222 142.409C111.282 141.256 112.431 140.451 113.536 140.546C116.701 140.521 119.867 140.511 123.032 140.551C124.297 140.46 125.234 141.553 125.299 142.745C125.882 146.567 127.319 150.58 130.653 152.846C137.086 156.997 145.16 156.713 152.526 156.829C158.629 156.558 165.481 156.477 170.46 152.442C173.088 150.142 173.866 146.292 173.157 142.981C172.387 140.185 169.462 138.882 166.951 138.03C154.062 133.954 140.071 135.433 127.307 130.822C122.124 128.991 117.113 125.528 115.123 120.205C112.345 112.67 113.617 103.349 119.466 97.5778C125.169 91.8365 133.401 89.626 141.228 88.8349Z" fill="white"/>
</g>
<g clip-path="url(#clip1_211_3338)">
<rect y="296" width="256" height="256" rx="60" fill="#242938"/>
<path d="M119.556 326.134C124.516 323.295 130.975 323.282 135.93 326.134C160.857 340.219 185.792 354.282 210.714 368.375C215.403 371.016 218.538 376.233 218.49 381.634V466.376C218.526 472.001 215.08 477.343 210.135 479.923C185.289 493.931 160.456 507.955 135.615 521.964C130.555 524.857 123.966 524.635 119.061 521.503C111.613 517.185 104.152 512.888 96.7027 508.575C95.1802 507.667 93.4644 506.945 92.3896 505.469C93.3395 504.189 95.0387 504.029 96.4191 503.47C99.5278 502.48 102.384 500.893 105.24 499.354C105.963 498.86 106.844 499.049 107.537 499.491C113.906 503.143 120.22 506.902 126.61 510.519C127.973 511.306 129.354 510.26 130.519 509.611C154.9 495.831 179.31 482.104 203.688 468.32C204.591 467.885 205.09 466.926 205.017 465.937C205.034 437.983 205.021 410.024 205.026 382.069C205.128 380.946 204.479 379.914 203.464 379.455C178.705 365.511 153.958 351.547 129.204 337.6C128.325 336.996 127.167 336.995 126.288 337.595C101.532 351.547 76.7907 365.524 52.036 379.467C51.0244 379.927 50.3457 380.942 50.4661 382.069C50.4703 410.024 50.4661 437.983 50.4661 465.941C50.3781 466.93 50.9153 467.869 51.8123 468.295C58.4182 472.04 65.0327 475.76 71.6429 479.494C75.3669 481.497 79.9391 482.689 84.042 481.153C87.6626 479.855 90.2004 476.159 90.1314 472.316C90.1656 444.524 90.1142 416.729 90.1571 388.941C90.0669 387.708 91.2369 386.688 92.4365 386.805C95.6108 386.783 98.7887 386.762 101.963 386.813C103.288 386.783 104.199 388.111 104.036 389.354C104.023 417.322 104.07 445.29 104.015 473.256C104.023 480.711 100.961 488.821 94.0662 492.468C85.5728 496.867 75.0748 495.935 66.6838 491.716C59.4197 488.09 52.4876 483.811 45.3524 479.927C40.394 477.361 36.9657 471.998 37.0006 466.377V381.634C36.9486 376.121 40.2089 370.809 45.0425 368.208C69.8835 354.189 94.7204 340.159 119.556 326.134Z" fill="#81CD39"/>
<path d="M141.228 384.835C152.062 384.137 163.661 384.422 173.41 389.759C180.959 393.849 185.143 402.433 185.276 410.819C185.065 411.95 183.883 412.574 182.803 412.496C179.66 412.492 176.515 412.539 173.372 412.475C172.038 412.526 171.264 411.297 171.097 410.119C170.193 406.106 168.004 402.132 164.228 400.196C158.431 397.294 151.709 397.44 145.387 397.501C140.773 397.745 135.81 398.145 131.9 400.858C128.898 402.914 127.986 407.064 129.057 410.407C130.068 412.807 132.837 413.581 135.105 414.295C148.161 417.71 161.997 417.369 174.804 421.863C180.107 423.695 185.293 427.257 187.108 432.809C189.483 440.25 188.442 449.143 183.148 455.116C178.854 460.032 172.602 462.708 166.366 464.161C158.07 466.011 149.46 466.058 141.035 465.236C133.113 464.333 124.868 462.252 118.753 456.855C113.523 452.313 110.969 445.237 111.222 438.409C111.282 437.255 112.431 436.451 113.536 436.546C116.701 436.52 119.867 436.511 123.032 436.551C124.297 436.46 125.234 437.553 125.299 438.745C125.882 442.567 127.319 446.58 130.653 448.846C137.086 452.997 145.16 452.712 152.526 452.828C158.629 452.558 165.481 452.477 170.46 448.442C173.088 446.141 173.866 442.292 173.157 438.981C172.387 436.185 169.462 434.882 166.951 434.03C154.062 429.953 140.071 431.433 127.307 426.822C122.124 424.991 117.113 421.528 115.123 416.205C112.345 408.67 113.617 399.349 119.466 393.578C125.169 387.836 133.401 385.626 141.228 384.835Z" fill="#81CD39"/>
</g>
<g clip-path="url(#clip2_211_3338)">
<rect y="592" width="256" height="256" rx="60" fill="white"/>
<path d="M119.556 622.134C124.516 619.295 130.975 619.282 135.93 622.134C160.857 636.219 185.792 650.282 210.714 664.375C215.403 667.016 218.538 672.233 218.49 677.634V762.376C218.526 768.001 215.08 773.343 210.135 775.923C185.289 789.931 160.456 803.955 135.615 817.964C130.555 820.857 123.966 820.635 119.061 817.503C111.613 813.185 104.152 808.888 96.7027 804.575C95.1802 803.667 93.4644 802.945 92.3896 801.469C93.3395 800.189 95.0387 800.029 96.4191 799.47C99.5278 798.48 102.384 796.893 105.24 795.354C105.963 794.86 106.844 795.049 107.537 795.491C113.906 799.143 120.22 802.902 126.61 806.519C127.973 807.306 129.354 806.26 130.519 805.611C154.9 791.831 179.31 778.104 203.688 764.32C204.591 763.885 205.09 762.926 205.017 761.937C205.034 733.983 205.021 706.024 205.026 678.069C205.128 676.946 204.479 675.914 203.464 675.455C178.705 661.511 153.958 647.547 129.204 633.6C128.325 632.996 127.167 632.995 126.288 633.595C101.532 647.547 76.7907 661.524 52.036 675.467C51.0244 675.927 50.3457 676.942 50.4661 678.069C50.4703 706.024 50.4661 733.983 50.4661 761.941C50.3781 762.93 50.9153 763.869 51.8123 764.295C58.4182 768.04 65.0327 771.76 71.6429 775.494C75.3669 777.497 79.9391 778.689 84.042 777.153C87.6626 775.855 90.2004 772.159 90.1314 768.316C90.1656 740.524 90.1142 712.729 90.1571 684.941C90.0669 683.708 91.2369 682.688 92.4365 682.805C95.6108 682.783 98.7887 682.762 101.963 682.813C103.288 682.783 104.199 684.111 104.036 685.354C104.023 713.322 104.07 741.29 104.015 769.256C104.023 776.711 100.961 784.821 94.0662 788.468C85.5728 792.867 75.0748 791.935 66.6838 787.716C59.4197 784.09 52.4876 779.811 45.3524 775.927C40.394 773.361 36.9657 767.998 37.0006 762.377V677.634C36.9486 672.121 40.2089 666.809 45.0425 664.208C69.8835 650.189 94.7204 636.159 119.556 622.134Z" fill="#81CD39"/>
<path d="M141.228 680.835C152.062 680.137 163.661 680.422 173.41 685.759C180.959 689.849 185.143 698.433 185.276 706.819C185.065 707.95 183.883 708.574 182.803 708.496C179.66 708.492 176.515 708.539 173.372 708.475C172.038 708.526 171.264 707.297 171.097 706.119C170.193 702.106 168.004 698.132 164.228 696.196C158.431 693.294 151.709 693.44 145.387 693.501C140.773 693.745 135.81 694.145 131.9 696.858C128.898 698.914 127.986 703.064 129.057 706.407C130.068 708.807 132.837 709.581 135.105 710.295C148.161 713.71 161.997 713.369 174.804 717.863C180.107 719.695 185.293 723.257 187.108 728.809C189.483 736.25 188.442 745.143 183.148 751.116C178.854 756.032 172.602 758.708 166.366 760.161C158.07 762.011 149.46 762.058 141.035 761.236C133.113 760.333 124.868 758.252 118.753 752.855C113.523 748.313 110.969 741.237 111.222 734.409C111.282 733.255 112.431 732.451 113.536 732.546C116.701 732.52 119.867 732.511 123.032 732.551C124.297 732.46 125.234 733.553 125.299 734.745C125.882 738.567 127.319 742.58 130.653 744.846C137.086 748.997 145.16 748.712 152.526 748.828C158.629 748.558 165.481 748.477 170.46 744.442C173.088 742.141 173.866 738.292 173.157 734.981C172.387 732.185 169.462 730.882 166.951 730.03C154.062 725.953 140.071 727.433 127.307 722.822C122.124 720.991 117.113 717.528 115.123 712.205C112.345 704.67 113.617 695.349 119.466 689.578C125.169 683.836 133.401 681.626 141.228 680.835Z" fill="#81CD39"/>
</g>
<defs>
<clipPath id="clip0_211_3338">
<rect width="256" height="256" fill="white"/>
</clipPath>
<clipPath id="clip1_211_3338">
<rect width="256" height="256" fill="white" transform="translate(0 296)"/>
</clipPath>
<clipPath id="clip2_211_3338">
<rect width="256" height="256" fill="white" transform="translate(0 592)"/>
</clipPath>
</defs>
</svg>
