<svg width="256" height="256" viewBox="0 0 256 256" fill="none" xmlns="http://www.w3.org/2000/svg">
<g clip-path="url(#clip0_248_5037)">
<rect width="256" height="256" rx="60" fill="white"/>
<path d="M44.0338 35.6282L154.697 27.4544C168.291 26.2884 171.783 27.0744 180.331 33.2882L215.656 58.1738C221.482 62.4537 223.422 63.6196 223.422 68.2795V204.763C223.422 213.317 220.316 218.376 209.442 219.149L80.9329 226.933C72.7731 227.318 68.8872 226.152 64.6133 220.707L38.5999 186.879C33.934 180.654 32 175.993 32 170.545V49.2279C32 42.2341 35.106 36.4022 44.0338 35.6282Z" fill="white"/>
<path fill-rule="evenodd" clip-rule="evenodd" d="M154.697 27.4563L44.0338 35.6302C35.106 36.4022 32 42.236 32 49.2279V170.545C32 175.991 33.934 180.651 38.5999 186.879L64.6133 220.704C68.8872 226.15 72.7731 227.318 80.9329 226.93L209.444 219.15C220.31 218.376 223.423 213.317 223.423 204.765V68.2816C223.423 63.8616 221.678 62.5876 216.538 58.8157L180.331 33.2882C171.785 27.0744 168.291 26.2884 154.697 27.4544V27.4563ZM83.8389 66.0475C73.3451 66.7536 70.9651 66.9136 65.0054 62.0676L49.8536 50.0159C48.3136 48.4559 49.0876 46.51 52.9676 46.122L159.352 38.3481C168.285 37.5681 172.938 40.6821 176.431 43.4021L194.677 56.6218C195.456 57.0157 197.397 59.3417 195.063 59.3417L85.1989 65.9555L83.8389 66.0475ZM71.6052 203.598V87.7351C71.6052 82.6752 73.1591 80.3413 77.8111 79.9493L203.996 72.5615C208.276 72.1754 210.21 74.8954 210.21 79.9473V195.039C210.21 200.099 209.431 204.379 202.444 204.765L81.693 211.765C74.7071 212.15 71.6072 209.825 71.6072 203.598H71.6052ZM190.802 93.947C191.577 97.4475 190.802 100.947 187.303 101.347L181.483 102.501V188.046C176.429 190.766 171.777 192.319 167.89 192.319C161.675 192.319 160.123 190.372 155.469 184.545L117.411 124.666V182.599L129.451 185.326C129.451 185.326 129.451 192.325 119.736 192.325L92.9567 193.879C92.1768 192.319 92.9567 188.433 95.6707 187.659L102.665 185.719V109.12L92.9587 108.335C92.1787 104.835 94.1187 99.7811 99.5586 99.3891L128.292 97.4555L167.891 158.108V104.448L157.797 103.288C157.018 99.0029 160.123 95.8886 164.003 95.509L190.802 93.947Z" fill="black"/>
</g>
<defs>
<clipPath id="clip0_248_5037">
<rect width="256" height="256" fill="white"/>
</clipPath>
</defs>
</svg>
