<svg width="256" height="256" viewBox="0 0 256 256" fill="none" xmlns="http://www.w3.org/2000/svg">
<g clip-path="url(#clip0_248_5032)">
<rect width="256" height="256" rx="60" fill="#242938"/>
<path d="M40.0338 35.6282L150.697 27.4544C164.291 26.2884 167.783 27.0744 176.331 33.2882L211.656 58.1738C217.482 62.4537 219.422 63.6196 219.422 68.2795V204.763C219.422 213.317 216.316 218.376 205.442 219.149L76.9329 226.933C68.7731 227.318 64.8872 226.152 60.6133 220.707L34.5999 186.879C29.934 180.654 28 175.993 28 170.545V49.2279C28 42.2341 31.106 36.4022 40.0338 35.6282Z" fill="white"/>
<path fill-rule="evenodd" clip-rule="evenodd" d="M150.697 27.4563L40.0338 35.6302C31.106 36.4022 28 42.236 28 49.2279V170.545C28 175.991 29.934 180.651 34.5999 186.879L60.6133 220.704C64.8872 226.15 68.7731 227.318 76.9329 226.93L205.444 219.15C216.31 218.376 219.423 213.317 219.423 204.765V68.2816C219.423 63.8616 217.678 62.5876 212.538 58.8157L176.331 33.2882C167.785 27.0744 164.291 26.2884 150.697 27.4544V27.4563ZM79.8389 66.0475C69.3451 66.7536 66.9651 66.9136 61.0054 62.0676L45.8536 50.0159C44.3136 48.4559 45.0876 46.51 48.9676 46.122L155.352 38.3481C164.285 37.5681 168.938 40.6821 172.431 43.4021L190.677 56.6218C191.456 57.0157 193.397 59.3417 191.063 59.3417L81.1989 65.9555L79.8389 66.0475ZM67.6052 203.598V87.7351C67.6052 82.6752 69.1591 80.3413 73.8111 79.9493L199.996 72.5615C204.276 72.1754 206.21 74.8954 206.21 79.9473V195.039C206.21 200.099 205.431 204.379 198.444 204.765L77.693 211.765C70.7071 212.15 67.6072 209.825 67.6072 203.598H67.6052ZM186.802 93.947C187.577 97.4475 186.802 100.947 183.303 101.347L177.483 102.501V188.046C172.429 190.766 167.777 192.319 163.89 192.319C157.675 192.319 156.123 190.372 151.469 184.545L113.411 124.666V182.599L125.451 185.326C125.451 185.326 125.451 192.325 115.736 192.325L88.9567 193.879C88.1768 192.319 88.9567 188.433 91.6707 187.659L98.6648 185.719V109.12L88.9587 108.335C88.1787 104.835 90.1187 99.7811 95.5586 99.3891L124.292 97.4555L163.891 158.108V104.448L153.797 103.288C153.018 99.0029 156.123 95.8886 160.003 95.509L186.802 93.947Z" fill="black"/>
</g>
<defs>
<clipPath id="clip0_248_5032">
<rect width="256" height="256" fill="white"/>
</clipPath>
</defs>
</svg>
