<svg width="256" height="256" viewBox="0 0 256 256" fill="none" xmlns="http://www.w3.org/2000/svg">
<g clip-path="url(#clip0_248_5027)">
<path d="M196 0H60C26.8629 0 0 26.8629 0 60V196C0 229.137 26.8629 256 60 256H196C229.137 256 256 229.137 256 196V60C256 26.8629 229.137 0 196 0Z" fill="white"/>
<path d="M44.0338 36.6282L154.697 28.4544C168.291 27.2884 171.783 28.0744 180.331 34.2882L215.656 59.1738C221.482 63.4537 223.422 64.6196 223.422 69.2795V205.763C223.422 214.317 220.316 219.376 209.442 220.149L80.9329 227.933C72.7731 228.318 68.8872 227.152 64.6133 221.707L38.5999 187.879C33.934 181.654 32 176.993 32 171.545V50.2279C32 43.2341 35.106 37.4022 44.0338 36.6282Z" fill="white"/>
<path fill-rule="evenodd" clip-rule="evenodd" d="M154.697 28.4563L44.0338 36.6302C35.106 37.4022 32 43.236 32 50.2279V171.545C32 176.991 33.934 181.651 38.5999 187.879L64.6133 221.704C68.8872 227.15 72.7731 228.318 80.9329 227.93L209.444 220.15C220.31 219.376 223.423 214.317 223.423 205.765V69.2816C223.423 64.8616 221.678 63.5876 216.538 59.8157L180.331 34.2882C171.785 28.0744 168.291 27.2884 154.697 28.4544V28.4563ZM83.8389 67.0475C73.3451 67.7536 70.9651 67.9136 65.0054 63.0676L49.8536 51.0159C48.3136 49.4559 49.0876 47.51 52.9676 47.122L159.352 39.3481C168.285 38.5681 172.938 41.6821 176.431 44.4021L194.677 57.6218C195.456 58.0157 197.397 60.3417 195.063 60.3417L85.1989 66.9555L83.8389 67.0475ZM71.6052 204.598V88.7351C71.6052 83.6752 73.1591 81.3413 77.8111 80.9493L203.996 73.5615C208.276 73.1754 210.21 75.8954 210.21 80.9473V196.039C210.21 201.099 209.431 205.379 202.444 205.765L81.693 212.765C74.7071 213.15 71.6072 210.825 71.6072 204.598H71.6052ZM190.802 94.947C191.577 98.4475 190.802 101.947 187.303 102.347L181.483 103.501V189.046C176.429 191.766 171.777 193.319 167.89 193.319C161.675 193.319 160.123 191.372 155.469 185.545L117.411 125.666V183.599L129.451 186.326C129.451 186.326 129.451 193.325 119.736 193.325L92.9567 194.879C92.1768 193.319 92.9567 189.433 95.6707 188.659L102.665 186.719V110.12L92.9587 109.335C92.1787 105.835 94.1187 100.781 99.5586 100.389L128.292 98.4555L167.891 159.108V105.448L157.797 104.288C157.018 100.003 160.123 96.8886 164.003 96.509L190.802 94.947Z" fill="black"/>
</g>
<defs>
<clipPath id="clip0_248_5027">
<rect width="256" height="256" fill="white"/>
</clipPath>
</defs>
</svg>
