<svg width="256" height="256" viewBox="0 0 256 256" fill="none" xmlns="http://www.w3.org/2000/svg">
<g clip-path="url(#clip0_248_3684)">
<path d="M196 0H60C26.8629 0 0 26.8629 0 60V196C0 229.137 26.8629 256 60 256H196C229.137 256 256 229.137 256 196V60C256 26.8629 229.137 0 196 0Z" fill="#CB0000"/>
<path d="M28 90H228V155.306H128V166.19H83.5555V155.306H28V90ZM39.1111 144.422H61.3333V111.769H72.4445V144.422H83.5555V100.884H39.1111V144.422ZM94.6667 100.884V155.306H116.889V144.422H139.111V100.884H94.6667ZM116.889 111.769H128V133.537H116.889V111.769ZM150.222 100.884V144.422H172.445V111.769H183.555V144.422H194.667V111.769H205.778V144.422H216.889V100.884H150.222Z" fill="black"/>
<path d="M39.1113 144.421H61.3335V111.768H72.4447V144.421H83.5558V100.884H39.1113V144.421Z" fill="white"/>
<path d="M94.6667 100.884V155.305H116.889V144.421H139.112V100.884H94.6667ZM128 133.537H116.889V111.768H128V133.537Z" fill="white"/>
<path d="M150.222 100.884V144.421H172.445V111.768H183.555V144.421H194.667V111.768H205.778V144.421H216.889V100.884H150.222Z" fill="white"/>
</g>
<defs>
<clipPath id="clip0_248_3684">
<rect width="256" height="256" fill="white"/>
</clipPath>
</defs>
</svg>
