<svg width="256" height="256" viewBox="0 0 256 256" fill="none" xmlns="http://www.w3.org/2000/svg">
<g clip-path="url(#clip0_381_1223)">
<rect width="256" height="256" rx="60" fill="white"/>
<path d="M120.948 143.28V139.325H125.575V114.779H120.948V106.859L127.953 106.932L134.955 107.004L140.465 117.231C143.495 122.858 146.281 128.014 146.657 128.688L147.339 129.915L147.345 122.345L147.353 114.779H142.726V106.867H160.964V114.779H156.337V147.247L147.245 147.098L141.704 136.871C138.657 131.247 135.931 126.213 135.645 125.686L135.126 124.733L135.116 132.029L135.102 139.325H139.186V147.237H120.948V143.28Z" fill="#231F20"/>
<path d="M170.491 143.28V139.325H176.757L176.687 127.121L176.617 114.914L174.37 114.833L172.123 114.757V122.144H163.949L164.094 107.004L181.855 106.934L199.618 106.861V122.144H191.722V114.779H187.095V139.325H193.084V147.237H170.491V143.28Z" fill="#231F20"/>
<path d="M209.145 143.281V139.326H215.133V114.78H210.507V122.145H202.611V106.868H238V122.145H230.104V114.78H225.477V139.326H231.466V147.238H209.145V143.281Z" fill="#231F20"/>
<path d="M69.5525 90C66.2413 89.998 62.4332 90.5894 59.977 91.5751L58.9511 91.9875L58.2792 91.6596C57.3397 91.205 54.9358 90.5834 52.9463 90.2816C50.5303 89.9155 46.9073 89.9457 44.5698 90.3581C34.9943 92.0358 26.3261 99.0142 21.8562 108.628C17.2315 118.575 16.7245 131.382 20.5628 141.333C23.4998 148.949 28.7844 155.431 35.8835 160.12C42.1176 164.242 49.6854 166.795 56.7222 167.155C64.1492 167.535 71.035 166.044 77.8545 162.582C81.9925 160.48 85.3057 158.09 88.5545 154.864C91.9642 151.476 94.0704 148.553 96.1022 144.397C97.8906 140.74 98.9809 137.262 99.6568 133.015C100.101 130.231 100.057 123.17 99.5783 120.084C98.8622 115.482 97.7678 111.925 95.8568 108.008C91.1415 98.3443 82.4612 91.6878 72.6303 90.2072C71.7049 90.0664 70.6568 90 69.5525 90ZM49.4862 99.505L48.4462 100.662C46.2133 103.142 44.3324 106.369 43.3205 109.459C40.8824 116.896 42.4415 124.347 47.4082 129C52.6466 133.91 60.1601 134.98 66.6959 131.754C73.5456 128.37 77.07 120.647 75.513 112.426C74.7405 108.342 72.4271 103.697 69.7838 100.909C69.1843 100.276 68.6955 99.7002 68.6955 99.6298C68.6955 99.5614 69.4358 99.5473 70.341 99.5996C74.4569 99.839 78.6049 101.909 82.1917 105.514C86.2431 109.579 88.645 114.429 89.852 120.969C90.2604 123.18 90.2584 129.416 89.846 131.677C88.7476 137.712 86.5267 142.482 82.7951 146.811C77.7258 152.697 70.4175 156.469 62.393 157.35C52.0793 158.479 41.4819 154.282 34.9742 146.491C30.6451 141.307 28.3619 135.469 27.8831 128.37C27.0946 116.654 32.6327 105.747 41.6167 101.322C43.9462 100.173 45.5655 99.7243 47.8045 99.5996L49.4862 99.505ZM59.0577 102.13C59.5163 102.13 62.3145 104.977 63.256 106.399C63.6664 107.019 64.286 108.105 64.642 108.813C67.8888 115.303 66.0844 122.553 60.9004 123.838C58.2128 124.504 55.7666 123.828 54.0205 121.941C52.4856 120.279 51.8318 118.352 51.8258 115.486C51.8218 112.858 52.2925 110.988 53.6081 108.411C54.0386 107.57 54.7447 106.409 55.1812 105.83C56.2514 104.407 58.6372 102.13 59.0577 102.13Z" fill="#0067B3"/>
</g>
<defs>
<clipPath id="clip0_381_1223">
<rect width="256" height="256" fill="white"/>
</clipPath>
</defs>
</svg>
