<svg width="256" height="256" viewBox="0 0 256 256" fill="none" xmlns="http://www.w3.org/2000/svg">
<g clip-path="url(#clip0_381_1212)">
<rect width="256" height="256" rx="60" fill="#242938"/>
<path d="M120.948 142.28V138.325H125.575V113.779H120.948V105.859L127.953 105.932L134.955 106.004L140.465 116.231C143.495 121.858 146.281 127.014 146.657 127.688L147.339 128.915L147.345 121.345L147.353 113.779H142.726V105.867H160.964V113.779H156.337V146.247L147.245 146.098L141.704 135.871C138.657 130.247 135.931 125.213 135.645 124.686L135.126 123.733L135.116 131.029L135.102 138.325H139.186V146.237H120.948V142.28Z" fill="white"/>
<path d="M170.491 142.28V138.325H176.757L176.687 126.121L176.617 113.914L174.37 113.833L172.123 113.757V121.144H163.949L164.094 106.004L181.855 105.934L199.618 105.861V121.144H191.722V113.779H187.095V138.325H193.084V146.237H170.491V142.28Z" fill="white"/>
<path d="M209.145 142.281V138.326H215.133V113.78H210.507V121.145H202.611V105.868H238V121.145H230.104V113.78H225.477V138.326H231.466V146.238H209.145V142.281Z" fill="white"/>
<path d="M69.5525 89C66.2413 88.998 62.4332 89.5894 59.977 90.5751L58.9511 90.9875L58.2792 90.6596C57.3397 90.205 54.9358 89.5834 52.9463 89.2816C50.5303 88.9155 46.9073 88.9457 44.5698 89.3581C34.9943 91.0358 26.3261 98.0142 21.8562 107.628C17.2315 117.575 16.7245 130.382 20.5628 140.333C23.4998 147.949 28.7844 154.431 35.8835 159.12C42.1176 163.242 49.6854 165.795 56.7222 166.155C64.1492 166.535 71.035 165.044 77.8545 161.582C81.9925 159.48 85.3057 157.09 88.5545 153.864C91.9642 150.476 94.0704 147.553 96.1022 143.397C97.8906 139.74 98.9809 136.262 99.6568 132.015C100.101 129.231 100.057 122.17 99.5783 119.084C98.8622 114.482 97.7678 110.925 95.8568 107.008C91.1415 97.3443 82.4612 90.6878 72.6303 89.2072C71.7049 89.0664 70.6568 89 69.5525 89ZM49.4862 98.505L48.4462 99.6617C46.2133 102.142 44.3324 105.369 43.3205 108.459C40.8824 115.896 42.4415 123.347 47.4082 128C52.6466 132.91 60.1601 133.98 66.6959 130.754C73.5456 127.37 77.07 119.647 75.513 111.426C74.7405 107.342 72.4271 102.697 69.7838 99.9092C69.1843 99.2755 68.6955 98.7002 68.6955 98.6298C68.6955 98.5614 69.4358 98.5473 70.341 98.5996C74.4569 98.839 78.6049 100.909 82.1917 104.514C86.2431 108.579 88.645 113.429 89.852 119.969C90.2604 122.18 90.2584 128.416 89.846 130.677C88.7476 136.712 86.5267 141.482 82.7951 145.811C77.7258 151.697 70.4175 155.469 62.393 156.35C52.0793 157.479 41.4819 153.282 34.9742 145.491C30.6451 140.307 28.3619 134.469 27.8831 127.37C27.0946 115.654 32.6327 104.747 41.6167 100.322C43.9462 99.1729 45.5655 98.7243 47.8045 98.5996L49.4862 98.505ZM59.0577 101.13C59.5163 101.13 62.3145 103.977 63.256 105.399C63.6664 106.019 64.286 107.105 64.642 107.813C67.8888 114.303 66.0844 121.553 60.9004 122.838C58.2128 123.504 55.7666 122.828 54.0205 120.941C52.4856 119.279 51.8318 117.352 51.8258 114.486C51.8218 111.858 52.2925 109.988 53.6081 107.411C54.0386 106.57 54.7447 105.409 55.1812 104.83C56.2514 103.407 58.6372 101.13 59.0577 101.13Z" fill="#0067B3"/>
</g>
<defs>
<clipPath id="clip0_381_1212">
<rect width="256" height="256" fill="white"/>
</clipPath>
</defs>
</svg>
