<svg width="256" height="256" viewBox="0 0 256 256" fill="none" xmlns="http://www.w3.org/2000/svg">
<g clip-path="url(#clip0_381_1201)">
<path fill-rule="evenodd" clip-rule="evenodd" d="M256.013 203.509C256.013 232.385 232.389 256.009 203.513 256.009H52.5124C23.6368 256.009 0.0126953 232.385 0.0126953 203.509V52.5085C0.0126953 23.6329 23.6368 0.00878906 52.5124 0.00878906H203.513C232.389 0.00878906 256.013 23.6329 256.013 52.5085V203.509Z" fill="#0067B3"/>
<path d="M120.948 144.28V140.325H125.575V115.779H120.948V107.859L127.953 107.932L134.955 108.004L140.465 118.231C143.495 123.858 146.281 129.014 146.657 129.688L147.339 130.915L147.345 123.345L147.353 115.779H142.726V107.867H160.964V115.779H156.337V148.247L147.245 148.098L141.704 137.871C138.657 132.247 135.931 127.213 135.645 126.686L135.126 125.733L135.116 133.029L135.102 140.325H139.186V148.237H120.948V144.28Z" fill="white"/>
<path d="M170.491 144.28V140.325H176.757L176.687 128.121L176.617 115.914L174.37 115.833L172.123 115.757V123.144H163.949L164.094 108.004L181.855 107.934L199.618 107.861V123.144H191.722V115.779H187.095V140.325H193.084V148.237H170.491V144.28Z" fill="white"/>
<path d="M209.145 144.281V140.326H215.133V115.78H210.507V123.145H202.611V107.868H238V123.145H230.104V115.78H225.477V140.326H231.466V148.238H209.145V144.281Z" fill="white"/>
<path d="M69.5525 91C66.2413 90.998 62.4332 91.5894 59.977 92.5751L58.9511 92.9875L58.2792 92.6596C57.3397 92.205 54.9358 91.5834 52.9463 91.2816C50.5303 90.9155 46.9073 90.9457 44.5698 91.3581C34.9943 93.0358 26.3261 100.014 21.8562 109.628C17.2315 119.575 16.7245 132.382 20.5628 142.333C23.4998 149.949 28.7844 156.431 35.8835 161.12C42.1176 165.242 49.6854 167.795 56.7222 168.155C64.1492 168.535 71.035 167.044 77.8545 163.582C81.9925 161.48 85.3057 159.09 88.5545 155.864C91.9642 152.476 94.0704 149.553 96.1022 145.397C97.8906 141.74 98.9809 138.262 99.6568 134.015C100.101 131.231 100.057 124.17 99.5783 121.084C98.8622 116.482 97.7678 112.925 95.8568 109.008C91.1415 99.3443 82.4612 92.6878 72.6303 91.2072C71.7049 91.0664 70.6568 91 69.5525 91ZM49.4862 100.505L48.4462 101.662C46.2133 104.142 44.3324 107.369 43.3205 110.459C40.8824 117.896 42.4415 125.347 47.4082 130C52.6466 134.91 60.1601 135.98 66.6959 132.754C73.5456 129.37 77.07 121.647 75.513 113.426C74.7405 109.342 72.4271 104.697 69.7838 101.909C69.1843 101.276 68.6955 100.7 68.6955 100.63C68.6955 100.561 69.4358 100.547 70.341 100.6C74.4569 100.839 78.6049 102.909 82.1917 106.514C86.2431 110.579 88.645 115.429 89.852 121.969C90.2604 124.18 90.2584 130.416 89.846 132.677C88.7476 138.712 86.5267 143.482 82.7951 147.811C77.7258 153.697 70.4175 157.469 62.393 158.35C52.0793 159.479 41.4819 155.282 34.9742 147.491C30.6451 142.307 28.3619 136.469 27.8831 129.37C27.0946 117.654 32.6327 106.747 41.6167 102.322C43.9462 101.173 45.5655 100.724 47.8045 100.6L49.4862 100.505ZM59.0577 103.13C59.5163 103.13 62.3145 105.977 63.256 107.399C63.6664 108.019 64.286 109.105 64.642 109.813C67.8888 116.303 66.0844 123.553 60.9004 124.838C58.2128 125.504 55.7666 124.828 54.0205 122.941C52.4856 121.279 51.8318 119.352 51.8258 116.486C51.8218 113.858 52.2925 111.988 53.6081 109.411C54.0386 108.57 54.7447 107.409 55.1812 106.83C56.2514 105.407 58.6372 103.13 59.0577 103.13Z" fill="white"/>
</g>
<defs>
<clipPath id="clip0_381_1201">
<rect width="256" height="256" fill="white"/>
</clipPath>
</defs>
</svg>
