<svg width="256" height="256" viewBox="0 0 256 256" fill="none" xmlns="http://www.w3.org/2000/svg">
<g clip-path="url(#clip0_248_4557)">
<rect width="256" height="256" rx="60" fill="#242938"/>
<path d="M140.202 194.333H214.55C216.911 194.334 219.231 193.718 221.277 192.547C223.322 191.377 225.019 189.694 226.2 187.666C227.381 185.639 228.001 183.339 228 180.999C227.999 178.658 227.376 176.36 226.193 174.334L176.264 88.6198C175.083 86.5931 173.386 84.9099 171.342 83.7398C169.296 82.5697 166.977 81.9535 164.616 81.9535C162.255 81.9535 159.936 82.5697 157.891 83.7398C155.846 84.9099 154.149 86.5931 152.969 88.6198L140.202 110.551L115.24 67.6651C114.059 65.6387 112.361 63.9558 110.316 62.7857C108.27 61.616 105.95 61 103.589 61C101.228 61 98.9081 61.616 96.8629 62.7857C94.8175 63.9558 93.1191 65.6387 91.9381 67.6651L29.8058 174.334C28.6239 176.36 28.0011 178.658 28 180.999C27.999 183.339 28.6198 185.639 29.8 187.666C30.9802 189.694 32.6783 191.377 34.7234 192.547C36.7683 193.718 39.0883 194.334 41.4497 194.333H88.1196C106.611 194.333 120.248 186.283 129.63 170.578L152.411 131.477L164.613 110.551L201.232 173.408H152.411L140.202 194.333ZM87.3587 173.386L54.7891 173.378L103.611 89.5747L127.971 131.477L111.661 159.483C105.429 169.674 98.3503 173.386 87.3587 173.386Z" fill="#00DC82"/>
</g>
<defs>
<clipPath id="clip0_248_4557">
<rect width="256" height="256" fill="white"/>
</clipPath>
</defs>
</svg>
