<svg width="256" height="256" viewBox="0 0 256 256" fill="none" xmlns="http://www.w3.org/2000/svg">
<g clip-path="url(#clip0_248_5055)">
<rect width="256" height="256" rx="60" fill="#242938"/>
<path d="M177.829 213.695C176.618 222.835 167.674 229.943 158.808 227.482C146.153 224.007 131.506 218.577 118.344 217.561L98.1504 216C94.8937 215.773 91.8348 214.355 89.5575 212.016L54.7957 176.199C52.931 174.291 51.6841 171.866 51.2173 169.24C50.7506 166.614 51.0856 163.907 52.1788 161.475C52.1788 161.475 73.6609 114.214 74.4811 111.753C75.2622 109.292 78.2307 87.8495 79.9492 76.3664C80.4179 73.2808 81.9022 70.5076 84.2456 68.4375L125.374 31.4104C126.73 30.1923 128.321 29.2655 130.05 28.6874C131.779 28.1094 133.609 27.8923 135.425 28.0498C137.24 28.2072 139.005 28.7357 140.608 29.6027C142.212 30.4696 143.621 31.6566 144.747 33.0899L179.274 76.9913C181.195 79.5043 182.238 82.5778 182.243 85.7404C182.243 94.0597 182.945 111.128 187.555 122.143C192.046 132.806 200.249 144.405 204.545 150.069C205.363 151.129 205.847 152.407 205.938 153.741C206.028 155.077 205.72 156.409 205.053 157.568C199.479 166.922 193.643 176.117 187.555 185.144C181.696 193.854 179.001 204.634 177.79 213.695H177.829Z" fill="#6C31E3"/>
<path d="M93.307 214.75C109.478 181.941 109.009 158.428 102.134 141.711C95.8067 126.244 84.0502 116.519 74.7935 110.464C74.5591 111.363 74.2857 112.183 73.9341 113.003L52.1787 161.514C51.0806 163.943 50.7392 166.647 51.1989 169.273C51.6587 171.9 52.8984 174.326 54.7566 176.238L89.5574 212.055C90.6371 213.179 91.9064 214.105 93.307 214.789V214.75Z" fill="url(#paint0_radial_248_5055)"/>
<path d="M137.248 148.155C141.622 148.624 145.919 149.562 150.059 151.124C163.339 156.084 175.446 167.216 185.406 188.737C186.109 187.526 186.812 186.315 187.594 185.144C193.675 176.112 199.511 166.917 205.092 157.568C205.775 156.413 206.092 155.08 206.001 153.741C205.91 152.402 205.416 151.122 204.584 150.069C200.288 144.367 192.086 132.806 187.594 122.143C182.985 111.128 182.321 94.0211 182.282 85.7407C182.282 82.577 181.267 79.4914 179.313 76.9917L144.747 33.0902C144.559 32.8624 144.364 32.641 144.161 32.4263C146.436 39.2369 146.707 46.5574 144.942 53.5177C143.269 59.1375 140.962 64.5492 138.067 69.6488L135.256 75.195C130.747 83.7791 128.162 93.2421 127.679 102.926C127.21 114.409 129.553 128.86 137.248 148.155Z" fill="url(#paint1_radial_248_5055)"/>
<path d="M137.248 148.156C129.553 128.861 127.171 114.409 127.679 102.887C128.162 93.2033 130.747 83.7403 135.256 75.1561C136.154 73.2813 137.131 71.4455 138.067 69.6489C140.841 64.2198 143.536 59.1032 144.942 53.4788C146.707 46.5186 146.436 39.198 144.161 32.3873C141.791 29.776 138.483 28.2109 134.961 28.0351C131.439 27.8594 127.992 29.0875 125.374 31.4499L84.2065 68.4772C81.9104 70.546 80.4053 73.3491 79.9491 76.406L74.9497 109.606L74.7544 110.504C84.0503 116.558 95.8459 126.283 102.134 141.75C103.434 144.883 104.453 148.125 105.181 151.437C116.117 148.78 126.937 147.141 137.248 148.195V148.156Z" fill="url(#paint2_radial_248_5055)"/>
<path d="M158.808 227.522C167.674 229.943 176.618 222.835 177.829 213.695C178.837 204.989 181.404 196.535 185.406 188.737C175.407 167.255 163.339 156.085 150.098 151.124C136.037 145.891 120.726 147.61 105.181 151.398C108.657 167.177 106.587 187.839 93.3071 214.75C94.8695 215.453 96.4709 215.922 98.1894 216.039C98.1894 216.039 107.72 216.82 119.125 217.641C130.451 218.422 147.402 224.319 158.808 227.483V227.522Z" fill="url(#paint3_radial_248_5055)"/>
<path fill-rule="evenodd" clip-rule="evenodd" d="M127.757 102.145C127.249 113.55 128.694 126.674 136.389 145.93L133.967 145.734C127.054 125.619 125.569 115.269 126.077 103.707C126.671 93.8681 129.388 84.274 134.045 75.5856C134.982 73.6718 137.17 70.0784 138.146 68.2427C140.919 62.8917 142.794 60.0405 144.396 55.1191C146.622 48.284 146.153 45.003 145.88 41.8003C147.676 53.4787 140.919 63.6729 135.842 73.9843C131.172 82.6744 128.416 92.2629 127.757 102.106V102.145Z" fill="url(#paint4_radial_248_5055)"/>
<path fill-rule="evenodd" clip-rule="evenodd" d="M104.399 142.531C105.337 144.641 106.196 146.359 106.743 148.976L104.673 149.405C103.853 146.36 103.188 144.172 102.017 141.594C95.0646 125.19 83.9331 116.753 74.7935 110.542C85.8078 116.48 97.1347 125.776 104.36 142.531H104.399Z" fill="url(#paint5_radial_248_5055)"/>
<path fill-rule="evenodd" clip-rule="evenodd" d="M106.86 151.007C110.688 168.974 106.392 191.705 93.7366 213.851C104.321 191.9 109.438 170.849 105.181 151.358L106.86 151.007Z" fill="url(#paint6_radial_248_5055)"/>
<path fill-rule="evenodd" clip-rule="evenodd" d="M150.566 149.405C171.306 157.178 179.313 174.247 185.289 188.464C177.868 173.583 167.635 157.1 149.824 150.968C136.232 146.359 124.788 146.906 105.181 151.358L104.751 149.405C125.53 144.68 136.389 144.133 150.566 149.405Z" fill="url(#paint7_radial_248_5055)"/>
</g>
<defs>
<radialGradient id="paint0_radial_248_5055" cx="0" cy="0" r="1" gradientUnits="userSpaceOnUse" gradientTransform="translate(91.5494 211.508) rotate(-104.693) scale(90.8521 60.5351)">
<stop stop-color="white" stop-opacity="0.4"/>
<stop offset="1" stop-opacity="0.1"/>
</radialGradient>
<radialGradient id="paint1_radial_248_5055" cx="0" cy="0" r="1" gradientUnits="userSpaceOnUse" gradientTransform="translate(169.119 174.091) rotate(-82.4846) scale(149.314 110.314)">
<stop stop-color="white" stop-opacity="0.6"/>
<stop offset="1" stop-color="white" stop-opacity="0.1"/>
</radialGradient>
<radialGradient id="paint2_radial_248_5055" cx="0" cy="0" r="1" gradientUnits="userSpaceOnUse" gradientTransform="translate(97.0176 147.844) rotate(-77.7949) scale(127.477 87.1033)">
<stop stop-color="white" stop-opacity="0.8"/>
<stop offset="1" stop-color="white" stop-opacity="0.4"/>
</radialGradient>
<radialGradient id="paint3_radial_248_5055" cx="0" cy="0" r="1" gradientUnits="userSpaceOnUse" gradientTransform="translate(159.472 227.991) rotate(-120.496) scale(73.8861 84.9365)">
<stop stop-color="white" stop-opacity="0.3"/>
<stop offset="1" stop-opacity="0.3"/>
</radialGradient>
<radialGradient id="paint4_radial_248_5055" cx="0" cy="0" r="1" gradientUnits="userSpaceOnUse" gradientTransform="translate(149.59 78.0072) rotate(102.236) scale(66.3438 44.7382)">
<stop stop-color="white" stop-opacity="0"/>
<stop offset="1" stop-color="white" stop-opacity="0.2"/>
</radialGradient>
<radialGradient id="paint5_radial_248_5055" cx="0" cy="0" r="1" gradientUnits="userSpaceOnUse" gradientTransform="translate(71.8641 113.941) rotate(45.3237) scale(48.8852 104.125)">
<stop stop-color="white" stop-opacity="0.2"/>
<stop offset="1" stop-color="white" stop-opacity="0.4"/>
</radialGradient>
<radialGradient id="paint6_radial_248_5055" cx="0" cy="0" r="1" gradientUnits="userSpaceOnUse" gradientTransform="translate(112.484 138.859) rotate(86.0397) scale(50.8972 108.083)">
<stop stop-color="white" stop-opacity="0.2"/>
<stop offset="1" stop-color="white" stop-opacity="0.3"/>
</radialGradient>
<radialGradient id="paint7_radial_248_5055" cx="0" cy="0" r="1" gradientUnits="userSpaceOnUse" gradientTransform="translate(184.742 183.856) rotate(-152.289) scale(87.3543 274.815)">
<stop stop-color="white" stop-opacity="0.2"/>
<stop offset="0.5" stop-color="white" stop-opacity="0.2"/>
<stop offset="1" stop-color="white" stop-opacity="0.3"/>
</radialGradient>
<clipPath id="clip0_248_5055">
<rect width="256" height="256" fill="white"/>
</clipPath>
</defs>
</svg>
