<svg width="256" height="256" viewBox="0 0 256 256" fill="none" xmlns="http://www.w3.org/2000/svg">
<g clip-path="url(#clip0_248_5043)">
<path d="M196 0H60C26.8629 0 0 26.8629 0 60V196C0 229.137 26.8629 256 60 256H196C229.137 256 256 229.137 256 196V60C256 26.8629 229.137 0 196 0Z" fill="#222222"/>
<path d="M176.829 213.695C175.618 222.835 166.674 229.943 157.808 227.482C145.153 224.007 130.506 218.577 117.344 217.561L97.1504 216C93.8937 215.773 90.8348 214.355 88.5575 212.016L53.7957 176.199C51.931 174.291 50.6841 171.866 50.2173 169.24C49.7506 166.614 50.0856 163.907 51.1788 161.475C51.1788 161.475 72.6609 114.214 73.4811 111.753C74.2622 109.292 77.2307 87.8495 78.9492 76.3664C79.4179 73.2808 80.9022 70.5076 83.2456 68.4375L124.374 31.4104C125.73 30.1923 127.321 29.2655 129.05 28.6874C130.779 28.1094 132.609 27.8923 134.425 28.0498C136.24 28.2072 138.005 28.7357 139.608 29.6027C141.212 30.4696 142.621 31.6566 143.747 33.0899L178.274 76.9913C180.195 79.5043 181.238 82.5778 181.243 85.7404C181.243 94.0597 181.945 111.128 186.555 122.143C191.046 132.806 199.249 144.405 203.545 150.069C204.363 151.129 204.847 152.407 204.938 153.741C205.028 155.077 204.72 156.409 204.053 157.568C198.479 166.922 192.643 176.117 186.555 185.144C180.696 193.854 178.001 204.634 176.79 213.695H176.829Z" fill="#6C31E3"/>
<path d="M92.307 214.75C108.478 181.941 108.009 158.428 101.134 141.711C94.8067 126.244 83.0502 116.519 73.7935 110.464C73.5591 111.363 73.2857 112.183 72.9341 113.003L51.1787 161.514C50.0806 163.943 49.7392 166.647 50.1989 169.273C50.6587 171.9 51.8984 174.326 53.7566 176.238L88.5574 212.055C89.6371 213.179 90.9064 214.105 92.307 214.789V214.75Z" fill="url(#paint0_radial_248_5043)"/>
<path d="M136.248 148.155C140.622 148.624 144.919 149.562 149.059 151.124C162.339 156.084 174.446 167.216 184.406 188.737C185.109 187.526 185.812 186.315 186.594 185.144C192.675 176.112 198.511 166.917 204.092 157.568C204.775 156.413 205.092 155.08 205.001 153.741C204.91 152.402 204.416 151.122 203.584 150.069C199.288 144.367 191.086 132.806 186.594 122.143C181.985 111.128 181.321 94.0211 181.282 85.7407C181.282 82.577 180.267 79.4914 178.313 76.9917L143.747 33.0902C143.559 32.8624 143.364 32.641 143.161 32.4263C145.436 39.2369 145.707 46.5574 143.942 53.5177C142.269 59.1375 139.962 64.5492 137.067 69.6488L134.256 75.195C129.747 83.7791 127.162 93.2421 126.679 102.926C126.21 114.409 128.553 128.86 136.248 148.155Z" fill="url(#paint1_radial_248_5043)"/>
<path d="M136.248 148.156C128.553 128.861 126.171 114.409 126.679 102.887C127.162 93.2033 129.747 83.7403 134.256 75.1561C135.154 73.2813 136.131 71.4455 137.067 69.6489C139.841 64.2198 142.536 59.1032 143.942 53.4788C145.707 46.5186 145.436 39.198 143.161 32.3873C140.791 29.776 137.483 28.2109 133.961 28.0351C130.439 27.8594 126.992 29.0875 124.374 31.4499L83.2065 68.4772C80.9104 70.546 79.4053 73.3491 78.9491 76.406L73.9497 109.606L73.7544 110.504C83.0503 116.558 94.8459 126.283 101.134 141.75C102.434 144.883 103.453 148.125 104.181 151.437C115.117 148.78 125.937 147.141 136.248 148.195V148.156Z" fill="url(#paint2_radial_248_5043)"/>
<path d="M157.808 227.522C166.674 229.943 175.618 222.835 176.829 213.695C177.837 204.989 180.404 196.535 184.406 188.737C174.407 167.255 162.339 156.085 149.098 151.124C135.037 145.891 119.726 147.61 104.181 151.398C107.657 167.177 105.587 187.839 92.3071 214.75C93.8695 215.453 95.4709 215.922 97.1894 216.039C97.1894 216.039 106.72 216.82 118.125 217.641C129.451 218.422 146.402 224.319 157.808 227.483V227.522Z" fill="url(#paint3_radial_248_5043)"/>
<path fill-rule="evenodd" clip-rule="evenodd" d="M126.757 102.145C126.249 113.55 127.694 126.674 135.389 145.93L132.967 145.734C126.054 125.619 124.569 115.269 125.077 103.707C125.671 93.8681 128.388 84.274 133.045 75.5856C133.982 73.6718 136.17 70.0784 137.146 68.2427C139.919 62.8917 141.794 60.0405 143.396 55.1191C145.622 48.284 145.153 45.003 144.88 41.8003C146.676 53.4787 139.919 63.6729 134.842 73.9843C130.172 82.6744 127.416 92.2629 126.757 102.106V102.145Z" fill="url(#paint4_radial_248_5043)"/>
<path fill-rule="evenodd" clip-rule="evenodd" d="M103.399 142.531C104.337 144.641 105.196 146.359 105.743 148.976L103.673 149.405C102.853 146.36 102.188 144.172 101.017 141.594C94.0646 125.19 82.9331 116.753 73.7935 110.542C84.8078 116.48 96.1347 125.776 103.36 142.531H103.399Z" fill="url(#paint5_radial_248_5043)"/>
<path fill-rule="evenodd" clip-rule="evenodd" d="M105.86 151.007C109.688 168.974 105.392 191.705 92.7366 213.851C103.321 191.9 108.438 170.849 104.181 151.358L105.86 151.007Z" fill="url(#paint6_radial_248_5043)"/>
<path fill-rule="evenodd" clip-rule="evenodd" d="M149.566 149.405C170.306 157.178 178.313 174.247 184.289 188.464C176.868 173.583 166.635 157.1 148.824 150.968C135.232 146.359 123.788 146.906 104.181 151.358L103.751 149.405C124.53 144.68 135.389 144.133 149.566 149.405Z" fill="url(#paint7_radial_248_5043)"/>
</g>
<defs>
<radialGradient id="paint0_radial_248_5043" cx="0" cy="0" r="1" gradientUnits="userSpaceOnUse" gradientTransform="translate(90.5494 211.508) rotate(-104.693) scale(90.8521 60.5351)">
<stop stop-color="white" stop-opacity="0.4"/>
<stop offset="1" stop-opacity="0.1"/>
</radialGradient>
<radialGradient id="paint1_radial_248_5043" cx="0" cy="0" r="1" gradientUnits="userSpaceOnUse" gradientTransform="translate(168.119 174.091) rotate(-82.4846) scale(149.314 110.314)">
<stop stop-color="white" stop-opacity="0.6"/>
<stop offset="1" stop-color="white" stop-opacity="0.1"/>
</radialGradient>
<radialGradient id="paint2_radial_248_5043" cx="0" cy="0" r="1" gradientUnits="userSpaceOnUse" gradientTransform="translate(96.0176 147.844) rotate(-77.7949) scale(127.477 87.1033)">
<stop stop-color="white" stop-opacity="0.8"/>
<stop offset="1" stop-color="white" stop-opacity="0.4"/>
</radialGradient>
<radialGradient id="paint3_radial_248_5043" cx="0" cy="0" r="1" gradientUnits="userSpaceOnUse" gradientTransform="translate(158.472 227.991) rotate(-120.496) scale(73.8861 84.9365)">
<stop stop-color="white" stop-opacity="0.3"/>
<stop offset="1" stop-opacity="0.3"/>
</radialGradient>
<radialGradient id="paint4_radial_248_5043" cx="0" cy="0" r="1" gradientUnits="userSpaceOnUse" gradientTransform="translate(148.59 78.0072) rotate(102.236) scale(66.3438 44.7382)">
<stop stop-color="white" stop-opacity="0"/>
<stop offset="1" stop-color="white" stop-opacity="0.2"/>
</radialGradient>
<radialGradient id="paint5_radial_248_5043" cx="0" cy="0" r="1" gradientUnits="userSpaceOnUse" gradientTransform="translate(70.8641 113.941) rotate(45.3237) scale(48.8852 104.125)">
<stop stop-color="white" stop-opacity="0.2"/>
<stop offset="1" stop-color="white" stop-opacity="0.4"/>
</radialGradient>
<radialGradient id="paint6_radial_248_5043" cx="0" cy="0" r="1" gradientUnits="userSpaceOnUse" gradientTransform="translate(111.484 138.859) rotate(86.0397) scale(50.8972 108.083)">
<stop stop-color="white" stop-opacity="0.2"/>
<stop offset="1" stop-color="white" stop-opacity="0.3"/>
</radialGradient>
<radialGradient id="paint7_radial_248_5043" cx="0" cy="0" r="1" gradientUnits="userSpaceOnUse" gradientTransform="translate(183.742 183.856) rotate(-152.289) scale(87.3543 274.815)">
<stop stop-color="white" stop-opacity="0.2"/>
<stop offset="0.5" stop-color="white" stop-opacity="0.2"/>
<stop offset="1" stop-color="white" stop-opacity="0.3"/>
</radialGradient>
<clipPath id="clip0_248_5043">
<rect width="256" height="256" fill="white"/>
</clipPath>
</defs>
</svg>
