<svg width="256" height="256" viewBox="0 0 256 256" fill="none" xmlns="http://www.w3.org/2000/svg">
<g clip-path="url(#clip0_248_5693)">
<rect width="256" height="256" rx="60" fill="#242938"/>
<path d="M181.125 28H74.875C48.9867 28 28 48.9867 28 74.875V181.125C28 207.013 48.9867 228 74.875 228H181.125C207.013 228 228 207.013 228 181.125V74.875C228 48.9867 207.013 28 181.125 28Z" fill="url(#paint0_linear_248_5693)"/>
<path d="M140.052 206.004C139.624 204.29 140.48 202.147 139.624 200.432C139.196 198.718 137.913 198.718 137.486 197.432C135.775 194.003 133.637 190.145 133.637 185.858C133.637 182.429 132.353 179 131.926 175.572C131.926 173.857 131.926 172.142 131.926 170.428C131.926 169.57 131.926 168.713 131.498 167.856C131.498 167.427 131.498 166.57 131.07 166.57L131.498 165.284C131.498 164.855 135.347 164.855 136.63 164.855C138.769 164.855 140.48 164.855 142.618 165.284C146.895 165.284 150.316 165.284 154.593 164.855C163.574 163.569 167.423 159.711 169.562 158.425C177.688 152.854 181.537 142.995 181.537 142.995C182.82 139.994 182.82 134.422 185.813 132.279C189.234 129.279 194.795 129.707 198.644 127.993C200.782 127.135 202.493 126.278 205.059 126.707C206.77 127.135 209.763 129.279 210.619 126.278C210.191 125.849 209.763 125.421 209.335 124.992C212.757 124.563 209.335 117.276 208.052 115.561C205.914 113.418 202.92 112.132 199.499 111.275C195.222 109.989 191.373 108.704 187.524 109.561C180.681 110.847 181.109 106.989 177.259 106.989C172.555 106.989 164.002 107.418 162.291 112.132C161.436 114.275 161.008 114.275 159.725 115.99C158.87 117.276 159.725 118.562 159.297 120.277C158.87 121.991 158.014 127.993 157.159 130.136C155.876 133.564 154.165 137.851 151.171 137.851C146.895 138.279 143.473 138.708 140.052 137.422C137.913 136.565 134.492 135.279 132.781 134.85C124.655 131.422 123.372 127.993 123.372 127.993C122.517 126.707 120.378 124.135 119.523 121.134C118.668 117.705 116.957 115.133 116.53 113.418C115.674 111.704 114.391 108.704 113.108 105.703C111.397 101.845 109.259 98.8448 107.548 97.5588C104.982 95.4156 102.844 91.9865 97.7115 92.8438C96.8562 92.8438 93.4348 93.2724 90.8687 95.4156C89.158 96.7016 88.7303 99.702 87.0195 102.274C86.1642 103.56 84.4535 107.847 83.1705 111.275C82.3151 113.847 81.8874 115.561 80.6044 116.419C79.7491 117.276 78.8937 118.133 77.6106 117.705C76.7553 117.276 75.8999 116.847 75.0446 116.419C73.7616 115.561 71.1955 110.847 69.4848 107.847C68.2017 104.846 65.208 100.559 63.4973 98.4161C60.9312 94.987 59.6482 94.1297 55.7991 94.1297C48.1009 94.1297 47.2455 98.4161 43.8241 104.846C42.1134 107.847 41.6857 112.132 38.692 115.561C37.4089 117.276 31.8491 125.421 28 126.707V185.858V185.43C28.4277 184.572 28.4277 183.715 28.8554 183.287C30.5661 180.286 33.9875 177.286 35.6982 173.857C36.5536 172.142 37.8366 170.428 38.692 168.284C39.1196 166.998 39.5473 164.427 40.4027 163.141C41.258 161.426 42.9688 160.997 44.6795 160.569C47.6732 160.14 49.8116 164.427 53.233 166.141C54.516 166.998 61.3589 169.142 63.4973 169.57C66.9187 170.428 70.3402 170.856 73.7616 171.714C75.4723 172.142 77.183 172.142 79.3213 172.571C81.0321 172.571 87.4473 173 87.4473 173.428C84.4535 175.143 82.3151 179.429 81.0321 182.858C79.7491 186.287 78.8937 190.145 77.6106 193.146C75.8999 196.575 72.4785 198.289 72.9062 202.575C72.9062 204.29 73.3339 206.004 72.9062 207.719C72.4785 209.862 71.6231 211.148 71.1955 213.292C70.3402 215.864 68.6991 225.332 67.8438 227.475L69.0156 227.609H69.4062H69.7969H70.1875L71.75 227.865H74.875C75.7303 226.15 76.7553 215.864 77.183 215.006C78.466 211.148 80.1767 208.148 82.7428 205.147C85.3088 202.147 85.3088 198.718 86.5919 195.289C88.3026 191.431 90.441 188.859 92.5794 185.43C96.4285 179.429 98.9945 171.285 106.693 169.57C107.548 169.57 112.252 173 114.391 175.143C116.957 177.714 119.523 180.286 121.234 183.715C124.227 190.145 127.221 199.575 128.077 204.29C128.505 207.29 128.932 207.29 131.07 209.862C131.926 210.72 133.637 214.149 134.492 215.435C134.92 216.721 136.202 219.721 136.63 221.436C137.058 222.293 138.341 225.293 139.196 227.865H145.612C143.045 220.579 140.907 213.292 140.052 206.004Z" fill="white"/>
</g>
<defs>
<linearGradient id="paint0_linear_248_5693" x1="127.77" y1="28.0937" x2="127.77" y2="228.813" gradientUnits="userSpaceOnUse">
<stop stop-color="#F29100"/>
<stop offset="1" stop-color="#EC670F"/>
</linearGradient>
<clipPath id="clip0_248_5693">
<rect width="256" height="256" fill="white"/>
</clipPath>
</defs>
</svg>
