<svg width="256" height="256" viewBox="0 0 256 256" fill="none" xmlns="http://www.w3.org/2000/svg">
<g clip-path="url(#clip0_292_78)">
<rect width="256" height="256" rx="60" fill="white"/>
<path d="M85.8812 185.448C80.2062 185.448 75.5791 189.866 75.5791 195.35C75.5791 199.077 77.727 202.271 80.9229 203.975L120.752 225.321C123.911 227.102 127.477 228.037 131.104 228.035C133.529 228.035 135.844 227.61 137.992 226.864L151.598 223.085V185.396C151.654 185.448 85.9354 185.448 85.8812 185.448Z" fill="url(#paint0_linear_292_78)"/>
<path d="M85.8812 185.448C80.2062 185.448 75.5791 189.866 75.5791 195.35C75.5791 199.077 77.727 202.271 80.9229 203.975L120.752 225.321C123.911 227.102 127.477 228.037 131.104 228.035C133.529 228.035 135.844 227.61 137.992 226.864L151.598 223.085V185.396C151.654 185.448 85.9354 185.448 85.8812 185.448Z" fill="url(#paint1_linear_292_78)"/>
<path d="M137.117 28.8332C135.235 28.2961 133.288 28.0274 131.331 28.0353C128.081 28.0353 124.831 28.6749 121.911 30.1645C121.306 30.4312 57.1272 65.2978 57.1272 65.2978C56.2459 65.7249 55.4188 66.2562 54.648 66.7895C54.5397 66.8416 54.4834 66.8957 54.373 66.9499C53.8772 67.3207 53.4355 67.6937 52.9417 68.0666C52.7209 68.227 52.5001 68.4416 52.3355 68.5999C52.0605 68.8645 51.7834 69.1312 51.5647 69.3978C50.7938 70.1957 49.4709 71.8978 49.4709 71.8978C47.2013 75.1245 45.9886 78.9758 46.0001 82.9207V175.546C46.0001 181.031 50.6272 185.45 56.3022 185.45C57.7334 185.45 59.0563 185.183 60.2688 184.65L78.6126 174.696C81.9168 173.1 84.5626 170.383 85.9397 167.029C86.2688 166.337 86.5438 165.487 86.7105 164.633C86.7647 164.421 86.8209 164.154 86.8209 163.942C86.8209 163.837 86.8751 163.677 86.8751 163.571C86.9313 163.196 86.9855 162.771 86.9855 162.4C86.9855 162.079 87.0418 161.812 87.0418 161.494V112.198V96.8124C87.0418 92.4999 88.9688 88.6145 92.0001 85.8999C93.4313 84.6228 95.3043 83.5041 97.5084 82.7603C99.7105 81.9603 151.825 63.7562 151.825 63.7562V33.0395L137.117 28.8332Z" fill="url(#paint2_linear_292_78)"/>
<path d="M137.117 28.8332C135.235 28.2961 133.288 28.0274 131.331 28.0353C128.081 28.0353 124.831 28.6749 121.911 30.1645C121.306 30.4312 57.1272 65.2978 57.1272 65.2978C56.2459 65.7249 55.4188 66.2562 54.648 66.7895C54.5397 66.8416 54.4834 66.8957 54.373 66.9499C53.8772 67.3207 53.4355 67.6937 52.9417 68.0666C52.7209 68.227 52.5001 68.4416 52.3355 68.5999C52.0605 68.8645 51.7834 69.1312 51.5647 69.3978C50.7938 70.1957 49.4709 71.8978 49.4709 71.8978C47.2013 75.1245 45.9886 78.9758 46.0001 82.9207V175.546C46.0001 181.031 50.6272 185.45 56.3022 185.45C57.7334 185.45 59.0563 185.183 60.2688 184.65L78.6126 174.696C81.9168 173.1 84.5626 170.383 85.9397 167.029C86.2688 166.337 86.5438 165.487 86.7105 164.633C86.7647 164.421 86.8209 164.154 86.8209 163.942C86.8209 163.837 86.8751 163.677 86.8751 163.571C86.9313 163.196 86.9855 162.771 86.9855 162.4C86.9855 162.079 87.0418 161.812 87.0418 161.494V112.198V96.8124C87.0418 92.4999 88.9688 88.6145 92.0001 85.8999C93.4313 84.6228 95.3043 83.5041 97.5084 82.7603C99.7105 81.9603 151.825 63.7562 151.825 63.7562V33.0395L137.117 28.8332Z" fill="url(#paint3_linear_292_78)"/>
<path d="M195.788 45.4314L138 29.0918C146.373 32.2335 151.604 39.3126 151.604 47.9376C151.604 47.9376 151.552 204.604 151.604 208.383C151.66 216.9 146.042 224.194 138 226.908C139.762 226.429 195.788 210.831 195.788 210.831C204.104 208.277 210.11 200.823 210.11 191.936V64.3272C210.165 55.4939 204.104 47.9855 195.788 45.4314Z" fill="url(#paint4_linear_292_78)"/>
</g>
<defs>
<linearGradient id="paint0_linear_292_78" x1="81.2958" y1="201.702" x2="224.481" y2="214.666" gradientUnits="userSpaceOnUse">
<stop stop-color="#F32B44"/>
<stop offset="0.6" stop-color="#A4070A"/>
</linearGradient>
<linearGradient id="paint1_linear_292_78" x1="178.323" y1="209.906" x2="114.756" y2="204.15" gradientUnits="userSpaceOnUse">
<stop stop-opacity="0.4"/>
<stop offset="1" stop-opacity="0"/>
</linearGradient>
<linearGradient id="paint2_linear_292_78" x1="139.204" y1="21.1353" x2="33.7063" y2="177.05" gradientUnits="userSpaceOnUse">
<stop stop-color="#800600"/>
<stop offset="0.6" stop-color="#C72127"/>
<stop offset="0.728" stop-color="#C13959"/>
<stop offset="0.847" stop-color="#BC4B81"/>
<stop offset="0.942" stop-color="#B95799"/>
<stop offset="1" stop-color="#B85BA2"/>
</linearGradient>
<linearGradient id="paint3_linear_292_78" x1="141.465" y1="18.0145" x2="119.123" y2="51.0332" gradientUnits="userSpaceOnUse">
<stop stop-opacity="0.4"/>
<stop offset="1" stop-opacity="0"/>
</linearGradient>
<linearGradient id="paint4_linear_292_78" x1="174.096" y1="17.8543" x2="174.096" y2="212.996" gradientUnits="userSpaceOnUse">
<stop stop-color="#FFB900"/>
<stop offset="0.166" stop-color="#EF8400"/>
<stop offset="0.313" stop-color="#E25C01"/>
<stop offset="0.429" stop-color="#DB4401"/>
<stop offset="0.5" stop-color="#D83B01"/>
</linearGradient>
<clipPath id="clip0_292_78">
<rect width="256" height="256" fill="white"/>
</clipPath>
</defs>
</svg>
