<svg width="256" height="256" viewBox="0 0 256 256" fill="none" xmlns="http://www.w3.org/2000/svg">
<g clip-path="url(#clip0_292_66)">
<path d="M196 0H60C26.8629 0 0 26.8629 0 60V196C0 229.137 26.8629 256 60 256H196C229.137 256 256 229.137 256 196V60C256 26.8629 229.137 0 196 0Z" fill="#E43A00"/>
<path d="M148.286 66.2539L98.4697 83.9025C95.6264 84.9002 93.1384 86.7105 91.3144 89.1091C89.4904 91.5077 88.4106 94.3889 88.2089 97.3954V165.322C88.0204 167.579 87.2626 169.751 86.0065 171.635C84.7504 173.519 83.0369 175.054 81.0263 176.096L58.863 186.357C57.7566 186.721 56.5798 186.818 55.4286 186.641C54.2774 186.463 53.1846 186.016 52.2391 185.336C51.2937 184.655 50.5225 183.761 49.9885 182.726C49.4545 181.691 49.1729 180.544 49.1665 179.379V81.1834C50.2161 77.6256 51.9879 74.3224 54.3712 71.48C56.7545 68.6377 59.6983 66.3172 63.0186 64.6634L125.404 29.4688C137.615 26.8523 146.798 31.3158 148.286 43.7314V66.2539Z" fill="white"/>
<path d="M136.743 29.3145C139.967 30.1453 142.836 31.9995 144.917 34.5989C146.998 37.1983 148.181 40.4026 148.286 43.7309V210.88C148.139 214.086 147.263 217.218 145.725 220.036C144.187 222.853 142.028 225.284 139.41 227.143L195.127 211.341C197.822 209.895 200.206 207.932 202.143 205.564C204.08 203.196 205.531 200.469 206.414 197.541V62.816C206.452 58.9791 205.19 55.2422 202.833 52.2144C200.476 49.1865 197.163 47.0462 193.434 46.1422L136.743 29.3145Z" fill="white"/>
<path d="M120.121 224.731C129.099 229.041 131.972 229.862 139.36 227.297C141.995 225.416 144.169 222.961 145.715 220.117C147.262 217.273 148.141 214.114 148.286 210.879V185.74H87.6451C79.3851 188.562 74.4599 197.386 83.6946 204.004L120.121 224.731Z" fill="white"/>
</g>
<defs>
<clipPath id="clip0_292_66">
<rect width="256" height="256" fill="white"/>
</clipPath>
</defs>
</svg>
