<svg width="256" height="256" viewBox="0 0 256 256" fill="none" xmlns="http://www.w3.org/2000/svg">
<g clip-path="url(#clip0_387_6)">
<rect width="256" height="256" rx="60" fill="#242938"/>
<path d="M177.374 27.883C177.303 28.0012 176.901 28.1194 176.499 28.1194C176.097 28.1194 175.577 28.2613 175.388 28.4505C175.175 28.6161 174.631 28.8289 174.182 28.9235C173.591 29.0181 173.449 28.9944 173.709 28.8289C174.016 28.6397 173.993 28.5924 173.614 28.5924C173.354 28.5924 172.81 28.8525 172.385 29.1836C171.959 29.5147 171.439 29.7748 171.249 29.7748C171.037 29.7748 170.871 29.8694 170.871 30.0113C170.871 30.3424 170.067 30.2951 169.712 29.9404C169.476 29.7039 169.358 29.7512 169.121 30.0822C168.932 30.3187 168.648 30.437 168.412 30.3424C167.962 30.1768 167.891 30.6261 168.341 30.7917C168.483 30.8626 168.293 30.8626 167.891 30.7917C167.253 30.6971 167.158 30.7444 167.182 31.241C167.206 31.6903 167.111 31.7849 166.567 31.714C166.071 31.6667 165.952 31.7376 166.047 32.0214C166.141 32.2342 166.047 32.3761 165.81 32.3761C165.621 32.3761 165.337 32.5889 165.196 32.8491C165.054 33.1092 164.77 33.322 164.581 33.322C164.108 33.322 160.537 36.5382 160.348 37.1294C160.253 37.3658 159.946 37.6496 159.615 37.7206C159.307 37.7915 159.118 37.957 159.189 38.0753C159.26 38.2172 159.047 38.5246 158.692 38.8084C158.361 39.0685 157.794 39.7306 157.463 40.2745C157.108 40.7948 156.801 41.1259 156.753 40.9603C156.635 40.6529 155.973 40.8185 155.973 41.1495C155.973 41.2441 156.138 41.2914 156.328 41.2205C156.564 41.1259 156.682 41.2205 156.682 41.4806C156.682 41.7407 156.564 41.8353 156.304 41.7407C156.02 41.6461 155.973 41.7171 156.091 42.0718C156.186 42.3319 156.138 42.5448 155.996 42.5448C155.855 42.5448 155.736 42.8522 155.736 43.2542C155.736 43.8218 155.642 43.9636 155.24 43.9636C154.909 43.9636 154.79 44.0819 154.861 44.2947C154.932 44.4839 154.79 44.815 154.554 45.0278C154.294 45.2643 154.152 45.5481 154.223 45.6663C154.294 45.7845 154.223 46.0447 154.057 46.2339C153.892 46.4467 153.726 46.896 153.703 47.2271C153.632 48.3858 153.608 48.4568 153.277 48.4568C152.875 48.4568 152.591 49.1662 152.52 50.4669C152.497 50.9871 152.402 51.7202 152.307 52.1222C152.236 52.5006 152.142 62.4328 152.118 74.1622L152.071 95.4928L151.527 96.0367L150.983 96.5806H128.707C111.633 96.5806 106.288 96.5097 105.792 96.2968L105.129 95.9894V91.2834C105.129 88.3984 105.035 86.5065 104.893 86.4119C104.775 86.341 104.657 85.7025 104.657 84.993C104.657 84.2836 104.562 83.6451 104.42 83.5742C104.302 83.5032 104.184 83.1248 104.184 82.7465C104.184 82.3681 104.089 81.9897 103.947 81.9188C103.829 81.8479 103.711 81.5168 103.711 81.1857C103.711 80.8783 103.616 80.429 103.498 80.1925C103.38 79.9797 103.19 79.5303 103.048 79.1993C102.103 77 101.795 76.3851 101.559 76.3142C101.393 76.2669 101.251 75.9122 101.204 75.5575C101.157 75.1791 100.92 74.6588 100.66 74.3751C100.376 74.0913 100.163 73.7366 100.163 73.5947C100.163 73.4764 99.9505 73.169 99.6904 72.9325C99.4303 72.696 99.2175 72.3886 99.2175 72.2231C99.2175 72.0812 98.8391 71.6082 98.3898 71.1589C97.9405 70.7096 97.5621 70.2603 97.5621 70.1657C97.5621 69.8346 96.2851 68.534 95.623 68.1793C95.2682 67.9901 94.748 67.6117 94.4405 67.3043C93.6602 66.5476 92.3595 65.6489 92.3595 65.8854C92.3595 65.98 92.194 65.8854 92.0284 65.6489C91.8156 65.3651 91.6501 65.3179 91.5318 65.4834C91.319 65.8145 90.9406 65.5307 91.0825 65.1523C91.1535 64.9395 90.9879 64.7503 90.6569 64.6557C90.3494 64.5611 90.0657 64.3956 89.9947 64.3246C89.6873 63.9226 86.6603 62.5983 86.3293 62.7166C86.1164 62.8112 85.9745 62.7402 85.9745 62.5274C85.9745 62.3382 85.7617 62.1727 85.4779 62.1727C85.2178 62.1727 84.7921 62.0544 84.532 61.9362C84.1536 61.7233 84.0827 61.7706 84.0827 62.1727C84.0827 62.7875 83.6097 62.7875 83.4442 62.1727C83.2787 61.5815 82.7111 61.4159 80.8902 61.5105C79.8497 61.5578 79.495 61.5105 79.5186 61.274C79.6132 60.8247 73.1336 60.872 72.7553 61.3213C72.5424 61.5815 72.0695 61.6288 70.7215 61.5342C69.0662 61.4159 68.9479 61.4159 68.404 62.0308C68.0966 62.3618 67.6709 62.6456 67.4581 62.6456C67.2689 62.6456 66.796 62.8112 66.4412 63.0003C66.0629 63.1895 65.519 63.3551 65.2352 63.3551C64.9514 63.3551 64.644 63.4733 64.573 63.5915C64.4784 63.7334 63.3906 64.3719 62.1373 65.0104C59.3232 66.453 59.0394 66.6421 58.4718 67.3043C58.2354 67.6117 57.8806 67.8482 57.6914 67.8482C57.5023 67.8482 57.3604 67.9428 57.3604 68.0847C57.3604 68.2029 57.1239 68.2975 56.8401 68.2502C56.509 68.2266 56.2962 68.3448 56.2726 68.5576C56.2253 69.2907 56.1543 69.3853 55.9415 69.0306C55.7523 68.7232 55.6577 68.7468 55.2084 69.1961L54.6881 69.7164L55.1848 69.5745C55.4685 69.5036 55.705 69.5509 55.705 69.6927C55.705 70.0238 54.9956 70.5677 54.5463 70.5677C54.3334 70.5677 54.1679 70.7333 54.1679 70.9224C54.1442 71.5136 53.7895 72.3413 53.553 72.3413C53.4348 72.3413 53.3402 72.2231 53.3402 72.0812C53.3402 71.892 53.2456 71.892 53.0328 72.0576C52.8436 72.2231 52.749 72.7197 52.7726 73.2873C52.8199 74.044 52.749 74.2332 52.4889 74.1386C52.2997 74.0676 52.1578 74.1149 52.1578 74.2568C52.1578 74.3987 51.9686 74.446 51.7085 74.3514C51.4247 74.2805 51.2119 74.3514 51.1173 74.5879C51.0463 74.8007 51.07 74.8953 51.1882 74.8244C51.6375 74.5642 51.7085 75.2027 51.2828 75.8412C51.0227 76.196 50.7153 76.7635 50.5497 77.1182C50.266 77.8277 49.9112 77.9696 49.6984 77.473C49.6275 77.3311 49.6275 77.6148 49.722 78.1115C49.8403 78.9391 49.8166 79.0101 49.4383 78.8682C49.0836 78.75 49.0599 78.7736 49.2964 79.0574C49.6511 79.4594 49.4146 80.0033 48.989 79.8378C48.8234 79.7668 48.6815 79.8378 48.6579 79.9797C48.4214 81.4931 48.2795 82.0607 48.114 82.1789C47.9957 82.2499 47.9011 82.6755 47.9011 83.1248C47.9011 83.5742 47.8066 83.9289 47.6883 83.9289C47.5701 83.9289 47.4045 84.5437 47.2863 85.2768C46.9552 87.6889 47.0735 149.812 47.4045 153.454C47.5701 155.204 47.7356 157.025 47.7593 157.474C47.8066 157.924 47.9011 158.468 47.9721 158.657C48.114 158.988 48.2559 159.768 48.5396 161.849C48.6106 162.37 48.7525 162.89 48.8707 163.008C48.989 163.15 49.0836 163.599 49.0836 164.001C49.0836 164.427 49.2018 164.853 49.32 164.924C49.4619 164.994 49.5565 165.42 49.5565 165.869C49.5565 166.319 49.6511 166.744 49.793 166.815C49.9112 166.886 50.0295 167.265 50.0295 167.619C50.0295 167.974 50.1004 168.352 50.195 168.447C50.3369 168.589 51.1409 171.285 51.2828 172.136C51.3301 172.325 51.5429 172.846 51.7558 173.295C51.9686 173.744 52.1578 174.241 52.1578 174.43C52.1578 174.596 52.2524 174.927 52.3706 175.163C53.4348 177.268 54.0496 178.663 54.0496 179.018C54.0496 179.278 54.1442 179.467 54.2625 179.467C54.3807 179.467 54.5463 179.845 54.6172 180.295C54.7118 180.744 54.8537 181.122 54.9483 181.122C55.1611 181.122 55.705 182.281 55.705 182.707C55.705 182.872 55.776 183.014 55.8942 183.014C55.9888 183.014 56.2489 183.416 56.4617 183.937C56.6746 184.433 57.0057 185.001 57.1712 185.166C57.3367 185.355 57.6914 185.97 57.9516 186.562C58.2117 187.153 58.6137 187.839 58.8266 188.075C59.063 188.335 59.2522 188.69 59.2522 188.855C59.2522 189.021 59.3705 189.163 59.4887 189.163C59.6306 189.163 59.7252 189.376 59.7252 189.636C59.7252 189.92 59.938 190.156 60.2691 190.227C60.6475 190.322 60.813 190.534 60.813 190.889C60.7893 191.267 60.9549 191.433 61.3332 191.48C61.7353 191.551 61.8299 191.669 61.7353 192.024C61.617 192.332 61.9008 192.899 62.6575 193.892C63.2487 194.673 63.7454 195.359 63.7454 195.43C63.7454 195.5 64.0291 195.879 64.3839 196.257C64.8095 196.754 65.1406 196.919 65.448 196.825C65.7318 196.754 65.8737 196.825 65.8737 197.038C65.8737 197.25 65.7554 197.44 65.5899 197.487C65.448 197.534 66.0392 198.409 66.9615 199.426C69.5155 202.287 74.4579 207.372 74.6944 207.372C74.789 207.372 74.8126 207.254 74.7417 207.135C74.6708 206.993 74.6708 206.781 74.7417 206.662C74.9545 206.331 75.6403 207.064 75.4984 207.466C75.3566 207.797 76.941 209.5 77.3666 209.5C77.4849 209.5 78.0288 209.926 78.5254 210.446C79.022 210.966 79.5659 211.392 79.7078 211.392C79.8733 211.392 80.1808 211.605 80.4172 211.865C80.6537 212.125 80.9611 212.338 81.1267 212.338C81.2686 212.338 81.6469 212.598 81.9544 212.929C82.2618 213.26 82.6402 213.52 82.8293 213.52C82.9949 213.52 83.1368 213.639 83.1368 213.78C83.1368 213.922 83.3496 213.97 83.6097 213.875C83.9881 213.757 84.059 213.804 83.9172 214.159C83.7753 214.537 83.7989 214.537 84.1773 214.253C84.6266 213.875 84.8867 214.041 85.3597 214.986C85.5489 215.341 85.8326 215.507 86.1874 215.459C86.5421 215.436 86.684 215.507 86.613 215.696C86.5184 216.027 88.1502 217.068 88.7177 217.068C88.9069 217.068 89.0488 217.186 89.0488 217.328C89.0488 217.493 89.2616 217.54 89.6163 217.446C90.042 217.351 90.1602 217.399 90.1366 217.706C90.1129 218.108 91.0589 218.699 92.9034 219.409C93.3764 219.598 93.7784 219.834 93.7784 219.905C93.7784 220 94.2277 220.213 94.7953 220.402C95.3392 220.567 96.3324 220.993 96.9709 221.324C97.633 221.655 98.7918 222.128 99.5722 222.388C100.353 222.625 101.086 222.932 101.228 223.027C101.346 223.121 101.677 223.216 101.961 223.216C102.268 223.216 102.575 223.311 102.646 223.452C102.717 223.571 103.048 223.689 103.356 223.689C103.663 223.689 103.994 223.784 104.065 223.925C104.136 224.044 104.467 224.162 104.775 224.162C105.082 224.162 105.413 224.257 105.484 224.398C105.555 224.517 105.934 224.635 106.312 224.635C106.69 224.635 107.069 224.753 107.14 224.871C107.211 225.013 107.542 225.108 107.849 225.108C108.156 225.108 108.488 225.202 108.558 225.344C108.629 225.463 109.102 225.581 109.599 225.581C110.096 225.581 110.569 225.652 110.663 225.746C110.758 225.841 111.112 225.959 111.467 226.006C111.822 226.054 112.744 226.196 113.525 226.314C119.247 227.283 121.73 227.496 128.163 227.615C131.899 227.686 133.909 227.638 134.075 227.473C134.193 227.354 135.304 227.236 136.487 227.236C137.693 227.236 138.757 227.118 138.828 227C138.899 226.858 139.608 226.763 140.365 226.763C141.122 226.763 141.808 226.669 141.879 226.55C141.95 226.456 142.73 226.29 143.605 226.196C145.686 226.006 145.993 225.936 146.183 225.746C146.277 225.652 146.703 225.581 147.128 225.581C147.554 225.581 147.98 225.463 148.051 225.344C148.122 225.202 148.453 225.108 148.76 225.108C149.068 225.108 149.399 224.99 149.47 224.871C149.541 224.753 149.99 224.635 150.439 224.635C150.888 224.635 151.243 224.517 151.243 224.398C151.243 224.257 151.574 224.162 151.953 224.162C152.355 224.162 152.662 224.044 152.662 223.925C152.662 223.784 152.97 223.689 153.348 223.689C153.75 223.689 154.128 223.571 154.199 223.452C154.27 223.311 154.578 223.216 154.861 223.216C155.145 223.216 155.926 222.956 156.564 222.625C157.226 222.317 157.936 222.034 158.148 222.034C158.361 222.034 158.621 221.939 158.692 221.797C158.763 221.679 159.023 221.561 159.236 221.561C159.449 221.561 160.466 221.159 161.53 220.638C162.571 220.142 164.037 219.432 164.794 219.078C165.55 218.723 166.141 218.297 166.141 218.108C166.141 217.919 166.26 217.824 166.402 217.895C166.685 218.084 169.027 216.973 169.452 216.476C169.618 216.287 169.902 216.122 170.067 216.122C170.256 216.122 170.398 216.027 170.398 215.909C170.398 215.791 170.658 215.625 170.989 215.554C171.32 215.459 171.581 215.294 171.581 215.176C171.581 215.034 171.699 214.939 171.841 214.939C171.983 214.939 172.55 214.608 173.118 214.23C173.851 213.733 174.111 213.402 174.016 213.142C173.898 212.835 173.969 212.787 174.395 212.929C175.01 213.118 175.624 212.693 175.435 212.196C175.341 211.912 175.435 211.865 175.884 211.983C176.287 212.078 176.594 211.96 177.02 211.534C177.327 211.179 177.658 210.919 177.776 210.919C178.249 210.919 178.911 210.044 178.77 209.642C178.651 209.335 178.722 209.24 179.053 209.287C179.692 209.382 181.324 208.341 181.182 207.939C181.111 207.75 181.205 207.608 181.418 207.608C182.009 207.608 187.661 202.477 187.661 201.956C187.661 201.815 187.779 201.696 187.898 201.696C188.181 201.696 188.702 200.538 188.631 200.065C188.584 199.852 188.702 199.781 188.986 199.899C189.246 199.994 189.6 199.804 190.05 199.331C190.428 198.953 190.735 198.527 190.735 198.433C190.735 198.315 191.067 197.936 191.469 197.534C192.32 196.73 192.84 195.784 192.698 195.359C192.627 195.146 192.722 195.075 193.006 195.122C193.266 195.169 193.55 194.98 193.715 194.649C193.857 194.365 194.212 193.869 194.519 193.538C194.803 193.23 194.968 192.876 194.898 192.757C194.827 192.639 195.039 192.355 195.347 192.142C195.678 191.93 195.891 191.646 195.796 191.504C195.725 191.386 195.938 191.055 196.269 190.795C196.6 190.534 196.884 190.18 196.884 189.99C196.884 189.825 196.955 189.636 197.073 189.588C197.428 189.423 198.066 188.004 197.924 187.649C197.83 187.389 197.924 187.271 198.256 187.271C198.61 187.271 198.989 186.751 199.864 184.953C200.502 183.7 201.07 182.612 201.141 182.541C201.212 182.47 201.377 182.163 201.543 181.832C201.685 181.501 202.181 180.437 202.654 179.467C203.127 178.498 203.505 177.504 203.505 177.268C203.505 177.055 203.624 176.866 203.742 176.866C203.884 176.866 203.978 176.653 203.978 176.416C203.978 176.156 204.097 175.873 204.215 175.802C204.357 175.731 204.451 175.4 204.451 175.069C204.451 174.761 204.57 174.501 204.688 174.501C204.83 174.501 204.924 174.288 204.924 174.028C204.924 173.768 205.019 173.366 205.137 173.129C205.255 172.917 205.539 172.042 205.776 171.19C205.988 170.339 206.272 169.559 206.391 169.417C206.485 169.298 206.58 168.849 206.58 168.447C206.58 168.021 206.698 167.596 206.816 167.525C206.958 167.454 207.053 167.075 207.053 166.697C207.053 166.319 207.171 165.94 207.289 165.869C207.431 165.799 207.526 165.373 207.526 164.924C207.526 164.474 207.644 164.049 207.762 163.978C207.904 163.907 207.999 163.481 207.999 163.032C207.999 162.582 208.117 162.157 208.235 162.086C208.377 162.015 208.472 161.424 208.472 160.785C208.472 160.147 208.59 159.555 208.708 159.484C208.85 159.39 208.968 158.893 208.944 158.349C208.944 157.805 209.063 156.245 209.205 154.873C209.394 153.099 209.488 138.414 209.488 102.966C209.512 55.2438 209.488 53.0682 208.874 49.8757C208.779 49.3791 207.999 46.7778 207.762 46.2102C207.644 45.9501 207.431 45.4062 207.265 44.9805C207.1 44.5785 206.863 44.2947 206.745 44.3657C206.627 44.4366 206.438 44.342 206.32 44.1765C206.225 44.0109 206.225 43.7981 206.343 43.7272C206.461 43.6562 206.391 43.2069 206.178 42.7103C205.87 42.0482 205.657 41.859 205.35 41.9772C204.995 42.0718 204.948 41.9536 204.972 41.2678C204.995 40.8185 204.853 40.2745 204.688 40.0617C204.428 39.7306 204.357 39.7543 204.049 40.109C203.742 40.511 203.718 40.4874 203.813 39.8962C203.86 39.4942 203.813 39.305 203.624 39.3759C203.482 39.4469 202.891 39.0448 202.347 38.5009C201.566 37.7206 201.377 37.3658 201.495 36.9402C201.59 36.4909 201.519 36.3963 201.07 36.3963C200.502 36.3963 198.776 35.001 198.776 34.5281C198.776 34.3862 198.61 34.2679 198.421 34.2679C198.256 34.2679 197.688 33.795 197.191 33.2038C196.458 32.3288 196.175 32.1396 195.749 32.2579C195.323 32.3525 195.229 32.3052 195.276 31.9741C195.323 31.6667 194.921 31.3592 193.81 30.7917C192.958 30.366 192.083 30.0113 191.871 30.0113C191.658 30.0113 191.398 29.8931 191.303 29.7512C191.232 29.6093 190.901 29.562 190.57 29.6566C190.192 29.7512 189.884 29.6802 189.695 29.4674C189.364 29.0181 188.347 28.7816 187.921 29.0417C187.614 29.2546 186.384 28.7579 186.124 28.3323C186.03 28.214 185.557 28.1194 185.06 28.1194C184.563 28.1194 184.067 28.0012 183.996 27.883C183.901 27.7411 182.53 27.6465 180.685 27.6465C178.841 27.6465 177.469 27.7411 177.374 27.883ZM178.675 28.1194C178.675 28.2377 178.509 28.3559 178.32 28.3559C178.131 28.3559 177.966 28.2377 177.966 28.1194C177.966 27.9776 178.131 27.883 178.32 27.883C178.509 27.883 178.675 27.9776 178.675 28.1194ZM193.1 30.7207C193.1 30.839 193.006 30.9572 192.864 30.9572C192.746 30.9572 192.627 30.839 192.627 30.7207C192.627 30.5788 192.746 30.4843 192.864 30.4843C193.006 30.4843 193.1 30.5788 193.1 30.7207ZM205.87 42.7812C205.87 42.8995 205.776 43.0177 205.634 43.0177C205.516 43.0177 205.397 42.8995 205.397 42.7812C205.397 42.6394 205.516 42.5448 205.634 42.5448C205.776 42.5448 205.87 42.6394 205.87 42.7812ZM183.026 46.2339C183.523 46.3048 184.516 46.6832 185.225 47.0615C185.935 47.4399 186.668 47.6527 186.881 47.5818C187.117 47.4872 187.212 47.5345 187.117 47.6764C186.952 47.9129 189.861 51.0581 190.239 51.0581C190.357 51.0581 190.499 51.2236 190.57 51.3891C190.665 51.6256 190.594 51.6966 190.357 51.602C189.908 51.4364 189.931 51.602 190.499 52.5952C190.759 53.0682 190.972 53.7539 190.972 54.1323C190.972 54.5107 191.09 54.8891 191.208 54.96C191.516 55.1492 191.54 150.38 191.232 150.38C191.114 150.38 190.948 151.302 190.877 152.437C190.735 155.11 190.523 157.025 190.333 157.474C190.239 157.664 190.05 158.633 189.884 159.603C189.719 160.572 189.482 161.802 189.317 162.322C189.175 162.842 188.986 163.528 188.938 163.859C188.796 164.451 188.489 165.278 188.111 166.035C187.992 166.271 187.898 166.673 187.898 166.934C187.898 167.454 187.448 168.352 187.07 168.636C186.952 168.731 186.975 169.015 187.165 169.369C187.519 170.032 187.307 170.646 186.881 170.268C186.668 170.126 186.384 170.552 185.84 171.805C185.438 172.775 185.202 173.555 185.32 173.555C185.438 173.555 185.533 173.721 185.533 173.91C185.533 174.099 185.438 174.265 185.296 174.265C185.178 174.265 185.06 174.123 185.06 173.957C185.06 173.815 184.894 173.981 184.682 174.383C184.492 174.761 184.374 175.281 184.445 175.518C184.516 175.825 184.445 175.92 184.209 175.825C183.948 175.731 183.901 175.778 184.09 176.085C184.398 176.653 183.712 177.693 183.263 177.315C183.003 177.102 182.932 177.15 182.908 177.599C182.884 177.906 182.884 178.308 182.908 178.474C182.979 178.947 182.435 179.514 182.057 179.372C181.867 179.302 181.749 179.42 181.749 179.656C181.749 179.869 181.536 180.2 181.276 180.366C180.922 180.579 180.827 180.815 180.945 181.241C181.063 181.714 181.016 181.808 180.709 181.69C180.449 181.595 180.33 181.666 180.33 181.997C180.33 182.234 180.117 182.565 179.857 182.731C179.574 182.896 179.432 183.156 179.526 183.298C179.621 183.44 179.597 183.487 179.455 183.416C179.313 183.322 178.959 183.629 178.651 184.078C178.344 184.528 177.989 184.906 177.871 184.906C177.753 184.906 177.729 185.214 177.8 185.592C177.966 186.42 177.374 187.129 176.996 186.538C176.854 186.301 176.783 186.372 176.783 186.845C176.783 187.224 176.689 187.507 176.547 187.507C176.428 187.507 176.31 187.673 176.31 187.862C176.31 188.051 176.216 188.217 176.097 188.217C175.837 188.217 174.182 190.487 174.182 190.818C174.182 190.96 173.969 191.149 173.733 191.244C173.472 191.338 172.787 191.859 172.195 192.403C171.628 192.97 171.037 193.419 170.895 193.419C170.777 193.419 170.635 193.656 170.587 193.94C170.54 194.294 170.327 194.507 169.972 194.555C169.689 194.602 169.334 194.838 169.216 195.098C169.074 195.359 168.719 195.548 168.388 195.548C168.057 195.548 167.797 195.666 167.797 195.808C167.797 195.95 167.631 196.021 167.442 195.926C167.206 195.855 166.969 196.068 166.709 196.636C166.402 197.298 166.26 197.392 165.976 197.179C165.716 196.943 165.55 196.967 165.243 197.274C164.935 197.582 164.935 197.676 165.196 197.676C165.385 197.676 165.267 197.936 164.841 198.386C164.462 198.764 163.966 199.095 163.729 199.095C163.493 199.095 163.304 199.166 163.304 199.261C163.304 199.615 162.05 200.065 161.79 199.804C161.483 199.497 160.939 199.97 160.939 200.538C160.939 201.129 160.017 201.625 159.733 201.2C159.567 200.94 159.52 200.963 159.52 201.271C159.52 201.673 158.29 202.5 158.054 202.287C157.983 202.217 157.746 202.382 157.51 202.642C157.273 202.902 156.99 203.115 156.871 203.115C156.635 203.115 156.209 203.446 155.476 204.179C155.003 204.629 155.003 204.629 154.861 204.108L154.743 203.588L154.176 204.179C153.679 204.723 152.946 205.031 153.23 204.581C153.301 204.463 153.04 204.439 152.638 204.487C152.26 204.534 151.953 204.676 151.953 204.794C151.953 204.912 151.693 205.007 151.385 205.007C151.054 205.007 150.723 205.102 150.652 205.243C150.581 205.362 150.25 205.48 149.919 205.48C149.611 205.48 149.351 205.575 149.351 205.716C149.351 205.835 149.139 205.953 148.878 205.953C148.074 205.953 147.247 206.45 147.389 206.852C147.507 207.135 147.436 207.183 146.963 207.041C145.71 206.662 145.331 206.615 145.331 206.875C145.331 207.017 145.024 207.135 144.645 207.135C144.243 207.135 143.865 207.23 143.794 207.372C143.723 207.49 143.227 207.608 142.706 207.608C142.21 207.608 141.784 207.703 141.784 207.845C141.784 207.963 141.311 208.081 140.72 208.081C140.034 208.081 139.656 208.176 139.656 208.365C139.656 208.602 139.254 208.649 138.213 208.602C137.409 208.554 136.534 208.625 136.25 208.743C135.068 209.335 126.649 209.5 122.629 209.051C121.399 208.909 119.697 208.72 118.845 208.649C117.994 208.578 117.214 208.412 117.072 208.294C116.954 208.176 116.41 208.081 115.866 208.081C115.298 208.081 114.778 207.963 114.707 207.845C114.636 207.703 114.258 207.608 113.879 207.608C113.501 207.608 113.123 207.49 113.028 207.348C112.933 207.183 112.413 207.112 111.656 207.206C110.994 207.254 110.639 207.254 110.876 207.206C111.633 207.017 111.278 206.733 110.096 206.568C109.457 206.473 108.866 206.308 108.795 206.189C108.724 206.048 108.464 205.953 108.227 205.953C107.991 205.953 107.447 205.787 107.021 205.575C106.383 205.243 106.217 205.243 106.028 205.504C105.839 205.764 105.815 205.74 105.934 205.409C106.028 205.125 105.934 205.007 105.602 205.007C105.342 205.007 105.129 204.889 105.129 204.771C105.129 204.629 104.917 204.534 104.68 204.534C104.444 204.534 103.64 204.227 102.93 203.848C101.961 203.328 101.559 203.233 101.228 203.423C100.896 203.612 100.826 203.588 100.92 203.304C101.015 203.092 100.66 202.808 99.785 202.406C99.0756 202.075 98.508 201.744 98.508 201.625C98.508 201.531 98.3661 201.46 98.2006 201.46C98.0351 201.46 97.6803 201.271 97.4202 201.034C97.1837 200.798 96.5925 200.419 96.1432 200.183C94.7716 199.497 94.275 199.19 93.8257 198.788C93.3054 198.315 92.7142 198.244 92.9744 198.669C93.0926 198.859 92.9034 198.811 92.596 198.575C92.2649 198.362 92.0284 198.031 92.0284 197.818C92.0521 197.605 91.9811 197.44 91.8393 197.44C91.721 197.44 91.3426 197.156 91.0116 196.825C90.6096 196.423 90.2548 196.257 89.9238 196.352C89.1907 196.541 87.7954 195.43 88.0083 194.791C88.1265 194.413 88.0792 194.342 87.6772 194.46C87.2515 194.602 86.4711 194.034 86.7313 193.751C86.9914 193.514 84.7448 191.409 84.3192 191.48C84.0827 191.528 83.8462 191.386 83.7516 191.173C83.6807 190.96 83.7043 190.865 83.8462 190.936C84.2009 191.149 84.13 190.936 83.657 190.416C83.4442 190.156 83.1131 189.99 82.9476 190.038C82.782 190.109 82.7111 190.014 82.8057 189.801C82.8766 189.588 82.5219 189.116 81.9071 188.548C81.3395 188.028 80.7247 187.318 80.5355 186.964C80.3463 186.585 80.1571 186.396 80.1098 186.538C79.9916 186.916 79.7551 186.869 79.1166 186.278C78.6436 185.828 78.62 185.757 78.9747 185.616C79.3058 185.497 79.2585 185.355 78.549 184.551C78.0997 184.031 77.7214 183.747 77.6977 183.889C77.6977 184.055 77.6031 184.197 77.4612 184.197C77.343 184.197 77.2957 183.889 77.3903 183.487C77.4612 183.085 77.4376 182.778 77.3193 182.801C77.2011 182.825 76.9173 182.778 76.6808 182.66C76.3498 182.518 76.3261 182.423 76.539 182.163C76.7518 181.879 76.7045 181.714 76.3025 181.288C76.0423 180.981 75.8059 180.626 75.8059 180.484C75.8059 180.342 75.6403 180.082 75.4275 179.916C75.2147 179.751 74.9545 179.372 74.8599 179.089C74.6944 178.71 74.5052 178.592 74.1742 178.687C73.8194 178.781 73.6775 178.71 73.6775 178.427C73.6775 178.214 73.7958 178.048 73.914 178.048C74.0559 178.048 73.7012 177.197 73.1573 176.156C72.5424 174.95 72.0931 174.359 71.9985 174.548C71.8803 174.714 71.7384 174.761 71.6438 174.667C71.5492 174.596 71.6202 174.335 71.8093 174.123C72.0695 173.792 72.0458 173.768 71.6675 173.839C71.431 173.862 71.1945 173.768 71.1472 173.602C71.0763 173.46 71.1945 173.319 71.3837 173.319C71.6911 173.319 71.6911 173.224 71.4783 172.727C71.3127 172.396 71.1235 172.136 71.029 172.136C70.9107 172.136 70.8398 171.947 70.8398 171.711C70.8398 171.474 70.7688 171.19 70.6742 171.096C70.556 171.001 70.4851 170.836 70.4614 170.765C70.4141 170.315 70.0357 169.157 69.9175 169.062C69.6101 168.802 69.1844 167.856 69.1844 167.43C69.1844 167.17 69.0898 166.886 68.9479 166.815C68.8297 166.744 68.7114 166.413 68.7114 166.106C68.7114 165.799 68.6169 165.467 68.475 165.396C68.3567 165.326 68.2385 164.994 68.2385 164.687C68.2385 164.38 68.1202 164.049 68.002 163.978C67.8838 163.907 67.7655 163.528 67.7655 163.15C67.7655 162.772 67.6709 162.393 67.529 162.322C67.3872 162.251 67.2926 161.826 67.2926 161.376C67.2926 160.927 67.198 160.525 67.0797 160.454C66.9851 160.383 66.9378 160.076 66.9851 159.745C67.0561 159.437 66.9851 159.106 66.8432 159.035C66.7014 158.941 66.5831 158.302 66.5831 157.593C66.5831 156.883 66.4885 156.245 66.3466 156.174C66.2284 156.103 66.1102 155.464 66.1102 154.755C66.1102 154.045 66.0156 153.407 65.8737 153.336C65.7318 153.265 65.6372 152.248 65.6372 151.089C65.6372 149.931 65.519 148.914 65.4007 148.843C65.0696 148.63 65.0696 88.2801 65.4007 88.0673C65.5426 87.9964 65.6372 87.547 65.6372 87.0977C65.6372 86.6484 65.7554 86.2937 65.8737 86.2937C66.0156 86.2937 66.1102 86.1045 66.1102 85.8444C66.1102 85.6079 66.2757 85.1113 66.4649 84.7329C66.6541 84.3545 66.7487 83.8343 66.6777 83.5742C66.5358 83.0303 67.1034 82.3681 67.4817 82.6046C67.6 82.6755 67.9074 82.51 68.1439 82.2262C68.5223 81.8242 70.2013 80.6182 70.6033 80.4763C70.6742 80.4526 70.958 80.358 71.2654 80.2634C71.5492 80.1688 71.7857 80.0033 71.7857 79.8851C71.7857 79.7668 71.9985 79.6722 72.235 79.6722C72.4951 79.6722 72.7789 79.554 72.8499 79.4357C73.0627 79.1047 78.7146 79.1283 79.0457 79.4594C79.2112 79.6249 79.495 79.6722 79.6842 79.6013C80.2044 79.3885 80.4172 79.483 80.3463 79.8378C80.299 80.0033 80.4409 80.1452 80.6537 80.1452C80.8429 80.1452 81.0084 80.2398 81.0084 80.3817C81.0084 80.4999 81.2213 80.6182 81.4578 80.6182C81.7179 80.6182 81.978 80.7127 82.0726 80.8546C82.1435 80.9729 82.3564 81.0202 82.5456 80.9256C82.7348 80.8546 82.9003 80.9256 82.9003 81.0911C82.9003 81.5404 84.1773 82.6755 84.5557 82.5573C84.7685 82.4864 84.8158 82.5809 84.7212 82.8647C84.6266 83.0776 84.7448 83.5269 84.9813 83.8816C85.2178 84.2363 85.5489 84.8275 85.7144 85.2295C85.8799 85.6079 86.1401 86.1518 86.3056 86.4119C86.4948 86.743 86.5894 94.1921 86.6367 113.489C86.6603 130.587 86.7786 140.164 86.9205 140.306C87.0623 140.448 87.1569 140.732 87.1569 140.968C87.1569 141.488 87.6063 142.316 88.1738 142.836C88.3866 143.049 88.5758 143.356 88.5758 143.522C88.5758 143.924 89.2616 144.704 89.6163 144.704C89.7582 144.728 90.2548 145.035 90.7042 145.414C91.1535 145.816 91.6974 146.123 91.9338 146.123C92.1467 146.123 92.4068 146.218 92.4778 146.36C92.5487 146.478 92.8798 146.596 93.1872 146.596C93.4946 146.596 93.8257 146.691 93.8966 146.833C94.0858 147.14 97.5621 147.14 97.5621 146.833C97.5621 146.691 97.8222 146.596 98.1533 146.596C98.4844 146.596 98.9337 146.502 99.1702 146.383C99.383 146.265 99.9033 146.029 100.282 145.863C101.109 145.508 103.238 143.546 103.238 143.144C103.238 143.002 103.403 142.742 103.592 142.576C104.089 142.174 104.657 140.944 104.657 140.306C104.657 139.998 104.751 139.691 104.893 139.62C105.035 139.525 105.129 135.103 105.129 127.087V114.719L111.231 114.624C114.565 114.577 117.356 114.624 117.379 114.719C117.426 114.837 117.616 114.908 117.805 114.908C117.994 114.908 118.136 115.026 118.136 115.168C118.136 115.31 117.97 115.381 117.781 115.286C117.568 115.215 117.426 115.286 117.426 115.499C117.426 115.665 117.592 115.972 117.781 116.185C118.089 116.469 118.136 118.029 118.136 127.299C118.136 134.205 118.041 138.107 117.899 138.201C117.758 138.296 117.663 138.083 117.663 137.705C117.663 137.35 117.592 137.113 117.521 137.208C117.261 137.468 117.947 140.542 118.538 141.796C119.224 143.215 120.855 145.177 121.352 145.177C121.541 145.177 121.801 145.39 121.967 145.65C122.132 145.91 122.511 146.123 122.795 146.123C123.078 146.123 123.386 146.218 123.457 146.36C123.528 146.478 123.859 146.596 124.166 146.596C124.474 146.596 124.805 146.691 124.876 146.833C125.065 147.14 128.47 147.14 128.659 146.833C128.73 146.691 129.061 146.596 129.369 146.596C129.676 146.596 130.007 146.478 130.078 146.36C130.149 146.218 130.409 146.123 130.646 146.123C130.882 146.123 131.261 145.91 131.497 145.65C131.734 145.39 132.041 145.177 132.207 145.177C133.081 145.177 135.635 141.205 135.635 139.833C135.635 139.384 135.73 139.029 135.872 139.029C136.014 139.029 136.132 134.725 136.156 126.897L136.227 114.79L143.865 114.719L151.48 114.671V127.087C151.48 135.198 151.551 139.502 151.716 139.502C151.858 139.502 151.953 139.809 151.953 140.164C151.953 140.921 152.497 142.15 153.017 142.576C153.206 142.742 153.372 142.978 153.372 143.12C153.372 143.475 155.051 145.177 155.405 145.177C155.547 145.177 155.807 145.343 155.973 145.532C156.375 146.029 157.605 146.596 158.243 146.596C158.55 146.596 158.858 146.691 158.929 146.833C159 146.951 159.804 147.069 160.726 147.069C161.648 147.069 162.358 146.975 162.358 146.833C162.358 146.691 162.665 146.596 163.02 146.596C163.8 146.596 166.118 145.485 166.307 145.035C166.378 144.846 166.567 144.704 166.733 144.704C167.158 144.704 168.033 143.877 168.033 143.451C168.033 143.262 168.175 143.049 168.364 142.978C168.743 142.836 169.452 141.512 169.452 140.921C169.452 140.708 169.547 140.448 169.689 140.306C169.831 140.164 169.949 125.006 169.972 96.9353C170.043 59.6896 170.091 53.683 170.398 52.9972C170.587 52.5952 170.824 52.2405 170.918 52.2405C171.013 52.2405 171.108 52.0276 171.108 51.7675C171.108 51.5074 171.226 51.2945 171.344 51.2945C171.486 51.2945 171.581 51.1527 171.581 50.9635C171.581 50.5615 174.276 47.9129 174.797 47.7946C174.986 47.7473 175.128 47.6054 175.128 47.4872C175.128 47.369 175.341 47.2744 175.601 47.2744C175.861 47.2744 176.074 47.1561 176.074 47.0379C176.074 46.896 176.287 46.8014 176.547 46.8014C176.807 46.8014 177.02 46.7068 177.02 46.6122C177.02 46.0447 180.709 45.8082 183.026 46.2339ZM170.398 52.004C170.398 52.1222 170.28 52.2405 170.138 52.2405C170.02 52.2405 169.972 52.1222 170.043 52.004C170.114 51.8621 170.233 51.7675 170.304 51.7675C170.351 51.7675 170.398 51.8621 170.398 52.004ZM192.154 54.2742C192.154 54.4634 192.06 54.558 191.918 54.487C191.8 54.4161 191.681 54.2506 191.681 54.1087C191.681 53.9904 191.8 53.8958 191.918 53.8958C192.06 53.8958 192.154 54.0614 192.154 54.2742ZM96.4743 69.3853C96.5452 69.5982 96.4743 69.74 96.2614 69.74C96.0723 69.74 95.9067 69.5745 95.9067 69.3853C95.9067 69.1961 96.0013 69.0306 96.1196 69.0306C96.2378 69.0306 96.3797 69.1961 96.4743 69.3853ZM48.7761 81.3749C48.7052 81.5641 48.6342 81.4931 48.6342 81.233C48.6106 80.9729 48.6815 80.831 48.7525 80.9256C48.8234 80.9965 48.8471 81.2094 48.7761 81.3749ZM87.0387 87.4524C87.1096 87.5707 87.0623 87.7362 86.9205 87.8308C86.8022 87.9018 86.684 87.8072 86.684 87.618C86.684 87.1923 86.8259 87.1214 87.0387 87.4524ZM101.346 144.704C101.346 144.823 101.18 144.941 100.967 144.941C100.778 144.941 100.684 144.823 100.755 144.704C100.826 144.563 100.991 144.468 101.133 144.468C101.251 144.468 101.346 144.563 101.346 144.704ZM48.4214 157.285C48.2086 157.498 48.1376 157.451 48.1376 157.001C48.1376 156.552 48.2086 156.505 48.4214 156.718C48.6342 156.93 48.6342 157.072 48.4214 157.285ZM72.4951 175.187C72.4951 175.329 72.4005 175.494 72.2587 175.565C72.1404 175.636 72.0222 175.542 72.0222 175.352C72.0222 175.139 72.1404 174.974 72.2587 174.974C72.4005 174.974 72.4951 175.069 72.4951 175.187ZM75.5694 180.649C75.5694 180.768 75.4748 180.886 75.3329 180.886C75.2147 180.886 75.0964 180.768 75.0964 180.649C75.0964 180.508 75.2147 180.413 75.3329 180.413C75.4748 180.413 75.5694 180.508 75.5694 180.649ZM196.458 190.156C196.293 190.322 196.175 190.345 196.175 190.203C196.175 189.872 196.458 189.588 196.624 189.754C196.671 189.825 196.6 190.014 196.458 190.156ZM193.81 193.892C193.81 194.011 193.715 194.129 193.573 194.129C193.455 194.129 193.337 194.011 193.337 193.892C193.337 193.751 193.455 193.656 193.573 193.656C193.715 193.656 193.81 193.751 193.81 193.892ZM90.7042 197.109C90.7042 197.511 90.1839 197.44 90.042 197.014C89.9947 196.848 90.1129 196.73 90.3258 196.73C90.5386 196.73 90.7042 196.896 90.7042 197.109ZM96.0013 200.774C95.9304 200.892 95.7648 200.94 95.6466 200.845C95.5284 200.774 95.4811 200.608 95.5757 200.49C95.6466 200.372 95.8121 200.325 95.9304 200.419C96.0486 200.49 96.0959 200.656 96.0013 200.774ZM71.5492 203.352C71.5492 203.47 71.5019 203.588 71.4546 203.588C71.3837 203.588 71.2654 203.47 71.1945 203.352C71.1235 203.21 71.1708 203.115 71.2891 203.115C71.431 203.115 71.5492 203.21 71.5492 203.352ZM151.361 205.456C151.432 205.575 151.385 205.74 151.243 205.835C151.125 205.906 151.007 205.811 151.007 205.622C151.007 205.196 151.149 205.125 151.361 205.456ZM150.061 205.953C150.061 206.071 149.966 206.189 149.824 206.189C149.706 206.189 149.588 206.071 149.588 205.953C149.588 205.811 149.706 205.716 149.824 205.716C149.966 205.716 150.061 205.811 150.061 205.953ZM146.041 207.372C146.041 207.49 145.993 207.608 145.946 207.608C145.875 207.608 145.757 207.49 145.686 207.372C145.615 207.23 145.662 207.135 145.781 207.135C145.922 207.135 146.041 207.23 146.041 207.372ZM114.47 208.081C114.541 208.199 114.494 208.318 114.376 208.318C114.234 208.318 114.116 208.199 114.116 208.081C114.116 207.939 114.163 207.845 114.21 207.845C114.281 207.845 114.4 207.939 114.47 208.081Z" fill="#E24349"/>
</g>
<defs>
<clipPath id="clip0_387_6">
<rect width="256" height="256" fill="white"/>
</clipPath>
</defs>
</svg>
