<svg width="256" height="256" viewBox="0 0 256 256" fill="none" xmlns="http://www.w3.org/2000/svg">
<g clip-path="url(#clip0_392_565)">
<rect width="256" height="256" rx="60" fill="white"/>
<path d="M147.828 151.471L189.111 111.991C180.536 78.5537 146.478 58.3998 113.041 66.9756C97.9834 70.837 84.9054 80.1708 76.3594 93.1553C76.9977 93.1397 147.828 151.471 147.828 151.471Z" fill="#0364B8"/>
<path d="M103.264 100.587L103.263 100.594C95.3739 95.7091 86.2765 93.1267 76.9977 93.1387C76.7837 93.1387 76.5727 93.152 76.3587 93.1543C48.7594 93.4965 26.6625 116.148 27.0039 143.748C27.1279 153.76 30.256 163.503 35.9828 171.715L97.8306 163.969L145.248 125.735L103.264 100.587Z" fill="#0078D4"/>
<path d="M189.111 111.991C188.198 111.927 187.284 111.893 186.369 111.889C180.831 111.883 175.351 113.014 170.267 115.212L170.266 115.208L145.249 125.736L172.828 159.804L222.133 171.789C232.774 152.036 225.386 127.398 205.633 116.757C200.529 114.008 194.895 112.382 189.111 111.991Z" fill="#1490DF"/>
<path d="M35.9829 171.716C40.5839 178.331 46.7174 183.734 53.8597 187.464C61.002 191.194 68.941 193.139 76.9986 193.135H186.369C193.702 193.137 200.899 191.153 207.195 187.395C213.492 183.637 218.654 178.244 222.133 171.789L145.248 125.734L35.9829 171.716Z" fill="#28A8EA"/>
</g>
<defs>
<clipPath id="clip0_392_565">
<rect width="256" height="256" fill="white"/>
</clipPath>
</defs>
</svg>
