<svg width="256" height="256" viewBox="0 0 256 256" fill="none" xmlns="http://www.w3.org/2000/svg">
<g clip-path="url(#clip0_392_557)">
<path d="M196 0H60C26.8629 0 0 26.8629 0 60V196C0 229.137 26.8629 256 60 256H196C229.137 256 256 229.137 256 196V60C256 26.8629 229.137 0 196 0Z" fill="white"/>
<path d="M153.828 155.471L195.111 115.991C186.536 82.5537 152.478 62.3998 119.041 70.9756C103.983 74.837 90.9054 84.1708 82.3594 97.1553C82.9977 97.1397 153.828 155.471 153.828 155.471Z" fill="#0364B8"/>
<path d="M109.264 104.587L109.263 104.594C101.374 99.7091 92.2765 97.1267 82.9977 97.1387C82.7837 97.1387 82.5727 97.152 82.3587 97.1543C54.7594 97.4965 32.6625 120.148 33.0039 147.748C33.1279 157.76 36.256 167.503 41.9828 175.715L103.831 167.969L151.248 129.735L109.264 104.587Z" fill="#0078D4"/>
<path d="M195.111 115.991C194.198 115.927 193.284 115.893 192.369 115.889C186.831 115.883 181.351 117.014 176.267 119.212L176.266 119.208L151.249 129.736L178.828 163.804L228.133 175.789C238.774 156.036 231.386 131.398 211.633 120.757C206.529 118.008 200.895 116.382 195.111 115.991Z" fill="#1490DF"/>
<path d="M41.9829 175.716C46.5839 182.331 52.7174 187.734 59.8597 191.464C67.002 195.194 74.941 197.139 82.9986 197.135H192.369C199.702 197.137 206.899 195.153 213.195 191.395C219.492 187.637 224.654 182.244 228.133 175.789L151.248 129.734L41.9829 175.716Z" fill="#28A8EA"/>
</g>
<defs>
<clipPath id="clip0_392_557">
<rect width="256" height="256" fill="white"/>
</clipPath>
</defs>
</svg>
