<svg width="256" height="256" viewBox="0 0 256 256" fill="none" xmlns="http://www.w3.org/2000/svg">
<g clip-path="url(#clip0_392_560)">
<rect width="256" height="256" rx="60" fill="#242938"/>
<path d="M148.828 150.471L190.111 110.991C181.536 77.5537 147.478 57.3998 114.041 65.9756C98.9834 69.837 85.9054 79.1708 77.3594 92.1553C77.9977 92.1397 148.828 150.471 148.828 150.471Z" fill="#0364B8"/>
<path d="M104.264 99.5872L104.263 99.5942C96.3739 94.7091 87.2765 92.1267 77.9977 92.1387C77.7837 92.1387 77.5727 92.152 77.3587 92.1543C49.7594 92.4965 27.6625 115.148 28.0039 142.748C28.1279 152.76 31.256 162.503 36.9828 170.715L98.8306 162.969L146.248 124.735L104.264 99.5872Z" fill="#0078D4"/>
<path d="M190.111 110.991C189.198 110.927 188.284 110.893 187.369 110.889C181.831 110.883 176.351 112.014 171.267 114.212L171.266 114.208L146.249 124.736L173.828 158.804L223.133 170.789C233.774 151.036 226.386 126.398 206.633 115.757C201.529 113.008 195.895 111.382 190.111 110.991Z" fill="#1490DF"/>
<path d="M36.9829 170.716C41.5839 177.331 47.7174 182.734 54.8597 186.464C62.002 190.194 69.941 192.139 77.9986 192.135H187.369C194.702 192.137 201.899 190.153 208.195 186.395C214.492 182.637 219.654 177.244 223.133 170.789L146.248 124.734L36.9829 170.716Z" fill="#28A8EA"/>
</g>
<defs>
<clipPath id="clip0_392_560">
<rect width="256" height="256" fill="white"/>
</clipPath>
</defs>
</svg>
