<svg width="256" height="256" viewBox="0 0 256 256" fill="none" xmlns="http://www.w3.org/2000/svg">
<g clip-path="url(#clip0_248_2480)">
<rect width="256" height="256" rx="60" fill="#242938"/>
<path d="M86.0131 118.201L53.8967 129.886C54.3093 135.035 55.1949 140.121 56.4428 145.105L86.9474 133.995C85.9698 128.847 85.6201 123.528 86.0201 118.2M227.938 82.6882C225.699 78.0683 223.108 73.6032 220.107 69.395L188 81.0804C191.736 84.9027 194.87 89.1981 197.435 93.7921L227.939 82.6867L227.938 82.6882Z" fill="#DA2430"/>
<path d="M170.97 82.4984C166.931 78.9935 162.368 75.9681 157.29 73.5996H157.288C127.474 59.6997 91.8989 72.6314 77.999 102.457C77.224 104.122 76.5282 105.824 75.9142 107.555C74.1791 112.602 73.1653 117.763 72.7779 122.915L72.6648 122.957L72.6561 123.07L53.3277 130.104L40.8911 134.7L40.8856 134.631L40.5445 134.755C39.3375 119.482 41.9119 103.705 48.8374 88.8534C49.7375 86.9227 50.7039 85.0235 51.7348 83.1593C74.5665 40.633 126.518 22.8573 170.332 43.6081C179.178 47.7953 187.287 53.3879 194.344 60.1688C198.95 64.4311 203.105 69.1552 206.745 74.2667L174.638 85.9553C174.473 85.7864 174.306 85.6185 174.139 85.4516L174.05 85.4838C173.058 84.4537 172.031 83.4583 170.971 82.4992" fill="#DA2430"/>
<path d="M42.3371 186.571L42.2868 186.589C35.6211 177.201 30.7561 166.656 27.939 155.492L58.4491 144.38L58.4506 144.382L58.4695 144.48L58.6675 144.407L58.6722 144.419C60.2392 152.718 63.5012 160.635 68.2579 167.597C70.0798 170.199 72.1091 172.65 74.3261 174.925L74.2051 174.97L74.4361 175.212L42.6192 186.976C42.5249 186.842 42.4308 186.707 42.3371 186.571Z" fill="#E82429"/>
<path d="M163.516 178.36C146.973 188.589 125.754 190.565 106.847 181.748C100.353 178.726 94.4632 174.546 89.466 169.414L57.4259 181.079L57.6719 181.423L57.6562 181.429C66.4654 194.015 78.4824 204.536 93.2278 211.525C125.031 226.584 161.114 221.349 187.241 201.086C198.94 192.322 208.707 180.642 215.305 166.494C222.235 151.645 224.795 135.874 223.568 120.613L222.675 120.939C222.664 120.775 222.652 120.612 222.639 120.448L190.82 132.202L190.822 132.205C190.301 139.401 188.489 146.444 185.473 152.998C180.511 163.806 172.771 172.415 163.517 178.36" fill="#DA2430"/>
<path d="M198.947 93.2402L199.424 93.0657C204.456 103.425 207.509 114.633 208.425 126.113L176.384 137.77L176.402 137.531L175.796 137.755C176.669 125.899 174.009 114.107 168.382 103.868L198.674 92.6696L198.676 92.6665C198.767 92.8572 198.858 93.0484 198.947 93.2402Z" fill="#E82429"/>
<path d="M86.0523 118.013L54.1631 129.797C54.5717 134.992 55.4519 140.12 56.6927 145.146L86.9835 133.942C86.0036 128.738 85.6515 123.382 86.0649 118.01M226.982 82.2015C224.758 77.5423 222.183 73.0402 219.204 68.7959L187.323 80.5803C191.032 84.4356 194.144 88.7671 196.69 93.4012L226.978 82.1983L226.982 82.2015Z" fill="#C22035"/>
<path d="M54.1615 129.799L85.9737 118.146L85.8441 124.538L55.1525 136.128L54.1576 129.792L54.1615 129.799ZM187.328 80.4835L219.636 69.397L222.994 74.4648L191.603 85.5616L187.332 80.4812L187.328 80.4835Z" fill="#AC223B"/>
<path d="M57.6632 181.309L89.5131 169.719L99.1459 178.807L65.7455 191.346L57.6648 181.306L57.6632 181.309ZM223.173 120.534L190.824 132.199L188.441 145.148L222.933 132.855L223.178 120.535L223.173 120.534Z" fill="#B92135"/>
</g>
<defs>
<clipPath id="clip0_248_2480">
<rect width="256" height="256" fill="white"/>
</clipPath>
</defs>
</svg>
