<svg width="256" height="256" viewBox="0 0 256 256" fill="none" xmlns="http://www.w3.org/2000/svg">
<g clip-path="url(#clip0_377_240)">
<rect width="256" height="256" rx="60" fill="#242938"/>
<path d="M72.9126 130.566C72.357 129.796 72.1095 128.849 72.201 127.905C72.2822 127.065 72.3241 126.214 72.3241 125.354C72.3241 125.299 72.3241 125.245 72.3236 125.19C72.3172 124.24 72.651 123.319 73.2742 122.603C74.0671 121.691 74.4334 120.429 74.1538 119.158C73.8743 117.889 73.0143 116.898 71.9142 116.402C71.0448 116.01 70.3579 115.309 69.9626 114.441C69.5894 113.621 69.1753 112.824 68.7226 112.052C68.2392 111.226 68.0606 110.257 68.2422 109.318C68.4709 108.133 68.1567 106.859 67.2805 105.9C66.4039 104.94 65.1631 104.512 63.9621 104.633C63.0098 104.729 62.0605 104.463 61.2822 103.907C60.5534 103.386 59.7977 102.901 59.0164 102.456C58.1889 101.983 57.5521 101.236 57.2414 100.335C56.8481 99.1944 55.9386 98.2473 54.6991 97.8541C53.4587 97.4608 52.1683 97.7113 51.1887 98.4187C50.4193 98.9739 49.4722 99.2218 48.5272 99.1303C47.6881 99.0491 46.8376 99.0072 45.9768 99.0072C45.9221 99.0072 45.8673 99.0072 45.8126 99.0077C44.8629 99.0136 43.9418 98.6803 43.2251 98.0567C42.3138 97.2638 41.0512 96.8979 39.7805 97.1775C38.5115 97.4566 37.5203 98.3165 37.0249 99.4171C36.6334 100.286 35.9312 100.973 35.0635 101.368C34.2437 101.742 33.4466 102.156 32.6743 102.608C31.8489 103.092 30.88 103.271 29.9405 103.089C28.7557 102.86 27.4816 103.175 26.5224 104.05C25.5625 104.927 25.1342 106.168 25.2556 107.369C25.3517 108.321 25.0859 109.27 24.5294 110.049C24.0088 110.777 23.5241 111.534 23.0783 112.314C22.606 113.142 21.8589 113.779 20.9579 114.09C19.8167 114.483 18.87 115.393 18.4772 116.632C18.0835 117.872 18.334 119.163 19.0413 120.142C19.597 120.912 19.8445 121.859 19.753 122.804C19.6718 123.643 19.6299 124.494 19.6299 125.354C19.6299 125.409 19.6299 125.464 19.6303 125.518C19.6363 126.468 19.3029 127.389 18.6797 128.106C17.8869 129.017 17.5206 130.28 17.8001 131.55C18.0792 132.819 18.9392 133.811 20.0394 134.306C20.9092 134.698 21.5956 135.4 21.991 136.268C22.3645 137.088 22.7787 137.885 23.2309 138.657C23.7147 139.482 23.893 140.451 23.7117 141.39C23.4826 142.575 23.7968 143.849 24.673 144.808C25.5496 145.768 26.7909 146.197 27.9919 146.076C28.9438 145.98 29.893 146.245 30.6718 146.801C31.4001 147.323 32.1562 147.807 32.9371 148.253C33.7646 148.725 34.4014 149.472 34.7122 150.373C35.1058 151.514 36.0154 152.461 37.2545 152.854C38.4948 153.247 39.7852 152.997 40.7653 152.29C41.5346 151.734 42.4818 151.487 43.4264 151.578C44.2658 151.66 45.1164 151.701 45.9768 151.701C46.0315 151.701 46.0862 151.701 46.1409 151.701C47.0906 151.695 48.0117 152.028 48.7285 152.652C49.6402 153.444 50.9023 153.811 52.173 153.531C53.442 153.252 54.4336 152.392 54.929 151.292C55.3205 150.422 56.0228 149.735 56.8904 149.34C57.7102 148.967 58.5074 148.553 59.2797 148.1C60.1051 147.617 61.074 147.438 62.0135 147.619C63.1978 147.849 64.472 147.534 65.4315 146.658C66.3911 145.782 66.8198 144.54 66.6984 143.339C66.6022 142.387 66.8677 141.438 67.4241 140.659C67.9452 139.931 68.4294 139.175 68.8752 138.394C69.3475 137.566 70.0951 136.929 70.9957 136.619C72.1369 136.225 73.0836 135.315 73.4768 134.076C73.8705 132.836 73.6196 131.546 72.9126 130.566Z" fill="#F89D21"/>
<path d="M44.4161 96.1487C45.1367 95.3836 43.2129 92.2121 41.2947 90.2182C39.226 88.0679 36.8965 87.0088 35.3643 86.4728C35.5425 87.9679 36.1302 90.9389 38.4857 93.3392C40.5322 95.4255 43.7216 96.886 44.4161 96.1487ZM46.2886 95.2122C47.1007 93.326 48.7715 90.2161 52.0635 87.8773C55.9448 85.1192 60.0374 84.8845 65.0163 84.5998C67.7313 84.4447 71.6742 84.4648 76.4092 85.3803C74.4695 86.0612 71.6123 87.2695 68.6058 89.4378C64.7086 92.2489 63.8892 94.2723 61.2709 95.8366C58.8367 97.2907 54.7605 98.3999 47.6931 96.3047C48.6471 95.0075 49.9208 93.5294 51.595 92.0908C55.1071 89.0732 58.7333 87.6448 61.1149 86.9408C58.9731 87.3738 55.8645 88.2628 52.5315 90.2182C49.7063 91.8753 47.6585 93.7483 46.2886 95.2122Z" fill="#71C82C"/>
<path d="M45.9714 123.07C46.0975 123.07 46.2087 122.986 46.2433 122.865L50.8389 106.776C51.144 105.557 50.2217 104.375 48.9642 104.375H42.9893C41.7327 104.375 40.8099 105.557 41.1151 106.776L45.6996 122.865C45.7342 122.986 45.8454 123.07 45.9714 123.07ZM47.3152 123.503C47.4174 123.577 47.5563 123.575 47.6555 123.497L60.8302 113.182C61.7936 112.375 61.7414 110.877 60.7246 110.138L55.8909 106.626C54.8741 105.887 53.4333 106.301 52.9631 107.467L47.2157 123.177C47.1725 123.296 47.2127 123.428 47.3152 123.503ZM48.1474 124.643C48.1867 124.763 48.3004 124.842 48.4265 124.838L65.148 124.237C66.402 124.15 67.2402 122.908 66.8521 121.712L65.0056 116.03C64.6171 114.834 63.2083 114.322 62.1428 114.989L48.259 124.321C48.1538 124.391 48.1085 124.523 48.1474 124.643ZM48.1508 126.054C48.1119 126.175 48.1573 126.306 48.262 126.376L62.1428 135.718C63.2083 136.386 64.6171 135.874 65.0056 134.678L66.8521 128.996C67.2402 127.8 66.402 126.558 65.148 126.471L48.4299 125.859C48.3039 125.855 48.1897 125.934 48.1508 126.054ZM47.3242 127.199C47.2216 127.273 47.1815 127.406 47.2246 127.524L52.9631 143.241C53.4333 144.407 54.8741 144.821 55.8909 144.082L60.7246 140.57C61.7414 139.831 61.7936 138.333 60.8302 137.526L47.6644 127.205C47.5653 127.127 47.4259 127.124 47.3242 127.199ZM45.9826 127.638C45.856 127.638 45.7453 127.721 45.7107 127.843L41.1151 143.931C40.8099 145.151 41.7327 146.332 42.9893 146.332H48.9642C50.2217 146.332 51.144 145.151 50.8389 143.931L46.2544 127.843C46.2198 127.721 46.1086 127.638 45.9826 127.638ZM44.6388 127.205C44.537 127.131 44.3977 127.133 44.2981 127.211L31.1238 137.526C30.1604 138.333 30.2121 139.831 31.2294 140.57L36.063 144.082C37.0799 144.821 38.5207 144.407 38.9909 143.241L44.7383 127.531C44.7815 127.412 44.7413 127.279 44.6388 127.205ZM43.8066 126.065C43.7672 125.945 43.6536 125.865 43.5275 125.87L26.8065 126.471C25.5524 126.558 24.7138 127.8 25.1019 128.996L26.9484 134.678C27.3369 135.874 28.7457 136.386 29.8112 135.718L43.695 126.387C43.8002 126.316 43.8455 126.185 43.8066 126.065ZM43.8032 124.653C43.842 124.533 43.7967 124.402 43.692 124.332L29.8112 114.989C28.7457 114.322 27.3369 114.834 26.9484 116.03L25.1019 121.712C24.7138 122.908 25.5524 124.15 26.8065 124.237L43.5236 124.849C43.6501 124.853 43.7638 124.774 43.8032 124.653ZM44.6302 123.509C44.5281 123.584 44.3887 123.581 44.2891 123.503L31.1238 113.182C30.1604 112.375 30.2121 110.877 31.2294 110.138L36.063 106.626C37.0799 105.887 38.5207 106.301 38.9909 107.467L44.7294 123.184C44.7725 123.302 44.7324 123.435 44.6302 123.509Z" fill="white"/>
<path d="M158.467 136.573C155.484 136.573 153.066 134.155 153.066 131.172C153.066 128.189 155.484 125.771 158.467 125.771C161.043 125.771 163.196 127.575 163.737 129.988V132.356C163.196 134.769 161.043 136.573 158.467 136.573ZM169.401 120.106H163.737V121.341C162.167 120.498 160.373 120.018 158.467 120.018C152.307 120.018 147.313 125.012 147.313 131.172C147.313 137.332 152.307 142.326 158.467 142.326C160.374 142.326 162.167 141.845 163.737 141.001V157.958C163.737 160.804 161.922 163.234 159.389 164.152V170.004C165.079 168.948 169.401 163.949 169.401 157.958V120.106ZM182.058 125.287C181.91 125.287 181.757 125.293 181.605 125.305C180.412 125.399 179.307 125.867 178.32 126.696C177.247 127.599 176.55 128.705 176.247 129.984C176.075 130.699 176.132 131.642 176.414 132.79L184.557 125.943C183.792 125.508 182.954 125.287 182.058 125.287ZM182.731 143.034C182.278 143.034 181.805 143.012 181.324 142.97C178.353 142.709 175.812 141.345 173.77 138.917C171.679 136.431 170.731 133.652 170.953 130.656C171.175 127.658 172.514 125.106 174.933 123.072C177.194 121.171 179.657 120.207 182.254 120.207C182.604 120.207 182.961 120.224 183.316 120.259C186.31 120.55 188.976 122.063 191.239 124.754L191.871 125.536C191.958 125.644 191.943 125.801 191.837 125.89L179.182 136.533C179.981 137.029 181.592 137.833 183.661 137.833H183.662C184.119 137.833 184.58 137.793 185.032 137.715C187.518 137.284 189.107 135.837 189.836 135.008L190.212 134.519C190.261 134.456 190.336 134.421 190.413 134.421C190.441 134.421 190.468 134.425 190.495 134.434C190.598 134.469 190.667 134.566 190.667 134.675V139.651C190.667 139.716 190.643 139.777 190.599 139.824C190.337 140.106 190.08 140.351 189.814 140.575C187.846 142.229 185.529 143.034 182.731 143.034H182.731ZM98.5529 123.218C97.2937 121.819 95.6195 120.805 93.8047 120.375C91.9899 119.938 90.0797 120.114 88.4226 120.78C87.319 121.22 86.3219 121.874 85.4854 122.678V120.018H79.8213V142.94H85.4854V127.065L86.6258 125.779C87.4174 124.899 88.4483 124.279 89.5331 123.997C90.6183 123.712 91.7458 123.766 92.7259 124.141C93.7072 124.513 94.5505 125.192 95.1335 126.037C95.7199 126.882 96.0379 127.878 96.0708 128.867L100.984 128.296C100.674 126.397 99.818 124.613 98.5529 123.218ZM217.66 125.771C220.643 125.771 223.061 128.189 223.061 131.172C223.061 134.155 220.643 136.573 217.66 136.573C215.084 136.573 212.931 134.769 212.391 132.356V129.988C212.931 127.575 215.084 125.771 217.66 125.771ZM212.391 168.761V141.001C213.96 141.845 215.754 142.326 217.66 142.326C223.82 142.326 228.814 137.332 228.814 131.172C228.814 125.012 223.82 120.018 217.66 120.018C215.754 120.018 213.96 120.498 212.391 121.341V120.106H206.726V168.761H212.391ZM111.306 137.276C108.323 137.276 105.904 134.857 105.904 131.874C105.904 128.891 108.323 126.474 111.306 126.474C113.882 126.474 116.036 128.277 116.575 130.69V133.058C116.036 135.472 113.882 137.276 111.306 137.276ZM116.575 120.018V122.045C115.005 121.201 113.212 120.721 111.306 120.721C105.146 120.721 100.152 125.714 100.152 131.874C100.152 138.034 105.146 143.028 111.306 143.028C113.212 143.028 115.006 142.548 116.575 141.705V142.94H122.24V120.018H116.575ZM232.261 108.879H237.707V114.326H232.261V108.879ZM232.261 120.018H237.707V142.94H232.261V120.018ZM126.002 120.018H132.106V122.963C133.342 121.922 134.46 121.198 135.463 120.791C136.465 120.384 137.492 120.18 138.541 120.18C140.692 120.18 142.518 120.931 144.019 122.434C145.28 123.711 145.912 125.6 145.912 128.1V142.971H140.525V132.938C140.525 130.349 140.409 128.628 140.177 127.778C139.944 126.927 139.54 126.28 138.963 125.835C138.386 125.39 137.673 125.167 136.823 125.167C135.722 125.167 134.776 125.536 133.987 126.273C133.198 127.011 132.651 128.031 132.345 129.332C132.186 130.01 132.106 131.477 132.106 133.735V142.971H126.002V120.018Z" fill="white"/>
<path d="M44.4475 115.983C44.3078 115.493 44.4027 114.982 44.7061 114.579C45.0032 114.184 45.4537 113.957 45.9422 113.956H46.0059C46.494 113.957 46.9445 114.184 47.2411 114.578C47.5455 114.982 47.6403 115.493 47.5019 115.977L45.973 121.554L44.4475 115.983ZM50.248 116.874C50.4792 116.242 51.0815 115.82 51.7487 115.82C52.0731 115.82 52.3851 115.921 52.6514 116.114L52.7035 116.152C53.0959 116.439 53.3259 116.887 53.334 117.38C53.3421 117.886 53.1194 118.354 52.7219 118.665L48.2075 122.278L50.248 116.874ZM39.2313 118.672C38.8304 118.358 38.6069 117.889 38.615 117.384C38.6227 116.891 38.8531 116.443 39.2467 116.155L39.298 116.117C39.563 115.926 39.8754 115.824 40.1999 115.824C40.8675 115.824 41.4697 116.245 41.6988 116.872L43.7397 122.282L39.2313 118.672ZM54.4196 121.002C54.6893 120.821 54.9971 120.726 55.3129 120.726C55.9972 120.726 56.5977 121.154 56.8072 121.791L56.8281 121.855C56.9781 122.321 56.9016 122.822 56.617 123.228C56.3267 123.641 55.872 123.889 55.3685 123.907L49.5902 124.176L54.4196 121.002ZM36.5899 123.913C36.0808 123.895 35.6252 123.647 35.3358 123.234C35.0512 122.828 34.9743 122.327 35.1247 121.858L35.1448 121.798C35.3538 121.16 35.9543 120.733 36.639 120.733C36.9553 120.733 37.2626 120.827 37.5276 121.005L42.3609 124.184L36.5899 123.913ZM55.3151 129.977C54.9988 129.977 54.6914 129.882 54.426 129.704L49.5924 126.525L55.3642 126.796C55.8733 126.815 56.3289 127.062 56.6187 127.475C56.9029 127.881 56.9794 128.382 56.8294 128.851L56.8093 128.91C56.6003 129.548 55.9998 129.977 55.3151 129.977ZM36.6412 129.982C35.9569 129.982 35.3564 129.554 35.1469 128.918L35.1273 128.857C34.976 128.389 35.0529 127.887 35.3376 127.481C35.6269 127.068 36.0821 126.82 36.5856 126.802L42.3639 126.533L37.5349 129.707C37.2648 129.888 36.957 129.982 36.6412 129.982ZM51.7542 134.885C51.0866 134.885 50.4844 134.464 50.2549 133.836L48.2144 128.427L52.7223 132.037C53.1241 132.351 53.3476 132.82 53.3395 133.325C53.331 133.817 53.101 134.265 52.7078 134.554L52.6561 134.592C52.3907 134.783 52.0786 134.885 51.7542 134.885ZM40.2058 134.889C39.8802 134.889 39.5677 134.788 39.3023 134.595L39.2514 134.558C38.8586 134.27 38.6278 133.822 38.6197 133.329C38.6116 132.824 38.8347 132.355 39.2322 132.045L43.7466 128.432L41.7061 133.834C41.4748 134.467 40.8726 134.889 40.2058 134.889ZM45.9773 136.753C45.4605 136.752 45.0096 136.525 44.7125 136.131C44.4086 135.727 44.3138 135.217 44.4527 134.731L45.9811 129.155L47.5061 134.725C47.6459 135.216 47.5514 135.726 47.2475 136.13C46.9509 136.525 46.5004 136.751 46.0119 136.753H45.9773Z" fill="#F89D21"/>
</g>
<defs>
<clipPath id="clip0_377_240">
<rect width="256" height="256" fill="white"/>
</clipPath>
</defs>
</svg>
