<svg width="256" height="256" viewBox="0 0 256 256" fill="none" xmlns="http://www.w3.org/2000/svg">
<g clip-path="url(#clip0_248_944)">
<rect width="256" height="256" rx="60" fill="white"/>
<path d="M178.138 145.031C176.325 140.966 173.803 137.535 170.568 134.741C167.335 131.949 163.537 129.816 159.177 128.347C154.814 126.878 150.085 126.142 144.991 126.142C143.129 126.142 141.047 126.243 138.743 126.435C136.44 126.635 134.457 126.975 132.79 127.467L133.819 104.973H176.302V89.0986H117.061L115.296 145.985C116.862 145.203 118.652 144.469 120.661 143.78C122.669 143.096 124.727 142.483 126.835 141.945C128.941 141.406 131.099 140.991 133.304 140.694C135.509 140.401 137.59 140.255 139.552 140.255C142.392 140.255 145.186 140.573 147.931 141.209C150.673 141.846 153.149 142.975 155.354 144.59C157.559 146.206 159.345 148.34 160.72 150.984C162.09 153.629 162.777 156.962 162.777 160.981C162.777 164.117 162.262 166.935 161.233 169.434C160.205 171.929 158.807 174.015 157.046 175.679C155.28 177.347 153.224 178.62 150.87 179.501C148.518 180.386 146.019 180.825 143.372 180.825C138.67 180.825 134.6 179.575 131.172 177.076C127.74 174.578 125.293 171.27 123.82 167.153L123.625 167.226L110.859 179.188C113.441 183.399 116.769 186.922 120.881 189.719C126.858 193.784 134.208 195.82 142.932 195.82C148.126 195.82 153.025 194.986 157.632 193.321C162.236 191.657 166.255 189.255 169.685 186.117C173.115 182.983 175.835 179.135 177.845 174.578C179.852 170.021 180.857 164.853 180.857 159.068C180.858 153.776 179.952 149.1 178.138 145.031Z" fill="#ED225D"/>
<path d="M45.3683 122.614V132.462H45.8102C46.6906 131.091 47.8418 129.694 49.264 128.273C50.6836 126.852 52.4247 125.579 54.4834 124.45C56.5407 123.327 58.8679 122.394 61.4659 121.657C64.0602 120.924 66.9783 120.554 70.2116 120.554C75.2105 120.554 79.8155 121.511 84.0301 123.42C88.2435 125.335 91.8708 127.956 94.9096 131.287C97.9459 134.621 100.298 138.54 101.965 143.047C103.63 147.556 104.465 152.407 104.465 157.6C104.465 162.795 103.655 167.67 102.038 172.227C100.422 176.784 98.1158 180.752 95.1288 184.134C92.138 187.515 88.5144 190.214 84.2505 192.218C79.9866 194.226 75.1589 195.232 69.7708 195.232C64.7718 195.232 60.1902 194.202 56.0261 192.145C51.8582 190.087 48.6508 187.296 46.3976 183.764H46.1045V228.454H28.4641V122.614H45.3683ZM86.5295 157.599C86.5295 154.855 86.1122 152.136 85.2798 149.44C84.4451 146.746 83.1965 144.32 81.5306 142.163C79.8635 140.01 77.758 138.269 75.2092 136.945C72.6606 135.622 69.6723 134.961 66.2432 134.961C63.0087 134.961 60.1163 135.647 57.5701 137.019C55.0214 138.393 52.8396 140.158 51.0284 142.311C49.2135 144.468 47.843 146.918 46.9122 149.663C45.9789 152.407 45.516 155.153 45.516 157.895C45.516 160.639 45.9789 163.36 46.9122 166.052C47.843 168.75 49.2135 171.175 51.0284 173.332C52.8408 175.486 55.0214 177.227 57.5701 178.548C60.1163 179.872 63.0087 180.531 66.2432 180.531C69.6723 180.531 72.6606 179.848 75.2092 178.475C77.7568 177.102 79.8635 175.339 81.5306 173.182C83.1965 171.027 84.4451 168.576 85.2798 165.832C86.1122 163.088 86.5295 160.343 86.5295 157.599Z" fill="#ED225D"/>
<path d="M215.057 99.3926L226.264 96.0095L228.464 102.78L217.304 106.588L224.232 116.411L218.392 120.647L211.1 110.996L203.997 120.393L198.326 116.073L205.254 106.588L194.008 102.528L196.211 95.752L207.502 99.3915V87.7109H215.059L215.057 99.3926Z" fill="#ED225D"/>
</g>
<defs>
<clipPath id="clip0_248_944">
<rect width="256" height="256" fill="white"/>
</clipPath>
</defs>
</svg>
