<svg width="256" height="256" viewBox="0 0 256 256" fill="none" xmlns="http://www.w3.org/2000/svg">
<g clip-path="url(#clip0_248_938)">
<rect width="256" height="256" rx="60" fill="#242938"/>
<path d="M182.138 148.031C180.325 143.966 177.803 140.535 174.568 137.741C171.335 134.949 167.537 132.816 163.177 131.347C158.814 129.878 154.085 129.142 148.991 129.142C147.129 129.142 145.047 129.243 142.743 129.435C140.44 129.635 138.457 129.975 136.79 130.467L137.819 107.973H180.302V92.0986H121.061L119.296 148.985C120.862 148.203 122.652 147.469 124.661 146.78C126.669 146.096 128.727 145.483 130.835 144.945C132.941 144.406 135.099 143.991 137.304 143.694C139.509 143.401 141.59 143.255 143.552 143.255C146.392 143.255 149.186 143.573 151.931 144.209C154.673 144.846 157.149 145.975 159.354 147.59C161.559 149.206 163.345 151.34 164.72 153.984C166.09 156.629 166.777 159.962 166.777 163.981C166.777 167.117 166.262 169.935 165.233 172.434C164.205 174.929 162.807 177.015 161.046 178.679C159.28 180.347 157.224 181.62 154.87 182.501C152.518 183.386 150.019 183.825 147.372 183.825C142.67 183.825 138.6 182.575 135.172 180.076C131.74 177.578 129.293 174.27 127.82 170.153L127.625 170.226L114.859 182.188C117.441 186.399 120.769 189.922 124.881 192.719C130.858 196.784 138.208 198.82 146.932 198.82C152.126 198.82 157.025 197.986 161.632 196.321C166.236 194.657 170.255 192.255 173.685 189.117C177.115 185.983 179.835 182.135 181.845 177.578C183.852 173.021 184.857 167.853 184.857 162.068C184.858 156.776 183.952 152.1 182.138 148.031Z" fill="#ED225D"/>
<path d="M49.3683 125.614V135.462H49.8102C50.6906 134.091 51.8418 132.694 53.264 131.273C54.6836 129.852 56.4247 128.579 58.4834 127.45C60.5407 126.327 62.8679 125.394 65.4659 124.657C68.0602 123.924 70.9783 123.554 74.2116 123.554C79.2105 123.554 83.8155 124.511 88.0301 126.42C92.2435 128.335 95.8708 130.956 98.9096 134.287C101.946 137.621 104.298 141.54 105.965 146.047C107.63 150.556 108.465 155.407 108.465 160.6C108.465 165.795 107.655 170.67 106.038 175.227C104.422 179.784 102.116 183.752 99.1288 187.134C96.138 190.515 92.5144 193.214 88.2505 195.218C83.9866 197.226 79.1589 198.232 73.7708 198.232C68.7718 198.232 64.1902 197.202 60.0261 195.145C55.8582 193.087 52.6508 190.296 50.3976 186.764H50.1045V231.454H32.4641V125.614H49.3683ZM90.5295 160.599C90.5295 157.855 90.1122 155.136 89.2798 152.44C88.4451 149.746 87.1965 147.32 85.5306 145.163C83.8635 143.01 81.758 141.269 79.2092 139.945C76.6606 138.622 73.6723 137.961 70.2432 137.961C67.0087 137.961 64.1163 138.647 61.5701 140.019C59.0214 141.393 56.8396 143.158 55.0284 145.311C53.2135 147.468 51.843 149.918 50.9122 152.663C49.9789 155.407 49.516 158.153 49.516 160.895C49.516 163.639 49.9789 166.36 50.9122 169.052C51.843 171.75 53.2135 174.175 55.0284 176.332C56.8408 178.486 59.0214 180.227 61.5701 181.548C64.1163 182.872 67.0087 183.531 70.2432 183.531C73.6723 183.531 76.6606 182.848 79.2092 181.475C81.7568 180.102 83.8635 178.339 85.5306 176.182C87.1965 174.027 88.4451 171.576 89.2798 168.832C90.1122 166.088 90.5295 163.343 90.5295 160.599Z" fill="#ED225D"/>
<path d="M219.057 102.393L230.264 99.0095L232.464 105.78L221.304 109.588L228.232 119.411L222.392 123.647L215.1 113.996L207.997 123.393L202.326 119.073L209.254 109.588L198.008 105.528L200.211 98.752L211.502 102.392V90.7109H219.059L219.057 102.393Z" fill="#ED225D"/>
</g>
<defs>
<clipPath id="clip0_248_938">
<rect width="256" height="256" fill="white"/>
</clipPath>
</defs>
</svg>
