<svg width="256" height="256" viewBox="0 0 256 256" fill="none" xmlns="http://www.w3.org/2000/svg">
<g clip-path="url(#clip0_384_109)">
<path fill-rule="evenodd" clip-rule="evenodd" d="M256.013 203.509C256.013 232.385 232.389 256.009 203.513 256.009H52.5124C23.6368 256.009 0.0126953 232.385 0.0126953 203.509V52.5085C0.0126953 23.6329 23.6368 0.00878906 52.5124 0.00878906H203.513C232.389 0.00878906 256.013 23.6329 256.013 52.5085V203.509Z" fill="#0B5ED7"/>
<path fill-rule="evenodd" clip-rule="evenodd" d="M225.059 117.58C228.999 117.58 233.124 118.432 236.036 119.562V111.912C233.089 110.956 228.999 110 223.689 110C213.584 110 206.733 113.749 206.733 121.612C206.733 135.159 226.259 132.418 226.259 138.708C226.259 141.127 223.964 142.509 219.339 142.509C215.229 142.509 210.34 142.371 206.571 140.597V148.246C210.34 149.537 215.811 150.159 219.921 150.159C230.369 150.159 238 147.015 238 137.338C238 124.436 218.357 128.167 218.357 120.518C218.357 117.649 221.463 117.58 225.059 117.58ZM183.873 139.683H180.381V150.159H168.159V110C168.438 110 177.869 110.192 182.127 110C194.708 110.192 203.079 114.212 203.079 123.968C203.079 135.411 194.881 139.682 183.873 139.683ZM182.127 116.984C181.52 117.001 181.069 116.963 180.381 116.984V132.698H182.127C188.28 132.698 190.857 130.832 190.857 123.968C190.857 119.717 187.957 117.001 182.127 116.984ZM148.952 110H161.175V150.159H148.952V110ZM119.27 150.159V110H131.492V141.429H143.714L141.968 150.159H119.27ZM100.063 110H112.286V150.159H100.063V110ZM80.8571 134.444H68.6349V150.159H56.4127V110H68.6349V125.714H80.8571V110H93.0794V150.159H80.8571V134.444ZM33.7143 139.683H30.2222V150.159H18V110C18.2794 110 27.7102 110.192 31.9683 110C44.5497 110.192 52.9206 114.212 52.9206 123.968C52.9206 135.411 44.7226 139.682 33.7143 139.683ZM31.9683 116.984C31.3606 117.001 30.9102 116.963 30.2222 116.984V132.698H31.9683C38.1195 132.698 40.6984 130.832 40.6984 123.968C40.6984 119.717 37.7983 117.001 31.9683 116.984Z" fill="white"/>
</g>
<defs>
<clipPath id="clip0_384_109">
<rect width="256" height="256" fill="white"/>
</clipPath>
</defs>
</svg>
