<svg width="256" height="256" viewBox="0 0 256 256" fill="none" xmlns="http://www.w3.org/2000/svg">
<g clip-path="url(#clip0_384_119)">
<rect width="256" height="256" rx="60" fill="#242938"/>
<path fill-rule="evenodd" clip-rule="evenodd" d="M225.059 115.58C228.999 115.58 233.124 116.432 236.036 117.562V109.912C233.089 108.956 228.999 108 223.689 108C213.584 108 206.733 111.749 206.733 119.612C206.733 133.159 226.259 130.418 226.259 136.708C226.259 139.127 223.964 140.509 219.339 140.509C215.229 140.509 210.34 140.371 206.571 138.597V146.246C210.34 147.537 215.811 148.159 219.921 148.159C230.369 148.159 238 145.015 238 135.338C238 122.436 218.357 126.167 218.357 118.518C218.357 115.649 221.463 115.58 225.059 115.58ZM183.873 137.683H180.381V148.159H168.159V108C168.438 108 177.869 108.192 182.127 108C194.708 108.192 203.079 112.212 203.079 121.968C203.079 133.411 194.881 137.682 183.873 137.683ZM182.127 114.984C181.52 115.001 181.069 114.963 180.381 114.984V130.698H182.127C188.28 130.698 190.857 128.832 190.857 121.968C190.857 117.717 187.957 115.001 182.127 114.984ZM148.952 108H161.175V148.159H148.952V108ZM119.27 148.159V108H131.492V139.429H143.714L141.968 148.159H119.27ZM100.063 108H112.286V148.159H100.063V108ZM80.8571 132.444H68.6349V148.159H56.4127V108H68.6349V123.714H80.8571V108H93.0794V148.159H80.8571V132.444ZM33.7143 137.683H30.2222V148.159H18V108C18.2794 108 27.7102 108.192 31.9683 108C44.5497 108.192 52.9206 112.212 52.9206 121.968C52.9206 133.411 44.7226 137.682 33.7143 137.683ZM31.9683 114.984C31.3606 115.001 30.9102 114.963 30.2222 114.984V130.698H31.9683C38.1195 130.698 40.6984 128.832 40.6984 121.968C40.6984 117.717 37.7983 115.001 31.9683 114.984Z" fill="#0B5ED7"/>
</g>
<defs>
<clipPath id="clip0_384_119">
<rect width="256" height="256" fill="white"/>
</clipPath>
</defs>
</svg>
