<svg width="256" height="256" viewBox="0 0 256 256" fill="none" xmlns="http://www.w3.org/2000/svg">
<g clip-path="url(#clip0_384_48)">
<path fill-rule="evenodd" clip-rule="evenodd" d="M256.013 203.509C256.013 232.385 232.389 256.009 203.513 256.009H52.5124C23.6368 256.009 0.0126953 232.385 0.0126953 203.509V52.5085C0.0126953 23.6329 23.6368 0.00878906 52.5124 0.00878906H203.513C232.389 0.00878906 256.013 23.6329 256.013 52.5085V203.509Z" fill="black"/>
<path d="M18 129.334V161.669H25.165H32.3301V152.483V143.297L36.4822 143.26C38.7235 143.26 41.7733 143.04 43.1695 142.783C55.0745 140.578 61.6149 131.392 60.8433 117.944C60.2922 107.582 56.1034 101.776 46.9541 98.69C43.4267 97.4775 38.0989 96.9998 27.9208 96.9998H18V129.334ZM39.3482 110.411C42.2877 111.146 43.8677 112.212 45.1904 114.269C46.1458 115.739 46.3662 116.584 46.55 118.752C46.8807 123.455 45.4476 126.432 41.8835 128.379C40.1565 129.334 39.4217 129.481 36.1147 129.628L32.3301 129.812V119.818V109.86H34.8287C36.1882 109.86 38.2459 110.117 39.3482 110.411Z" fill="white"/>
<path d="M66.9426 129.224L67.0529 161.485L73.3728 161.595L79.6927 161.669L79.803 147.817C79.9132 134.405 79.9499 133.854 80.7216 132.2C81.8974 129.665 83.955 128.416 86.8578 128.416C88.6215 128.416 89.3564 128.599 90.3485 129.298C92.7368 130.988 92.7735 131.245 92.8838 147.229L92.994 161.669H99.2405H105.487L105.377 143.003C105.266 124.558 105.266 124.337 104.421 122.28C102.474 117.429 98.0647 115.004 92.0754 115.482C87.8866 115.813 86.1964 116.621 82.9262 119.854C81.3462 121.434 79.9867 122.72 79.8765 122.72C79.803 122.72 79.7295 116.915 79.7295 109.86V96.9998H73.2993H66.8691L66.9426 129.224Z" fill="white"/>
<path d="M115.004 102.695V108.391H121.25H127.497V102.695V97H121.25H115.004V102.695Z" fill="white"/>
<path d="M137.05 129.334V161.669H143.48H149.91V129.334V96.9998H143.48H137.05V129.334Z" fill="white"/>
<path d="M209.068 115.96C203.409 117.429 197.42 122.059 194.628 127.13C192.46 131.098 191.688 134.515 191.872 139.77C192.056 144.363 192.46 146.09 194.26 149.727C196.355 153.99 200.58 158.142 204.879 160.199C211.86 163.58 221.193 162.955 227.403 158.766C230.012 156.966 233.613 153.144 235.083 150.609C238.5 144.546 238.977 135.507 236.185 129.445C233.135 122.831 226.889 117.466 220.385 115.923C217.482 115.225 211.713 115.262 209.068 115.96ZM217.813 128.673C219.136 129.004 220.018 129.592 221.598 131.208C224.133 133.744 224.684 135.213 224.647 139.072C224.647 142.232 224.243 143.371 222.185 146.016C219.944 148.845 215.204 150.095 211.493 148.845C209.509 148.147 206.937 145.685 205.908 143.481C204.548 140.652 204.659 136.793 206.165 133.817C208.443 129.187 212.632 127.35 217.813 128.673Z" fill="white"/>
<path d="M175.447 116.107C169.091 117.429 163.101 122.022 160.382 127.644C158.435 131.686 157.884 134.626 158.104 139.623C158.472 147.192 160.199 151.454 164.755 155.974C167.915 159.097 170.266 160.493 173.977 161.485C177.174 162.367 181.73 162.588 185.148 162.036L188.124 161.596V155.423V149.286L183.788 149.323C179.599 149.36 179.416 149.323 176.954 148.111C173.169 146.237 171.295 143.297 171.258 139.035C171.148 131.87 175.851 127.865 183.678 128.342C185.405 128.453 187.132 128.636 187.499 128.783C188.087 129.04 188.124 128.6 188.124 122.61V116.217L186.764 115.96C184.817 115.666 177.211 115.739 175.447 116.107Z" fill="white"/>
<path d="M115.004 138.888V161.669H121.25H127.497V138.888V116.107H121.25H115.004V138.888Z" fill="white"/>
</g>
<defs>
<clipPath id="clip0_384_48">
<rect width="256" height="256" fill="white"/>
</clipPath>
</defs>
</svg>
