<svg width="256" height="256" viewBox="0 0 256 256" fill="none" xmlns="http://www.w3.org/2000/svg">
<g clip-path="url(#clip0_384_55)">
<rect width="256" height="256" rx="60" fill="#242938"/>
<path d="M18 127.334V159.669H25.165H32.3301V150.483V141.297L36.4822 141.26C38.7235 141.26 41.7733 141.04 43.1695 140.783C55.0745 138.578 61.6149 129.392 60.8433 115.944C60.2922 105.582 56.1034 99.7765 46.9541 96.69C43.4267 95.4775 38.0989 94.9998 27.9208 94.9998H18V127.334ZM39.3482 108.411C42.2877 109.146 43.8677 110.212 45.1904 112.269C46.1458 113.739 46.3662 114.584 46.55 116.752C46.8807 121.455 45.4476 124.432 41.8835 126.379C40.1565 127.334 39.4217 127.481 36.1147 127.628L32.3301 127.812V117.818V107.86H34.8287C36.1882 107.86 38.2459 108.117 39.3482 108.411Z" fill="white"/>
<path d="M66.9426 127.224L67.0529 159.485L73.3728 159.595L79.6927 159.669L79.803 145.817C79.9132 132.405 79.9499 131.854 80.7216 130.2C81.8974 127.665 83.955 126.416 86.8578 126.416C88.6215 126.416 89.3564 126.599 90.3485 127.298C92.7368 128.988 92.7735 129.245 92.8838 145.229L92.994 159.669H99.2405H105.487L105.377 141.003C105.266 122.558 105.266 122.337 104.421 120.28C102.474 115.429 98.0647 113.004 92.0754 113.482C87.8866 113.813 86.1964 114.621 82.9262 117.854C81.3462 119.434 79.9867 120.72 79.8765 120.72C79.803 120.72 79.7295 114.915 79.7295 107.86V94.9998H73.2993H66.8691L66.9426 127.224Z" fill="white"/>
<path d="M115.004 100.695V106.391H121.25H127.497V100.695V95H121.25H115.004V100.695Z" fill="white"/>
<path d="M137.05 127.334V159.669H143.48H149.91V127.334V94.9998H143.48H137.05V127.334Z" fill="white"/>
<path d="M209.068 113.96C203.409 115.429 197.42 120.059 194.628 125.13C192.46 129.098 191.688 132.515 191.872 137.77C192.056 142.363 192.46 144.09 194.26 147.727C196.355 151.99 200.58 156.142 204.879 158.199C211.86 161.58 221.193 160.955 227.403 156.766C230.012 154.966 233.613 151.144 235.083 148.609C238.5 142.546 238.977 133.507 236.185 127.445C233.135 120.831 226.889 115.466 220.385 113.923C217.482 113.225 211.713 113.262 209.068 113.96ZM217.813 126.673C219.136 127.004 220.018 127.592 221.598 129.208C224.133 131.744 224.684 133.213 224.647 137.072C224.647 140.232 224.243 141.371 222.185 144.016C219.944 146.845 215.204 148.095 211.493 146.845C209.509 146.147 206.937 143.685 205.908 141.481C204.548 138.652 204.659 134.793 206.165 131.817C208.443 127.187 212.632 125.35 217.813 126.673Z" fill="white"/>
<path d="M175.447 114.107C169.091 115.429 163.101 120.022 160.382 125.644C158.435 129.686 157.884 132.626 158.104 137.623C158.472 145.192 160.199 149.454 164.755 153.974C167.915 157.097 170.266 158.493 173.977 159.485C177.174 160.367 181.73 160.588 185.148 160.036L188.124 159.596V153.423V147.286L183.788 147.323C179.599 147.36 179.416 147.323 176.954 146.111C173.169 144.237 171.295 141.297 171.258 137.035C171.148 129.87 175.851 125.865 183.678 126.342C185.405 126.453 187.132 126.636 187.499 126.783C188.087 127.04 188.124 126.6 188.124 120.61V114.217L186.764 113.96C184.817 113.666 177.211 113.739 175.447 114.107Z" fill="white"/>
<path d="M115.004 136.888V159.669H121.25H127.497V136.888V114.107H121.25H115.004V136.888Z" fill="white"/>
</g>
<defs>
<clipPath id="clip0_384_55">
<rect width="256" height="256" fill="white"/>
</clipPath>
</defs>
</svg>
