<svg width="256" height="256" viewBox="0 0 256 256" fill="none" xmlns="http://www.w3.org/2000/svg">
<g clip-path="url(#clip0_384_129)">
<rect width="256" height="256" rx="60" fill="white"/>
<path fill-rule="evenodd" clip-rule="evenodd" d="M225.059 116.58C228.999 116.58 233.124 117.432 236.036 118.562V110.912C233.089 109.956 228.999 109 223.689 109C213.584 109 206.733 112.749 206.733 120.612C206.733 134.159 226.259 131.418 226.259 137.708C226.259 140.127 223.964 141.509 219.339 141.509C215.229 141.509 210.34 141.371 206.571 139.597V147.246C210.34 148.537 215.811 149.159 219.921 149.159C230.369 149.159 238 146.015 238 136.338C238 123.436 218.357 127.167 218.357 119.518C218.357 116.649 221.463 116.58 225.059 116.58ZM183.873 138.683H180.381V149.159H168.159V109C168.438 109 177.869 109.192 182.127 109C194.708 109.192 203.079 113.212 203.079 122.968C203.079 134.411 194.881 138.682 183.873 138.683ZM182.127 115.984C181.52 116.001 181.069 115.963 180.381 115.984V131.698H182.127C188.28 131.698 190.857 129.832 190.857 122.968C190.857 118.717 187.957 116.001 182.127 115.984ZM148.952 109H161.175V149.159H148.952V109ZM119.27 149.159V109H131.492V140.429H143.714L141.968 149.159H119.27ZM100.063 109H112.286V149.159H100.063V109ZM80.8571 133.444H68.6349V149.159H56.4127V109H68.6349V124.714H80.8571V109H93.0794V149.159H80.8571V133.444ZM33.7143 138.683H30.2222V149.159H18V109C18.2794 109 27.7102 109.192 31.9683 109C44.5497 109.192 52.9206 113.212 52.9206 122.968C52.9206 134.411 44.7226 138.682 33.7143 138.683ZM31.9683 115.984C31.3606 116.001 30.9102 115.963 30.2222 115.984V131.698H31.9683C38.1195 131.698 40.6984 129.832 40.6984 122.968C40.6984 118.717 37.7983 116.001 31.9683 115.984Z" fill="#0B5ED7"/>
</g>
<defs>
<clipPath id="clip0_384_129">
<rect width="256" height="256" fill="white"/>
</clipPath>
</defs>
</svg>
