<svg width="256" height="256" viewBox="0 0 256 256" fill="none" xmlns="http://www.w3.org/2000/svg">
<g clip-path="url(#clip0_384_62)">
<rect width="256" height="256" rx="60" fill="white"/>
<path d="M18 128.334V160.669H25.165H32.3301V151.483V142.297L36.4822 142.26C38.7235 142.26 41.7733 142.04 43.1695 141.783C55.0745 139.578 61.6149 130.392 60.8433 116.944C60.2922 106.582 56.1034 100.776 46.9541 97.69C43.4267 96.4775 38.0989 95.9998 27.9208 95.9998H18V128.334ZM39.3482 109.411C42.2877 110.146 43.8677 111.212 45.1904 113.269C46.1458 114.739 46.3662 115.584 46.55 117.752C46.8807 122.455 45.4476 125.432 41.8835 127.379C40.1565 128.334 39.4217 128.481 36.1147 128.628L32.3301 128.812V118.818V108.86H34.8287C36.1882 108.86 38.2459 109.117 39.3482 109.411Z" fill="black"/>
<path d="M66.9426 128.224L67.0529 160.485L73.3728 160.595L79.6927 160.669L79.803 146.817C79.9132 133.405 79.9499 132.854 80.7216 131.2C81.8974 128.665 83.955 127.416 86.8578 127.416C88.6215 127.416 89.3564 127.599 90.3485 128.298C92.7368 129.988 92.7735 130.245 92.8838 146.229L92.994 160.669H99.2405H105.487L105.377 142.003C105.266 123.558 105.266 123.337 104.421 121.28C102.474 116.429 98.0647 114.004 92.0754 114.482C87.8866 114.813 86.1964 115.621 82.9262 118.854C81.3462 120.434 79.9867 121.72 79.8765 121.72C79.803 121.72 79.7295 115.915 79.7295 108.86V95.9998H73.2993H66.8691L66.9426 128.224Z" fill="black"/>
<path d="M115.004 101.695V107.391H121.25H127.497V101.695V96H121.25H115.004V101.695Z" fill="black"/>
<path d="M137.05 128.334V160.669H143.48H149.91V128.334V95.9998H143.48H137.05V128.334Z" fill="black"/>
<path d="M209.068 114.96C203.409 116.429 197.42 121.059 194.628 126.13C192.46 130.098 191.688 133.515 191.872 138.77C192.056 143.363 192.46 145.09 194.26 148.727C196.355 152.99 200.58 157.142 204.879 159.199C211.86 162.58 221.193 161.955 227.403 157.766C230.012 155.966 233.613 152.144 235.083 149.609C238.5 143.546 238.977 134.507 236.185 128.445C233.135 121.831 226.889 116.466 220.385 114.923C217.482 114.225 211.713 114.262 209.068 114.96ZM217.813 127.673C219.136 128.004 220.018 128.592 221.598 130.208C224.133 132.744 224.684 134.213 224.647 138.072C224.647 141.232 224.243 142.371 222.185 145.016C219.944 147.845 215.204 149.095 211.493 147.845C209.509 147.147 206.937 144.685 205.908 142.481C204.548 139.652 204.659 135.793 206.165 132.817C208.443 128.187 212.632 126.35 217.813 127.673Z" fill="black"/>
<path d="M175.447 115.107C169.091 116.429 163.101 121.022 160.382 126.644C158.435 130.686 157.884 133.626 158.104 138.623C158.472 146.192 160.199 150.454 164.755 154.974C167.915 158.097 170.266 159.493 173.977 160.485C177.174 161.367 181.73 161.588 185.148 161.036L188.124 160.596V154.423V148.286L183.788 148.323C179.599 148.36 179.416 148.323 176.954 147.111C173.169 145.237 171.295 142.297 171.258 138.035C171.148 130.87 175.851 126.865 183.678 127.342C185.405 127.453 187.132 127.636 187.499 127.783C188.087 128.04 188.124 127.6 188.124 121.61V115.217L186.764 114.96C184.817 114.666 177.211 114.739 175.447 115.107Z" fill="black"/>
<path d="M115.004 137.888V160.669H121.25H127.497V137.888V115.107H121.25H115.004V137.888Z" fill="black"/>
</g>
<defs>
<clipPath id="clip0_384_62">
<rect width="256" height="256" fill="white"/>
</clipPath>
</defs>
</svg>
