<svg width="256" height="256" viewBox="0 0 256 256" fill="none" xmlns="http://www.w3.org/2000/svg">
<g clip-path="url(#clip0_364_78)">
<rect width="256" height="256" rx="60" fill="white"/>
<path fill-rule="evenodd" clip-rule="evenodd" d="M87.0505 165.885C87.5225 166.409 88.047 166.933 88.5452 167.432L90.1186 168.953L61.9559 203.041C60.3564 201.625 58.783 200.157 57.2621 198.636C55.7412 197.115 54.2728 195.647 52.883 194.047L86.9719 165.885H87.0505ZM98.8243 175.692L77.8466 214.684C74.1355 212.545 70.5703 210.162 67.1741 207.552L95.2057 173.069C96.3857 173.935 97.5919 174.721 98.8243 175.482V175.692ZM80.4688 157.336C81.203 158.542 82.0159 159.749 82.8812 160.929L48.5564 188.803C45.9488 185.414 43.5663 181.857 41.4239 178.157L80.4426 157.179L80.4688 157.336ZM108.684 180.49L95.7039 222.682C91.6615 221.301 87.7114 219.663 83.8777 217.778L104.646 178.681C105.974 179.293 107.312 179.844 108.658 180.333L108.684 180.49ZM75.6701 147.319C76.1596 148.683 76.7103 150.02 77.3221 151.331L38.2248 172.125C36.3246 168.29 34.6864 164.33 33.3213 160.273L75.6701 147.319ZM119.251 183.086L114.82 227.14C110.574 226.529 106.37 225.653 102.233 224.517L115.003 182.247C116.393 182.588 117.809 182.85 119.251 183.086ZM72.9168 136.752C73.1266 138.168 73.415 139.584 73.7559 141L31.3546 153.744C30.2527 149.615 29.4206 145.42 28.8635 141.183L72.9168 136.752ZM72.2612 125.869C72.2612 127.312 72.2612 128.78 72.2612 130.222L28.2079 134.497C27.9326 130.227 27.9326 125.944 28.2079 121.674L72.2612 125.869ZM130.16 183.716L134.408 227.795C130.138 228.057 125.855 228.057 121.585 227.795L125.833 183.716C127.274 183.794 128.719 183.794 130.16 183.716ZM140.99 182.247L153.76 224.649C149.623 225.785 145.419 226.66 141.173 227.271L136.742 183.217C138.158 182.981 139.6 182.719 140.99 182.378V182.247ZM73.7559 114.987C73.415 116.403 73.1266 117.819 72.9168 119.261L28.8635 114.804C29.4217 110.576 30.2538 106.389 31.3546 102.27L73.7559 115.013V114.987ZM151.347 178.681L172.115 217.778C168.27 219.656 164.311 221.294 160.263 222.682L147.335 180.333C148.664 179.844 150.001 179.293 151.347 178.681ZM77.4008 104.472C76.7977 105.783 76.2208 107.094 75.7226 108.484L33.4262 95.3731C34.8205 91.3194 36.476 87.3603 38.3821 83.5206L77.4008 104.498V104.472ZM160.761 173.069L188.793 207.447C185.384 210.04 181.82 212.422 178.12 214.579L157.169 175.692C158.401 174.931 159.581 174.145 160.761 173.279V173.069ZM82.8812 95.1895C82.0159 96.3695 81.203 97.5495 80.4688 98.782L41.4764 77.8042C43.6311 74.1112 46.0132 70.5556 48.6088 67.158L82.8812 95.1895ZM203.11 194.047C201.694 195.647 200.252 197.194 198.731 198.715C197.21 200.236 195.637 201.704 194.037 203.12L165.874 168.953L167.448 167.432L168.942 165.885L203.11 194.047ZM61.9559 52.8931L90.1186 86.982L88.5452 88.5029C88.047 89.0011 87.5225 89.5255 87.0505 90.05L52.9617 61.8873C54.3515 60.314 55.8199 58.7407 57.3408 57.2198C58.8617 55.6989 60.435 54.2304 62.0346 52.8407L61.9559 52.8931ZM214.569 178.13C212.428 181.84 210.045 185.405 207.437 188.803L173.138 160.771C174.003 159.591 174.816 158.385 175.55 157.179L214.569 178.157V178.13ZM77.8728 41.434L98.8505 80.4264C97.6181 81.1869 96.4119 81.9997 95.2319 82.8389L67.2004 48.5664C70.5965 45.956 74.1618 43.5733 77.8728 41.434ZM222.672 160.273C221.307 164.33 219.668 168.29 217.768 172.125L178.671 151.331C179.265 150.02 179.816 148.683 180.323 147.319L222.672 160.273ZM95.8088 33.2789L108.71 75.654C107.347 76.1435 106.009 76.6941 104.698 77.306L83.9563 38.1824C87.8019 36.3044 91.7603 34.6667 95.8088 33.2789ZM227.13 141.183C226.529 145.423 225.653 149.618 224.507 153.744L182.237 141C182.578 139.584 182.866 138.168 183.076 136.752L227.13 141.183ZM114.82 28.8473L119.251 72.9006C117.809 73.1366 116.393 73.4251 115.003 73.7398L102.233 31.4696C106.37 30.3333 110.574 29.4575 114.82 28.8473ZM227.785 121.595C228.074 125.856 228.074 130.131 227.785 134.392L183.732 130.17C183.732 128.728 183.732 127.285 183.732 125.817L227.785 121.595ZM134.408 28.1918L130.16 72.2713C128.709 72.2713 127.267 72.2713 125.833 72.2713L121.585 28.1918C125.855 27.9296 130.138 27.9296 134.408 28.1918ZM224.638 102.27C225.785 106.395 226.66 110.591 227.261 114.83L183.207 119.288C182.998 117.845 182.709 116.429 182.368 115.013L224.638 102.27ZM153.839 31.4696L140.99 73.7398C139.6 73.4251 138.158 73.1366 136.742 72.9006L141.173 28.8473C145.416 29.4058 149.62 30.229 153.76 31.3122L153.839 31.4696ZM172.194 38.3398L151.347 77.3322C150.01 76.7029 148.725 76.1522 147.335 75.654L160.263 33.3051C164.311 34.693 168.27 36.3306 172.115 38.2087L172.194 38.3398ZM217.742 83.914C219.631 87.7546 221.269 91.7137 222.646 95.7664L180.323 108.878C179.825 107.54 179.248 106.255 178.645 104.866L217.742 83.914ZM188.714 48.514L160.63 82.8126C159.45 81.9735 158.244 81.1606 157.011 80.4002L177.989 41.3816C181.7 43.5208 185.265 45.9035 188.662 48.514H188.714ZM207.332 67.0793C209.933 70.4637 212.315 74.0109 214.464 77.6993L175.498 98.6771C174.738 97.4446 173.951 96.2384 173.086 95.0584L207.332 67.0006V67.0793ZM194.037 52.8931C195.637 54.2829 197.184 55.7513 198.731 57.2722C200.278 58.7931 201.694 60.314 203.11 61.9398L169.021 90.1286C168.532 89.5692 168.033 89.0448 167.526 88.5553L165.953 87.0344L194.116 52.9455L194.037 52.8931Z" fill="url(#paint0_linear_364_78)"/>
</g>
<defs>
<linearGradient id="paint0_linear_364_78" x1="46.0653" y1="70.6193" x2="209.928" y2="185.368" gradientUnits="userSpaceOnUse">
<stop offset="0.19" stop-color="#71D7FC"/>
<stop offset="0.29" stop-color="#67CAF1"/>
<stop offset="0.47" stop-color="#4EA9D5"/>
<stop offset="0.7" stop-color="#2574A9"/>
<stop offset="0.89" stop-color="#004480"/>
</linearGradient>
<clipPath id="clip0_364_78">
<rect width="256" height="256" fill="white"/>
</clipPath>
</defs>
</svg>
