<svg width="256" height="256" viewBox="0 0 256 256" fill="none" xmlns="http://www.w3.org/2000/svg">
<g clip-path="url(#clip0_248_2933)">
<rect width="256" height="256" rx="60" fill="white"/>
<path d="M181.125 28H74.875C48.9867 28 28 48.9867 28 74.875V181.125C28 207.013 48.9867 228 74.875 228H181.125C207.013 228 228 207.013 228 181.125V74.875C228 48.9867 207.013 28 181.125 28Z" fill="#001E36"/>
<path d="M73 167.094V81.3439C73 80.7605 73.25 80.4272 73.8334 80.4272C75.25 80.4272 76.5834 80.4272 78.5 80.3439C80.5 80.2605 82.5834 80.2605 84.8334 80.1772C87.0834 80.0939 89.5 80.0939 92.0834 80.0105C94.6666 79.9272 97.1666 79.9272 99.6666 79.9272C106.5 79.9272 112.166 80.7605 116.834 82.5105C121 83.9272 124.834 86.2605 128 89.3439C130.666 92.0105 132.75 95.2605 134.084 98.8439C135.334 102.344 136 105.927 136 109.678C136 116.844 134.334 122.76 131 127.428C127.666 132.094 123 135.594 117.584 137.594C111.916 139.678 105.667 140.428 98.8334 140.428C96.8334 140.428 95.5 140.428 94.6666 140.344C93.8334 140.26 92.6666 140.26 91.0834 140.26V167.01C91.1666 167.594 90.75 168.094 90.1666 168.178C90.0834 168.178 90 168.178 89.8334 168.178H74C73.3334 168.178 73 167.844 73 167.094ZM91.1666 96.5105V124.51C92.3334 124.594 93.4166 124.678 94.4166 124.678H98.8334C102.083 124.678 105.333 124.178 108.416 123.178C111.084 122.428 113.416 120.844 115.25 118.76C117 116.678 117.834 113.844 117.834 110.178C117.916 107.594 117.25 105.011 115.916 102.761C114.5 100.594 112.5 98.9272 110.084 98.0105C107 96.7605 103.667 96.2605 100.25 96.3439C98.0834 96.3439 96.1666 96.3439 94.5834 96.4272C92.9166 96.3439 91.75 96.4272 91.1666 96.5105Z" fill="#31A8FF"/>
<path d="M188 119.427C185.5 118.094 182.833 117.177 180 116.594C176.916 115.927 173.833 115.51 170.666 115.51C169 115.427 167.25 115.677 165.666 116.094C164.583 116.344 163.666 116.927 163.083 117.76C162.666 118.427 162.416 119.26 162.416 120.01C162.416 120.76 162.75 121.51 163.25 122.177C164 123.094 165 123.844 166.083 124.427C168 125.427 170 126.344 172 127.177C176.5 128.677 180.833 130.76 184.833 133.26C187.583 135.01 189.833 137.344 191.416 140.177C192.75 142.844 193.416 145.76 193.333 148.76C193.416 152.677 192.25 156.594 190.083 159.844C187.75 163.177 184.5 165.76 180.75 167.26C176.666 169.01 171.666 169.927 165.666 169.927C161.833 169.927 158.083 169.594 154.333 168.844C151.416 168.344 148.5 167.427 145.833 166.177C145.25 165.844 144.833 165.26 144.916 164.594V150.094C144.916 149.844 145 149.51 145.25 149.344C145.5 149.177 145.75 149.26 146 149.427C149.25 151.344 152.666 152.677 156.333 153.51C159.5 154.344 162.833 154.76 166.166 154.76C169.333 154.76 171.583 154.344 173.083 153.594C174.416 153.01 175.333 151.594 175.333 150.094C175.333 148.927 174.666 147.844 173.333 146.76C172 145.677 169.25 144.427 165.166 142.844C160.916 141.344 157 139.344 153.333 136.844C150.75 135.01 148.583 132.594 147 129.76C145.666 127.094 145 124.177 145.083 121.26C145.083 117.677 146.083 114.26 147.916 111.177C150 107.844 153.083 105.177 156.666 103.51C160.583 101.51 165.5 100.594 171.416 100.594C174.833 100.594 178.333 100.844 181.75 101.344C184.25 101.677 186.666 102.344 188.916 103.26C189.25 103.344 189.583 103.677 189.75 104.01C189.833 104.344 189.916 104.677 189.916 105.01V118.594C189.916 118.927 189.75 119.26 189.5 119.427C188.75 119.594 188.333 119.594 188 119.427Z" fill="#31A8FF"/>
</g>
<defs>
<clipPath id="clip0_248_2933">
<rect width="256" height="256" fill="white"/>
</clipPath>
</defs>
</svg>
