<svg width="256" height="256" viewBox="0 0 256 256" fill="none" xmlns="http://www.w3.org/2000/svg">
<g clip-path="url(#clip0_248_5988)">
<rect width="256" height="256" rx="60" fill="white"/>
<mask id="mask0_248_5988" style="mask-type:luminance" maskUnits="userSpaceOnUse" x="57" y="61" width="50" height="63">
<path d="M57.8304 78.8236C57.8304 78.8236 67.5243 68.181 74.2382 63.7702C76.3772 62.3662 92.2869 54.0625 102.503 82.6412C108.093 98.2886 108.186 109.945 95.4814 114.915C87.8737 117.893 90.5927 123.467 90.5927 123.467" fill="white"/>
</mask>
<g mask="url(#mask0_248_5988)">
<path d="M57.8304 78.8236C57.8304 78.8236 67.5243 68.181 74.2382 63.7702C76.3772 62.3662 92.2869 54.0625 102.503 82.6412C108.093 98.2886 108.186 109.945 95.4814 114.915C87.8737 117.893 90.5927 123.467 90.5927 123.467" fill="url(#paint0_linear_248_5988)"/>
</g>
<path d="M73.3094 62.4727C66.4989 66.9467 56.9909 77.35 56.5898 77.7896C55.9954 78.4438 56.065 79.4383 56.7496 80.0074C57.4324 80.5758 58.4701 80.5103 59.0654 79.8554C59.1621 79.7492 68.7039 69.3091 75.1683 65.0639C75.3619 64.9344 80.0778 61.9081 85.8213 63.7291C91.8613 65.6451 97.0936 72.361 100.949 83.1482C107.085 100.324 105.265 109.392 94.8611 113.459C91.8595 114.637 89.8834 116.338 88.9895 118.526C87.8098 121.413 89.0524 124.02 89.106 124.131C89.4855 124.913 90.4497 125.245 91.2686 124.887C92.0896 124.532 92.454 123.604 92.0881 122.816C92.0818 122.801 91.3801 121.255 92.0641 119.635C92.6265 118.298 93.9853 117.196 96.1037 116.37C111.799 110.226 108.597 94.8448 104.055 82.1296C99.794 70.2102 94.0081 63.0177 86.8561 60.7472C79.7066 58.479 73.9415 62.0594 73.3094 62.4727Z" fill="#363254"/>
<mask id="mask1_248_5988" style="mask-type:luminance" maskUnits="userSpaceOnUse" x="188" y="84" width="24" height="6">
<path d="M188.189 84.9829H208.548C210.257 84.9829 211.64 86.1068 211.64 87.489C211.64 88.8719 210.257 89.9937 208.548 89.9937H192.568L188.189 84.9829Z" fill="white"/>
</mask>
<g mask="url(#mask1_248_5988)">
<path d="M188.189 84.9829H208.548C210.257 84.9829 211.64 86.1068 211.64 87.489C211.64 88.8719 210.257 89.9937 208.548 89.9937H192.568L188.189 84.9829Z" fill="url(#paint1_linear_248_5988)"/>
</g>
<path d="M208.548 86.5558C209.403 86.5558 209.997 87.0497 209.997 87.4916C209.997 87.9327 209.403 88.4266 208.548 88.4266C208.548 88.4266 194.728 88.4266 193.336 88.4266C193.009 88.0547 192.519 87.4893 191.702 86.5558C196.514 86.5558 208.548 86.5558 208.548 86.5558ZM184.677 83.415L191.801 91.5681H208.548C211.16 91.5681 213.282 89.7395 213.282 87.4916C213.282 85.2429 211.16 83.415 208.548 83.415H184.677Z" fill="#363254"/>
<path d="M214.849 79.1601C217.648 77.8374 220.919 78.1611 222.163 79.8821C223.401 81.6075 222.137 84.0715 219.339 85.3995C216.545 86.7207 209.221 88.319 207.979 86.5912C206.736 84.8703 212.054 80.4821 214.849 79.1601Z" fill="#8B9DD7"/>
<path d="M215.574 80.5671C217.746 79.5417 220.13 79.8308 220.81 80.7741C220.999 81.0383 221.043 81.3417 220.944 81.7046C220.769 82.3596 220.062 83.3036 218.609 83.9924C215.91 85.2677 211.117 86.016 209.636 85.6547C210.182 84.4373 213.18 81.7008 215.574 80.5671ZM214.122 77.7523C211.781 78.8567 207.02 82.3776 206.267 85.1608L206.629 87.4818C208.878 90.615 217.951 87.8077 220.066 86.8057C222.173 85.8082 223.651 84.2363 224.124 82.4928C224.461 81.2499 224.245 80.007 223.514 78.9914C221.8 76.6155 217.677 76.072 214.122 77.7523Z" fill="#363254"/>
<path d="M219.822 89.3279C222.823 90.3216 224.494 92.623 223.568 94.4704C222.634 96.3201 219.45 97.0067 216.451 96.0099C213.457 95.0185 207.434 91.2799 208.364 89.4348C209.297 87.5813 216.827 88.3341 219.822 89.3279Z" fill="#8B9DD7"/>
<path d="M219.283 90.8108H219.285C220.897 91.3476 221.78 92.2397 222.066 92.8976C222.284 93.4005 222.137 93.6956 222.087 93.792C221.593 94.7722 219.305 95.2946 216.989 94.526C214.343 93.6505 210.784 91.1835 210.114 90.0482C211.356 89.6357 216.388 89.8494 219.283 90.8108ZM206.885 88.7533L206.887 91.0321C208.043 93.6956 213.377 96.655 215.914 97.4959C219.731 98.7644 223.744 97.7353 225.046 95.1568C225.323 94.6005 225.461 94.0035 225.461 93.3983C225.461 92.8276 225.34 92.251 225.095 91.6863C224.36 89.9963 222.634 88.5983 220.358 87.8454C218.088 87.0904 208.601 85.3453 206.885 88.7533Z" fill="#363254"/>
<path d="M220.26 83.6342C224.713 83.6055 228.341 85.197 228.357 87.1928C228.379 89.1877 224.79 90.8274 220.335 90.856C215.888 90.8861 205.812 89.3406 205.792 87.3471C205.771 85.3491 215.813 83.6673 220.26 83.6342Z" fill="#8B9DD7"/>
<path d="M226.716 87.2075C226.716 87.2835 226.644 87.4318 226.445 87.6261C225.64 88.4113 223.378 89.265 220.325 89.2845C216.506 89.3101 210.466 88.2825 208.142 87.3287C210.45 86.3395 216.46 85.2306 220.273 85.205H220.272C224.489 85.1771 226.712 86.6798 226.716 87.2075ZM220.25 82.0619H220.248C217.013 82.0853 207.407 83.2153 204.942 85.6107L204.151 87.3626C204.196 91.9804 220.185 92.4276 220.347 92.4276C223.93 92.4027 227.165 91.4082 228.788 89.8296C229.592 89.0474 230.01 88.132 230 87.1766C229.975 84.1796 225.874 82.0273 220.25 82.0619Z" fill="#363254"/>
<mask id="mask2_248_5988" style="mask-type:luminance" maskUnits="userSpaceOnUse" x="72" y="134" width="46" height="55">
<path d="M117.294 134.823V175.161C117.294 185.107 107.343 188.672 95.0716 188.672C82.7978 188.672 72.8522 185.107 72.8522 175.161V134.347" fill="white"/>
</mask>
<g mask="url(#mask2_248_5988)">
<path d="M117.294 134.823V175.161C117.294 185.107 107.343 188.672 95.0716 188.672C82.7978 188.672 72.8522 185.107 72.8522 175.161V134.347" fill="url(#paint2_linear_248_5988)"/>
</g>
<path d="M71.2106 134.347V175.161C71.2106 184.888 79.6823 190.243 95.0716 190.243C110.461 190.243 118.936 184.888 118.936 175.161V134.823C118.936 133.955 118.2 133.251 117.294 133.251C116.387 133.251 115.652 133.955 115.652 134.823V175.161C115.652 185.03 104.462 187.101 95.0716 187.101C85.6846 187.101 74.4945 185.03 74.4945 175.161V134.347C74.4945 133.481 73.7586 132.777 72.8523 132.777C71.9462 132.777 71.2106 133.481 71.2106 134.347Z" fill="#363254"/>
<path d="M82.5908 175.113C82.5908 179.137 80.2391 182.408 77.3369 182.408C74.4343 182.408 72.082 179.137 72.082 175.113C72.082 171.082 74.4343 161.98 77.3369 161.98C80.2391 161.98 82.5908 171.082 82.5908 175.113Z" fill="#8B9DD7"/>
<path d="M72.6299 175.113C72.6299 170.729 75.1221 162.503 77.3369 162.503C79.5507 162.503 82.0438 170.729 82.0438 175.113C82.0438 178.848 79.9335 181.885 77.3369 181.885C74.742 181.885 72.6299 178.848 72.6299 175.113ZM71.5341 175.113C71.5341 179.424 74.1363 182.933 77.3369 182.933C80.5362 182.933 83.1373 179.424 83.1373 175.113C83.1373 171.175 80.8265 161.454 77.3369 161.454C73.8482 161.454 71.5341 171.175 71.5341 175.113Z" fill="#363254"/>
<path d="M73.4974 175.84C73.4974 171.964 76.3413 164.985 78.4172 164.985C78.6161 164.985 78.811 165.084 78.9986 165.234C78.4797 164.005 77.8853 163.192 77.2556 163.192C75.1781 163.192 73.4974 171.965 73.4974 175.84Z" fill="#A6BDE6"/>
<path d="M85.0688 178.988C85.0688 182.097 83.1992 184.618 80.8911 184.618C78.5809 184.618 76.7086 182.097 76.7086 178.988C76.7086 175.869 78.5809 168.847 80.8911 168.847C83.1992 168.847 85.0688 175.869 85.0688 178.988Z" fill="#8B9DD7"/>
<path d="M77.2556 178.988C77.2556 175.729 79.2192 169.372 80.8911 169.372C82.5632 169.372 84.5209 175.729 84.5209 178.988C84.5209 181.803 82.8917 184.095 80.8911 184.095C78.8854 184.095 77.2556 181.803 77.2556 178.988ZM76.1613 178.988C76.1613 182.38 78.2832 185.143 80.8911 185.143C83.4951 185.143 85.6162 182.38 85.6162 178.988C85.6162 176.334 83.9395 168.324 80.8911 168.324C77.8379 168.324 76.1613 176.334 76.1613 178.988Z" fill="#363254"/>
<path d="M78.4661 177.137C78.2559 174.921 80.2154 171.244 81.742 170.975C81.8849 170.956 82.0319 170.99 82.1781 171.051C81.7307 170.414 81.2243 169.906 80.7906 170.105C79.2794 170.821 78.2559 174.929 78.4661 177.137Z" fill="#A6BDE6"/>
<mask id="mask3_248_5988" style="mask-type:luminance" maskUnits="userSpaceOnUse" x="140" y="134" width="46" height="56">
<path d="M185.277 135.317V175.654C185.277 185.602 175.327 189.165 163.055 189.165C150.782 189.165 140.832 185.602 140.832 175.654V134.841" fill="white"/>
</mask>
<g mask="url(#mask3_248_5988)">
<path d="M185.277 135.317V175.654C185.277 185.602 175.327 189.165 163.055 189.165C150.782 189.165 140.832 185.602 140.832 175.654V134.841" fill="url(#paint3_linear_248_5988)"/>
</g>
<path d="M139.189 134.84V175.653C139.189 185.378 147.665 190.735 163.055 190.735C169.981 190.735 175.536 189.65 179.565 187.512C184.375 184.958 186.918 180.859 186.918 175.653V135.316C186.918 134.448 186.183 133.745 185.277 133.745C184.37 133.745 183.636 134.448 183.636 135.316V175.653C183.636 179.762 181.782 182.742 177.97 184.766C174.484 186.615 169.327 187.593 163.055 187.593C153.666 187.593 142.475 185.519 142.475 175.653V134.84C142.475 133.971 141.738 133.268 140.832 133.268C139.926 133.268 139.189 133.971 139.189 134.84Z" fill="#363254"/>
<path d="M150.573 175.604C150.573 179.628 148.222 182.904 145.321 182.904C142.414 182.904 140.064 179.628 140.064 175.604C140.064 171.575 142.414 162.472 145.321 162.472C148.222 162.472 150.573 171.575 150.573 175.604Z" fill="#7483CA"/>
<path d="M140.609 175.603C140.609 173.546 141.233 170.292 142.123 167.691C143.113 164.795 144.339 162.995 145.321 162.995C147.533 162.995 150.026 171.22 150.026 175.603C150.026 179.34 147.916 182.379 145.321 182.379C142.723 182.379 140.609 179.34 140.609 175.603ZM141.082 167.365C140.159 170.058 139.515 173.447 139.515 175.603C139.515 179.916 142.119 183.427 145.321 183.427C148.519 183.427 151.12 179.916 151.12 175.603C151.12 171.665 148.809 161.949 145.321 161.949C143.349 161.949 141.928 164.892 141.082 167.365Z" fill="#363254"/>
<path d="M141.482 176.336C141.482 172.458 144.324 165.475 146.4 165.475C146.6 165.475 146.794 165.576 146.982 165.724C146.461 164.498 145.869 163.683 145.239 163.683C143.161 163.683 141.482 172.458 141.482 176.336Z" fill="#839AD6"/>
<path d="M153.053 179.478C153.053 182.592 151.184 185.107 148.873 185.107C146.565 185.107 144.694 182.592 144.694 179.478C144.694 176.361 146.565 169.339 148.873 169.339C151.184 169.339 153.053 176.361 153.053 179.478Z" fill="#7483CA"/>
<path d="M145.242 179.478C145.242 176.219 147.201 169.864 148.874 169.864C150.543 169.864 152.505 176.219 152.505 179.478C152.505 182.294 150.875 184.586 148.874 184.586C146.87 184.586 145.242 182.294 145.242 179.478ZM144.147 179.478C144.147 182.874 146.267 185.632 148.874 185.632C151.48 185.632 153.6 182.874 153.6 179.478C153.6 176.824 151.922 168.816 148.874 168.816C145.822 168.816 144.147 176.824 144.147 179.478Z" fill="#363254"/>
<path d="M146.451 177.628C146.237 175.414 148.198 171.737 149.725 171.467C149.869 171.448 150.017 171.48 150.161 171.542C149.714 170.905 149.207 170.397 148.773 170.596C147.261 171.312 146.237 175.419 146.451 177.628Z" fill="#839AD6"/>
<mask id="mask4_248_5988" style="mask-type:luminance" maskUnits="userSpaceOnUse" x="90" y="79" width="15" height="42">
<path d="M98.5983 79.7297C107.253 93.6871 106.331 105.478 94.7991 111.658C87.8949 115.361 91.6958 120.244 91.6958 120.244" fill="white"/>
</mask>
<g mask="url(#mask4_248_5988)">
<path d="M98.5983 79.7297C107.253 93.6871 106.331 105.478 94.7991 111.658C87.8949 115.361 91.6958 120.244 91.6958 120.244" fill="url(#paint4_linear_248_5988)"/>
</g>
<path d="M97.7613 78.3796C96.98 78.823 96.7212 79.7874 97.1858 80.5334C102.004 88.2988 103.728 95.3316 102.174 100.867C101.07 104.802 98.3157 107.972 93.998 110.29C91.2686 111.752 89.6406 113.597 89.1564 115.769C88.4977 118.722 90.303 121.085 90.3803 121.184C90.9187 121.875 91.9348 122.015 92.6632 121.507C93.39 120.998 93.5488 120.017 93.022 119.317C93.014 119.304 92.0134 117.945 92.3742 116.396C92.6632 115.157 93.7496 114.025 95.6014 113.031C100.724 110.283 104.004 106.467 105.347 101.681C107.134 95.3083 105.291 87.4406 100.01 78.9291C99.5479 78.1823 98.5384 77.9377 97.7613 78.3796Z" fill="#080604"/>
<mask id="mask5_248_5988" style="mask-type:luminance" maskUnits="userSpaceOnUse" x="31" y="69" width="172" height="122">
<path d="M149.156 69.8341C149.156 69.8341 134.787 69.6663 82.2849 71.3917C29.7863 73.1164 31.7238 91.7887 31.6423 118.604V183.103C31.6423 188.559 36.4082 190.759 42.289 190.759C48.1689 190.759 52.942 188.559 52.942 183.103C52.942 183.103 54.2978 164.673 55.4683 153.462C58.0868 112.734 107.655 160.159 143.689 157.946C176.433 155.933 202.219 144.723 202.219 118.081C202.219 91.4334 185.32 69.8341 149.156 69.8341Z" fill="white"/>
</mask>
<g mask="url(#mask5_248_5988)">
<path d="M149.156 69.8341C149.156 69.8341 134.787 69.6663 82.2849 71.3917C29.7863 73.1164 31.7238 91.7887 31.6423 118.604V183.103C31.6423 188.559 36.4082 190.759 42.289 190.759C48.1689 190.759 52.942 188.559 52.942 183.103C52.942 183.103 54.2978 164.673 55.4683 153.462C58.0868 112.734 107.655 160.159 143.689 157.946C176.433 155.933 202.219 144.723 202.219 118.081C202.219 91.4334 185.32 69.8341 149.156 69.8341Z" fill="url(#paint5_linear_248_5988)"/>
</g>
<path d="M33.2838 183.105V118.606C33.2838 118.612 33.288 115.764 33.288 115.764C33.2969 90.9602 33.304 74.5735 82.34 72.9625C134.161 71.2611 148.991 71.4042 149.136 71.4049H149.156C165.666 71.4049 179.12 76.1251 188.063 85.0536C196.25 93.2247 200.577 104.646 200.577 118.083C200.577 146.839 169.584 154.782 143.584 156.381C129.9 157.219 113.759 150.509 99.5183 144.586C83.5551 137.949 69.7692 132.218 61.2814 137.193C56.7983 139.821 54.3615 145.112 53.8308 153.368C52.6771 164.412 51.3169 182.808 51.3042 182.995C51.3003 188.399 45.6543 189.191 42.2889 189.191C38.9268 189.191 33.2838 188.399 33.2838 183.105ZM82.2295 69.8247C30.0208 71.5389 30.0119 90.0885 30.0042 115.762L30 118.602V183.105C30 188.882 34.5946 192.335 42.2889 192.335C49.9901 192.335 54.5841 188.882 54.5841 183.105C54.5936 183.029 55.9473 164.677 57.1028 153.619C57.5679 146.402 59.495 141.926 62.9962 139.872C70.0297 135.752 83.7139 141.442 98.2093 147.469C112.791 153.532 129.318 160.405 143.794 159.515C182.529 157.133 203.861 142.419 203.861 118.083C203.861 103.821 199.217 91.6491 190.434 82.8787C180.858 73.3186 166.583 68.2641 149.156 68.2641H149.176C149.032 68.2624 134.166 68.1143 82.2295 69.8247Z" fill="#363254"/>
<mask id="mask6_248_5988" style="mask-type:luminance" maskUnits="userSpaceOnUse" x="33" y="119" width="4" height="64">
<path d="M33.0745 120.375C33.1306 126.432 32.2716 179.339 35.6406 182.516C34.5821 180.173 36.8977 128.917 36.868 125.696L36.8369 123.81C36.8369 122.913 36.8369 122.029 36.8369 121.148C35.5383 120.672 34.2779 120.087 33.0612 119.418L33.0745 120.375Z" fill="white"/>
</mask>
<g mask="url(#mask6_248_5988)">
<path d="M33.0745 120.375C33.1306 126.432 32.2716 179.339 35.6406 182.516C34.5821 180.173 36.8977 128.917 36.868 125.696L36.8369 123.81C36.8369 122.913 36.8369 122.029 36.8369 121.148C35.5383 120.672 34.2779 120.087 33.0612 119.418L33.0745 120.375Z" fill="url(#paint6_linear_248_5988)"/>
</g>
<mask id="mask7_248_5988" style="mask-type:luminance" maskUnits="userSpaceOnUse" x="33" y="71" width="162" height="51">
<path d="M149.136 71.6122C149.136 71.6122 135.079 71.4481 83.7101 73.1359C32.3437 74.8238 33.132 93.5962 33.132 118.834L33.1427 119.767C34.3316 120.437 35.5638 121.022 36.8283 121.498C36.8402 97.6132 37.8642 80.0883 87.4084 78.4607C138.775 76.7728 152.837 76.9369 152.837 76.9369C172.481 76.9369 186.005 83.5151 194.426 93.7783C186.673 80.497 171.996 71.6122 149.136 71.6122Z" fill="white"/>
</mask>
<g mask="url(#mask7_248_5988)">
<path d="M149.136 71.6122C149.136 71.6122 135.079 71.4481 83.7101 73.1359C32.3437 74.8238 33.132 93.5962 33.132 118.834L33.1427 119.767C34.3316 120.437 35.5638 121.022 36.8283 121.498C36.8402 97.6132 37.8642 80.0883 87.4084 78.4607C138.775 76.7728 152.837 76.9369 152.837 76.9369C172.481 76.9369 186.005 83.5151 194.426 93.7783C186.673 80.497 171.996 71.6122 149.136 71.6122Z" fill="url(#paint7_linear_248_5988)"/>
</g>
<mask id="mask8_248_5988" style="mask-type:luminance" maskUnits="userSpaceOnUse" x="86" y="138" width="46" height="58">
<path d="M131.245 153.327V182.053C131.245 192 121.292 195.572 109.02 195.572C96.7472 195.572 86.7998 192 86.7998 182.053V138.33" fill="white"/>
</mask>
<g mask="url(#mask8_248_5988)">
<path d="M131.245 153.327V182.053C131.245 192 121.292 195.572 109.02 195.572C96.7472 195.572 86.7998 192 86.7998 182.053V138.33" fill="url(#paint8_linear_248_5988)"/>
</g>
<path d="M85.1581 138.332V182.055C85.1581 191.785 93.6346 197.143 109.02 197.143C124.41 197.143 132.887 191.785 132.887 182.055V153.329C132.887 152.461 132.151 151.757 131.245 151.757C130.34 151.757 129.603 152.461 129.603 153.329V182.055C129.603 191.929 118.411 194.002 109.02 194.002C99.6336 194.002 88.4419 191.929 88.4419 182.055V138.332C88.4419 137.464 87.7064 136.761 86.8 136.761C85.8934 136.761 85.1581 137.464 85.1581 138.332Z" fill="#363254"/>
<path d="M100.779 184.841C100.779 188.583 97.641 191.618 93.7665 191.618C89.8924 191.618 86.7535 188.583 86.7535 184.841C86.7535 181.095 89.8924 172.64 93.7665 172.64C97.641 172.64 100.779 181.095 100.779 184.841Z" fill="#8B9DD7"/>
<path d="M87.3011 184.842C87.3011 181.194 90.4273 173.161 93.7666 173.161C97.1061 173.161 100.232 181.194 100.232 184.842C100.232 188.291 97.3338 191.095 93.7666 191.095C90.2037 191.095 87.3011 188.291 87.3011 184.842ZM86.2056 184.842C86.2056 188.866 89.5974 192.142 93.7666 192.142C97.9363 192.142 101.327 188.866 101.327 184.842C101.327 181.047 98.1367 172.113 93.7666 172.113C89.4002 172.113 86.2056 181.047 86.2056 184.842Z" fill="#363254"/>
<path d="M87.951 185.289C87.951 181.938 91.8773 175.919 94.7499 175.919C95.0236 175.919 95.2892 176.005 95.5546 176.136C94.8309 175.077 94.014 174.373 93.1466 174.373C90.2727 174.373 87.951 181.943 87.951 185.289Z" fill="#A6BDE6"/>
<path d="M106.492 185.371C106.492 190.306 103.242 194.321 99.2321 194.321C95.2166 194.321 91.9666 190.306 91.9666 185.371C91.9666 180.429 95.2166 169.27 99.2321 169.27C103.242 169.27 106.492 180.429 106.492 185.371Z" fill="#8B9DD7"/>
<path d="M92.5133 185.371C92.5133 180.504 95.7633 169.792 99.2321 169.792C102.7 169.792 105.945 180.504 105.945 185.371C105.945 190.016 102.934 193.796 99.2321 193.796C95.5288 193.796 92.5133 190.016 92.5133 185.371ZM91.4189 185.371C91.4189 190.594 94.9245 194.845 99.2321 194.845C103.538 194.845 107.04 190.594 107.04 185.371C107.04 180.41 103.743 168.748 99.2321 168.748C94.72 168.748 91.4189 180.41 91.4189 185.371Z" fill="#363254"/>
<path d="M93.9246 186.266C93.9246 181.507 97.8547 172.955 100.724 172.955C100.997 172.955 101.267 173.079 101.528 173.261C100.81 171.751 99.9876 170.755 99.1207 170.755C96.2466 170.755 93.9246 181.514 93.9246 186.266Z" fill="#A6BDE6"/>
<path d="M110.303 188.029C110.303 191.522 107.963 194.354 105.077 194.354C102.191 194.354 99.8514 191.522 99.8514 188.029C99.8514 184.518 102.191 176.623 105.077 176.623C107.963 176.623 110.303 184.518 110.303 188.029Z" fill="#8B9DD7"/>
<path d="M100.399 188.029C100.399 184.245 102.88 177.146 105.077 177.146C107.279 177.146 109.756 184.245 109.756 188.029C109.756 191.229 107.658 193.829 105.077 193.829C102.498 193.829 100.399 191.229 100.399 188.029ZM99.304 188.029C99.304 191.805 101.896 194.877 105.077 194.877C108.263 194.877 110.849 191.805 110.849 188.029C110.849 184.589 108.549 176.099 105.077 176.099C101.606 176.099 99.304 184.589 99.304 188.029Z" fill="#363254"/>
<path d="M102.049 185.942C101.785 183.447 104.234 179.311 106.142 179.013C106.322 178.984 106.505 179.026 106.689 179.095C106.129 178.376 105.496 177.806 104.954 178.032C103.063 178.838 101.785 183.456 102.049 185.942Z" fill="#A6BDE6"/>
<mask id="mask9_248_5988" style="mask-type:luminance" maskUnits="userSpaceOnUse" x="154" y="133" width="46" height="62">
<path d="M199.25 133.588V180.932C199.25 190.878 189.298 194.447 177.026 194.447C164.752 194.447 154.807 190.878 154.807 180.932V153.73" fill="white"/>
</mask>
<g mask="url(#mask9_248_5988)">
<path d="M199.25 133.588V180.932C199.25 190.878 189.298 194.447 177.026 194.447C164.752 194.447 154.807 190.878 154.807 180.932V153.73" fill="url(#paint9_linear_248_5988)"/>
</g>
<path d="M197.606 133.589V180.932C197.606 190.806 186.414 192.876 177.026 192.876C167.64 192.876 156.449 190.806 156.449 180.932V153.73C156.449 152.863 155.714 152.159 154.807 152.159C153.9 152.159 153.165 152.863 153.165 153.73V180.932C153.165 190.661 161.639 196.02 177.026 196.02C192.415 196.02 200.891 190.661 200.891 180.932V133.589C200.891 132.721 200.157 132.019 199.25 132.019C198.343 132.019 197.606 132.721 197.606 133.589Z" fill="#363254"/>
<path d="M168.786 183.716C168.786 187.456 165.647 190.49 161.773 190.49C157.899 190.49 154.76 187.456 154.76 183.716C154.76 179.97 157.899 171.513 161.773 171.513C165.647 171.513 168.786 179.97 168.786 183.716Z" fill="#8B9DD7"/>
<path d="M155.308 183.718C155.308 180.069 158.433 172.04 161.773 172.04C165.114 172.04 168.239 180.069 168.239 183.718C168.239 187.164 165.338 189.97 161.773 189.97C158.208 189.97 155.308 187.164 155.308 183.718ZM154.213 183.718C154.213 187.742 157.604 191.017 161.773 191.017C165.942 191.017 169.333 187.742 169.333 183.718C169.333 179.922 166.141 170.991 161.773 170.991C157.405 170.991 154.213 179.922 154.213 183.718Z" fill="#363254"/>
<path d="M155.957 184.163C155.957 180.813 159.883 174.794 162.756 174.794C163.03 174.794 163.295 174.879 163.561 175.009C162.838 173.95 162.022 173.247 161.153 173.247C158.28 173.247 155.957 180.818 155.957 184.163Z" fill="#A6BDE6"/>
<path d="M174.5 184.245C174.5 189.183 171.25 193.197 167.237 193.197C163.222 193.197 159.972 189.183 159.972 184.245C159.972 179.304 163.222 168.147 167.237 168.147C171.25 168.147 174.5 179.304 174.5 184.245Z" fill="#8B9DD7"/>
<path d="M160.52 184.244C160.52 179.377 163.767 168.669 167.237 168.669C170.707 168.669 173.952 179.377 173.952 184.244C173.952 188.891 170.939 192.673 167.237 192.673C163.532 192.673 160.52 188.891 160.52 184.244ZM159.425 184.244C159.425 189.469 162.929 193.719 167.237 193.719C171.543 193.719 175.046 189.469 175.046 184.244C175.046 179.286 171.75 167.621 167.237 167.621C162.723 167.621 159.425 179.286 159.425 184.244Z" fill="#363254"/>
<path d="M161.931 185.142C161.931 180.384 165.861 171.832 168.73 171.832C169.004 171.832 169.273 171.955 169.535 172.136C168.817 170.626 167.996 169.633 167.127 169.633C164.253 169.633 161.931 180.388 161.931 185.142Z" fill="#A6BDE6"/>
<path d="M178.308 186.903C178.308 190.399 175.97 193.23 173.084 193.23C170.198 193.23 167.858 190.399 167.858 186.903C167.858 183.394 170.198 175.497 173.084 175.497C175.97 175.497 178.308 183.394 178.308 186.903Z" fill="#8B9DD7"/>
<path d="M168.405 186.903C168.405 183.12 170.884 176.023 173.084 176.023C175.284 176.023 177.763 183.12 177.763 186.903C177.763 190.104 175.662 192.706 173.084 192.706C170.505 192.706 168.405 190.104 168.405 186.903ZM167.31 186.903C167.31 190.682 169.899 193.752 173.084 193.752C176.267 193.752 178.855 190.682 178.855 186.903C178.855 183.465 176.556 174.974 173.084 174.974C169.611 174.974 167.31 183.465 167.31 186.903Z" fill="#363254"/>
<path d="M170.056 184.818C169.792 182.322 172.241 178.188 174.149 177.888C174.328 177.86 174.512 177.9 174.696 177.97C174.134 177.25 173.503 176.684 172.96 176.906C171.069 177.711 169.792 182.331 170.056 184.818Z" fill="#A6BDE6"/>
<path d="M45.5645 92.3029C44.9846 93.0843 45.1892 94.1586 46.025 94.7051C46.8575 95.2509 48.0052 95.056 48.5845 94.2768C51.8864 89.8268 59.3131 88.6005 62.8439 89.8645C63.5474 90.1174 64.4366 90.0075 64.8253 89.6138C65.2136 89.2253 64.9596 88.7029 64.2545 88.4507C59.4201 86.7177 49.9362 86.4038 45.5645 92.3029Z" fill="#363254"/>
<path d="M59.8755 111.863C56.8262 112.5 54.1377 110.808 53.8732 108.084C53.6096 105.356 55.87 102.63 58.9202 101.987C61.9728 101.347 64.6605 103.034 64.927 105.764C65.1888 108.492 62.929 111.217 59.8755 111.863ZM66.1811 105.401C65.8755 102.222 62.7004 100.266 59.0821 101.021C55.4683 101.78 52.7837 104.963 53.0873 108.137C53.3915 111.309 56.5676 113.271 60.1818 112.518C63.7997 111.757 66.4853 108.575 66.1811 105.401Z" fill="#363254"/>
<path d="M64.7339 105.984C64.9655 108.382 62.9882 110.784 60.3181 111.344C57.637 111.91 55.2861 110.418 55.0472 108.02C54.8175 105.622 56.795 103.223 59.4663 102.662C62.1448 102.098 64.502 103.584 64.7339 105.984Z" fill="#FCFCFC"/>
<path d="M64.3426 106.008C63.6194 104.181 61.6991 103.122 60.0706 103.631C59.1977 103.899 58.5997 104.568 58.321 105.405L60.5974 106.522L58.506 108.019C59.281 109.742 61.1142 110.732 62.6962 110.24C64.3313 109.725 65.0651 107.835 64.3426 106.008Z" fill="#363254"/>
<path d="M62.6666 105.226C63.0718 105.168 63.5489 105.654 63.7224 106.33C63.8972 106.997 63.709 107.59 63.2948 107.653C62.8851 107.714 62.4089 107.224 62.2334 106.551C62.0632 105.885 62.2554 105.293 62.6666 105.226Z" fill="white"/>
<path d="M56.0443 102.472C53.19 104.657 52.2878 107.83 54.2161 109.629C54.0489 109.558 54.413 110.02 54.2588 109.934C51.2225 108.264 50.7153 103.306 53.5105 100.389C55.9099 97.8823 63.1103 96.0235 63.057 96.9902C62.7599 98.0991 60.6519 99.5068 58.0345 101.037C57.192 101.512 56.5844 102.06 56.0443 102.472Z" fill="#363254"/>
<path d="M102.942 133.265C102.795 134.009 103.303 134.619 104.068 134.619H108.465C109.232 134.619 109.976 134.009 110.124 133.265L111.296 127.279C111.443 126.533 112.186 125.924 112.953 125.924H117.712C120.426 125.924 122.659 125.641 124.41 125.074C126.165 124.51 127.756 123.56 129.193 122.229C130.393 121.132 131.369 119.923 132.113 118.597C132.857 117.276 133.388 115.815 133.7 114.218C134.46 110.342 133.712 107.459 131.983 105.156C129.811 102.273 124.27 102.12 124.27 102.12C123.512 102.007 122.268 101.911 121.502 101.911H110.476C109.711 101.911 108.966 102.522 108.818 103.268L102.942 133.265ZM120.172 107.073C122.902 107.073 124.718 107.573 125.628 108.572C126.536 109.571 126.754 111.288 126.28 113.717C125.781 116.249 124.825 118.058 123.408 119.14C121.992 120.221 118.325 120.612 118.325 120.612C117.562 120.695 116.312 120.762 115.548 120.762H113.965C113.2 120.762 112.691 120.152 112.838 119.407L114.989 108.429C115.135 107.684 115.881 107.073 116.645 107.073H120.172Z" fill="#363254"/>
<path d="M102.942 133.265C102.795 134.009 103.303 134.619 104.068 134.619H108.465C109.232 134.619 109.976 134.009 110.124 133.265L111.296 127.279C111.443 126.533 112.186 125.924 112.953 125.924H117.712C120.426 125.924 122.659 125.641 124.41 125.074C126.165 124.51 127.756 123.56 129.193 122.229C130.393 121.132 131.369 119.923 132.113 118.597C132.857 117.276 133.388 115.815 133.7 114.218C134.46 110.342 133.712 107.459 131.983 105.156C129.811 102.273 124.27 102.12 124.27 102.12C123.512 102.007 122.268 101.911 121.502 101.911H110.476C109.711 101.911 108.966 102.522 108.818 103.268L102.942 133.265ZM120.172 107.073C122.902 107.073 124.718 107.573 125.628 108.572C126.536 109.571 126.754 111.288 126.28 113.717C125.781 116.249 124.825 118.058 123.408 119.14C121.992 120.221 118.325 120.612 118.325 120.612C117.562 120.695 116.312 120.762 115.548 120.762H113.965C113.2 120.762 112.691 120.152 112.838 119.407L114.989 108.429C115.135 107.684 115.881 107.073 116.645 107.073H120.172Z" stroke="white" stroke-width="5.29133"/>
<path d="M140.627 94.5713C140.773 93.8276 141.517 93.2178 142.282 93.2178H146.625C147.391 93.2178 147.897 93.8276 147.75 94.5713L146.578 100.558C146.432 101.304 146.942 101.911 147.705 101.911H151.267C152.032 101.911 153.283 101.976 154.043 102.054C154.043 102.054 159.238 102.114 160.923 103.985C162.296 105.509 162.893 107.608 162.287 110.703L159.572 124.569C159.427 125.314 158.681 125.924 157.915 125.924H153.461C152.695 125.924 152.187 125.314 152.334 124.569L154.64 112.806C154.785 112.062 154.949 110.832 155.005 110.073C155.005 110.073 155.108 108.682 154.547 108.085C153.988 107.485 152.795 107.187 150.972 107.187H146.67C145.904 107.187 145.161 107.795 145.012 108.541L141.876 124.569C141.729 125.314 140.984 125.924 140.219 125.924H135.876C135.11 125.924 134.604 125.314 134.749 124.569L140.627 94.5713Z" fill="#363254"/>
<path d="M140.627 94.5713C140.773 93.8276 141.517 93.2178 142.282 93.2178H146.625C147.391 93.2178 147.897 93.8276 147.75 94.5713L146.578 100.558C146.432 101.304 146.942 101.911 147.705 101.911H151.267C152.032 101.911 153.283 101.976 154.043 102.054C154.043 102.054 159.238 102.114 160.923 103.985C162.296 105.509 162.893 107.608 162.287 110.703L159.572 124.569C159.427 125.314 158.681 125.924 157.915 125.924H153.461C152.695 125.924 152.187 125.314 152.334 124.569L154.64 112.806C154.785 112.062 154.949 110.832 155.005 110.073C155.005 110.073 155.108 108.682 154.547 108.085C153.988 107.485 152.795 107.187 150.972 107.187H146.67C145.904 107.187 145.161 107.795 145.012 108.541L141.876 124.569C141.729 125.314 140.984 125.924 140.219 125.924H135.876C135.11 125.924 134.604 125.314 134.749 124.569L140.627 94.5713Z" stroke="white" stroke-width="5.29133"/>
<path d="M162.652 133.265C162.505 134.009 163.013 134.619 163.779 134.619H168.176C168.94 134.619 169.688 134.009 169.833 133.265L171.005 127.279C171.152 126.533 171.898 125.924 172.661 125.924H177.422C180.136 125.924 182.367 125.641 184.123 125.074C185.872 124.51 187.466 123.56 188.901 122.229C190.105 121.132 191.077 119.923 191.823 118.597C192.567 117.276 193.096 115.815 193.41 114.218C194.17 110.342 193.482 107.415 191.692 105.156C189.47 102.353 183.978 102.12 183.978 102.12C183.22 102.007 181.975 101.911 181.21 101.911H170.184C169.42 101.911 168.673 102.522 168.528 103.268L162.652 133.265ZM179.884 107.073C182.611 107.073 184.429 107.573 185.34 108.572C186.246 109.571 186.463 111.288 185.988 113.717C185.49 116.249 184.537 118.058 183.119 119.14C181.7 120.221 178.033 120.612 178.033 120.612C177.273 120.695 176.024 120.762 175.257 120.762H173.672C172.906 120.762 172.402 120.152 172.547 119.407L174.696 108.429C174.843 107.684 175.589 107.073 176.354 107.073H179.884Z" fill="#363254"/>
<path d="M162.652 133.265C162.505 134.009 163.013 134.619 163.779 134.619H168.176C168.94 134.619 169.688 134.009 169.833 133.265L171.005 127.279C171.152 126.533 171.898 125.924 172.661 125.924H177.422C180.136 125.924 182.367 125.641 184.123 125.074C185.872 124.51 187.466 123.56 188.901 122.229C190.105 121.132 191.077 119.923 191.823 118.597C192.567 117.276 193.096 115.815 193.41 114.218C194.17 110.342 193.482 107.415 191.692 105.156C189.47 102.353 183.978 102.12 183.978 102.12C183.22 102.007 181.975 101.911 181.21 101.911H170.184C169.42 101.911 168.673 102.522 168.528 103.268L162.652 133.265ZM179.884 107.073C182.611 107.073 184.429 107.573 185.34 108.572C186.246 109.571 186.463 111.288 185.988 113.717C185.49 116.249 184.537 118.058 183.119 119.14C181.7 120.221 178.033 120.612 178.033 120.612C177.273 120.695 176.024 120.762 175.257 120.762H173.672C172.906 120.762 172.402 120.152 172.547 119.407L174.696 108.429C174.843 107.684 175.589 107.073 176.354 107.073H179.884Z" stroke="white" stroke-width="5.29133"/>
<path d="M102.942 133.265C102.795 134.009 103.303 134.619 104.068 134.619H108.465C109.232 134.619 109.976 134.009 110.124 133.265L111.296 127.279C111.443 126.533 112.186 125.924 112.953 125.924H117.712C120.426 125.924 122.659 125.641 124.41 125.074C126.165 124.51 127.756 123.56 129.193 122.229C130.393 121.132 131.369 119.923 132.113 118.597C132.857 117.276 133.388 115.815 133.7 114.218C134.46 110.342 133.712 107.459 131.983 105.156C129.811 102.273 124.27 102.12 124.27 102.12C123.512 102.007 122.268 101.911 121.502 101.911H110.476C109.711 101.911 108.966 102.522 108.818 103.268L102.942 133.265ZM120.172 107.073C122.902 107.073 124.718 107.573 125.628 108.572C126.536 109.571 126.754 111.288 126.28 113.717C125.781 116.249 124.825 118.058 123.408 119.14C121.992 120.221 118.325 120.612 118.325 120.612C117.562 120.695 116.312 120.762 115.548 120.762H113.965C113.2 120.762 112.691 120.152 112.838 119.407L114.989 108.429C115.135 107.684 115.881 107.073 116.645 107.073H120.172Z" fill="#363254"/>
<path d="M140.627 94.5713C140.773 93.8276 141.517 93.2178 142.282 93.2178H146.625C147.391 93.2178 147.897 93.8276 147.75 94.5713L146.578 100.558C146.432 101.304 146.942 101.911 147.705 101.911H151.267C152.032 101.911 153.283 101.976 154.043 102.054C154.043 102.054 159.238 102.114 160.923 103.985C162.296 105.509 162.893 107.608 162.287 110.703L159.572 124.569C159.427 125.314 158.681 125.924 157.915 125.924H153.461C152.695 125.924 152.187 125.314 152.334 124.569L154.64 112.806C154.785 112.062 154.949 110.832 155.005 110.073C155.005 110.073 155.108 108.682 154.547 108.085C153.988 107.485 152.795 107.187 150.972 107.187H146.67C145.904 107.187 145.161 107.795 145.012 108.541L141.876 124.569C141.729 125.314 140.984 125.924 140.219 125.924H135.876C135.11 125.924 134.604 125.314 134.749 124.569L140.627 94.5713Z" fill="#363254"/>
<path d="M162.652 133.265C162.505 134.009 163.013 134.619 163.779 134.619H168.176C168.94 134.619 169.688 134.009 169.833 133.265L171.005 127.279C171.152 126.533 171.898 125.924 172.661 125.924H177.422C180.136 125.924 182.367 125.641 184.123 125.074C185.872 124.51 187.466 123.56 188.901 122.229C190.105 121.132 191.077 119.923 191.823 118.597C192.567 117.276 193.096 115.815 193.41 114.218C194.17 110.342 193.482 107.415 191.692 105.156C189.47 102.353 183.978 102.12 183.978 102.12C183.22 102.007 181.975 101.911 181.21 101.911H170.184C169.42 101.911 168.673 102.522 168.528 103.268L162.652 133.265ZM179.884 107.073C182.611 107.073 184.429 107.573 185.34 108.572C186.246 109.571 186.463 111.288 185.988 113.717C185.49 116.249 184.537 118.058 183.119 119.14C181.7 120.221 178.033 120.612 178.033 120.612C177.273 120.695 176.024 120.762 175.257 120.762H173.672C172.906 120.762 172.402 120.152 172.547 119.407L174.696 108.429C174.843 107.684 175.589 107.073 176.354 107.073H179.884Z" fill="#363254"/>
<mask id="mask10_248_5988" style="mask-type:luminance" maskUnits="userSpaceOnUse" x="73" y="61" width="47" height="69">
<path d="M73.4053 74.7101C73.4053 74.7101 86.4242 65.832 94.6472 62.7891C97.2681 61.8187 116.178 56.8637 119.244 89.2501C120.919 106.983 117.902 119.231 103.242 121.449C94.4684 122.779 95.8269 129.264 95.8269 129.264" fill="white"/>
</mask>
<g mask="url(#mask10_248_5988)">
<path d="M73.4053 74.7101C73.4053 74.7101 86.4242 65.832 94.6472 62.7891C97.2681 61.8187 116.178 56.8637 119.244 89.2501C120.919 106.983 117.902 119.231 103.242 121.449C94.4684 122.779 95.8269 129.264 95.8269 129.264" fill="url(#paint10_linear_248_5988)"/>
</g>
<path d="M94.0532 61.3264C85.7344 64.4062 72.9916 73.0652 72.4517 73.4333C71.7147 73.9362 71.5421 74.9179 72.0692 75.6232C72.5946 76.3294 73.6214 76.4935 74.359 75.9899C74.4874 75.9048 87.3053 67.1931 95.2368 64.2556C95.4849 64.1653 101.322 62.0694 106.925 65.3977C112.758 68.8644 116.451 77.1605 117.611 89.3946C119.458 108.947 115.084 118.068 102.986 119.901C99.5562 120.419 97.0598 121.725 95.5629 123.785C93.5975 126.482 94.1899 129.451 94.2178 129.577C94.396 130.42 95.2504 130.965 96.1351 130.803C97.021 130.642 97.6024 129.819 97.4399 128.971C97.4359 128.955 97.1094 127.128 98.282 125.547C99.2536 124.238 101.008 123.381 103.499 123.002C121.485 120.28 122.237 103.46 120.882 89.1108C119.608 75.6662 115.493 66.7896 108.659 62.7296C101.798 58.6531 94.8273 61.0403 94.0532 61.3264Z" fill="#363254"/>
<mask id="mask11_248_5988" style="mask-type:luminance" maskUnits="userSpaceOnUse" x="69" y="63" width="41" height="19">
<path d="M86.7231 72.3643C101.464 63.2212 109.647 67.8963 109.647 67.8963C103.238 62.0837 96.0277 64.0102 94.4332 64.6034C86.2383 67.6463 70.412 78.892 70.412 78.892C70.412 78.892 68.272 82.6569 72.5364 81.8401C72.5364 81.8401 81.8122 75.4125 86.7231 72.3643Z" fill="white"/>
</mask>
<g mask="url(#mask11_248_5988)">
<path d="M86.7231 72.3643C101.464 63.2212 109.647 67.8963 109.647 67.8963C103.238 62.0837 96.0277 64.0102 94.4332 64.6034C86.2383 67.6463 70.412 78.892 70.412 78.892C70.412 78.892 68.272 82.6569 72.5364 81.8401C72.5364 81.8401 81.8122 75.4125 86.7231 72.3643Z" fill="url(#paint11_linear_248_5988)"/>
</g>
<path d="M81.4041 115.508C81.276 122.931 78.7983 129.69 74.9336 133.138C73.1802 134.705 71.2243 135.48 69.2723 135.386C68.6701 135.353 68.1569 135.797 68.1222 136.374C68.0935 136.954 68.5565 137.445 69.1608 137.475C71.7182 137.603 74.2297 136.633 76.4282 134.67C80.7115 130.846 83.4564 123.517 83.5927 115.539C83.6046 114.964 83.1237 114.486 82.5182 114.477C81.9129 114.468 81.415 114.93 81.4041 115.508Z" fill="#363254"/>
<path d="M86.1457 110.208C85.3212 112.083 83.8803 113.278 82.1891 113.478C80.5404 113.67 78.8652 112.905 77.7066 111.429C77.3458 110.968 76.6571 110.873 76.174 111.221C75.6911 111.567 75.5923 112.223 75.9561 112.685C77.5912 114.771 80.0227 115.844 82.4578 115.558C84.9491 115.259 87.0269 113.606 88.1651 111.018C88.3984 110.484 88.1343 109.875 87.5792 109.649C87.0206 109.425 86.3817 109.676 86.1457 110.208Z" fill="#363254"/>
</g>
<defs>
<linearGradient id="paint0_linear_248_5988" x1="110.629" y1="108.72" x2="176.338" y2="158.092" gradientUnits="userSpaceOnUse">
<stop stop-color="#8C9BD6"/>
<stop offset="1" stop-color="#505E9B"/>
</linearGradient>
<linearGradient id="paint1_linear_248_5988" x1="153.857" y1="52.5249" x2="220.113" y2="102.307" gradientUnits="userSpaceOnUse">
<stop stop-color="#808FD0"/>
<stop offset="1" stop-color="#505E9B"/>
</linearGradient>
<linearGradient id="paint2_linear_248_5988" x1="80.722" y1="147.329" x2="146.143" y2="196.484" gradientUnits="userSpaceOnUse">
<stop stop-color="#8C9BD6"/>
<stop offset="1" stop-color="#505E9B"/>
</linearGradient>
<linearGradient id="paint3_linear_248_5988" x1="105.483" y1="115.876" x2="170.903" y2="165.03" gradientUnits="userSpaceOnUse">
<stop stop-color="#8C9BD6"/>
<stop offset="1" stop-color="#505E9B"/>
</linearGradient>
<linearGradient id="paint4_linear_248_5988" x1="108.889" y1="110.145" x2="172.393" y2="157.859" gradientUnits="userSpaceOnUse">
<stop stop-color="#808FD0"/>
<stop offset="1" stop-color="#505E9B"/>
</linearGradient>
<linearGradient id="paint5_linear_248_5988" x1="97.9022" y1="125.775" x2="163.944" y2="175.396" gradientUnits="userSpaceOnUse">
<stop stop-color="#8C9BD6"/>
<stop offset="1" stop-color="#505E9B"/>
</linearGradient>
<linearGradient id="paint6_linear_248_5988" x1="6.91392" y1="109.459" x2="50.4105" y2="173.373" gradientUnits="userSpaceOnUse">
<stop stop-color="#FAFAFD"/>
<stop offset="1" stop-color="#8892D2"/>
</linearGradient>
<linearGradient id="paint7_linear_248_5988" x1="79.3323" y1="56.8591" x2="130.016" y2="131.334" gradientUnits="userSpaceOnUse">
<stop stop-color="#FAFAFD"/>
<stop offset="1" stop-color="#8892D2"/>
</linearGradient>
<linearGradient id="paint8_linear_248_5988" x1="79.6782" y1="148.946" x2="145.065" y2="198.076" gradientUnits="userSpaceOnUse">
<stop stop-color="#8C9BD6"/>
<stop offset="1" stop-color="#505E9B"/>
</linearGradient>
<linearGradient id="paint9_linear_248_5988" x1="109.436" y1="110.243" x2="175.05" y2="159.543" gradientUnits="userSpaceOnUse">
<stop stop-color="#8C9BD6"/>
<stop offset="1" stop-color="#505E9B"/>
</linearGradient>
<linearGradient id="paint10_linear_248_5988" x1="113.376" y1="105.164" x2="178.889" y2="154.388" gradientUnits="userSpaceOnUse">
<stop stop-color="#8C9BD6"/>
<stop offset="1" stop-color="#505E9B"/>
</linearGradient>
<linearGradient id="paint11_linear_248_5988" x1="78.0903" y1="57.6413" x2="129.889" y2="133.755" gradientUnits="userSpaceOnUse">
<stop stop-color="#FAFAFD"/>
<stop offset="1" stop-color="#8892D2"/>
</linearGradient>
<clipPath id="clip0_248_5988">
<rect width="256" height="256" fill="white"/>
</clipPath>
</defs>
</svg>
