<svg width="256" height="256" viewBox="0 0 256 256" fill="none" xmlns="http://www.w3.org/2000/svg">
<g clip-path="url(#clip0_248_5083)">
<rect width="256" height="256" rx="60" fill="#242938"/>
<path d="M209.813 77.8346L209.808 40.725C209.806 33.698 204.108 28 197.081 28H161.124C157.41 28 153.879 29.6236 151.461 32.4435L49.2459 151.694C47.2696 154.001 46.1824 156.939 46.1824 159.978V197.087C46.1824 204.116 51.8804 209.814 58.9092 209.814H94.8715C98.5861 209.814 102.117 208.19 104.535 205.37L206.748 86.12C208.726 83.8129 209.813 80.8745 209.813 77.8346Z" fill="#D249FC"/>
<path d="M209.812 73.3713V40.7269C209.812 33.698 204.114 28 197.085 28H156.172C155.57 28 154.969 28.0436 154.372 28.1273L38.9269 44.6195C32.658 45.514 28 50.8847 28 57.2172V106.194C28 113.224 33.6998 118.922 40.7305 118.921L98.6614 118.906C100.029 118.906 101.387 118.686 102.683 118.253L201.111 85.4434C206.307 83.711 209.812 78.8493 209.812 73.3713Z" fill="url(#paint0_linear_248_5083)"/>
<path d="M227.993 215.274V109.126C227.993 104.036 224.959 99.4339 220.281 97.4286L103.127 47.2175C101.543 46.5394 99.8358 46.1885 98.1124 46.1885H40.7269C33.698 46.1885 28 51.8865 28 58.9153V115.057C28 117.572 28.7454 120.03 30.1417 122.123L97.0249 222.334C99.3848 225.872 103.358 227.995 107.61 227.995L215.267 228.001C222.295 228.001 227.993 222.303 227.993 215.274Z" fill="url(#paint1_linear_248_5083)"/>
<path d="M190.495 65.5H65.4988V190.496H190.495V65.5Z" fill="black"/>
<path fill-rule="evenodd" clip-rule="evenodd" d="M100.786 82.1533H81.1086V127.999H90.0483V110.675H100.527C103.801 110.675 106.672 110.085 109.139 108.906C111.628 107.706 113.539 106.024 114.87 103.863C116.223 101.701 116.9 99.1474 116.9 96.3314C116.9 93.5158 116.233 91.0389 114.902 88.8986C113.591 86.7583 111.714 85.1005 109.269 83.9218C106.823 82.7427 103.995 82.1533 100.786 82.1533ZM104.125 102.424C103.011 102.97 101.702 103.244 100.196 103.244H90.0433V89.588H100.196C101.702 89.588 103.011 89.8705 104.125 90.4389C105.26 90.9827 106.132 91.7686 106.744 92.7968C107.356 93.7983 107.662 95.023 107.662 96.3983C107.662 97.7736 107.355 98.9858 106.744 100.033C106.134 101.061 105.26 101.856 104.125 102.424Z" fill="white"/>
<path d="M128.442 126.985C131.128 128.185 134.15 128.787 137.513 128.787C140.896 128.787 143.929 128.187 146.615 126.987C149.301 125.787 151.395 124.117 152.902 121.977C154.409 119.816 155.162 117.359 155.162 114.609C155.162 112.382 154.681 110.332 153.721 108.453C152.762 106.553 151.397 104.969 149.628 103.704C147.883 102.439 145.864 101.597 143.571 101.183L134.468 99.4796C133.026 99.1971 131.901 98.6268 131.094 97.7762C130.286 96.9043 129.882 95.8321 129.882 94.5675C129.882 93.4746 130.21 92.5165 130.864 91.6853C131.519 90.8325 132.436 90.1659 133.615 89.6868C134.794 89.2081 136.094 88.9659 137.578 88.9659C139.063 88.9659 140.394 89.215 141.573 89.7184C142.752 90.1975 143.669 90.8765 144.323 91.7484C145.001 92.6203 145.339 93.6271 145.339 94.7603H154.279C154.258 92.1412 153.516 89.829 152.053 87.8187C150.613 85.7871 148.615 84.2031 146.06 83.0696C143.527 81.9346 140.647 81.3662 137.48 81.3662C134.313 81.3662 131.464 81.9434 128.933 83.1012C126.421 84.2609 124.446 85.8731 123.005 87.9484C121.586 90.0237 120.877 92.3903 120.877 95.0553C120.877 97.2165 121.314 99.1812 122.188 100.95C123.061 102.697 124.305 104.158 125.921 105.337C127.558 106.495 129.478 107.281 131.684 107.695L141.082 109.497C142.631 109.804 143.843 110.458 144.717 111.462C145.611 112.444 146.059 113.668 146.059 115.13C146.059 116.309 145.699 117.356 144.978 118.273C144.259 119.191 143.254 119.91 141.966 120.435C140.699 120.938 139.259 121.187 137.643 121.187C135.942 121.187 134.412 120.905 133.059 120.337C131.726 119.768 130.668 118.982 129.882 117.979C129.119 116.952 128.737 115.786 128.737 114.475H119.763C119.807 117.272 120.593 119.759 122.121 121.942C123.649 124.103 125.756 125.785 128.442 126.985Z" fill="white"/>
<path d="M81.1047 165.503H131.105V174.878H81.1047V165.503Z" fill="white"/>
</g>
<defs>
<linearGradient id="paint0_linear_248_5083" x1="204.178" y1="25.7583" x2="36.6015" y2="103.454" gradientUnits="userSpaceOnUse">
<stop offset="0.16" stop-color="#D249FC"/>
<stop offset="0.55" stop-color="#FF2D90"/>
</linearGradient>
<linearGradient id="paint1_linear_248_5083" x1="40.4432" y1="41.2014" x2="223.89" y2="224.65" gradientUnits="userSpaceOnUse">
<stop offset="0.3" stop-color="#FF2D90"/>
<stop offset="0.7" stop-color="#7256FF"/>
</linearGradient>
<clipPath id="clip0_248_5083">
<rect width="256" height="256" fill="white"/>
</clipPath>
</defs>
</svg>
