<svg width="256" height="256" viewBox="0 0 256 256" fill="none" xmlns="http://www.w3.org/2000/svg">
<g clip-path="url(#clip0_365_234)">
<rect width="256" height="256" rx="60" fill="white"/>
<path d="M219.143 90H225.428H219.143Z" fill="black"/>
<path d="M219.143 90H225.428" stroke="#FF004D" stroke-width="6.29"/>
<path d="M212.857 96.2859H219.143H212.857Z" fill="black"/>
<path d="M212.857 96.2859H219.143" stroke="#FFA300" stroke-width="6.29"/>
<path d="M219.143 96.2859H225.429H219.143ZM212.857 102.572H231.714H212.857ZM219.143 108.857H225.429H219.143ZM24.2857 115.143H49.4286H24.2857ZM55.7143 115.143H80.8571H55.7143ZM93.4286 115.143H112.286H93.4286ZM124.857 115.143H150H124.857ZM181.429 115.143H206.571H181.429ZM18 121.429H30.5714H18ZM36.8571 121.429H49.4286H36.8571ZM62 121.429H74.5714H62ZM87.1429 121.429H99.7143H87.1429ZM118.571 121.429H131.143H118.571ZM137.429 121.429H150H137.429ZM181.429 121.429H187.714H181.429ZM200.286 121.429H206.571H200.286ZM18 127.714H49.4286H18ZM62 127.714H74.5714H62ZM87.1429 127.714H99.7143H87.1429ZM118.571 127.714H131.143H118.571ZM137.429 127.714H150H137.429ZM156.286 127.714H168.857H156.286ZM175.143 127.714H206.571H175.143ZM18 134H30.5714H18ZM62 134H74.5714H62ZM87.1429 134H99.7143H87.1429ZM118.571 134H131.143H118.571ZM137.429 134H150H137.429ZM175.143 134H187.714H175.143ZM200.286 134H206.571H200.286ZM18 140.286H30.5714H18ZM55.7143 140.286H80.8571H55.7143ZM87.1429 140.286H112.286H87.1429ZM118.571 140.286H143.714H118.571ZM175.143 140.286H206.571H175.143Z" fill="black"/>
<path d="M219.143 96.2859H225.429M212.857 102.572H231.714M219.143 108.857H225.429M24.2857 115.143H49.4286M55.7143 115.143H80.8571M93.4286 115.143H112.286M124.857 115.143H150M181.429 115.143H206.571M18 121.429H30.5714M36.8571 121.429H49.4286M62 121.429H74.5714M87.1429 121.429H99.7143M118.571 121.429H131.143M137.429 121.429H150M181.429 121.429H187.714M200.286 121.429H206.571M18 127.714H49.4286M62 127.714H74.5714M87.1429 127.714H99.7143M118.571 127.714H131.143M137.429 127.714H150M156.286 127.714H168.857M175.143 127.714H206.571M18 134H30.5714M62 134H74.5714M87.1429 134H99.7143M118.571 134H131.143M137.429 134H150M175.143 134H187.714M200.286 134H206.571M18 140.286H30.5714M55.7143 140.286H80.8571M87.1429 140.286H112.286M118.571 140.286H143.714M175.143 140.286H206.571" stroke="black" stroke-width="6.29"/>
<path d="M225.428 96.2859H231.714H225.428Z" fill="black"/>
<path d="M225.428 96.2859H231.714" stroke="#FFCCAA" stroke-width="6.29"/>
<path d="M206.572 102.571H212.857H206.572Z" fill="black"/>
<path d="M206.572 102.571H212.857" stroke="#FFFF27" stroke-width="6.29"/>
<path d="M231.714 102.571H238H231.714Z" fill="black"/>
<path d="M231.714 102.571H238" stroke="#FF77A8" stroke-width="6.29"/>
<path d="M212.857 108.857H219.143H212.857Z" fill="black"/>
<path d="M212.857 108.857H219.143" stroke="#00E756" stroke-width="6.29"/>
<path d="M225.428 108.857H231.714H225.428Z" fill="black"/>
<path d="M225.428 108.857H231.714" stroke="#83769C" stroke-width="6.29"/>
<path d="M219.143 115.143H225.428H219.143Z" fill="black"/>
<path d="M219.143 115.143H225.428" stroke="#29ADFF" stroke-width="6.29"/>
</g>
<defs>
<clipPath id="clip0_365_234">
<rect width="256" height="256" fill="white"/>
</clipPath>
</defs>
</svg>
