<svg width="256" height="256" viewBox="0 0 256 256" fill="none" xmlns="http://www.w3.org/2000/svg">
<g clip-path="url(#clip0_365_224)">
<path d="M196 0H60C26.8629 0 0 26.8629 0 60V196C0 229.137 26.8629 256 60 256H196C229.137 256 256 229.137 256 196V60C256 26.8629 229.137 0 196 0Z" fill="black"/>
<path d="M219.143 95H225.428H219.143Z" fill="black"/>
<path d="M219.143 95H225.428" stroke="#FF004D" stroke-width="6.29"/>
<path d="M212.857 101.286H219.143H212.857Z" fill="black"/>
<path d="M212.857 101.286H219.143" stroke="#FFA300" stroke-width="6.29"/>
<path d="M219.143 101.286H225.429H219.143ZM212.857 107.572H231.714H212.857ZM219.143 113.857H225.429H219.143ZM24.2857 120.143H49.4286H24.2857ZM55.7143 120.143H80.8571H55.7143ZM93.4286 120.143H112.286H93.4286ZM124.857 120.143H150H124.857ZM181.429 120.143H206.571H181.429ZM18 126.429H30.5714H18ZM36.8571 126.429H49.4286H36.8571ZM62 126.429H74.5714H62ZM87.1429 126.429H99.7143H87.1429ZM118.571 126.429H131.143H118.571ZM137.429 126.429H150H137.429ZM181.429 126.429H187.714H181.429ZM200.286 126.429H206.571H200.286ZM18 132.714H49.4286H18ZM62 132.714H74.5714H62ZM87.1429 132.714H99.7143H87.1429ZM118.571 132.714H131.143H118.571ZM137.429 132.714H150H137.429ZM156.286 132.714H168.857H156.286ZM175.143 132.714H206.571H175.143ZM18 139H30.5714H18ZM62 139H74.5714H62ZM87.1429 139H99.7143H87.1429ZM118.571 139H131.143H118.571ZM137.429 139H150H137.429ZM175.143 139H187.714H175.143ZM200.286 139H206.571H200.286ZM18 145.286H30.5714H18ZM55.7143 145.286H80.8571H55.7143ZM87.1429 145.286H112.286H87.1429ZM118.571 145.286H143.714H118.571ZM175.143 145.286H206.571H175.143Z" fill="black"/>
<path d="M219.143 101.286H225.429M212.857 107.572H231.714M219.143 113.857H225.429M24.2857 120.143H49.4286M55.7143 120.143H80.8571M93.4286 120.143H112.286M124.857 120.143H150M181.429 120.143H206.571M18 126.429H30.5714M36.8571 126.429H49.4286M62 126.429H74.5714M87.1429 126.429H99.7143M118.571 126.429H131.143M137.429 126.429H150M181.429 126.429H187.714M200.286 126.429H206.571M18 132.714H49.4286M62 132.714H74.5714M87.1429 132.714H99.7143M118.571 132.714H131.143M137.429 132.714H150M156.286 132.714H168.857M175.143 132.714H206.571M18 139H30.5714M62 139H74.5714M87.1429 139H99.7143M118.571 139H131.143M137.429 139H150M175.143 139H187.714M200.286 139H206.571M18 145.286H30.5714M55.7143 145.286H80.8571M87.1429 145.286H112.286M118.571 145.286H143.714M175.143 145.286H206.571" stroke="#FFF1E8" stroke-width="6.29"/>
<path d="M225.428 101.286H231.714H225.428Z" fill="black"/>
<path d="M225.428 101.286H231.714" stroke="#FFCCAA" stroke-width="6.29"/>
<path d="M206.572 107.571H212.857H206.572Z" fill="black"/>
<path d="M206.572 107.571H212.857" stroke="#FFFF27" stroke-width="6.29"/>
<path d="M231.714 107.571H238H231.714Z" fill="black"/>
<path d="M231.714 107.571H238" stroke="#FF77A8" stroke-width="6.29"/>
<path d="M212.857 113.857H219.143H212.857Z" fill="black"/>
<path d="M212.857 113.857H219.143" stroke="#00E756" stroke-width="6.29"/>
<path d="M225.428 113.857H231.714H225.428Z" fill="black"/>
<path d="M225.428 113.857H231.714" stroke="#83769C" stroke-width="6.29"/>
<path d="M219.143 120.143H225.428H219.143Z" fill="black"/>
<path d="M219.143 120.143H225.428" stroke="#29ADFF" stroke-width="6.29"/>
</g>
<defs>
<clipPath id="clip0_365_224">
<rect width="256" height="256" fill="white"/>
</clipPath>
</defs>
</svg>
