<svg width="256" height="256" viewBox="0 0 256 256" fill="none" xmlns="http://www.w3.org/2000/svg">
<g clip-path="url(#clip0_377_113)">
<rect width="256" height="256" rx="60" fill="white"/>
<path d="M128.078 28C121.842 35.2722 115.034 42.0323 108.87 49.3648C113.879 51.4995 118.956 53.4359 123.909 55.7152C125.873 56.5322 128.107 57.7637 130.199 56.587C135.998 54.1716 141.779 51.6905 147.599 49.3208C141.026 42.2776 134.814 34.8866 128.078 28ZM162.77 51.0096C154.986 54.6403 147.105 58.0529 139.345 61.7583C150.479 66.6621 161.571 71.7117 172.79 76.4353C169.548 67.9219 166.325 59.4025 162.77 51.0096ZM92.976 51.0217C89.7243 59.4688 86.1737 67.8075 83.2275 76.3691C94.41 71.681 105.46 66.6627 116.582 61.8065C108.756 58.1325 100.899 54.5042 92.976 51.0277V51.0217ZM128.174 65.2227C126.075 65.5418 124.217 66.6952 122.271 67.499C108.552 73.2457 94.8932 79.1546 81.1983 84.9567C90.6094 89.2423 100.249 93.0604 109.727 97.2177C115.915 99.7759 121.988 102.553 128.242 104.966C143.732 98.2118 159.427 91.9036 174.827 84.9567C161.976 79.4113 149.113 73.8887 136.225 68.4722C133.546 67.3636 130.962 66.0072 128.174 65.2227ZM191.076 85.2741C173.657 92.956 156.167 100.439 138.833 108.26C156.251 115.851 173.639 123.581 191.082 131.131C191.203 115.851 191.224 100.572 191.076 85.2741ZM138.833 108.26C138.828 108.257 138.821 108.256 138.817 108.254L138.81 108.269C138.818 108.266 138.825 108.263 138.833 108.26ZM64.7848 85.9067L64.7816 85.9127C64.4894 101.228 64.7419 116.58 64.6353 131.92C82.12 124.316 99.6468 116.701 117.047 108.88C99.6227 101.277 82.1791 93.6308 64.7848 85.9067ZM127.867 112.489C110.081 119.87 92.3976 127.54 74.6719 135.101C92.3976 142.681 110.135 150.248 127.897 157.743C145.617 150.236 163.312 142.711 181.002 135.101C163.343 127.425 145.629 119.918 127.867 112.489ZM201.975 134.908C180.821 143.675 159.667 152.502 138.471 161.19L138.461 161.196C153.054 167.649 167.629 174.114 182.288 180.386C188.807 165.221 195.489 150.092 201.965 134.909L201.975 134.908ZM54 135.101C60.8324 150.128 67.2732 165.335 73.7923 180.494C88.4994 174.331 103.062 167.817 117.649 161.359C96.4525 152.64 75.3106 143.657 54.0241 135.101H54ZM128.409 164.986C126.899 164.895 125.377 165.893 123.948 166.402C109.741 172.668 95.4943 178.835 81.2812 185.077C94.6086 191.04 108.026 196.802 121.396 202.64C122.038 203.042 123.311 203.232 123.22 204.231C123.39 212.154 123.108 220.077 123.348 228C126.476 227.976 129.614 227.987 132.747 228C132.778 220.541 132.74 213.076 132.74 205.623C132.883 204.828 132.509 203.537 133.509 203.197C147.174 197.046 161.008 191.274 174.666 185.11C159.809 178.392 144.83 172.024 129.912 165.499C129.416 165.167 128.912 165.016 128.409 164.986Z" fill="url(#paint0_linear_377_113)"/>
</g>
<defs>
<linearGradient id="paint0_linear_377_113" x1="128.102" y1="27.9899" x2="128.102" y2="225.499" gradientUnits="userSpaceOnUse">
<stop stop-color="#5CA5BE"/>
<stop offset="1" stop-color="#485678"/>
</linearGradient>
<clipPath id="clip0_377_113">
<rect width="256" height="256" fill="white"/>
</clipPath>
</defs>
</svg>
