<svg width="256" height="256" viewBox="0 0 256 256" fill="none" xmlns="http://www.w3.org/2000/svg">
<g clip-path="url(#clip0_248_951)">
<path d="M196 0H60C26.8629 0 0 26.8629 0 60V196C0 229.137 26.8629 256 60 256H196C229.137 256 256 229.137 256 196V60C256 26.8629 229.137 0 196 0Z" fill="#ECB732"/>
<path fill-rule="evenodd" clip-rule="evenodd" d="M122.225 124.959C135.798 112.044 131.66 96.0738 119.37 76.7229C107.082 57.372 82.3404 50.4907 77.7236 54.8833C73.107 59.276 72.0791 90.677 84.3676 110.028C96.6562 129.379 108.651 137.874 122.225 124.959Z" fill="url(#paint0_linear_248_951)"/>
<path fill-rule="evenodd" clip-rule="evenodd" d="M133.959 126.753C143.996 142.558 157.418 136.777 174.034 120.967C190.651 105.157 197.544 74.8764 194.13 69.5007C190.716 64.1249 164.767 64.3985 148.151 80.2082C131.535 96.0178 123.921 110.947 133.959 126.753Z" fill="url(#paint1_linear_248_951)"/>
<path fill-rule="evenodd" clip-rule="evenodd" d="M128.468 118.057C145.134 120.098 151.69 104.715 154.751 79.8513C157.81 54.9873 145.217 28.7102 139.548 28.0157C133.88 27.3213 114.832 49.7222 111.773 74.5862C108.712 99.4501 111.801 116.014 128.468 118.057Z" fill="url(#paint2_linear_248_951)"/>
<path fill-rule="evenodd" clip-rule="evenodd" d="M124.276 228C159.227 228 187.573 217.86 187.573 171.875C187.573 125.891 159.227 88.1553 124.276 88.1553C89.3231 88.1553 61 125.891 61 171.875C61 217.86 89.3231 228 124.276 228Z" fill="url(#paint3_linear_248_951)"/>
<path d="M156.245 162.487C161.238 162.487 165.285 160.607 165.285 158.287C165.285 155.969 161.238 154.088 156.245 154.088C151.251 154.088 147.204 155.969 147.204 158.287C147.204 160.607 151.251 162.487 156.245 162.487Z" fill="#EAADCC"/>
<path d="M89.2923 159.935C94.2483 160.543 98.4953 159.17 98.7783 156.868C99.0613 154.566 95.2733 152.207 90.3173 151.599C85.3613 150.992 81.1143 152.365 80.8313 154.667C80.5482 156.969 84.3364 159.328 89.2923 159.935Z" fill="#EAADCC"/>
<path d="M130.067 156.801C127.346 159.01 124.203 159.91 120.638 159.503C117.074 159.096 114.431 157.619 112.712 155.069" stroke="black" stroke-width="6" stroke-linecap="round" stroke-linejoin="round"/>
<path fill-rule="evenodd" clip-rule="evenodd" d="M95.0533 134.945C97.5485 134.858 99.8426 135.789 101.535 137.366C103.227 138.942 104.317 141.162 104.405 143.654C104.492 146.147 103.56 148.438 101.982 150.127C100.404 151.817 98.1803 152.906 95.6851 152.993C93.1902 153.08 90.8962 152.148 89.2041 150.573C87.5121 148.997 86.4219 146.775 86.3347 144.284C86.2475 141.792 87.1796 139.5 88.7573 137.81C90.3351 136.121 92.5584 135.032 95.0533 134.945Z" fill="black"/>
<path fill-rule="evenodd" clip-rule="evenodd" d="M95.5281 142.493C95.4713 140.871 94.1077 139.601 92.4839 139.657C90.8591 139.714 89.588 141.075 89.6449 142.698C89.7017 144.321 91.0648 145.59 92.6896 145.533C94.3134 145.476 95.585 144.115 95.5281 142.493Z" fill="white"/>
<path fill-rule="evenodd" clip-rule="evenodd" d="M149.833 137.237C152.328 137.15 154.622 138.081 156.314 139.657C158.007 141.233 159.097 143.454 159.184 145.945C159.271 148.438 158.339 150.729 156.761 152.419C155.183 154.109 152.96 155.198 150.464 155.284C147.969 155.371 145.676 154.44 143.984 152.864C142.292 151.288 141.201 149.067 141.114 146.575C141.026 144.084 141.959 141.792 143.536 140.102C145.115 138.412 147.338 137.324 149.833 137.237Z" fill="black"/>
<path d="M103.144 143.698C103.294 147.987 99.9352 151.585 95.6414 151.734C91.348 151.884 87.746 148.528 87.5957 144.239C87.4453 139.951 90.8037 136.354 95.097 136.204C99.3909 136.055 102.993 139.409 103.144 143.698ZM105.665 143.611C105.466 137.931 100.695 133.488 95.0088 133.686C89.323 133.884 84.8754 138.648 85.0744 144.327C85.2735 150.007 90.0437 154.45 95.7297 154.253C101.416 154.055 105.864 149.29 105.665 143.611Z" fill="white" stroke="white" stroke-width="3"/>
<path d="M157.923 145.99C158.073 150.279 154.715 153.877 150.421 154.026C146.128 154.176 142.525 150.82 142.375 146.531C142.224 142.242 145.583 138.645 149.877 138.495C154.17 138.346 157.772 141.701 157.923 145.99ZM160.445 145.903C160.245 140.223 155.475 135.779 149.788 135.977C144.102 136.176 139.654 140.939 139.854 146.619C140.052 152.299 144.823 156.742 150.509 156.545C156.196 156.346 160.643 151.582 160.445 145.903Z" fill="white" stroke="white" stroke-width="3"/>
<path fill-rule="evenodd" clip-rule="evenodd" d="M150.307 144.785C150.251 143.163 148.887 141.893 147.263 141.949C145.639 142.005 144.367 143.366 144.424 144.99C144.481 146.612 145.845 147.882 147.469 147.825C149.093 147.769 150.364 146.407 150.307 144.785Z" fill="white"/>
<path d="M76.3485 176.136L107.466 208.472" stroke="#ECB732" stroke-width="11" stroke-linecap="round"/>
<path d="M103.261 179.915L83.4971 200.914" stroke="#ECB732" stroke-width="11" stroke-linecap="round"/>
<path d="M171.804 176.136L140.686 208.472" stroke="#ECB732" stroke-width="11" stroke-linecap="round"/>
<path d="M144.891 179.915L164.655 200.914" stroke="#ECB732" stroke-width="11" stroke-linecap="round"/>
<path d="M136.902 104.743L116.297 125.321" stroke="#FFC73B" stroke-width="11" stroke-linecap="round"/>
<path d="M132.697 125.321L112.092 104.743" stroke="#FFC73B" stroke-width="11" stroke-linecap="round"/>
</g>
<defs>
<linearGradient id="paint0_linear_248_951" x1="6855.49" y1="-5233.74" x2="12463.7" y2="10472.7" gradientUnits="userSpaceOnUse">
<stop stop-color="#52CE63"/>
<stop offset="1" stop-color="#51A256"/>
</linearGradient>
<linearGradient id="paint1_linear_248_951" x1="5496.95" y1="6848.11" x2="-10225.6" y2="12469.9" gradientUnits="userSpaceOnUse">
<stop stop-color="#52CE63"/>
<stop offset="1" stop-color="#51A256"/>
</linearGradient>
<linearGradient id="paint2_linear_248_951" x1="6972.84" y1="865.146" x2="3878.22" y2="26125.8" gradientUnits="userSpaceOnUse">
<stop stop-color="#8AE99C"/>
<stop offset="1" stop-color="#52CE63"/>
</linearGradient>
<linearGradient id="paint3_linear_248_951" x1="20805.6" y1="11743.4" x2="17459.7" y2="66757.5" gradientUnits="userSpaceOnUse">
<stop stop-color="#FFE56C"/>
<stop offset="1" stop-color="#FFC63A"/>
</linearGradient>
<clipPath id="clip0_248_951">
<rect width="256" height="256" fill="white"/>
</clipPath>
</defs>
</svg>
