<svg width="256" height="256" viewBox="0 0 256 256" fill="none" xmlns="http://www.w3.org/2000/svg">
<g clip-path="url(#clip0_313_91)">
<path d="M196 0H60C26.8629 0 0 26.8629 0 60V196C0 229.137 26.8629 256 60 256H196C229.137 256 256 229.137 256 196V60C256 26.8629 229.137 0 196 0Z" fill="#CB1F27"/>
<path d="M113.121 187.821C107.273 218.39 100.145 247.693 79.0074 263C72.4915 216.803 88.5811 182.116 96.0643 145.287C83.3106 123.864 97.5988 80.7752 124.474 91.3977C157.554 104.451 95.8308 171.005 137.261 179.33C180.526 187.999 198.183 104.407 171.353 77.2233C132.602 37.9523 58.5369 76.302 67.6547 132.522C69.8674 146.264 84.0889 150.426 73.3366 169.396C48.5296 163.912 41.1241 144.377 42.0804 118.337C43.6149 75.7137 80.4307 45.8886 117.369 41.7484C164.081 36.5204 207.924 58.8754 213.984 102.731C220.8 152.247 192.902 205.881 142.943 202.018C129.4 200.963 123.729 194.259 113.121 187.821Z" fill="white"/>
</g>
<defs>
<clipPath id="clip0_313_91">
<rect width="256" height="256" fill="white"/>
</clipPath>
</defs>
</svg>
