<svg width="256" height="256" viewBox="0 0 256 256" fill="none" xmlns="http://www.w3.org/2000/svg">
<g clip-path="url(#clip0_313_99)">
<rect width="256" height="256" rx="60" fill="white"/>
<path d="M28 128.002C28 168.95 52.6234 204.128 87.8586 219.595C87.5773 212.612 87.8086 204.229 89.5992 196.631C91.5219 188.513 102.466 142.141 102.466 142.141C102.466 142.141 99.2719 135.755 99.2719 126.319C99.2719 111.499 107.861 100.431 118.558 100.431C127.654 100.431 132.048 107.263 132.048 115.445C132.048 124.588 126.216 138.266 123.217 150.934C120.712 161.541 128.536 170.194 139.001 170.194C157.948 170.194 170.709 145.859 170.709 117.026C170.709 95.1086 155.947 78.7039 129.098 78.7039C98.7633 78.7039 79.8656 101.326 79.8656 126.595C79.8656 135.307 82.4344 141.451 86.4578 146.209C88.3078 148.394 88.5648 149.273 87.8953 151.782C87.4156 153.622 86.3141 158.052 85.8578 159.807C85.1922 162.34 83.1398 163.245 80.8508 162.31C66.8789 156.606 60.3719 141.305 60.3719 124.105C60.3719 95.6984 84.3297 61.6359 131.842 61.6359C170.022 61.6359 195.151 89.2641 195.151 118.921C195.151 158.15 173.341 187.457 141.193 187.457C130.397 187.457 120.241 181.621 116.762 174.992C116.762 174.992 110.957 198.033 109.727 202.482C107.607 210.192 103.457 217.898 99.6625 223.905C108.864 226.625 118.409 228.006 128.004 228.005C183.226 228.005 228.001 183.233 228.001 128.002C228.001 72.7727 183.226 28 128.004 28C72.7766 28 28 72.7727 28 128.002Z" fill="#CB1F27"/>
</g>
<defs>
<clipPath id="clip0_313_99">
<rect width="256" height="256" fill="white"/>
</clipPath>
</defs>
</svg>
