<svg width="256" height="256" viewBox="0 0 256 256" fill="none" xmlns="http://www.w3.org/2000/svg">
<g clip-path="url(#clip0_313_94)">
<rect width="256" height="256" rx="60" fill="#242938"/>
<rect x="33" y="41" width="191" height="186" rx="93" fill="white"/>
<path d="M29 128.002C29 168.95 53.6234 204.128 88.8586 219.595C88.5773 212.612 88.8086 204.229 90.5992 196.631C92.5219 188.513 103.466 142.141 103.466 142.141C103.466 142.141 100.272 135.755 100.272 126.319C100.272 111.499 108.861 100.431 119.558 100.431C128.654 100.431 133.048 107.263 133.048 115.445C133.048 124.588 127.216 138.266 124.217 150.934C121.712 161.541 129.536 170.194 140.001 170.194C158.948 170.194 171.709 145.859 171.709 117.026C171.709 95.1086 156.947 78.7039 130.098 78.7039C99.7633 78.7039 80.8656 101.326 80.8656 126.595C80.8656 135.307 83.4344 141.451 87.4578 146.209C89.3078 148.394 89.5648 149.273 88.8953 151.782C88.4156 153.622 87.3141 158.052 86.8578 159.807C86.1922 162.34 84.1398 163.245 81.8508 162.31C67.8789 156.606 61.3719 141.305 61.3719 124.105C61.3719 95.6984 85.3297 61.6359 132.842 61.6359C171.022 61.6359 196.151 89.2641 196.151 118.921C196.151 158.15 174.341 187.457 142.193 187.457C131.397 187.457 121.241 181.621 117.762 174.992C117.762 174.992 111.957 198.033 110.727 202.482C108.607 210.192 104.457 217.898 100.662 223.905C109.864 226.625 119.409 228.006 129.004 228.005C184.226 228.005 229.001 183.233 229.001 128.002C229.001 72.7727 184.226 28 129.004 28C73.7766 28 29 72.7727 29 128.002Z" fill="#CB1F27"/>
</g>
<defs>
<clipPath id="clip0_313_94">
<rect width="256" height="256" fill="white"/>
</clipPath>
</defs>
</svg>
