<svg width="256" height="256" viewBox="0 0 256 256" fill="none" xmlns="http://www.w3.org/2000/svg">
<g clip-path="url(#clip0_248_1568)">
<path d="M196 0H60C26.8629 0 0 26.8629 0 60V196C0 229.137 26.8629 256 60 256H196C229.137 256 256 229.137 256 196V60C256 26.8629 229.137 0 196 0Z" fill="black"/>
<path d="M38 128.002C38 78.2952 78.2952 38 128.002 38C164.549 38 196.009 59.7838 210.105 91.0756L91.0756 210.105C85.968 207.804 81.1134 205.04 76.5654 201.867L150.431 128.002H128.002L64.361 191.643C48.0738 175.356 38 152.855 38 128.002Z" fill="white"/>
<path d="M218 128.031L128.029 218.002C177.711 217.986 217.983 177.714 218 128.031Z" fill="white"/>
</g>
<defs>
<clipPath id="clip0_248_1568">
<rect width="256" height="256" fill="white"/>
</clipPath>
</defs>
</svg>
