<svg width="256" height="256" viewBox="0 0 256 256" fill="none" xmlns="http://www.w3.org/2000/svg">
<g clip-path="url(#clip0_392_595)">
<path d="M196 0H60C26.8629 0 0 26.8629 0 60V196C0 229.137 26.8629 256 60 256H196C229.137 256 256 229.137 256 196V60C256 26.8629 229.137 0 196 0Z" fill="white"/>
<path d="M93.9757 233H52.0239C50.8389 233 49.6655 232.766 48.5706 232.313C47.4758 231.859 46.481 231.194 45.6431 230.357C44.8051 229.519 44.1404 228.524 43.6869 227.429C43.2334 226.334 43 225.161 43 223.976V130L74.6665 120.667L103 130V223.976C103 225.161 102.766 226.334 102.313 227.429C101.859 228.524 101.195 229.519 100.357 230.357C99.5186 231.194 98.5238 231.859 97.429 232.313C96.3342 232.766 95.1607 233 93.9757 233Z" fill="#185C37"/>
<path d="M159 33H213.68C216.152 33 218.522 33.9819 220.27 35.7297C222.018 37.4776 223 39.8481 223 42.3199V151.679C223 154.151 222.018 156.522 220.27 158.269C218.522 160.017 216.152 160.999 213.68 160.999H159L148.333 92.6663L159 33Z" fill="#33C481"/>
<path d="M43 42.3199V132.999H103V196.999H153.679C156.151 196.999 158.522 196.017 160.269 194.269C162.017 192.521 162.999 190.151 162.999 187.679V33H52.3199C49.8481 33 47.4776 33.9819 45.7297 35.7297C43.9819 37.4776 43 39.8481 43 42.3199Z" fill="#107C41"/>
<path d="M103 33H162.999V101H103V33Z" fill="#21A366"/>
</g>
<defs>
<clipPath id="clip0_392_595">
<rect width="256" height="256" fill="white"/>
</clipPath>
</defs>
</svg>
