<svg width="256" height="256" viewBox="0 0 256 256" fill="none" xmlns="http://www.w3.org/2000/svg">
<g clip-path="url(#clip0_392_602)">
<rect width="256" height="256" rx="60" fill="#242938"/>
<path d="M88.9757 228H47.0239C45.8389 228 44.6655 227.766 43.5706 227.313C42.4758 226.859 41.481 226.194 40.6431 225.357C39.8051 224.519 39.1404 223.524 38.6869 222.429C38.2334 221.334 38 220.161 38 218.976V125L69.6665 115.667L97.9996 125V218.976C97.9996 220.161 97.7662 221.334 97.3127 222.429C96.8592 223.524 96.1945 224.519 95.3566 225.357C94.5186 226.194 93.5238 226.859 92.429 227.313C91.3342 227.766 90.1607 228 88.9757 228Z" fill="#185C37"/>
<path d="M154 28H208.68C211.152 28 213.522 28.9819 215.27 30.7297C217.018 32.4776 218 34.8481 218 37.3199V146.679C218 149.151 217.018 151.522 215.27 153.269C213.522 155.017 211.152 155.999 208.68 155.999H154L143.333 87.6663L154 28Z" fill="#33C481"/>
<path d="M38 37.3199V127.999H97.9996V191.999H148.679C151.151 191.999 153.522 191.017 155.269 189.269C157.017 187.521 157.999 185.151 157.999 182.679V28H47.3199C44.8481 28 42.4776 28.9819 40.7297 30.7297C38.9819 32.4776 38 34.8481 38 37.3199Z" fill="#107C41"/>
<path d="M97.9995 28H157.999V95.9996H97.9995V28Z" fill="#21A366"/>
</g>
<defs>
<clipPath id="clip0_392_602">
<rect width="256" height="256" fill="white"/>
</clipPath>
</defs>
</svg>
