<svg width="256" height="256" viewBox="0 0 256 256" fill="none" xmlns="http://www.w3.org/2000/svg">
<g clip-path="url(#clip0_392_609)">
<rect width="256" height="256" rx="60" fill="white"/>
<path d="M87.9757 229H46.0239C44.8389 229 43.6655 228.766 42.5706 228.313C41.4758 227.859 40.481 227.194 39.6431 226.357C38.8051 225.519 38.1404 224.524 37.6869 223.429C37.2334 222.334 37 221.161 37 219.976V126L68.6665 116.667L96.9996 126V219.976C96.9996 221.161 96.7662 222.334 96.3127 223.429C95.8592 224.524 95.1945 225.519 94.3566 226.357C93.5186 227.194 92.5238 227.859 91.429 228.313C90.3342 228.766 89.1607 229 87.9757 229Z" fill="#185C37"/>
<path d="M153 29H207.68C210.152 29 212.522 29.9819 214.27 31.7297C216.018 33.4776 217 35.8481 217 38.3199V147.679C217 150.151 216.018 152.522 214.27 154.269C212.522 156.017 210.152 156.999 207.68 156.999H153L142.333 88.6663L153 29Z" fill="#33C481"/>
<path d="M37 38.3199V128.999H96.9996V192.999H147.679C150.151 192.999 152.522 192.017 154.269 190.269C156.017 188.521 156.999 186.151 156.999 183.679V29H46.3199C43.8481 29 41.4776 29.9819 39.7297 31.7297C37.9819 33.4776 37 35.8481 37 38.3199Z" fill="#107C41"/>
<path d="M96.9995 29H156.999V96.9996H96.9995V29Z" fill="#21A366"/>
</g>
<defs>
<clipPath id="clip0_392_609">
<rect width="256" height="256" fill="white"/>
</clipPath>
</defs>
</svg>
