<svg width="256" height="256" viewBox="0 0 256 256" fill="none" xmlns="http://www.w3.org/2000/svg">
<g clip-path="url(#clip0_365_363)">
<path d="M196 0H60C26.8629 0 0 26.8629 0 60V196C0 229.137 26.8629 256 60 256H196C229.137 256 256 229.137 256 196V60C256 26.8629 229.137 0 196 0Z" fill="#E05F2C"/>
<path fill-rule="evenodd" clip-rule="evenodd" d="M174.271 81.1346L151.377 94.4326V67.8591L174.271 81.1346Z" fill="#FFFFFE"/>
<path fill-rule="evenodd" clip-rule="evenodd" d="M128.482 54.5728V81.1463L105.588 67.8655L128.482 54.5728Z" fill="#FFFFFE"/>
<path fill-rule="evenodd" clip-rule="evenodd" d="M128.482 81.1455V107.719L105.588 94.4445L128.482 81.1455Z" fill="#FFFFFE"/>
<path fill-rule="evenodd" clip-rule="evenodd" d="M104.895 121.702L82.0081 134.993H82V108.42H82.0081L104.895 121.702Z" fill="#FFFFFE"/>
<path fill-rule="evenodd" clip-rule="evenodd" d="M151.378 67.8591V94.4326L128.484 81.1346L151.378 67.8591Z" fill="#FFFFFE"/>
<path fill-rule="evenodd" clip-rule="evenodd" d="M128.482 54.5782L105.588 67.8596V41.2861L128.482 54.5782Z" fill="#FFFFFE"/>
<path fill-rule="evenodd" clip-rule="evenodd" d="M151.378 94.4445L128.484 107.719V81.1455L151.378 94.4445Z" fill="#FFFFFE"/>
<path fill-rule="evenodd" clip-rule="evenodd" d="M151.378 67.8655L128.484 81.1463V54.5728L151.378 67.8655Z" fill="#FFFFFE"/>
<path fill-rule="evenodd" clip-rule="evenodd" d="M104.895 94.4341V121.008L82 107.716L104.895 94.4341Z" fill="#FFFFFE"/>
<path fill-rule="evenodd" clip-rule="evenodd" d="M104.895 41.2861V67.8596L82 54.5782L104.895 41.2861Z" fill="#FFFFFE"/>
<path fill-rule="evenodd" clip-rule="evenodd" d="M104.895 41.2783L82.0081 54.5735H82V28H82.0081L104.895 41.2783Z" fill="#FFFFFE"/>
<path fill-rule="evenodd" clip-rule="evenodd" d="M128.482 107.716L105.588 121.008V94.4341L128.482 107.716Z" fill="#FFFFFE"/>
<path fill-rule="evenodd" clip-rule="evenodd" d="M104.895 188.139L82 174.842L104.895 161.565V188.139Z" fill="#CE5B2F"/>
<path fill-rule="evenodd" clip-rule="evenodd" d="M128.484 174.852V148.279L151.378 161.574L128.484 174.852Z" fill="#CE5B2F"/>
<path fill-rule="evenodd" clip-rule="evenodd" d="M128.484 201.428V174.854L151.378 188.153L128.484 201.428Z" fill="#CE5B2F"/>
<path fill-rule="evenodd" clip-rule="evenodd" d="M174.271 228H174.258L151.377 214.711L174.258 201.426H174.271V228Z" fill="#CE5B2F"/>
<path fill-rule="evenodd" clip-rule="evenodd" d="M105.588 188.139V161.565L128.482 174.842L105.588 188.139Z" fill="#CE5B2F"/>
<path fill-rule="evenodd" clip-rule="evenodd" d="M151.378 161.566L128.484 148.279L151.378 134.992V161.566Z" fill="#CE5B2F"/>
<path fill-rule="evenodd" clip-rule="evenodd" d="M128.482 201.428L105.588 188.153L128.482 174.854V201.428Z" fill="#CE5B2F"/>
<path fill-rule="evenodd" clip-rule="evenodd" d="M128.482 174.852L105.588 161.574L128.482 148.279V174.852Z" fill="#CE5B2F"/>
<path fill-rule="evenodd" clip-rule="evenodd" d="M151.377 214.714V188.14L174.271 201.416L151.377 214.714Z" fill="#CE5B2F"/>
<path fill-rule="evenodd" clip-rule="evenodd" d="M151.377 161.566V134.992L174.271 148.279L151.377 161.566Z" fill="#CE5B2F"/>
<path fill-rule="evenodd" clip-rule="evenodd" d="M174.271 148.28H174.258L151.377 134.988L174.258 121.706H174.271V148.28Z" fill="#CE5B2F"/>
<path fill-rule="evenodd" clip-rule="evenodd" d="M151.378 214.714L128.484 201.416L151.378 188.14V214.714Z" fill="#CE5B2F"/>
<path fill-rule="evenodd" clip-rule="evenodd" d="M174.258 109.119L82 162.613L174.272 216.112L174.258 189.354L128.64 162.613L174.272 135.87L174.258 109.119Z" fill="#FFFFFE"/>
<path fill-rule="evenodd" clip-rule="evenodd" d="M151.377 107.022V94.5752L163.598 87.4414L174.271 93.6638L151.377 107.022Z" fill="#CE5B2F"/>
<path fill-rule="evenodd" clip-rule="evenodd" d="M151.377 94.4321V80.446L163.865 87.435L151.377 94.4321Z" fill="#E5E5E0"/>
<path fill-rule="evenodd" clip-rule="evenodd" d="M128.482 93.7332V81.3396L117.809 87.5405L105.588 80.4489L116.263 74.2525L128.482 81.3396V67.1597V93.7332Z" fill="#CE5B2F"/>
<path fill-rule="evenodd" clip-rule="evenodd" d="M128.484 81.1457L115.996 74.1555L128.484 67.1597V81.1457Z" fill="#E5E5E0"/>
<path fill-rule="evenodd" clip-rule="evenodd" d="M127.79 93.733L117.383 87.4434L127.79 81.1455V93.733Z" fill="#E5E5E0"/>
<path fill-rule="evenodd" clip-rule="evenodd" d="M128.484 120.308L117.575 114.117L128.484 107.921L115.996 100.833L128.484 107.921V93.7346V120.308Z" fill="#CE5B2F"/>
<path fill-rule="evenodd" clip-rule="evenodd" d="M128.484 107.721L115.996 100.733L128.484 93.7346V107.721Z" fill="#E5E5E0"/>
<path fill-rule="evenodd" clip-rule="evenodd" d="M117.807 114.014L105.588 106.928L116.262 100.728L128.482 107.817L117.807 114.014Z" fill="#E5E5E0"/>
<path fill-rule="evenodd" clip-rule="evenodd" d="M82.0081 147.58H82V135.13H82.0081L94.2281 128L104.895 134.222L82.0081 147.58Z" fill="#CE5B2F"/>
<path fill-rule="evenodd" clip-rule="evenodd" d="M82.0083 134.293H82V120.307H82.0083L94.4879 127.3L82.0083 134.293Z" fill="#E5E5E0"/>
<path fill-rule="evenodd" clip-rule="evenodd" d="M151.378 107.022L140.471 100.794L151.378 94.5752L138.89 87.4414L151.378 94.5752V107.022Z" fill="#CE5B2F"/>
<path fill-rule="evenodd" clip-rule="evenodd" d="M151.378 94.4321L138.89 87.435L151.378 80.446V94.4321Z" fill="#E5E5E0"/>
<path fill-rule="evenodd" clip-rule="evenodd" d="M140.705 100.728L128.484 93.6329L139.157 87.4414L151.378 94.5398L140.705 100.728Z" fill="#E5E5E0"/>
<path fill-rule="evenodd" clip-rule="evenodd" d="M105.588 80.4466V67.8591L115.994 74.15L105.588 80.4466Z" fill="#CE5B2F"/>
<path fill-rule="evenodd" clip-rule="evenodd" d="M116.263 74.1527L105.588 67.9628L117.815 60.866L128.482 67.0609L116.263 74.1527Z" fill="#E5E5E0"/>
<path fill-rule="evenodd" clip-rule="evenodd" d="M105.588 67.8596V53.8735L118.076 60.8684L105.588 67.8596Z" fill="#E5E5E0"/>
<path fill-rule="evenodd" clip-rule="evenodd" d="M128.484 120.308V107.854L140.705 100.728L151.378 106.96L128.484 120.308Z" fill="#CE5B2F"/>
<path fill-rule="evenodd" clip-rule="evenodd" d="M128.484 107.721V93.7346L140.972 100.733L128.484 107.721Z" fill="#E5E5E0"/>
<path fill-rule="evenodd" clip-rule="evenodd" d="M139.157 87.4393L128.484 81.2391L140.704 74.1526L151.378 80.3484L139.157 87.4393Z" fill="#E5E5E0"/>
<path fill-rule="evenodd" clip-rule="evenodd" d="M128.484 93.733V81.1455L138.89 87.4434L128.484 93.733Z" fill="#E5E5E0"/>
<path fill-rule="evenodd" clip-rule="evenodd" d="M128.484 81.1457V67.1597L140.972 74.1555L128.484 81.1457Z" fill="#E5E5E0"/>
<path fill-rule="evenodd" clip-rule="evenodd" d="M104.894 133.595L94.4873 127.398L104.894 121.2V107.021V133.595Z" fill="#CE5B2F"/>
<path fill-rule="evenodd" clip-rule="evenodd" d="M94.2243 127.301L82 120.203L92.6758 114.014L104.895 121.105L94.2243 127.301Z" fill="#E5E5E0"/>
<path fill-rule="evenodd" clip-rule="evenodd" d="M105.588 121.007L93.1001 114.011L105.588 107.021V121.007Z" fill="#E5E5E0"/>
<path fill-rule="evenodd" clip-rule="evenodd" d="M104.895 80.4464L82 67.0921L92.6677 60.866L104.895 67.9986V80.4464Z" fill="#CE5B2F"/>
<path fill-rule="evenodd" clip-rule="evenodd" d="M105.588 67.8596L93.1001 60.8684L105.588 53.8735V67.8596Z" fill="#E5E5E0"/>
<path fill-rule="evenodd" clip-rule="evenodd" d="M82.0079 67.1602H82V54.5728H82.0079L92.4066 60.8646L82.0079 67.1602Z" fill="#CE5B2F"/>
<path fill-rule="evenodd" clip-rule="evenodd" d="M92.6677 60.8666L82 54.6781L94.2256 47.5798L104.895 53.769L92.6677 60.8666Z" fill="#E5E5E0"/>
<path fill-rule="evenodd" clip-rule="evenodd" d="M82.0083 53.874H82V39.8879H82.0083L94.4879 46.8782L82.0083 53.874Z" fill="#E5E5E0"/>
<path fill-rule="evenodd" clip-rule="evenodd" d="M105.588 133.595V121.141L117.807 114.014L128.482 120.235L105.588 133.595Z" fill="#CE5B2F"/>
<path fill-rule="evenodd" clip-rule="evenodd" d="M105.588 121.007V107.021L118.076 114.011L105.588 121.007Z" fill="#E5E5E0"/>
<path fill-rule="evenodd" clip-rule="evenodd" d="M82.0082 28L174.272 81.4938L82 134.993L82.0082 108.241L127.627 81.4938L82 54.7551L82.0082 28Z" fill="#FFFFFE"/>
</g>
<defs>
<clipPath id="clip0_365_363">
<rect width="256" height="256" fill="white"/>
</clipPath>
</defs>
</svg>
