<svg width="256" height="256" viewBox="0 0 256 256" fill="none" xmlns="http://www.w3.org/2000/svg">
<g clip-path="url(#clip0_365_375)">
<rect width="256" height="256" rx="60" fill="#242938"/>
<path fill-rule="evenodd" clip-rule="evenodd" d="M29 203C29 216.807 40.1929 228 54 228H202.419C216.226 228 227.419 216.807 227.419 203V53C227.419 39.1929 216.226 28 202.419 28H54C40.1929 28 29 39.1929 29 53V203Z" fill="#E05F2C"/>
<path fill-rule="evenodd" clip-rule="evenodd" d="M158.383 99.8816L143.296 108.645V91.1333L158.383 99.8816Z" fill="#FFFFFE"/>
<path fill-rule="evenodd" clip-rule="evenodd" d="M128.209 82.3777V99.8892L113.122 91.1374L128.209 82.3777Z" fill="#FFFFFE"/>
<path fill-rule="evenodd" clip-rule="evenodd" d="M128.209 99.8887V117.4L113.122 108.653L128.209 99.8887Z" fill="#FFFFFE"/>
<path fill-rule="evenodd" clip-rule="evenodd" d="M112.665 126.615L97.583 135.374H97.5776V117.862H97.583L112.665 126.615Z" fill="#FFFFFE"/>
<path fill-rule="evenodd" clip-rule="evenodd" d="M143.297 91.1333V108.645L128.209 99.8816L143.297 91.1333Z" fill="#FFFFFE"/>
<path fill-rule="evenodd" clip-rule="evenodd" d="M128.209 82.3816L113.122 91.1338V73.6223L128.209 82.3816Z" fill="#FFFFFE"/>
<path fill-rule="evenodd" clip-rule="evenodd" d="M143.297 108.653L128.209 117.4V99.8887L143.297 108.653Z" fill="#FFFFFE"/>
<path fill-rule="evenodd" clip-rule="evenodd" d="M143.297 91.1374L128.209 99.8892V82.3777L143.297 91.1374Z" fill="#FFFFFE"/>
<path fill-rule="evenodd" clip-rule="evenodd" d="M112.665 108.646V126.157L97.5776 117.398L112.665 108.646Z" fill="#FFFFFE"/>
<path fill-rule="evenodd" clip-rule="evenodd" d="M112.665 73.6223V91.1338L97.5776 82.3816L112.665 73.6223Z" fill="#FFFFFE"/>
<path fill-rule="evenodd" clip-rule="evenodd" d="M112.665 73.6169L97.583 82.3782H97.5776V64.8667H97.583L112.665 73.6169Z" fill="#FFFFFE"/>
<path fill-rule="evenodd" clip-rule="evenodd" d="M128.209 117.398L113.122 126.157V108.646L128.209 117.398Z" fill="#FFFFFE"/>
<path fill-rule="evenodd" clip-rule="evenodd" d="M112.665 170.396L97.5776 161.633L112.665 152.884V170.396Z" fill="#CE5B2F"/>
<path fill-rule="evenodd" clip-rule="evenodd" d="M128.209 161.64V144.128L143.297 152.89L128.209 161.64Z" fill="#CE5B2F"/>
<path fill-rule="evenodd" clip-rule="evenodd" d="M128.209 179.153V161.641L143.297 170.405L128.209 179.153Z" fill="#CE5B2F"/>
<path fill-rule="evenodd" clip-rule="evenodd" d="M158.383 196.664H158.374L143.296 187.907L158.374 179.152H158.383V196.664Z" fill="#CE5B2F"/>
<path fill-rule="evenodd" clip-rule="evenodd" d="M113.122 170.396V152.884L128.209 161.633L113.122 170.396Z" fill="#CE5B2F"/>
<path fill-rule="evenodd" clip-rule="evenodd" d="M143.297 152.885L128.209 144.129L143.297 135.373V152.885Z" fill="#CE5B2F"/>
<path fill-rule="evenodd" clip-rule="evenodd" d="M128.209 179.153L113.122 170.405L128.209 161.641V179.153Z" fill="#CE5B2F"/>
<path fill-rule="evenodd" clip-rule="evenodd" d="M128.209 161.64L113.122 152.89L128.209 144.128V161.64Z" fill="#CE5B2F"/>
<path fill-rule="evenodd" clip-rule="evenodd" d="M143.296 187.908V170.396L158.383 179.145L143.296 187.908Z" fill="#CE5B2F"/>
<path fill-rule="evenodd" clip-rule="evenodd" d="M143.296 152.885V135.373L158.383 144.129L143.296 152.885Z" fill="#CE5B2F"/>
<path fill-rule="evenodd" clip-rule="evenodd" d="M158.383 144.129H158.374L143.296 135.37L158.374 126.618H158.383V144.129Z" fill="#CE5B2F"/>
<path fill-rule="evenodd" clip-rule="evenodd" d="M143.297 187.908L128.209 179.145L143.297 170.396V187.908Z" fill="#CE5B2F"/>
<path fill-rule="evenodd" clip-rule="evenodd" d="M158.374 118.323L97.5776 153.575L158.383 188.83L158.374 171.196L128.312 153.575L158.383 135.951L158.374 118.323Z" fill="#FFFFFE"/>
<path fill-rule="evenodd" clip-rule="evenodd" d="M143.296 116.941V108.739L151.35 104.038L158.383 108.138L143.296 116.941Z" fill="#CE5B2F"/>
<path fill-rule="evenodd" clip-rule="evenodd" d="M143.296 108.645V99.428L151.525 104.034L143.296 108.645Z" fill="#E5E5E0"/>
<path fill-rule="evenodd" clip-rule="evenodd" d="M128.209 108.184V100.017L121.175 104.103L113.122 99.4298L120.156 95.3464L128.209 100.017V90.6724V108.184Z" fill="#CE5B2F"/>
<path fill-rule="evenodd" clip-rule="evenodd" d="M128.21 99.889L119.98 95.2825L128.21 90.6724V99.889Z" fill="#E5E5E0"/>
<path fill-rule="evenodd" clip-rule="evenodd" d="M127.752 108.184L120.895 104.039L127.752 99.8887V108.184Z" fill="#E5E5E0"/>
<path fill-rule="evenodd" clip-rule="evenodd" d="M128.21 125.697L121.021 121.617L128.21 117.533L119.98 112.863L128.21 117.533V108.185V125.697Z" fill="#CE5B2F"/>
<path fill-rule="evenodd" clip-rule="evenodd" d="M128.21 117.402L119.98 112.797L128.21 108.185V117.402Z" fill="#E5E5E0"/>
<path fill-rule="evenodd" clip-rule="evenodd" d="M121.174 121.549L113.122 116.879L120.155 112.793L128.209 117.465L121.174 121.549Z" fill="#E5E5E0"/>
<path fill-rule="evenodd" clip-rule="evenodd" d="M97.583 143.668H97.5776V135.464H97.583L105.636 130.765L112.665 134.866L97.583 143.668Z" fill="#CE5B2F"/>
<path fill-rule="evenodd" clip-rule="evenodd" d="M97.5831 134.912H97.5776V125.696H97.5831L105.807 130.304L97.5831 134.912Z" fill="#E5E5E0"/>
<path fill-rule="evenodd" clip-rule="evenodd" d="M143.296 116.941L136.109 112.837L143.296 108.739L135.067 104.038L143.296 108.739V116.941Z" fill="#CE5B2F"/>
<path fill-rule="evenodd" clip-rule="evenodd" d="M143.296 108.645L135.067 104.034L143.296 99.428V108.645Z" fill="#E5E5E0"/>
<path fill-rule="evenodd" clip-rule="evenodd" d="M136.263 112.793L128.209 108.118L135.243 104.038L143.297 108.715L136.263 112.793Z" fill="#E5E5E0"/>
<path fill-rule="evenodd" clip-rule="evenodd" d="M113.122 99.4282V91.1333L119.979 95.2789L113.122 99.4282Z" fill="#CE5B2F"/>
<path fill-rule="evenodd" clip-rule="evenodd" d="M120.156 95.2809L113.122 91.2019L121.179 86.5251L128.209 90.6075L120.156 95.2809Z" fill="#E5E5E0"/>
<path fill-rule="evenodd" clip-rule="evenodd" d="M113.122 91.1336V81.917L121.351 86.5265L113.122 91.1336Z" fill="#E5E5E0"/>
<path fill-rule="evenodd" clip-rule="evenodd" d="M128.209 125.696V117.489L136.263 112.793L143.297 116.9L128.209 125.696Z" fill="#CE5B2F"/>
<path fill-rule="evenodd" clip-rule="evenodd" d="M128.209 117.402V108.185L136.439 112.797L128.209 117.402Z" fill="#E5E5E0"/>
<path fill-rule="evenodd" clip-rule="evenodd" d="M135.243 104.036L128.209 99.9504L136.262 95.2805L143.297 99.3635L135.243 104.036Z" fill="#E5E5E0"/>
<path fill-rule="evenodd" clip-rule="evenodd" d="M128.209 108.184V99.8887L135.067 104.039L128.209 108.184Z" fill="#E5E5E0"/>
<path fill-rule="evenodd" clip-rule="evenodd" d="M128.209 99.889V90.6724L136.439 95.2825L128.209 99.889Z" fill="#E5E5E0"/>
<path fill-rule="evenodd" clip-rule="evenodd" d="M112.664 134.452L105.807 130.369L112.664 126.284V116.94V134.452Z" fill="#CE5B2F"/>
<path fill-rule="evenodd" clip-rule="evenodd" d="M105.633 130.304L97.5776 125.627L104.613 121.549L112.665 126.221L105.633 130.304Z" fill="#E5E5E0"/>
<path fill-rule="evenodd" clip-rule="evenodd" d="M113.122 126.157L104.893 121.546L113.122 116.94V126.157Z" fill="#E5E5E0"/>
<path fill-rule="evenodd" clip-rule="evenodd" d="M112.665 99.4284L97.5776 90.6281L104.607 86.5251L112.665 91.2254V99.4284Z" fill="#CE5B2F"/>
<path fill-rule="evenodd" clip-rule="evenodd" d="M113.122 91.1336L104.893 86.5265L113.122 81.917V91.1336Z" fill="#E5E5E0"/>
<path fill-rule="evenodd" clip-rule="evenodd" d="M97.5829 90.6726H97.5776V82.3777H97.5829L104.435 86.5239L97.5829 90.6726Z" fill="#CE5B2F"/>
<path fill-rule="evenodd" clip-rule="evenodd" d="M104.607 86.5253L97.5776 82.4471L105.634 77.7695L112.665 81.8481L104.607 86.5253Z" fill="#E5E5E0"/>
<path fill-rule="evenodd" clip-rule="evenodd" d="M97.5831 81.9173H97.5776V72.7007H97.5831L105.807 77.3071L97.5831 81.9173Z" fill="#E5E5E0"/>
<path fill-rule="evenodd" clip-rule="evenodd" d="M113.122 134.452V126.245L121.174 121.549L128.209 125.648L113.122 134.452Z" fill="#CE5B2F"/>
<path fill-rule="evenodd" clip-rule="evenodd" d="M113.122 126.157V116.94L121.351 121.546L113.122 126.157Z" fill="#E5E5E0"/>
<path fill-rule="evenodd" clip-rule="evenodd" d="M97.583 64.8667L158.383 100.118L97.5776 135.374L97.583 117.744L127.645 100.118L97.5776 82.4979L97.583 64.8667Z" fill="#FFFFFE"/>
</g>
<defs>
<clipPath id="clip0_365_375">
<rect width="256" height="256" fill="white"/>
</clipPath>
</defs>
</svg>
