<svg width="256" height="256" viewBox="0 0 256 256" fill="none" xmlns="http://www.w3.org/2000/svg">
<g clip-path="url(#clip0_384_162)">
<rect width="256" height="256" rx="60" fill="#242938"/>
<path fill-rule="evenodd" clip-rule="evenodd" d="M40.5784 127.001C37.2916 127.001 35.3521 126.966 34.2418 126.93C33.4838 126.907 32.8876 126.286 32.8876 125.528V107.674C32.8876 106.916 33.4838 106.295 34.2418 106.27C35.3521 106.236 37.2916 106.199 40.5784 106.199C48.6091 106.199 53.0981 109.494 53.0981 116.599C53.0981 123.708 48.6091 127.001 40.5784 127.001ZM44.4505 95.3759C34.2569 95.5829 19.7457 96.1133 19.7457 96.1133C18.8931 96.1407 18.2188 96.837 18.2188 97.6855V159.948C18.2188 160.914 19.0055 161.696 19.9773 161.696H31.1236C32.094 161.696 32.8794 160.914 32.8794 159.948L32.8876 139.08C32.8876 138.279 33.5483 137.64 34.3542 137.676C35.9168 137.75 38.8843 137.824 44.4505 137.824C57.7871 137.824 65.785 128.815 65.785 116.599C65.785 104.385 57.7844 95.1045 44.4505 95.3759ZM100.654 151.485C90.9896 151.485 89.6408 142.237 89.6408 128.555C89.6408 114.645 90.9896 105.622 100.654 105.622C110.321 105.622 111.67 115.052 111.67 128.555C111.67 142.183 110.321 151.485 100.654 151.485ZM100.654 95.375C92.1999 95.375 74.8623 97.5338 74.8623 128.555C74.8623 159.574 92.1999 161.73 100.654 161.73C109.111 161.73 126.449 159.574 126.449 128.555C126.449 97.5338 109.111 95.375 100.654 95.375ZM212.424 151.485C202.758 151.485 201.408 142.237 201.408 128.555C201.408 114.645 202.758 105.622 212.424 105.622C222.092 105.622 223.44 115.052 223.44 128.555C223.44 142.183 222.092 151.485 212.424 151.485ZM212.424 95.375C203.967 95.375 186.632 97.5338 186.632 128.555C186.632 159.574 203.967 161.73 212.424 161.73C220.881 161.73 238.219 159.574 238.219 128.555C238.219 97.5338 220.881 95.375 212.424 95.375ZM135.634 128.562C135.634 145.421 141.346 161.74 162.782 161.74C170.723 161.74 177.114 159.006 179.524 157.819C180.113 157.526 180.379 156.835 180.14 156.221L177.418 149.255C177.181 148.648 176.527 148.319 175.902 148.496C174.097 149.003 170.304 149.916 166.373 149.916C154.381 149.916 150.341 140.625 150.341 128.562C150.341 116.499 154.381 107.324 166.373 107.324C170.3 107.324 174.092 108.235 175.897 108.742C176.525 108.919 177.181 108.589 177.414 107.976L180.146 100.902C180.383 100.287 180.116 99.5985 179.526 99.3093C177.122 98.1196 170.728 95.3837 162.782 95.3837C141.346 95.3837 135.634 111.703 135.634 128.562Z" fill="#FFD400"/>
</g>
<defs>
<clipPath id="clip0_384_162">
<rect width="256" height="256" fill="white"/>
</clipPath>
</defs>
</svg>
