<svg width="256" height="256" viewBox="0 0 256 256" fill="none" xmlns="http://www.w3.org/2000/svg">
<g clip-path="url(#clip0_384_159)">
<path fill-rule="evenodd" clip-rule="evenodd" d="M256.013 203.509C256.013 232.385 232.389 256.009 203.513 256.009H52.5124C23.6368 256.009 0.0126953 232.385 0.0126953 203.509V52.5085C0.0126953 23.6329 23.6368 0.00878906 52.5124 0.00878906H203.513C232.389 0.00878906 256.013 23.6329 256.013 52.5085V203.509Z" fill="#FFD400"/>
<path fill-rule="evenodd" clip-rule="evenodd" d="M40.5784 129.001C37.2916 129.001 35.3521 128.966 34.2418 128.93C33.4838 128.907 32.8876 128.286 32.8876 127.528V109.674C32.8876 108.916 33.4838 108.295 34.2418 108.27C35.3521 108.236 37.2916 108.199 40.5784 108.199C48.6091 108.199 53.0981 111.494 53.0981 118.599C53.0981 125.708 48.6091 129.001 40.5784 129.001ZM44.4505 97.3759C34.2569 97.5829 19.7457 98.1133 19.7457 98.1133C18.8931 98.1407 18.2188 98.837 18.2188 99.6855V161.948C18.2188 162.914 19.0055 163.696 19.9773 163.696H31.1236C32.094 163.696 32.8794 162.914 32.8794 161.948L32.8876 141.08C32.8876 140.279 33.5483 139.64 34.3542 139.676C35.9168 139.75 38.8843 139.824 44.4505 139.824C57.7871 139.824 65.785 130.815 65.785 118.599C65.785 106.385 57.7844 97.1045 44.4505 97.3759ZM100.654 153.485C90.9896 153.485 89.6408 144.237 89.6408 130.555C89.6408 116.645 90.9896 107.622 100.654 107.622C110.321 107.622 111.67 117.052 111.67 130.555C111.67 144.183 110.321 153.485 100.654 153.485ZM100.654 97.375C92.1999 97.375 74.8623 99.5338 74.8623 130.555C74.8623 161.574 92.1999 163.73 100.654 163.73C109.111 163.73 126.449 161.574 126.449 130.555C126.449 99.5338 109.111 97.375 100.654 97.375ZM212.424 153.485C202.758 153.485 201.408 144.237 201.408 130.555C201.408 116.645 202.758 107.622 212.424 107.622C222.092 107.622 223.44 117.052 223.44 130.555C223.44 144.183 222.092 153.485 212.424 153.485ZM212.424 97.375C203.967 97.375 186.632 99.5338 186.632 130.555C186.632 161.574 203.967 163.73 212.424 163.73C220.881 163.73 238.219 161.574 238.219 130.555C238.219 99.5338 220.881 97.375 212.424 97.375ZM135.634 130.562C135.634 147.421 141.346 163.74 162.782 163.74C170.723 163.74 177.114 161.006 179.524 159.819C180.113 159.526 180.379 158.835 180.14 158.221L177.418 151.255C177.181 150.648 176.527 150.319 175.902 150.496C174.097 151.003 170.304 151.916 166.373 151.916C154.381 151.916 150.341 142.625 150.341 130.562C150.341 118.499 154.381 109.324 166.373 109.324C170.3 109.324 174.092 110.235 175.897 110.742C176.525 110.919 177.181 110.589 177.414 109.976L180.146 102.902C180.383 102.287 180.116 101.599 179.526 101.309C177.122 100.12 170.728 97.3837 162.782 97.3837C141.346 97.3837 135.634 113.703 135.634 130.562Z" fill="black"/>
</g>
<defs>
<clipPath id="clip0_384_159">
<rect width="256" height="256" fill="white"/>
</clipPath>
</defs>
</svg>
