<svg width="256" height="256" viewBox="0 0 256 256" fill="none" xmlns="http://www.w3.org/2000/svg">
<g clip-path="url(#clip0_384_165)">
<rect width="256" height="256" rx="60" fill="white"/>
<path fill-rule="evenodd" clip-rule="evenodd" d="M40.5784 128.001C37.2916 128.001 35.3521 127.966 34.2418 127.93C33.4838 127.907 32.8876 127.286 32.8876 126.528V108.674C32.8876 107.916 33.4838 107.295 34.2418 107.27C35.3521 107.236 37.2916 107.199 40.5784 107.199C48.6091 107.199 53.0981 110.494 53.0981 117.599C53.0981 124.708 48.6091 128.001 40.5784 128.001ZM44.4505 96.3759C34.2569 96.5829 19.7457 97.1133 19.7457 97.1133C18.8931 97.1407 18.2188 97.837 18.2188 98.6855V160.948C18.2188 161.914 19.0055 162.696 19.9773 162.696H31.1236C32.094 162.696 32.8794 161.914 32.8794 160.948L32.8876 140.08C32.8876 139.279 33.5483 138.64 34.3542 138.676C35.9168 138.75 38.8843 138.824 44.4505 138.824C57.7871 138.824 65.785 129.815 65.785 117.599C65.785 105.385 57.7844 96.1045 44.4505 96.3759ZM100.654 152.485C90.9896 152.485 89.6408 143.237 89.6408 129.555C89.6408 115.645 90.9896 106.622 100.654 106.622C110.321 106.622 111.67 116.052 111.67 129.555C111.67 143.183 110.321 152.485 100.654 152.485ZM100.654 96.375C92.1999 96.375 74.8623 98.5338 74.8623 129.555C74.8623 160.574 92.1999 162.73 100.654 162.73C109.111 162.73 126.449 160.574 126.449 129.555C126.449 98.5338 109.111 96.375 100.654 96.375ZM212.424 152.485C202.758 152.485 201.408 143.237 201.408 129.555C201.408 115.645 202.758 106.622 212.424 106.622C222.092 106.622 223.44 116.052 223.44 129.555C223.44 143.183 222.092 152.485 212.424 152.485ZM212.424 96.375C203.967 96.375 186.632 98.5338 186.632 129.555C186.632 160.574 203.967 162.73 212.424 162.73C220.881 162.73 238.219 160.574 238.219 129.555C238.219 98.5338 220.881 96.375 212.424 96.375ZM135.634 129.562C135.634 146.421 141.346 162.74 162.782 162.74C170.723 162.74 177.114 160.006 179.524 158.819C180.113 158.526 180.379 157.835 180.14 157.221L177.418 150.255C177.181 149.648 176.527 149.319 175.902 149.496C174.097 150.003 170.304 150.916 166.373 150.916C154.381 150.916 150.341 141.625 150.341 129.562C150.341 117.499 154.381 108.324 166.373 108.324C170.3 108.324 174.092 109.235 175.897 109.742C176.525 109.919 177.181 109.589 177.414 108.976L180.146 101.902C180.383 101.287 180.116 100.599 179.526 100.309C177.122 99.1196 170.728 96.3837 162.782 96.3837C141.346 96.3837 135.634 112.703 135.634 129.562Z" fill="black"/>
</g>
<defs>
<clipPath id="clip0_384_165">
<rect width="256" height="256" fill="white"/>
</clipPath>
</defs>
</svg>
