<svg width="256" height="256" viewBox="0 0 256 256" fill="none" xmlns="http://www.w3.org/2000/svg">
<g clip-path="url(#clip0_248_2167)">
<path d="M196 0H60C26.8629 0 0 26.8629 0 60V196C0 229.137 26.8629 256 60 256H196C229.137 256 256 229.137 256 196V60C256 26.8629 229.137 0 196 0Z" fill="#FF6C37"/>
<path d="M177.273 80.5348L116.625 141.184L99.5216 124.081C159.165 64.4384 165.058 69.6122 177.273 80.5348Z" fill="#EEEEEE"/>
<path d="M116.625 142.62C116.193 142.62 115.906 142.477 115.618 142.189L98.372 125.087C97.7972 124.512 97.7972 123.651 98.372 123.076C159.021 62.4255 165.344 68.1744 178.136 79.672C178.424 79.9596 178.567 80.2471 178.567 80.6782C178.567 81.1095 178.424 81.3969 178.136 81.6835L117.487 142.189C117.344 142.477 116.912 142.62 116.625 142.62ZM101.534 124.081L116.625 139.171L175.118 80.6782C164.484 71.1921 157.297 68.3181 101.534 124.081Z" fill="#FF6C37"/>
<path d="M134.014 158.574L117.487 142.046L178.136 81.3979C194.377 97.7809 170.088 124.369 134.014 158.574Z" fill="#EEEEEE"/>
<path d="M134.014 160.012C133.582 160.012 133.297 159.868 133.009 159.58L116.481 143.052C116.193 142.765 116.193 142.477 116.193 142.046C116.193 141.614 116.337 141.328 116.625 141.04L177.273 80.3912C177.848 79.8162 178.711 79.8162 179.286 80.3912C183.022 83.8402 185.035 88.7264 184.891 93.7566C184.604 109.709 166.495 129.973 135.164 159.58C134.733 159.868 134.301 160.012 134.014 160.012ZM119.499 142.046C128.696 151.387 132.578 155.125 134.014 156.562C158.16 133.567 181.585 109.997 181.729 93.7566C181.873 90.0202 180.436 86.2837 177.992 83.4089L119.499 142.046Z" fill="#FF6C37"/>
<path d="M99.8096 124.512L112.026 136.728C112.312 137.016 112.312 137.303 112.026 137.591C111.882 137.735 111.882 137.735 111.739 137.735L86.4432 143.196C85.1504 143.34 84.0005 142.477 83.7131 141.184C83.5693 140.465 83.8568 139.747 84.288 139.315L98.9468 124.656C99.2348 124.368 99.6656 124.224 99.8096 124.512Z" fill="#EEEEEE"/>
<path d="M86.0119 144.634C83.8568 144.634 82.2755 142.908 82.2755 140.752C82.2755 139.747 82.7068 138.74 83.4255 138.022L98.0839 123.362C98.9467 122.644 100.098 122.644 100.959 123.362L113.175 135.578C114.037 136.297 114.037 137.591 113.175 138.452C112.887 138.74 112.6 138.884 112.168 139.028L86.8744 144.49C86.5869 144.49 86.2993 144.634 86.0119 144.634ZM99.3787 126.092L85.2941 140.177C85.0067 140.465 84.8629 140.896 85.1503 141.326C85.2941 141.758 85.7244 141.902 86.1557 141.758L109.869 136.584L99.3787 126.092Z" fill="#FF6C37"/>
<path d="M209.323 46.9052C200.125 37.995 185.321 38.2825 176.41 47.624C167.5 56.9654 167.788 71.6245 177.129 80.5357C184.747 87.8648 196.245 89.1585 205.299 83.6971L188.914 67.3131L209.323 46.9052Z" fill="#EEEEEE"/>
<path d="M193.226 88.4395C179.573 88.4395 168.507 77.3731 168.507 63.7202C168.507 50.0664 179.573 39 193.226 39C199.55 39 205.73 41.4437 210.328 45.8988C210.616 46.1863 210.76 46.4737 210.76 46.905C210.76 47.3363 210.616 47.6237 210.328 47.9112L190.927 67.3129L206.161 82.5469C206.737 83.1219 206.737 83.9844 206.161 84.5593C206.018 84.703 206.018 84.703 205.874 84.8468C202.137 87.1458 197.681 88.4395 193.226 88.4395ZM193.226 42.0186C181.154 42.0186 171.381 51.7914 171.525 63.864C171.525 75.9366 181.297 85.7092 193.37 85.5656C196.676 85.5656 199.981 84.8468 202.999 83.2656L187.909 68.3191C187.621 68.0316 187.478 67.7441 187.478 67.3129C187.478 66.8816 187.621 66.5941 187.909 66.3067L207.167 47.0487C203.287 43.7436 198.4 42.0186 193.226 42.0186Z" fill="#FF6C37"/>
<path d="M209.753 47.3363L209.467 47.0488L188.914 67.313L205.155 83.5533C206.737 82.5471 208.316 81.3981 209.611 80.1044C218.807 71.0494 218.807 56.3903 209.753 47.3363Z" fill="#EEEEEE"/>
<path d="M205.299 85.1335C204.867 85.1335 204.58 84.9897 204.292 84.7023L187.909 68.3183C187.621 68.0308 187.478 67.7434 187.478 67.3121C187.478 66.8808 187.621 66.5934 187.909 66.3059L208.316 45.898C208.892 45.3231 209.753 45.3231 210.328 45.898L210.76 46.1855C220.389 55.8144 220.389 71.336 210.904 81.1097C209.467 82.5462 207.885 83.8398 206.161 84.8461C205.73 84.9897 205.443 85.1335 205.299 85.1335ZM190.927 67.3121L205.443 81.8274C206.593 81.1097 207.742 80.1035 208.604 79.241C216.796 71.0485 217.227 57.6832 209.323 49.0603L190.927 67.3121Z" fill="#FF6C37"/>
<path d="M179.717 83.1209C176.267 79.672 170.662 79.672 167.213 83.1209L113.031 137.303L122.086 146.357L179.429 96.0564C183.166 92.8935 183.453 87.2885 180.292 83.552C180.004 83.4084 179.86 83.2646 179.717 83.1209Z" fill="#EEEEEE"/>
<path d="M121.942 147.794C121.512 147.794 121.224 147.65 120.936 147.363L111.882 138.309C111.307 137.734 111.307 136.872 111.882 136.297L166.063 82.1146C170.087 78.0907 176.554 78.0907 180.579 82.1146C184.604 86.1394 184.604 92.606 180.579 96.6309C180.436 96.7749 180.292 96.9177 180.148 97.0617L122.804 147.363C122.661 147.65 122.373 147.794 121.942 147.794ZM115.044 137.303L122.086 144.345L178.424 94.9053C181.585 92.3185 181.873 87.5759 179.285 84.4145C176.698 81.2531 171.956 80.9656 168.794 83.552C168.651 83.6958 168.507 83.8394 168.219 83.9832L115.044 137.303Z" fill="#FF6C37"/>
<path d="M71.4968 198.96C70.9217 199.247 70.6342 199.822 70.778 200.396L73.2216 210.745C73.7967 212.182 72.9341 213.907 71.353 214.338C70.203 214.769 68.9103 214.338 68.1916 213.476L52.3826 197.81L103.977 146.215L121.798 146.502L133.87 158.575C130.996 161.019 113.606 177.833 71.4968 198.96Z" fill="#EEEEEE"/>
<path d="M70.3467 215.773C69.1977 215.773 68.0478 215.342 67.329 214.481L51.6637 198.815C51.3763 198.528 51.2325 198.24 51.2325 197.809C51.2325 197.378 51.3763 197.09 51.6637 196.802L103.258 145.208C103.546 144.92 103.977 144.776 104.265 144.776L122.086 145.064C122.517 145.064 122.804 145.208 123.091 145.495L135.164 157.567C135.452 157.855 135.595 158.286 135.595 158.717C135.595 159.149 135.452 159.436 135.02 159.724L134.014 160.586C118.78 173.951 98.084 187.318 72.3591 200.108L74.8028 210.312C75.233 212.18 74.3715 214.193 72.6466 215.198C71.7841 215.629 71.0654 215.773 70.3467 215.773ZM54.5377 197.809L69.3414 212.468C69.7717 213.187 70.6341 213.474 71.3529 213.043C72.0716 212.612 72.3591 211.749 71.9278 211.031L69.4851 200.683C69.1977 199.389 69.7717 198.24 70.9216 197.665C96.3596 184.874 116.912 171.653 132.002 158.574L121.368 147.938L104.84 147.65L54.5377 197.809Z" fill="#FF6C37"/>
<path d="M40.1661 210.169L52.5262 197.809L70.9216 216.205L41.6035 214.194C40.3099 214.05 39.4473 212.9 39.5911 211.605C39.5911 211.031 39.7348 210.456 40.1661 210.169Z" fill="#EEEEEE"/>
<path d="M70.9216 217.498L41.4598 215.486C39.3036 215.342 37.8661 213.475 38.0099 211.318C38.1536 210.456 38.4412 209.594 39.1598 209.019L51.52 196.659C52.095 196.084 52.9574 196.084 53.5315 196.659L71.9278 215.055C72.3591 215.486 72.5029 216.061 72.2154 216.637C71.9278 217.212 71.4967 217.498 70.9216 217.498ZM52.5262 199.821L41.1722 211.174C40.7411 211.462 40.7411 212.181 41.1722 212.468C41.316 212.612 41.4598 212.756 41.7473 212.756L67.1852 214.48L52.5262 199.821Z" fill="#FF6C37"/>
<path d="M98.9468 152.826C98.084 152.826 97.5092 152.107 97.5092 151.388C97.5092 150.957 97.6531 150.671 97.9411 150.383L111.882 136.442C112.456 135.866 113.319 135.866 113.894 136.442L122.948 145.496C123.379 145.927 123.523 146.358 123.379 146.934C123.235 147.365 122.804 147.795 122.23 147.939L99.2347 152.826C99.0907 152.826 98.9468 152.826 98.9468 152.826ZM112.887 139.46L103.402 148.946L118.923 145.639L112.887 139.46Z" fill="#FF6C37"/>
<path d="M121.798 146.501L105.99 149.951C104.84 150.239 103.689 149.52 103.402 148.37C103.258 147.652 103.402 146.933 103.977 146.358L112.743 137.591L121.798 146.501Z" fill="#EEEEEE"/>
<path d="M105.702 151.388C103.689 151.388 102.109 149.808 102.109 147.795C102.109 146.79 102.54 145.927 103.114 145.209L111.882 136.442C112.456 135.866 113.319 135.866 113.894 136.442L122.948 145.496C123.379 145.927 123.523 146.358 123.379 146.934C123.235 147.365 122.804 147.795 122.23 147.939L106.42 151.388C106.134 151.388 105.846 151.388 105.702 151.388ZM112.887 139.46L105.127 147.221C104.84 147.509 104.84 147.795 104.983 148.083C105.127 148.37 105.415 148.514 105.846 148.514L119.067 145.639L112.887 139.46Z" fill="#FF6C37"/>
<path d="M209.897 61.1321C209.611 60.2705 208.604 59.8393 207.741 60.1268C206.879 60.4133 206.449 61.4195 206.737 62.282C206.737 62.4258 206.879 62.5694 206.879 62.7132C207.741 64.4382 207.455 66.5934 206.305 68.1745C205.73 68.8933 205.874 69.8995 206.449 70.4744C207.167 71.0485 208.173 70.9057 208.748 70.187C210.904 67.4558 211.335 64.0069 209.897 61.1321Z" fill="#FF6C37"/>
</g>
<defs>
<clipPath id="clip0_248_2167">
<rect width="256" height="256" fill="white"/>
</clipPath>
</defs>
</svg>
