<svg width="256" height="256" viewBox="0 0 256 256" fill="none" xmlns="http://www.w3.org/2000/svg">
<g clip-path="url(#clip0_248_2196)">
<rect width="256" height="256" rx="60" fill="white"/>
<path d="M207.08 66.8172C173.325 23.1061 110.522 15.0368 66.8093 48.7982C23.103 82.5596 15.0417 145.363 48.8031 189.069C82.571 232.774 145.379 240.83 189.079 207.062C232.768 173.301 240.83 110.517 207.08 66.8172Z" fill="#F37036"/>
<path d="M171.569 63.7516C168.126 64.0269 164.862 65.3967 162.254 67.6606C159.202 70.3113 157.254 74.0097 156.795 78.0261C156.335 82.0425 157.398 86.0852 159.773 89.3566C162.146 92.6286 165.658 94.8928 169.618 95.7026C173.578 96.5124 177.698 95.8091 181.164 93.7313H181.168L181.419 93.9826C182.561 93.3284 183.623 92.5444 184.585 91.6463C187.553 88.5074 189.185 84.3386 189.139 80.0191C189.092 75.6997 187.369 71.5673 184.334 68.4936V68.4904L170.083 82.652L169.832 82.4023L184.082 68.2342C182.433 66.644 180.464 65.4223 178.307 64.6501C176.15 63.8779 173.853 63.5727 171.569 63.7548V63.7516ZM152.807 86.9332C145.975 86.9219 134.82 94.6658 107.583 121.903L107.718 122.042C107.57 121.99 107.42 121.985 107.42 121.985L97.1661 132.149C96.9028 132.4 96.7285 132.729 96.6697 133.088C96.611 133.447 96.671 133.815 96.8406 134.136C97.0102 134.458 97.2802 134.715 97.6095 134.869C97.9387 135.022 98.3092 135.064 98.6646 134.988L116.25 131.237C116.329 131.165 116.381 131.069 116.398 130.963L116.788 131.366L110.794 137.312H110.504L74.9174 173.179L86.335 184.175C86.6538 184.463 87.0567 184.642 87.4847 184.686C87.9126 184.729 88.3432 184.634 88.7133 184.415C89.0864 184.198 89.3853 183.873 89.5707 183.483C89.7562 183.093 89.8195 182.656 89.7525 182.23L88.0848 174.979C87.98 174.834 87.9235 174.659 87.9235 174.48C87.9235 174.3 87.98 174.125 88.0848 173.98C103.673 166.549 118.168 157.016 131.168 145.649L123.86 138.338L123.999 138.316L119.665 133.983L119.942 133.703L120.235 134.002L120.083 134.149L131.583 145.9V145.895C153.626 125.023 169.271 108.244 165.203 96.9522C165.018 95.6019 164.39 94.3509 163.419 93.3945V93.4009C163.172 93.2182 162.912 93.0535 162.641 92.9079C162.507 92.7661 162.39 92.6211 162.248 92.4825L162.141 92.5889C161.842 92.4079 161.528 92.2516 161.204 92.1216L161.669 91.6511C158.775 89.073 156.384 86.9397 152.807 86.93V86.9332ZM74.6692 173.394L66.3372 181.727V181.734C66.0383 181.919 65.8059 182.194 65.6735 182.52C65.5412 182.846 65.5158 183.205 65.6009 183.546C65.6831 183.887 65.8707 184.194 66.1372 184.422C66.4036 184.65 66.7352 184.789 67.0849 184.818L87.5032 186.227L74.6692 173.394Z" fill="white"/>
<path d="M172.974 62.3755C168.298 62.3702 163.807 64.2049 160.472 67.4833C158.1 69.9117 156.475 72.9709 155.793 76.2964C155.11 79.6219 155.397 83.0736 156.621 86.2403C148.982 82.9694 138.647 88.6734 106.5 120.814C106.478 120.863 106.458 120.914 106.441 120.965C106.375 120.994 106.31 121.028 106.249 121.065L96.0832 131.319C95.596 131.798 95.2759 132.42 95.1706 133.095C95.0652 133.769 95.1802 134.46 95.4983 135.064C95.7821 135.542 96.1842 135.939 96.666 136.217C97.1477 136.495 97.6928 136.644 98.2488 136.65L98.7532 136.323L112.327 133.427L105.833 139.98C105.796 140.067 105.767 140.156 105.746 140.248L73.9231 172.15C73.7963 172.256 73.6913 172.387 73.6138 172.533L65.4187 180.735C65.0108 181.166 64.7321 181.703 64.6141 182.285C64.4962 182.867 64.5439 183.47 64.7517 184.026C64.9661 184.579 65.3287 185.061 65.7994 185.421C66.2701 185.78 66.8308 186.003 67.42 186.065L87.7512 187.483C88.0987 187.362 88.3943 187.126 88.5891 186.814C88.763 186.571 88.8565 186.279 88.8565 185.98C88.8565 185.681 88.763 185.39 88.5891 185.146L88.5472 185.106C88.9871 184.877 89.374 184.559 89.6832 184.171C90.0094 183.748 90.2373 183.256 90.3505 182.734C90.4636 182.211 90.4591 181.67 90.3374 181.149L88.7519 174.402C103.963 167.133 118.216 158.007 131.184 147.234C131.309 147.307 131.443 147.363 131.583 147.4C131.992 147.37 132.376 147.194 132.666 146.904C154.499 126.231 167.333 112.065 167.333 100.818C167.381 99.2575 167.146 97.7016 166.638 96.2255C168.606 97.0399 170.705 97.493 172.834 97.5629L172.81 97.5693C175.742 97.4809 178.609 96.679 181.161 95.233L181.168 95.2346C181.498 95.3328 181.854 95.3011 182.162 95.146C183.394 94.4205 184.516 93.5243 185.497 92.4841C187.159 90.8539 188.479 88.9088 189.38 86.7624C190.282 84.6161 190.746 82.3116 190.747 79.9837C190.746 77.6559 190.282 75.3515 189.381 73.2051C188.48 71.0588 187.16 69.1136 185.499 67.4833C185.439 67.4298 185.375 67.3807 185.309 67.3367C181.991 64.1526 177.571 62.3754 172.972 62.3771L172.974 62.3755ZM172.834 65.2307C176.09 65.2501 179.251 66.3331 181.835 68.3147L168.835 81.3936C168.791 81.4436 168.75 81.4964 168.712 81.5515C168.478 81.7886 168.341 82.1046 168.327 82.4377C168.327 82.639 168.372 82.8377 168.46 83.019C168.547 83.2004 168.674 83.3597 168.831 83.485H168.835L178.664 93.3139C175.973 94.488 172.991 94.8219 170.108 94.2719C167.224 93.7218 164.575 92.3135 162.506 90.2315C158.339 86.0422 157.13 79.7517 159.359 74.2942C161.587 68.8319 166.9 65.2629 172.834 65.2307ZM184.306 70.7607C186.432 73.3324 187.591 76.5667 187.582 79.9031C187.576 83.8118 186.018 87.5581 183.251 90.3185C182.696 90.8404 182.105 91.3224 181.482 91.7606L173.549 83.9507L171.998 82.399L172.425 81.972L184.305 70.7574L184.306 70.7607ZM183.717 77.5168C183.425 77.4251 183.11 77.4429 182.83 77.5668C182.554 77.7098 182.345 77.9566 182.25 78.2532C182.204 78.4012 182.187 78.557 182.201 78.7116C182.214 78.8662 182.259 79.0165 182.331 79.1539C182.616 79.756 182.729 80.4257 182.656 81.0882C182.583 81.7506 182.327 82.3796 181.917 82.905C181.812 83.0063 181.729 83.1288 181.675 83.2644C181.621 83.3999 181.596 83.5454 181.603 83.6913C181.609 83.9878 181.715 84.2713 181.917 84.484C182.132 84.5661 182.369 84.5661 182.584 84.484C182.778 84.5324 182.981 84.5269 183.172 84.4681C183.363 84.4093 183.534 84.2995 183.667 84.1505C184.353 83.31 184.787 82.2926 184.92 81.2157C185.052 80.1389 184.878 79.0465 184.416 78.0646V78.0711C184.258 77.807 184.01 77.6098 183.717 77.5168ZM152.656 88.3495C154.6 88.4159 156.471 89.1088 157.989 90.325C156.354 90.5607 154.839 91.318 153.669 92.4841L116.92 129.068L109.708 121.856C128.767 102.888 140.42 92.9804 147.664 89.7336C149.157 88.7937 150.892 88.3136 152.656 88.3495ZM159.044 93.1189C160.278 93.1199 161.462 93.6088 162.336 94.4789C162.801 94.9161 163.167 95.4467 163.411 96.0358C163.655 96.6249 163.771 97.259 163.753 97.8964C163.731 98.5316 163.58 99.1556 163.307 99.7295C163.034 100.303 162.645 100.815 162.166 101.232L123.092 135.24L118.875 131.023L155.753 94.4789C156.628 93.6093 157.811 93.1195 159.044 93.1189ZM163.869 103.911C161.146 114.71 146.713 129.342 131.664 143.56L125.578 137.481L163.869 103.911ZM107.583 123.986L108.025 124.422L113.685 130.082L98.1682 133.401L107.583 123.986ZM116.917 133.396L116.924 133.403L118.806 135.328L118.835 135.464L118.96 135.483L119.36 135.892L120.681 137.246L112.004 138.309L116.917 133.396ZM123.148 139.964L128.913 145.726C116.165 156.327 102.176 165.339 87.2534 172.564C86.7689 172.794 86.3793 173.186 86.1511 173.672C85.9228 174.157 85.8699 174.707 86.0014 175.227L87.6691 182.478C87.7305 182.563 87.7636 182.665 87.7636 182.77C87.7636 182.875 87.7305 182.978 87.6691 183.063C87.5774 183.145 87.4586 183.191 87.3355 183.191C87.2124 183.191 87.0936 183.145 87.002 183.063L77.1699 173.15L107.475 142.4L123.148 139.964ZM74.9173 175.316L76.3175 176.627L83.5554 183.865L67.4167 182.821L74.9173 175.316Z" fill="#F37036"/>
</g>
<defs>
<clipPath id="clip0_248_2196">
<rect width="256" height="256" fill="white"/>
</clipPath>
</defs>
</svg>
