<svg width="256" height="256" viewBox="0 0 256 256" fill="none" xmlns="http://www.w3.org/2000/svg">
<g clip-path="url(#clip0_248_1279)">
<rect width="256" height="256" rx="60" fill="white"/>
<mask id="mask0_248_1279" style="mask-type:luminance" maskUnits="userSpaceOnUse" x="53" y="28" width="151" height="200">
<path d="M136.335 36.3332C136.335 31.7313 140.066 28 144.668 28H194.668C199.27 28 203.001 31.7313 203.001 36.3332V219.667C203.001 224.269 199.27 228 194.668 228H61.3344C56.7325 228 53.0012 224.269 53.0012 219.667V136.334C53.0012 131.732 56.7325 128.001 61.3344 128.001H94.6684V86.3336C94.6684 81.7311 98.3991 77.9999 103.002 77.9999H136.335V36.3332Z" fill="white"/>
</mask>
<g mask="url(#mask0_248_1279)">
<path d="M203.001 28V228H136.334V28H203.001Z" fill="url(#paint0_linear_248_1279)"/>
</g>
<mask id="mask1_248_1279" style="mask-type:luminance" maskUnits="userSpaceOnUse" x="53" y="28" width="151" height="200">
<path d="M136.335 36.3332C136.335 31.7313 140.066 28 144.668 28H194.668C199.27 28 203.001 31.7313 203.001 36.3332V219.667C203.001 224.269 199.27 228 194.668 228H61.3344C56.7325 228 53.0012 224.269 53.0012 219.667V136.334C53.0012 131.732 56.7325 128.001 61.3344 128.001H94.6684V86.3336C94.6684 81.7311 98.3991 77.9999 103.002 77.9999H136.335V36.3332Z" fill="white"/>
</mask>
<g mask="url(#mask1_248_1279)">
<path d="M161.335 86.3338V228H94.6672V78H153.001C157.603 78 161.334 81.7313 161.334 86.3338" fill="url(#paint1_linear_248_1279)"/>
</g>
<mask id="mask2_248_1279" style="mask-type:luminance" maskUnits="userSpaceOnUse" x="53" y="28" width="151" height="200">
<path d="M136.335 36.3332C136.335 31.7313 140.066 28 144.668 28H194.668C199.27 28 203.001 31.7313 203.001 36.3332V219.667C203.001 224.269 199.27 228 194.668 228H61.3344C56.7325 228 53.0012 224.269 53.0012 219.667V136.334C53.0012 131.732 56.7325 128.001 61.3344 128.001H94.6684V86.3336C94.6684 81.7311 98.3991 77.9999 103.002 77.9999H136.335V36.3332Z" fill="white"/>
</mask>
<g mask="url(#mask2_248_1279)">
<path d="M53.0012 128V228H119.668V136.334C119.668 131.732 115.937 128.001 111.335 128.001L53.0012 128Z" fill="url(#paint2_linear_248_1279)"/>
</g>
</g>
<defs>
<linearGradient id="paint0_linear_248_1279" x1="2975.88" y1="28" x2="10344.5" y2="15647.4" gradientUnits="userSpaceOnUse">
<stop stop-color="#E6AD10"/>
<stop offset="1" stop-color="#C87E0E"/>
</linearGradient>
<linearGradient id="paint1_linear_248_1279" x1="2769.5" y1="77.9999" x2="8916.71" y2="12000.3" gradientUnits="userSpaceOnUse">
<stop stop-color="#F6D751"/>
<stop offset="1" stop-color="#E6AD10"/>
</linearGradient>
<linearGradient id="paint2_linear_248_1279" x1="1904.61" y1="128" x2="5647.23" y2="8997.78" gradientUnits="userSpaceOnUse">
<stop stop-color="#F9E589"/>
<stop offset="1" stop-color="#F6D751"/>
</linearGradient>
<clipPath id="clip0_248_1279">
<rect width="256" height="256" fill="white"/>
</clipPath>
</defs>
</svg>
