<svg width="256" height="256" viewBox="0 0 256 256" fill="none" xmlns="http://www.w3.org/2000/svg">
<g clip-path="url(#clip0_248_2203)">
<path d="M196 0H60C26.8629 0 0 26.8629 0 60V196C0 229.137 26.8629 256 60 256H196C229.137 256 256 229.137 256 196V60C256 26.8629 229.137 0 196 0Z" fill="#5391FE"/>
<path fill-rule="evenodd" clip-rule="evenodd" d="M177.65 133.706C176.036 136.435 173.781 138.728 171.079 140.389L65.9729 215.866C63.044 217.73 59.5147 218.408 56.1036 217.761C52.6925 217.115 49.6561 215.192 47.6129 212.384C45.5698 209.578 44.6735 206.097 45.1067 202.653C45.5396 199.207 47.2696 196.058 49.944 193.843L144.769 125.184V123.77L85.1985 60.4004C82.9567 57.7302 81.8231 54.3027 82.0305 50.8224C82.2382 47.3422 83.7711 44.0735 86.3142 41.6887C88.8574 39.3038 92.2177 37.9838 95.7041 38.0002C99.1905 38.0164 102.539 39.3678 105.06 41.7764L176.537 117.821C178.466 119.965 179.624 122.693 179.825 125.571C180.028 128.449 179.262 131.313 177.65 133.706Z" fill="white"/>
<path fill-rule="evenodd" clip-rule="evenodd" d="M142.008 190.181H198.659C201.788 190.181 204.788 191.424 207.001 193.636C209.213 195.847 210.456 198.848 210.456 201.976C210.456 205.105 209.213 208.106 207.001 210.318C204.788 212.529 201.788 213.772 198.659 213.772H142.008C138.879 213.772 135.878 212.529 133.666 210.318C131.454 208.106 130.211 205.105 130.211 201.976C130.211 198.848 131.454 195.847 133.666 193.636C135.878 191.424 138.879 190.181 142.008 190.181Z" fill="white"/>
</g>
<defs>
<clipPath id="clip0_248_2203">
<rect width="256" height="256" fill="white"/>
</clipPath>
</defs>
</svg>
