<svg width="256" height="256" viewBox="0 0 256 256" fill="none" xmlns="http://www.w3.org/2000/svg">
<g clip-path="url(#clip0_294_256)">
<rect width="256" height="256" rx="60" fill="white"/>
<path d="M147.929 138.142L133.979 36H132.936C108.582 36.0414 85.2355 45.7224 67.9988 62.927C50.7621 80.1316 41.0375 103.46 40.9507 127.814V128.857L147.929 138.142Z" fill="#ED6C47"/>
<path d="M135.021 36H133.979V128.857L180.485 147.428L227 128.857V127.814C226.913 103.462 217.189 80.1339 199.954 62.9295C182.719 45.7252 159.374 36.0433 135.021 36Z" fill="#FF8F6B"/>
<path d="M227 128.856V129.878C226.909 154.235 217.182 177.566 199.944 194.773C182.705 211.981 159.357 221.666 135 221.713H132.95C108.594 221.662 85.2484 211.976 68.0108 194.769C50.7733 177.562 41.045 154.234 40.9507 129.878V128.856H227Z" fill="#D35230"/>
<path opacity="0.1" d="M138.629 81.6295V180.708C138.616 182.393 138.106 184.038 137.164 185.435C136.221 186.833 134.887 187.921 133.329 188.565C132.309 188.986 131.218 189.207 130.115 189.215H62.9078C61.6034 187.72 60.3618 186.171 59.1864 184.572C47.3408 168.799 40.941 149.605 40.9508 129.879V127.836C40.9262 110.043 46.1352 92.6351 55.9293 77.7796C56.9462 76.1848 58.0329 74.6357 59.1864 73.1367H130.115C132.364 73.1516 134.518 74.0505 136.111 75.6394C137.704 77.2283 138.608 79.3798 138.629 81.6295Z" fill="black"/>
<path opacity="0.2" d="M133.979 86.2832V185.361C133.969 186.46 133.749 187.546 133.329 188.561C132.684 190.118 131.595 191.45 130.198 192.392C128.801 193.333 127.157 193.842 125.472 193.854H67.1435C65.6721 192.359 64.2602 190.811 62.9078 189.211C61.6034 187.716 60.3618 186.167 59.1864 184.568C47.3408 168.796 40.941 149.601 40.9508 129.876V127.833C40.9276 110.042 46.1365 92.6367 55.9293 77.7832H125.465C127.716 77.7981 129.871 78.698 131.464 80.2884C133.057 81.8788 133.96 84.0322 133.979 86.2832Z" fill="black"/>
<path opacity="0.2" d="M133.979 86.2832V176.076C133.958 178.325 133.054 180.477 131.461 182.066C129.868 183.655 127.714 184.554 125.465 184.568H59.1864C47.3408 168.796 40.941 149.601 40.9508 129.876V127.833C40.9276 110.042 46.1365 92.6367 55.9293 77.7832H125.465C127.716 77.7981 129.871 78.698 131.464 80.2884C133.057 81.8788 133.96 84.0322 133.979 86.2832Z" fill="black"/>
<path opacity="0.2" d="M129.329 86.2832V176.076C129.308 178.325 128.404 180.477 126.811 182.066C125.218 183.655 123.064 184.554 120.815 184.568H59.1864C47.3408 168.796 40.941 149.601 40.9508 129.876V127.833C40.9276 110.042 46.1365 92.6367 55.9293 77.7832H120.815C123.066 77.7981 125.221 78.698 126.814 80.2884C128.407 81.8788 129.31 84.0322 129.329 86.2832Z" fill="black"/>
<path d="M35.5285 77.7833H120.8C123.058 77.7814 125.225 78.6763 126.825 80.2715C128.424 81.8667 129.324 84.0316 129.328 86.2904V171.419C129.324 173.677 128.424 175.842 126.825 177.437C125.225 179.033 123.058 179.928 120.8 179.926H35.5285C34.4093 179.929 33.3003 179.712 32.2653 179.286C31.2303 178.86 30.2896 178.234 29.4971 177.444C28.7047 176.653 28.0762 175.714 27.6477 174.68C27.2192 173.646 26.9991 172.538 27 171.419V86.2904C26.9991 85.1711 27.2192 84.0627 27.6477 83.0287C28.0762 81.9948 28.7047 81.0557 29.4971 80.2652C30.2896 79.4748 31.2303 78.8487 32.2653 78.4227C33.3003 77.9968 34.4093 77.7795 35.5285 77.7833Z" fill="url(#paint0_linear_294_256)"/>
<path d="M79.0933 100.489C84.6433 100.124 90.1437 101.733 94.6218 105.032C96.4616 106.67 97.904 108.705 98.8397 110.984C99.7754 113.262 100.18 115.724 100.022 118.182C100.082 121.645 99.1583 125.053 97.3575 128.011C95.5306 130.918 92.9043 133.237 89.7932 134.689C86.2366 136.341 82.3494 137.157 78.429 137.075H67.6219V157.075H56.5791V100.489H79.0933ZM67.6148 128.432H77.1219C80.1358 128.646 83.1245 127.755 85.529 125.925C86.5116 124.988 87.2766 123.846 87.7703 122.581C88.2639 121.316 88.4742 119.959 88.3861 118.604C88.3861 112.37 84.7552 109.251 77.4933 109.246H67.6148V128.432Z" fill="white"/>
</g>
<defs>
<linearGradient id="paint0_linear_294_256" x1="44.8142" y1="71.0976" x2="111.514" y2="186.611" gradientUnits="userSpaceOnUse">
<stop stop-color="#CA4C28"/>
<stop offset="0.5" stop-color="#C5401E"/>
<stop offset="1" stop-color="#B62F14"/>
</linearGradient>
<clipPath id="clip0_294_256">
<rect width="256" height="256" fill="white"/>
</clipPath>
</defs>
</svg>
