<svg width="256" height="256" viewBox="0 0 256 256" fill="none" xmlns="http://www.w3.org/2000/svg">
<g clip-path="url(#clip0_248_2945)">
<rect width="256" height="256" rx="60" fill="#242938"/>
<path d="M181.125 28H74.875C48.9867 28 28 48.9867 28 74.875V181.125C28 207.013 48.9867 228 74.875 228H181.125C207.013 228 228 207.013 228 181.125V74.875C228 48.9867 207.013 28 181.125 28Z" fill="#00005B"/>
<path d="M70.1875 170.719V84.8854C70.1875 84.3021 70.4375 83.9687 71.0209 83.9687C72.4375 83.9687 73.7709 83.9688 75.6875 83.8854C77.6875 83.8021 79.7709 83.8021 82.0209 83.7187C84.2709 83.6354 86.6875 83.6354 89.2709 83.5521C91.8541 83.4687 94.3541 83.4688 96.8541 83.4688C103.688 83.4688 109.354 84.3021 114.021 86.0521C118.188 87.4688 122.021 89.8021 125.188 92.8854C127.854 95.5521 129.937 98.8021 131.271 102.385C132.521 105.885 133.188 109.469 133.188 113.219C133.188 120.385 131.521 126.302 128.188 130.969C124.854 135.635 120.188 139.135 114.771 141.135C109.104 143.219 102.854 143.969 96.0209 143.969C94.0209 143.969 92.6875 143.969 91.8541 143.885C91.0209 143.802 89.8541 143.802 88.2709 143.802V170.552C88.3541 171.135 87.9375 171.635 87.3541 171.719H87.0209H71.1875C70.5209 171.719 70.1875 171.385 70.1875 170.635V170.719ZM88.3541 100.135V128.135C89.5209 128.219 90.6041 128.302 91.6041 128.302H96.0209C99.2709 128.302 102.521 127.802 105.604 126.802C108.271 126.052 110.604 124.469 112.438 122.385C114.188 120.302 115.021 117.469 115.021 113.802C115.104 111.219 114.438 108.635 113.104 106.385C111.688 104.219 109.688 102.552 107.271 101.635C104.188 100.385 100.854 99.8854 97.4375 99.9688C95.2709 99.9688 93.3541 99.9688 91.7709 100.052C90.1041 99.9688 88.9375 100.052 88.3541 100.135Z" fill="#9999FF"/>
<path d="M145.187 105.052H159.771C160.605 105.052 161.271 105.635 161.521 106.385C161.771 107.052 161.937 107.719 162.021 108.469C162.187 109.302 162.355 110.219 162.437 111.052C162.521 111.969 162.605 112.969 162.605 114.052C165.105 111.135 168.105 108.719 171.521 106.885C175.355 104.719 179.771 103.635 184.187 103.635C184.771 103.552 185.271 103.969 185.355 104.552V104.885V121.135C185.355 121.802 184.937 122.052 184.021 122.052C181.021 121.969 177.937 122.219 175.021 122.885C172.605 123.385 170.271 124.135 168.021 125.135C166.437 125.885 164.937 126.885 163.771 128.219V170.719C163.771 171.552 163.437 171.885 162.687 171.885H146.271C145.605 171.969 145.021 171.552 144.937 170.885V170.552V124.385C144.937 122.385 144.937 120.302 144.855 118.135C144.771 115.969 144.771 113.802 144.687 111.635C144.687 109.719 144.521 107.885 144.355 105.969C144.271 105.552 144.521 105.135 144.937 105.052C144.937 104.969 145.105 104.969 145.187 105.052Z" fill="#9999FF"/>
</g>
<defs>
<clipPath id="clip0_248_2945">
<rect width="256" height="256" fill="white"/>
</clipPath>
</defs>
</svg>
