<svg width="256" height="256" viewBox="0 0 256 256" fill="none" xmlns="http://www.w3.org/2000/svg">
<g clip-path="url(#clip0_248_1627)">
<rect width="256" height="256" rx="60" fill="#242938"/>
<path fill-rule="evenodd" clip-rule="evenodd" d="M47.5477 167.279C45.513 164.069 45.4823 159.981 47.4685 156.741L122.252 34.7544C126.412 27.9696 136.455 28.5628 139.787 35.7901L208.105 183.988C210.64 189.487 207.722 195.957 201.922 197.697L95.648 229.579C91.3722 230.861 86.765 229.143 84.3749 225.372L47.5477 167.279ZM130.88 70.4223C131.6 66.8338 136.518 66.3163 137.97 69.6762L185.095 178.72C185.982 180.774 184.878 183.142 182.734 183.781L109.308 205.7C106.609 206.505 104.023 204.147 104.578 201.386L130.88 70.4223Z" fill="#F7FAFC"/>
</g>
<defs>
<clipPath id="clip0_248_1627">
<rect width="256" height="256" fill="white"/>
</clipPath>
</defs>
</svg>
