<svg width="256" height="256" viewBox="0 0 256 256" fill="none" xmlns="http://www.w3.org/2000/svg">
<g clip-path="url(#clip0_342_196)">
<path d="M196 0H60C26.8629 0 0 26.8629 0 60V196C0 229.137 26.8629 256 60 256H196C229.137 256 256 229.137 256 196V60C256 26.8629 229.137 0 196 0Z" fill="#0F2A57"/>
<path d="M56.375 67.9919C56.375 65.3286 57.4329 62.7745 59.3161 60.8913C61.1993 59.0082 63.7534 57.9502 66.4166 57.9502C69.0798 57.9502 71.634 59.0082 73.5172 60.8913C75.4003 62.7745 76.4583 65.3286 76.4583 67.9919L76.4416 68.0752C82.2333 70.4585 88.9166 74.5502 94.75 78.5419C98.1166 80.8502 101.567 83.4252 105.042 86.1002C103.828 86.7947 102.643 87.5398 101.492 88.3335L100.933 88.7335C98.1 86.5835 95.2666 84.4585 92.5166 82.5752C84.5833 77.1335 79.025 74.1919 75.1833 72.6252C73.7166 75.3752 71.0583 77.2669 67.85 77.7419C69.1333 82.5752 72.4583 89.1252 77.4333 96.8252L83.4166 105.534C84.625 107.2 85.975 108.942 87.2833 110.659C90.8992 115.402 94.6451 120.046 98.5166 124.584C99.4888 125.722 100.481 126.867 101.492 128.017C102.767 129.484 104.033 130.95 105.367 132.434C107.85 135.195 110.417 137.972 113.067 140.767C115.525 143.334 118.05 145.834 120.567 148.317C118.333 148.284 116.119 148.228 113.925 148.15C112.532 146.745 111.152 145.329 109.783 143.9C105.8 139.706 101.91 135.425 98.1166 131.059L95.7 128.259C92.2649 124.272 88.9223 120.207 85.675 116.067L85.6666 116.05C83.2173 112.919 80.8362 109.735 78.525 106.5L78.4583 106.417L78.375 106.3L77.3166 104.717L76.1333 102.967L72.8333 98.0585C67.5583 89.7585 64.1 82.6502 62.8166 77.3085C60.9268 76.589 59.2996 75.3134 58.1496 73.6501C56.9995 71.9869 56.3808 70.014 56.375 67.9919ZM183.808 178.35C181.075 171.559 176.2 163.309 170.167 154.65C168.508 154.9 166.775 155.092 165.075 155.309C171.542 164.492 176.25 172.542 178.875 178.584C174.958 179.842 172.1 183.35 171.942 187.659C166.667 185.434 159.775 181.309 151.792 175.425C145.151 170.441 138.747 165.149 132.6 159.567L129.158 162.617C146.55 178.217 163.158 189.784 173.65 193.375C175.442 196.125 178.392 198.05 181.917 198.05C187.458 198.05 191.958 193.55 191.958 188.009C191.958 183.134 188.417 179.267 183.808 178.35ZM132.292 157.575L130.392 157.625C129.547 157.664 128.708 157.686 127.875 157.692C127.058 157.692 126.275 157.642 125.458 157.642C124.408 158.567 123.383 159.392 122.333 160.284C120.08 162.216 117.8 164.117 115.492 165.984H115.5C102.55 176.409 91.1083 183.792 83.4833 187.034L83.4916 186.992C83.4916 182.584 80.6083 178.95 76.65 177.6C78.9 172.542 82.4416 166.342 87.4 159.217C88.225 158.025 89.2083 156.767 90.0916 155.55C88.3583 155.35 86.5666 155.175 84.8916 154.95C78.8833 163.4 74.2916 171.109 71.6166 177.325C66.9833 178.209 63.4083 182.1 63.4083 186.992C63.4083 192.542 67.9083 197.042 73.45 197.042C76.7583 197.042 79.5583 195.334 81.3833 192.859C94.325 188.742 114.933 173.192 132.292 157.575ZM85.1 118.659C84.7844 120.749 84.6284 122.861 84.6333 124.975C84.6333 132.792 86.8083 140.059 90.4666 146.367C90.975 146.425 91.45 146.5 91.9666 146.567C98.1166 147.259 104.475 147.734 110.942 148.059C110.053 147.153 109.167 146.242 108.283 145.325C100.141 136.806 92.4044 127.907 85.1 118.659ZM153.183 90.5419C155.428 92.2085 157.492 94.0752 159.375 96.1419C160.931 97.8641 162.342 99.7058 163.608 101.667C165.136 104.089 166.42 106.658 167.442 109.334C162.187 116.374 156.627 123.181 150.775 129.734C149.775 130.859 148.775 132.009 147.767 133.109C145.691 135.37 143.574 137.592 141.417 139.775C139.071 142.139 136.69 144.467 134.275 146.759L132.592 148.367C131.008 148.392 129.458 148.509 127.883 148.509C126.442 148.509 125.05 148.409 123.633 148.392L122.042 146.825C119.542 144.359 117.025 141.875 114.583 139.309C112.541 137.158 110.524 134.982 108.533 132.784L105.483 129.384C99.4005 122.575 93.593 115.524 88.075 108.25C88.9496 106.131 89.9976 104.088 91.2083 102.142C92.4623 100.142 93.8841 98.2514 95.4583 96.4919C97.6083 94.0669 100.058 91.9085 102.708 90.0252C104.024 89.0853 105.393 88.2227 106.808 87.4419C113.3 83.8276 120.621 81.9675 128.05 82.0449C135.48 82.1224 142.76 84.1347 149.175 87.8835C150.559 88.6947 151.894 89.5851 153.175 90.5502M145.508 147.984C151.44 147.631 157.36 147.092 163.258 146.367C163.792 146.3 164.275 146.2 164.8 146.134C168.358 139.884 170.492 132.7 170.492 124.984C170.492 123.35 170.317 121.759 170.133 120.167C163.118 129.172 155.595 137.769 147.6 145.917L145.508 147.984ZM133.467 157.559C136.45 160.242 139.4 162.834 142.233 165.209C147.684 163.231 152.683 160.179 156.933 156.234C149.2 156.992 141.342 157.4 133.467 157.559ZM123.467 167.525C124.825 167.659 126.158 167.925 127.55 167.925C128.917 167.925 130.208 167.659 131.533 167.534C130.233 166.409 128.908 165.159 127.592 163.984C126.314 165.095 124.939 166.275 123.467 167.525ZM98.3583 156.4C102.616 160.306 107.611 163.32 113.05 165.267C115.983 162.939 119.011 160.428 122.133 157.734V157.65L122.192 157.567C114.236 157.456 106.287 157.066 98.3583 156.4ZM154.417 88.8835L154.892 89.2335C165.367 81.1335 174.55 75.3752 181.092 72.9835C182.533 75.8169 185.242 77.7502 188.492 78.2419C187.258 82.0502 184.492 87.9835 178.8 96.8835L173.492 104.634C171.858 106.959 170.083 109.317 168.317 111.667C164.598 116.596 160.733 121.412 156.725 126.109L155.225 127.834C151.225 132.459 147.108 137 142.892 141.25C140.53 143.628 138.132 145.97 135.7 148.275C137.95 148.217 140.208 148.192 142.45 148.075C143.683 146.877 144.905 145.669 146.117 144.45C149.95 140.575 153.7 136.459 157.383 132.284L159.442 129.892C163 125.759 166.45 121.575 169.717 117.342L169.733 117.325C172.775 113.384 175.717 109.442 178.4 105.559L183.65 97.7919C187.817 91.1669 191.9 83.7252 193.567 77.8085C195.453 77.0863 197.077 75.8096 198.224 74.1465C199.371 72.4835 199.987 70.512 199.992 68.4919C199.897 65.9008 198.804 63.4467 196.942 61.6431C195.079 59.8395 192.591 58.8263 189.998 58.8155C187.406 58.8047 184.909 59.7972 183.032 61.5853C181.154 63.3734 180.041 65.8183 179.925 68.4085C172.425 71.2585 162.317 77.6335 150.917 86.5502C152.058 87.2419 153.2 87.9752 154.417 88.8835ZM162.258 96.5085C163.325 97.8169 164.417 99.0919 165.35 100.542L166.367 102.109C168.308 102.375 170.15 102.734 172.058 103.034L175.225 98.4085C170.918 97.6782 166.594 97.0447 162.258 96.5085ZM92.4916 96.9752C88.7166 97.5085 85.05 98.2002 81.375 98.8752L84.4666 103.375C85.8 103.15 87.0833 102.859 88.4333 102.642L89.45 101.034C90.35 99.6002 91.4333 98.3002 92.4916 96.9752ZM227.833 123C225.733 112.184 206.733 105.384 191.167 101.584C189.083 101.067 186.75 100.667 184.533 100.209L181.517 104.684C185.142 105.409 188.717 106.167 192.05 107.042C210.508 111.867 221.75 118.034 222.9 123.959C223.225 125.634 222.642 127.35 221.117 129.2C216.558 134.717 204.492 140.142 188 144.1C180.7 145.85 172.7 147.25 164.333 148.309L163.525 148.434C157.688 149.155 151.829 149.694 145.958 150.05C144.067 150.159 142.133 150.134 140.233 150.217C137.967 150.317 138.642 150.384 136.367 150.425H133.425C131.542 150.634 129.067 150.592 127.208 150.592C114.525 150.592 102.958 149.909 91.7416 148.642C64.85 145.609 43.7416 139.284 35.95 131.242C33.9444 129.175 32.9722 127.117 33.0333 125.067C33.1333 121.967 39.4583 114.934 62.5666 108.25C66.5666 107.1 70.7666 106.059 75.0916 105.125L72.15 100.759C68.4166 101.592 64.6583 102.425 61.175 103.425C48.9166 106.975 28.3333 114.475 28 124.917C27.9 128.367 29.35 131.667 32.3333 134.75C41.45 144.159 65.5 151.234 96.0583 154.167C106.058 155.117 117.108 155.617 128.217 155.617C128.333 155.617 128.1 155.617 128.217 155.617C130.383 155.609 132.5 155.492 134.65 155.45C142.861 155.292 151.063 154.798 159.233 153.967C160.775 153.8 162.225 153.575 163.733 153.392L167.233 152.942C195.017 149.125 217.417 141.567 224.983 132.4C227.483 129.367 228.433 126.209 227.817 123.009" fill="white"/>
</g>
<defs>
<clipPath id="clip0_342_196">
<rect width="256" height="256" fill="white"/>
</clipPath>
</defs>
</svg>
