<svg width="256" height="256" viewBox="0 0 256 256" fill="none" xmlns="http://www.w3.org/2000/svg">
<g clip-path="url(#clip0_342_222)">
<rect width="256" height="256" rx="60" fill="#242938"/>
<path d="M56.375 68.9919C56.375 66.3286 57.4329 63.7745 59.3161 61.8913C61.1993 60.0082 63.7534 58.9502 66.4166 58.9502C69.0798 58.9502 71.634 60.0082 73.5172 61.8913C75.4003 63.7745 76.4583 66.3286 76.4583 68.9919L76.4416 69.0752C82.2333 71.4585 88.9166 75.5502 94.75 79.5419C98.1166 81.8502 101.567 84.4252 105.042 87.1002C103.828 87.7947 102.643 88.5398 101.492 89.3335L100.933 89.7335C98.1 87.5835 95.2666 85.4585 92.5166 83.5752C84.5833 78.1335 79.025 75.1919 75.1833 73.6252C73.7166 76.3752 71.0583 78.2669 67.85 78.7419C69.1333 83.5752 72.4583 90.1252 77.4333 97.8252L83.4166 106.534C84.625 108.2 85.975 109.942 87.2833 111.659C90.8992 116.402 94.6451 121.046 98.5166 125.584C99.4888 126.722 100.481 127.867 101.492 129.017C102.767 130.484 104.033 131.95 105.367 133.434C107.85 136.195 110.417 138.972 113.067 141.767C115.525 144.334 118.05 146.834 120.567 149.317C118.333 149.284 116.119 149.228 113.925 149.15C112.532 147.745 111.152 146.329 109.783 144.9C105.8 140.706 101.91 136.425 98.1166 132.059L95.7 129.259C92.2649 125.272 88.9223 121.207 85.675 117.067L85.6666 117.05C83.2173 113.919 80.8362 110.735 78.525 107.5L78.4583 107.417L78.375 107.3L77.3166 105.717L76.1333 103.967L72.8333 99.0585C67.5583 90.7585 64.1 83.6502 62.8166 78.3085C60.9268 77.589 59.2996 76.3134 58.1496 74.6501C56.9995 72.9869 56.3808 71.014 56.375 68.9919ZM183.808 179.35C181.075 172.559 176.2 164.309 170.167 155.65C168.508 155.9 166.775 156.092 165.075 156.309C171.542 165.492 176.25 173.542 178.875 179.584C174.958 180.842 172.1 184.35 171.942 188.659C166.667 186.434 159.775 182.309 151.792 176.425C145.151 171.441 138.747 166.149 132.6 160.567L129.158 163.617C146.55 179.217 163.158 190.784 173.65 194.375C175.442 197.125 178.392 199.05 181.917 199.05C187.458 199.05 191.958 194.55 191.958 189.009C191.958 184.134 188.417 180.267 183.808 179.35ZM132.292 158.575L130.392 158.625C129.547 158.664 128.708 158.686 127.875 158.692C127.058 158.692 126.275 158.642 125.458 158.642C124.408 159.567 123.383 160.392 122.333 161.284C120.08 163.216 117.8 165.117 115.492 166.984H115.5C102.55 177.409 91.1083 184.792 83.4833 188.034L83.4916 187.992C83.4916 183.584 80.6083 179.95 76.65 178.6C78.9 173.542 82.4416 167.342 87.4 160.217C88.225 159.025 89.2083 157.767 90.0916 156.55C88.3583 156.35 86.5666 156.175 84.8916 155.95C78.8833 164.4 74.2916 172.109 71.6166 178.325C66.9833 179.209 63.4083 183.1 63.4083 187.992C63.4083 193.542 67.9083 198.042 73.45 198.042C76.7583 198.042 79.5583 196.334 81.3833 193.859C94.325 189.742 114.933 174.192 132.292 158.575ZM85.1 119.659C84.7844 121.749 84.6284 123.861 84.6333 125.975C84.6333 133.792 86.8083 141.059 90.4666 147.367C90.975 147.425 91.45 147.5 91.9666 147.567C98.1166 148.259 104.475 148.734 110.942 149.059C110.053 148.153 109.167 147.242 108.283 146.325C100.141 137.806 92.4044 128.907 85.1 119.659ZM153.183 91.5419C155.428 93.2085 157.492 95.0752 159.375 97.1419C160.931 98.8641 162.342 100.706 163.608 102.667C165.136 105.089 166.42 107.658 167.442 110.334C162.187 117.374 156.627 124.181 150.775 130.734C149.775 131.859 148.775 133.009 147.767 134.109C145.691 136.37 143.574 138.592 141.417 140.775C139.071 143.139 136.69 145.467 134.275 147.759L132.592 149.367C131.008 149.392 129.458 149.509 127.883 149.509C126.442 149.509 125.05 149.409 123.633 149.392L122.042 147.825C119.542 145.359 117.025 142.875 114.583 140.309C112.541 138.158 110.524 135.982 108.533 133.784L105.483 130.384C99.4005 123.575 93.593 116.524 88.075 109.25C88.9496 107.131 89.9976 105.088 91.2083 103.142C92.4623 101.142 93.8841 99.2514 95.4583 97.4919C97.6083 95.0669 100.058 92.9085 102.708 91.0252C104.024 90.0853 105.393 89.2227 106.808 88.4419C113.3 84.8276 120.621 82.9675 128.05 83.0449C135.48 83.1224 142.76 85.1347 149.175 88.8835C150.559 89.6947 151.894 90.5851 153.175 91.5502M145.508 148.984C151.44 148.631 157.36 148.092 163.258 147.367C163.792 147.3 164.275 147.2 164.8 147.134C168.358 140.884 170.492 133.7 170.492 125.984C170.492 124.35 170.317 122.759 170.133 121.167C163.118 130.172 155.595 138.769 147.6 146.917L145.508 148.984ZM133.467 158.559C136.45 161.242 139.4 163.834 142.233 166.209C147.684 164.231 152.683 161.179 156.933 157.234C149.2 157.992 141.342 158.4 133.467 158.559ZM123.467 168.525C124.825 168.659 126.158 168.925 127.55 168.925C128.917 168.925 130.208 168.659 131.533 168.534C130.233 167.409 128.908 166.159 127.592 164.984C126.314 166.095 124.939 167.275 123.467 168.525ZM98.3583 157.4C102.616 161.306 107.611 164.32 113.05 166.267C115.983 163.939 119.011 161.428 122.133 158.734V158.65L122.192 158.567C114.236 158.456 106.287 158.066 98.3583 157.4ZM154.417 89.8835L154.892 90.2335C165.367 82.1335 174.55 76.3752 181.092 73.9835C182.533 76.8169 185.242 78.7502 188.492 79.2419C187.258 83.0502 184.492 88.9835 178.8 97.8835L173.492 105.634C171.858 107.959 170.083 110.317 168.317 112.667C164.598 117.596 160.733 122.412 156.725 127.109L155.225 128.834C151.225 133.459 147.108 138 142.892 142.25C140.53 144.628 138.132 146.97 135.7 149.275C137.95 149.217 140.208 149.192 142.45 149.075C143.683 147.877 144.905 146.669 146.117 145.45C149.95 141.575 153.7 137.459 157.383 133.284L159.442 130.892C163 126.759 166.45 122.575 169.717 118.342L169.733 118.325C172.775 114.384 175.717 110.442 178.4 106.559L183.65 98.7919C187.817 92.1669 191.9 84.7252 193.567 78.8085C195.453 78.0863 197.077 76.8096 198.224 75.1465C199.371 73.4835 199.987 71.512 199.992 69.4919C199.897 66.9008 198.804 64.4467 196.942 62.6431C195.079 60.8395 192.591 59.8263 189.998 59.8155C187.406 59.8047 184.909 60.7972 183.032 62.5853C181.154 64.3734 180.041 66.8183 179.925 69.4085C172.425 72.2585 162.317 78.6335 150.917 87.5502C152.058 88.2419 153.2 88.9752 154.417 89.8835ZM162.258 97.5085C163.325 98.8169 164.417 100.092 165.35 101.542L166.367 103.109C168.308 103.375 170.15 103.734 172.058 104.034L175.225 99.4085C170.918 98.6782 166.594 98.0447 162.258 97.5085ZM92.4916 97.9752C88.7166 98.5085 85.05 99.2002 81.375 99.8752L84.4666 104.375C85.8 104.15 87.0833 103.859 88.4333 103.642L89.45 102.034C90.35 100.6 91.4333 99.3002 92.4916 97.9752ZM227.833 124C225.733 113.184 206.733 106.384 191.167 102.584C189.083 102.067 186.75 101.667 184.533 101.209L181.517 105.684C185.142 106.409 188.717 107.167 192.05 108.042C210.508 112.867 221.75 119.034 222.9 124.959C223.225 126.634 222.642 128.35 221.117 130.2C216.558 135.717 204.492 141.142 188 145.1C180.7 146.85 172.7 148.25 164.333 149.309L163.525 149.434C157.688 150.155 151.829 150.694 145.958 151.05C144.067 151.159 142.133 151.134 140.233 151.217C137.967 151.317 138.642 151.384 136.367 151.425H133.425C131.542 151.634 129.067 151.592 127.208 151.592C114.525 151.592 102.958 150.909 91.7416 149.642C64.85 146.609 43.7416 140.284 35.95 132.242C33.9444 130.175 32.9722 128.117 33.0333 126.067C33.1333 122.967 39.4583 115.934 62.5666 109.25C66.5666 108.1 70.7666 107.059 75.0916 106.125L72.15 101.759C68.4166 102.592 64.6583 103.425 61.175 104.425C48.9166 107.975 28.3333 115.475 28 125.917C27.9 129.367 29.35 132.667 32.3333 135.75C41.45 145.159 65.5 152.234 96.0583 155.167C106.058 156.117 117.108 156.617 128.217 156.617C128.333 156.617 128.1 156.617 128.217 156.617C130.383 156.609 132.5 156.492 134.65 156.45C142.861 156.292 151.063 155.798 159.233 154.967C160.775 154.8 162.225 154.575 163.733 154.392L167.233 153.942C195.017 150.125 217.417 142.567 224.983 133.4C227.483 130.367 228.433 127.209 227.817 124.009" fill="white"/>
</g>
<defs>
<clipPath id="clip0_342_222">
<rect width="256" height="256" fill="white"/>
</clipPath>
</defs>
</svg>
