<svg width="256" height="256" viewBox="0 0 256 256" fill="none" xmlns="http://www.w3.org/2000/svg">
<g clip-path="url(#clip0_248_3347)">
<rect width="256" height="256" rx="60" fill="#242938"/>
<path d="M195.356 104.315C195.044 97.2831 195.981 91.0502 192.858 85.7762C185.366 72.6712 166.634 65 129.171 65C91.7067 65 72.0383 72.6712 64.5455 85.9361C61.5796 91.3698 61.8918 97.4428 61.4236 104.475C61.1113 110.068 58.6138 115.982 59.7064 122.374C60.9552 130.685 61.4236 138.995 62.6723 146.667C63.6089 152.899 72.0382 158.173 72.8187 164.087C75.0041 180.388 91.5506 187.899 129.014 187.899V189.178H128.078H128.234H129.171V187.899C166.634 187.899 182.556 180.388 184.585 164.087C185.366 158.013 193.171 152.899 194.108 146.667C195.356 138.995 195.824 130.685 197.074 122.374C198.166 115.982 195.668 109.909 195.356 104.315Z" fill="#EFCCA3"/>
<path d="M128.546 110.069C135.259 110.228 139.941 114.544 144.312 118.539C149.464 123.174 158.205 126.37 161.796 130.365C165.386 134.361 170.069 138.356 171.786 144.589C173.503 150.822 173.971 158.813 173.971 160.89C173.971 162.968 175.064 162.488 178.186 160.89C185.523 157.214 193.639 147.306 193.639 147.306C192.703 153.538 184.742 159.132 183.962 165.045C182.089 181.347 166.634 189.178 128.391 189.178H128.234H129.171" fill="#CCAC8D"/>
<path d="M153.21 97.6027C154.616 102.557 159.61 119.338 149.932 113.744C149.932 113.744 153.991 116.141 156.488 125.251C159.142 134.361 165.542 135.48 165.542 135.48C165.542 135.48 176 137.557 183.805 130.685C190.362 124.931 191.455 114.703 188.645 106.872C185.835 99.2008 180.839 96.8036 173.503 95.2054C166.166 93.4474 151.493 92.0091 153.21 97.6027Z" fill="#CCAC8D"/>
<path d="M168.195 113.265C170.178 113.265 171.785 111.619 171.785 109.589C171.785 107.558 170.178 105.913 168.195 105.913C166.212 105.913 164.605 107.558 164.605 109.589C164.605 111.619 166.212 113.265 168.195 113.265Z" fill="white"/>
<path d="M150.869 115.183C150.869 115.183 163.2 123.813 169.912 132.283C176.624 140.753 176.469 142.352 176.469 142.352L171.629 144.589C171.629 144.589 164.761 131.324 156.332 126.37C147.746 121.415 146.81 117.26 146.81 117.26L150.869 115.183Z" fill="#EFCCA3"/>
<path d="M129.014 110.069C122.302 110.228 117.307 114.544 112.78 118.539C107.628 123.174 98.575 126.37 94.9848 130.365C91.3944 134.361 86.5554 138.356 84.8383 144.589C83.1213 150.822 82.4968 158.813 82.4968 160.89C82.4968 162.968 82.809 163.128 78.2822 160.89C70.9455 157.374 62.8284 147.306 62.8284 147.306C63.765 153.538 71.726 159.132 72.5065 165.045C74.6919 181.347 90.1457 189.178 128.39 189.178H128.546H129.171" fill="#CCAC8D"/>
<path d="M165.23 137.077C157.737 127.649 145.718 118.859 129.015 118.859H128.859C112.156 118.859 100.137 127.649 92.6438 137.077C84.839 146.826 85.4633 150.662 85.4633 159.932C85.4633 193.492 97.0146 183.904 104.663 188.059C112.468 192.055 120.586 190.776 128.859 190.776H129.015C137.444 190.776 145.405 191.895 153.21 187.9C160.859 183.904 172.41 193.812 172.41 160.251C172.566 150.982 173.035 146.826 165.23 137.077Z" fill="#56332B"/>
<path d="M128.234 127.169C128.234 127.169 127.141 142.671 124.957 145.708L129.014 144.749L128.234 127.169Z" fill="#442823"/>
<path d="M129.327 127.169C129.327 127.169 130.42 142.671 132.605 145.708L128.546 144.749L129.327 127.169Z" fill="#442823"/>
<path d="M116.215 123.493C114.654 119.817 120.273 113.904 129.171 113.744C138.069 113.744 143.688 119.658 142.127 123.493C140.566 127.329 134.946 128.447 129.171 128.607C123.552 128.447 117.775 127.329 116.215 123.493Z" fill="#56332B"/>
<path d="M129.482 148.584C132.137 148.584 136.819 150.502 141.034 153.538C136.975 148.904 132.137 145.707 129.482 145.707C126.673 145.707 120.741 149.223 116.526 154.338C120.897 150.822 126.517 148.584 129.482 148.584Z" fill="#7F4A41"/>
<path d="M128.39 176.872C122.458 176.872 116.682 174.954 111.375 173.515C110.282 173.196 109.189 173.995 108.098 173.675C98.263 170.479 90.302 165.045 85.4629 158.173C85.4629 158.653 85.4629 159.292 85.4629 159.772C85.4629 193.333 97.0142 183.904 104.663 187.9C112.468 191.895 120.585 190.616 128.858 190.616H129.014C137.444 190.616 145.405 191.735 153.21 187.74C160.858 183.744 172.41 193.493 172.41 159.932C172.41 158.653 172.41 157.374 172.566 156.256C168.039 163.767 159.766 169.68 149.464 173.196C148.527 173.515 146.341 172.717 145.405 172.877C139.785 174.794 134.79 176.872 128.39 176.872Z" fill="#442823"/>
<path d="M113.561 158.813C113.561 158.813 109.659 170.799 112.313 176.073L108.722 174.475C108.722 174.475 111.376 162.329 113.561 158.813Z" fill="#442823"/>
<path d="M144.468 158.813C144.468 158.813 148.371 170.799 145.717 176.073L149.307 174.475C149.307 174.475 146.498 162.329 144.468 158.813Z" fill="#442823"/>
<path d="M103.571 97.6027C102.166 102.557 97.1708 119.338 106.849 113.744C106.849 113.744 102.79 116.141 100.293 125.251C97.7952 134.361 91.2391 135.48 91.2391 135.48C91.2391 135.48 80.7804 137.557 72.9755 130.685C66.4193 124.931 65.3266 114.703 68.1364 106.872C70.9462 99.0411 75.9414 96.8036 83.278 95.2054C90.6147 93.4474 105.132 92.0091 103.571 97.6027Z" fill="#CCAC8D"/>
<path d="M132.421 123.58C133.09 123.404 133.369 122.222 133.046 120.94C132.724 119.658 131.92 118.762 131.253 118.937C130.584 119.114 130.305 120.296 130.628 121.578C130.951 122.861 131.754 123.756 132.421 123.58Z" fill="#331712"/>
<path d="M124.399 123.556C125.057 123.766 125.902 122.91 126.284 121.646C126.668 120.381 126.444 119.186 125.786 118.977C125.127 118.767 124.282 119.623 123.899 120.888C123.516 122.152 123.739 123.347 124.399 123.556Z" fill="#331712"/>
<path d="M89.3654 113.265C91.3483 113.265 92.9557 111.619 92.9557 109.589C92.9557 107.558 91.3483 105.913 89.3654 105.913C87.3826 105.913 85.7751 107.558 85.7751 109.589C85.7751 111.619 87.3826 113.265 89.3654 113.265Z" fill="white"/>
<path d="M133.073 115.981C133.073 115.822 129.483 117.58 128.546 117.74C127.61 117.58 124.019 115.822 124.019 115.981C124.019 115.981 126.985 115.981 128.546 115.981C130.107 115.981 133.073 115.981 133.073 115.981Z" fill="#7F4A41"/>
<path d="M105.756 115.183C105.756 115.183 93.4244 123.813 86.7122 132.283C80 140.753 80.1561 142.352 80.1561 142.352L84.9951 144.589C84.9951 144.589 91.8635 131.324 100.293 126.37C108.722 121.415 109.815 117.26 109.815 117.26L105.756 115.183Z" fill="#EFCCA3"/>
<path d="M78.7509 89.6118C78.7509 89.6118 74.5363 101.438 65.1704 106.393C65.1704 106.393 79.8436 104.634 78.7509 89.6118Z" fill="#CCAC8D"/>
<path d="M177.25 89.6118C177.25 89.6118 181.464 101.438 190.83 106.393C190.83 106.393 176.157 104.634 177.25 89.6118Z" fill="#CCAC8D"/>
<path d="M150.557 111.667C150.557 111.667 141.347 101.758 129.015 101.438C128.859 101.438 129.327 101.438 129.171 101.438C129.015 101.438 129.327 101.438 129.327 101.438C116.839 101.758 107.786 111.667 107.786 111.667C118.556 103.995 127.766 104.155 129.327 104.155C129.171 104.155 139.786 103.995 150.557 111.667Z" fill="#CCAC8D"/>
<path d="M139.785 90.8903C139.785 90.8903 135.103 84.178 128.859 84.0182H129.014H129.171C124.488 84.178 118.4 90.8903 118.4 90.8903C123.707 85.6164 129.171 85.7762 129.171 85.7762C129.171 85.7762 134.322 85.6164 139.785 90.8903Z" fill="#CCAC8D"/>
<path d="M85.7752 139.954C85.7752 139.954 78.4386 143.63 73.1312 141.392H72.9751C68.2921 138.676 65.9507 130.525 65.9507 130.525C65.9507 130.525 70.6337 144.908 85.7752 139.954Z" fill="#CCAC8D"/>
<path d="M171.318 139.954C171.318 139.954 178.655 143.63 183.962 141.392C190.205 138.676 191.142 130.525 191.142 130.525C191.142 130.525 186.459 144.908 171.318 139.954Z" fill="#CCAC8D"/>
<path d="M94.2043 88.8127C98.2629 88.0136 104.975 87.8538 110.282 89.6118C116.995 92.0091 111.532 100.799 112.936 101.278C114.341 101.758 116.214 95.2054 128.702 95.8446C141.346 96.484 142.751 102.237 144.468 101.278C146.185 100.32 142.751 85.2967 161.639 88.8127C161.639 88.8127 141.814 83.379 142.751 98.0821C142.751 98.0821 131.355 89.1324 115.434 97.1232C115.589 97.1232 119.648 83.379 94.2043 88.8127Z" fill="#CCAC8D"/>
<path d="M163.356 88.8126C163.668 88.8126 163.824 88.9725 163.98 88.9725C164.136 88.9725 163.824 88.8126 163.356 88.8126Z" fill="#CCAC8D"/>
<path d="M88.7412 69.1552C88.7412 69.1552 71.8826 90.8902 69.385 99.2007C66.8874 107.671 65.0142 142.351 62.8289 147.306L55.0239 113.105L69.385 77.4656L88.7412 69.1552Z" fill="#CCAC8D"/>
<path d="M168.039 69.1552C168.039 69.1552 184.898 90.8902 187.396 99.2007C189.894 107.671 191.767 142.351 193.952 147.306L201.757 113.105L187.396 77.4656L168.039 69.1552Z" fill="#CCAC8D"/>
<path d="M167.259 69.1552C167.259 69.1552 185.366 84.6574 190.673 102.557C195.981 120.456 193.796 142.191 197.854 144.908C203.63 148.744 210.186 125.89 212.371 123.493C215.805 119.658 227.201 109.909 227.981 108.15C228.762 106.393 204.878 79.7031 194.42 74.4291C181.776 68.3561 166.166 67.8766 167.259 69.1552Z" fill="#56332B"/>
<path d="M182.712 78.7443C182.712 78.7443 204.098 106.712 203.785 141.552L212.371 123.653C212.215 123.653 204.722 100.799 182.712 78.7443Z" fill="#442823"/>
<path d="M88.741 69.1552C88.741 69.1552 70.6336 84.6574 65.3263 102.557C60.0189 120.456 62.2043 142.191 58.1458 144.908C52.3701 148.744 45.8139 125.89 43.6286 123.493C40.1943 119.658 28.7992 109.909 28.0187 108.15C27.2382 106.393 51.1213 79.7031 61.5799 74.4291C74.2239 68.3561 89.8338 67.8766 88.741 69.1552Z" fill="#56332B"/>
<path d="M73.2876 78.7443C73.2876 78.7443 51.9021 106.712 52.2143 141.552L43.7849 123.653C43.7849 123.653 51.2777 100.799 73.2876 78.7443Z" fill="#442823"/>
<path d="M61.7361 142.192C61.7361 142.192 63.297 150.822 65.7946 153.538C68.2922 156.256 66.5752 151.461 66.5752 151.461C66.5752 151.461 63.9214 150.023 64.3898 138.995C64.858 127.968 61.7361 142.192 61.7361 142.192Z" fill="#CCAC8D"/>
<path d="M194.889 142.192C194.889 142.192 193.328 150.822 190.83 153.538C188.332 156.256 190.05 151.461 190.05 151.461C190.05 151.461 192.703 150.023 192.235 138.995C191.766 127.968 194.889 142.192 194.889 142.192Z" fill="#CCAC8D"/>
<path d="M112.78 136.917C113.47 136.917 114.029 136.346 114.029 135.639C114.029 134.933 113.47 134.361 112.78 134.361C112.09 134.361 111.532 134.933 111.532 135.639C111.532 136.346 112.09 136.917 112.78 136.917Z" fill="#442823"/>
<path d="M105.599 144.589C106.289 144.589 106.848 144.017 106.848 143.311C106.848 142.604 106.289 142.032 105.599 142.032C104.909 142.032 104.35 142.604 104.35 143.311C104.35 144.017 104.909 144.589 105.599 144.589Z" fill="#442823"/>
<path d="M103.258 136.917C103.948 136.917 104.507 136.346 104.507 135.639C104.507 134.933 103.948 134.361 103.258 134.361C102.568 134.361 102.009 134.933 102.009 135.639C102.009 136.346 102.568 136.917 103.258 136.917Z" fill="#442823"/>
<path d="M143.22 136.917C143.91 136.917 144.469 136.346 144.469 135.639C144.469 134.933 143.91 134.361 143.22 134.361C142.531 134.361 141.971 134.933 141.971 135.639C141.971 136.346 142.531 136.917 143.22 136.917Z" fill="#442823"/>
<path d="M150.4 144.589C151.09 144.589 151.649 144.017 151.649 143.311C151.649 142.604 151.09 142.032 150.4 142.032C149.71 142.032 149.151 142.604 149.151 143.311C149.151 144.017 149.71 144.589 150.4 144.589Z" fill="#442823"/>
<path d="M152.742 136.917C153.431 136.917 153.99 136.346 153.99 135.639C153.99 134.933 153.431 134.361 152.742 134.361C152.052 134.361 151.492 134.933 151.492 135.639C151.492 136.346 152.052 136.917 152.742 136.917Z" fill="#442823"/>
<path d="M86.5929 125.824C94.2678 125.824 100.49 119.574 100.49 111.863C100.49 104.153 94.2678 97.903 86.5929 97.903C78.918 97.903 72.6963 104.153 72.6963 111.863C72.6963 119.574 78.918 125.824 86.5929 125.824Z" fill="black" stroke="#242938" stroke-opacity="0.8" stroke-width="0.32"/>
<path d="M92.5469 111.353C94.5751 111.353 96.2192 109.758 96.2192 107.791C96.2192 105.824 94.5751 104.23 92.5469 104.23C90.5187 104.23 88.8745 105.824 88.8745 107.791C88.8745 109.758 90.5187 111.353 92.5469 111.353Z" fill="white"/>
<path d="M170.649 126.07C178.323 126.07 184.545 119.82 184.545 112.109C184.545 104.399 178.323 98.149 170.649 98.149C162.974 98.149 156.752 104.399 156.752 112.109C156.752 119.82 162.974 126.07 170.649 126.07Z" fill="black" stroke="#242938" stroke-opacity="0.8" stroke-width="0.32"/>
<path d="M162.868 109.096C164.195 109.096 165.272 108.046 165.272 106.75C165.272 105.455 164.195 104.405 162.868 104.405C161.54 104.405 160.464 105.455 160.464 106.75C160.464 108.046 161.54 109.096 162.868 109.096Z" fill="white"/>
<path d="M163.346 111.067C165.374 111.067 167.018 109.472 167.018 107.505C167.018 105.539 165.374 103.944 163.346 103.944C161.317 103.944 159.673 105.539 159.673 107.505C159.673 109.472 161.317 111.067 163.346 111.067Z" fill="white"/>
</g>
<defs>
<clipPath id="clip0_248_3347">
<rect width="256" height="256" fill="white"/>
</clipPath>
</defs>
</svg>
