<svg width="256" height="256" viewBox="0 0 256 256" fill="none" xmlns="http://www.w3.org/2000/svg">
<g clip-path="url(#clip0_384_179)">
<rect width="256" height="256" rx="60" fill="#242938"/>
<path d="M238 116.699H157.978V96.2168H238V116.699Z" fill="#E669A2"/>
<path d="M227.606 116.699H157.978V65.4712H227.606V116.699Z" fill="#F3BE26"/>
<path d="M198.839 116.699H157.978V45H198.839V116.699Z" fill="#EE9C34"/>
<path d="M206.878 116.699H157.978V53.0005H206.878V116.699Z" fill="#F3BC87"/>
<path d="M157.967 53.0127V116.692H198.835V53.0127H157.967Z" fill="#E3721C"/>
<path d="M117.003 116.699H157.978V126.941H117.003V116.699Z" fill="#AD1B02"/>
<path d="M157.967 65.46V116.692H206.902V65.46H157.967Z" fill="#E88D14"/>
<path d="M157.967 65.46V116.692H198.835V65.46H157.967Z" fill="#D85604"/>
<path d="M183.531 116.699H157.978V85.9512H183.531V116.699Z" fill="#C14303"/>
<path d="M157.967 96.2314V116.692H227.63V96.2314H157.967Z" fill="#DB4E18"/>
<path d="M157.967 96.2314V116.692H206.902V96.2314H157.967Z" fill="#D1390D"/>
<path d="M157.967 96.2314V116.692H198.835V96.2314H157.967Z" fill="#C22303"/>
<path d="M157.967 96.2314V116.692H183.556V96.2314H157.967Z" fill="#AD1B02"/>
<path d="M166.888 155.275C159.916 156.514 156.197 161.782 156.197 170.923C156.197 180.219 161.155 186.416 168.437 186.416C172 186.416 175.099 185.176 181.606 181.923C181.606 189.514 181.606 189.514 181.606 189.514C173.704 193.233 169.057 194.162 162.859 194.162C155.888 194.162 150.93 192.458 147.057 188.275C143.028 184.247 140.859 178.979 140.859 172.937C140.859 159.768 150.775 150.627 165.183 150.627C174.634 150.627 181.296 155.12 181.296 161.472C181.296 165.655 178.197 168.599 173.704 168.599C171.381 168.599 169.521 167.824 166.888 166.43" fill="white"/>
<path d="M132.028 172.937C138.38 165.035 140.704 161.782 140.704 157.909C140.704 154.035 137.605 150.627 133.267 150.627C130.789 150.627 128.465 152.021 127.38 153.261C127.38 169.528 127.38 169.528 127.38 169.528C117 183.472 117 183.472 117 183.472C117 151.866 117 151.866 117 151.866C107.084 151.866 107.084 151.866 107.084 151.866C90.6618 178.979 90.6618 178.979 90.6618 178.979C90.6618 151.866 90.6618 151.866 90.6618 151.866C85.0843 151.866 85.0843 151.866 85.0843 151.866C70.0561 155.275 70.0562 155.275 70.0562 155.275C70.0562 159.148 70.0562 159.148 70.0562 159.148C78.2674 159.923 78.2674 159.923 78.2674 159.923C78.2674 193.542 78.2674 193.542 78.2674 193.542C88.6477 193.542 88.6477 193.542 88.6477 193.542C104.451 167.514 104.451 167.514 104.451 167.514C104.451 193.542 104.451 193.542 104.451 193.542C116.07 193.542 116.07 193.542 116.07 193.542" fill="white"/>
<path d="M38.6056 188.275C39.8451 188.275 40.1549 188.275 40.9296 188.275C49.2958 188.275 53.9437 183.162 53.9437 172.937C53.9437 164.415 50.2254 159.768 43.2535 159.768C42.3239 159.768 40.9296 159.922 38.6056 160.387V188.275ZM38.6056 206.556C45.4225 208.106 45.4225 208.106 45.4225 208.106C45.4225 211.979 45.4225 211.979 45.4225 211.979C18.6197 211.979 18.6197 211.979 18.6197 211.979C18.6197 208.106 18.6197 208.106 18.6197 208.106C24.8169 206.556 24.8169 206.556 24.8169 206.556C24.8169 159.768 24.8169 159.768 24.8169 159.768C18 159.768 18 159.768 18 159.768C18 155.894 18 155.894 18 155.894C34.2676 150.937 34.2676 150.937 34.2676 150.937C38.6056 150.937 38.6056 150.937 38.6056 150.937C38.6056 156.514 38.6056 156.514 38.6056 156.514C46.1972 151.866 48.831 151.091 52.8592 151.091C61.8451 151.091 68.662 159.458 68.662 171.077C68.662 184.401 59.5211 193.542 45.5775 193.542C44.0282 193.542 41.3944 193.387 38.6056 193.232" fill="white"/>
</g>
<defs>
<clipPath id="clip0_384_179">
<rect width="256" height="256" fill="white"/>
</clipPath>
</defs>
</svg>
