<svg width="256" height="256" viewBox="0 0 256 256" fill="none" xmlns="http://www.w3.org/2000/svg">
<g clip-path="url(#clip0_384_182)">
<rect width="256" height="256" rx="60" fill="white"/>
<path d="M238 117.699H157.978V97.2168H238V117.699Z" fill="#E669A2"/>
<path d="M227.606 117.699H157.978V66.4712H227.606V117.699Z" fill="#F3BE26"/>
<path d="M198.839 117.699H157.978V46H198.839V117.699Z" fill="#EE9C34"/>
<path d="M206.878 117.699H157.978V54.0005H206.878V117.699Z" fill="#F3BC87"/>
<path d="M157.967 54.0127V117.692H198.835V54.0127H157.967Z" fill="#E3721C"/>
<path d="M117.003 117.699H157.978V127.941H117.003V117.699Z" fill="#AD1B02"/>
<path d="M157.967 66.46V117.692H206.902V66.46H157.967Z" fill="#E88D14"/>
<path d="M157.967 66.46V117.692H198.835V66.46H157.967Z" fill="#D85604"/>
<path d="M183.531 117.699H157.978V86.9512H183.531V117.699Z" fill="#C14303"/>
<path d="M157.967 97.2314V117.692H227.63V97.2314H157.967Z" fill="#DB4E18"/>
<path d="M157.967 97.2314V117.692H206.902V97.2314H157.967Z" fill="#D1390D"/>
<path d="M157.967 97.2314V117.692H198.835V97.2314H157.967Z" fill="#C22303"/>
<path d="M157.967 97.2314V117.692H183.556V97.2314H157.967Z" fill="#AD1B02"/>
<path d="M166.888 156.275C159.916 157.514 156.197 162.782 156.197 171.923C156.197 181.219 161.155 187.416 168.437 187.416C172 187.416 175.099 186.176 181.606 182.923C181.606 190.514 181.606 190.514 181.606 190.514C173.704 194.233 169.057 195.162 162.859 195.162C155.888 195.162 150.93 193.458 147.057 189.275C143.028 185.247 140.859 179.979 140.859 173.937C140.859 160.768 150.775 151.627 165.183 151.627C174.634 151.627 181.296 156.12 181.296 162.472C181.296 166.655 178.197 169.599 173.704 169.599C171.381 169.599 169.521 168.824 166.888 167.43" fill="black"/>
<path d="M132.028 173.937C138.38 166.035 140.704 162.782 140.704 158.909C140.704 155.035 137.605 151.627 133.267 151.627C130.789 151.627 128.465 153.021 127.38 154.261C127.38 170.528 127.38 170.528 127.38 170.528C117 184.472 117 184.472 117 184.472C117 152.866 117 152.866 117 152.866C107.084 152.866 107.084 152.866 107.084 152.866C90.6618 179.979 90.6618 179.979 90.6618 179.979C90.6618 152.866 90.6618 152.866 90.6618 152.866C85.0843 152.866 85.0843 152.866 85.0843 152.866C70.0561 156.275 70.0562 156.275 70.0562 156.275C70.0562 160.148 70.0562 160.148 70.0562 160.148C78.2674 160.923 78.2674 160.923 78.2674 160.923C78.2674 194.542 78.2674 194.542 78.2674 194.542C88.6477 194.542 88.6477 194.542 88.6477 194.542C104.451 168.514 104.451 168.514 104.451 168.514C104.451 194.542 104.451 194.542 104.451 194.542C116.07 194.542 116.07 194.542 116.07 194.542" fill="black"/>
<path d="M38.6056 189.275C39.8451 189.275 40.1549 189.275 40.9296 189.275C49.2958 189.275 53.9437 184.162 53.9437 173.937C53.9437 165.415 50.2254 160.768 43.2535 160.768C42.3239 160.768 40.9296 160.922 38.6056 161.387V189.275ZM38.6056 207.556C45.4225 209.106 45.4225 209.106 45.4225 209.106C45.4225 212.979 45.4225 212.979 45.4225 212.979C18.6197 212.979 18.6197 212.979 18.6197 212.979C18.6197 209.106 18.6197 209.106 18.6197 209.106C24.8169 207.556 24.8169 207.556 24.8169 207.556C24.8169 160.768 24.8169 160.768 24.8169 160.768C18 160.768 18 160.768 18 160.768C18 156.894 18 156.894 18 156.894C34.2676 151.937 34.2676 151.937 34.2676 151.937C38.6056 151.937 38.6056 151.937 38.6056 151.937C38.6056 157.514 38.6056 157.514 38.6056 157.514C46.1972 152.866 48.831 152.091 52.8592 152.091C61.8451 152.091 68.662 160.458 68.662 172.077C68.662 185.401 59.5211 194.542 45.5775 194.542C44.0282 194.542 41.3944 194.387 38.6056 194.232" fill="black"/>
</g>
<defs>
<clipPath id="clip0_384_182">
<rect width="256" height="256" fill="white"/>
</clipPath>
</defs>
</svg>
