<svg width="256" height="256" viewBox="0 0 256 256" fill="none" xmlns="http://www.w3.org/2000/svg">
<g clip-path="url(#clip0_384_176)">
<path fill-rule="evenodd" clip-rule="evenodd" d="M256.013 203.509C256.013 232.385 232.389 256.009 203.513 256.009H52.5124C23.6368 256.009 0.0126953 232.385 0.0126953 203.509V52.5085C0.0126953 23.6329 23.6368 0.00878906 52.5124 0.00878906H203.513C232.389 0.00878906 256.013 23.6329 256.013 52.5085V203.509Z" fill="white"/>
<path d="M238 118.699H157.978V98.2168H238V118.699Z" fill="#E669A2"/>
<path d="M227.606 118.699H157.978V67.4712H227.606V118.699Z" fill="#F3BE26"/>
<path d="M198.839 118.699H157.978V47H198.839V118.699Z" fill="#EE9C34"/>
<path d="M206.878 118.699H157.978V55.0005H206.878V118.699Z" fill="#F3BC87"/>
<path d="M157.967 55.0127V118.692H198.835V55.0127H157.967Z" fill="#E3721C"/>
<path d="M117.003 118.699H157.978V128.941H117.003V118.699Z" fill="#AD1B02"/>
<path d="M157.967 67.46V118.692H206.902V67.46H157.967Z" fill="#E88D14"/>
<path d="M157.967 67.46V118.692H198.835V67.46H157.967Z" fill="#D85604"/>
<path d="M183.531 118.699H157.978V87.9512H183.531V118.699Z" fill="#C14303"/>
<path d="M157.967 98.2314V118.692H227.63V98.2314H157.967Z" fill="#DB4E18"/>
<path d="M157.967 98.2314V118.692H206.902V98.2314H157.967Z" fill="#D1390D"/>
<path d="M157.967 98.2314V118.692H198.835V98.2314H157.967Z" fill="#C22303"/>
<path d="M157.967 98.2314V118.692H183.556V98.2314H157.967Z" fill="#AD1B02"/>
<path d="M166.888 157.275C159.916 158.514 156.197 163.782 156.197 172.923C156.197 182.219 161.155 188.416 168.437 188.416C172 188.416 175.099 187.176 181.606 183.923C181.606 191.514 181.606 191.514 181.606 191.514C173.704 195.233 169.057 196.162 162.859 196.162C155.888 196.162 150.93 194.458 147.057 190.275C143.028 186.247 140.859 180.979 140.859 174.937C140.859 161.768 150.775 152.627 165.183 152.627C174.634 152.627 181.296 157.12 181.296 163.472C181.296 167.655 178.197 170.599 173.704 170.599C171.381 170.599 169.521 169.824 166.888 168.43" fill="black"/>
<path d="M132.028 174.937C138.38 167.035 140.704 163.782 140.704 159.909C140.704 156.035 137.605 152.627 133.267 152.627C130.789 152.627 128.465 154.021 127.38 155.261C127.38 171.528 127.38 171.528 127.38 171.528C117 185.472 117 185.472 117 185.472C117 153.866 117 153.866 117 153.866C107.084 153.866 107.084 153.866 107.084 153.866C90.6618 180.979 90.6618 180.979 90.6618 180.979C90.6618 153.866 90.6618 153.866 90.6618 153.866C85.0843 153.866 85.0843 153.866 85.0843 153.866C70.0561 157.275 70.0562 157.275 70.0562 157.275C70.0562 161.148 70.0562 161.148 70.0562 161.148C78.2674 161.923 78.2674 161.923 78.2674 161.923C78.2674 195.542 78.2674 195.542 78.2674 195.542C88.6477 195.542 88.6477 195.542 88.6477 195.542C104.451 169.514 104.451 169.514 104.451 169.514C104.451 195.542 104.451 195.542 104.451 195.542C116.07 195.542 116.07 195.542 116.07 195.542" fill="black"/>
<path d="M38.6056 190.275C39.8451 190.275 40.1549 190.275 40.9296 190.275C49.2958 190.275 53.9437 185.162 53.9437 174.937C53.9437 166.415 50.2254 161.768 43.2535 161.768C42.3239 161.768 40.9296 161.922 38.6056 162.387V190.275ZM38.6056 208.556C45.4225 210.106 45.4225 210.106 45.4225 210.106C45.4225 213.979 45.4225 213.979 45.4225 213.979C18.6197 213.979 18.6197 213.979 18.6197 213.979C18.6197 210.106 18.6197 210.106 18.6197 210.106C24.8169 208.556 24.8169 208.556 24.8169 208.556C24.8169 161.768 24.8169 161.768 24.8169 161.768C18 161.768 18 161.768 18 161.768C18 157.894 18 157.894 18 157.894C34.2676 152.937 34.2676 152.937 34.2676 152.937C38.6056 152.937 38.6056 152.937 38.6056 152.937C38.6056 158.514 38.6056 158.514 38.6056 158.514C46.1972 153.866 48.831 153.091 52.8592 153.091C61.8451 153.091 68.662 161.458 68.662 173.077C68.662 186.401 59.5211 195.542 45.5775 195.542C44.0282 195.542 41.3944 195.387 38.6056 195.232" fill="black"/>
</g>
<defs>
<clipPath id="clip0_384_176">
<rect width="256" height="256" fill="white"/>
</clipPath>
</defs>
</svg>
