<svg width="256" height="256" viewBox="0 0 256 256" fill="none" xmlns="http://www.w3.org/2000/svg">
<g clip-path="url(#clip0_248_5107)">
<rect width="256" height="256" rx="60" fill="#242938"/>
<path d="M46.1847 178.166L46.1901 215.275C46.1901 222.304 51.8881 228 58.9169 228H94.8735C98.588 228 102.119 226.376 104.537 223.557L206.749 104.307C208.725 102 209.812 99.0615 209.812 96.0235V58.9142C209.812 51.8854 204.114 46.1875 197.086 46.1875H161.123C157.409 46.1875 153.878 47.8111 151.46 50.631L49.2482 169.88C47.2701 172.188 46.1847 175.126 46.1847 178.166Z" fill="#00D886"/>
<path d="M46.1816 182.626V215.271C46.1816 222.299 51.8796 227.997 58.9084 227.997H99.8211C100.423 227.997 101.025 227.954 101.621 227.87L217.066 211.38C223.336 210.484 227.992 205.115 227.992 198.78V149.804C227.992 142.774 222.292 137.076 215.262 137.078L157.331 137.092C155.964 137.092 154.606 137.312 153.31 137.745L54.8831 170.554C49.6869 172.287 46.1816 177.148 46.1816 182.626Z" fill="url(#paint0_linear_248_5107)"/>
<path d="M28 40.7267V146.873C28 151.964 31.0344 156.566 35.7124 158.571L152.866 208.781C154.449 209.46 156.156 209.81 157.88 209.81H215.265C222.294 209.81 227.992 204.113 227.992 197.084V140.942C227.992 138.428 227.246 135.97 225.85 133.877L158.969 33.667C156.607 30.129 152.637 28.0055 148.384 28.0055L40.7267 28C33.6979 28 28 33.6979 28 40.7267Z" fill="url(#paint1_linear_248_5107)"/>
<path d="M190.493 65.4985H65.4984V190.493H190.493V65.4985Z" fill="black"/>
<path fill-rule="evenodd" clip-rule="evenodd" d="M101.548 81.022H81.4219V127.912H90.5656V110.194H101.283C104.631 110.194 107.568 109.591 110.091 108.385C112.637 107.158 114.591 105.437 115.953 103.226C117.336 101.016 118.029 98.4034 118.029 95.5235C118.029 92.6437 117.347 90.11 115.985 87.9211C114.645 85.7321 112.725 84.0365 110.224 82.8306C107.722 81.6248 104.83 81.022 101.548 81.022ZM104.963 101.755C103.823 102.313 102.485 102.593 100.944 102.593H90.5599V88.6263H100.944C102.485 88.6263 103.823 88.9151 104.963 89.4963C106.124 90.0525 107.015 90.8566 107.642 91.9081C108.268 92.9324 108.58 94.1849 108.58 95.5917C108.58 96.9985 108.266 98.2381 107.642 99.3093C107.017 100.361 106.124 101.174 104.963 101.755Z" fill="white"/>
<path d="M132.314 125.568C135.955 127.666 140.019 128.717 144.507 128.717V128.714C148.301 128.714 151.786 128.01 154.957 126.604C158.127 125.197 160.761 123.234 162.861 120.709C164.981 118.163 166.4 115.249 167.115 111.968H157.535C156.909 113.663 155.972 115.162 154.722 116.455C153.493 117.729 152.007 118.712 150.266 119.403C148.526 120.094 146.627 120.442 144.573 120.442C141.804 120.442 139.303 119.751 137.071 118.366C134.837 116.981 133.084 115.084 131.812 112.673C130.561 110.241 129.937 107.503 129.937 104.467C129.937 101.431 130.561 98.706 131.812 96.2945C133.086 93.8615 134.837 91.9522 137.071 90.5669C139.303 89.182 141.804 88.4911 144.573 88.4911C146.626 88.4911 148.524 88.8392 150.266 89.5301C152.009 90.2207 153.493 91.2166 154.722 92.5103C155.972 93.7843 156.909 95.2699 157.535 96.9654H167.115C166.399 93.6837 164.981 90.7822 162.861 88.2577C160.761 85.7118 158.127 83.7363 154.957 82.3295C151.786 80.9226 148.301 80.2192 144.507 80.2192C140.017 80.2192 135.953 81.2779 132.314 83.4007C128.674 85.4981 125.816 88.4033 123.739 92.1084C121.664 95.792 120.625 99.9118 120.625 104.467C120.625 109.023 121.664 113.155 123.739 116.861C125.817 120.544 128.674 123.446 132.314 125.568Z" fill="white"/>
<path d="M81.1045 165.497H131.102V174.872H81.1045V165.497Z" fill="white"/>
</g>
<defs>
<linearGradient id="paint0_linear_248_5107" x1="51.8159" y1="230.239" x2="219.391" y2="152.544" gradientUnits="userSpaceOnUse">
<stop offset="0.1" stop-color="#00D886"/>
<stop offset="0.59" stop-color="#F0EB18"/>
</linearGradient>
<linearGradient id="paint1_linear_248_5107" x1="215.55" y1="214.798" x2="32.1035" y2="31.3508" gradientUnits="userSpaceOnUse">
<stop offset="0.3" stop-color="#F0EB18"/>
<stop offset="0.7" stop-color="#00C4F4"/>
</linearGradient>
<clipPath id="clip0_248_5107">
<rect width="256" height="256" fill="white"/>
</clipPath>
</defs>
</svg>
