<svg width="256" height="256" viewBox="0 0 256 256" fill="none" xmlns="http://www.w3.org/2000/svg">
<g clip-path="url(#clip0_248_6126)">
<path d="M196 0H60C26.8629 0 0 26.8629 0 60V196C0 229.137 26.8629 256 60 256H196C229.137 256 256 229.137 256 196V60C256 26.8629 229.137 0 196 0Z" fill="#112D45"/>
<path d="M127.279 29C76.5066 29 79.6772 51.018 79.6772 51.018L79.7338 73.8284H128.185V80.6772H60.4893C60.4893 80.6772 28 76.9926 28 128.222C28 179.452 56.3573 177.636 56.3573 177.636H73.2812V153.863C73.2812 153.863 72.369 125.506 101.186 125.506H149.24C149.24 125.506 176.239 125.942 176.239 99.4123V55.5461C176.239 55.5461 180.338 29 127.279 29ZM100.563 44.339C105.384 44.339 109.28 48.2351 109.28 53.0556C109.28 57.8761 105.384 61.7723 100.563 61.7723C95.7426 61.7723 91.8465 57.8761 91.8465 53.0556C91.8465 48.2351 95.7426 44.339 100.563 44.339Z" fill="#316B9A"/>
<path d="M128.721 227.957C179.493 227.957 176.323 205.94 176.323 205.94L176.266 183.129H127.815V176.28H195.511C195.511 176.28 228 179.965 228 128.735C228 77.5056 199.643 79.3224 199.643 79.3224H182.719V103.095C182.719 103.095 183.631 131.452 154.814 131.452H106.76C106.76 131.452 79.7607 131.015 79.7607 157.545V201.411C79.7607 201.411 75.6615 227.957 128.721 227.957ZM155.437 212.618C150.616 212.618 146.72 208.722 146.72 203.902C146.72 199.081 150.616 195.185 155.437 195.185C160.257 195.185 164.154 199.081 164.154 203.902C164.154 208.722 160.257 212.618 155.437 212.618Z" fill="#FFE66A"/>
</g>
<defs>
<clipPath id="clip0_248_6126">
<rect width="256" height="256" fill="white"/>
</clipPath>
</defs>
</svg>
