<svg width="256" height="256" viewBox="0 0 256 256" fill="none" xmlns="http://www.w3.org/2000/svg">
<g clip-path="url(#clip0_248_1315)">
<rect width="256" height="256" rx="60" fill="white"/>
<path d="M187.083 86.2391L172.185 101.138C196.564 125.517 196.564 164.794 172.185 188.722C147.805 213.101 108.528 213.101 84.6004 188.722C60.2212 164.343 60.2212 125.065 84.6004 101.138L123.201 62.5372L128.619 57.1196V28L70.3792 86.2391C37.8736 118.744 37.8736 171.115 70.3792 203.621C102.884 236.126 155.255 236.126 187.083 203.621C219.589 170.889 219.589 118.744 187.083 86.2391Z" fill="#EE4C2C"/>
<path d="M157.967 82.6339C163.951 82.6339 168.802 77.7828 168.802 71.7987C168.802 65.8146 163.951 60.9634 157.967 60.9634C151.983 60.9634 147.132 65.8146 147.132 71.7987C147.132 77.7828 151.983 82.6339 157.967 82.6339Z" fill="#EE4C2C"/>
</g>
<defs>
<clipPath id="clip0_248_1315">
<rect width="256" height="256" fill="white"/>
</clipPath>
</defs>
</svg>
