<svg width="256" height="256" viewBox="0 0 256 256" fill="none" xmlns="http://www.w3.org/2000/svg">
<g clip-path="url(#clip0_248_1310)">
<rect width="256" height="256" rx="60" fill="#242938"/>
<path d="M186.083 86.2391L171.185 101.138C195.564 125.517 195.564 164.794 171.185 188.722C146.805 213.101 107.528 213.101 83.6004 188.722C59.2212 164.343 59.2212 125.065 83.6004 101.138L122.201 62.5372L127.619 57.1196V28L69.3792 86.2391C36.8736 118.744 36.8736 171.115 69.3792 203.621C101.884 236.126 154.255 236.126 186.083 203.621C218.589 170.889 218.589 118.744 186.083 86.2391Z" fill="#EE4C2C"/>
<path d="M156.967 82.6339C162.951 82.6339 167.802 77.7828 167.802 71.7987C167.802 65.8146 162.951 60.9634 156.967 60.9634C150.983 60.9634 146.132 65.8146 146.132 71.7987C146.132 77.7828 150.983 82.6339 156.967 82.6339Z" fill="#EE4C2C"/>
</g>
<defs>
<clipPath id="clip0_248_1310">
<rect width="256" height="256" fill="white"/>
</clipPath>
</defs>
</svg>
