<svg width="256" height="256" viewBox="0 0 256 256" fill="none" xmlns="http://www.w3.org/2000/svg">
<g clip-path="url(#clip0_248_4564)">
<path d="M196 0H60C26.8629 0 0 26.8629 0 60V196C0 229.137 26.8629 256 60 256H196C229.137 256 256 229.137 256 196V60C256 26.8629 229.137 0 196 0Z" fill="#41CD52"/>
<path d="M87.0311 37C108.798 37 124.069 43.255 132.729 55.8773C141.505 68.3833 145.835 87.7203 145.835 113.892C145.835 131.145 144.012 145.04 140.48 155.579C136.831 166.233 131.021 174.339 122.815 179.897L140.479 208.962L118.712 219.268L99.9094 187.886C97.1744 188.696 92.957 189.161 87.0311 189.161C65.0362 189.161 49.6528 183.14 40.9906 171.095C32.3311 159.052 28 139.947 28 114.006C28 87.9515 32.4447 68.6145 41.2192 55.9922C49.995 43.3686 65.2647 37 87.0311 37ZM198.03 45.3408V76.6053H227.203V96.6385H198.03V144.001C198.03 152.8 198.713 158.59 199.967 161.371C201.219 164.265 204.525 165.655 209.653 165.655L226.975 164.959L228 183.72C218.655 185.573 211.476 186.499 206.462 186.499C194.497 186.499 186.292 183.72 181.846 178.161C177.402 172.603 175.123 162.064 175.123 146.548V96.5235H158.941V76.6053H175.123V45.3395L198.03 45.3408ZM87.4491 56.3462C74.2573 56.3462 65.1616 60.8222 60.1578 69.8945C55.269 78.9654 52.7678 93.3392 52.7678 113.25C52.7678 133.041 55.1554 147.297 59.9306 155.779C64.707 164.263 73.9177 168.621 87.4491 168.621C100.98 168.621 110.077 164.38 114.853 156.016C119.515 147.65 121.903 133.395 121.903 113.485C121.903 93.4568 119.515 78.9654 114.625 69.8945C109.735 60.8235 100.64 56.3462 87.4491 56.3462Z" fill="white"/>
</g>
<defs>
<clipPath id="clip0_248_4564">
<rect width="256" height="256" fill="white"/>
</clipPath>
</defs>
</svg>
