<svg width="256" height="256" viewBox="0 0 256 256" fill="none" xmlns="http://www.w3.org/2000/svg">
<g clip-path="url(#clip0_248_6142)">
<path d="M196 0H60C26.8629 0 0 26.8629 0 60V196C0 229.137 26.8629 256 60 256H196C229.137 256 256 229.137 256 196V60C256 26.8629 229.137 0 196 0Z" fill="#2066B8"/>
<path fill-rule="evenodd" clip-rule="evenodd" d="M127.849 185.236C72.8422 185.236 28.2502 155.371 28.2502 118.532C28.2502 81.6925 72.8422 51.8281 127.849 51.8281C182.856 51.8281 227.447 81.6925 227.447 118.532C227.447 155.371 182.856 185.236 127.849 185.236ZM143.094 77.9071C101.284 77.9071 67.3906 98.3237 67.3906 123.508C67.3906 148.693 101.284 169.11 143.094 169.11C184.904 169.11 215.759 155.152 215.759 123.508C215.759 91.8754 184.904 77.9071 143.094 77.9071Z" fill="url(#paint0_linear_248_6142)"/>
<path fill-rule="evenodd" clip-rule="evenodd" d="M179.934 155.144C179.934 155.144 185.962 156.963 189.464 158.735C190.679 159.35 192.782 160.577 194.298 162.188C195.784 163.766 196.508 165.365 196.508 165.365L220.265 205.42L181.868 205.437L163.912 171.718C163.912 171.718 160.235 165.401 157.972 163.569C156.085 162.041 155.28 161.497 153.414 161.497C152.116 161.497 144.291 161.497 144.291 161.497L144.298 205.413L110.321 205.427V93.248H178.553C178.553 93.248 209.63 93.8085 209.63 123.376C209.63 152.943 179.934 155.144 179.934 155.144ZM165.155 117.581L144.585 117.568L144.575 136.643L165.155 136.636C165.155 136.636 174.685 136.606 174.685 126.933C174.685 117.065 165.155 117.581 165.155 117.581Z" fill="white"/>
</g>
<defs>
<linearGradient id="paint0_linear_248_6142" x1="28.25" y1="51.8284" x2="151.612" y2="236.025" gradientUnits="userSpaceOnUse">
<stop stop-color="#CBCED0"/>
<stop offset="1" stop-color="#84838B"/>
</linearGradient>
<clipPath id="clip0_248_6142">
<rect width="256" height="256" fill="white"/>
</clipPath>
</defs>
</svg>
