<svg width="256" height="256" viewBox="0 0 256 256" fill="none" xmlns="http://www.w3.org/2000/svg">
<g clip-path="url(#clip0_248_2525)">
<path d="M196 0H60C26.8629 0 0 26.8629 0 60V196C0 229.137 26.8629 256 60 256H196C229.137 256 256 229.137 256 196V60C256 26.8629 229.137 0 196 0Z" fill="#FF6600"/>
<path d="M206.242 110H149.649C148.284 110 146.977 109.458 146.012 108.493C145.047 107.53 144.504 106.222 144.504 104.859V45.9068C144.504 41.5412 140.963 38 136.597 38H116.395C112.026 38 108.486 41.5412 108.486 45.9068V104.502C108.486 107.542 106.028 110.013 102.986 110.026L84.4396 110.114C81.3722 110.131 78.8801 107.643 78.886 104.581L79.0011 45.9201C79.0111 41.5479 75.4681 38 71.0938 38H50.908C46.539 38 43 41.5412 43 45.9068V210.981C43 214.858 46.1432 218 50.0202 218H206.242C210.122 218 213.265 214.858 213.265 210.981V117.02C213.265 113.142 210.122 110 206.242 110ZM179.703 171.978C179.703 177.06 175.581 181.182 170.496 181.182H154.531C149.445 181.182 145.323 177.06 145.323 171.978V156.021C145.323 150.938 149.445 146.818 154.531 146.818H170.496C175.581 146.818 179.703 150.938 179.703 156.021V171.978Z" fill="#F4F2ED"/>
</g>
<defs>
<clipPath id="clip0_248_2525">
<rect width="256" height="256" fill="white"/>
</clipPath>
</defs>
</svg>
