<svg width="256" height="256" viewBox="0 0 256 256" fill="none" xmlns="http://www.w3.org/2000/svg">
<g clip-path="url(#clip0_384_297)">
<rect width="256" height="256" rx="60" fill="white"/>
<path d="M196.915 104.215C199.054 104.163 201.138 104.911 202.751 106.317C204.409 107.843 205.558 109.842 206.042 112.043C206.668 114.836 206.794 117.719 206.412 120.556C205.923 124.32 204.988 128.014 203.616 131.556C202.357 135.039 200.744 138.385 198.797 141.535L196.145 145.373C196.099 145.44 196.102 145.529 196.154 145.59C196.206 145.651 196.295 145.669 196.368 145.633L197.905 144.698C199.088 143.928 200.227 143.096 201.318 142.204C204.282 139.766 206.424 136.481 207.466 132.793L209.547 126.193L213.495 116.263C214.5 113.977 215.629 111.749 216.877 109.586C217.763 108.034 219.276 106.931 221.026 106.561C222.566 106.21 224.171 106.234 225.698 106.632C227.094 106.982 228.349 107.751 229.295 108.835C230.273 109.864 230.517 111.389 229.909 112.672L228.549 115.814L226.059 121.631L223.263 128.717C222.414 130.942 221.699 133.215 221.124 135.525C220.682 137.139 220.491 138.812 220.559 140.484C220.657 141.712 221.127 141.712 221.372 141.712C222.117 141.618 222.808 141.272 223.33 140.735C224.372 139.861 225.359 138.92 226.282 137.92C227.322 136.81 228.297 135.641 229.203 134.419L231.324 131.47C231.568 131.114 231.896 130.823 232.279 130.624C232.662 130.424 233.089 130.323 233.521 130.327C234.44 130.327 235.302 130.783 235.824 131.54L235.687 131.586C235.916 131.938 236.035 132.35 236.028 132.77C236.022 133.189 235.89 133.598 235.65 133.942L232.359 138.917C230.641 141.44 228.76 143.849 226.728 146.128C224.598 148.545 222.215 150.729 219.621 152.642C217.341 154.457 214.533 155.487 211.621 155.581C209.232 155.581 207.457 154.753 206.326 153.103C205.226 151.301 204.688 149.211 204.789 147.099V146.708C204.795 146.571 204.719 146.445 204.597 146.384C204.475 146.323 204.328 146.345 204.221 146.433L202.684 147.637C199.415 150.06 195.837 152.034 192.042 153.51C188.344 154.946 184.412 155.661 180.449 155.627C179.896 155.627 179.327 155.591 178.759 155.591C175.93 155.581 173.831 154.683 172.517 152.926C172.286 152.619 172.074 152.299 171.881 151.967C171.814 151.845 171.676 151.771 171.536 151.79C171.395 151.808 171.279 151.906 171.242 152.043L170.036 156.18L167.93 163.712L166.393 169.744L165.535 173.881V173.921C165.435 174.625 165.119 175.28 164.63 175.796C164.141 176.311 163.503 176.662 162.806 176.799C162.336 176.903 161.859 176.952 161.376 176.952C160.437 176.94 159.507 176.768 158.626 176.445C157.144 175.898 155.824 174.99 154.782 173.805C153.614 172.491 152.991 170.78 153.041 169.023C153.184 167.565 153.468 166.126 153.884 164.724L156.114 156.281L158.25 148.988C158.299 148.847 158.25 148.688 158.128 148.6C158.006 148.511 157.841 148.508 157.719 148.6C154.837 150.561 151.745 152.196 148.497 153.47C144.803 154.906 140.867 155.624 136.904 155.591C136.351 155.591 135.783 155.551 135.215 155.551C132.385 155.545 130.289 154.646 128.975 152.886C128.742 152.58 128.528 152.259 128.333 151.927C128.269 151.805 128.132 151.735 127.991 151.75C127.851 151.765 127.735 151.869 127.698 152.003L126.491 156.144L124.386 163.673L122.812 169.713L121.95 173.851V173.89C121.851 174.594 121.535 175.249 121.046 175.765C120.557 176.281 119.919 176.632 119.222 176.769C118.755 176.872 118.279 176.923 117.801 176.921C116.862 176.909 115.932 176.738 115.051 176.414C113.569 175.867 112.249 174.96 111.207 173.774C110.039 172.46 109.416 170.75 109.465 168.992C109.609 167.535 109.893 166.096 110.309 164.693L112.539 156.251L114.367 149.962C114.412 149.813 114.354 149.651 114.22 149.565C114.085 149.48 113.914 149.504 113.798 149.611C112.659 150.662 111.464 151.655 110.217 152.581C107.974 154.405 105.194 155.447 102.303 155.551C99.92 155.551 98.1386 154.723 97.008 153.073C96.5344 152.364 96.1739 151.588 95.9386 150.769C95.8877 150.593 95.7909 150.433 95.6582 150.306C95.5254 150.179 95.3614 150.09 95.1829 150.047C95.0043 150.004 94.8176 150.009 94.6417 150.062C94.4658 150.115 94.3071 150.213 94.1817 150.347C93.4025 151.163 92.55 151.906 91.6303 152.556C90.4025 153.427 89.0699 154.139 87.6642 154.677C86.1371 155.252 84.5171 155.541 82.8853 155.529C80.7189 155.569 78.6137 154.83 76.9453 153.449C75.2189 151.97 73.9631 150.02 73.3337 147.836C72.5728 145.067 72.3131 142.183 72.5667 139.323C72.8601 135.592 73.6087 131.907 74.7973 128.353C77.4862 120.088 80.9023 114.054 85.2075 110.142C89.5128 106.231 93.8822 104.236 98.1936 104.236C99.8008 104.175 101.396 104.557 102.801 105.336C103.959 106.009 104.908 106.988 105.545 108.166C105.964 108.954 106.269 109.797 106.453 110.671C106.471 110.738 106.529 110.79 106.599 110.799C106.634 110.804 106.669 110.798 106.7 110.784C106.731 110.769 106.758 110.746 106.777 110.717L107.397 109.647C108.271 108.111 109.756 107.014 111.485 106.632C113.025 106.277 114.626 106.299 116.157 106.693C117.578 107.035 118.858 107.808 119.824 108.905C120.802 109.935 121.046 111.459 120.435 112.743L119.078 115.881L116.573 121.708L113.774 128.793C112.925 131.017 112.211 133.291 111.638 135.601C111.195 137.215 111.002 138.889 111.07 140.56C111.17 141.789 111.638 141.789 111.885 141.789C112.631 141.694 113.322 141.349 113.844 140.811L115.512 139.277C117.667 137.224 119.277 134.666 120.206 131.84L124.331 120.443L128.743 109.956C129.388 108.468 130.64 107.328 132.186 106.824C133.604 106.351 135.12 106.247 136.586 106.525C137.982 106.773 139.291 107.372 140.391 108.266C140.833 108.62 141.215 109.043 141.521 109.519C141.598 109.602 141.683 109.617 141.79 109.519C143.07 108.327 144.455 107.258 145.924 106.317C148.124 104.911 150.685 104.184 153.294 104.215C155.434 104.164 157.515 104.913 159.13 106.317C160.783 107.845 161.926 109.846 162.406 112.043C163.032 114.836 163.157 117.72 162.773 120.556C162.287 124.32 161.349 128.014 159.977 131.556C158.72 135.039 157.106 138.384 155.161 141.535L152.518 145.373C152.469 145.44 152.472 145.529 152.527 145.59C152.582 145.651 152.668 145.669 152.741 145.633L154.275 144.698L156.683 142.962C159.659 140.678 161.883 137.556 163.069 133.997L163.527 132.607L167.924 120.403L172.333 109.916C172.978 108.428 174.231 107.289 175.777 106.784C177.195 106.311 178.71 106.207 180.177 106.485C181.572 106.734 182.881 107.333 183.981 108.227C184.439 108.591 184.835 109.027 185.151 109.519C185.228 109.602 185.313 109.617 185.42 109.519C186.699 108.329 188.082 107.257 189.554 106.317C191.751 104.914 194.309 104.184 196.915 104.215ZM53.8118 84.5614C57.102 84.5576 60.3815 84.938 63.5834 85.695C66.6303 86.3878 69.5514 87.5484 72.2429 89.1356C74.7116 90.5864 76.8436 92.5455 78.4975 94.8831C80.1323 97.2542 80.9817 100.077 80.9328 102.95C80.9603 106.118 80.23 109.244 78.797 112.07C77.3452 114.887 75.3996 117.419 73.0526 119.547C70.5221 121.833 67.6933 123.766 64.6437 125.292C61.9615 126.644 59.1738 127.775 56.3082 128.674C56.2287 128.687 56.1585 128.732 56.1126 128.797C56.0668 128.861 56.0485 128.94 56.0607 129.02L56.3662 133.273L57.014 137.878L57.9521 142.039L58.8748 145.009L59.5348 146.76C59.9805 147.84 60.4833 148.896 61.0412 149.923C61.5484 150.871 62.1095 151.789 62.7218 152.673C63.2901 153.476 63.9073 154.246 64.5765 154.973C65.1956 155.648 65.8603 156.278 66.5656 156.862C67.2256 157.406 67.9284 157.901 68.6618 158.344C69.3641 158.758 70.0964 159.12 70.8526 159.425C71.6012 159.722 72.3712 159.957 73.1595 160.128C73.9404 160.305 74.7344 160.419 75.5337 160.467C76.3587 160.528 77.1837 160.528 78.0087 160.467C78.8764 160.394 79.7381 160.253 80.5875 160.055C81.4981 159.841 82.3903 159.566 83.2611 159.233C84.2058 158.876 85.1273 158.461 86.0203 157.989L87.0745 157.415C88.2142 156.752 89.6717 157.066 90.4356 158.136C91.1994 159.205 91.0344 160.684 90.0383 161.552L88.5808 162.786L85.0822 165.436L81.7884 167.513L80.0803 168.436C78.9803 168.995 77.8498 169.496 76.6917 169.933C75.5944 170.342 74.4729 170.683 73.3337 170.954C72.2578 171.216 71.1656 171.406 70.0642 171.522L67.7573 171.638H66.8498C65.817 171.592 64.7904 171.47 63.7759 171.272L62.2848 170.917L60.8396 170.447C59.8948 170.104 58.9784 169.689 58.0987 169.203C57.2145 168.719 56.3668 168.17 55.5626 167.562C54.8961 167.06 54.2576 166.521 53.6499 165.949C52.8921 165.228 52.1832 164.458 51.5201 163.645C50.8357 162.82 50.2002 161.952 49.6165 161.051L47.9329 158.157L46.4724 154.98L45.2441 151.533L44.2357 147.836L43.4688 143.888L42.9921 140.227C42.986 140.053 42.8516 139.91 42.6774 139.891C42.5032 139.873 42.3413 139.995 42.3077 140.166H42.2924L41.0641 144.878L39.7502 150.066L38.9802 153.69C38.7296 155.212 37.5135 156.388 35.9858 156.593C34.4519 156.862 32.8783 156.73 31.4116 156.208C29.835 155.682 28.4019 154.793 27.2316 153.614C25.9452 152.346 25.2364 150.601 25.2791 148.792C25.4227 146.259 25.82 143.75 26.4647 141.294C27.2316 137.887 28.3683 133.832 29.8136 129.264L34.9774 114.414L40.6913 100.71C41.3757 99.225 42.7874 98.2044 44.413 98.015C47.5999 97.5689 50.8388 97.6789 53.986 98.3297C54.3674 98.4211 54.7242 98.5948 55.0314 98.8386C55.3386 99.0825 55.5888 99.3906 55.7643 99.7414C55.9382 100.093 56.0322 100.478 56.0396 100.87C56.047 101.262 55.9676 101.651 55.8071 102.009L51.0221 113.568L47.6916 122.603C47.6457 122.734 47.6824 122.884 47.7863 122.979C47.8902 123.074 48.0429 123.095 48.1713 123.034C49.6023 122.361 50.9856 121.591 52.3115 120.73C54.5268 119.309 56.5465 117.61 58.3218 115.67C60.0634 113.76 61.4996 111.594 62.5782 109.247C63.6598 106.882 64.2159 104.309 64.2068 101.709C64.2068 98.2625 63.2534 95.7203 61.3712 94.1467C59.489 92.5731 56.7757 91.7297 53.3565 91.7297C49.9199 91.6842 46.5339 92.561 43.5513 94.2689C40.6619 95.9273 38.0766 98.0663 35.9063 100.594C33.8652 102.959 32.1969 105.62 30.9563 108.486C29.9175 110.717 29.3247 113.134 29.2147 115.594C29.2442 116.246 29.0502 116.89 28.6647 117.418C28.2791 117.945 27.7251 118.326 27.0941 118.496C25.8299 118.876 24.4741 118.813 23.2503 118.319C21.8083 117.727 20.5628 116.74 19.6569 115.471C18.4958 113.818 17.9153 111.826 18.01 109.806C18.01 107.75 18.78 105.324 20.3933 102.4C22.1778 99.2708 24.4878 96.475 27.2316 94.1406C30.5812 91.2991 34.3679 89.0178 38.4455 87.3848C43.3294 85.4371 48.5515 84.4785 53.8087 84.5645L53.8118 84.5614ZM147.703 113.345L147.629 113.354C147.213 113.411 146.823 113.59 146.508 113.867C145.435 114.695 144.476 115.664 143.657 116.745C142.436 118.315 141.327 119.969 140.339 121.695C139.126 123.787 138.048 125.954 137.112 128.182C136.168 130.418 135.349 132.704 134.658 135.03C134.066 136.97 133.586 138.944 133.222 140.939C132.942 142.313 132.864 143.72 132.993 145.116C133.146 146.29 133.507 146.537 133.613 146.583C133.665 146.595 133.717 146.595 133.766 146.583C134.183 146.528 134.574 146.351 134.891 146.076C135.969 145.241 136.926 144.261 137.732 143.161C138.938 141.573 140.031 139.903 141.002 138.162L144.296 131.644C145.242 129.416 146.068 127.138 146.771 124.821C147.358 122.894 147.837 120.935 148.207 118.955L148.176 118.942C148.457 117.586 148.534 116.199 148.405 114.817C148.246 113.653 147.886 113.4 147.776 113.351C147.727 113.342 147.678 113.342 147.629 113.351L147.703 113.345ZM191.25 113.345C190.835 113.405 190.446 113.583 190.129 113.858C189.062 114.683 188.112 115.642 187.302 116.715C186.079 118.284 184.969 119.938 183.981 121.665C182.771 123.777 181.696 125.964 180.764 128.213C179.811 130.438 178.983 132.713 178.282 135.03C177.687 136.97 177.207 138.941 176.846 140.939C176.56 142.312 176.482 143.72 176.614 145.116C176.767 146.29 177.127 146.537 177.237 146.583C177.286 146.595 177.338 146.595 177.39 146.583C177.806 146.527 178.196 146.351 178.512 146.076C179.589 145.24 180.545 144.259 181.353 143.161C182.56 141.572 183.645 139.903 184.614 138.162L187.917 131.644C188.855 129.414 189.67 127.128 190.361 124.806C190.948 122.881 191.43 120.922 191.797 118.939C192.074 117.582 192.149 116.191 192.02 114.811C191.867 113.644 191.504 113.39 191.397 113.345C191.351 113.335 191.299 113.335 191.25 113.345ZM100.061 113.137C99.6633 113.195 99.2966 113.369 99.0064 113.638C97.9788 114.47 97.0808 115.45 96.3419 116.547C95.2236 118.13 94.2336 119.798 93.375 121.537C92.3819 123.501 91.4072 125.695 90.4844 128.054C89.6075 130.269 88.8742 132.54 88.2967 134.853C87.8072 136.769 87.463 138.72 87.267 140.689C87.1131 142.075 87.1306 143.475 87.3189 144.856C87.5206 146.039 87.8964 146.299 88.0033 146.345C88.0522 146.354 88.1011 146.354 88.15 146.345C88.5442 146.29 88.9108 146.115 89.2011 145.846C90.2247 145.021 91.1261 144.059 91.8747 142.983C92.9992 141.425 93.9892 139.775 94.8417 138.055C95.85 136.06 96.8155 133.838 97.7322 131.537C98.607 129.32 99.3377 127.048 99.92 124.736C100.408 122.804 100.767 120.842 100.996 118.863C101.201 117.473 101.191 116.06 100.965 114.674C100.705 113.452 100.314 113.192 100.198 113.137C100.152 113.128 100.106 113.128 100.061 113.137ZM228.256 82.667C230.838 82.6678 233.314 83.693 235.141 85.5176C236.968 87.3421 237.996 89.817 238 92.3989C237.997 94.9814 236.969 97.457 235.142 99.2822C233.315 101.107 230.838 102.133 228.256 102.134C225.674 102.132 223.198 101.106 221.372 99.2811C219.546 97.456 218.518 94.9808 218.515 92.3989C218.515 87.0242 222.878 82.667 228.256 82.667Z" fill="#FF441F"/>
</g>
<defs>
<clipPath id="clip0_384_297">
<rect width="256" height="256" fill="white"/>
</clipPath>
</defs>
</svg>
