<svg width="256" height="256" viewBox="0 0 256 256" fill="none" xmlns="http://www.w3.org/2000/svg">
<g clip-path="url(#clip0_384_278)">
<rect width="256" height="256" rx="60" fill="#242938"/>
<path d="M196.915 103.215C199.054 103.163 201.138 103.911 202.751 105.317C204.409 106.843 205.558 108.842 206.042 111.043C206.668 113.836 206.794 116.719 206.412 119.556C205.923 123.32 204.988 127.014 203.616 130.556C202.357 134.039 200.744 137.385 198.797 140.535L196.145 144.373C196.099 144.44 196.102 144.529 196.154 144.59C196.206 144.651 196.295 144.669 196.368 144.633L197.905 143.698C199.088 142.928 200.227 142.096 201.318 141.204C204.282 138.766 206.424 135.481 207.466 131.793L209.547 125.193L213.495 115.263C214.5 112.977 215.629 110.749 216.877 108.586C217.763 107.034 219.276 105.931 221.026 105.561C222.566 105.21 224.171 105.234 225.698 105.632C227.094 105.982 228.349 106.751 229.295 107.835C230.273 108.864 230.517 110.389 229.909 111.672L228.549 114.814L226.059 120.631L223.263 127.717C222.414 129.942 221.699 132.215 221.124 134.525C220.682 136.139 220.491 137.812 220.559 139.484C220.657 140.712 221.127 140.712 221.372 140.712C222.117 140.618 222.808 140.272 223.33 139.735C224.372 138.861 225.359 137.92 226.282 136.92C227.322 135.81 228.297 134.641 229.203 133.419L231.324 130.47C231.568 130.114 231.896 129.823 232.279 129.624C232.662 129.424 233.089 129.323 233.521 129.327C234.44 129.327 235.302 129.783 235.824 130.54L235.687 130.586C235.916 130.938 236.035 131.35 236.028 131.77C236.022 132.189 235.89 132.598 235.65 132.942L232.359 137.917C230.641 140.44 228.76 142.849 226.728 145.128C224.598 147.545 222.215 149.729 219.621 151.642C217.341 153.457 214.533 154.487 211.621 154.581C209.232 154.581 207.457 153.753 206.326 152.103C205.226 150.301 204.688 148.211 204.789 146.099V145.708C204.795 145.571 204.719 145.445 204.597 145.384C204.475 145.323 204.328 145.345 204.221 145.433L202.684 146.637C199.415 149.06 195.837 151.034 192.042 152.51C188.344 153.946 184.412 154.661 180.449 154.627C179.896 154.627 179.327 154.591 178.759 154.591C175.93 154.581 173.831 153.683 172.517 151.926C172.286 151.619 172.074 151.299 171.881 150.967C171.814 150.845 171.676 150.771 171.536 150.79C171.395 150.808 171.279 150.906 171.242 151.043L170.036 155.18L167.93 162.712L166.393 168.744L165.535 172.881V172.921C165.435 173.625 165.119 174.28 164.63 174.796C164.141 175.311 163.503 175.662 162.806 175.799C162.336 175.903 161.859 175.952 161.376 175.952C160.437 175.94 159.507 175.768 158.626 175.445C157.144 174.898 155.824 173.99 154.782 172.805C153.614 171.491 152.991 169.78 153.041 168.023C153.184 166.565 153.468 165.126 153.884 163.724L156.114 155.281L158.25 147.988C158.299 147.847 158.25 147.688 158.128 147.6C158.006 147.511 157.841 147.508 157.719 147.6C154.837 149.561 151.745 151.196 148.497 152.47C144.803 153.906 140.867 154.624 136.904 154.591C136.351 154.591 135.783 154.551 135.215 154.551C132.385 154.545 130.289 153.646 128.975 151.886C128.742 151.58 128.528 151.259 128.333 150.927C128.269 150.805 128.132 150.735 127.991 150.75C127.851 150.765 127.735 150.869 127.698 151.003L126.491 155.144L124.386 162.673L122.812 168.713L121.95 172.851V172.89C121.851 173.594 121.535 174.249 121.046 174.765C120.557 175.281 119.919 175.632 119.222 175.769C118.755 175.872 118.279 175.923 117.801 175.921C116.862 175.909 115.932 175.738 115.051 175.414C113.569 174.867 112.249 173.96 111.207 172.774C110.039 171.46 109.416 169.75 109.465 167.992C109.609 166.535 109.893 165.096 110.309 163.693L112.539 155.251L114.367 148.962C114.412 148.813 114.354 148.651 114.22 148.565C114.085 148.48 113.914 148.504 113.798 148.611C112.659 149.662 111.464 150.655 110.217 151.581C107.974 153.405 105.194 154.447 102.303 154.551C99.92 154.551 98.1386 153.723 97.008 152.073C96.5344 151.364 96.1739 150.588 95.9386 149.769C95.8877 149.593 95.7909 149.433 95.6582 149.306C95.5254 149.179 95.3614 149.09 95.1829 149.047C95.0043 149.004 94.8176 149.009 94.6417 149.062C94.4658 149.115 94.3071 149.213 94.1817 149.347C93.4025 150.163 92.55 150.906 91.6303 151.556C90.4025 152.427 89.0699 153.139 87.6642 153.677C86.1371 154.252 84.5171 154.541 82.8853 154.529C80.7189 154.569 78.6137 153.83 76.9453 152.449C75.2189 150.97 73.9631 149.02 73.3337 146.836C72.5728 144.067 72.3131 141.183 72.5667 138.323C72.8601 134.592 73.6087 130.907 74.7973 127.353C77.4862 119.088 80.9023 113.054 85.2075 109.142C89.5128 105.231 93.8822 103.236 98.1936 103.236C99.8008 103.175 101.396 103.557 102.801 104.336C103.959 105.009 104.908 105.988 105.545 107.166C105.964 107.954 106.269 108.797 106.453 109.671C106.471 109.738 106.529 109.79 106.599 109.799C106.634 109.804 106.669 109.798 106.7 109.784C106.731 109.769 106.758 109.746 106.777 109.717L107.397 108.647C108.271 107.111 109.756 106.014 111.485 105.632C113.025 105.277 114.626 105.299 116.157 105.693C117.578 106.035 118.858 106.808 119.824 107.905C120.802 108.935 121.046 110.459 120.435 111.743L119.078 114.881L116.573 120.708L113.774 127.793C112.925 130.017 112.211 132.291 111.638 134.601C111.195 136.215 111.002 137.889 111.07 139.56C111.17 140.789 111.638 140.789 111.885 140.789C112.631 140.694 113.322 140.349 113.844 139.811L115.512 138.277C117.667 136.224 119.277 133.666 120.206 130.84L124.331 119.443L128.743 108.956C129.388 107.468 130.64 106.328 132.186 105.824C133.604 105.351 135.12 105.247 136.586 105.525C137.982 105.773 139.291 106.372 140.391 107.266C140.833 107.62 141.215 108.043 141.521 108.519C141.598 108.602 141.683 108.617 141.79 108.519C143.07 107.327 144.455 106.258 145.924 105.317C148.124 103.911 150.685 103.184 153.294 103.215C155.434 103.164 157.515 103.913 159.13 105.317C160.783 106.845 161.926 108.846 162.406 111.043C163.032 113.836 163.157 116.72 162.773 119.556C162.287 123.32 161.349 127.014 159.977 130.556C158.72 134.039 157.106 137.384 155.161 140.535L152.518 144.373C152.469 144.44 152.472 144.529 152.527 144.59C152.582 144.651 152.668 144.669 152.741 144.633L154.275 143.698L156.683 141.962C159.659 139.678 161.883 136.556 163.069 132.997L163.527 131.607L167.924 119.403L172.333 108.916C172.978 107.428 174.231 106.289 175.777 105.784C177.195 105.311 178.71 105.207 180.177 105.485C181.572 105.734 182.881 106.333 183.981 107.227C184.439 107.591 184.835 108.027 185.151 108.519C185.228 108.602 185.313 108.617 185.42 108.519C186.699 107.329 188.082 106.257 189.554 105.317C191.751 103.914 194.309 103.184 196.915 103.215ZM53.8118 83.5614C57.102 83.5576 60.3815 83.938 63.5834 84.695C66.6303 85.3878 69.5514 86.5484 72.2429 88.1356C74.7116 89.5864 76.8436 91.5455 78.4975 93.8831C80.1323 96.2542 80.9817 99.0775 80.9328 101.95C80.9603 105.118 80.23 108.244 78.797 111.07C77.3452 113.887 75.3996 116.419 73.0526 118.547C70.5221 120.833 67.6933 122.766 64.6437 124.292C61.9615 125.644 59.1738 126.775 56.3082 127.674C56.2287 127.687 56.1585 127.732 56.1126 127.797C56.0668 127.861 56.0485 127.94 56.0607 128.02L56.3662 132.273L57.014 136.878L57.9521 141.039L58.8748 144.009L59.5348 145.76C59.9805 146.84 60.4833 147.896 61.0412 148.923C61.5484 149.871 62.1095 150.789 62.7218 151.673C63.2901 152.476 63.9073 153.246 64.5765 153.973C65.1956 154.648 65.8603 155.278 66.5656 155.862C67.2256 156.406 67.9284 156.901 68.6618 157.344C69.3641 157.758 70.0964 158.12 70.8526 158.425C71.6012 158.722 72.3712 158.957 73.1595 159.128C73.9404 159.305 74.7344 159.419 75.5337 159.467C76.3587 159.528 77.1837 159.528 78.0087 159.467C78.8764 159.394 79.7381 159.253 80.5875 159.055C81.4981 158.841 82.3903 158.566 83.2611 158.233C84.2058 157.876 85.1273 157.461 86.0203 156.989L87.0745 156.415C88.2142 155.752 89.6717 156.066 90.4356 157.136C91.1994 158.205 91.0344 159.684 90.0383 160.552L88.5808 161.786L85.0822 164.436L81.7884 166.513L80.0803 167.436C78.9803 167.995 77.8498 168.496 76.6917 168.933C75.5944 169.342 74.4729 169.683 73.3337 169.954C72.2578 170.216 71.1656 170.406 70.0642 170.522L67.7573 170.638H66.8498C65.817 170.592 64.7904 170.47 63.7759 170.272L62.2848 169.917L60.8396 169.447C59.8948 169.104 58.9784 168.689 58.0987 168.203C57.2145 167.719 56.3668 167.17 55.5626 166.562C54.8961 166.06 54.2576 165.521 53.6499 164.949C52.8921 164.228 52.1832 163.458 51.5201 162.645C50.8357 161.82 50.2002 160.952 49.6165 160.051L47.9329 157.157L46.4724 153.98L45.2441 150.533L44.2357 146.836L43.4688 142.888L42.9921 139.227C42.986 139.053 42.8516 138.91 42.6774 138.891C42.5032 138.873 42.3413 138.995 42.3077 139.166H42.2924L41.0641 143.878L39.7502 149.066L38.9802 152.69C38.7296 154.212 37.5135 155.388 35.9858 155.593C34.4519 155.862 32.8783 155.73 31.4116 155.208C29.835 154.682 28.4019 153.793 27.2316 152.614C25.9452 151.346 25.2364 149.601 25.2791 147.792C25.4227 145.259 25.82 142.75 26.4647 140.294C27.2316 136.887 28.3683 132.832 29.8136 128.264L34.9774 113.414L40.6913 99.71C41.3757 98.225 42.7874 97.2044 44.413 97.015C47.5999 96.5689 50.8388 96.6789 53.986 97.3297C54.3674 97.4211 54.7242 97.5948 55.0314 97.8386C55.3386 98.0825 55.5888 98.3906 55.7643 98.7414C55.9382 99.0927 56.0322 99.4782 56.0396 99.8702C56.047 100.262 55.9676 100.651 55.8071 101.009L51.0221 112.568L47.6916 121.603C47.6457 121.734 47.6824 121.884 47.7863 121.979C47.8902 122.074 48.0429 122.095 48.1713 122.034C49.6023 121.361 50.9856 120.591 52.3115 119.73C54.5268 118.309 56.5465 116.61 58.3218 114.67C60.0634 112.76 61.4996 110.594 62.5782 108.247C63.6598 105.882 64.2159 103.309 64.2068 100.709C64.2068 97.2625 63.2534 94.7203 61.3712 93.1467C59.489 91.5731 56.7757 90.7297 53.3565 90.7297C49.9199 90.6842 46.5339 91.561 43.5513 93.2689C40.6619 94.9273 38.0766 97.0663 35.9063 99.5939C33.8652 101.959 32.1969 104.62 30.9563 107.486C29.9175 109.717 29.3247 112.134 29.2147 114.594C29.2442 115.246 29.0502 115.89 28.6647 116.418C28.2791 116.945 27.7251 117.326 27.0941 117.496C25.8299 117.876 24.4741 117.813 23.2503 117.319C21.8083 116.727 20.5628 115.74 19.6569 114.471C18.4958 112.818 17.9153 110.826 18.01 108.806C18.01 106.75 18.78 104.324 20.3933 101.4C22.1778 98.2708 24.4878 95.475 27.2316 93.1406C30.5812 90.2991 34.3679 88.0178 38.4455 86.3848C43.3294 84.4371 48.5515 83.4785 53.8087 83.5645L53.8118 83.5614ZM147.703 112.345L147.629 112.354C147.213 112.411 146.823 112.59 146.508 112.867C145.435 113.695 144.476 114.664 143.657 115.745C142.436 117.315 141.327 118.969 140.339 120.695C139.126 122.787 138.048 124.954 137.112 127.182C136.168 129.418 135.349 131.704 134.658 134.03C134.066 135.97 133.586 137.944 133.222 139.939C132.942 141.313 132.864 142.72 132.993 144.116C133.146 145.29 133.507 145.537 133.613 145.583C133.665 145.595 133.717 145.595 133.766 145.583C134.183 145.528 134.574 145.351 134.891 145.076C135.969 144.241 136.926 143.261 137.732 142.161C138.938 140.573 140.031 138.903 141.002 137.162L144.296 130.644C145.242 128.416 146.068 126.138 146.771 123.821C147.358 121.894 147.837 119.935 148.207 117.955L148.176 117.942C148.457 116.586 148.534 115.199 148.405 113.817C148.246 112.653 147.886 112.4 147.776 112.351C147.727 112.342 147.678 112.342 147.629 112.351L147.703 112.345ZM191.25 112.345C190.835 112.405 190.446 112.583 190.129 112.858C189.062 113.683 188.112 114.642 187.302 115.715C186.079 117.284 184.969 118.938 183.981 120.665C182.771 122.777 181.696 124.964 180.764 127.213C179.811 129.438 178.983 131.713 178.282 134.03C177.687 135.97 177.207 137.941 176.846 139.939C176.56 141.312 176.482 142.72 176.614 144.116C176.767 145.29 177.127 145.537 177.237 145.583C177.286 145.595 177.338 145.595 177.39 145.583C177.806 145.527 178.196 145.351 178.512 145.076C179.589 144.24 180.545 143.259 181.353 142.161C182.56 140.572 183.645 138.903 184.614 137.162L187.917 130.644C188.855 128.414 189.67 126.128 190.361 123.806C190.948 121.881 191.43 119.922 191.797 117.939C192.074 116.582 192.149 115.191 192.02 113.811C191.867 112.644 191.504 112.39 191.397 112.345C191.351 112.335 191.299 112.335 191.25 112.345ZM100.061 112.137C99.6633 112.195 99.2966 112.369 99.0064 112.638C97.9788 113.47 97.0808 114.45 96.3419 115.547C95.2236 117.13 94.2336 118.798 93.375 120.537C92.3819 122.501 91.4072 124.695 90.4844 127.054C89.6075 129.269 88.8742 131.54 88.2967 133.853C87.8072 135.769 87.463 137.72 87.267 139.689C87.1131 141.075 87.1306 142.475 87.3189 143.856C87.5206 145.039 87.8964 145.299 88.0033 145.345C88.0522 145.354 88.1011 145.354 88.15 145.345C88.5442 145.29 88.9108 145.115 89.2011 144.846C90.2247 144.021 91.1261 143.059 91.8747 141.983C92.9992 140.425 93.9892 138.775 94.8417 137.055C95.85 135.06 96.8155 132.838 97.7322 130.537C98.607 128.32 99.3377 126.048 99.92 123.736C100.408 121.804 100.767 119.842 100.996 117.863C101.201 116.473 101.191 115.06 100.965 113.674C100.705 112.452 100.314 112.192 100.198 112.137C100.152 112.128 100.106 112.128 100.061 112.137ZM228.256 81.667C230.838 81.6678 233.314 82.693 235.141 84.5176C236.968 86.3421 237.996 88.817 238 91.3989C237.997 93.9814 236.969 96.457 235.142 98.2822C233.315 100.107 230.838 101.133 228.256 101.134C225.674 101.132 223.198 100.106 221.372 98.2811C219.546 96.456 218.518 93.9808 218.515 91.3989C218.515 86.0242 222.878 81.667 228.256 81.667Z" fill="#FF441F"/>
</g>
<defs>
<clipPath id="clip0_384_278">
<rect width="256" height="256" fill="white"/>
</clipPath>
</defs>
</svg>
