<svg width="256" height="256" viewBox="0 0 256 256" fill="none" xmlns="http://www.w3.org/2000/svg">
<g clip-path="url(#clip0_384_259)">
<path fill-rule="evenodd" clip-rule="evenodd" d="M256.013 203.509C256.013 232.385 232.389 256.009 203.513 256.009H52.5124C23.6368 256.009 0.0126953 232.385 0.0126953 203.509V52.5085C0.0126953 23.6329 23.6368 0.00878906 52.5124 0.00878906H203.513C232.389 0.00878906 256.013 23.6329 256.013 52.5085V203.509Z" fill="#FF441F"/>
<path d="M196.915 105.215C199.054 105.163 201.138 105.911 202.751 107.317C204.409 108.843 205.558 110.842 206.042 113.043C206.668 115.836 206.794 118.719 206.412 121.556C205.923 125.32 204.988 129.014 203.616 132.556C202.357 136.039 200.744 139.385 198.797 142.535L196.145 146.373C196.099 146.44 196.102 146.529 196.154 146.59C196.206 146.651 196.295 146.669 196.368 146.633L197.905 145.698C199.088 144.928 200.227 144.096 201.318 143.204C204.282 140.766 206.424 137.481 207.466 133.793L209.547 127.193L213.495 117.263C214.5 114.977 215.629 112.749 216.877 110.586C217.763 109.034 219.276 107.931 221.026 107.561C222.566 107.21 224.171 107.234 225.698 107.632C227.094 107.982 228.349 108.751 229.295 109.835C230.273 110.864 230.517 112.389 229.909 113.672L228.549 116.814L226.059 122.631L223.263 129.717C222.414 131.942 221.699 134.215 221.124 136.525C220.682 138.139 220.491 139.812 220.559 141.484C220.657 142.712 221.127 142.712 221.372 142.712C222.117 142.618 222.808 142.272 223.33 141.735C224.372 140.861 225.359 139.92 226.282 138.92C227.322 137.81 228.297 136.641 229.203 135.419L231.324 132.47C231.568 132.114 231.896 131.823 232.279 131.624C232.662 131.424 233.089 131.323 233.521 131.327C234.44 131.327 235.302 131.783 235.824 132.54L235.687 132.586C235.916 132.938 236.035 133.35 236.028 133.77C236.022 134.189 235.89 134.598 235.65 134.942L232.359 139.917C230.641 142.44 228.76 144.849 226.728 147.128C224.598 149.545 222.215 151.729 219.621 153.642C217.341 155.457 214.533 156.487 211.621 156.581C209.232 156.581 207.457 155.753 206.326 154.103C205.226 152.301 204.688 150.211 204.789 148.099V147.708C204.795 147.571 204.719 147.445 204.597 147.384C204.475 147.323 204.328 147.345 204.221 147.433L202.684 148.637C199.415 151.06 195.837 153.034 192.042 154.51C188.344 155.946 184.412 156.661 180.449 156.627C179.896 156.627 179.327 156.591 178.759 156.591C175.93 156.581 173.831 155.683 172.517 153.926C172.286 153.619 172.074 153.299 171.881 152.967C171.814 152.845 171.676 152.771 171.536 152.79C171.395 152.808 171.279 152.906 171.242 153.043L170.036 157.18L167.93 164.712L166.393 170.744L165.535 174.881V174.921C165.435 175.625 165.119 176.28 164.63 176.796C164.141 177.311 163.503 177.662 162.806 177.799C162.336 177.903 161.859 177.952 161.376 177.952C160.437 177.94 159.507 177.768 158.626 177.445C157.144 176.898 155.824 175.99 154.782 174.805C153.614 173.491 152.991 171.78 153.041 170.023C153.184 168.565 153.468 167.126 153.884 165.724L156.114 157.281L158.25 149.988C158.299 149.847 158.25 149.688 158.128 149.6C158.006 149.511 157.841 149.508 157.719 149.6C154.837 151.561 151.745 153.196 148.497 154.47C144.803 155.906 140.867 156.624 136.904 156.591C136.351 156.591 135.783 156.551 135.215 156.551C132.385 156.545 130.289 155.646 128.975 153.886C128.742 153.58 128.528 153.259 128.333 152.927C128.269 152.805 128.132 152.735 127.991 152.75C127.851 152.765 127.735 152.869 127.698 153.003L126.491 157.144L124.386 164.673L122.812 170.713L121.95 174.851V174.89C121.851 175.594 121.535 176.249 121.046 176.765C120.557 177.281 119.919 177.632 119.222 177.769C118.755 177.872 118.279 177.923 117.801 177.921C116.862 177.909 115.932 177.738 115.051 177.414C113.569 176.867 112.249 175.96 111.207 174.774C110.039 173.46 109.416 171.75 109.465 169.992C109.609 168.535 109.893 167.096 110.309 165.693L112.539 157.251L114.367 150.962C114.412 150.813 114.354 150.651 114.22 150.565C114.085 150.48 113.914 150.504 113.798 150.611C112.659 151.662 111.464 152.655 110.217 153.581C107.974 155.405 105.194 156.447 102.303 156.551C99.92 156.551 98.1386 155.723 97.008 154.073C96.5344 153.364 96.1739 152.588 95.9386 151.769C95.8877 151.593 95.7909 151.433 95.6582 151.306C95.5254 151.179 95.3614 151.09 95.1829 151.047C95.0043 151.004 94.8176 151.009 94.6417 151.062C94.4658 151.115 94.3071 151.213 94.1817 151.347C93.4025 152.163 92.55 152.906 91.6303 153.556C90.4025 154.427 89.0699 155.139 87.6642 155.677C86.1371 156.252 84.5171 156.541 82.8853 156.529C80.7189 156.569 78.6137 155.83 76.9453 154.449C75.2189 152.97 73.9631 151.02 73.3337 148.836C72.5728 146.067 72.3131 143.183 72.5667 140.323C72.8601 136.592 73.6087 132.907 74.7973 129.353C77.4862 121.088 80.9023 115.054 85.2075 111.142C89.5128 107.231 93.8822 105.236 98.1936 105.236C99.8008 105.175 101.396 105.557 102.801 106.336C103.959 107.009 104.908 107.988 105.545 109.166C105.964 109.954 106.269 110.797 106.453 111.671C106.471 111.738 106.529 111.79 106.599 111.799C106.634 111.804 106.669 111.798 106.7 111.784C106.731 111.769 106.758 111.746 106.777 111.717L107.397 110.647C108.271 109.111 109.756 108.014 111.485 107.632C113.025 107.277 114.626 107.299 116.157 107.693C117.578 108.035 118.858 108.808 119.824 109.905C120.802 110.935 121.046 112.459 120.435 113.743L119.078 116.881L116.573 122.708L113.774 129.793C112.925 132.017 112.211 134.291 111.638 136.601C111.195 138.215 111.002 139.889 111.07 141.56C111.17 142.789 111.638 142.789 111.885 142.789C112.631 142.694 113.322 142.349 113.844 141.811L115.512 140.277C117.667 138.224 119.277 135.666 120.206 132.84L124.331 121.443L128.743 110.956C129.388 109.468 130.64 108.328 132.186 107.824C133.604 107.351 135.12 107.247 136.586 107.525C137.982 107.773 139.291 108.372 140.391 109.266C140.833 109.62 141.215 110.043 141.521 110.519C141.598 110.602 141.683 110.617 141.79 110.519C143.07 109.327 144.455 108.258 145.924 107.317C148.124 105.911 150.685 105.184 153.294 105.215C155.434 105.164 157.515 105.913 159.13 107.317C160.783 108.845 161.926 110.846 162.406 113.043C163.032 115.836 163.157 118.72 162.773 121.556C162.287 125.32 161.349 129.014 159.977 132.556C158.72 136.039 157.106 139.384 155.161 142.535L152.518 146.373C152.469 146.44 152.472 146.529 152.527 146.59C152.582 146.651 152.668 146.669 152.741 146.633L154.275 145.698L156.683 143.962C159.659 141.678 161.883 138.556 163.069 134.997L163.527 133.607L167.924 121.403L172.333 110.916C172.978 109.428 174.231 108.289 175.777 107.784C177.195 107.311 178.71 107.207 180.177 107.485C181.572 107.734 182.881 108.333 183.981 109.227C184.439 109.591 184.835 110.027 185.151 110.519C185.228 110.602 185.313 110.617 185.42 110.519C186.699 109.329 188.082 108.257 189.554 107.317C191.751 105.914 194.309 105.184 196.915 105.215ZM53.8118 85.5614C57.102 85.5576 60.3815 85.938 63.5834 86.695C66.6303 87.3878 69.5514 88.5484 72.2429 90.1356C74.7116 91.5864 76.8436 93.5455 78.4975 95.8831C80.1323 98.2542 80.9817 101.077 80.9328 103.95C80.9603 107.118 80.23 110.244 78.797 113.07C77.3452 115.887 75.3996 118.419 73.0526 120.547C70.5221 122.833 67.6933 124.766 64.6437 126.292C61.9615 127.644 59.1738 128.775 56.3082 129.674C56.2287 129.687 56.1585 129.732 56.1126 129.797C56.0668 129.861 56.0485 129.94 56.0607 130.02L56.3662 134.273L57.014 138.878L57.9521 143.039L58.8748 146.009L59.5348 147.76C59.9805 148.84 60.4833 149.896 61.0412 150.923C61.5484 151.871 62.1095 152.789 62.7218 153.673C63.2901 154.476 63.9073 155.246 64.5765 155.973C65.1956 156.648 65.8603 157.278 66.5656 157.862C67.2256 158.406 67.9284 158.901 68.6618 159.344C69.3641 159.758 70.0964 160.12 70.8526 160.425C71.6012 160.722 72.3712 160.957 73.1595 161.128C73.9404 161.305 74.7344 161.419 75.5337 161.467C76.3587 161.528 77.1837 161.528 78.0087 161.467C78.8764 161.394 79.7381 161.253 80.5875 161.055C81.4981 160.841 82.3903 160.566 83.2611 160.233C84.2058 159.876 85.1273 159.461 86.0203 158.989L87.0745 158.415C88.2142 157.752 89.6717 158.066 90.4356 159.136C91.1994 160.205 91.0344 161.684 90.0383 162.552L88.5808 163.786L85.0822 166.436L81.7884 168.513L80.0803 169.436C78.9803 169.995 77.8498 170.496 76.6917 170.933C75.5944 171.342 74.4729 171.683 73.3337 171.954C72.2578 172.216 71.1656 172.406 70.0642 172.522L67.7573 172.638H66.8498C65.817 172.592 64.7904 172.47 63.7759 172.272L62.2848 171.917L60.8396 171.447C59.8948 171.104 58.9784 170.689 58.0987 170.203C57.2145 169.719 56.3668 169.17 55.5626 168.562C54.8961 168.06 54.2576 167.521 53.6499 166.949C52.8921 166.228 52.1832 165.458 51.5201 164.645C50.8357 163.82 50.2002 162.952 49.6165 162.051L47.9329 159.157L46.4724 155.98L45.2441 152.533L44.2357 148.836L43.4688 144.888L42.9921 141.227C42.986 141.053 42.8516 140.91 42.6774 140.891C42.5032 140.873 42.3413 140.995 42.3077 141.166H42.2924L41.0641 145.878L39.7502 151.066L38.9802 154.69C38.7296 156.212 37.5135 157.388 35.9858 157.593C34.4519 157.862 32.8783 157.73 31.4116 157.208C29.835 156.682 28.4019 155.793 27.2316 154.614C25.9452 153.346 25.2364 151.601 25.2791 149.792C25.4227 147.259 25.82 144.75 26.4647 142.294C27.2316 138.887 28.3683 134.832 29.8136 130.264L34.9774 115.414L40.6913 101.71C41.3757 100.225 42.7874 99.2044 44.413 99.015C47.5999 98.5689 50.8388 98.6789 53.986 99.3297C54.3674 99.4211 54.7242 99.5948 55.0314 99.8386C55.3386 100.082 55.5888 100.391 55.7643 100.741C55.9382 101.093 56.0322 101.478 56.0396 101.87C56.047 102.262 55.9676 102.651 55.8071 103.009L51.0221 114.568L47.6916 123.603C47.6457 123.734 47.6824 123.884 47.7863 123.979C47.8902 124.074 48.0429 124.095 48.1713 124.034C49.6023 123.361 50.9856 122.591 52.3115 121.73C54.5268 120.309 56.5465 118.61 58.3218 116.67C60.0634 114.76 61.4996 112.594 62.5782 110.247C63.6598 107.882 64.2159 105.309 64.2068 102.709C64.2068 99.2625 63.2534 96.7203 61.3712 95.1467C59.489 93.5731 56.7757 92.7297 53.3565 92.7297C49.9199 92.6842 46.5339 93.561 43.5513 95.2689C40.6619 96.9273 38.0766 99.0663 35.9063 101.594C33.8652 103.959 32.1969 106.62 30.9563 109.486C29.9175 111.717 29.3247 114.134 29.2147 116.594C29.2442 117.246 29.0502 117.89 28.6647 118.418C28.2791 118.945 27.7251 119.326 27.0941 119.496C25.8299 119.876 24.4741 119.813 23.2503 119.319C21.8083 118.727 20.5628 117.74 19.6569 116.471C18.4958 114.818 17.9153 112.826 18.01 110.806C18.01 108.75 18.78 106.324 20.3933 103.4C22.1778 100.271 24.4878 97.475 27.2316 95.1406C30.5812 92.2991 34.3679 90.0178 38.4455 88.3848C43.3294 86.4371 48.5515 85.4785 53.8087 85.5645L53.8118 85.5614ZM147.703 114.345L147.629 114.354C147.213 114.411 146.823 114.59 146.508 114.867C145.435 115.695 144.476 116.664 143.657 117.745C142.436 119.315 141.327 120.969 140.339 122.695C139.126 124.787 138.048 126.954 137.112 129.182C136.168 131.418 135.349 133.704 134.658 136.03C134.066 137.97 133.586 139.944 133.222 141.939C132.942 143.313 132.864 144.72 132.993 146.116C133.146 147.29 133.507 147.537 133.613 147.583C133.665 147.595 133.717 147.595 133.766 147.583C134.183 147.528 134.574 147.351 134.891 147.076C135.969 146.241 136.926 145.261 137.732 144.161C138.938 142.573 140.031 140.903 141.002 139.162L144.296 132.644C145.242 130.416 146.068 128.138 146.771 125.821C147.358 123.894 147.837 121.935 148.207 119.955L148.176 119.942C148.457 118.586 148.534 117.199 148.405 115.817C148.246 114.653 147.886 114.4 147.776 114.351C147.727 114.342 147.678 114.342 147.629 114.351L147.703 114.345ZM191.25 114.345C190.835 114.405 190.446 114.583 190.129 114.858C189.062 115.683 188.112 116.642 187.302 117.715C186.079 119.284 184.969 120.938 183.981 122.665C182.771 124.777 181.696 126.964 180.764 129.213C179.811 131.438 178.983 133.713 178.282 136.03C177.687 137.97 177.207 139.941 176.846 141.939C176.56 143.312 176.482 144.72 176.614 146.116C176.767 147.29 177.127 147.537 177.237 147.583C177.286 147.595 177.338 147.595 177.39 147.583C177.806 147.527 178.196 147.351 178.512 147.076C179.589 146.24 180.545 145.259 181.353 144.161C182.56 142.572 183.645 140.903 184.614 139.162L187.917 132.644C188.855 130.414 189.67 128.128 190.361 125.806C190.948 123.881 191.43 121.922 191.797 119.939C192.074 118.582 192.149 117.191 192.02 115.811C191.867 114.644 191.504 114.39 191.397 114.345C191.351 114.335 191.299 114.335 191.25 114.345ZM100.061 114.137C99.6633 114.195 99.2966 114.369 99.0064 114.638C97.9788 115.47 97.0808 116.45 96.3419 117.547C95.2236 119.13 94.2336 120.798 93.375 122.537C92.3819 124.501 91.4072 126.695 90.4844 129.054C89.6075 131.269 88.8742 133.54 88.2967 135.853C87.8072 137.769 87.463 139.72 87.267 141.689C87.1131 143.075 87.1306 144.475 87.3189 145.856C87.5206 147.039 87.8964 147.299 88.0033 147.345C88.0522 147.354 88.1011 147.354 88.15 147.345C88.5442 147.29 88.9108 147.115 89.2011 146.846C90.2247 146.021 91.1261 145.059 91.8747 143.983C92.9992 142.425 93.9892 140.775 94.8417 139.055C95.85 137.06 96.8155 134.838 97.7322 132.537C98.607 130.32 99.3377 128.048 99.92 125.736C100.408 123.804 100.767 121.842 100.996 119.863C101.201 118.473 101.191 117.06 100.965 115.674C100.705 114.452 100.314 114.192 100.198 114.137C100.152 114.128 100.106 114.128 100.061 114.137ZM228.256 83.667C230.838 83.6678 233.314 84.693 235.141 86.5176C236.968 88.3421 237.996 90.817 238 93.3989C237.997 95.9814 236.969 98.457 235.142 100.282C233.315 102.107 230.838 103.133 228.256 103.134C225.674 103.132 223.198 102.106 221.372 100.281C219.546 98.456 218.518 95.9808 218.515 93.3989C218.515 88.0242 222.878 83.667 228.256 83.667Z" fill="white"/>
</g>
<defs>
<clipPath id="clip0_384_259">
<rect width="256" height="256" fill="white"/>
</clipPath>
</defs>
</svg>
