<svg width="256" height="256" viewBox="0 0 256 256" fill="none" xmlns="http://www.w3.org/2000/svg">
<g clip-path="url(#clip0_248_4804)">
<path d="M196 0H60C26.8629 0 0 26.8629 0 60V196C0 229.137 26.8629 256 60 256H196C229.137 256 256 229.137 256 196V60C256 26.8629 229.137 0 196 0Z" fill="#C51850"/>
<path d="M162.247 172.505C155.122 180.736 151.147 195.749 156.353 200.599C161.304 204.305 174.685 203.855 184.548 190.343C191.742 181.324 189.298 166.223 185.229 162.217C179.148 157.598 170.423 163.592 162.247 172.611V172.505ZM95.1265 174.98C87.545 166.323 77.7072 161.173 71.357 164.986C67.0881 168.167 66.3131 179.042 72.3633 189.718C81.3448 202.418 94.0139 203.718 99.2204 200.624C104.721 196.555 101.727 182.78 95.1202 174.973L95.1265 174.98ZM129.334 201.18C120.127 200.987 105.989 204.862 106.189 209.806C106.021 213.162 117.29 222.9 128.746 222.406C139.778 222.662 151.203 212.906 151.078 208.674C151.047 204.305 138.603 200.955 129.359 201.318L129.334 201.18ZM128.721 85.0018C118.077 84.7455 107.852 92.777 107.852 97.4334C107.821 103.102 116.252 108.89 128.784 109.059C141.64 109.115 149.741 104.402 149.878 98.5397C150.009 91.9332 138.253 84.8955 128.878 84.9955L128.721 85.0018ZM103.102 89.4269C85.3262 86.5581 70.5195 96.9209 71.1007 116.021C71.682 123.378 109.677 90.6957 103.133 89.5644L103.102 89.4269ZM184.354 116.509C184.936 97.5334 170.129 87.1831 152.322 90.0394C145.778 91.1832 183.767 123.897 184.354 116.509ZM187.379 123.378C177.06 120.647 183.898 165.473 192.298 161.854C201.542 154.598 204.505 133.11 187.379 123.509V123.378ZM63.2255 162.348C71.6195 166.092 78.4572 121.265 68.1319 124.003C51.0501 133.635 53.9752 155.085 63.2255 162.479V162.348ZM141.709 112.771C132.134 119.022 130.409 133.022 137.865 143.991C145.284 154.991 159.06 159.092 168.591 152.973C178.167 146.891 179.892 132.891 172.466 121.753C165.01 110.653 151.241 106.652 141.709 112.903V112.771ZM115.896 113.909C106.352 107.784 92.5514 111.79 85.1637 122.759C77.7134 133.891 79.4385 147.86 89.0075 154.11C98.5516 160.36 112.315 156.354 119.777 145.254C127.134 134.253 125.377 120.253 115.902 114.034L115.896 113.909ZM152.285 173.58C152.216 161.985 141.865 152.61 129.14 152.748C116.408 152.873 106.121 162.217 106.189 173.842V174.067C106.258 185.692 116.64 195.068 129.365 194.936C142.09 194.936 152.347 185.467 152.216 173.98V173.711L152.285 173.58ZM179.048 47.4694C159.804 57.3384 148.616 65.2137 142.453 71.9451C145.609 84.4455 161.985 84.9393 168.01 84.5455C166.766 84.0642 165.729 83.3142 165.366 82.3392C166.866 81.3204 172.21 82.2079 175.948 80.1891C174.516 79.9579 173.829 79.6954 173.179 78.5578C176.698 77.4578 180.473 76.5765 182.679 74.689C181.51 74.689 180.373 74.9452 178.81 73.9389C181.935 72.3389 185.286 70.9388 187.917 68.4638C186.292 68.4638 184.536 68.4638 184.048 67.845C186.751 66.2433 189.208 64.258 191.342 61.9511C189.092 62.3448 188.117 62.1198 187.561 61.7261C189.742 59.576 192.511 57.7197 193.811 54.9508C192.117 55.6009 190.561 55.7009 189.454 54.9508C190.236 53.357 193.398 52.3508 195.211 48.4756C193.43 48.7319 191.536 48.8694 191.142 48.4756C191.992 45.2193 193.392 43.3692 194.792 41.3504C190.986 41.3504 185.186 41.3504 185.473 41.1192L187.823 38.7441C184.104 37.7378 180.298 38.8753 177.529 39.7504C176.298 38.8753 177.529 37.6003 179.06 36.369C175.804 36.8878 172.966 37.5128 170.466 38.5191C169.098 37.244 171.31 36.144 172.448 34.869C167.466 35.8752 165.447 37.119 163.329 38.3503C161.829 36.9815 163.204 35.7502 164.21 34.644C160.46 36.0127 158.578 37.7378 156.591 39.3629C155.841 38.4878 154.835 37.8691 156.066 35.619C153.474 37.1232 151.434 38.8712 149.947 40.8629C148.347 39.7566 148.972 38.3566 148.972 37.119C146.203 39.3629 144.472 41.6129 142.365 43.888C141.84 43.6317 141.484 42.6192 141.222 40.9942C134.74 47.2444 125.465 62.8698 138.847 68.9513C150.072 59.8322 163.679 53.1008 178.692 48.0819L179.048 47.4694ZM76.8947 47.4694C91.8701 52.4883 105.377 59.2197 116.715 68.4638C129.99 62.2136 120.815 46.5881 114.333 40.5066C114.008 42.1004 113.652 43.238 113.233 43.5005C111.114 41.2567 109.389 38.9753 106.658 36.7315C106.658 38.0003 107.308 39.5004 105.677 40.4754C104.056 38.3286 102.006 36.5427 99.6579 35.2315C100.889 37.3815 99.8516 38.0003 99.1641 38.9753C97.1828 37.1253 95.289 35.369 91.6826 34.0002C92.6889 35.2315 94.1827 36.5065 92.6889 37.8753C90.6951 36.6315 88.5575 35.369 83.7074 34.3564C84.8074 35.5877 87.0575 36.8565 85.6887 38.1316C82.9181 37.0405 80.0196 36.3075 77.0634 35.9502C78.5572 37.219 79.8948 38.3566 78.6572 39.3316C75.7884 38.3253 71.9508 37.2128 68.2069 38.2316L70.5507 40.5754C70.8195 40.9004 65.0818 40.8317 61.2067 40.8692C62.6067 42.763 64.038 44.613 64.8568 47.9944C64.463 48.3506 62.6067 48.1256 60.8254 47.9944C62.7067 51.7445 65.8006 52.7508 66.5506 54.3758C65.4443 55.1571 63.9443 54.9946 62.1942 54.3758C63.563 56.9822 66.3256 58.8697 68.4444 61.1198C67.8194 61.476 66.9443 61.7386 64.5693 61.4448C66.5506 63.5949 68.9257 65.5449 71.8258 67.3012C71.3007 67.8825 69.5444 67.8512 67.8194 67.92C70.4257 70.4638 73.8133 71.7951 76.9384 73.4514C75.3134 74.5952 74.1696 74.3327 73.0633 74.3327C75.1821 76.1828 79.0572 77.064 82.5698 78.1766C81.7886 79.3078 81.201 79.5766 79.6697 79.8016C83.4136 81.9204 88.6513 80.9454 90.1888 82.0454C89.7951 83.0517 88.82 83.8017 87.5575 84.3268C93.5389 84.683 110.052 84.1955 113.177 71.6951C107.021 64.9637 95.7952 57.0759 76.5509 47.3444L76.8947 47.4694ZM91.3514 28.85C93.3014 28.8188 94.9577 29.9813 96.7828 30.5438C101.177 29.1125 102.183 31.0626 104.333 31.8751C109.152 30.8688 110.614 33.0439 112.927 35.3565L115.602 35.2565C122.859 39.4879 126.471 48.0819 127.746 52.482C129.015 48.0819 132.628 39.4879 139.89 35.2565L142.559 35.3252C144.866 32.9814 146.334 30.8313 151.153 31.8439C153.335 30.9626 154.31 29.1125 158.747 30.4751C161.516 29.5938 163.922 27.35 167.566 30.0813C170.623 28.85 173.623 28.4563 176.26 30.8313C180.392 30.3376 181.692 31.3501 182.704 32.5876C183.623 32.5876 189.448 31.7064 192.148 35.5815C198.923 34.8315 201.042 39.4566 198.598 43.813C199.999 45.9318 201.43 47.9569 198.205 51.957C199.436 54.2071 198.686 56.5509 195.923 59.5385C196.705 62.6636 195.305 64.8136 192.83 66.5387C193.323 70.8076 188.829 73.3139 187.586 74.1577C187.067 76.664 186.061 79.0391 180.954 80.2766C180.204 84.0267 177.079 84.6455 174.079 85.3955C183.979 91.0207 192.311 98.3772 192.311 116.478L193.836 118.984C205.067 125.728 215.193 147.335 199.436 164.954C198.461 170.423 196.705 174.298 195.18 178.655C192.93 196.262 177.829 204.506 173.854 205.512C168.098 209.868 161.872 214.006 153.51 216.868C145.628 224.875 137.034 228 128.534 228H127.79C119.165 228 110.564 224.875 102.689 216.868C94.289 214 88.0388 209.899 82.2823 205.512C78.276 204.537 63.263 196.293 60.9254 178.686C59.3691 174.33 57.6441 170.317 56.6315 164.817C40.8373 147.21 50.9313 125.622 62.163 118.847L63.5942 116.372C63.5942 98.2772 71.9508 90.8895 81.8198 85.2893C78.826 84.5393 75.8259 83.9205 74.9883 80.1454C69.8444 78.9016 68.8319 76.5265 68.3444 74.0202C67.1006 73.1764 62.613 70.6701 63.1005 66.3137C60.5942 64.5574 59.2254 62.4386 59.9754 59.1822C57.3691 56.3134 56.6253 53.8133 57.7253 51.5632C54.4752 47.5631 55.969 45.4443 57.3441 43.4567C54.9627 39.0628 57.1128 34.3502 63.8505 35.1002C66.4506 31.2251 72.3445 32.1001 73.1945 32.1001C74.2008 30.8313 75.5696 29.7251 79.701 30.2188C82.3073 27.8375 85.3324 28.225 88.4263 29.3688C89.6951 28.3625 90.8013 28 91.8076 28L91.3514 28.85Z" fill="white"/>
</g>
<defs>
<clipPath id="clip0_248_4804">
<rect width="256" height="256" fill="white"/>
</clipPath>
</defs>
</svg>
