<svg width="256" height="256" viewBox="0 0 256 256" fill="none" xmlns="http://www.w3.org/2000/svg">
<g clip-path="url(#clip0_248_4807)">
<rect width="256" height="256" rx="60" fill="#242938"/>
<path d="M90.2457 28.0032C89.1909 28.0347 88.0549 28.4083 86.7655 29.3829C83.6061 28.2164 80.5442 27.8113 77.8061 30.186C73.5767 29.6611 72.2021 30.7454 71.1615 32.0134C70.2335 31.9941 64.2153 31.0976 61.4559 35.0428C54.5208 34.257 52.3269 38.9525 54.8102 43.3281C53.396 45.4317 51.9259 47.5047 55.2396 51.5119C54.0681 53.7423 54.7939 56.1616 57.5554 59.0926C56.8264 62.2266 58.2579 64.4398 60.8264 66.1646C60.3452 70.455 64.933 72.9525 66.3036 73.8398C66.8295 76.3393 67.9259 78.7007 73.1686 80.0032C74.0285 83.7332 77.1797 84.3758 80.2295 85.1565C70.1493 90.7728 61.5066 98.1565 61.5665 116.279L60.0884 118.804C48.529 125.539 38.132 147.183 54.3919 164.777C55.4559 170.284 57.2346 174.239 58.8203 178.617C61.1939 196.259 76.6752 204.519 80.7574 205.496C86.7422 209.862 93.1148 214.004 101.738 216.908C109.867 224.942 118.675 228.003 127.531 228H127.921C136.779 228.004 145.587 224.942 153.714 216.908C162.338 214.006 168.71 209.862 174.694 205.496C178.778 204.519 194.26 196.259 196.631 178.615C198.216 174.239 199.997 170.284 201.061 164.777C217.32 147.183 206.923 125.536 195.362 118.8L193.886 116.278C193.945 98.1565 185.302 90.7687 175.221 85.1555C178.271 84.3738 181.422 83.7281 182.285 80.0022C187.525 78.6976 188.62 76.3383 189.147 73.8377C190.517 72.9474 195.107 70.454 194.625 66.1596C197.193 64.4377 198.624 62.2235 197.896 59.0875C200.658 56.1596 201.383 53.7393 200.21 51.5078C203.525 47.5048 202.054 45.4286 200.64 43.3271C203.122 38.9484 200.932 34.255 193.994 35.0408C191.235 31.0976 185.217 31.9941 184.29 32.0113C183.248 30.7443 181.872 29.6601 177.644 30.185C174.907 27.8113 171.843 28.2164 168.684 29.3829C164.935 26.5474 162.451 28.8205 159.617 29.6804C155.076 28.257 154.038 30.2053 151.808 30.9992C146.856 29.9961 145.35 32.1789 142.976 34.4834L140.214 34.4317C132.745 38.6469 129.036 47.2367 127.722 51.652C126.404 47.2347 122.704 38.6459 115.236 34.4317L112.474 34.4814C110.096 32.1768 108.592 29.9961 103.641 30.9992C101.41 30.2053 100.373 28.258 95.8295 29.6804C93.9676 29.1159 92.2569 27.9423 90.2427 28.0022L90.2457 28.0032Z" fill="#050606"/>
<path d="M75.5247 46.5596C95.341 56.3454 106.859 64.2662 113.171 71.0114C109.94 83.4226 93.079 83.988 86.9125 83.6398C88.1765 83.0774 89.2293 82.4023 89.6029 81.3677C88.0557 80.3149 82.5714 81.2571 78.7409 79.1941C80.212 78.9018 80.9003 78.6175 81.5887 77.5789C77.9694 76.4723 74.0729 75.519 71.7805 73.6865C73.0181 73.7038 74.1724 73.9535 75.7887 72.8784C72.547 71.2053 69.0892 69.8804 66.4039 67.3221C68.075 67.2835 69.8841 67.3048 70.41 66.716C67.4435 64.9566 64.9409 62.9972 62.8709 60.8571C65.2161 61.1271 66.2049 60.8946 66.7734 60.5007C64.5298 58.3018 61.6922 56.4439 60.3389 53.7332C62.08 54.3078 63.6729 54.5281 64.8212 53.6814C64.0577 52.0347 60.7958 51.0632 58.9146 47.2165C60.7481 47.385 62.6922 47.5992 63.079 47.2165C62.2303 43.8946 60.7714 42.0266 59.3389 40.0946C63.2607 40.0378 69.2039 40.1068 68.9349 39.788L66.5085 37.4165C70.341 36.4266 74.2618 37.5759 77.1085 38.4256C78.3856 37.4601 77.0861 36.2398 75.5277 34.9891C78.7836 35.4063 81.7247 36.1251 84.3826 37.1129C85.8049 35.8835 83.4618 34.655 82.3278 33.4236C87.3582 34.3393 89.4902 35.6236 91.6069 36.9119C93.145 35.4987 91.6953 34.3007 90.6597 33.0723C94.4516 34.4175 96.4049 36.1566 98.4638 37.8713C99.1613 36.9677 100.233 36.3068 98.9379 34.1322C101.629 35.6195 103.658 37.3728 105.158 39.3353C106.824 38.318 106.151 36.9271 106.161 35.6469C108.96 37.8287 110.735 40.1484 112.911 42.4175C113.346 42.1129 113.73 41.0754 114.07 39.4368C120.746 45.6429 130.181 61.2774 116.494 67.4754C104.846 58.2723 90.9349 51.5799 75.5196 46.5596H75.5227H75.5247ZM180.481 46.5596C160.667 56.3474 149.146 64.2642 142.835 71.0114C146.069 83.4226 162.93 83.988 169.093 83.6398C167.83 83.0774 166.778 82.4023 166.406 81.3677C167.952 80.3149 173.438 81.2571 177.267 79.1941C175.796 78.9018 175.106 78.6175 174.42 77.5789C178.037 76.4723 181.935 75.519 184.227 73.6865C182.989 73.7038 181.833 73.9535 180.218 72.8784C183.46 71.2053 186.917 69.8804 189.606 67.3221C187.929 67.2835 186.123 67.3048 185.598 66.716C188.565 64.9566 191.068 62.9972 193.139 60.8571C190.793 61.1271 189.804 60.8946 189.235 60.5007C191.478 58.3018 194.315 56.4439 195.669 53.7332C193.928 54.3078 192.336 54.5281 191.186 53.6814C191.949 52.0347 195.212 51.0632 197.093 47.2165C195.258 47.385 193.315 47.5992 192.926 47.2165C193.779 43.8946 195.236 42.0256 196.67 40.0926C192.748 40.0368 186.804 40.1048 187.073 39.788L189.501 37.4165C185.667 36.4256 181.746 37.5738 178.901 38.4236C177.622 37.4581 178.926 36.2378 180.481 34.988C177.228 35.4053 174.284 36.1241 171.626 37.1119C170.204 35.8814 172.548 34.654 173.681 33.4226C168.65 34.3383 166.52 35.6226 164.401 36.9078C162.865 35.4977 164.314 34.2987 165.349 33.0713C161.556 34.4165 159.603 36.1556 157.546 37.8672C156.849 36.9657 155.775 36.3048 157.072 34.1281C154.379 35.6175 152.35 37.3688 150.849 39.3332C149.183 38.316 149.858 36.9251 149.846 35.6459C147.05 37.8266 145.273 40.1484 143.098 42.4165C142.662 42.1119 142.278 41.0743 141.939 39.4347C135.262 45.6408 125.827 61.2754 139.513 67.4743C151.157 58.2662 165.065 51.5769 180.484 46.5586L180.481 46.5596Z" fill="#63C54D"/>
<path d="M151.968 172.948C152.037 184.53 141.466 193.969 128.357 194.031C115.248 194.092 104.565 184.753 104.495 173.169V172.948C104.425 161.365 114.997 151.926 128.105 151.865C141.216 151.804 151.898 161.143 151.968 172.726V172.946V172.948ZM114.959 113.038C124.793 119.212 126.565 133.207 118.919 144.296C111.269 155.386 97.0971 159.371 87.2605 153.197C77.427 147.023 75.6534 133.026 83.3022 121.939C90.9499 110.848 105.123 106.864 114.959 113.038ZM141.504 111.92C131.669 118.095 129.896 132.088 137.545 143.18C145.194 154.267 159.366 158.255 169.2 152.078C179.037 145.904 180.808 131.91 173.16 120.82C165.51 109.733 151.34 105.746 141.504 111.922V111.92ZM66.4109 123.197C77.0281 120.468 69.9946 165.288 61.357 161.612C51.8514 154.287 48.7895 132.837 66.4088 123.197H66.4109ZM189.125 122.639C178.504 119.913 185.538 164.733 194.18 161.056C203.683 153.73 206.743 132.279 189.125 122.639ZM153.509 89.1991C171.835 86.2336 187.082 96.6641 186.467 115.704C185.864 123.003 146.757 90.2844 153.509 89.1971V89.1991ZM102.878 88.6397C84.55 85.6742 69.3022 96.1077 69.9184 115.146C70.5214 122.445 109.629 89.725 102.878 88.6397ZM128.123 84.1991C117.188 83.927 106.691 91.9788 106.664 96.6448C106.635 102.32 115.312 108.128 128.2 108.276C141.358 108.365 149.755 103.626 149.798 97.7717C149.846 91.1382 137.828 84.0976 128.123 84.1991ZM128.968 200.545C138.504 200.145 151.301 203.487 151.325 207.92C151.484 212.224 139.721 221.95 128.336 221.763C116.546 222.252 104.985 212.51 105.137 209.134C104.959 204.183 119.494 200.319 128.968 200.545ZM93.6788 174.272C100.467 182.11 103.56 195.878 97.8972 199.936C92.5378 203.035 79.5195 201.759 70.2657 189.023C64.0281 178.339 64.8331 167.464 69.2138 164.268C75.7651 160.445 85.8879 165.61 93.6768 174.272H93.6788ZM162.033 171.787C154.686 180.032 150.596 195.067 155.954 199.91C161.077 203.673 174.831 203.146 184.993 189.639C192.37 180.566 189.897 165.418 185.684 161.395C179.424 156.754 170.438 162.692 162.032 171.784L162.033 171.787Z" fill="#C51850"/>
</g>
<defs>
<clipPath id="clip0_248_4807">
<rect width="256" height="256" fill="white"/>
</clipPath>
</defs>
</svg>
