<svg width="256" height="848" viewBox="0 0 256 848" fill="none" xmlns="http://www.w3.org/2000/svg">
<g clip-path="url(#clip0_210_1976)">
<path d="M196 0H60C26.8629 0 0 26.8629 0 60V196C0 229.137 26.8629 256 60 256H196C229.137 256 256 229.137 256 196V60C256 26.8629 229.137 0 196 0Z" fill="#0B1120"/>
<path d="M146.157 128.295C146.157 138.322 138.029 146.451 128.001 146.451C117.974 146.451 109.845 138.322 109.845 128.295C109.845 118.268 117.974 110.139 128.001 110.139C138.029 110.139 146.157 118.268 146.157 128.295Z" fill="#00D8FF" stroke="#00D8FF"/>
<path fill-rule="evenodd" clip-rule="evenodd" d="M128.002 90.3633C153.05 90.3633 176.319 93.9575 193.864 99.9976C215.003 107.275 228 118.306 228 128.295C228 138.704 214.226 150.423 191.525 157.944C174.363 163.63 151.779 166.598 128.002 166.598C103.624 166.598 80.5389 163.812 63.1834 157.881C41.2255 150.376 28 138.506 28 128.295C28 118.387 40.4096 107.441 61.2515 100.175C78.8617 94.0353 102.705 90.3633 127.998 90.3633H128.002Z" stroke="#00D8FF" stroke-width="8.911"/>
<path fill-rule="evenodd" clip-rule="evenodd" d="M94.9811 109.438C107.495 87.7402 122.232 69.3783 136.23 57.1971C153.094 42.5206 169.144 36.7728 177.796 41.7623C186.813 46.9623 190.084 64.7496 185.259 88.1712C181.614 105.879 172.9 126.925 161.021 147.523C148.842 168.641 134.897 187.247 121.09 199.315C103.619 214.587 86.7284 220.114 77.8833 215.013C69.3003 210.067 66.0181 193.846 70.1356 172.161C73.6145 153.838 82.3451 131.349 94.977 109.438H94.9811Z" stroke="#00D8FF" stroke-width="8.911"/>
<path fill-rule="evenodd" clip-rule="evenodd" d="M95.0123 147.578C82.4633 125.904 73.9194 103.962 70.3531 85.7516C66.0602 63.8108 69.0954 47.0354 77.7401 42.0314C86.7485 36.8162 103.792 42.8659 121.674 58.7436C135.194 70.7478 149.077 88.8051 160.99 109.383C173.204 130.481 182.358 151.856 185.919 169.844C190.425 192.608 186.778 210.001 177.941 215.116C169.367 220.08 153.676 214.825 136.945 200.427C122.809 188.263 107.685 169.468 95.0123 147.578Z" stroke="#00D8FF" stroke-width="8.911"/>
</g>
<g clip-path="url(#clip1_210_1976)">
<rect y="296" width="256" height="256" rx="60" fill="#242938"/>
<path d="M128.001 442.951C138.305 442.951 146.657 434.598 146.657 424.295C146.657 413.992 138.305 405.639 128.001 405.639C117.698 405.639 109.345 413.992 109.345 424.295C109.345 434.598 117.698 442.951 128.001 442.951Z" fill="#00D8FF"/>
<path fill-rule="evenodd" clip-rule="evenodd" d="M128.002 386.363C153.05 386.363 176.319 389.957 193.864 395.998C215.003 403.275 228 414.306 228 424.295C228 434.704 214.226 446.423 191.525 453.944C174.363 459.63 151.779 462.598 128.002 462.598C103.624 462.598 80.5389 459.812 63.1834 453.881C41.2255 446.376 28 434.506 28 424.295C28 414.387 40.4096 403.441 61.2515 396.175C78.8617 390.035 102.705 386.363 127.998 386.363H128.002Z" stroke="#00D8FF" stroke-width="8.911"/>
<path fill-rule="evenodd" clip-rule="evenodd" d="M94.9811 405.438C107.495 383.74 122.232 365.378 136.23 353.197C153.094 338.521 169.144 332.773 177.796 337.762C186.813 342.962 190.084 360.75 185.259 384.171C181.614 401.879 172.9 422.925 161.021 443.523C148.842 464.641 134.897 483.247 121.09 495.315C103.619 510.587 86.7284 516.114 77.8833 511.013C69.3003 506.067 66.0181 489.846 70.1356 468.161C73.6145 449.838 82.3451 427.349 94.977 405.438H94.9811Z" stroke="#00D8FF" stroke-width="8.911"/>
<path fill-rule="evenodd" clip-rule="evenodd" d="M95.0123 443.578C82.4633 421.904 73.9194 399.962 70.3531 381.752C66.0602 359.811 69.0954 343.035 77.7401 338.031C86.7485 332.816 103.792 338.866 121.674 354.744C135.194 366.748 149.077 384.805 160.99 405.383C173.204 426.481 182.358 447.856 185.919 465.844C190.425 488.608 186.778 506.001 177.941 511.116C169.367 516.08 153.676 510.825 136.945 496.427C122.809 484.263 107.685 465.468 95.0123 443.578Z" stroke="#00D8FF" stroke-width="8.911"/>
</g>
<g clip-path="url(#clip2_210_1976)">
<rect y="592" width="256" height="256" rx="60" fill="white"/>
<path d="M128.001 738.951C138.305 738.951 146.657 730.598 146.657 720.295C146.657 709.992 138.305 701.639 128.001 701.639C117.698 701.639 109.345 709.992 109.345 720.295C109.345 730.598 117.698 738.951 128.001 738.951Z" fill="#00D8FF"/>
<path fill-rule="evenodd" clip-rule="evenodd" d="M128.002 682.363C153.05 682.363 176.319 685.957 193.864 691.998C215.003 699.275 228 710.306 228 720.295C228 730.704 214.226 742.423 191.525 749.944C174.363 755.63 151.779 758.598 128.002 758.598C103.624 758.598 80.5389 755.812 63.1834 749.881C41.2255 742.376 28 730.506 28 720.295C28 710.387 40.4096 699.441 61.2515 692.175C78.8617 686.035 102.705 682.363 127.998 682.363H128.002Z" stroke="#00D8FF" stroke-width="8.911"/>
<path fill-rule="evenodd" clip-rule="evenodd" d="M94.9811 701.438C107.495 679.74 122.232 661.378 136.23 649.197C153.094 634.521 169.144 628.773 177.796 633.762C186.813 638.962 190.084 656.75 185.259 680.171C181.614 697.879 172.9 718.925 161.021 739.523C148.842 760.641 134.897 779.247 121.09 791.315C103.619 806.587 86.7284 812.114 77.8833 807.013C69.3003 802.067 66.0181 785.846 70.1356 764.161C73.6145 745.838 82.3451 723.349 94.977 701.438H94.9811Z" stroke="#00D8FF" stroke-width="8.911"/>
<path fill-rule="evenodd" clip-rule="evenodd" d="M95.0123 739.578C82.4633 717.904 73.9194 695.962 70.3531 677.752C66.0602 655.811 69.0954 639.035 77.7401 634.031C86.7485 628.816 103.792 634.866 121.674 650.744C135.194 662.748 149.077 680.805 160.99 701.383C173.204 722.481 182.358 743.856 185.919 761.844C190.425 784.608 186.778 802.001 177.941 807.116C169.367 812.08 153.676 806.825 136.945 792.427C122.809 780.263 107.685 761.468 95.0123 739.578Z" stroke="#00D8FF" stroke-width="8.911"/>
</g>
<defs>
<clipPath id="clip0_210_1976">
<rect width="256" height="256" fill="white"/>
</clipPath>
<clipPath id="clip1_210_1976">
<rect width="256" height="256" fill="white" transform="translate(0 296)"/>
</clipPath>
<clipPath id="clip2_210_1976">
<rect width="256" height="256" fill="white" transform="translate(0 592)"/>
</clipPath>
</defs>
</svg>
