<svg width="256" height="256" viewBox="0 0 256 256" fill="none" xmlns="http://www.w3.org/2000/svg">
<g clip-path="url(#clip0_182_3853)">
<path d="M196 0H60C26.8629 0 0 26.8629 0 60V196C0 229.137 26.8629 256 60 256H196C229.137 256 256 229.137 256 196V60C256 26.8629 229.137 0 196 0Z" fill="url(#paint0_linear_182_3853)"/>
<path d="M89.6831 47.525C71.1498 55.725 59.5581 69.05 53.0165 78.75C45.9165 89.3167 43.1498 98.075 43.1498 98.15C43.1331 98.45 43.1915 98.0083 43.1498 98.3083C41.0998 104.142 39.2081 113.292 39.2081 113.367C36.9998 124.567 38.0248 134.975 38.0248 135.133L38.2665 137.183C38.4894 134.355 38.8565 131.541 39.3665 128.75C39.5248 127.642 42.4498 111.95 53.4831 99.4917C54.6665 97.675 67.4415 80.8833 90.9415 80.8833C95.9915 80.8833 101.275 81.6667 106.558 83.2416H106.716C107.033 83.325 113.966 85.85 116.491 87.1083C118.858 88.2916 123.041 90.1083 123.116 90.1083H123.283C145.908 101.15 165.466 104.692 165.625 104.775C171.225 105.719 176.272 106.192 180.766 106.192C189.758 106.192 196.225 104.225 199.616 100.442C201.591 98.275 202.175 95.7833 202.058 93.6583C202.216 85.45 195.516 76.625 189.833 70.7083C185.907 66.584 181.605 62.8344 176.983 59.5083C159.95 46.8916 141.733 40.5083 122.65 40.5083C103.091 40.5833 89.8415 47.4417 89.6831 47.525ZM151.508 69.6833C153.875 69.6833 155.766 71.575 155.766 73.9333C155.769 74.4935 155.66 75.0487 155.447 75.5668C155.234 76.0849 154.92 76.5557 154.525 76.9523C154.129 77.3488 153.659 77.6632 153.141 77.8773C152.623 78.0914 152.068 78.2011 151.508 78.2C150.949 78.2011 150.394 78.0917 149.877 77.8781C149.36 77.6645 148.89 77.3508 148.495 76.9552C148.099 76.5596 147.785 76.0897 147.572 75.5725C147.358 75.0554 147.249 74.5012 147.25 73.9417C147.25 71.575 149.141 69.6833 151.508 69.6833ZM96.4665 53.5167C97.0915 53.5167 97.4915 53.675 97.6498 53.675L124.541 62.0333L123.516 64.1583L110.658 60.1417C106.091 58.725 101.325 57.2167 96.8581 55.8083C96.7748 55.8083 96.6248 55.725 96.4665 55.725C96.2998 55.725 96.0665 55.725 95.9081 55.8083C93.4665 56.4333 86.7665 58.8 84.7915 62.35C84.5271 62.8259 84.3627 63.3507 84.3082 63.8923C84.2538 64.434 84.3105 64.981 84.4748 65.5C84.4748 65.5833 85.8915 70 89.4415 74.5667L107.275 73.7L119.175 73.15L117.991 75.5916L88.4165 77.0083C83.9998 71.65 82.2665 66.2916 82.2665 66.2916C79.5081 57.6166 95.3581 53.5833 95.3581 53.5833C95.7359 53.5667 96.1054 53.5389 96.4665 53.5V53.5167ZM189.991 184.742C208.133 176.858 215.858 163.208 215.858 163.208C232.816 140.108 227.058 115.733 227.058 115.733C216.258 139.233 206.391 145.7 206.391 145.7C232.975 105.25 206.558 80.8 206.558 80.8C217.358 103.833 203 131.9 203 131.9C190.933 157.3 173.816 166.367 173.816 166.367C192.9 169.917 206.941 157.058 206.941 157.058C179.575 186.633 149.925 185.217 149.925 185.217C162.383 199.175 181.075 197.992 181.075 197.992C156.625 203.742 133.675 195.625 114.825 179.933C111.283 177.017 107.891 173.85 104.741 170.467C103.541 169.217 102.408 167.883 101.266 166.6C100.875 181.192 116.091 194.758 116.091 194.758C97.0081 186.867 88.2581 169.758 88.2581 169.758C88.2581 169.758 75.3998 147.833 84.7081 122.833C93.9331 98.15 121.533 92.6166 122.241 92.4583C119.989 91.4198 117.728 90.4004 115.458 89.4C113.016 88.2166 105.916 85.6083 105.916 85.6083C101.056 84.1378 96.0108 83.3689 90.9331 83.325C67.6665 83.325 55.2915 100.908 55.2915 100.908C44.3248 113.217 41.7248 129.142 41.7248 129.142C38.6415 144.367 41.9581 160.375 41.9581 160.375C41.9581 160.375 42.2748 161.633 42.3581 162.183C44.8831 168.183 48.1081 174.1 51.8998 179.692C72.3998 210.292 105.683 220.858 105.683 220.858C154.966 237.575 188.641 212.975 188.641 212.975C219.641 191.683 225.866 167.075 225.866 167.075C200.783 186.558 189.991 184.742 189.991 184.742ZM38.8915 152.567C37.536 147.701 36.5334 142.743 35.8915 137.733C35.8081 136.917 35.6831 136.008 35.5831 135.217C35.5831 135.217 34.4748 124.492 36.8415 112.742C36.8415 112.742 36.9248 112.425 37.0081 111.95C37.3081 110.258 37.7831 108.558 38.1081 107.142C38.8165 104.058 39.8415 100.358 40.8581 97.3583C40.8581 97.3583 51.7498 61.6333 88.5748 45.3167C88.5748 45.3167 101.275 38.6083 120.433 38.1333C119.129 36.7989 117.707 35.5856 116.183 34.5083C107.183 28.5083 93.7831 26.5417 85.6581 34.9833C83.2165 37.5083 81.1581 40.2667 78.8748 42.7917C76.2748 45.625 73.1248 47.9916 69.4915 49.3333C66.3415 50.5167 63.1831 50.2833 59.9498 50.8333C56.6415 51.3833 53.2498 52.5667 50.5665 54.7C47.6498 57.0667 46.4665 60.2167 46.1498 63.8417C45.8331 66.6833 45.9165 69.6 45.7581 72.4417C45.3581 80.8 42.6748 83.1666 36.6831 87.8167C34.1581 89.7083 32.0331 92.2333 30.4581 94.9166C25.7248 103.275 33.2915 111.95 33.6915 120.392C33.7748 122.125 33.6081 123.858 32.9831 125.517C32.3498 127.325 31.0831 128.517 30.0665 130.017C28.6415 131.983 27.6915 134.35 28.0915 136.792C28.4915 139.233 29.7498 141.525 30.9248 143.65C33.2165 147.442 36.0581 150.833 39.0498 154.067C39.1498 154.2 39.3665 154.4 39.4998 154.5L38.8915 152.567Z" fill="white"/>
</g>
<defs>
<linearGradient id="paint0_linear_182_3853" x1="0" y1="128" x2="256" y2="128" gradientUnits="userSpaceOnUse">
<stop stop-color="#57008E"/>
<stop offset="1" stop-color="#FF0090"/>
</linearGradient>
<clipPath id="clip0_182_3853">
<rect width="256" height="256" fill="white"/>
</clipPath>
</defs>
</svg>
