<svg width="256" height="256" viewBox="0 0 256 256" fill="none" xmlns="http://www.w3.org/2000/svg">
<g clip-path="url(#clip0_248_1040)">
<path d="M196 0H60C26.8629 0 0 26.8629 0 60V196C0 229.137 26.8629 256 60 256H196C229.137 256 256 229.137 256 196V60C256 26.8629 229.137 0 196 0Z" fill="url(#paint0_linear_248_1040)"/>
<path d="M89.6831 47.5246C71.1498 55.7246 59.5581 69.0496 53.0165 78.7496C45.9165 89.3162 43.1498 98.0746 43.1498 98.1496C43.1331 98.4496 43.1915 98.0079 43.1498 98.3079C41.0998 104.141 39.2081 113.291 39.2081 113.366C36.9998 124.566 38.0248 134.975 38.0248 135.133L38.2665 137.183C38.4894 134.355 38.8565 131.54 39.3665 128.75C39.5248 127.641 42.4498 111.95 53.4831 99.4912C54.6665 97.6746 67.4415 80.8829 90.9415 80.8829C95.9915 80.8829 101.275 81.6662 106.558 83.2412H106.716C107.033 83.3246 113.966 85.8496 116.491 87.1079C118.858 88.2912 123.041 90.1079 123.116 90.1079H123.283C145.908 101.15 165.466 104.691 165.625 104.775C171.225 105.719 176.272 106.191 180.766 106.191C189.758 106.191 196.225 104.225 199.616 100.441C201.591 98.2746 202.175 95.7829 202.058 93.6579C202.216 85.4496 195.516 76.6246 189.833 70.7079C185.907 66.5835 181.605 62.834 176.983 59.5079C159.95 46.8912 141.733 40.5079 122.65 40.5079C103.091 40.5829 89.8415 47.4412 89.6831 47.5246ZM151.508 69.6829C153.875 69.6829 155.766 71.5746 155.766 73.9329C155.769 74.4931 155.66 75.0482 155.447 75.5663C155.234 76.0844 154.92 76.5553 154.525 76.9518C154.129 77.3484 153.659 77.6627 153.141 77.8769C152.623 78.091 152.068 78.2007 151.508 78.1996C150.949 78.2007 150.394 78.0913 149.877 77.8776C149.36 77.664 148.89 77.3504 148.495 76.9548C148.099 76.5591 147.785 76.0893 147.572 75.5721C147.358 75.055 147.249 74.5007 147.25 73.9412C147.25 71.5746 149.141 69.6829 151.508 69.6829ZM96.4665 53.5162C97.0915 53.5162 97.4915 53.6746 97.6498 53.6746L124.541 62.0329L123.516 64.1579L110.658 60.1412C106.091 58.7246 101.325 57.2162 96.8581 55.8079C96.7748 55.8079 96.6248 55.7246 96.4665 55.7246C96.2998 55.7246 96.0665 55.7246 95.9081 55.8079C93.4665 56.4329 86.7665 58.7996 84.7915 62.3496C84.5271 62.8254 84.3627 63.3503 84.3082 63.8919C84.2538 64.4335 84.3105 64.9806 84.4748 65.4996C84.4748 65.5829 85.8915 69.9996 89.4415 74.5662L107.275 73.6996L119.175 73.1496L117.991 75.5912L88.4165 77.0079C83.9998 71.6496 82.2665 66.2912 82.2665 66.2912C79.5081 57.6162 95.3581 53.5829 95.3581 53.5829C95.7359 53.5662 96.1054 53.5384 96.4665 53.4996V53.5162ZM189.991 184.741C208.133 176.858 215.858 163.208 215.858 163.208C232.816 140.108 227.058 115.733 227.058 115.733C216.258 139.233 206.391 145.7 206.391 145.7C232.975 105.25 206.558 80.7996 206.558 80.7996C217.358 103.833 203 131.9 203 131.9C190.933 157.3 173.816 166.366 173.816 166.366C192.9 169.916 206.941 157.058 206.941 157.058C179.575 186.633 149.925 185.216 149.925 185.216C162.383 199.175 181.075 197.991 181.075 197.991C156.625 203.741 133.675 195.625 114.825 179.933C111.283 177.016 107.891 173.85 104.741 170.466C103.541 169.216 102.408 167.883 101.266 166.6C100.875 181.191 116.091 194.758 116.091 194.758C97.0081 186.866 88.2581 169.758 88.2581 169.758C88.2581 169.758 75.3998 147.833 84.7081 122.833C93.9331 98.1496 121.533 92.6162 122.241 92.4579C119.989 91.4194 117.728 90.3999 115.458 89.3996C113.016 88.2162 105.916 85.6079 105.916 85.6079C101.056 84.1374 96.0108 83.3685 90.9331 83.3246C67.6665 83.3246 55.2915 100.908 55.2915 100.908C44.3248 113.216 41.7248 129.141 41.7248 129.141C38.6415 144.366 41.9581 160.375 41.9581 160.375C41.9581 160.375 42.2748 161.633 42.3581 162.183C44.8831 168.183 48.1081 174.1 51.8998 179.691C72.3998 210.291 105.683 220.858 105.683 220.858C154.966 237.575 188.641 212.975 188.641 212.975C219.641 191.683 225.866 167.075 225.866 167.075C200.783 186.558 189.991 184.741 189.991 184.741ZM38.8915 152.566C37.536 147.7 36.5334 142.743 35.8915 137.733C35.8081 136.916 35.6831 136.008 35.5831 135.216C35.5831 135.216 34.4748 124.491 36.8415 112.741C36.8415 112.741 36.9248 112.425 37.0081 111.95C37.3081 110.258 37.7831 108.558 38.1081 107.141C38.8165 104.058 39.8415 100.358 40.8581 97.3579C40.8581 97.3579 51.7498 61.6329 88.5748 45.3162C88.5748 45.3162 101.275 38.6079 120.433 38.1329C119.129 36.7985 117.707 35.5851 116.183 34.5079C107.183 28.5079 93.7831 26.5412 85.6581 34.9829C83.2165 37.5079 81.1581 40.2662 78.8748 42.7912C76.2748 45.6246 73.1248 47.9912 69.4915 49.3329C66.3415 50.5162 63.1831 50.2829 59.9498 50.8329C56.6415 51.3829 53.2498 52.5662 50.5665 54.6996C47.6498 57.0662 46.4665 60.2162 46.1498 63.8412C45.8331 66.6829 45.9165 69.5996 45.7581 72.4412C45.3581 80.7996 42.6748 83.1662 36.6831 87.8162C34.1581 89.7079 32.0331 92.2329 30.4581 94.9162C25.7248 103.275 33.2915 111.95 33.6915 120.391C33.7748 122.125 33.6081 123.858 32.9831 125.516C32.3498 127.325 31.0831 128.516 30.0665 130.016C28.6415 131.983 27.6915 134.35 28.0915 136.791C28.4915 139.233 29.7498 141.525 30.9248 143.65C33.2165 147.441 36.0581 150.833 39.0498 154.066C39.1498 154.2 39.3665 154.4 39.4998 154.5L38.8915 152.566Z" fill="white"/>
</g>
<defs>
<linearGradient id="paint0_linear_248_1040" x1="0" y1="128" x2="256" y2="128" gradientUnits="userSpaceOnUse">
<stop stop-color="#57008E"/>
<stop offset="1" stop-color="#FF0090"/>
</linearGradient>
<clipPath id="clip0_248_1040">
<rect width="256" height="256" fill="white"/>
</clipPath>
</defs>
</svg>
