<svg width="256" height="256" viewBox="0 0 256 256" fill="none" xmlns="http://www.w3.org/2000/svg">
<g clip-path="url(#clip0_384_330)">
<rect width="256" height="256" rx="60" fill="#242938"/>
<path fill-rule="evenodd" clip-rule="evenodd" d="M162.133 154.493C168.756 132.521 175.375 110.644 181.987 88.7488L182.521 88.8605C181.867 110.675 181.236 132.482 180.601 154.493C174.421 154.493 168.47 154.493 162.133 154.493ZM226.716 191.931C225.69 176.646 224.581 161.358 223.544 146.061C222.541 131.054 221.629 116.035 220.626 101.027C219.416 82.9852 218.071 64.9707 216.948 46.9369C216.794 44.75 216.309 44.0136 214.123 44.0103C198.834 43.9872 178 44.0103 165.5 44.0103C163.761 44.0103 163.035 44.646 162.358 46.3285C160.341 51.403 158.316 56.4735 156.299 61.548C160.573 68.1509 163.068 76.0859 163.609 85.199C164.758 104.989 158.41 122.703 144.75 137.849C140.828 142.215 137.007 144.698 130.197 146.935L147.327 202.069C148.12 199.574 148.947 197.067 149.702 194.565C150.224 192.797 150.881 191.931 152.895 192.047C156.577 192.247 160.281 192.104 163.988 192.104C169.124 192.104 174.282 192.104 179.865 192.104C179.865 199.069 179.865 205.934 179.865 212.749C190.5 212.749 215.5 212.749 228 212.749C227.452 203.404 227.023 196.464 226.716 191.931Z" fill="#02793E"/>
<path fill-rule="evenodd" clip-rule="evenodd" d="M86.9662 123.001C91.0797 124.333 95.5803 123.37 99.6715 120.363C106.268 115.505 109.5 108.825 110.641 100.601C112.17 89.7128 106.051 81.6353 95.4415 81.3042C93.9428 81.2503 93.319 81.6276 93.1122 83.2292C92.5866 87.4258 91.8728 91.6071 91.2078 95.8037C89.8063 104.809 88.3976 113.833 86.9662 123.001ZM53.7714 47.0538C54.0795 45.0209 54.6354 44.01 57.006 44.0122C73.8331 44.0276 88.9911 44.0276 104.965 44.4434C115.326 44.7052 125.537 46.4416 135.106 50.85C149.671 57.5722 157.03 69.5267 157.984 85.5547C159.062 104.178 152.935 120.263 140.609 133.935C136.522 138.486 132.679 140.5 123.058 143.002C130.248 166.164 137.393 189.35 144.666 212.75C140.755 212.75 111.227 212.75 98.8328 212.75C96.9547 212.75 96.2378 212.35 95.8509 210.236C92.0266 189.361 88.0669 168.509 84.1261 147.649C84.0435 147.206 83.8255 146.802 83.4123 145.724C79.8547 168.397 76.3235 190.612 72.8748 212.75H28C43.8936 110.746 52.4841 55.5137 53.7714 47.0538Z" fill="#A4C929"/>
</g>
<defs>
<clipPath id="clip0_384_330">
<rect width="256" height="256" fill="white"/>
</clipPath>
</defs>
</svg>
