<svg width="256" height="256" viewBox="0 0 256 256" fill="none" xmlns="http://www.w3.org/2000/svg">
<g clip-path="url(#clip0_384_333)">
<rect width="256" height="256" rx="60" fill="white"/>
<path fill-rule="evenodd" clip-rule="evenodd" d="M162.133 155.493C168.756 133.521 175.375 111.644 181.987 89.7488L182.521 89.8605C181.867 111.675 181.236 133.482 180.601 155.493C174.421 155.493 168.47 155.493 162.133 155.493ZM226.716 192.931C225.69 177.646 224.581 162.358 223.544 147.061C222.541 132.054 221.629 117.035 220.626 102.027C219.416 83.9852 218.071 65.9707 216.948 47.9369C216.794 45.75 216.309 45.0136 214.123 45.0103C198.834 44.9872 178 45.0103 165.5 45.0103C163.761 45.0103 163.035 45.646 162.358 47.3285C160.341 52.403 158.316 57.4735 156.299 62.548C160.573 69.1509 163.068 77.0859 163.609 86.199C164.758 105.989 158.41 123.703 144.75 138.849C140.828 143.215 137.007 145.698 130.197 147.935L147.327 203.069C148.12 200.574 148.947 198.067 149.702 195.565C150.224 193.797 150.881 192.931 152.895 193.047C156.577 193.247 160.281 193.104 163.988 193.104C169.124 193.104 174.282 193.104 179.865 193.104C179.865 200.069 179.865 206.934 179.865 213.749C190.5 213.749 215.5 213.749 228 213.749C227.452 204.404 227.023 197.464 226.716 192.931Z" fill="#02793E"/>
<path fill-rule="evenodd" clip-rule="evenodd" d="M86.9662 124.001C91.0797 125.333 95.5803 124.37 99.6715 121.363C106.268 116.505 109.5 109.825 110.641 101.601C112.17 90.7128 106.051 82.6353 95.4415 82.3042C93.9428 82.2503 93.319 82.6276 93.1122 84.2292C92.5866 88.4258 91.8728 92.6071 91.2078 96.8037C89.8063 105.809 88.3976 114.833 86.9662 124.001ZM53.7714 48.0538C54.0795 46.0209 54.6354 45.01 57.006 45.0122C73.8331 45.0276 88.9911 45.0276 104.965 45.4434C115.326 45.7052 125.537 47.4416 135.106 51.85C149.671 58.5722 157.03 70.5267 157.984 86.5547C159.062 105.178 152.935 121.263 140.609 134.935C136.522 139.486 132.679 141.5 123.058 144.002C130.248 167.164 137.393 190.35 144.666 213.75C140.755 213.75 111.227 213.75 98.8328 213.75C96.9547 213.75 96.2378 213.35 95.8509 211.236C92.0266 190.361 88.0669 169.509 84.1261 148.649C84.0435 148.206 83.8255 147.802 83.4123 146.724C79.8547 169.397 76.3235 191.612 72.8748 213.75H28C43.8936 111.746 52.4841 56.5137 53.7714 48.0538Z" fill="#A4C929"/>
</g>
<defs>
<clipPath id="clip0_384_333">
<rect width="256" height="256" fill="white"/>
</clipPath>
</defs>
</svg>
