<svg width="256" height="256" viewBox="0 0 256 256" fill="none" xmlns="http://www.w3.org/2000/svg">
<g clip-path="url(#clip0_384_327)">
<path fill-rule="evenodd" clip-rule="evenodd" d="M256.013 203.509C256.013 232.385 232.389 256.009 203.513 256.009H52.5124C23.6368 256.009 0.0126953 232.385 0.0126953 203.509V52.5085C0.0126953 23.6329 23.6368 0.00878906 52.5124 0.00878906H203.513C232.389 0.00878906 256.013 23.6329 256.013 52.5085V203.509Z" fill="white"/>
<path fill-rule="evenodd" clip-rule="evenodd" d="M162.133 156.493C168.756 134.521 175.375 112.644 181.987 90.7488L182.521 90.8605C181.867 112.675 181.236 134.482 180.601 156.493C174.421 156.493 168.47 156.493 162.133 156.493ZM226.716 193.931C225.69 178.646 224.581 163.358 223.544 148.061C222.541 133.054 221.629 118.035 220.626 103.027C219.416 84.9852 218.071 66.9707 216.948 48.9369C216.794 46.75 216.309 46.0136 214.123 46.0103C198.834 45.9872 178 46.0103 165.5 46.0103C163.761 46.0103 163.035 46.646 162.358 48.3285C160.341 53.403 158.316 58.4735 156.299 63.548C160.573 70.1509 163.068 78.0859 163.609 87.199C164.758 106.989 158.41 124.703 144.75 139.849C140.828 144.215 137.007 146.698 130.197 148.935L147.327 204.069C148.12 201.574 148.947 199.067 149.702 196.565C150.224 194.797 150.881 193.931 152.895 194.047C156.577 194.247 160.281 194.104 163.988 194.104C169.124 194.104 174.282 194.104 179.865 194.104C179.865 201.069 179.865 207.934 179.865 214.749C190.5 214.749 215.5 214.749 228 214.749C227.452 205.404 227.023 198.464 226.716 193.931Z" fill="#02793E"/>
<path fill-rule="evenodd" clip-rule="evenodd" d="M86.9662 125.001C91.0797 126.333 95.5803 125.37 99.6715 122.363C106.268 117.505 109.5 110.825 110.641 102.601C112.17 91.7128 106.051 83.6353 95.4415 83.3042C93.9428 83.2503 93.319 83.6276 93.1122 85.2292C92.5866 89.4258 91.8728 93.6071 91.2078 97.8037C89.8063 106.809 88.3976 115.833 86.9662 125.001ZM53.7714 49.0538C54.0795 47.0209 54.6354 46.01 57.006 46.0122C73.8331 46.0276 88.9911 46.0276 104.965 46.4434C115.326 46.7052 125.537 48.4416 135.106 52.85C149.671 59.5722 157.03 71.5267 157.984 87.5547C159.062 106.178 152.935 122.263 140.609 135.935C136.522 140.486 132.679 142.5 123.058 145.002C130.248 168.164 137.393 191.35 144.666 214.75C140.755 214.75 111.227 214.75 98.8328 214.75C96.9547 214.75 96.2378 214.35 95.8509 212.236C92.0266 191.361 88.0669 170.509 84.1261 149.649C84.0435 149.206 83.8255 148.802 83.4123 147.724C79.8547 170.397 76.3235 192.612 72.8748 214.75H28C43.8936 112.746 52.4841 57.5137 53.7714 49.0538Z" fill="#A4C929"/>
</g>
<defs>
<clipPath id="clip0_384_327">
<rect width="256" height="256" fill="white"/>
</clipPath>
</defs>
</svg>
