<svg width="256" height="256" viewBox="0 0 256 256" fill="none" xmlns="http://www.w3.org/2000/svg">
<g clip-path="url(#clip0_248_3142)">
<path d="M196 0H60C26.8629 0 0 26.8629 0 60V196C0 229.137 26.8629 256 60 256H196C229.137 256 256 229.137 256 196V60C256 26.8629 229.137 0 196 0Z" fill="black"/>
<path d="M161.474 139.319C174.61 139.319 193.633 136.584 193.633 120.909C193.632 119.709 193.527 118.512 193.318 117.331L185.541 83.2456C183.755 75.7761 182.177 72.3043 169.04 65.7817C158.846 60.5215 136.671 52 130.05 52C123.848 52 122.062 59.8903 114.81 59.8903C107.769 59.8903 102.619 53.9988 95.9979 53.9988C89.6921 53.9988 85.5932 58.3122 82.4403 67.1493C82.4403 67.1493 73.6121 92.0826 72.4561 95.7648C72.2824 96.4164 72.2115 97.0908 72.2459 97.7641C72.1408 107.442 110.291 139.214 161.474 139.319ZM195.63 127.326C197.417 135.952 197.417 136.899 197.417 137.951C197.417 152.68 180.916 160.886 159.162 160.886C109.976 160.886 66.991 132.06 66.991 113.019C66.9862 110.378 67.5227 107.763 68.5676 105.339C50.9111 106.18 28 109.336 28 129.536C28 162.675 106.403 203.494 168.41 203.494C216.019 203.494 228 181.926 228 164.884C228 151.523 216.44 136.374 195.63 127.326Z" fill="#EE0000"/>
<path d="M195.63 127.326C197.417 135.953 197.417 136.899 197.417 137.951C197.417 152.68 180.916 160.886 159.162 160.886C109.976 160.886 66.9908 132.06 66.9908 113.019C66.9859 110.378 67.5225 107.763 68.5671 105.339L72.4558 95.7649C72.2821 96.4164 72.2112 97.0908 72.2456 97.7641C72.2456 107.443 110.396 139.214 161.474 139.214C174.61 139.214 193.633 136.479 193.633 120.804C193.632 119.604 193.527 118.407 193.318 117.226L195.63 127.326Z" fill="black"/>
</g>
<defs>
<clipPath id="clip0_248_3142">
<rect width="256" height="256" fill="white"/>
</clipPath>
</defs>
</svg>
