<svg width="256" height="256" viewBox="0 0 256 256" fill="none" xmlns="http://www.w3.org/2000/svg">
<g clip-path="url(#clip0_248_3152)">
<rect width="256" height="256" rx="60" fill="white"/>
<path d="M160.474 139.319C173.61 139.319 192.633 136.584 192.633 120.909C192.632 119.709 192.527 118.512 192.318 117.331L184.541 83.2456C182.755 75.7761 181.177 72.3043 168.04 65.7817C157.846 60.5215 135.671 52 129.05 52C122.848 52 121.062 59.8903 113.81 59.8903C106.769 59.8903 101.619 53.9988 94.9979 53.9988C88.6921 53.9988 84.5932 58.3122 81.4403 67.1493C81.4403 67.1493 72.6121 92.0826 71.4561 95.7648C71.2824 96.4164 71.2115 97.0908 71.2459 97.7641C71.1408 107.442 109.291 139.214 160.474 139.319ZM194.63 127.326C196.417 135.952 196.417 136.899 196.417 137.951C196.417 152.68 179.916 160.886 158.162 160.886C108.976 160.886 65.991 132.06 65.991 113.019C65.9862 110.378 66.5227 107.763 67.5676 105.339C49.9111 106.18 27 109.336 27 129.536C27 162.675 105.403 203.494 167.41 203.494C215.019 203.494 227 181.926 227 164.884C227 151.523 215.44 136.374 194.63 127.326Z" fill="#EE0000"/>
<path d="M194.63 127.326C196.417 135.953 196.417 136.899 196.417 137.951C196.417 152.68 179.916 160.886 158.162 160.886C108.976 160.886 65.9908 132.06 65.9908 113.019C65.9859 110.378 66.5225 107.763 67.5671 105.339L71.4558 95.7649C71.2821 96.4164 71.2112 97.0908 71.2456 97.7641C71.2456 107.443 109.396 139.214 160.474 139.214C173.61 139.214 192.633 136.479 192.633 120.804C192.632 119.604 192.527 118.407 192.318 117.226L194.63 127.326Z" fill="black"/>
</g>
<defs>
<clipPath id="clip0_248_3152">
<rect width="256" height="256" fill="white"/>
</clipPath>
</defs>
</svg>
