<svg width="256" height="256" viewBox="0 0 256 256" fill="none" xmlns="http://www.w3.org/2000/svg">
<g clip-path="url(#clip0_248_1647)">
<rect width="256" height="256" rx="60" fill="#242938"/>
<path d="M220.161 174.468C209.488 180.035 154.204 202.765 142.434 208.899C130.663 215.034 124.126 214.976 114.826 210.532C105.526 206.089 46.6944 182.326 36.0903 177.257C30.7883 174.722 28.01 172.591 28.01 170.576V150.36C28.01 150.36 104.609 133.685 116.978 129.247C129.348 124.809 133.627 124.65 144.157 128.505C154.687 132.359 217.606 143.711 228.003 147.523V167.459C228.003 169.458 225.607 171.7 220.172 174.479L220.161 174.468Z" fill="#A41E11"/>
<path d="M220.162 154.246C209.488 159.813 154.204 182.543 142.434 188.677C130.663 194.812 124.126 194.753 114.826 190.31C105.526 185.867 46.6946 162.103 36.0905 157.035C25.4864 151.966 25.2743 148.483 35.6822 144.405L116.973 112.932C129.338 108.5 133.622 108.335 144.151 112.19C154.681 116.045 209.632 137.916 220.024 141.786C230.416 145.657 230.824 148.732 220.151 154.299L220.162 154.246Z" fill="#D82C20"/>
<path d="M220.161 141.5C209.488 147.067 154.204 169.797 142.434 175.931C130.663 182.066 124.126 182.007 114.826 177.564C105.526 173.121 46.6944 149.357 36.0903 144.289C30.7883 141.754 28.01 139.623 28.01 137.608V117.391C28.01 117.391 104.609 100.716 116.978 96.2791C129.348 91.8413 133.627 91.6822 144.157 95.5368C154.687 99.3914 217.606 110.743 228.003 114.555V134.491C228.003 136.489 225.607 138.732 220.172 141.51L220.161 141.5Z" fill="#A41E11"/>
<path d="M220.162 121.283C209.488 126.85 154.204 149.58 142.434 155.715C130.663 161.849 124.126 161.791 114.826 157.348C105.526 152.904 46.6946 129.141 36.0905 124.072C25.4864 119.003 25.2743 115.52 35.6822 111.442L116.973 79.9743C129.338 75.5365 133.622 75.3775 144.151 79.2321C154.681 83.0866 209.632 104.963 220.034 108.765C230.437 112.567 230.835 115.711 220.162 121.278V121.283Z" fill="#D82C20"/>
<path d="M220.161 107.312C209.488 112.879 154.204 135.609 142.434 141.749C130.663 147.889 124.126 147.825 114.826 143.382C105.526 138.939 46.6944 115.175 36.0903 110.106C30.7883 107.572 28.01 105.441 28.01 103.426V83.1984C28.01 83.1984 104.609 66.5235 116.978 62.0857C129.348 57.6479 133.627 57.4888 144.157 61.3434C154.687 65.198 217.606 76.5497 228.003 80.3618V100.298C228.003 102.297 225.607 104.539 220.172 107.318L220.161 107.312Z" fill="#A41E11"/>
<path d="M220.162 87.0902C209.488 92.6573 154.204 115.387 142.434 121.522C130.663 127.656 124.126 127.598 114.826 123.155C105.526 118.712 46.6946 94.9478 36.0905 89.8791C25.4864 84.8103 25.2743 81.3269 35.6822 77.2496L116.973 45.782C129.338 41.3442 133.622 41.1851 144.151 45.0397C154.681 48.8943 209.632 70.7705 220.034 74.5721C230.437 78.3736 230.835 81.5177 220.162 87.0849V87.0902Z" fill="#D82C20"/>
<path d="M132.996 78.7553L126.729 68.3368L106.719 66.5341L121.65 61.1472L117.169 52.876L131.146 58.3371L144.326 54.0212L140.763 62.5681L154.199 67.6051L136.872 69.4078L132.996 78.7553ZM99.6143 99.4969L145.954 92.3815L131.957 112.911L99.6143 99.4969Z" fill="white"/>
<path d="M87.1227 92.0155C100.803 92.0155 111.894 87.7165 111.894 82.4135C111.894 77.1104 100.803 72.8115 87.1227 72.8115C73.442 72.8115 62.3516 77.1104 62.3516 82.4135C62.3516 87.7165 73.442 92.0155 87.1227 92.0155Z" fill="white"/>
<path d="M202.113 81.0146L174.702 91.8413L174.681 70.1719L202.113 81.0146Z" fill="#7A0C00"/>
<path d="M174.707 91.841L171.738 93.0074L144.348 82.1807L174.691 70.1768L174.707 91.841Z" fill="#AD2115"/>
</g>
<defs>
<clipPath id="clip0_248_1647">
<rect width="256" height="256" fill="white"/>
</clipPath>
</defs>
</svg>
