<svg width="256" height="256" viewBox="0 0 256 256" fill="none" xmlns="http://www.w3.org/2000/svg">
<g clip-path="url(#clip0_384_363)">
<rect width="256" height="256" rx="60" fill="#242938"/>
<path fill-rule="evenodd" clip-rule="evenodd" d="M26.75 138.25H18V78.25H40.5C50.4944 78.2625 57.9525 84.23 58 94.5C58.0387 102.937 53.285 108.699 46.75 111.375L59.875 138.25H49.25L37.375 112H26.75V138.25ZM38 85.125H26.75V105.125H38.625C42.9656 105.178 49.185 102.495 49.25 95.125C49.3125 88.02 43.7162 85.1288 38 85.125Z" fill="#FF6900"/>
<path fill-rule="evenodd" clip-rule="evenodd" d="M103 120.125V112.625C103.166 103.603 97.4986 93.895 84.2498 93.875C69.3292 93.8519 63.5448 105.976 63.6248 116.375C63.7486 132.529 72.2773 140.159 86.1248 140.125C93.2017 140.108 97.583 138.032 101.75 135.75V128.875C96.9392 130.642 93.308 132.684 86.1248 132.625C76.5136 132.546 73.0355 125.171 72.9998 120.125H103ZM72.9998 113.875H94.8748V112C94.8105 106.644 91.1473 100.728 84.2498 100.75C76.3492 100.775 72.9223 107.941 72.9998 112V113.875Z" fill="#FF6900"/>
<path fill-rule="evenodd" clip-rule="evenodd" d="M148.625 136.375V77L139.875 79.5V95.75C137.376 94.3644 134.391 93.8975 131.125 93.875C115.239 93.7637 110.401 105.421 110.5 117C110.629 131.979 119.209 140.347 133 140.125C138.96 140.029 143.548 138.923 148.625 136.375ZM139.875 103.25V130.75C137.698 132.052 135.454 132.403 133 132.369C120.879 132.201 119.899 121.504 119.875 117C119.829 108.217 122.846 101.247 131.75 101.375C135.218 101.425 137.218 101.884 139.875 103.25Z" fill="#FF6900"/>
<path fill-rule="evenodd" clip-rule="evenodd" d="M158 98.875V138.25H166.75V103.875C168.519 102.373 170.6 101.381 174.25 101.375C179.325 101.367 183.562 104.156 183.625 110.125V138.25H193V105.125C195.069 102.876 197.131 101.384 201.75 101.375C207.881 101.364 209.85 105.114 209.875 110.125V138.25H218.625V107.625C218.475 96.5444 209.494 93.8494 203.625 93.875C195.312 93.9112 192.588 96.2125 188.625 98.875C185.337 95.7381 182.269 93.84 174.875 93.875C166.1 93.9162 162.531 96.0437 158 98.875Z" fill="#FF6900"/>
<path d="M236.75 96.375H227.375V138.25H236.75V96.375Z" fill="#FF6900"/>
<path d="M232.065 89.501C235.345 89.501 238.003 86.8427 238.003 83.5635C238.003 80.2843 235.345 77.626 232.065 77.626C228.786 77.626 226.128 80.2843 226.128 83.5635C226.128 86.8427 228.786 89.501 232.065 89.501Z" fill="#FF6900"/>
<path fill-rule="evenodd" clip-rule="evenodd" d="M83.6035 162.504L85.1397 162.503L90.3866 172.906L94.9279 162.533L96.4266 162.537L89.8122 177.614C89.5329 178.316 88.6541 179.519 86.7004 179.536C85.5754 179.545 84.3166 179.071 83.7622 178.237L84.901 177.452C85.0673 177.749 85.8235 178.155 86.6554 178.159C87.5185 178.164 88.2091 177.805 88.5335 177.118L89.6529 174.553L83.6035 162.504Z" fill="#FF6900"/>
<path fill-rule="evenodd" clip-rule="evenodd" d="M69.0723 157.002H70.4123L70.4255 164.341C71.793 162.679 73.6948 162.081 75.6398 162.055C79.7805 162 81.833 165.178 81.8392 168.639C81.8461 172.596 78.7867 175.078 75.7848 175.124C73.4523 175.159 71.5811 174.174 70.4336 172.761L70.4404 175.123L69.0698 175.131L69.0723 157.002ZM70.3954 168.635C70.4067 165.703 72.1286 163.484 75.6586 163.411C78.2192 163.357 80.3829 165 80.4279 168.584C80.4698 171.914 77.7348 173.773 75.6586 173.746C72.1598 173.701 70.3854 171.272 70.3954 168.635Z" fill="#FF6900"/>
<path fill-rule="evenodd" clip-rule="evenodd" d="M106.359 157.634L108.103 157.616L114.008 165.018L119.9 157.623L121.662 157.617L114.902 166.132L122.057 175.126L120.301 175.128L113.995 167.244L107.712 175.127L105.955 175.124L113.128 166.121L106.359 157.634Z" fill="#FF6900"/>
<path d="M126.658 162.623H125.29V175.127H126.658V162.623Z" fill="#FF6900"/>
<path d="M126.658 157.616H125.29V159.453H126.658V157.616Z" fill="#FF6900"/>
<path fill-rule="evenodd" clip-rule="evenodd" d="M132.318 164.415L131.555 163.278C132.545 162.664 133.54 162.047 136.025 162.11C138.463 162.172 141.244 163.971 141.227 166.371V175.131L139.857 175.132L139.857 173.651C138.552 174.872 137.006 175.398 135.293 175.442C132.532 175.513 130.414 174.002 130.418 171.501C130.422 169.565 131.25 167.053 135.823 167.001C137.738 166.978 139.858 167.537 139.858 167.537L139.859 166.503C139.893 165.156 138.316 163.487 135.746 163.485C134.109 163.484 133.267 163.791 132.318 164.415ZM139.86 168.97V171.51C138.632 173.307 137.037 174.074 135.153 174.073C133.023 174.073 131.83 173.201 131.785 171.431C131.733 169.422 133.151 168.391 135.925 168.369C137.237 168.358 138.549 168.595 139.86 168.97Z" fill="#FF6900"/>
<path fill-rule="evenodd" clip-rule="evenodd" d="M151.362 162.097C154.93 162.097 157.824 165.137 157.824 168.882C157.824 172.627 154.93 175.668 151.362 175.668C147.797 175.668 144.902 172.627 144.902 168.882C144.902 165.137 147.797 162.097 151.362 162.097ZM151.362 163.479C154.174 163.479 156.455 165.9 156.455 168.882C156.455 171.864 154.174 174.285 151.362 174.285C148.55 174.285 146.267 171.864 146.267 168.882C146.267 165.9 148.55 163.479 151.362 163.479Z" fill="#FF6900"/>
<path fill-rule="evenodd" clip-rule="evenodd" d="M161.504 162.612V175.107H162.854V167.643C162.873 166.151 163.954 163.455 167.086 163.456C168.729 163.457 170.548 164.283 170.629 166.07V175.107H172.004V166.469C172.017 165.284 173.542 163.626 175.992 163.587C178.192 163.551 179.636 164.859 179.667 166.931V175.127H181.017V166.998C181.048 164.133 179.086 162.159 175.948 162.191C174.373 162.207 172.823 162.665 171.517 164.251C170.617 162.991 169.279 162.059 166.973 162.08C165.573 162.094 164.154 162.559 162.854 163.941V162.612H161.504Z" fill="#FF6900"/>
<path d="M186.929 162.623H185.562V175.127H186.929V162.623Z" fill="#FF6900"/>
<path d="M186.929 157.616H185.562V159.453H186.929V157.616Z" fill="#FF6900"/>
</g>
<defs>
<clipPath id="clip0_384_363">
<rect width="256" height="256" fill="white"/>
</clipPath>
</defs>
</svg>
