<svg width="256" height="256" viewBox="0 0 256 256" fill="none" xmlns="http://www.w3.org/2000/svg">
<g clip-path="url(#clip0_384_358)">
<path fill-rule="evenodd" clip-rule="evenodd" d="M256.013 203.509C256.013 232.385 232.389 256.009 203.513 256.009H52.5124C23.6368 256.009 0.0126953 232.385 0.0126953 203.509V52.5085C0.0126953 23.6329 23.6368 0.00878906 52.5124 0.00878906H203.513C232.389 0.00878906 256.013 23.6329 256.013 52.5085V203.509Z" fill="#FF6900"/>
<path fill-rule="evenodd" clip-rule="evenodd" d="M26.75 140.25H18V80.25H40.5C50.4944 80.2625 57.9525 86.23 58 96.5C58.0387 104.937 53.285 110.699 46.75 113.375L59.875 140.25H49.25L37.375 114H26.75V140.25ZM38 87.125H26.75V107.125H38.625C42.9656 107.178 49.185 104.495 49.25 97.125C49.3125 90.02 43.7162 87.1288 38 87.125Z" fill="white"/>
<path fill-rule="evenodd" clip-rule="evenodd" d="M103 122.125V114.625C103.166 105.603 97.4986 95.895 84.2498 95.875C69.3292 95.8519 63.5448 107.976 63.6248 118.375C63.7486 134.529 72.2773 142.159 86.1248 142.125C93.2017 142.108 97.583 140.032 101.75 137.75V130.875C96.9392 132.642 93.308 134.684 86.1248 134.625C76.5136 134.546 73.0355 127.171 72.9998 122.125H103ZM72.9998 115.875H94.8748V114C94.8105 108.644 91.1473 102.728 84.2498 102.75C76.3492 102.775 72.9223 109.941 72.9998 114V115.875Z" fill="white"/>
<path fill-rule="evenodd" clip-rule="evenodd" d="M148.625 138.375V79L139.875 81.5V97.75C137.376 96.3644 134.391 95.8975 131.125 95.875C115.239 95.7637 110.401 107.421 110.5 119C110.629 133.979 119.209 142.347 133 142.125C138.96 142.029 143.548 140.923 148.625 138.375ZM139.875 105.25V132.75C137.698 134.052 135.454 134.403 133 134.369C120.879 134.201 119.899 123.504 119.875 119C119.829 110.217 122.846 103.247 131.75 103.375C135.218 103.425 137.218 103.884 139.875 105.25Z" fill="white"/>
<path fill-rule="evenodd" clip-rule="evenodd" d="M158 100.875V140.25H166.75V105.875C168.519 104.373 170.6 103.381 174.25 103.375C179.325 103.367 183.562 106.156 183.625 112.125V140.25H193V107.125C195.069 104.876 197.131 103.384 201.75 103.375C207.881 103.364 209.85 107.114 209.875 112.125V140.25H218.625V109.625C218.475 98.5444 209.494 95.8494 203.625 95.875C195.312 95.9112 192.588 98.2125 188.625 100.875C185.337 97.7381 182.269 95.84 174.875 95.875C166.1 95.9162 162.531 98.0437 158 100.875Z" fill="white"/>
<path d="M236.75 98.375H227.375V140.25H236.75V98.375Z" fill="white"/>
<path d="M232.065 91.501C235.345 91.501 238.003 88.8427 238.003 85.5635C238.003 82.2843 235.345 79.626 232.065 79.626C228.786 79.626 226.128 82.2843 226.128 85.5635C226.128 88.8427 228.786 91.501 232.065 91.501Z" fill="white"/>
<path fill-rule="evenodd" clip-rule="evenodd" d="M83.6035 164.504L85.1397 164.503L90.3866 174.906L94.9279 164.533L96.4266 164.537L89.8122 179.614C89.5329 180.316 88.6541 181.519 86.7004 181.536C85.5754 181.545 84.3166 181.071 83.7622 180.237L84.901 179.452C85.0673 179.749 85.8235 180.155 86.6554 180.159C87.5185 180.164 88.2091 179.805 88.5335 179.118L89.6529 176.553L83.6035 164.504Z" fill="white"/>
<path fill-rule="evenodd" clip-rule="evenodd" d="M69.0723 159.002H70.4123L70.4255 166.341C71.793 164.679 73.6948 164.081 75.6398 164.055C79.7805 164 81.833 167.178 81.8392 170.639C81.8461 174.596 78.7867 177.078 75.7848 177.124C73.4523 177.159 71.5811 176.174 70.4336 174.761L70.4404 177.123L69.0698 177.131L69.0723 159.002ZM70.3954 170.635C70.4067 167.703 72.1286 165.484 75.6586 165.411C78.2192 165.357 80.3829 167 80.4279 170.584C80.4698 173.914 77.7348 175.773 75.6586 175.746C72.1598 175.701 70.3854 173.272 70.3954 170.635Z" fill="white"/>
<path fill-rule="evenodd" clip-rule="evenodd" d="M106.359 159.634L108.103 159.616L114.008 167.018L119.9 159.623L121.662 159.617L114.902 168.132L122.057 177.126L120.301 177.128L113.995 169.244L107.712 177.127L105.955 177.124L113.128 168.121L106.359 159.634Z" fill="white"/>
<path d="M126.658 164.623H125.29V177.127H126.658V164.623Z" fill="white"/>
<path d="M126.658 159.616H125.29V161.453H126.658V159.616Z" fill="white"/>
<path fill-rule="evenodd" clip-rule="evenodd" d="M132.318 166.415L131.555 165.278C132.545 164.664 133.54 164.047 136.025 164.11C138.463 164.172 141.244 165.971 141.227 168.371V177.131L139.857 177.132L139.857 175.651C138.552 176.872 137.006 177.398 135.293 177.442C132.532 177.513 130.414 176.002 130.418 173.501C130.422 171.565 131.25 169.053 135.823 169.001C137.738 168.978 139.858 169.537 139.858 169.537L139.859 168.503C139.893 167.156 138.316 165.487 135.746 165.485C134.109 165.484 133.267 165.791 132.318 166.415ZM139.86 170.97V173.51C138.632 175.307 137.037 176.074 135.153 176.073C133.023 176.073 131.83 175.201 131.785 173.431C131.733 171.422 133.151 170.391 135.925 170.369C137.237 170.358 138.549 170.595 139.86 170.97Z" fill="white"/>
<path fill-rule="evenodd" clip-rule="evenodd" d="M151.362 164.097C154.93 164.097 157.824 167.137 157.824 170.882C157.824 174.627 154.93 177.668 151.362 177.668C147.797 177.668 144.902 174.627 144.902 170.882C144.902 167.137 147.797 164.097 151.362 164.097ZM151.362 165.479C154.174 165.479 156.455 167.9 156.455 170.882C156.455 173.864 154.174 176.285 151.362 176.285C148.55 176.285 146.267 173.864 146.267 170.882C146.267 167.9 148.55 165.479 151.362 165.479Z" fill="white"/>
<path fill-rule="evenodd" clip-rule="evenodd" d="M161.504 164.612V177.107H162.854V169.643C162.873 168.151 163.954 165.455 167.086 165.456C168.729 165.457 170.548 166.283 170.629 168.07V177.107H172.004V168.469C172.017 167.284 173.542 165.626 175.992 165.587C178.192 165.551 179.636 166.859 179.667 168.931V177.127H181.017V168.998C181.048 166.133 179.086 164.159 175.948 164.191C174.373 164.207 172.823 164.665 171.517 166.251C170.617 164.991 169.279 164.059 166.973 164.08C165.573 164.094 164.154 164.559 162.854 165.941V164.612H161.504Z" fill="white"/>
<path d="M186.929 164.623H185.562V177.127H186.929V164.623Z" fill="white"/>
<path d="M186.929 159.616H185.562V161.453H186.929V159.616Z" fill="white"/>
</g>
<defs>
<clipPath id="clip0_384_358">
<rect width="256" height="256" fill="white"/>
</clipPath>
</defs>
</svg>
