<svg width="256" height="256" viewBox="0 0 256 256" fill="none" xmlns="http://www.w3.org/2000/svg">
<g clip-path="url(#clip0_384_368)">
<rect width="256" height="256" rx="60" fill="white"/>
<path fill-rule="evenodd" clip-rule="evenodd" d="M26.75 139.25H18V79.25H40.5C50.4944 79.2625 57.9525 85.23 58 95.5C58.0387 103.937 53.285 109.699 46.75 112.375L59.875 139.25H49.25L37.375 113H26.75V139.25ZM38 86.125H26.75V106.125H38.625C42.9656 106.178 49.185 103.495 49.25 96.125C49.3125 89.02 43.7162 86.1288 38 86.125Z" fill="#FF6900"/>
<path fill-rule="evenodd" clip-rule="evenodd" d="M103 121.125V113.625C103.166 104.603 97.4986 94.895 84.2498 94.875C69.3292 94.8519 63.5448 106.976 63.6248 117.375C63.7486 133.529 72.2773 141.159 86.1248 141.125C93.2017 141.108 97.583 139.032 101.75 136.75V129.875C96.9392 131.642 93.308 133.684 86.1248 133.625C76.5136 133.546 73.0355 126.171 72.9998 121.125H103ZM72.9998 114.875H94.8748V113C94.8105 107.644 91.1473 101.728 84.2498 101.75C76.3492 101.775 72.9223 108.941 72.9998 113V114.875Z" fill="#FF6900"/>
<path fill-rule="evenodd" clip-rule="evenodd" d="M148.625 137.375V78L139.875 80.5V96.75C137.376 95.3644 134.391 94.8975 131.125 94.875C115.239 94.7637 110.401 106.421 110.5 118C110.629 132.979 119.209 141.347 133 141.125C138.96 141.029 143.548 139.923 148.625 137.375ZM139.875 104.25V131.75C137.698 133.052 135.454 133.403 133 133.369C120.879 133.201 119.899 122.504 119.875 118C119.829 109.217 122.846 102.247 131.75 102.375C135.218 102.425 137.218 102.884 139.875 104.25Z" fill="#FF6900"/>
<path fill-rule="evenodd" clip-rule="evenodd" d="M158 99.875V139.25H166.75V104.875C168.519 103.373 170.6 102.381 174.25 102.375C179.325 102.367 183.562 105.156 183.625 111.125V139.25H193V106.125C195.069 103.876 197.131 102.384 201.75 102.375C207.881 102.364 209.85 106.114 209.875 111.125V139.25H218.625V108.625C218.475 97.5444 209.494 94.8494 203.625 94.875C195.312 94.9112 192.588 97.2125 188.625 99.875C185.337 96.7381 182.269 94.84 174.875 94.875C166.1 94.9162 162.531 97.0437 158 99.875Z" fill="#FF6900"/>
<path d="M236.75 97.375H227.375V139.25H236.75V97.375Z" fill="#FF6900"/>
<path d="M232.065 90.501C235.345 90.501 238.003 87.8427 238.003 84.5635C238.003 81.2843 235.345 78.626 232.065 78.626C228.786 78.626 226.128 81.2843 226.128 84.5635C226.128 87.8427 228.786 90.501 232.065 90.501Z" fill="#FF6900"/>
<path fill-rule="evenodd" clip-rule="evenodd" d="M83.6035 163.504L85.1397 163.503L90.3866 173.906L94.9279 163.533L96.4266 163.537L89.8122 178.614C89.5329 179.316 88.6541 180.519 86.7004 180.536C85.5754 180.545 84.3166 180.071 83.7622 179.237L84.901 178.452C85.0673 178.749 85.8235 179.155 86.6554 179.159C87.5185 179.164 88.2091 178.805 88.5335 178.118L89.6529 175.553L83.6035 163.504Z" fill="#FF6900"/>
<path fill-rule="evenodd" clip-rule="evenodd" d="M69.0723 158.002H70.4123L70.4255 165.341C71.793 163.679 73.6948 163.081 75.6398 163.055C79.7805 163 81.833 166.178 81.8392 169.639C81.8461 173.596 78.7867 176.078 75.7848 176.124C73.4523 176.159 71.5811 175.174 70.4336 173.761L70.4404 176.123L69.0698 176.131L69.0723 158.002ZM70.3954 169.635C70.4067 166.703 72.1286 164.484 75.6586 164.411C78.2192 164.357 80.3829 166 80.4279 169.584C80.4698 172.914 77.7348 174.773 75.6586 174.746C72.1598 174.701 70.3854 172.272 70.3954 169.635Z" fill="#FF6900"/>
<path fill-rule="evenodd" clip-rule="evenodd" d="M106.359 158.634L108.103 158.616L114.008 166.018L119.9 158.623L121.662 158.617L114.902 167.132L122.057 176.126L120.301 176.128L113.995 168.244L107.712 176.127L105.955 176.124L113.128 167.121L106.359 158.634Z" fill="#FF6900"/>
<path d="M126.658 163.623H125.29V176.127H126.658V163.623Z" fill="#FF6900"/>
<path d="M126.658 158.616H125.29V160.453H126.658V158.616Z" fill="#FF6900"/>
<path fill-rule="evenodd" clip-rule="evenodd" d="M132.318 165.415L131.555 164.278C132.545 163.664 133.54 163.047 136.025 163.11C138.463 163.172 141.244 164.971 141.227 167.371V176.131L139.857 176.132L139.857 174.651C138.552 175.872 137.006 176.398 135.293 176.442C132.532 176.513 130.414 175.002 130.418 172.501C130.422 170.565 131.25 168.053 135.823 168.001C137.738 167.978 139.858 168.537 139.858 168.537L139.859 167.503C139.893 166.156 138.316 164.487 135.746 164.485C134.109 164.484 133.267 164.791 132.318 165.415ZM139.86 169.97V172.51C138.632 174.307 137.037 175.074 135.153 175.073C133.023 175.073 131.83 174.201 131.785 172.431C131.733 170.422 133.151 169.391 135.925 169.369C137.237 169.358 138.549 169.595 139.86 169.97Z" fill="#FF6900"/>
<path fill-rule="evenodd" clip-rule="evenodd" d="M151.362 163.097C154.93 163.097 157.824 166.137 157.824 169.882C157.824 173.627 154.93 176.668 151.362 176.668C147.797 176.668 144.902 173.627 144.902 169.882C144.902 166.137 147.797 163.097 151.362 163.097ZM151.362 164.479C154.174 164.479 156.455 166.9 156.455 169.882C156.455 172.864 154.174 175.285 151.362 175.285C148.55 175.285 146.267 172.864 146.267 169.882C146.267 166.9 148.55 164.479 151.362 164.479Z" fill="#FF6900"/>
<path fill-rule="evenodd" clip-rule="evenodd" d="M161.504 163.612V176.107H162.854V168.643C162.873 167.151 163.954 164.455 167.086 164.456C168.729 164.457 170.548 165.283 170.629 167.07V176.107H172.004V167.469C172.017 166.284 173.542 164.626 175.992 164.587C178.192 164.551 179.636 165.859 179.667 167.931V176.127H181.017V167.998C181.048 165.133 179.086 163.159 175.948 163.191C174.373 163.207 172.823 163.665 171.517 165.251C170.617 163.991 169.279 163.059 166.973 163.08C165.573 163.094 164.154 163.559 162.854 164.941V163.612H161.504Z" fill="#FF6900"/>
<path d="M186.929 163.623H185.562V176.127H186.929V163.623Z" fill="#FF6900"/>
<path d="M186.929 158.616H185.562V160.453H186.929V158.616Z" fill="#FF6900"/>
</g>
<defs>
<clipPath id="clip0_384_368">
<rect width="256" height="256" fill="white"/>
</clipPath>
</defs>
</svg>
