<svg width="256" height="256" viewBox="0 0 256 256" fill="none" xmlns="http://www.w3.org/2000/svg">
<g clip-path="url(#clip0_248_4589)">
<path d="M196 0H60C26.8629 0 0 26.8629 0 60V196C0 229.137 26.8629 256 60 256H196C229.137 256 256 229.137 256 196V60C256 26.8629 229.137 0 196 0Z" fill="#F4F2ED"/>
<path fill-rule="evenodd" clip-rule="evenodd" d="M199.568 176.666C201.185 197.441 201.185 207.18 201.185 217.81H153.117C153.117 215.495 153.159 213.376 153.2 211.229C153.331 204.551 153.467 197.588 152.384 183.528C150.955 162.942 142.091 158.368 125.791 158.368H111.35H50.1902V120.914H128.079C148.667 120.914 158.962 114.651 158.962 98.0681C158.962 83.4862 148.667 74.65 128.079 74.65H50.1902V38H136.657C183.268 38 206.431 60.0151 206.431 95.1814C206.431 121.485 190.132 138.639 168.112 141.499C186.7 145.216 197.566 155.795 199.568 176.666Z" fill="black"/>
<path fill-rule="evenodd" clip-rule="evenodd" d="M199.568 176.666C201.185 197.441 201.185 207.18 201.185 217.81H153.117C153.117 215.495 153.159 213.376 153.2 211.229C153.331 204.551 153.467 197.588 152.384 183.528C150.955 162.942 142.091 158.368 125.791 158.368H111.35H50.1902V120.914H128.079C148.667 120.914 158.962 114.651 158.962 98.0681C158.962 83.4862 148.667 74.65 128.079 74.65H50.1902V38H136.657C183.268 38 206.431 60.0151 206.431 95.1814C206.431 121.485 190.132 138.639 168.112 141.499C186.7 145.216 197.566 155.795 199.568 176.666Z" fill="black"/>
<path d="M50.1902 217.81V189.889H101.015C109.504 189.889 111.347 196.185 111.347 199.941V217.81H50.1902Z" fill="black"/>
<path d="M50 217.81V218H50.1901H111.348H111.538V217.81V199.941C111.538 198.038 111.072 195.48 109.517 193.393C107.956 191.296 105.313 189.699 101.015 189.699H50.1901H50V189.889V217.81Z" fill="black" stroke="white" stroke-opacity="0.8" stroke-width="0.32"/>
</g>
<defs>
<clipPath id="clip0_248_4589">
<rect width="256" height="256" fill="white"/>
</clipPath>
</defs>
</svg>
