<svg width="256" height="256" viewBox="0 0 256 256" fill="none" xmlns="http://www.w3.org/2000/svg">
<g clip-path="url(#clip0_248_5128)">
<path d="M196 0H60C26.8629 0 0 26.8629 0 60V196C0 229.137 26.8629 256 60 256H196C229.137 256 256 229.137 256 196V60C256 26.8629 229.137 0 196 0Z" fill="#F26207"/>
<path d="M45 40.5C45 33.5967 50.5967 28 57.5 28H115.833C122.737 28 128.333 33.5967 128.333 40.5V94.6668H57.5C50.5967 94.6668 45 89.0701 45 82.1668V40.5Z" fill="white"/>
<path d="M128.332 94.6689H199.166C206.069 94.6689 211.666 100.266 211.666 107.169V148.836C211.666 155.739 206.069 161.336 199.166 161.336H128.332V94.6689Z" fill="white"/>
<path d="M45 173.833C45 166.93 50.5967 161.333 57.5 161.333H128.333V215.5C128.333 222.403 122.737 228 115.833 228H57.5C50.5967 228 45 222.403 45 215.5V173.833Z" fill="white"/>
</g>
<defs>
<clipPath id="clip0_248_5128">
<rect width="256" height="256" fill="white"/>
</clipPath>
</defs>
</svg>
