<svg width="256" height="256" viewBox="0 0 256 256" fill="none" xmlns="http://www.w3.org/2000/svg">
<g clip-path="url(#clip0_248_3079)">
<rect width="256" height="256" rx="60" fill="#242938"/>
<path d="M135.754 168.149C96.4352 201.738 68.5148 204.107 54.2162 189.796C41.0416 176.622 51.968 143.576 78.5951 110.942L28 60.3588H60.3321L110.589 110.616C78.8731 142.525 60.3804 176.5 69.9411 186.061C77.8579 193.99 102.225 183.003 128.513 160.909L135.754 168.149Z" fill="#9856F6"/>
<path d="M227.988 195.731H195.656L145.399 145.474C177.115 113.577 195.607 79.5892 186.059 70.0406C178.143 62.1117 153.751 73.1106 127.463 95.2053L120.223 87.9653C159.553 54.3641 187.485 51.983 201.784 66.2937C214.959 79.4683 204.044 112.514 177.405 145.148L228 195.731H227.988Z" fill="#9856F6"/>
</g>
<defs>
<clipPath id="clip0_248_3079">
<rect width="256" height="256" fill="white"/>
</clipPath>
</defs>
</svg>
