<svg width="256" height="256" viewBox="0 0 256 256" fill="none" xmlns="http://www.w3.org/2000/svg">
<g clip-path="url(#clip0_248_3740)">
<path d="M196 0H60C26.8629 0 0 26.8629 0 60V196C0 229.137 26.8629 256 60 256H196C229.137 256 256 229.137 256 196V60C256 26.8629 229.137 0 196 0Z" fill="url(#paint0_linear_248_3740)"/>
<path d="M204.144 93.9191C204.144 82.1083 201.015 71.1052 195.665 61.5152C181.229 46.6761 149.936 43.2439 142.163 61.4143C134.188 80.0894 155.589 100.783 164.977 99.1683C176.888 97.0484 162.857 69.7928 162.857 69.7928C181.027 104.115 176.888 93.6163 143.98 125.112C111.071 156.607 77.3552 223.131 72.4088 225.957C72.2069 226.058 72.005 226.159 71.7021 226.26H200.813C203.135 226.26 204.548 223.837 203.538 221.819L169.822 154.992C169.116 153.579 169.62 151.762 171.034 150.954C190.819 139.648 204.144 118.348 204.144 93.9191Z" fill="url(#paint1_linear_248_3740)"/>
<path d="M204.144 93.9191C204.144 82.1083 201.015 71.1052 195.665 61.5152C181.229 46.6761 149.936 43.2439 142.163 61.4143C134.188 80.0894 155.589 100.783 164.977 99.1683C176.888 97.0484 162.857 69.7928 162.857 69.7928C181.027 104.115 176.888 93.6163 143.98 125.112C111.071 156.607 77.3552 223.131 72.4088 225.957C72.2069 226.058 72.005 226.159 71.7021 226.26H200.813C203.135 226.26 204.548 223.837 203.538 221.819L169.822 154.992C169.116 153.579 169.62 151.762 171.034 150.954C190.819 139.648 204.144 118.348 204.144 93.9191Z" fill="white"/>
<path d="M82.2005 138.335C129.242 51.8234 135.399 43.0411 159.93 43.0411C172.851 43.0411 185.772 48.896 194.251 59.1925C182.844 40.7193 162.554 28.4038 139.336 28H59.3866C57.6705 28 56.3582 29.4133 56.3582 31.0284V192.24C61.1026 180.026 69.1784 162.461 82.2005 138.335Z" fill="white"/>
<path d="M72.4088 225.957C77.3552 223.13 110.97 156.607 143.879 125.111C176.788 93.6158 181.027 104.114 162.756 69.7924C162.756 69.7924 93.1029 167.509 67.8662 215.862" fill="url(#paint2_linear_248_3740)"/>
<path d="M143.879 125.111C110.97 156.606 77.3552 223.13 72.4088 225.956C67.4624 228.783 59.2857 229.086 54.945 224.24C50.3015 218.991 43.0333 210.612 82.3016 138.436C129.343 51.9243 135.5 43.142 160.031 43.142C172.952 43.142 185.873 48.9969 194.352 59.2934C194.857 60.0001 195.261 60.8076 195.766 61.6152C181.33 46.776 150.037 43.3439 142.264 61.5143C134.289 80.1894 155.69 100.883 165.078 99.2683C176.99 97.1484 162.958 69.8928 162.958 69.8928C181.027 104.013 176.788 93.5144 143.879 125.111Z" fill="url(#paint3_linear_248_3740)"/>
<path opacity="0.3" d="M86.0366 142.272C133.078 55.7603 139.235 46.9779 163.766 46.9779C174.365 46.9779 185.065 50.9149 193.141 58.0821C184.762 48.4921 172.245 43.142 159.829 43.142C135.299 43.142 129.141 51.8234 82.0997 138.436C42.8314 210.612 50.0996 218.991 54.7431 224.24C55.4497 224.947 56.1564 225.654 56.9639 226.158C53.027 220.101 51.21 206.272 86.0366 142.272Z" fill="#FF3333"/>
</g>
<defs>
<linearGradient id="paint0_linear_248_3740" x1="128" y1="0" x2="128" y2="256" gradientUnits="userSpaceOnUse">
<stop stop-color="#F73131"/>
<stop offset="1" stop-color="#C33337"/>
</linearGradient>
<linearGradient id="paint1_linear_248_3740" x1="137.923" y1="49.0509" x2="137.923" y2="226.26" gradientUnits="userSpaceOnUse">
<stop stop-color="#F73131"/>
<stop offset="1" stop-color="#C33337"/>
</linearGradient>
<linearGradient id="paint2_linear_248_3740" x1="120.682" y1="69.7924" x2="120.682" y2="225.957" gradientUnits="userSpaceOnUse">
<stop stop-color="#F73131"/>
<stop offset="1" stop-color="#C33337"/>
</linearGradient>
<linearGradient id="paint3_linear_248_3740" x1="123.484" y1="43.142" x2="123.484" y2="228" gradientUnits="userSpaceOnUse">
<stop stop-color="#F73131"/>
<stop offset="1" stop-color="#C33337"/>
</linearGradient>
<clipPath id="clip0_248_3740">
<rect width="256" height="256" fill="white"/>
</clipPath>
</defs>
</svg>
