<svg width="256" height="256" viewBox="0 0 256 256" fill="none" xmlns="http://www.w3.org/2000/svg">
<g clip-path="url(#clip0_248_3749)">
<rect width="256" height="256" rx="60" fill="#242938"/>
<path d="M204.144 93.9182C204.144 82.1075 201.015 71.1043 195.665 61.5144C181.229 46.6752 149.936 43.243 142.163 61.4134C134.188 80.0885 155.589 100.783 164.977 99.1675C176.889 97.0476 162.857 69.792 162.857 69.792C181.028 104.114 176.889 93.6154 143.98 125.111C111.071 156.606 77.3554 223.13 72.409 225.956C72.2071 226.057 72.0052 226.158 71.7024 226.259H200.813C203.135 226.259 204.548 223.837 203.539 221.818L169.822 154.991C169.116 153.578 169.621 151.761 171.034 150.953C190.819 139.647 204.144 118.347 204.144 93.9182Z" fill="url(#paint0_linear_248_3749)"/>
<path d="M204.144 93.9182C204.144 82.1075 201.015 71.1043 195.665 61.5144C181.229 46.6752 149.936 43.243 142.163 61.4134C134.188 80.0885 155.589 100.783 164.977 99.1675C176.889 97.0476 162.857 69.792 162.857 69.792C181.028 104.114 176.889 93.6154 143.98 125.111C111.071 156.606 77.3554 223.13 72.409 225.956C72.2071 226.057 72.0052 226.158 71.7024 226.259H200.813C203.135 226.259 204.548 223.837 203.539 221.818L169.822 154.991C169.116 153.578 169.621 151.761 171.034 150.953C190.819 139.647 204.144 118.347 204.144 93.9182Z" fill="url(#paint1_linear_248_3749)"/>
<path d="M72.4088 225.956C77.3552 223.13 110.97 156.606 143.879 125.111C176.788 93.6152 181.027 104.114 162.756 69.7917C162.756 69.7917 93.1029 167.508 67.8662 215.862" fill="url(#paint2_linear_248_3749)"/>
<path d="M82.2005 138.335C129.242 51.8234 135.399 43.0411 159.93 43.0411C172.851 43.0411 185.772 48.896 194.251 59.1925C182.844 40.7193 162.554 28.4038 139.336 28H59.3866C57.6705 28 56.3582 29.4133 56.3582 31.0284V192.24C61.1026 180.026 69.1784 162.461 82.2005 138.335Z" fill="url(#paint3_linear_248_3749)"/>
<path d="M143.879 125.111C110.97 156.606 77.3552 223.13 72.4088 225.957C67.4624 228.783 59.2857 229.086 54.945 224.24C50.3015 218.991 43.0333 210.613 82.3016 138.436C129.343 51.9244 135.5 43.1421 160.031 43.1421C172.952 43.1421 185.873 48.997 194.352 59.2936C194.857 60.0002 195.261 60.8078 195.766 61.6153C181.33 46.7762 150.037 43.344 142.264 61.5144C134.289 80.1895 155.69 100.884 165.078 99.2684C176.99 97.1486 162.958 69.893 162.958 69.893C181.027 104.013 176.788 93.5145 143.879 125.111Z" fill="url(#paint4_linear_248_3749)"/>
<path opacity="0.3" d="M86.0366 142.272C133.078 55.7604 139.235 46.9781 163.766 46.9781C174.365 46.9781 185.065 50.915 193.141 58.0822C184.762 48.4923 172.245 43.1421 159.829 43.1421C135.299 43.1421 129.141 51.8235 82.0997 138.436C42.8314 210.613 50.0996 218.991 54.7431 224.24C55.4497 224.947 56.1564 225.654 56.9639 226.158C53.027 220.102 51.21 206.272 86.0366 142.272Z" fill="url(#paint5_linear_248_3749)"/>
</g>
<defs>
<linearGradient id="paint0_linear_248_3749" x1="107.25" y1="134.556" x2="161.185" y2="147.165" gradientUnits="userSpaceOnUse">
<stop stop-color="#FF6533"/>
<stop offset="0.157" stop-color="#FF5633"/>
<stop offset="0.434" stop-color="#FF4333"/>
<stop offset="0.714" stop-color="#FF3733"/>
<stop offset="1" stop-color="#FF3333"/>
</linearGradient>
<linearGradient id="paint1_linear_248_3749" x1="98.8089" y1="116.679" x2="195.473" y2="191.629" gradientUnits="userSpaceOnUse">
<stop stop-color="#BF3338"/>
<stop offset="1" stop-color="#FF3333"/>
</linearGradient>
<linearGradient id="paint2_linear_248_3749" x1="101.969" y1="131.434" x2="115.978" y2="146.144" gradientUnits="userSpaceOnUse">
<stop stop-color="#FF6533"/>
<stop offset="0.157" stop-color="#FF5633"/>
<stop offset="0.434" stop-color="#FF4333"/>
<stop offset="0.714" stop-color="#FF3733"/>
<stop offset="1" stop-color="#FF3333"/>
</linearGradient>
<linearGradient id="paint3_linear_248_3749" x1="127.442" y1="156.756" x2="123.238" y2="96.5163" gradientUnits="userSpaceOnUse">
<stop stop-color="#FF6533"/>
<stop offset="0.157" stop-color="#FF5633"/>
<stop offset="0.434" stop-color="#FF4333"/>
<stop offset="0.714" stop-color="#FF3733"/>
<stop offset="1" stop-color="#FF3333"/>
</linearGradient>
<linearGradient id="paint4_linear_248_3749" x1="109.232" y1="130.402" x2="129.132" y2="143.934" gradientUnits="userSpaceOnUse">
<stop stop-color="#FBB040"/>
<stop offset="1" stop-color="#FB8840"/>
</linearGradient>
<linearGradient id="paint5_linear_248_3749" x1="129.621" y1="53.8941" x2="109.308" y2="277.341" gradientUnits="userSpaceOnUse">
<stop stop-color="white"/>
<stop offset="1" stop-color="white" stop-opacity="0"/>
</linearGradient>
<clipPath id="clip0_248_3749">
<rect width="256" height="256" fill="white"/>
</clipPath>
</defs>
</svg>
