<svg width="256" height="256" viewBox="0 0 256 256" fill="none" xmlns="http://www.w3.org/2000/svg">
<g clip-path="url(#clip0_248_4832)">
<rect width="256" height="256" rx="60" fill="#242938"/>
<path d="M78.5155 58.4186C78.5155 69.6916 69.6668 78.8372 58.7613 78.8372C47.8487 78.8372 39 69.6916 39 58.4186C39 47.1385 47.8487 38 58.7613 38C69.6668 38 78.5155 47.1385 78.5155 58.4186Z" fill="white"/>
<path d="M78.5155 127.999C78.5155 139.272 69.6668 148.417 58.7613 148.417C47.8487 148.417 39 139.272 39 127.999C39 116.719 47.8487 107.581 58.7613 107.581C69.6668 107.581 78.5155 116.719 78.5155 127.999Z" fill="white"/>
<path d="M78.5155 197.58C78.5155 208.854 69.6668 218 58.7613 218C47.8487 218 39 208.854 39 197.58C39 186.308 47.8487 177.162 58.7613 177.162C69.6668 177.162 78.5155 186.308 78.5155 197.58Z" fill="white"/>
<path d="M147.461 127.999C147.461 139.272 138.619 148.417 127.707 148.417C116.794 148.417 107.945 139.272 107.945 127.999C107.945 116.719 116.794 107.581 127.707 107.581C138.619 107.581 147.461 116.719 147.461 127.999Z" fill="white"/>
<path d="M147.461 58.4186C147.461 69.6916 138.619 78.8372 127.707 78.8372C116.794 78.8372 107.945 69.6916 107.945 58.4186C107.945 47.1385 116.794 38 127.707 38C138.619 38 147.461 47.1385 147.461 58.4186Z" fill="white"/>
<path d="M216.415 127.999C216.415 139.272 207.566 148.417 196.653 148.417C185.741 148.417 176.899 139.272 176.899 127.999C176.899 116.719 185.741 107.581 196.653 107.581C207.566 107.581 216.415 116.719 216.415 127.999Z" fill="white"/>
<path d="M216.415 58.4186C216.415 69.6916 207.566 78.8372 196.653 78.8372C185.741 78.8372 176.899 69.6916 176.899 58.4186C176.899 47.1385 185.741 38 196.653 38C207.566 38 216.415 47.1385 216.415 58.4186Z" fill="white"/>
<path d="M216.415 197.58C216.415 208.854 207.566 218 196.653 218C185.741 218 176.899 208.854 176.899 197.58C176.899 186.308 185.741 177.162 196.653 177.162C207.566 177.162 216.415 186.308 216.415 197.58Z" fill="white"/>
<path d="M147.462 197.58C147.462 208.854 138.619 218 127.707 218C116.795 218 107.945 208.854 107.945 197.58C107.945 186.308 116.795 177.162 127.707 177.162C138.619 177.162 147.462 186.308 147.462 197.58Z" fill="white"/>
</g>
<defs>
<clipPath id="clip0_248_4832">
<rect width="256" height="256" fill="white"/>
</clipPath>
</defs>
</svg>
