<svg width="256" height="256" viewBox="0 0 256 256" fill="none" xmlns="http://www.w3.org/2000/svg">
<g clip-path="url(#clip0_364_52)">
<rect width="256" height="256" rx="60" fill="#242938"/>
<path fill-rule="evenodd" clip-rule="evenodd" d="M142.681 119.828C141.713 122.319 140.775 124.732 139.832 127.158H145.214C144.372 124.72 143.539 122.31 142.681 119.828ZM144.603 113.049C144.965 113.162 145.148 113.425 145.287 113.762C147.954 120.211 150.626 126.658 153.301 133.104C153.726 134.13 154.265 135.09 155.084 135.868C156.193 136.92 157.516 137.358 159.035 137.101C160.742 136.813 161.688 135.669 161.689 133.949C161.692 129.28 161.693 124.611 161.686 119.943C161.685 119.334 161.671 118.72 161.594 118.117C161.422 116.777 160.771 116.116 159.416 115.838C159.111 115.775 158.826 115.683 158.618 115.439C158.335 115.107 158.433 114.765 158.854 114.647C159.01 114.604 159.18 114.593 159.344 114.594C161.269 114.605 163.193 114.634 165.117 114.633C166.885 114.633 168.653 114.603 170.421 114.587C170.517 114.586 170.615 114.58 170.707 114.598C170.938 114.643 171.103 114.775 171.168 115.004C171.233 115.233 171.134 115.414 170.954 115.543C170.837 115.627 170.697 115.685 170.561 115.738C170.165 115.892 169.761 116.028 169.367 116.189C168.347 116.608 167.821 117.375 167.765 118.459C167.745 118.828 167.721 119.198 167.721 119.567C167.718 124.193 167.717 128.818 167.722 133.444C167.723 133.898 167.745 134.356 167.801 134.807C167.969 136.155 168.586 136.796 169.933 137.093C170.175 137.146 170.417 137.236 170.631 137.357C170.85 137.481 171.003 137.693 170.936 137.962C170.867 138.24 170.617 138.323 170.367 138.328C169.705 138.343 169.044 138.334 168.382 138.335C165.238 138.342 162.095 138.356 158.951 138.353C156.669 138.35 154.387 138.31 152.106 138.31C150.137 138.31 148.169 138.343 146.201 138.362C146.018 138.364 145.835 138.371 145.653 138.364C145.33 138.35 145.088 138.165 145.036 137.903C144.99 137.667 145.128 137.434 145.424 137.296C145.604 137.212 145.802 137.166 145.986 137.091C146.364 136.937 146.753 136.802 147.11 136.611C147.817 136.231 148.059 135.729 147.865 134.953C147.707 134.322 147.475 133.708 147.265 133.09C146.899 132.015 146.522 130.944 146.158 129.869C146.103 129.707 146.032 129.642 145.847 129.642C143.591 129.649 141.335 129.645 139.079 129.652C138.989 129.653 138.845 129.716 138.819 129.784C138.425 130.803 138.03 131.822 137.672 132.853C137.485 133.393 137.437 133.965 137.514 134.535C137.649 135.539 138.24 136.217 139.147 136.617C139.62 136.825 140.14 136.928 140.628 137.104C140.908 137.204 141.211 137.308 141.426 137.497C141.768 137.797 141.633 138.198 141.186 138.306C141.019 138.346 140.84 138.354 140.667 138.353C138.995 138.34 137.323 138.307 135.651 138.31C133.64 138.313 131.628 138.36 129.617 138.361C127.814 138.362 126.012 138.31 124.209 138.31C122.45 138.31 120.691 138.347 118.932 138.365C118.454 138.37 118.193 138.21 118.143 137.896C118.094 137.589 118.304 137.355 118.748 137.2C119.165 137.054 119.583 136.905 119.993 136.739C120.938 136.359 121.407 135.653 121.391 134.651C121.374 133.645 121.341 132.64 121.3 131.635C121.122 127.221 120.938 122.806 120.756 118.392C120.754 118.343 120.747 118.293 120.691 118.227C120.649 118.328 120.605 118.429 120.565 118.531C118.073 124.892 115.581 131.253 113.086 137.612C113.002 137.827 112.902 138.043 112.766 138.229C112.264 138.919 111.387 138.968 110.819 138.328C110.646 138.133 110.514 137.886 110.422 137.641C108.222 131.814 106.03 125.985 103.837 120.155C103.677 119.728 103.519 119.3 103.359 118.874C103.333 118.805 103.299 118.74 103.227 118.68C103.17 119.376 103.113 120.073 103.058 120.77C102.836 123.598 102.612 126.425 102.393 129.254C102.279 130.727 102.161 132.201 102.074 133.677C102.054 134.031 102.118 134.398 102.198 134.748C102.437 135.804 103.144 136.454 104.158 136.769C104.803 136.969 105.48 137.07 106.131 137.255C106.395 137.329 106.672 137.464 106.867 137.649C107.17 137.937 107.049 138.301 106.644 138.419C106.48 138.466 106.3 138.478 106.128 138.478C104.038 138.466 101.948 138.438 99.8578 138.437C98.2467 138.437 96.6357 138.469 95.0246 138.483C94.9051 138.484 94.7762 138.477 94.6672 138.435C94.2397 138.271 94.1722 137.779 94.5446 137.516C94.6829 137.419 94.851 137.354 95.0144 137.301C96.1571 136.926 97.2295 136.43 98.1162 135.601C99.1042 134.677 99.5679 133.515 99.7644 132.208C100.175 129.48 100.617 126.757 101.043 124.031C101.267 122.596 101.537 121.165 101.692 119.723C101.904 117.745 100.883 116.429 98.9078 115.986C98.7143 115.943 98.5161 115.892 98.3404 115.805C98.064 115.668 97.9322 115.413 97.9725 115.179C98.0098 114.962 98.2119 114.775 98.5311 114.755C99.0512 114.723 99.5742 114.728 100.096 114.728C102.343 114.725 104.589 114.729 106.836 114.721C107.325 114.719 107.326 114.699 107.497 115.144C109.5 120.356 111.502 125.568 113.504 130.78C113.53 130.849 113.561 130.916 113.608 131.026C113.658 130.922 113.692 130.858 113.72 130.791C115.862 125.531 118.006 120.272 120.14 115.009C120.233 114.782 120.344 114.714 120.59 114.714C123.35 114.719 126.11 114.71 128.871 114.705C128.941 114.705 129.011 114.702 129.08 114.709C129.405 114.741 129.653 114.949 129.692 115.218C129.726 115.45 129.574 115.676 129.267 115.8C128.97 115.921 128.659 116.01 128.36 116.126C126.873 116.699 126.426 117.302 126.467 118.867C126.503 120.292 126.612 121.717 126.696 123.141C126.807 125.003 126.926 126.864 127.041 128.726C127.147 130.425 127.245 132.124 127.362 133.822C127.404 134.433 127.54 135.028 127.807 135.588C128.217 136.448 128.912 136.9 129.853 137.037C130.998 137.204 131.942 136.843 132.736 136.038C133.489 135.276 134.016 134.369 134.467 133.415C137.581 126.821 140.695 120.226 143.801 113.628C143.941 113.33 144.142 113.146 144.446 113.049H144.603ZM216.708 116.236V126.131C217.209 126.012 217.687 125.92 218.151 125.783C219.436 125.403 220.587 124.792 221.404 123.706C222.492 122.259 222.71 120.627 222.325 118.904C222.103 117.908 221.481 117.203 220.538 116.79C219.319 116.257 218.022 116.247 216.708 116.236ZM238 142.816C237.805 143.071 237.519 143.128 237.223 143.175C233.06 143.839 229.464 142.611 226.317 139.95C223.391 137.476 221.397 134.369 220.075 130.821C219.955 130.499 219.848 130.171 219.745 129.844C219.449 128.905 218.775 128.335 217.874 128.005C217.504 127.869 217.113 127.789 216.688 127.672V128.014C216.688 129.931 216.683 131.849 216.691 133.766C216.693 134.168 216.722 134.574 216.772 134.974C216.931 136.24 217.529 136.885 218.794 137.185C218.904 137.211 219.017 137.226 219.126 137.254C219.412 137.326 219.665 137.456 219.829 137.71C220.008 137.987 219.926 138.269 219.612 138.376C219.419 138.441 219.204 138.472 218.999 138.471C217.292 138.461 215.586 138.425 213.879 138.427C211.92 138.429 209.961 138.461 208.001 138.48C207.906 138.481 207.808 138.488 207.715 138.471C207.467 138.426 207.273 138.303 207.212 138.046C207.149 137.782 207.277 137.593 207.495 137.463C207.62 137.389 207.763 137.344 207.901 137.291C208.353 137.114 208.815 136.957 209.258 136.76C210.119 136.376 210.544 135.688 210.608 134.772C210.631 134.438 210.657 134.102 210.658 133.768C210.659 128.953 210.658 124.139 210.652 119.325C210.651 118.982 210.61 118.639 210.572 118.297C210.469 117.367 209.958 116.724 209.103 116.352C208.69 116.172 208.252 116.051 207.835 115.879C207.64 115.798 207.436 115.692 207.295 115.543C207.064 115.297 207.164 115.005 207.485 114.895C207.573 114.865 207.672 114.853 207.766 114.85C211.004 114.775 214.242 114.7 217.48 114.628C219.162 114.591 220.842 114.612 222.514 114.805C223.842 114.958 225.148 115.209 226.364 115.786C228.527 116.812 229.44 118.606 228.987 120.931C228.562 123.106 227.275 124.691 225.456 125.897C224.96 126.226 224.425 126.498 223.897 126.803C223.897 126.799 223.891 126.818 223.897 126.83C225.214 129.125 226.506 131.434 227.856 133.709C228.976 135.597 230.258 137.377 231.815 138.946C233.108 140.25 234.549 141.343 236.335 141.917C236.624 142.01 236.922 142.076 237.218 142.145C237.531 142.218 237.808 142.342 238 142.61V142.816ZM27.532 116.236V126.131C28.0317 126.011 28.5094 125.919 28.9739 125.783C30.1627 125.434 31.2339 124.877 32.046 123.926C33.1818 122.596 33.4702 121.036 33.2435 119.357C33.0882 118.207 32.5157 117.324 31.4296 116.823C30.1956 116.254 28.8714 116.249 27.532 116.236ZM50.1334 116.201V116.567C50.1334 122.259 50.1289 127.95 50.1398 133.642C50.141 134.258 50.1875 134.881 50.2896 135.488C50.4366 136.362 50.9936 136.924 51.8446 137.195C52.0925 137.274 52.3605 137.301 52.5972 137.403C52.829 137.502 53.0736 137.628 53.2392 137.809C53.4946 138.086 53.3741 138.423 53.0074 138.529C52.8274 138.582 52.6303 138.596 52.4412 138.595C50.6211 138.583 48.8011 138.554 46.9811 138.551C45.492 138.549 44.0029 138.578 42.5138 138.594C42.4656 138.594 42.4174 138.599 42.3211 138.605C42.4378 138.732 42.5201 138.827 42.6087 138.916C43.9105 140.224 45.35 141.331 47.1432 141.913C47.4317 142.007 47.7349 142.057 48.0244 142.148C48.2289 142.212 48.4423 142.283 48.6155 142.403C48.9063 142.603 48.8648 142.894 48.5427 143.046C48.4424 143.093 48.3296 143.123 48.2191 143.14C46.1982 143.456 44.1972 143.44 42.2269 142.813C39.9766 142.098 38.048 140.865 36.3578 139.257C33.6482 136.68 31.7798 133.58 30.6435 130.057C30.2539 128.849 29.4389 128.193 28.2699 127.861C28.037 127.795 27.7961 127.757 27.5429 127.703C27.5307 127.781 27.5139 127.837 27.514 127.894C27.5173 130.018 27.5148 132.141 27.5335 134.265C27.537 134.657 27.6017 135.053 27.6825 135.438C27.8456 136.215 28.3314 136.737 29.0793 137.013C29.3471 137.111 29.6284 137.177 29.9067 137.245C30.2132 137.319 30.4823 137.447 30.655 137.719C30.8249 137.986 30.7458 138.266 30.4449 138.37C30.2443 138.439 30.0202 138.471 29.8068 138.47C28.1697 138.461 26.5325 138.425 24.8954 138.427C22.8664 138.43 20.8373 138.461 18.8083 138.48C18.7126 138.481 18.6144 138.487 18.5218 138.469C18.2735 138.42 18.0839 138.288 18.0272 138.032C17.9713 137.781 18.0976 137.596 18.3056 137.471C18.4303 137.395 18.5717 137.345 18.7096 137.294C19.0434 137.17 19.3797 137.053 19.7148 136.932C20.8756 136.515 21.4432 135.687 21.4573 134.476C21.4594 134.304 21.472 134.132 21.472 133.96C21.4715 129.042 21.4734 124.124 21.4626 119.207C21.4617 118.789 21.3999 118.367 21.3215 117.955C21.2043 117.339 20.8549 116.849 20.2952 116.563C19.7809 116.3 19.2258 116.115 18.6901 115.892C18.539 115.829 18.3811 115.771 18.2475 115.681C18.0656 115.557 17.9485 115.377 18.0225 115.149C18.0934 114.93 18.2919 114.865 18.4999 114.854C18.8649 114.834 19.2306 114.824 19.5962 114.817C23.0612 114.749 26.526 114.658 29.9914 114.624C31.8737 114.606 33.7517 114.734 35.5855 115.214C36.3716 115.42 37.1271 115.7 37.8205 116.128C39.3518 117.071 40.0174 118.453 39.8902 120.207C39.7208 122.542 38.5022 124.289 36.6433 125.639C36.1065 126.029 35.5006 126.326 34.9256 126.664C34.8523 126.707 34.7744 126.743 34.6983 126.782C36.4814 129.782 37.9983 132.916 40.019 135.758C40.389 136.279 40.788 136.779 41.1652 137.294C41.2535 137.415 41.3413 137.438 41.473 137.385C41.899 137.211 42.3358 137.061 42.7519 136.868C43.5659 136.489 43.9848 135.831 44.0443 134.953C44.0786 134.447 44.102 133.94 44.1024 133.433C44.1069 128.98 44.1093 124.526 44.1001 120.072C44.0988 119.429 44.063 118.783 43.9874 118.145C43.9037 117.439 43.5331 116.871 42.8892 116.542C42.3824 116.284 41.8328 116.107 41.3047 115.889C41.146 115.823 40.9826 115.755 40.8446 115.657C40.6727 115.534 40.5457 115.332 40.6625 115.145C40.7475 115.008 40.9484 114.888 41.1128 114.865C41.4725 114.814 41.8419 114.825 42.2075 114.818C45.0804 114.76 47.9532 114.672 50.8264 114.658C53.0326 114.647 55.2297 114.816 57.3764 115.376C58.2632 115.607 59.1173 115.923 59.9083 116.39C61.7952 117.505 62.5555 119.161 62.3165 121.292C62.0658 123.528 60.914 125.274 59.2263 126.704C57.3912 128.258 55.2764 129.261 52.89 129.681C52.5492 129.741 52.1982 129.753 51.8511 129.765C51.7069 129.771 51.5546 129.738 51.4167 129.692C51.1452 129.601 51.0424 129.374 51.2049 129.143C51.3442 128.946 51.5278 128.734 51.7419 128.64C53.0962 128.045 53.9709 126.988 54.6421 125.743C55.4908 124.168 55.9164 122.496 55.716 120.7C55.4525 118.337 54.2336 116.986 51.8661 116.466C51.3094 116.344 50.7369 116.291 50.1334 116.201ZM194.254 124.996C194.305 125.01 194.329 125.021 194.353 125.021C195.711 125.004 197.071 125.012 198.427 124.955C198.941 124.933 199.461 124.803 199.956 124.65C201.035 124.317 201.789 123.594 202.29 122.602C202.363 122.457 202.441 122.309 202.545 122.186C202.656 122.053 202.788 122.078 202.836 122.248C202.877 122.394 202.893 122.552 202.891 122.704C202.88 123.77 202.847 124.836 202.848 125.901C202.849 127.088 202.879 128.274 202.892 129.46C202.894 129.596 202.888 129.737 202.858 129.869C202.841 129.943 202.776 130.043 202.715 130.058C202.656 130.073 202.56 130.005 202.504 129.951C202.443 129.893 202.401 129.812 202.365 129.734C201.649 128.163 200.356 127.378 198.677 127.255C197.247 127.151 195.806 127.185 194.37 127.159C194.337 127.158 194.304 127.174 194.254 127.186V127.417C194.254 128.991 194.25 130.564 194.255 132.137C194.258 133.176 194.458 134.172 195.166 134.977C196.31 136.276 197.798 136.704 199.481 136.438C201.152 136.174 202.572 135.351 203.859 134.309C205.632 132.872 207.016 131.119 208.078 129.115C208.169 128.943 208.272 128.691 208.496 128.768C208.746 128.853 208.622 129.105 208.571 129.288C207.756 132.22 206.934 135.15 206.125 138.083C206.058 138.325 205.965 138.397 205.707 138.395C201.396 138.361 197.085 138.329 192.774 138.319C190.354 138.314 187.933 138.349 185.512 138.364C185.4 138.364 185.284 138.354 185.177 138.324C184.96 138.264 184.814 138.119 184.769 137.897C184.723 137.678 184.826 137.506 185.001 137.389C185.129 137.304 185.276 137.244 185.421 137.188C185.842 137.026 186.271 136.881 186.688 136.71C187.658 136.311 188.14 135.573 188.186 134.548C188.205 134.127 188.229 133.706 188.229 133.285C188.232 128.858 188.233 124.43 188.229 120.002C188.228 119.158 188.178 118.317 187.887 117.511C187.411 116.19 186.391 115.52 185.003 115.791C181.993 116.378 179.209 117.524 176.917 119.579C175.599 120.76 174.441 122.115 173.211 123.392C173.133 123.473 173.058 123.556 172.97 123.651C173.168 123.959 173.368 124.258 173.556 124.565C174.759 126.527 176.221 128.304 177.628 130.118C179.512 132.547 181.429 134.953 183.378 137.331C184.513 138.715 185.758 140.014 187.258 141.028C187.857 141.432 188.531 141.727 189.169 142.076C189.389 142.196 189.623 142.301 189.812 142.459C190.069 142.673 190.026 142.955 189.72 143.101C189.537 143.189 189.323 143.258 189.122 143.259C186.227 143.274 183.413 142.868 180.77 141.621C178.453 140.528 176.583 138.892 174.961 136.956C173.374 135.062 172.06 132.985 170.76 130.898C169.939 129.58 169.122 128.261 168.294 126.948C168.198 126.796 168.209 126.707 168.318 126.571C170.049 124.403 171.773 122.231 173.498 120.061C173.885 119.574 174.305 119.11 174.648 118.595C174.872 118.258 175.023 117.859 175.133 117.468C175.264 117.003 175.095 116.576 174.679 116.325C174.351 116.128 173.965 116.026 173.606 115.879C173.361 115.777 173.101 115.697 172.879 115.557C172.694 115.441 172.574 115.238 172.644 114.999C172.714 114.76 172.925 114.664 173.147 114.653C173.642 114.629 174.139 114.631 174.634 114.63C177.438 114.624 180.242 114.617 183.046 114.617C185.197 114.617 187.348 114.626 189.499 114.632C190.126 114.633 190.753 114.642 191.38 114.643C195.944 114.649 200.508 114.655 205.072 114.655C205.296 114.654 205.38 114.705 205.412 114.939C205.629 116.497 205.865 118.052 206.095 119.608C206.101 119.65 206.12 119.701 206.105 119.735C206.043 119.866 205.97 119.993 205.901 120.121C205.777 120.047 205.611 120.001 205.535 119.894C205.174 119.38 204.84 118.846 204.489 118.324C204.389 118.174 204.256 118.045 204.153 117.897C203.349 116.732 202.19 116.165 200.816 115.949C198.709 115.618 196.635 115.771 194.586 116.342C194.322 116.415 194.245 116.533 194.246 116.805C194.259 119.427 194.254 122.049 194.254 124.671V124.996ZM80.8715 138.709C79.9712 138.782 79.114 138.865 78.255 138.918C75.9294 139.061 73.623 138.972 71.3776 138.277C68.0063 137.234 65.3615 135.29 63.7174 132.153C62.5856 129.993 62.22 127.681 62.4896 125.272C62.8045 122.458 63.9832 120.051 66.0505 118.083C67.7859 116.432 69.8601 115.376 72.1952 114.842C75.295 114.132 78.4114 114.102 81.4649 115.021C84.3267 115.881 86.7285 117.499 88.657 119.774C88.7325 119.863 88.8219 119.987 88.8142 120.088C88.8017 120.252 88.7573 120.461 88.6444 120.557C88.5624 120.627 88.3275 120.586 88.1983 120.522C88.0419 120.444 87.9164 120.297 87.7922 120.166C86.0839 118.364 84.0633 117.073 81.5999 116.54C79.8171 116.154 78.003 116.015 76.2609 116.642C72.5164 117.989 70.1145 120.591 69.5174 124.509C68.859 128.829 70.3001 132.503 73.6706 135.358C75.3829 136.808 77.4209 137.424 79.6898 137.197C80.5276 137.113 80.8957 136.704 80.8957 135.877C80.8958 134.605 80.9033 133.332 80.8912 132.06C80.8875 131.666 80.8489 131.27 80.7942 130.88C80.6647 129.955 80.1537 129.295 79.2593 128.999C78.5363 128.759 77.7792 128.622 77.0434 128.418C76.7723 128.343 76.4887 128.246 76.2643 128.086C75.8866 127.817 75.9461 127.371 76.3722 127.184C76.5725 127.096 76.8079 127.047 77.0276 127.047C80.9736 127.039 84.9195 127.041 88.8655 127.042C89.3217 127.042 89.6046 127.189 89.6863 127.458C89.7696 127.733 89.5777 128.081 89.2106 128.299C89.0921 128.369 88.9609 128.419 88.8342 128.475C88.5647 128.595 88.2866 128.699 88.0257 128.835C87.2906 129.218 86.9218 129.81 86.9276 130.65C86.9424 132.773 86.921 134.897 86.939 137.021C86.945 137.736 86.7645 138.383 86.3702 138.97C85.3116 140.544 83.9303 141.785 82.2882 142.744C82.0681 142.873 81.8114 142.961 81.5599 143.012C81.1885 143.088 80.9546 142.905 80.8978 142.534C80.8733 142.373 80.8729 142.208 80.8726 142.045C80.8705 141.03 80.8715 140.016 80.8715 139.001V138.709ZM234.712 116.335C235.297 116.4 235.545 116.12 235.426 115.563C235.368 115.29 235.17 115.145 234.894 115.199C234.825 115.213 234.724 115.306 234.72 115.368C234.703 115.69 234.712 116.015 234.712 116.335ZM235.055 117.745H233.754C234.568 118.575 235.953 118.328 236.318 117.748C236.191 117.748 236.067 117.733 235.949 117.751C235.716 117.787 235.585 117.685 235.472 117.494C235.305 117.213 235.112 116.948 234.928 116.678C234.884 116.613 234.831 116.555 234.782 116.494C234.758 116.501 234.735 116.509 234.711 116.517V117.042C234.711 117.494 234.711 117.494 235.055 117.745ZM234.04 116.393H234.038C234.038 116.076 234.052 115.757 234.03 115.441C234.023 115.347 233.929 115.211 233.845 115.184C233.765 115.159 233.609 115.222 233.55 115.295C233.048 115.917 233.036 116.813 233.5 117.481C233.585 117.602 233.659 117.688 233.834 117.631C234 117.577 234.042 117.472 234.04 117.32C234.038 117.011 234.04 116.702 234.04 116.393ZM233.828 115.033C233.929 115.038 234.011 115.045 234.094 115.046C234.468 115.05 234.842 115.04 235.216 115.06C235.394 115.069 235.578 115.113 235.746 115.176C235.994 115.269 236.134 115.461 236.14 115.731C236.148 116.006 236.026 116.21 235.776 116.335C235.7 116.372 235.622 116.404 235.522 116.449C235.779 116.808 236.02 117.152 236.268 117.491C236.418 117.697 236.477 117.691 236.629 117.475C237.281 116.548 236.947 115.257 235.921 114.744C235.217 114.392 234.306 114.509 233.828 115.033ZM235.07 118.427C233.928 118.429 233.025 117.544 233.024 116.421C233.023 115.297 233.925 114.398 235.056 114.397C236.189 114.396 237.104 115.292 237.108 116.407C237.111 117.526 236.205 118.425 235.07 118.427Z" fill="white"/>
</g>
<defs>
<clipPath id="clip0_364_52">
<rect width="256" height="256" fill="white"/>
</clipPath>
</defs>
</svg>
