<svg width="256" height="256" viewBox="0 0 256 256" fill="none" xmlns="http://www.w3.org/2000/svg">
<g clip-path="url(#clip0_355_275)">
<rect width="256" height="256" rx="60" fill="#242938"/>
<path d="M32.0641 134.867C32.3668 135.628 32.2708 136.602 32.1232 137.193C31.8648 138.241 31.1561 139.312 29.0594 139.312C27.0957 139.312 25.8997 138.175 25.8997 136.462V133.413H17.4614V135.835C17.4614 142.848 22.9762 144.967 28.8896 144.967C34.5742 144.967 39.2547 143.033 40.0003 137.784C40.3842 135.067 40.1037 133.288 39.9708 132.63C38.642 126.045 26.7118 124.081 25.8185 120.398C25.6944 119.854 25.6844 119.291 25.7889 118.744C26.0104 117.733 26.697 116.633 28.6608 116.633C30.5064 116.633 31.5769 117.769 31.5769 119.482V121.431H39.4245V119.216C39.4245 112.365 33.2748 111.295 28.8306 111.295C23.2346 111.295 18.6648 113.148 17.8306 118.279C17.6091 119.681 17.5722 120.937 17.9044 122.516C19.2702 128.939 30.4399 130.8 32.0641 134.867Z" fill="white"/>
<path d="M51.1257 112.299L45.2935 143.742H53.7908L58.0948 115.208H58.272L62.4579 143.742H70.9109L65.1156 112.292L51.1257 112.299ZM98.6324 112.299L94.7565 136.337H94.572L90.7035 112.299H77.88L77.1861 143.742H85.0559L85.2478 115.474H85.425L90.674 143.742H98.6545L103.911 115.481H104.081L104.28 143.742H112.142L111.448 112.292L98.6324 112.299Z" fill="white"/>
<path d="M134.29 134.808C134.593 135.569 134.497 136.543 134.349 137.134C134.091 138.182 133.382 139.253 131.285 139.253C129.322 139.253 128.126 138.116 128.126 136.403V133.354H119.688V135.775C119.688 142.789 125.202 144.908 131.116 144.908C136.8 144.908 141.481 142.973 142.226 137.724C142.61 135.008 142.33 133.228 142.197 132.571C140.868 125.986 128.938 124.022 128.045 120.339C127.921 119.795 127.91 119.232 128.015 118.685C128.236 117.673 128.923 116.573 130.887 116.573C132.732 116.573 133.803 117.71 133.803 119.423V121.372H141.651V119.157C141.651 112.306 135.501 111.236 131.057 111.236C125.461 111.236 120.891 113.089 120.057 118.22C119.835 119.622 119.798 120.877 120.13 122.457C121.496 128.88 132.666 130.741 134.29 134.808Z" fill="white"/>
<path d="M160.683 139.031C162.868 139.031 163.54 137.525 163.695 136.757C163.762 136.418 163.769 135.96 163.769 135.554V112.299H171.727V134.838C171.729 135.527 171.704 136.217 171.654 136.905C171.1 142.774 166.464 144.679 160.683 144.679C154.895 144.679 150.259 142.774 149.705 136.905C149.683 136.595 149.624 135.414 149.631 134.838V112.291H157.59V135.546C157.582 135.96 157.597 136.418 157.664 136.757C157.811 137.525 158.491 139.031 160.683 139.031ZM199.131 112.299L199.56 136.979H199.39L192.155 112.299H180.491V143.409H188.22L187.792 117.873H187.962L195.721 143.409H206.92V112.299H199.131ZM226.262 138.706C228.536 138.706 229.333 137.267 229.474 136.418C229.54 136.071 229.548 135.628 229.548 135.236V130.659H226.321V126.082H237.462V134.513C237.462 135.103 237.447 135.532 237.351 136.58C236.834 142.309 231.866 144.354 226.292 144.354C220.718 144.354 215.757 142.309 215.233 136.58C215.144 135.532 215.122 135.103 215.122 134.513V121.283C215.122 120.722 215.196 119.733 215.255 119.216C215.956 113.332 220.718 111.442 226.292 111.442C231.866 111.442 236.753 113.318 237.329 119.209C237.432 120.213 237.403 121.276 237.403 121.276V122.332H229.474V120.567C229.474 120.567 229.474 119.829 229.378 119.371C229.23 118.677 228.64 117.083 226.233 117.083C223.944 117.083 223.272 118.596 223.103 119.371C223.007 119.785 222.97 120.346 222.97 120.855V135.229C222.97 135.628 222.984 136.071 223.044 136.425C223.191 137.267 223.989 138.706 226.262 138.706Z" fill="white"/>
</g>
<defs>
<clipPath id="clip0_355_275">
<rect width="256" height="256" fill="white"/>
</clipPath>
</defs>
</svg>
