<svg width="256" height="256" viewBox="0 0 256 256" fill="none" xmlns="http://www.w3.org/2000/svg">
<g clip-path="url(#clip0_248_3158)">
<path d="M196 0H60C26.8629 0 0 26.8629 0 60V196C0 229.137 26.8629 256 60 256H196C229.137 256 256 229.137 256 196V60C256 26.8629 229.137 0 196 0Z" fill="#FE0201"/>
<path d="M131.495 38C130.865 43.5501 131.129 49.5003 132.73 54.3058C134.887 60.777 137.87 65.4417 148.853 79.6855C160.443 94.7154 164.152 100.163 166.91 107.957C169.165 114.329 169.211 118.01 168.244 123.794C178.398 125.722 195.042 131.096 206.197 137.765C216.544 144.108 224.067 152.334 226.822 160.312C228.451 165.034 228.385 172.351 226.656 176.927C224.995 181.321 222.717 184.99 219.357 188.66C206.002 203.243 179.558 213.718 147.704 217.052C140.658 217.79 123.391 218.315 117.468 217.971C74.9169 215.503 40.7 200.848 30.9627 180.933C26.9126 172.651 27.0117 165.521 31.2799 157.33C34.799 150.577 44.4454 142.231 55.789 136.108C66.7013 130.871 76.9463 126.958 87.9282 123.877C88.462 131.023 102.433 148.105 107.058 154.153C117.143 167.311 121.132 173.586 123.982 178.614C125.693 181.633 126.66 183.561 126.177 189.308C126.177 189.308 130.058 185.806 131.522 182.831C133.416 178.982 134.092 175.076 133.728 170.058C133.29 164.014 132.26 160.31 129.361 154.394C126.544 148.641 122.505 142.822 114.825 133.427C103.981 120.161 99.9662 112.873 98.3096 103.408C96.4707 92.9022 99.4328 81.7354 105.502 76.2961C106.822 75.1128 108.947 73.9614 108.947 73.9614C108.947 73.9614 108.766 76.6687 108.766 79.7453C108.766 86.2521 109.511 89.6396 112.015 94.5968C115.125 100.752 119.428 106.506 132.625 122.161C144.305 136.015 147.932 143.054 147.932 151.849C147.932 153.914 147.936 156.088 147.936 156.088C147.936 156.088 151.021 153.742 152.45 151.593C156.978 144.779 157.695 134.151 154.248 124.736C151.885 118.282 148.057 112.41 136.735 98.2267C125.211 83.7892 120.375 72.2214 120.375 62.5815C120.375 52.9417 122.474 43.7453 131.496 38H131.495Z" fill="white"/>
</g>
<defs>
<clipPath id="clip0_248_3158">
<rect width="256" height="256" fill="white"/>
</clipPath>
</defs>
</svg>
