<svg width="256" height="256" viewBox="0 0 256 256" fill="none" xmlns="http://www.w3.org/2000/svg">
<g clip-path="url(#clip0_248_6232)">
<path d="M196 0H60C26.8629 0 0 26.8629 0 60V196C0 229.137 26.8629 256 60 256H196C229.137 256 256 229.137 256 196V60C256 26.8629 229.137 0 196 0Z" fill="#DE3423"/>
<path fill-rule="evenodd" clip-rule="evenodd" d="M65.1865 102.421C66.9311 104.826 81.6418 109.362 103.585 114.086C125.529 118.292 148.349 134.898 166.097 129.777C178.101 126.307 191.124 95.3868 191.124 90.7944V90.3229C191.124 87.1167 188.719 84.5424 184.636 82.4018C167.898 73.8488 164.729 70.6992 158.524 72.406C126.312 81.2985 69.4394 76.7532 65.1865 102.421Z" fill="#D69B86"/>
<path fill-rule="evenodd" clip-rule="evenodd" d="M65.1865 165.207C66.9311 167.649 81.6418 172.147 103.585 176.881C128.103 181.351 149.424 195.92 167.181 190.791C179.185 187.32 191.124 158.182 191.124 153.58V153.127C191.124 149.931 188.719 147.347 184.636 145.216C171.868 138.426 154.997 130.948 148.802 132.655C116.533 141.528 73.4 143.48 65.1865 165.207Z" fill="#D69B86"/>
<path fill-rule="evenodd" clip-rule="evenodd" d="M167.134 40.1364C137.467 48.7082 90.4021 53.5458 65.0449 53.5458V101.969C65.053 102.135 65.116 102.294 65.2241 102.421C82.5281 102.421 135.949 96.7633 168.18 87.8991C173.802 86.4684 179.313 84.6374 184.673 82.4203C188.615 80.6475 191.161 78.7803 191.161 76.8378V28C191.123 32.6018 179.138 36.6756 167.134 40.1364Z" fill="white"/>
<path fill-rule="evenodd" clip-rule="evenodd" d="M167.134 102.932C149.377 108.052 125.416 111.862 103.585 114.087C88.931 115.587 75.2387 116.369 65.0449 116.369V164.754C65.053 164.921 65.116 165.08 65.2241 165.207C82.5281 165.207 135.949 159.549 168.18 150.694C173.8 149.259 179.312 147.429 184.673 145.215C188.615 143.433 191.161 141.576 191.161 139.633V90.7949C191.123 95.3873 179.138 99.461 167.134 102.932Z" fill="white"/>
<path fill-rule="evenodd" clip-rule="evenodd" d="M167.134 165.761C149.377 170.882 125.416 174.682 103.585 176.917C88.9123 178.416 75.2011 179.199 65.0073 179.199V227.999C82.1321 227.999 135.826 222.388 168.143 213.486C180.053 210.205 191.124 206.47 191.124 202.415V153.578C191.124 158.217 179.138 162.253 167.134 165.761Z" fill="white"/>
</g>
<defs>
<clipPath id="clip0_248_6232">
<rect width="256" height="256" fill="white"/>
</clipPath>
</defs>
</svg>
