<svg width="256" height="256" viewBox="0 0 256 256" fill="none" xmlns="http://www.w3.org/2000/svg">
<g clip-path="url(#clip0_248_1321)">
<path d="M196 0H60C26.8629 0 0 26.8629 0 60V196C0 229.137 26.8629 256 60 256H196C229.137 256 256 229.137 256 196V60C256 26.8629 229.137 0 196 0Z" fill="#3499CD"/>
<path d="M203.573 173.899C231.529 145.945 236.176 105.269 213.951 83.0467C191.729 60.8258 151.055 65.4713 123.102 93.4237C95.1473 121.377 103.234 174.782 112.726 184.276C120.396 191.947 175.621 201.852 203.573 173.899Z" fill="#F89939"/>
<path d="M88.8668 133.506C72.6491 117.289 49.0474 114.589 36.1504 127.484C23.2567 140.379 25.9525 163.984 42.1734 180.199C58.3944 196.422 89.3826 191.73 94.8865 186.22C99.3403 181.774 105.089 149.726 88.8668 133.506Z" fill="white"/>
</g>
<defs>
<clipPath id="clip0_248_1321">
<rect width="256" height="256" fill="white"/>
</clipPath>
</defs>
</svg>
