<svg width="256" height="256" viewBox="0 0 256 256" fill="none" xmlns="http://www.w3.org/2000/svg">
<g clip-path="url(#clip0_248_2230)">
<rect width="256" height="256" rx="60" fill="#242938"/>
<mask id="mask0_248_2230" style="mask-type:luminance" maskUnits="userSpaceOnUse" x="28" y="28" width="200" height="200">
<path d="M181.125 28H74.875C48.9867 28 28 48.9867 28 74.875V181.125C28 207.013 48.9867 228 74.875 228H181.125C207.013 228 228 207.013 228 181.125V74.875C228 48.9867 207.013 28 181.125 28Z" fill="white"/>
</mask>
<g mask="url(#mask0_248_2230)">
<path d="M181.125 28H74.875C48.9867 28 28 48.9867 28 74.875V181.125C28 207.013 48.9867 228 74.875 228H181.125C207.013 228 228 207.013 228 181.125V74.875C228 48.9867 207.013 28 181.125 28Z" fill="#08B608"/>
<path fill-rule="evenodd" clip-rule="evenodd" d="M210.637 23.3125H228V231.906H226.386C226.794 231.906 227.184 231.745 227.473 231.457C227.762 231.17 227.923 230.779 227.923 230.373V54.3562C228.046 53.9982 228.02 53.6064 227.853 53.267C227.686 52.9276 227.391 52.6684 227.031 52.5463C226.673 52.4243 226.28 52.4495 225.94 52.6163C225.599 52.7831 225.339 53.0779 225.217 53.4359L160.627 125.769C160.442 125.968 160.218 126.127 159.97 126.235C159.721 126.344 159.452 126.399 159.18 126.399C158.909 126.399 158.641 126.344 158.391 126.235C158.143 126.127 157.92 125.968 157.735 125.769L124.763 91.8417C124.484 91.4935 124.331 91.0607 124.331 90.6147C124.331 90.1686 124.484 89.7359 124.763 89.3877L135.651 75.4609C135.834 75.2076 136.073 75.0012 136.352 74.8588C136.63 74.7165 136.938 74.6422 137.251 74.6422C137.563 74.6422 137.871 74.7165 138.149 74.8588C138.427 75.0012 138.668 75.2076 138.85 75.4609L157.305 95.8295C157.489 96.0488 157.72 96.2252 157.98 96.3462C158.241 96.4671 158.524 96.5298 158.812 96.5298C159.098 96.5298 159.383 96.4671 159.643 96.3462C159.903 96.2252 160.134 96.0488 160.319 95.8295L211.745 25.5211C211.888 25.3134 211.973 25.0712 211.991 24.8197C212.008 24.5683 211.957 24.3167 211.845 24.0913C211.731 23.8659 211.559 23.6747 211.348 23.5378C211.135 23.4008 210.891 23.323 210.637 23.3125ZM29.5379 23.3125H28V24.8463C28 24.4395 28.162 24.0494 28.4504 23.7617C28.7388 23.4741 29.13 23.3125 29.5379 23.3125ZM28 230.373V231.906H29.5379C29.13 231.906 28.7388 231.745 28.4504 231.457C28.162 231.17 28 230.779 28 230.373ZM160.006 155.375C156.188 155.259 152.465 156.576 149.577 159.063C146.69 161.55 144.85 165.025 144.422 168.798C144.403 168.872 144.402 168.948 144.417 169.022C144.433 169.096 144.466 169.165 144.513 169.224C144.561 169.283 144.621 169.33 144.691 169.362C144.759 169.393 144.835 169.409 144.911 169.406H175.163C175.233 169.406 175.302 169.392 175.366 169.364C175.43 169.336 175.487 169.295 175.533 169.243C175.579 169.191 175.614 169.13 175.634 169.064C175.655 168.998 175.661 168.928 175.652 168.859C175.355 165.018 173.545 161.448 170.616 158.923C167.688 156.398 163.875 155.123 160.006 155.375ZM48.423 196.752C58.1428 205.27 70.81 209.672 83.7325 209.023H83.671C106.985 209.023 118.242 197.12 118.242 181.537C118.242 161.992 100.055 157.638 85.7115 154.204C76.3718 151.967 68.6614 150.122 68.6614 144.727C68.6614 139.573 73.0905 136.076 80.9644 136.076C89.5362 135.996 97.8754 138.855 104.586 144.174C104.784 144.344 105.016 144.47 105.265 144.547C105.515 144.623 105.777 144.648 106.037 144.62C106.296 144.591 106.547 144.509 106.774 144.38C107.001 144.251 107.198 144.076 107.354 143.867L114.92 133.377C115.263 133.022 115.454 132.549 115.454 132.057C115.454 131.566 115.263 131.093 114.92 130.738C105.82 123.361 94.3456 119.525 82.6252 119.941C62.2023 119.941 49.8993 131.843 49.8993 146.138C49.8993 165.358 67.3984 169.502 81.6303 172.873C91.3841 175.183 99.6034 177.129 99.6034 183.316C99.6034 188.224 94.6822 192.887 84.5938 192.887C75.015 192.916 65.7818 189.32 58.7575 182.825C58.5402 182.693 58.2987 182.606 58.047 182.568C57.7954 182.53 57.5387 182.544 57.2923 182.607C57.0458 182.67 56.8144 182.781 56.6117 182.934C56.4091 183.088 56.2393 183.28 56.1123 183.5L48.423 194.237C48.1159 194.584 47.9465 195.031 47.9465 195.495C47.9465 195.958 48.1159 196.405 48.423 196.752ZM192.009 179.812C192.092 179.599 192.13 179.372 192.122 179.145L192.06 177.181C192.06 156.26 179.08 141.966 159.949 141.966C155.535 141.889 151.151 142.706 147.061 144.367C142.972 146.028 139.263 148.499 136.159 151.63C133.053 154.761 130.617 158.488 128.997 162.584C127.377 166.68 126.606 171.062 126.731 175.463C126.553 179.973 127.322 184.47 128.988 188.667C130.654 192.863 133.181 196.666 136.407 199.832C139.633 202.998 143.487 205.455 147.721 207.048C151.955 208.642 156.477 209.335 160.995 209.084C170.041 209.311 178.908 206.55 186.216 201.23C186.548 200.965 186.77 200.586 186.838 200.166C186.906 199.747 186.816 199.318 186.585 198.961L181.049 190.923C180.921 190.727 180.752 190.559 180.555 190.432C180.357 190.305 180.134 190.222 179.902 190.187C179.67 190.152 179.432 190.167 179.205 190.23C178.979 190.294 178.769 190.405 178.588 190.555C173.97 193.796 168.487 195.59 162.841 195.709C158.538 196.063 154.258 194.799 150.843 192.166C147.427 189.531 145.124 185.718 144.386 181.476C144.377 181.403 144.384 181.33 144.404 181.259C144.424 181.189 144.458 181.123 144.504 181.066C144.549 181.009 144.606 180.962 144.67 180.927C144.735 180.891 144.805 180.87 144.878 180.863H190.399C190.628 180.871 190.855 180.832 191.069 180.749C191.281 180.666 191.475 180.539 191.637 180.378C191.798 180.217 191.925 180.024 192.009 179.812Z" fill="white"/>
</g>
</g>
<defs>
<clipPath id="clip0_248_2230">
<rect width="256" height="256" fill="white"/>
</clipPath>
</defs>
</svg>
