<svg width="256" height="256" viewBox="0 0 256 256" fill="none" xmlns="http://www.w3.org/2000/svg">
<g clip-path="url(#clip0_248_2227)">
<path d="M196 0H60C26.8629 0 0 26.8629 0 60V196C0 229.137 26.8629 256 60 256H196C229.137 256 256 229.137 256 196V60C256 26.8629 229.137 0 196 0Z" fill="#08B608"/>
<path fill-rule="evenodd" clip-rule="evenodd" d="M233.776 -5H256V262H253.934C254.456 262 254.956 261.793 255.326 261.425C255.695 261.057 255.902 260.557 255.902 260.037V34.7359C256.059 34.2777 256.026 33.7762 255.812 33.3417C255.598 32.9073 255.22 32.5755 254.76 32.4193C254.301 32.2631 253.798 32.2953 253.363 32.5088C252.927 32.7224 252.594 33.0997 252.438 33.5579L169.762 126.144C169.526 126.399 169.239 126.602 168.921 126.741C168.603 126.88 168.259 126.951 167.911 126.951C167.564 126.951 167.22 126.88 166.901 126.741C166.583 126.602 166.297 126.399 166.061 126.144L123.857 82.7174C123.499 82.2717 123.304 81.7177 123.304 81.1468C123.304 80.5758 123.499 80.0219 123.857 79.5762L137.793 61.75C138.027 61.4257 138.334 61.1615 138.69 60.9793C139.046 60.7971 139.441 60.702 139.841 60.702C140.241 60.702 140.635 60.7971 140.991 60.9793C141.347 61.1615 141.655 61.4257 141.888 61.75L165.51 87.8218C165.746 88.1025 166.041 88.3282 166.375 88.4831C166.708 88.6379 167.071 88.7182 167.439 88.7182C167.806 88.7182 168.17 88.6379 168.503 88.4831C168.836 88.3282 169.131 88.1025 169.368 87.8218L235.194 -2.17294C235.377 -2.4389 235.485 -2.74892 235.508 -3.07077C235.53 -3.39263 235.465 -3.71458 235.321 -4.00314C235.176 -4.29171 234.956 -4.53636 234.685 -4.71167C234.413 -4.88697 234.1 -4.98653 233.776 -5ZM1.96848 -5H0V-3.03676C0 -3.55745 0.207393 -4.0568 0.576554 -4.42498C0.945715 -4.79316 1.4464 -5 1.96848 -5ZM0 260.037V262H1.96848C1.4464 262 0.945715 261.793 0.576554 261.425C0.207393 261.057 0 260.557 0 260.037ZM168.968 164.04C164.08 163.892 159.315 165.577 155.619 168.761C151.923 171.944 149.568 176.392 149.02 181.222C148.996 181.316 148.994 181.414 149.014 181.508C149.034 181.603 149.076 181.691 149.137 181.767C149.198 181.842 149.275 181.902 149.364 181.943C149.452 181.983 149.549 182.003 149.646 182H188.369C188.458 182 188.547 181.982 188.628 181.946C188.71 181.91 188.783 181.857 188.842 181.791C188.901 181.725 188.946 181.647 188.972 181.562C188.998 181.477 189.006 181.388 188.995 181.3C188.614 176.383 186.298 171.813 182.549 168.581C178.8 165.35 173.92 163.718 168.968 164.04ZM26.1414 217.003C38.5828 227.905 54.7968 233.54 71.3376 232.709H71.2589C101.101 232.709 115.51 217.474 115.51 197.527C115.51 172.51 92.231 166.937 73.8707 162.541C61.9159 159.678 52.0466 157.316 52.0466 150.41C52.0466 143.813 57.7158 139.337 67.7944 139.337C78.7663 139.235 89.4405 142.894 98.0302 149.703C98.2841 149.92 98.5799 150.082 98.8994 150.18C99.2188 150.278 99.555 150.31 99.8872 150.273C100.219 150.236 100.54 150.132 100.831 149.966C101.121 149.801 101.373 149.577 101.573 149.31L111.258 135.882C111.696 135.428 111.941 134.823 111.941 134.193C111.941 133.564 111.696 132.959 111.258 132.505C99.6091 123.062 84.9224 118.152 69.9203 118.684C43.7789 118.684 28.0311 133.919 28.0311 152.216C28.0311 176.818 50.4299 182.123 68.6468 186.437C81.1317 189.394 91.6523 191.885 91.6523 199.805C91.6523 206.087 85.3532 212.055 72.44 212.055C60.1792 212.093 48.3607 207.49 39.3696 199.176C39.0915 199.007 38.7823 198.896 38.4602 198.847C38.1381 198.799 37.8096 198.816 37.4941 198.897C37.1786 198.977 36.8824 199.12 36.623 199.316C36.3636 199.513 36.1463 199.759 35.9838 200.04L26.1414 213.783C25.7483 214.228 25.5315 214.8 25.5315 215.393C25.5315 215.986 25.7483 216.558 26.1414 217.003ZM209.931 195.319C210.038 195.047 210.087 194.756 210.076 194.465L209.997 191.952C209.997 165.173 193.383 146.876 168.895 146.876C163.245 146.778 157.633 147.824 152.398 149.95C147.164 152.076 142.417 155.239 138.443 159.246C134.468 163.254 131.35 168.024 129.276 173.267C127.202 178.51 126.216 184.119 126.376 189.753C126.148 195.526 127.132 201.282 129.264 206.654C131.397 212.025 134.632 216.893 138.761 220.945C142.89 224.997 147.823 228.143 153.243 230.182C158.663 232.222 164.45 233.109 170.234 232.787C181.812 233.078 193.162 229.544 202.517 222.735C202.942 222.395 203.225 221.91 203.313 221.373C203.4 220.836 203.285 220.287 202.989 219.83L195.903 209.542C195.739 209.29 195.523 209.076 195.27 208.913C195.017 208.751 194.732 208.644 194.435 208.599C194.137 208.555 193.833 208.574 193.543 208.655C193.253 208.736 192.984 208.878 192.753 209.071C186.841 213.219 179.823 215.515 172.596 215.668C167.089 216.121 161.61 214.503 157.239 211.132C152.867 207.76 149.919 202.879 148.974 197.449C148.963 197.356 148.971 197.262 148.997 197.172C149.023 197.082 149.066 196.998 149.125 196.925C149.183 196.852 149.256 196.791 149.338 196.746C149.421 196.701 149.511 196.673 149.604 196.664H207.871C208.164 196.675 208.455 196.625 208.728 196.519C209 196.412 209.248 196.25 209.455 196.044C209.662 195.838 209.824 195.591 209.931 195.319Z" fill="white"/>
</g>
<defs>
<clipPath id="clip0_248_2227">
<rect width="256" height="256" rx="63" fill="white"/>
</clipPath>
</defs>
</svg>
