<svg width="256" height="256" viewBox="0 0 256 256" fill="none" xmlns="http://www.w3.org/2000/svg">
<g clip-path="url(#clip0_384_495)">
<rect width="256" height="256" rx="60" fill="white"/>
<path d="M50.7713 146.171H30.3242C29.5299 146.171 28.8826 146.818 28.8826 147.613V218.516C28.8826 219.31 29.5299 219.957 30.3242 219.957H37.5322C38.3265 219.957 38.9738 219.31 38.9738 218.516V190.625H50.7713C56.3906 190.625 60.9801 186.065 60.9801 180.416V156.351C60.9801 150.731 56.42 146.171 50.7713 146.171ZM50.6536 174.12C50.6536 176.915 48.3882 179.151 45.6227 179.151H40.1212V156.704H45.6227C48.4177 156.704 50.6536 158.969 50.6536 161.735V174.12ZM87.9879 147.377C87.8703 146.671 87.2819 146.171 86.5758 146.171H75.043C74.3369 146.171 73.7485 146.671 73.6308 147.377L62.1864 218.28C62.0393 219.163 62.7159 219.928 63.5985 219.928H70.7477C71.4537 219.928 72.0716 219.398 72.1598 218.692L73.8074 206.865H87.8114L89.459 218.692C89.5472 219.398 90.165 219.928 90.8711 219.928H98.0203C98.9029 219.928 99.5795 219.133 99.4324 218.28L87.9879 147.377ZM80.8094 195.656H75.6314L80.78 160.264L85.9285 195.656H80.8094ZM168.629 147.377C168.511 146.671 167.923 146.171 167.217 146.171H155.684C154.978 146.171 154.389 146.671 154.272 147.377L142.827 218.28C142.68 219.163 143.357 219.928 144.24 219.928H151.389C152.095 219.928 152.713 219.398 152.801 218.692L154.448 206.865H168.452L170.1 218.692C170.188 219.398 170.806 219.928 171.512 219.928H178.661C179.544 219.928 180.221 219.133 180.073 218.28L168.629 147.377ZM161.45 195.656H156.302L161.45 160.264L166.599 195.656H161.45ZM138.179 173.414V155.821C138.179 150.496 133.854 146.171 128.529 146.171H106.229C105.434 146.171 104.787 146.818 104.787 147.613V218.516C104.787 219.31 105.434 219.957 106.229 219.957H113.436C114.231 219.957 114.878 219.31 114.878 218.516V190.625H122.38C124.763 190.625 126.705 192.567 126.705 194.95V218.516C126.705 219.31 127.352 219.957 128.147 219.957H136.737C137.532 219.957 138.179 219.31 138.179 218.516V190.625C138.179 186.448 134.796 183.064 130.618 183.064H128.529C133.854 183.064 138.179 178.739 138.179 173.414ZM126.734 173.709C126.734 176.709 124.293 179.151 121.292 179.151H115.555V155.38H121.292C124.293 155.38 126.734 157.822 126.734 160.822V173.709ZM218.938 173.414V155.821C218.938 150.496 214.613 146.171 209.288 146.171H186.987C186.193 146.171 185.546 146.818 185.546 147.613V218.516C185.546 219.31 186.193 219.957 186.987 219.957H194.195C194.989 219.957 195.637 219.31 195.637 218.516V190.625H203.139C205.522 190.625 207.464 192.567 207.464 194.95V218.516C207.464 219.31 208.111 219.957 208.905 219.957H217.496C218.29 219.957 218.938 219.31 218.938 218.516V190.625C218.938 186.448 215.554 183.064 211.377 183.064H209.288C214.613 183.064 218.938 178.739 218.938 173.414ZM207.464 173.709C207.464 176.709 205.022 179.151 202.021 179.151H196.284V155.38H202.021C205.022 155.38 207.464 157.822 207.464 160.822V173.709ZM28 111.602V124.047C28 131.461 34.0017 137.463 41.4156 137.463H48.5648C56.3023 137.463 62.5982 131.167 62.5982 123.429V116.251C62.5982 108.484 59.2149 101.099 53.3309 96.0391L46.3288 89.9785C44.6016 88.4854 43.2162 86.6379 42.2669 84.5615C41.3175 82.4852 40.8265 80.2287 40.8272 77.9456V75.9156C40.8272 73.2678 42.9749 71.0907 45.6522 71.0907C48.3 71.0907 50.4771 73.2383 50.4771 75.9156V83.8002C50.4771 84.5946 51.1243 85.2418 51.9187 85.2418H61.1861C61.9804 85.2418 62.6277 84.5946 62.6277 83.8002V75.7096C62.6277 67.6779 56.1258 61.1466 48.0646 61.1466H42.563C34.5313 61.1466 28 67.6485 28 75.7096V80.358C28 87.6249 31.2656 94.5386 36.9143 99.1282L44.7696 105.542C48.3588 108.484 50.4771 112.897 50.4771 117.545V121.694C50.4771 124.488 48.2117 126.783 45.3874 126.783H44.7107C41.8569 126.783 39.5622 124.488 39.5622 121.635V111.632C39.5622 110.837 38.9149 110.22 38.15 110.22H29.4416C28.6178 110.19 28 110.837 28 111.602ZM68.6588 62.5882V136.021C68.6588 136.816 69.3061 137.463 70.1004 137.463H96.7846C97.5789 137.463 98.2262 136.816 98.2262 136.021V126.401C98.2262 125.606 97.5789 124.959 96.7846 124.959H79.309V103.659H92.9894C93.7837 103.659 94.431 103.012 94.431 102.217V92.7146C94.431 91.9202 93.7837 91.273 92.9894 91.273H79.309V72.7088H96.7846C97.5789 72.7088 98.2262 72.0615 98.2262 71.2672V62.5588C98.2262 61.7644 97.5789 61.1172 96.7846 61.1172H70.1004C69.3061 61.176 68.6588 61.8233 68.6588 62.5882ZM150.271 61.176H136.59C135.825 61.176 135.149 61.735 135.031 62.4999L127.823 107.925L120.644 62.4999C120.527 61.735 119.85 61.176 119.085 61.176H105.405C104.522 61.176 103.816 61.8821 103.816 62.7647V136.227C103.816 136.904 104.375 137.492 105.081 137.492H112.877C113.554 137.492 114.143 136.933 114.143 136.227V79.0341L124.469 135.05C124.587 135.639 125.087 136.08 125.705 136.08H129.941C130.559 136.08 131.059 135.639 131.177 135.05L141.533 79.0341V136.198C141.533 136.874 142.092 137.463 142.798 137.463H150.594C151.271 137.463 151.859 136.904 151.859 136.198V62.7353C151.859 61.8821 151.153 61.176 150.271 61.176Z" fill="#474746"/>
<path d="M226.674 72.5321L196.607 39.4342C194.871 37.5219 191.841 37.5219 190.075 39.4342L160.008 72.5321C158.184 74.5326 158.213 77.6218 160.096 79.5929L166.186 85.9477C168.275 88.0954 171.747 88.066 173.747 85.83L184.662 73.7971V133.432C184.721 136.403 188.457 137.727 190.487 135.58L198.519 127.224C200.696 124.959 201.932 121.929 201.932 118.751V73.7971L212.847 85.83C214.847 88.0365 218.319 88.0954 220.408 85.9477L226.498 79.5929C228.44 77.6512 228.498 74.5621 226.674 72.5321Z" fill="#F90353"/>
</g>
<defs>
<clipPath id="clip0_384_495">
<rect width="256" height="256" fill="white"/>
</clipPath>
</defs>
</svg>
