<svg width="256" height="256" viewBox="0 0 256 256" fill="none" xmlns="http://www.w3.org/2000/svg">
<g clip-path="url(#clip0_384_457)">
<path fill-rule="evenodd" clip-rule="evenodd" d="M256.013 203.509C256.013 232.385 232.389 256.009 203.513 256.009H52.5124C23.6368 256.009 0.0126953 232.385 0.0126953 203.509V52.5085C0.0126953 23.6329 23.6368 0.00878906 52.5124 0.00878906H203.513C232.389 0.00878906 256.013 23.6329 256.013 52.5085V203.509Z" fill="#474746"/>
<path d="M50.7713 145.171H30.3242C29.5299 145.171 28.8826 145.818 28.8826 146.613V217.516C28.8826 218.31 29.5299 218.957 30.3242 218.957H37.5322C38.3265 218.957 38.9738 218.31 38.9738 217.516V189.625H50.7713C56.3906 189.625 60.9801 185.065 60.9801 179.416V155.351C60.9801 149.731 56.42 145.171 50.7713 145.171ZM50.6536 173.12C50.6536 175.915 48.3882 178.151 45.6227 178.151H40.1212V155.704H45.6227C48.4177 155.704 50.6536 157.969 50.6536 160.735V173.12ZM87.9879 146.377C87.8703 145.671 87.2819 145.171 86.5758 145.171H75.043C74.3369 145.171 73.7485 145.671 73.6308 146.377L62.1864 217.28C62.0393 218.163 62.7159 218.928 63.5985 218.928H70.7477C71.4537 218.928 72.0716 218.398 72.1598 217.692L73.8074 205.865H87.8114L89.459 217.692C89.5472 218.398 90.165 218.928 90.8711 218.928H98.0203C98.9029 218.928 99.5795 218.133 99.4324 217.28L87.9879 146.377ZM80.8094 194.656H75.6314L80.78 159.264L85.9285 194.656H80.8094ZM168.629 146.377C168.511 145.671 167.923 145.171 167.217 145.171H155.684C154.978 145.171 154.389 145.671 154.272 146.377L142.827 217.28C142.68 218.163 143.357 218.928 144.24 218.928H151.389C152.095 218.928 152.713 218.398 152.801 217.692L154.448 205.865H168.452L170.1 217.692C170.188 218.398 170.806 218.928 171.512 218.928H178.661C179.544 218.928 180.221 218.133 180.073 217.28L168.629 146.377ZM161.45 194.656H156.302L161.45 159.264L166.599 194.656H161.45ZM138.179 172.414V154.821C138.179 149.496 133.854 145.171 128.529 145.171H106.229C105.434 145.171 104.787 145.818 104.787 146.613V217.516C104.787 218.31 105.434 218.957 106.229 218.957H113.436C114.231 218.957 114.878 218.31 114.878 217.516V189.625H122.38C124.763 189.625 126.705 191.567 126.705 193.95V217.516C126.705 218.31 127.352 218.957 128.147 218.957H136.737C137.532 218.957 138.179 218.31 138.179 217.516V189.625C138.179 185.448 134.796 182.064 130.618 182.064H128.529C133.854 182.064 138.179 177.739 138.179 172.414ZM126.734 172.709C126.734 175.709 124.293 178.151 121.292 178.151H115.555V154.38H121.292C124.293 154.38 126.734 156.822 126.734 159.822V172.709ZM218.938 172.414V154.821C218.938 149.496 214.613 145.171 209.288 145.171H186.987C186.193 145.171 185.546 145.818 185.546 146.613V217.516C185.546 218.31 186.193 218.957 186.987 218.957H194.195C194.989 218.957 195.637 218.31 195.637 217.516V189.625H203.139C205.522 189.625 207.464 191.567 207.464 193.95V217.516C207.464 218.31 208.111 218.957 208.905 218.957H217.496C218.29 218.957 218.938 218.31 218.938 217.516V189.625C218.938 185.448 215.554 182.064 211.377 182.064H209.288C214.613 182.064 218.938 177.739 218.938 172.414ZM207.464 172.709C207.464 175.709 205.022 178.151 202.021 178.151H196.284V154.38H202.021C205.022 154.38 207.464 156.822 207.464 159.822V172.709ZM28 110.602V123.047C28 130.461 34.0017 136.463 41.4156 136.463H48.5648C56.3023 136.463 62.5982 130.167 62.5982 122.429V115.251C62.5982 107.484 59.2149 100.099 53.3309 95.0391L46.3288 88.9785C44.6016 87.4854 43.2162 85.6379 42.2669 83.5615C41.3175 81.4852 40.8265 79.2287 40.8272 76.9456V74.9156C40.8272 72.2678 42.9749 70.0907 45.6522 70.0907C48.3 70.0907 50.4771 72.2383 50.4771 74.9156V82.8002C50.4771 83.5946 51.1243 84.2418 51.9187 84.2418H61.1861C61.9804 84.2418 62.6277 83.5946 62.6277 82.8002V74.7096C62.6277 66.6779 56.1258 60.1466 48.0646 60.1466H42.563C34.5313 60.1466 28 66.6485 28 74.7096V79.358C28 86.6249 31.2656 93.5386 36.9143 98.1282L44.7696 104.542C48.3588 107.484 50.4771 111.897 50.4771 116.545V120.694C50.4771 123.488 48.2117 125.783 45.3874 125.783H44.7107C41.8569 125.783 39.5622 123.488 39.5622 120.635V110.632C39.5622 109.837 38.9149 109.22 38.15 109.22H29.4416C28.6178 109.19 28 109.837 28 110.602ZM68.6588 61.5882V135.021C68.6588 135.816 69.3061 136.463 70.1004 136.463H96.7846C97.5789 136.463 98.2262 135.816 98.2262 135.021V125.401C98.2262 124.606 97.5789 123.959 96.7846 123.959H79.309V102.659H92.9894C93.7837 102.659 94.431 102.012 94.431 101.217V91.7146C94.431 90.9202 93.7837 90.273 92.9894 90.273H79.309V71.7088H96.7846C97.5789 71.7088 98.2262 71.0615 98.2262 70.2672V61.5588C98.2262 60.7644 97.5789 60.1172 96.7846 60.1172H70.1004C69.3061 60.176 68.6588 60.8233 68.6588 61.5882ZM150.271 60.176H136.59C135.825 60.176 135.149 60.735 135.031 61.4999L127.823 106.925L120.644 61.4999C120.527 60.735 119.85 60.176 119.085 60.176H105.405C104.522 60.176 103.816 60.8821 103.816 61.7647V135.227C103.816 135.904 104.375 136.492 105.081 136.492H112.877C113.554 136.492 114.143 135.933 114.143 135.227V78.0341L124.469 134.05C124.587 134.639 125.087 135.08 125.705 135.08H129.941C130.559 135.08 131.059 134.639 131.177 134.05L141.533 78.0341V135.198C141.533 135.874 142.092 136.463 142.798 136.463H150.594C151.271 136.463 151.859 135.904 151.859 135.198V61.7353C151.859 60.8821 151.153 60.176 150.271 60.176Z" fill="white"/>
<path d="M226.674 71.5321L196.607 38.4342C194.871 36.5219 191.841 36.5219 190.075 38.4342L160.008 71.5321C158.184 73.5326 158.213 76.6218 160.096 78.5929L166.186 84.9477C168.275 87.0954 171.747 87.066 173.747 84.83L184.662 72.7971V132.432C184.721 135.403 188.457 136.727 190.487 134.58L198.519 126.224C200.696 123.959 201.932 120.929 201.932 117.751V72.7971L212.847 84.83C214.847 87.0365 218.319 87.0954 220.408 84.9477L226.498 78.5929C228.44 76.6512 228.498 73.5621 226.674 71.5321Z" fill="#F90353"/>
</g>
<defs>
<clipPath id="clip0_384_457">
<rect width="256" height="256" fill="white"/>
</clipPath>
</defs>
</svg>
