<svg width="256" height="256" viewBox="0 0 256 256" fill="none" xmlns="http://www.w3.org/2000/svg">
<g clip-path="url(#clip0_248_1340)">
<rect width="256" height="256" rx="60" fill="#242938"/>
<path d="M137.093 42.4186C139.9 44.0041 142.249 46.288 143.912 49.0488L225.518 188.754C227.144 191.521 228.002 194.673 228 197.883C228.01 200.314 227.539 202.722 226.612 204.97C225.687 207.217 224.323 209.258 222.603 210.974C220.882 212.691 218.839 214.05 216.589 214.971C214.34 215.892 211.931 216.359 209.501 216.343H190.361C190.601 211.271 190.601 206.185 190.361 201.087H209.42C209.957 201.099 210.485 200.968 210.954 200.71C211.424 200.451 211.817 200.073 212.093 199.613C212.369 199.154 212.519 198.631 212.528 198.094C212.537 197.559 212.404 197.03 212.143 196.562C210.662 194.961 131.539 56.8969 129.417 55.7358C128.715 55.3252 127.88 55.2084 127.092 55.4109C126.305 55.6134 125.63 56.1187 125.213 56.8169L106.513 88.8502C127.651 102.469 144.843 121.395 156.374 143.74C167.905 166.084 173.37 191.064 172.222 216.183H122.93C124.068 199.601 120.862 183.01 113.63 168.047C106.397 153.082 95.3874 140.263 81.6874 130.854L72.4378 146.871C83.2934 154.688 91.9463 165.175 97.5589 177.319C103.171 189.462 105.552 202.849 104.471 216.183H46.2906C43.119 216.164 40.0045 215.338 37.2411 213.78C35.1439 212.596 33.3029 211.007 31.8249 209.105C30.347 207.203 29.2618 205.028 28.6321 202.702C28.0026 200.378 27.8411 197.951 28.1574 195.563C28.4736 193.175 29.2611 190.874 30.4741 188.794L42.1262 168.773C47.0336 170.475 51.5919 173.053 55.5802 176.381L43.808 196.402C43.5741 196.85 43.4553 197.349 43.4625 197.853C43.4696 198.359 43.6022 198.854 43.8485 199.295C44.0948 199.737 44.447 200.109 44.8733 200.38C45.2997 200.651 45.7868 200.811 46.2906 200.847H88.7748C87.1932 190.278 82.9795 180.274 76.5214 171.76C70.0632 163.244 61.5678 156.49 51.8163 152.115L76.2018 109.952C93.5479 118.413 108.383 131.259 119.241 147.214C130.099 163.171 136.601 181.685 138.107 200.927H156.605C155.098 178.48 147.745 156.818 135.278 138.091C122.809 119.364 105.66 104.224 85.5314 94.1757L111.879 49.0488C113.542 46.288 115.891 44.0041 118.698 42.4186C121.503 40.8331 124.672 40 127.895 40C131.119 40 134.288 40.8331 137.093 42.4186Z" fill="white"/>
</g>
<defs>
<clipPath id="clip0_248_1340">
<rect width="256" height="256" fill="white"/>
</clipPath>
</defs>
</svg>
