<svg width="256" height="256" viewBox="0 0 256 256" fill="none" xmlns="http://www.w3.org/2000/svg">
<g clip-path="url(#clip0_248_1343)">
<rect width="256" height="256" rx="60" fill="white"/>
<path d="M143.826 48.9091C142.162 46.1483 139.813 43.8644 137.007 42.279C134.201 40.6935 131.032 39.8604 127.809 39.8604C124.586 39.8604 121.417 40.6935 118.611 42.279C115.805 43.8644 113.456 46.1483 111.792 48.9091L85.445 94.0361C105.573 104.085 122.723 119.225 135.191 137.951C147.659 156.678 155.012 178.34 156.519 200.787H138.02C136.515 181.546 130.012 163.031 119.155 147.075C108.297 131.119 93.4614 118.274 76.1153 109.813L51.7299 151.976C61.4814 156.35 69.9768 163.105 76.435 171.62C82.8932 180.135 87.1068 190.138 88.6884 200.707H46.2042C45.7003 200.672 45.2133 200.511 44.7869 200.24C44.3606 199.969 44.0084 199.597 43.7621 199.156C43.5158 198.715 43.3831 198.219 43.376 197.714C43.3689 197.209 43.4877 196.71 43.7216 196.263L55.4938 176.242C51.5054 172.914 46.9472 170.336 42.0398 168.634L30.3877 188.655C29.1746 190.735 28.3871 193.036 28.0709 195.424C27.7547 197.812 27.9161 200.238 28.5457 202.563C29.1753 204.888 30.2606 207.064 31.7385 208.966C33.2164 210.867 35.0575 212.457 37.1547 213.641C39.918 215.198 43.0325 216.024 46.2042 216.043H104.385C105.465 202.71 103.084 189.323 97.4721 177.18C91.86 165.036 83.207 154.548 72.3514 146.731L81.601 130.714C95.301 140.124 106.311 152.943 113.543 167.907C120.776 182.871 123.982 199.462 122.844 216.043H172.135C173.283 190.925 167.819 165.945 156.288 143.601C144.757 121.256 127.564 102.329 106.427 88.7106L125.126 56.6772C125.543 55.9791 126.219 55.4738 127.006 55.2713C127.793 55.0688 128.629 55.1855 129.331 55.5961C131.453 56.7573 210.575 194.821 212.057 196.423C212.318 196.891 212.451 197.419 212.442 197.955C212.433 198.491 212.283 199.015 212.007 199.474C211.73 199.933 211.338 200.311 210.868 200.57C210.399 200.829 209.87 200.959 209.334 200.947H190.274C190.514 206.046 190.514 211.131 190.274 216.203H209.414C211.845 216.219 214.254 215.753 216.503 214.831C218.752 213.91 220.796 212.551 222.516 210.835C224.237 209.118 225.6 207.077 226.526 204.83C227.453 202.583 227.924 200.175 227.913 197.744C227.916 194.534 227.059 191.382 225.431 188.615L143.826 48.9091Z" fill="#362D59"/>
</g>
<defs>
<clipPath id="clip0_248_1343">
<rect width="256" height="256" fill="white"/>
</clipPath>
</defs>
</svg>
