<svg width="256" height="256" viewBox="0 0 256 256" fill="none" xmlns="http://www.w3.org/2000/svg">
<g clip-path="url(#clip0_180_1719)">
<path d="M196 0H60C26.8629 0 0 26.8629 0 60V196C0 229.137 26.8629 256 60 256H196C229.137 256 256 229.137 256 196V60C256 26.8629 229.137 0 196 0Z" fill="#03AFEF"/>
<path d="M128.216 28L41.2915 77.9333V178.067L128.216 228L214.717 178.067V77.9333L128.216 28ZM128 57.0333L189.917 92.2583V163.742L128 198.967L66.7665 164.117L66.0998 92.2583L128 57.0333ZM128.408 61.95C120.269 66.6444 112.136 71.3444 104.008 76.05V78.1667L125.742 90.8583V94.875L129.091 92.9417L131.225 94.1917V91.3917C138.591 87.175 146.283 82.725 152.625 79.0583C152.658 78.0333 152.65 76.95 152.658 75.95L128.408 61.95ZM97.4582 79.1667C89.3748 83.775 81.3665 88.5167 73.3498 93.2583V121.608L97.4582 135.525L100.808 133.592V109.283L121.558 97.2833V93.25L97.4582 79.1667ZM159.483 79.9L135.383 93.8167V96.625L157.35 109.467V135.025L159.483 136.258L183.592 122.342V93.9833L159.483 79.9ZM129.083 97.75L104.975 111.683V140.217C113.014 144.844 121.05 149.483 129.083 154.133L153.191 140.2V111.85L129.083 97.75ZM77.4415 128.775L73.3582 131.15V159.5L97.4582 173.433L100.808 171.5V147.183L104.75 144.9L100.808 142.625V138.392L97.4582 140.333C90.5832 136.35 83.3748 132.2 77.4415 128.775ZM179.508 129.492L159.483 141.058L157.358 139.825V142.608L153.25 144.983L157.358 147.375V172.933L159.483 174.167L183.592 160.233V131.883L179.508 129.492ZM108.925 147.308C107.614 148.075 106.297 148.836 104.975 149.592V178.125L129.083 192.042L153.191 178.125V149.767L149.108 147.375L129.083 158.95L108.925 147.308Z" fill="white"/>
</g>
<defs>
<clipPath id="clip0_180_1719">
<rect width="256" height="256" fill="white"/>
</clipPath>
</defs>
</svg>
