<svg width="256" height="256" viewBox="0 0 256 256" fill="none" xmlns="http://www.w3.org/2000/svg">
<g clip-path="url(#clip0_392_655)">
<rect width="256" height="256" rx="60" fill="white"/>
<path d="M129.326 142.628C160.151 142.628 185.14 117.639 185.14 86.8139C185.14 55.9888 160.151 31 129.326 31C98.5005 31 73.5117 55.9888 73.5117 86.8139C73.5117 117.639 98.5005 142.628 129.326 142.628Z" fill="#036C70"/>
<path d="M175.837 189.139C204.094 189.139 227 166.233 227 137.976C227 109.72 204.094 86.8135 175.837 86.8135C147.581 86.8135 124.674 109.72 124.674 137.976C124.674 166.233 147.581 189.139 175.837 189.139Z" fill="#1A9BA1"/>
<path d="M136.302 226.349C158.137 226.349 175.837 208.649 175.837 186.814C175.837 164.98 158.137 147.279 136.302 147.279C114.468 147.279 96.7676 164.98 96.7676 186.814C96.7676 208.649 114.468 226.349 136.302 226.349Z" fill="#37C6D0"/>
<path opacity="0.1" d="M138.628 81.372V180.628C138.605 184.077 136.515 187.175 133.326 188.488C132.31 188.918 131.219 189.139 130.116 189.139H96.8139C96.7675 188.349 96.7674 187.604 96.7674 186.814C96.752 186.037 96.783 185.261 96.8605 184.488C97.7118 169.621 106.871 156.503 120.535 150.581V141.93C90.1252 137.111 69.3797 108.553 74.1986 78.1428C74.2321 77.9322 74.2666 77.7217 74.3024 77.5115C74.5339 75.9429 74.8602 74.3896 75.2792 72.8604H130.116C134.81 72.8782 138.61 76.6786 138.628 81.372Z" fill="black"/>
<path opacity="0.2" d="M125.465 77.5117H74.3024C69.134 107.867 89.5516 136.664 119.906 141.832C120.826 141.989 121.749 142.122 122.674 142.233C108.256 149.07 97.7489 168.488 96.8558 184.488C96.7784 185.261 96.7473 186.038 96.7628 186.814C96.7628 187.605 96.7628 188.349 96.8093 189.14C96.8932 190.703 97.0953 192.258 97.4139 193.791H125.46C128.909 193.768 132.008 191.678 133.321 188.488C133.75 187.473 133.972 186.382 133.972 185.279V86.0233C133.954 81.3318 130.157 77.5322 125.465 77.5117Z" fill="black"/>
<path opacity="0.2" d="M125.465 77.5117H74.3025C69.1352 107.869 89.5559 136.668 119.914 141.836C120.535 141.941 121.157 142.036 121.782 142.121C107.828 149.451 97.7351 168.823 96.8606 184.488H125.465C130.151 184.453 133.941 180.663 133.977 175.977V86.0233C133.959 81.33 130.159 77.5296 125.465 77.5117Z" fill="black"/>
<path opacity="0.2" d="M120.814 77.5117H74.3024C69.4231 106.17 87.3804 133.768 115.558 140.916C104.889 153.107 98.3446 168.357 96.8606 184.488H120.814C125.507 184.471 129.308 180.67 129.326 175.977V86.0233C129.323 81.3236 125.514 77.5143 120.814 77.5117Z" fill="black"/>
<path d="M35.5256 77.5117H120.8C125.508 77.5117 129.326 81.3288 129.326 86.0373V171.312C129.326 176.02 125.508 179.837 120.8 179.837H35.5256C30.817 179.837 27 176.02 27 171.312V86.0373C27 81.3288 30.817 77.5117 35.5256 77.5117Z" fill="url(#paint0_linear_392_655)"/>
<path d="M65.0791 127.633C63.0812 126.307 61.4123 124.543 60.2 122.474C59.0254 120.312 58.44 117.879 58.5023 115.419C58.3977 112.088 59.5217 108.835 61.6604 106.279C63.9078 103.72 66.8128 101.825 70.0604 100.8C73.7617 99.5817 77.6385 98.9814 81.5348 99.0233C86.6587 98.8361 91.7755 99.5525 96.651 101.14V111.837C94.5326 110.554 92.2253 109.612 89.8138 109.047C87.1973 108.405 84.5125 108.083 81.8185 108.088C78.9776 107.984 76.1549 108.582 73.5999 109.828C71.6273 110.679 70.3482 112.619 70.3441 114.768C70.3361 116.071 70.8367 117.325 71.7394 118.265C72.8057 119.373 74.0671 120.275 75.4604 120.926C77.0107 121.698 79.3364 122.724 82.4371 124.005C82.7785 124.113 83.1113 124.246 83.4325 124.405C86.4843 125.598 89.4283 127.049 92.2325 128.744C94.356 130.054 96.1383 131.849 97.4325 133.982C98.7594 136.399 99.4026 139.133 99.293 141.889C99.4444 145.308 98.3982 148.674 96.3348 151.405C94.2781 153.916 91.5284 155.766 88.4278 156.726C84.7809 157.869 80.9747 158.421 77.1534 158.363C73.7248 158.378 70.3013 158.098 66.9209 157.526C64.0665 157.059 61.2811 156.24 58.6279 155.088V143.809C61.164 145.621 63.9974 146.974 67 147.809C69.9924 148.742 73.1032 149.24 76.2372 149.289C79.1378 149.472 82.0333 148.858 84.6093 147.512C86.4138 146.494 87.5113 144.565 87.4651 142.493C87.4772 141.052 86.907 139.667 85.8838 138.651C84.6113 137.402 83.138 136.376 81.5257 135.614C79.6652 134.684 76.9256 133.458 73.307 131.935C70.4283 130.778 67.672 129.336 65.0791 127.633Z" fill="white"/>
</g>
<defs>
<linearGradient id="paint0_linear_392_655" x1="44.776" y1="70.85" x2="111.55" y2="186.499" gradientUnits="userSpaceOnUse">
<stop stop-color="#058F92"/>
<stop offset="0.5" stop-color="#038489"/>
<stop offset="1" stop-color="#026D71"/>
</linearGradient>
<clipPath id="clip0_392_655">
<rect width="256" height="256" fill="white"/>
</clipPath>
</defs>
</svg>
