<svg width="256" height="256" viewBox="0 0 256 256" fill="none" xmlns="http://www.w3.org/2000/svg">
<g clip-path="url(#clip0_392_648)">
<rect width="256" height="256" rx="60" fill="#242938"/>
<path d="M130.326 141.628C161.151 141.628 186.14 116.639 186.14 85.8139C186.14 54.9888 161.151 30 130.326 30C99.5005 30 74.5117 54.9888 74.5117 85.8139C74.5117 116.639 99.5005 141.628 130.326 141.628Z" fill="#036C70"/>
<path d="M176.837 188.139C205.094 188.139 228 165.233 228 136.976C228 108.72 205.094 85.8135 176.837 85.8135C148.581 85.8135 125.674 108.72 125.674 136.976C125.674 165.233 148.581 188.139 176.837 188.139Z" fill="#1A9BA1"/>
<path d="M137.302 225.349C159.137 225.349 176.837 207.649 176.837 185.814C176.837 163.98 159.137 146.279 137.302 146.279C115.468 146.279 97.7676 163.98 97.7676 185.814C97.7676 207.649 115.468 225.349 137.302 225.349Z" fill="#37C6D0"/>
<path opacity="0.1" d="M139.628 80.372V179.628C139.605 183.077 137.515 186.175 134.326 187.488C133.31 187.918 132.219 188.139 131.116 188.139H97.8139C97.7675 187.349 97.7674 186.604 97.7674 185.814C97.752 185.037 97.783 184.261 97.8605 183.488C98.7118 168.621 107.871 155.503 121.535 149.581V140.93C91.1252 136.111 70.3797 107.553 75.1986 77.1428C75.2321 76.9322 75.2666 76.7217 75.3024 76.5115C75.5339 74.9429 75.8602 73.3896 76.2792 71.8604H131.116C135.81 71.8782 139.61 75.6786 139.628 80.372Z" fill="black"/>
<path opacity="0.2" d="M126.465 76.5117H75.3024C70.134 106.867 90.5516 135.664 120.906 140.832C121.826 140.989 122.749 141.122 123.674 141.233C109.256 148.07 98.7489 167.488 97.8558 183.488C97.7784 184.261 97.7473 185.038 97.7628 185.814C97.7628 186.605 97.7628 187.349 97.8093 188.14C97.8932 189.703 98.0953 191.258 98.4139 192.791H126.46C129.909 192.768 133.008 190.678 134.321 187.488C134.75 186.473 134.972 185.382 134.972 184.279V85.0233C134.954 80.3318 131.157 76.5322 126.465 76.5117Z" fill="black"/>
<path opacity="0.2" d="M126.465 76.5117H75.3025C70.1352 106.869 90.5559 135.668 120.914 140.836C121.535 140.941 122.157 141.036 122.782 141.121C108.828 148.451 98.7351 167.823 97.8606 183.488H126.465C131.151 183.453 134.941 179.663 134.977 174.977V85.0233C134.959 80.33 131.159 76.5296 126.465 76.5117Z" fill="black"/>
<path opacity="0.2" d="M121.814 76.5117H75.3024C70.4231 105.17 88.3804 132.768 116.558 139.916C105.889 152.107 99.3446 167.357 97.8606 183.488H121.814C126.507 183.471 130.308 179.67 130.326 174.977V85.0233C130.323 80.3236 126.514 76.5143 121.814 76.5117Z" fill="black"/>
<path d="M36.5256 76.5117H121.8C126.508 76.5117 130.326 80.3288 130.326 85.0373V170.312C130.326 175.02 126.508 178.837 121.8 178.837H36.5256C31.817 178.837 28 175.02 28 170.312V85.0373C28 80.3288 31.817 76.5117 36.5256 76.5117Z" fill="url(#paint0_linear_392_648)"/>
<path d="M66.0791 126.633C64.0812 125.307 62.4123 123.543 61.2 121.474C60.0254 119.312 59.44 116.879 59.5023 114.419C59.3977 111.088 60.5217 107.835 62.6604 105.279C64.9078 102.72 67.8128 100.825 71.0604 99.8C74.7617 98.5817 78.6385 97.9814 82.5348 98.0233C87.6587 97.8361 92.7755 98.5525 97.651 100.14V110.837C95.5326 109.554 93.2253 108.612 90.8138 108.047C88.1973 107.405 85.5125 107.083 82.8185 107.088C79.9776 106.984 77.1549 107.582 74.5999 108.828C72.6273 109.679 71.3482 111.619 71.3441 113.768C71.3361 115.071 71.8367 116.325 72.7394 117.265C73.8057 118.373 75.0671 119.275 76.4604 119.926C78.0107 120.698 80.3364 121.724 83.4371 123.005C83.7785 123.113 84.1113 123.246 84.4325 123.405C87.4843 124.598 90.4283 126.049 93.2325 127.744C95.356 129.054 97.1383 130.849 98.4325 132.982C99.7594 135.399 100.403 138.133 100.293 140.889C100.444 144.308 99.3982 147.674 97.3348 150.405C95.2781 152.916 92.5284 154.766 89.4278 155.726C85.7809 156.869 81.9747 157.421 78.1534 157.363C74.7248 157.378 71.3013 157.098 67.9209 156.526C65.0665 156.059 62.2811 155.24 59.6279 154.088V142.809C62.164 144.621 64.9974 145.974 68 146.809C70.9924 147.742 74.1032 148.24 77.2372 148.289C80.1378 148.472 83.0333 147.858 85.6093 146.512C87.4138 145.494 88.5113 143.565 88.4651 141.493C88.4772 140.052 87.907 138.667 86.8838 137.651C85.6113 136.402 84.138 135.376 82.5257 134.614C80.6652 133.684 77.9256 132.458 74.307 130.935C71.4283 129.778 68.672 128.336 66.0791 126.633Z" fill="white"/>
</g>
<defs>
<linearGradient id="paint0_linear_392_648" x1="45.776" y1="69.85" x2="112.55" y2="185.499" gradientUnits="userSpaceOnUse">
<stop stop-color="#058F92"/>
<stop offset="0.5" stop-color="#038489"/>
<stop offset="1" stop-color="#026D71"/>
</linearGradient>
<clipPath id="clip0_392_648">
<rect width="256" height="256" fill="white"/>
</clipPath>
</defs>
</svg>
