<svg width="256" height="256" viewBox="0 0 256 256" fill="none" xmlns="http://www.w3.org/2000/svg">
<g clip-path="url(#clip0_392_641)">
<path d="M196 0H60C26.8629 0 0 26.8629 0 60V196C0 229.137 26.8629 256 60 256H196C229.137 256 256 229.137 256 196V60C256 26.8629 229.137 0 196 0Z" fill="white"/>
<path d="M135.326 146.628C166.151 146.628 191.14 121.639 191.14 90.8139C191.14 59.9888 166.151 35 135.326 35C104.5 35 79.5117 59.9888 79.5117 90.8139C79.5117 121.639 104.5 146.628 135.326 146.628Z" fill="#036C70"/>
<path d="M181.837 193.139C210.094 193.139 233 170.233 233 141.976C233 113.72 210.094 90.8135 181.837 90.8135C153.581 90.8135 130.674 113.72 130.674 141.976C130.674 170.233 153.581 193.139 181.837 193.139Z" fill="#1A9BA1"/>
<path d="M142.302 230.349C164.137 230.349 181.837 212.649 181.837 190.814C181.837 168.98 164.137 151.279 142.302 151.279C120.468 151.279 102.768 168.98 102.768 190.814C102.768 212.649 120.468 230.349 142.302 230.349Z" fill="#37C6D0"/>
<path opacity="0.1" d="M144.628 85.372V184.628C144.605 188.077 142.515 191.175 139.326 192.488C138.31 192.918 137.219 193.139 136.116 193.139H102.814C102.767 192.349 102.767 191.604 102.767 190.814C102.752 190.037 102.783 189.261 102.861 188.488C103.712 173.621 112.871 160.503 126.535 154.581V145.93C96.1252 141.111 75.3797 112.553 80.1986 82.1428C80.2321 81.9322 80.2666 81.7217 80.3024 81.5115C80.5339 79.9429 80.8602 78.3896 81.2792 76.8604H136.116C140.81 76.8782 144.61 80.6786 144.628 85.372Z" fill="black"/>
<path opacity="0.2" d="M131.465 81.5117H80.3024C75.134 111.867 95.5516 140.664 125.906 145.832C126.826 145.989 127.749 146.122 128.674 146.233C114.256 153.07 103.749 172.488 102.856 188.488C102.778 189.261 102.747 190.038 102.763 190.814C102.763 191.605 102.763 192.349 102.809 193.14C102.893 194.703 103.095 196.258 103.414 197.791H131.46C134.909 197.768 138.008 195.678 139.321 192.488C139.75 191.473 139.972 190.382 139.972 189.279V90.0233C139.954 85.3318 136.157 81.5322 131.465 81.5117Z" fill="black"/>
<path opacity="0.2" d="M131.465 81.5117H80.3025C75.1352 111.869 95.5559 140.668 125.914 145.836C126.535 145.941 127.157 146.036 127.782 146.121C113.828 153.451 103.735 172.823 102.861 188.488H131.465C136.151 188.453 139.941 184.663 139.977 179.977V90.0233C139.959 85.33 136.159 81.5296 131.465 81.5117Z" fill="black"/>
<path opacity="0.2" d="M126.814 81.5117H80.3024C75.4231 110.17 93.3804 137.768 121.558 144.916C110.889 157.107 104.345 172.357 102.861 188.488H126.814C131.507 188.471 135.308 184.67 135.326 179.977V90.0233C135.323 85.3236 131.514 81.5143 126.814 81.5117Z" fill="black"/>
<path d="M41.5256 81.5117H126.8C131.508 81.5117 135.326 85.3288 135.326 90.0373V175.312C135.326 180.02 131.508 183.837 126.8 183.837H41.5256C36.817 183.837 33 180.02 33 175.312V90.0373C33 85.3288 36.817 81.5117 41.5256 81.5117Z" fill="url(#paint0_linear_392_641)"/>
<path d="M71.0791 131.633C69.0812 130.307 67.4123 128.543 66.2 126.474C65.0254 124.312 64.44 121.879 64.5023 119.419C64.3977 116.088 65.5217 112.835 67.6604 110.279C69.9078 107.72 72.8128 105.825 76.0604 104.8C79.7617 103.582 83.6385 102.981 87.5348 103.023C92.6587 102.836 97.7755 103.552 102.651 105.14V115.837C100.533 114.554 98.2253 113.612 95.8138 113.047C93.1973 112.405 90.5125 112.083 87.8185 112.088C84.9776 111.984 82.1549 112.582 79.5999 113.828C77.6273 114.679 76.3482 116.619 76.3441 118.768C76.3361 120.071 76.8367 121.325 77.7394 122.265C78.8057 123.373 80.0671 124.275 81.4604 124.926C83.0107 125.698 85.3364 126.724 88.4371 128.005C88.7785 128.113 89.1113 128.246 89.4325 128.405C92.4843 129.598 95.4283 131.049 98.2325 132.744C100.356 134.054 102.138 135.849 103.433 137.982C104.759 140.399 105.403 143.133 105.293 145.889C105.444 149.308 104.398 152.674 102.335 155.405C100.278 157.916 97.5284 159.766 94.4278 160.726C90.7809 161.869 86.9747 162.421 83.1534 162.363C79.7248 162.378 76.3013 162.098 72.9209 161.526C70.0665 161.059 67.2811 160.24 64.6279 159.088V147.809C67.164 149.621 69.9974 150.974 73 151.809C75.9924 152.742 79.1032 153.24 82.2372 153.289C85.1378 153.472 88.0333 152.858 90.6093 151.512C92.4138 150.494 93.5113 148.565 93.4651 146.493C93.4772 145.052 92.907 143.667 91.8838 142.651C90.6113 141.402 89.138 140.376 87.5257 139.614C85.6652 138.684 82.9256 137.458 79.307 135.935C76.4283 134.778 73.672 133.336 71.0791 131.633Z" fill="white"/>
</g>
<defs>
<linearGradient id="paint0_linear_392_641" x1="50.776" y1="74.85" x2="117.55" y2="190.499" gradientUnits="userSpaceOnUse">
<stop stop-color="#058F92"/>
<stop offset="0.5" stop-color="#038489"/>
<stop offset="1" stop-color="#026D71"/>
</linearGradient>
<clipPath id="clip0_392_641">
<rect width="256" height="256" fill="white"/>
</clipPath>
</defs>
</svg>
