<svg width="256" height="256" viewBox="0 0 256 256" fill="none" xmlns="http://www.w3.org/2000/svg">
<g clip-path="url(#clip0_248_2968)">
<rect width="256" height="256" rx="60" fill="white"/>
<path d="M219.949 70.8819L154.851 33.36C154.851 33.36 144.538 27.3301 128.084 27.3301C110.95 27.3301 101.023 33.5439 101.023 33.5439L40.7229 68.0507L132.459 120.776V227.33L192.832 192.86C192.832 192.86 203.624 186.904 211.823 172.748C219.048 160.283 219.949 148.224 219.949 148.224V70.8819ZM121.778 88.2364C121.778 88.2364 135.235 85.7546 146.615 92.3177C157.995 98.8808 164.705 102.741 164.705 102.741C164.705 102.741 164.723 111.878 164.723 125.538C164.723 136.476 155.458 147.819 155.458 147.819L155.476 107.687L121.778 88.2364ZM175.129 176.259L155.476 187.529V176.958L170.772 168.207C185.332 157.71 187.74 142.23 187.74 136.862L187.685 89.3211L145.972 65.3115C145.972 65.3115 139.629 61.1567 128.231 61.1567C116.833 61.1567 110.619 64.999 110.619 64.999L95.9669 73.4189L86.7198 68.0691L106.961 56.5056C106.961 56.5056 114.884 52.1118 128.157 52.1118C140.346 52.1118 149.832 56.8732 149.832 56.8732L196.932 84.0816L196.877 135.961C197.208 143.94 193.494 163.427 175.129 176.259Z" fill="#005F9E"/>
<path d="M36.0901 102.558L100.397 139.454L100.342 150.448L63.7581 129.472L40.7413 142.561L100.306 176.884L100.342 187.474L36.5313 150.761C36.6968 155.062 40.5942 168.317 48.0581 178.576C55.6323 188.963 64.2728 193.375 64.2728 193.375L123.249 227.33V126.071L36.1452 76.0479L36.0901 102.558Z" fill="#005F9E"/>
</g>
<defs>
<clipPath id="clip0_248_2968">
<rect width="256" height="256" fill="white"/>
</clipPath>
</defs>
</svg>
