<svg width="256" height="256" viewBox="0 0 256 256" fill="none" xmlns="http://www.w3.org/2000/svg">
<g clip-path="url(#clip0_313_120)">
<path d="M196 0H60C26.8629 0 0 26.8629 0 60V196C0 229.137 26.8629 256 60 256H196C229.137 256 256 229.137 256 196V60C256 26.8629 229.137 0 196 0Z" fill="#501C51"/>
<path d="M71.5859 155.123C71.5859 166.577 62.2453 175.931 50.7906 175.931C39.3359 175.931 29.9844 166.577 29.9844 155.123C29.9844 143.67 39.3391 134.316 50.7922 134.316H71.5875L71.5859 155.123ZM82.0687 155.123C82.0687 143.67 91.4234 134.316 102.877 134.316C114.33 134.316 123.684 143.669 123.684 155.123V207.209C123.684 218.662 114.331 228.017 102.877 228.017C91.4234 228.017 82.0687 218.662 82.0687 207.209V155.123Z" fill="#DE1C59"/>
<path d="M102.877 71.5859C91.4234 71.5859 82.0687 62.2453 82.0687 50.7906C82.0687 39.3359 91.4234 29.9844 102.877 29.9844C114.33 29.9844 123.684 39.3391 123.684 50.7922V71.5875L102.877 71.5859ZM102.877 82.0687C114.33 82.0687 123.684 91.4234 123.684 102.877C123.684 114.33 114.331 123.684 102.877 123.684H50.7906C39.3375 123.684 29.9844 114.331 29.9844 102.877C29.9844 91.4234 39.3391 82.0687 50.7922 82.0687H102.877Z" fill="#35C5F0"/>
<path d="M186.414 102.877C186.414 91.4234 195.754 82.0687 207.209 82.0687C218.664 82.0687 228.017 91.4234 228.017 102.877C228.017 114.33 218.662 123.684 207.209 123.684H186.414V102.877ZM175.931 102.877C175.931 114.33 166.576 123.684 155.123 123.684C143.67 123.684 134.315 114.331 134.315 102.877V50.7906C134.315 39.3375 143.669 29.9844 155.123 29.9844C166.576 29.9844 175.931 39.3391 175.931 50.7922V102.877Z" fill="#2EB57D"/>
<path d="M155.123 186.414C166.576 186.414 175.931 195.755 175.931 207.209C175.931 218.664 166.576 228.017 155.123 228.017C143.67 228.017 134.315 218.662 134.315 207.209V186.414H155.123ZM155.123 175.931C143.67 175.931 134.315 166.577 134.315 155.123C134.315 143.67 143.669 134.316 155.123 134.316H207.209C218.662 134.316 228.017 143.669 228.017 155.123C228.017 166.577 218.662 175.931 207.209 175.931H155.123Z" fill="#EBB02E"/>
</g>
<defs>
<clipPath id="clip0_313_120">
<rect width="256" height="256" fill="white"/>
</clipPath>
</defs>
</svg>
