<svg width="256" height="256" viewBox="0 0 256 256" fill="none" xmlns="http://www.w3.org/2000/svg">
<g clip-path="url(#clip0_313_128)">
<rect width="256" height="256" rx="60" fill="white"/>
<path d="M70.5859 154.123C70.5859 165.577 61.2453 174.931 49.7906 174.931C38.3359 174.931 28.9844 165.577 28.9844 154.123C28.9844 142.67 38.3391 133.316 49.7922 133.316H70.5875L70.5859 154.123ZM81.0687 154.123C81.0687 142.67 90.4234 133.316 101.877 133.316C113.33 133.316 122.684 142.669 122.684 154.123V206.209C122.684 217.662 113.331 227.017 101.877 227.017C90.4234 227.017 81.0687 217.662 81.0687 206.209V154.123Z" fill="#DE1C59"/>
<path d="M101.877 70.5859C90.4234 70.5859 81.0687 61.2453 81.0687 49.7906C81.0687 38.3359 90.4234 28.9844 101.877 28.9844C113.33 28.9844 122.684 38.3391 122.684 49.7922V70.5875L101.877 70.5859ZM101.877 81.0687C113.33 81.0687 122.684 90.4234 122.684 101.877C122.684 113.33 113.331 122.684 101.877 122.684H49.7906C38.3375 122.684 28.9844 113.331 28.9844 101.877C28.9844 90.4234 38.3391 81.0687 49.7922 81.0687H101.877Z" fill="#35C5F0"/>
<path d="M185.414 101.877C185.414 90.4234 194.754 81.0687 206.209 81.0687C217.664 81.0687 227.017 90.4234 227.017 101.877C227.017 113.33 217.662 122.684 206.209 122.684H185.414V101.877ZM174.931 101.877C174.931 113.33 165.576 122.684 154.123 122.684C142.67 122.684 133.315 113.331 133.315 101.877V49.7906C133.315 38.3375 142.669 28.9844 154.123 28.9844C165.576 28.9844 174.931 38.3391 174.931 49.7922V101.877Z" fill="#2EB57D"/>
<path d="M154.123 185.414C165.576 185.414 174.931 194.755 174.931 206.209C174.931 217.664 165.576 227.017 154.123 227.017C142.67 227.017 133.315 217.662 133.315 206.209V185.414H154.123ZM154.123 174.931C142.67 174.931 133.315 165.577 133.315 154.123C133.315 142.67 142.669 133.316 154.123 133.316H206.209C217.662 133.316 227.017 142.669 227.017 154.123C227.017 165.577 217.662 174.931 206.209 174.931H154.123Z" fill="#EBB02E"/>
</g>
<defs>
<clipPath id="clip0_313_128">
<rect width="256" height="256" fill="white"/>
</clipPath>
</defs>
</svg>
