<svg width="256" height="256" viewBox="0 0 256 256" fill="none" xmlns="http://www.w3.org/2000/svg">
<g clip-path="url(#clip0_313_123)">
<rect width="256" height="256" rx="60" fill="#242938"/>
<path d="M71.5859 154.123C71.5859 165.577 62.2453 174.931 50.7906 174.931C39.3359 174.931 29.9844 165.577 29.9844 154.123C29.9844 142.67 39.3391 133.316 50.7922 133.316H71.5875L71.5859 154.123ZM82.0687 154.123C82.0687 142.67 91.4234 133.316 102.877 133.316C114.33 133.316 123.684 142.669 123.684 154.123V206.209C123.684 217.662 114.331 227.017 102.877 227.017C91.4234 227.017 82.0687 217.662 82.0687 206.209V154.123Z" fill="#DE1C59"/>
<path d="M102.877 70.5859C91.4234 70.5859 82.0687 61.2453 82.0687 49.7906C82.0687 38.3359 91.4234 28.9844 102.877 28.9844C114.33 28.9844 123.684 38.3391 123.684 49.7922V70.5875L102.877 70.5859ZM102.877 81.0687C114.33 81.0687 123.684 90.4234 123.684 101.877C123.684 113.33 114.331 122.684 102.877 122.684H50.7906C39.3375 122.684 29.9844 113.331 29.9844 101.877C29.9844 90.4234 39.3391 81.0687 50.7922 81.0687H102.877Z" fill="#35C5F0"/>
<path d="M186.414 101.877C186.414 90.4234 195.754 81.0687 207.209 81.0687C218.664 81.0687 228.017 90.4234 228.017 101.877C228.017 113.33 218.662 122.684 207.209 122.684H186.414V101.877ZM175.931 101.877C175.931 113.33 166.576 122.684 155.123 122.684C143.67 122.684 134.315 113.331 134.315 101.877V49.7906C134.315 38.3375 143.669 28.9844 155.123 28.9844C166.576 28.9844 175.931 38.3391 175.931 49.7922V101.877Z" fill="#2EB57D"/>
<path d="M155.123 185.414C166.576 185.414 175.931 194.755 175.931 206.209C175.931 217.664 166.576 227.017 155.123 227.017C143.67 227.017 134.315 217.662 134.315 206.209V185.414H155.123ZM155.123 174.931C143.67 174.931 134.315 165.577 134.315 154.123C134.315 142.67 143.669 133.316 155.123 133.316H207.209C218.662 133.316 228.017 142.669 228.017 154.123C228.017 165.577 218.662 174.931 207.209 174.931H155.123Z" fill="#EBB02E"/>
</g>
<defs>
<clipPath id="clip0_313_123">
<rect width="256" height="256" fill="white"/>
</clipPath>
</defs>
</svg>
