<svg width="256" height="256" viewBox="0 0 256 256" fill="none" xmlns="http://www.w3.org/2000/svg">
<g clip-path="url(#clip0_248_1079)">
<path d="M196 0H60C26.8629 0 0 26.8629 0 60V196C0 229.137 26.8629 256 60 256H196C229.137 256 256 229.137 256 196V60C256 26.8629 229.137 0 196 0Z" fill="#D2DFFF"/>
<path d="M228 74.4319C228 74.4319 161.333 25.3753 109.762 36.6961L105.988 37.9539C98.4403 40.4697 92.151 44.2432 88.3775 49.2746L85.8617 53.0483L66.9938 85.7527L99.698 92.0419C113.534 100.847 131.145 104.621 147.497 100.847L205.358 112.168L228 74.4319Z" fill="#76B3E1"/>
<path opacity="0.3" d="M228 74.4319C228 74.4319 161.333 25.3753 109.762 36.6961L105.988 37.9539C98.4403 40.4697 92.151 44.2432 88.3775 49.2746L85.8617 53.0483L66.9938 85.7527L99.698 92.0419C113.534 100.847 131.145 104.621 147.497 100.847L205.358 112.168L228 74.4319Z" fill="url(#paint0_linear_248_1079)"/>
<path d="M88.3775 74.4314L83.346 75.6893C61.9624 81.9786 55.673 102.104 66.9939 119.714C79.5724 136.066 105.988 144.872 127.371 138.582L205.358 112.168C205.358 112.168 138.692 63.1107 88.3775 74.4314Z" fill="#518AC8"/>
<path opacity="0.3" d="M88.3775 74.4314L83.346 75.6893C61.9624 81.9786 55.673 102.104 66.9939 119.714C79.5724 136.066 105.988 144.872 127.371 138.582L205.358 112.168C205.358 112.168 138.692 63.1107 88.3775 74.4314Z" fill="url(#paint1_linear_248_1079)"/>
<path d="M191.522 131.035C184.479 122.238 174.972 115.742 164.215 112.38C153.458 109.019 141.944 108.945 131.145 112.168L53.1572 137.325L28 181.35L168.88 205.249L194.037 159.967C199.069 151.162 197.811 141.098 191.522 131.035Z" fill="url(#paint2_linear_248_1079)"/>
<path d="M166.365 175.06C159.323 166.262 149.815 159.766 139.057 156.405C128.301 153.043 116.786 152.969 105.987 156.192L28 181.349C28 181.349 94.6666 231.664 146.238 219.085L150.012 217.828C171.396 211.538 178.944 191.412 166.365 175.06Z" fill="url(#paint3_linear_248_1079)"/>
</g>
<defs>
<linearGradient id="paint0_linear_248_1079" x1="57.5599" y1="34.1804" x2="214.164" y2="110.281" gradientUnits="userSpaceOnUse">
<stop offset="0.1" stop-color="#76B3E1"/>
<stop offset="0.3" stop-color="#DCF2FD"/>
<stop offset="1" stop-color="#76B3E1"/>
</linearGradient>
<linearGradient id="paint1_linear_248_1079" x1="143.472" y1="71.4126" x2="116.05" y2="162.733" gradientUnits="userSpaceOnUse">
<stop stop-color="#76B3E1"/>
<stop offset="0.5" stop-color="#4377BB"/>
<stop offset="1" stop-color="#1F3B77"/>
</linearGradient>
<linearGradient id="paint2_linear_248_1079" x1="46.1132" y1="111.162" x2="204.478" y2="218.834" gradientUnits="userSpaceOnUse">
<stop stop-color="#315AA9"/>
<stop offset="0.5" stop-color="#518AC8"/>
<stop offset="1" stop-color="#315AA9"/>
</linearGradient>
<linearGradient id="paint3_linear_248_1079" x1="117.559" y1="124.116" x2="53.6603" y2="358.457" gradientUnits="userSpaceOnUse">
<stop stop-color="#4377BB"/>
<stop offset="0.5" stop-color="#1A336B"/>
<stop offset="1" stop-color="#1A336B"/>
</linearGradient>
<clipPath id="clip0_248_1079">
<rect width="256" height="256" fill="white"/>
</clipPath>
</defs>
</svg>
