<svg width="256" height="256" viewBox="0 0 256 256" fill="none" xmlns="http://www.w3.org/2000/svg">
<g clip-path="url(#clip0_248_6258)">
<path d="M196 0H60C26.8629 0 0 26.8629 0 60V196C0 229.137 26.8629 256 60 256H196C229.137 256 256 229.137 256 196V60C256 26.8629 229.137 0 196 0Z" fill="#E6E3EC"/>
<path opacity="0.8" d="M128.5 83.3766L97.25 29.25L66 83.3766L97.25 137.503L128.5 83.3766Z" fill="#2B247C"/>
<path opacity="0.45" d="M128.5 83.3864L159.75 29.2598H97.25L66 83.3864H128.5Z" fill="#2B247C"/>
<path opacity="0.6" d="M159.75 29.2598H97.25L128.5 83.3864H191L159.75 29.2598Z" fill="#2B247C"/>
<path opacity="0.8" d="M128.5 172.623L159.75 226.749L191 172.623L159.75 118.496L128.5 172.623Z" fill="#2B247C"/>
<path opacity="0.45" d="M128.5 172.613L97.25 226.741H159.75L191 172.613H128.5Z" fill="#2B247C"/>
<path opacity="0.6" d="M97.25 226.741H159.75L128.5 172.613H66L97.25 226.741Z" fill="#2B247C"/>
</g>
<defs>
<clipPath id="clip0_248_6258">
<rect width="256" height="256" fill="white"/>
</clipPath>
</defs>
</svg>
