<svg width="256" height="848" viewBox="0 0 256 848" fill="none" xmlns="http://www.w3.org/2000/svg">
<g clip-path="url(#clip0_211_3474)">
<path d="M196 0H60C26.8629 0 0 26.8629 0 60V196C0 229.137 26.8629 256 60 256H196C229.137 256 256 229.137 256 196V60C256 26.8629 229.137 0 196 0Z" fill="#5FB832"/>
<path d="M209.545 171.821C184.93 204.618 132.347 193.547 98.6353 195.139C98.6353 195.139 92.6673 195.471 86.6563 196.461C86.6563 196.461 88.9292 195.491 91.8279 194.492C115.506 186.304 126.695 184.659 141.082 177.269C168.114 163.421 195.018 133.259 200.492 101.925C190.202 132.061 158.909 157.998 130.415 168.53C110.911 175.727 75.6419 182.731 75.6368 182.734C75.6533 182.759 74.2312 181.996 74.2113 181.979C50.2253 170.309 49.5332 118.359 93.0965 101.613C112.197 94.2661 130.466 98.3015 151.114 93.387C173.136 88.151 198.642 71.644 209.009 50.063C220.631 84.5351 234.592 138.467 209.545 171.821ZM209.973 39.3809C207.043 46.343 203.466 52.6167 199.344 58.2281C181.197 39.6038 155.868 27.9999 127.871 27.9999C72.7989 27.9999 28 72.8039 28 127.866C28 156.731 40.3209 182.764 59.9644 201.012L62.1514 202.949C58.4993 199.971 57.9377 194.608 60.8977 190.952C63.8759 187.295 69.2444 186.728 72.8983 189.69C76.562 192.658 77.1202 198.035 74.1538 201.697C71.1984 205.361 65.8202 205.914 62.1614 202.958L63.6497 204.276C81.0254 218.906 103.424 227.743 127.871 227.743C180.511 227.743 223.736 186.778 227.436 135.073C230.176 109.757 222.699 77.6106 209.973 39.3809Z" fill="white"/>
</g>
<g clip-path="url(#clip1_211_3474)">
<rect y="296" width="256" height="256" rx="60" fill="#242938"/>
<path d="M209.545 467.821C184.93 500.618 132.347 489.547 98.6353 491.139C98.6353 491.139 92.6673 491.471 86.6563 492.461C86.6563 492.461 88.9292 491.491 91.8279 490.492C115.506 482.304 126.695 480.659 141.082 473.269C168.114 459.421 195.018 429.259 200.492 397.925C190.202 428.061 158.909 453.998 130.415 464.53C110.911 471.727 75.6419 478.731 75.6368 478.734C75.6533 478.759 74.2312 477.996 74.2113 477.979C50.2253 466.309 49.5332 414.359 93.0965 397.613C112.197 390.266 130.466 394.301 151.114 389.387C173.136 384.151 198.642 367.644 209.009 346.063C220.631 380.535 234.592 434.467 209.545 467.821ZM209.973 335.381C207.043 342.343 203.466 348.617 199.344 354.228C181.197 335.604 155.868 324 127.871 324C72.7989 324 28 368.804 28 423.866C28 452.731 40.3209 478.764 59.9644 497.012L62.1514 498.949C58.4993 495.971 57.9377 490.608 60.8977 486.952C63.8759 483.295 69.2444 482.728 72.8983 485.69C76.562 488.658 77.1202 494.035 74.1538 497.697C71.1984 501.361 65.8202 501.914 62.1614 498.958L63.6497 500.276C81.0254 514.906 103.424 523.743 127.871 523.743C180.511 523.743 223.736 482.778 227.436 431.073C230.176 405.757 222.699 373.611 209.973 335.381Z" fill="#5FB832"/>
</g>
<g clip-path="url(#clip2_211_3474)">
<rect y="592" width="256" height="256" rx="60" fill="white"/>
<path d="M209.545 763.821C184.93 796.618 132.347 785.547 98.6353 787.139C98.6353 787.139 92.6673 787.471 86.6563 788.461C86.6563 788.461 88.9292 787.491 91.8279 786.492C115.506 778.304 126.695 776.659 141.082 769.269C168.114 755.421 195.018 725.259 200.492 693.925C190.202 724.061 158.909 749.998 130.415 760.53C110.911 767.727 75.6419 774.731 75.6368 774.734C75.6533 774.759 74.2312 773.996 74.2113 773.979C50.2253 762.309 49.5332 710.359 93.0965 693.613C112.197 686.266 130.466 690.301 151.114 685.387C173.136 680.151 198.642 663.644 209.009 642.063C220.631 676.535 234.592 730.467 209.545 763.821ZM209.973 631.381C207.043 638.343 203.466 644.617 199.344 650.228C181.197 631.604 155.868 620 127.871 620C72.7989 620 28 664.804 28 719.866C28 748.731 40.3209 774.764 59.9644 793.012L62.1514 794.949C58.4993 791.971 57.9377 786.608 60.8977 782.952C63.8759 779.295 69.2444 778.728 72.8983 781.69C76.562 784.658 77.1202 790.035 74.1538 793.697C71.1984 797.361 65.8202 797.914 62.1614 794.958L63.6497 796.276C81.0254 810.906 103.424 819.743 127.871 819.743C180.511 819.743 223.736 778.778 227.436 727.073C230.176 701.757 222.699 669.611 209.973 631.381Z" fill="#5FB832"/>
</g>
<defs>
<clipPath id="clip0_211_3474">
<rect width="256" height="256" fill="white"/>
</clipPath>
<clipPath id="clip1_211_3474">
<rect width="256" height="256" fill="white" transform="translate(0 296)"/>
</clipPath>
<clipPath id="clip2_211_3474">
<rect width="256" height="256" fill="white" transform="translate(0 592)"/>
</clipPath>
</defs>
</svg>
