<svg width="256" height="256" viewBox="0 0 256 256" fill="none" xmlns="http://www.w3.org/2000/svg">
<g clip-path="url(#clip0_248_1751)">
<rect width="256" height="256" rx="60" fill="white"/>
<path d="M180.938 28H75.5116C49.824 28 29 48.824 29 74.5116V179.938C29 205.626 49.824 226.45 75.5116 226.45H180.938C206.626 226.45 227.45 205.626 227.45 179.938V74.5116C227.45 48.824 206.626 28 180.938 28Z" fill="#B7CDF4"/>
<path d="M75.5116 28C49.824 28 29 48.824 29 74.5116V179.938C29 205.626 49.824 226.45 75.5116 226.45H159.589C158.21 222.385 157.13 215.949 156.522 208.602C155.999 202.283 155.826 195.291 156.116 188.548C156.037 187.551 155.99 186.903 155.99 186.903C155.99 186.903 154.537 177.128 152.447 169.098C151.521 165.533 150.467 162.31 149.361 160.442C148.791 159.478 149.423 155.519 151.013 149.654C151.943 151.26 155.868 158.129 156.657 160.343C157.544 162.845 157.73 163.562 157.73 163.562C157.73 163.562 155.578 152.498 152.046 146.043C152.82 143.433 153.745 140.548 154.791 137.464C156.015 139.609 158.795 144.535 159.8 146.869C159.893 147.085 159.977 147.288 160.038 147.456C160.181 147.86 160.301 148.204 160.409 148.519C160.975 150.16 161.113 150.683 161.113 150.683C161.113 150.683 160.903 149.609 160.512 147.951C160.347 147.251 160.142 146.428 159.913 145.551C159.023 142.133 157.671 137.659 155.94 134.153C160.384 111.057 174.685 80.8143 190.093 64.4875C191.421 63.0817 192.755 61.7657 194.091 60.5795C203.098 52.5949 212.225 49.8979 219.762 56.612C225.215 61.4708 227.446 68.1819 227.45 75.9073V74.5116C227.45 48.824 206.626 28 180.938 28H75.5116Z" fill="#D9D9D9"/>
<path d="M75.5116 28C49.824 28 29 48.824 29 74.5116V179.938C29 205.626 49.824 226.45 75.5116 226.45H159.589C158.21 222.385 157.13 215.949 156.522 208.602C155.999 202.283 155.826 195.291 156.116 188.548C156.037 187.551 155.99 186.903 155.99 186.903C155.99 186.903 154.537 177.128 152.447 169.098C151.521 165.533 150.467 162.31 149.361 160.442C148.791 159.478 149.423 155.519 151.013 149.654C151.943 151.26 155.868 158.129 156.657 160.343C157.544 162.845 157.73 163.562 157.73 163.562C157.73 163.562 155.578 152.498 152.046 146.043C152.82 143.433 153.745 140.548 154.791 137.464C156.015 139.609 158.795 144.535 159.8 146.869C159.893 147.085 159.977 147.288 160.038 147.456C160.181 147.86 160.301 148.204 160.409 148.519C160.975 150.16 161.113 150.683 161.113 150.683C161.113 150.683 160.903 149.609 160.512 147.951C160.347 147.251 160.142 146.428 159.913 145.551C159.023 142.133 157.671 137.659 155.94 134.153C160.384 111.057 174.685 80.8143 190.093 64.4875C191.421 63.0817 192.755 61.7657 194.091 60.5795C203.098 52.5949 212.225 49.8979 219.762 56.612C225.215 61.4708 227.446 68.1819 227.45 75.9073V74.5116C227.45 48.824 206.626 28 180.938 28H75.5116Z" fill="url(#paint0_linear_248_1751)"/>
<path d="M219.762 56.612C212.225 49.8979 203.098 52.5948 194.092 60.5794C192.755 61.7656 191.421 63.0817 190.093 64.4875C174.685 80.8143 160.384 111.057 155.94 134.153C157.671 137.659 159.023 142.133 159.913 145.551C160.142 146.428 160.347 147.251 160.512 147.951C160.903 149.608 161.113 150.683 161.113 150.683C161.113 150.683 160.975 150.16 160.409 148.519C160.301 148.204 160.181 147.86 160.038 147.456C159.977 147.288 159.893 147.085 159.8 146.869C158.795 144.535 156.015 139.609 154.792 137.464C153.745 140.548 152.82 143.433 152.046 146.043C155.578 152.498 157.73 163.562 157.73 163.562C157.73 163.562 157.544 162.845 156.657 160.343C155.868 158.129 151.943 151.26 151.013 149.654C149.423 155.519 148.792 159.478 149.361 160.442C150.467 162.31 151.521 165.533 152.447 169.098C154.537 177.128 155.99 186.903 155.99 186.903C155.99 186.903 156.037 187.551 156.116 188.548C155.826 195.291 155.999 202.283 156.523 208.602C157.215 216.967 158.519 224.154 160.181 228L161.309 227.385C158.868 219.808 157.877 209.878 158.311 198.426C158.967 180.921 163.001 159.811 170.452 137.808C183.041 104.594 200.508 77.9447 216.494 65.218C201.923 78.3617 182.203 120.907 176.3 136.662C169.691 154.305 165.006 170.861 162.184 186.723C167.054 171.853 182.802 165.46 182.802 165.46C182.802 165.46 190.526 155.946 199.553 142.352C194.146 143.584 185.267 145.692 182.293 146.94C177.907 148.778 176.725 149.405 176.725 149.405C176.725 149.405 190.934 140.762 203.125 136.849C219.891 110.473 238.156 73.0024 219.762 56.612Z" fill="#003B57"/>
</g>
<defs>
<linearGradient id="paint0_linear_248_1751" x1="143.429" y1="32.0612" x2="143.429" y2="215.413" gradientUnits="userSpaceOnUse">
<stop stop-color="#97D9F6"/>
<stop offset="0.920245" stop-color="#0F80CC"/>
<stop offset="1" stop-color="#0F80CC"/>
</linearGradient>
<clipPath id="clip0_248_1751">
<rect width="256" height="256" fill="white"/>
</clipPath>
</defs>
</svg>
