<svg width="256" height="256" viewBox="0 0 256 256" fill="none" xmlns="http://www.w3.org/2000/svg">
<g clip-path="url(#clip0_292_25)">
<path d="M196 0H60C26.8629 0 0 26.8629 0 60V196C0 229.137 26.8629 256 60 256H196C229.137 256 256 229.137 256 196V60C256 26.8629 229.137 0 196 0Z" fill="white"/>
<path d="M152.005 122.367L111.952 135.445L77.108 150.823L67.358 153.398C64.7847 155.856 62.15 158.248 59.4565 160.573C56.369 163.236 53.494 165.659 51.2846 167.414C48.8315 169.352 45.1987 172.984 43.3518 175.286C40.5955 178.738 38.4174 182.4 37.4784 185.216C35.8127 190.302 36.6315 195.448 39.8393 200.202C43.958 206.256 52.1612 212.433 61.7268 216.639C66.6018 218.791 74.8049 221.545 80.983 223.087C91.244 225.692 111.105 228.509 122.033 228.931C124.242 229.023 127.21 229.023 127.33 228.931C127.574 228.78 129.269 225.541 131.238 221.516C137.956 207.8 142.8 194.934 145.436 183.944C147.01 177.284 148.25 168.414 149.067 157.909C149.28 154.972 149.371 145.133 149.189 141.803C148.916 136.355 148.431 131.934 147.674 127.606C147.553 126.969 147.524 126.394 147.585 126.362C147.705 126.273 148.069 126.152 153.003 124.728L152.005 122.367ZM142.863 127.727C143.227 127.727 144.194 137.019 144.436 142.892C144.497 144.134 144.467 144.952 144.405 144.952C144.164 144.952 139.289 142.077 135.81 139.895C132.781 137.989 127.028 134.175 126.122 133.447C125.817 133.236 125.847 133.205 128.33 132.358C132.538 130.936 142.53 127.725 142.861 127.725L142.863 127.727ZM122.456 134.445C122.73 134.445 123.425 134.839 125.091 135.869C131.327 139.775 139.805 144.498 143.438 146.072C144.556 146.556 144.678 146.373 142.105 148.131C136.596 151.884 129.724 155.578 121.308 159.302C119.824 159.967 118.581 160.481 118.552 160.481C118.491 160.481 118.674 159.725 118.916 158.817C120.942 151.278 122.094 143.65 122.155 137.534C122.186 134.506 122.186 134.506 122.458 134.416C122.396 134.447 122.427 134.447 122.458 134.447L122.456 134.445ZM118.25 136.05C118.431 136.233 118.31 143.014 118.067 144.861C117.525 149.323 116.593 153.73 115.283 158.03C114.95 159.15 114.647 160.089 114.586 160.148C114.464 160.3 110.317 156.242 108.955 154.669C106.594 151.944 104.747 149.22 103.385 146.556C102.689 145.194 101.599 142.53 101.689 142.439C102.174 142.105 118.128 135.93 118.25 136.05ZM98.4502 143.831C98.4799 143.831 98.5096 143.831 98.5409 143.861C98.6018 143.922 98.8143 144.408 98.9955 144.952C99.9643 147.584 102.142 151.459 104.021 153.942C106.08 156.667 108.774 159.575 111.014 161.481C111.741 162.086 112.406 162.661 112.497 162.752C112.678 162.934 112.739 162.903 107.803 164.781C102.085 166.961 95.8471 169.141 88.7018 171.441C86.995 171.991 85.2898 172.546 83.5862 173.106C83.3127 173.197 83.4049 173.044 84.1909 171.803C87.733 166.266 93.1205 155.397 96.1487 147.706C96.6643 146.373 97.1799 145.042 97.2705 144.739C97.3909 144.316 97.5424 144.164 97.9346 143.952C98.1471 143.892 98.3596 143.831 98.4502 143.831ZM92.3955 146.344C92.4862 146.405 90.9424 149.644 89.4284 152.609C86.4909 158.333 83.283 163.964 78.9846 170.806C78.2565 171.986 77.5627 173.077 77.469 173.197C77.319 173.409 77.2596 173.348 76.7737 172.411C75.744 170.381 74.8971 167.778 74.4424 165.386C73.9893 163.025 74.0799 158.908 74.5955 156.364C74.9862 154.489 74.958 154.519 75.8659 154.064C79.7409 152.095 92.2737 146.223 92.3955 146.344ZM144.617 148.464V149.734C144.617 156.486 143.891 165.75 142.831 172.5C142.65 173.681 142.499 174.65 142.469 174.681C142.469 174.681 141.591 174.439 140.563 174.136C135.738 172.604 131.073 170.606 126.635 168.172C123.697 166.567 119.431 163.933 119.552 163.812C119.581 163.781 120.853 163.116 122.336 162.328C128.271 159.241 133.961 155.911 138.897 152.609C140.744 151.369 143.528 149.372 144.133 148.827L144.617 148.464ZM69.5393 157.423C69.6596 157.423 69.6284 157.666 69.4471 158.756C69.2961 159.831 69.185 160.911 69.1143 161.994C68.8721 166.416 69.5987 169.686 71.7784 174.166C72.3846 175.406 72.869 176.436 72.8377 176.466C72.6268 176.648 52.5846 182.522 46.2877 184.247C44.4112 184.763 42.7768 185.216 42.6549 185.245C42.4424 185.308 42.4127 185.277 42.5034 184.761C43.2002 180.311 46.5909 174.498 51.3143 169.594C54.4612 166.323 56.9752 164.417 61.2737 161.966C64.3612 160.209 69.1143 157.575 69.4768 157.455C69.4768 157.423 69.508 157.423 69.5393 157.423ZM116.766 165.87C116.797 165.839 117.522 166.234 118.4 166.748C124.88 170.503 133.9 173.984 141.589 175.77L142.286 175.922L141.317 176.467C137.292 178.708 124.061 184.217 110.53 189.272C108.561 189.998 106.624 190.725 106.261 190.877C105.899 191.028 105.564 191.119 105.564 191.087C105.564 191.056 106.11 189.998 106.805 188.697C110.589 181.613 114.403 172.984 116.342 166.991C116.585 166.416 116.735 165.902 116.764 165.87H116.766ZM111.953 167.444C111.983 167.475 111.741 168.111 111.438 168.838C108.803 175.225 105.352 182.189 100.931 189.998C99.8127 191.998 98.8737 193.602 98.844 193.602C98.8143 193.602 97.9049 193.056 96.8143 192.391C90.3971 188.455 84.7049 183.611 80.983 178.919L80.4362 178.253L83.1924 177.495C93.0612 174.802 101.447 171.895 109.772 168.323C110.953 167.839 111.924 167.444 111.953 167.444ZM141.863 177.889C141.894 178.586 140.349 184.822 139.077 189.333C138.017 193.117 137.11 196.083 135.444 201.32C134.719 203.623 134.085 205.528 134.053 205.528C134.022 205.528 133.841 205.5 133.658 205.439C124.667 203.803 116.614 201.533 109.046 198.506C106.927 197.658 103.9 196.295 103.717 196.144C103.658 196.083 105.474 195.236 107.775 194.237C121.55 188.212 135.838 181.37 140.744 178.434C141.319 178.07 141.772 177.889 141.863 177.889ZM72.808 180.25C72.869 180.313 69.0237 185.852 63.6362 193.391C61.758 196.023 59.5784 199.111 58.7612 200.261C57.8158 201.595 56.8974 202.948 56.0065 204.319L54.7346 206.287L53.3721 205.136C51.7674 203.803 48.983 200.958 47.7409 199.384C45.1377 196.145 43.3815 192.723 42.6862 189.606C42.3518 188.153 42.3518 187.425 42.6549 187.336C48.0191 186.054 53.3879 184.792 58.7612 183.55C62.3772 182.718 65.9897 181.87 69.5987 181.008C71.3549 180.584 72.7784 180.25 72.808 180.25ZM76.683 181.734L77.6518 182.823C82.0112 187.698 86.4612 191.302 91.8502 194.448C92.819 194.995 93.5455 195.48 93.4846 195.511C93.2737 195.661 74.7752 202.23 66.208 205.197C63.2782 206.235 60.3417 207.254 57.3987 208.255C57.369 208.255 57.0955 208.072 56.794 207.861L56.2487 207.467L57.1268 206.195C59.9705 202.078 63.544 197.567 71.3237 188.183L76.683 181.734ZM100.842 199.02C100.872 198.989 102.203 199.473 103.839 200.081C107.775 201.564 110.892 202.503 115.071 203.563C120.217 204.864 127.664 206.136 132.055 206.5C132.721 206.559 133.083 206.62 132.963 206.711C132.75 206.831 128.3 208.316 125.031 209.344C119.824 210.98 103.93 215.672 90.9721 219.395C89.4517 219.84 87.9282 220.275 86.4018 220.698C86.0987 220.758 85.0987 220.484 85.0987 220.364C85.0987 220.305 85.8252 219.366 86.7034 218.336C91.0627 213.128 95.3924 207.316 98.9955 201.806C99.9955 200.292 100.842 199.05 100.842 199.02ZM95.5143 199.172C95.544 199.203 93.394 202.653 89.6393 208.587C88.0362 211.1 86.2487 213.947 85.6143 214.945C85.008 215.914 84.0987 217.428 83.5862 218.275L82.708 219.819L82.2534 219.698C81.1627 219.395 73.5034 216.7 71.4752 215.883C69.0699 214.926 66.7157 213.845 64.4221 212.645C62.0002 211.342 58.9737 209.405 59.2159 209.344C59.2752 209.312 63.4237 208.194 68.419 206.831C81.6768 203.228 89.0346 201.141 93.8487 199.627C94.7268 199.353 95.483 199.142 95.5127 199.173L95.5143 199.172ZM133.205 208.011H133.236C133.356 208.316 128.452 221.937 126.664 226.236C126.272 227.205 126.121 227.448 125.908 227.417C125.394 227.386 118.28 226.389 113.95 225.753C106.413 224.603 93.7565 222.392 90.5799 221.666L89.8518 221.514L94.3627 220.484C104.05 218.305 108.713 217.125 113.436 215.672C119.536 213.807 125.494 211.51 131.267 208.798C132.205 208.377 132.992 208.041 133.205 208.011Z" fill="url(#paint0_linear_292_25)"/>
<path d="M110.711 29.0016C110.045 28.9109 99.2969 32.7859 92.3657 35.6016C83.0094 39.4156 75.7453 43.0484 71.2641 46.1969C69.5985 47.3781 67.5094 49.4672 67.1766 50.2844C67.0524 50.6133 66.9909 50.9625 66.9953 51.3141L71.0532 55.1578L80.7094 58.2469L103.688 62.3641L129.964 66.875L130.238 64.6047C130.147 64.6047 130.086 64.5734 129.995 64.5734L126.544 64.0297L125.848 62.7875C122.275 56.4906 118.341 48.6797 116.039 43.4125C114.255 39.325 112.558 34.6031 111.62 31.2125C111.105 29.1531 111.045 29.0312 110.711 29V29.0016ZM110.227 30.5453H110.258C110.288 30.5766 110.408 31.425 110.53 32.4234C111.045 36.6609 111.983 40.7484 113.467 45.1687C114.586 48.4969 114.586 48.3172 113.284 47.9234C110.197 47.0766 96.3625 44.6844 86.3407 43.2906C84.736 43.0797 83.3735 42.8687 83.3735 42.8375C83.2532 42.7156 90.6078 38.8719 93.8485 37.3578C97.9953 35.4516 109.38 30.6969 110.227 30.5453ZM81.0422 44.1094L82.2235 44.5031C88.6422 46.6828 104.777 49.7719 113.678 50.4984C114.677 50.5891 115.525 50.6797 115.553 50.6797C115.584 50.7109 114.738 51.1641 113.647 51.6781C109.348 53.8281 104.625 56.4625 101.356 58.4906C100.388 59.0953 99.5094 59.5813 99.3875 59.5813C99.2672 59.5813 98.6313 59.4594 97.9657 59.3672L96.7547 59.1859L93.7266 56.2188C90.0454 52.6336 86.3422 49.071 82.6172 45.5312L81.0422 44.1094ZM79.8313 45.0484L84.1 50.3766C86.4313 53.3141 88.7938 56.1891 89.3078 56.825C89.8219 57.4609 90.2453 57.975 90.2141 58.0062C90.0938 58.0969 84.0391 56.9156 80.8313 56.1906C77.5313 55.4328 76.1688 55.0688 74.1407 54.4328L72.475 53.8875V53.4656C72.5063 51.4344 75.0797 48.4078 79.4375 45.3219L79.8313 45.0484ZM116.1 52.3141C116.22 52.3141 116.372 52.5859 116.734 53.4031C117.766 55.6734 120.973 61.7891 121.761 62.9703C122.003 63.3641 122.427 63.3953 118.158 62.6984C107.895 61.0328 104.595 60.4875 104.595 60.4281C104.595 60.3969 104.898 60.1859 105.292 59.9734C108.472 58.2172 111.68 55.9781 114.527 53.5859C115.222 53.0109 115.858 52.4656 115.98 52.375C116.009 52.3141 116.069 52.2844 116.1 52.3141Z" fill="url(#paint1_linear_292_25)"/>
<path d="M67.3893 49.8594C67.3893 49.8594 66.7236 50.9203 67.358 52.4953C67.7518 53.4641 68.9018 54.6437 70.2049 55.8547C70.2049 55.8547 83.6752 68.9938 85.3111 70.8703C92.758 79.4688 95.9986 87.9453 96.3002 99.6312C96.483 107.139 95.0596 113.739 91.5174 121.398C85.2205 135.142 71.9299 150.311 51.4346 167.142L54.4314 166.142C56.3689 164.689 59.0033 163.147 65.1799 159.756C79.4377 151.944 95.483 144.77 115.161 137.381C143.497 126.725 190.089 114.253 216.608 110.197L219.364 109.773L218.939 109.106C216.517 105.352 214.852 103.022 212.853 100.539C207.041 93.3344 199.989 87.4922 191.36 82.6484C179.492 76.0172 164.144 70.8406 144.708 66.9969C141.044 66.2688 132.991 64.8766 126.452 63.8781C115.538 62.1989 104.639 60.4228 93.7564 58.55C90.2143 57.9438 84.9158 57.0359 81.4049 56.2781C79.5877 55.8844 76.108 55.0672 73.383 54.1297C71.2033 53.2812 68.0549 52.4344 67.3877 49.8609L67.3893 49.8594ZM75.2002 57.4281C75.2299 57.4 75.7143 57.5812 76.3502 57.7922C77.8004 58.2793 79.2645 58.7238 80.7408 59.125C82.0693 59.4904 83.4011 59.8436 84.7361 60.1844C86.5518 60.6375 88.0658 61.0609 88.0955 61.0609C88.308 61.2734 91.3658 71.0516 92.3955 74.8062C92.7893 76.2281 93.0924 77.4391 93.0627 77.4391C93.0314 77.4703 92.6986 76.9547 92.3049 76.2594C88.7627 70.0234 83.1627 63.6969 76.683 58.6094C75.8361 58.0047 75.2002 57.4594 75.2002 57.4281ZM90.0939 61.5469C90.2471 61.5469 90.9127 61.6375 91.7299 61.8187C96.8752 62.9687 106.11 64.725 112.011 65.725C113.011 65.8766 113.799 66.0578 113.799 66.1172C113.799 66.1797 113.436 66.3906 112.981 66.6328C111.981 67.1469 107.956 69.5391 106.624 70.4453C103.264 72.6875 100.236 75.1094 98.0564 77.2891C97.1783 78.1672 96.4221 78.8937 96.4221 78.8937C96.4221 78.8937 96.2408 78.3781 96.0877 77.7437C94.9986 73.5344 92.7283 67.2984 90.6689 62.9078C90.3361 62.2125 90.0643 61.5766 90.0643 61.5172C90.0643 61.5766 90.0627 61.5469 90.0939 61.5469ZM116.313 66.5406C116.494 66.6031 116.797 67.6312 117.402 69.9016C118.537 74.4318 119.027 79.0999 118.855 83.7672C118.794 85.0391 118.733 86.2203 118.672 86.3719L118.581 86.6734L117.008 86.1578C113.769 85.1297 108.502 83.5859 103.991 82.3141C101.417 81.6172 99.3283 80.9828 99.3283 80.9234C99.3283 80.7406 103.083 76.9859 104.688 75.5641C107.744 72.8688 116.039 66.4516 116.313 66.5406ZM118.4 66.8437C118.491 66.7531 130.935 68.9016 136.596 69.9922C140.805 70.8094 146.919 72.0813 147.283 72.2328C147.463 72.2938 146.828 72.6547 144.799 73.5656C136.806 77.1672 130.874 80.4062 124.971 84.3422C123.427 85.3719 122.124 86.2203 122.096 86.2203C122.064 86.2203 122.033 85.3422 122.033 84.2828C122.033 78.5313 120.885 72.7172 118.764 67.8141C118.552 67.3297 118.371 66.875 118.4 66.8453V66.8437ZM150.581 73.2031C150.672 73.2922 150.28 75.7453 149.916 77.1984C148.825 81.7094 145.889 88.4 142.288 94.6969C141.65 95.8172 141.075 96.725 141.014 96.7547C140.955 96.7859 140.139 96.3312 139.199 95.7859C135.688 93.7266 131.691 91.7906 127.331 89.9734C126.121 89.4578 125.061 89.0359 125.031 88.9734C124.819 88.7937 134.567 82.3453 139.713 79.2563C143.802 76.7734 150.463 73.0812 150.581 73.2016V73.2031ZM152.883 73.5656C153.155 73.5656 158.664 75.0781 161.541 75.9266C168.655 78.0453 176.83 81.0422 182.158 83.4641L184.367 84.4641L182.824 84.8266C169.808 87.8234 158.666 91.2766 147.917 95.6344C147.039 95.9984 146.252 96.3016 146.192 96.3016C146.133 96.3016 146.435 95.6047 146.828 94.7578C150.067 87.8844 152.156 80.7109 152.672 74.5937C152.702 74.0187 152.792 73.5656 152.883 73.5656ZM98.0268 86.1594C98.1174 86.0688 102.324 87.0672 104.596 87.7031C108.049 88.6719 115.374 91.125 115.374 91.3047C115.374 91.3359 114.556 92.0328 113.588 92.8797C109.622 96.1797 105.806 99.6609 101.235 104.081C99.8736 105.383 98.7236 106.442 98.6627 106.442C98.6002 106.442 98.5721 106.261 98.6002 106.019C99.2971 100.933 99.1471 94.3938 98.1783 87.7641C98.0861 86.9156 97.9971 86.1891 98.0268 86.1594ZM186.456 86.25C186.516 86.3109 184.519 89.4578 183.247 91.2437C181.431 93.8484 178.766 97.3 172.742 104.869C170.088 108.2 167.444 111.541 164.811 114.889C163.6 116.403 162.602 117.673 162.569 117.673C162.541 117.673 162.147 117.13 161.722 116.464C158.331 111.377 154.275 106.927 149.461 102.931C148.727 102.31 147.981 101.704 147.222 101.114C146.888 100.872 146.616 100.63 146.616 100.598C146.616 100.509 151.761 98.2984 155.667 96.725C162.511 93.9391 171.833 90.6094 178.828 88.4594C182.491 87.3094 186.396 86.1891 186.456 86.25ZM188.788 86.8547C188.908 86.825 189.636 87.1891 190.513 87.7031C197.871 91.9109 205.075 97.3312 210.766 102.9C212.371 104.475 216.338 108.592 216.277 108.622C216.277 108.622 214.883 108.744 213.249 108.864C200.503 109.833 184.186 112.527 168.505 116.311C167.444 116.553 166.505 116.764 166.446 116.764C166.386 116.764 167.566 115.584 169.05 114.162C178.253 105.292 182.461 99.6922 187.425 89.7C188.122 88.2187 188.727 86.9453 188.788 86.8547C188.756 86.8547 188.756 86.8547 188.788 86.8547ZM121.367 93.7578C121.791 93.8484 125.727 95.6953 128.694 97.1797C131.419 98.5406 135.506 100.72 135.717 100.903C135.749 100.933 134.296 101.689 132.508 102.569C127.171 105.222 121.949 108.1 116.856 111.195C115.403 112.073 114.192 112.8 114.163 112.8C114.041 112.8 114.072 112.678 114.889 111.195C117.614 106.231 119.794 100.297 121.035 94.5141C121.155 94.0609 121.277 93.7578 121.367 93.7578ZM117.431 94.4844C117.522 94.575 116.494 98.2984 115.858 100.328C114.616 104.172 112.527 108.984 110.499 112.619C110.014 113.466 109.288 114.708 108.894 115.403L108.138 116.614L106.442 114.98C104.474 113.073 102.871 111.892 100.813 110.831C99.9939 110.409 99.358 110.045 99.358 109.984C99.358 109.742 104.536 105.05 108.502 101.659C111.346 99.2063 117.341 94.3937 117.431 94.4844ZM141.5 104.384L142.985 105.353C146.375 107.564 150.371 110.5 153.428 113.072C155.153 114.494 158.483 117.494 159.15 118.219L159.513 118.612L157.06 119.309C143.196 123.153 132.478 126.575 119.975 131.177C118.581 131.692 117.402 132.114 117.311 132.114C117.13 132.114 116.978 132.266 120.097 129.389C128.089 122.034 135.172 113.92 140.441 106.019L141.5 104.384ZM135.172 105.958C135.235 106.019 131.086 111.861 128.603 115.161C125.636 119.097 120.369 125.697 116.735 129.995C115.222 131.783 113.922 133.266 113.86 133.295C113.769 133.327 113.738 132.873 113.738 132.175C113.738 128.512 112.8 124.606 111.166 121.277C110.469 119.884 110.347 119.552 110.5 119.4C111.075 118.884 119.885 113.859 125.453 110.862C129.21 108.864 135.081 105.898 135.172 105.958ZM96.9064 115.344C96.9971 115.344 97.6924 115.706 98.4814 116.13C100.324 117.134 102.067 118.31 103.688 119.642C103.749 119.702 102.961 120.339 101.931 121.095C99.0564 123.153 94.6971 126.455 92.1533 128.483C89.4893 130.602 89.3986 130.661 89.7002 130.208C91.7002 127.15 92.6986 125.425 93.758 123.214C94.7326 121.158 95.5816 119.045 96.3002 116.886C96.5424 116.011 96.8455 115.344 96.9064 115.344ZM107.11 123.334C107.26 123.306 107.442 123.578 108.258 124.789C109.983 127.363 111.316 130.814 111.649 133.598L111.711 134.203L107.563 135.809C100.146 138.684 93.3033 141.53 88.6721 143.65C86.98 144.443 85.2945 145.251 83.6158 146.072C82.1314 146.828 80.9221 147.403 80.9221 147.373C80.9221 147.344 81.8596 146.647 83.0096 145.798C92.0627 139.23 99.9033 132.023 105.777 124.819C106.413 124.062 106.988 123.366 107.047 123.336L107.11 123.334ZM102.416 124.486C102.538 124.606 99.0861 128.513 96.7252 130.905C90.8814 136.867 85.1002 141.53 77.9252 146.07C77.0158 146.645 76.1986 147.161 76.108 147.22C75.8971 147.342 76.1674 147.039 79.3174 143.619C81.1637 141.637 82.9116 139.566 84.5549 137.413C85.7049 135.928 85.9158 135.717 87.5814 134.538C92.033 131.327 102.296 124.366 102.416 124.486Z" fill="url(#paint2_radial_292_25)"/>
</g>
<defs>
<linearGradient id="paint0_linear_292_25" x1="66.7947" y1="209.224" x2="81.2706" y2="200.67" gradientUnits="userSpaceOnUse">
<stop stop-color="#909CA9"/>
<stop offset="1" stop-color="#EDEDEE"/>
</linearGradient>
<linearGradient id="paint1_linear_292_25" x1="67.126" y1="47.9661" x2="78.7737" y2="47.9661" gradientUnits="userSpaceOnUse">
<stop stop-color="#939FAB"/>
<stop offset="1" stop-color="#DCDEE1"/>
</linearGradient>
<radialGradient id="paint2_radial_292_25" cx="0" cy="0" r="1" gradientUnits="userSpaceOnUse" gradientTransform="translate(126.03 101.593) rotate(-171.408) scale(15.0297 30.0616)">
<stop stop-color="#EE352C"/>
<stop offset="1" stop-color="#A91D22"/>
</radialGradient>
<clipPath id="clip0_292_25">
<rect width="256" height="256" fill="white"/>
</clipPath>
</defs>
</svg>
