<svg width="256" height="256" viewBox="0 0 256 256" fill="none" xmlns="http://www.w3.org/2000/svg">
<g clip-path="url(#clip0_292_31)">
<rect width="256" height="256" rx="60" fill="#242938"/>
<path d="M152.005 121.367L111.952 134.445L77.108 149.823L67.358 152.398C64.7847 154.856 62.15 157.248 59.4565 159.573C56.369 162.236 53.494 164.659 51.2846 166.414C48.8315 168.352 45.1987 171.984 43.3518 174.286C40.5955 177.738 38.4174 181.4 37.4784 184.216C35.8127 189.302 36.6315 194.448 39.8393 199.202C43.958 205.256 52.1612 211.433 61.7268 215.639C66.6018 217.791 74.8049 220.545 80.983 222.087C91.244 224.692 111.105 227.509 122.033 227.931C124.242 228.023 127.21 228.023 127.33 227.931C127.574 227.78 129.269 224.541 131.238 220.516C137.956 206.8 142.8 193.934 145.436 182.944C147.01 176.284 148.25 167.414 149.067 156.909C149.28 153.972 149.371 144.133 149.189 140.803C148.916 135.355 148.431 130.934 147.674 126.606C147.553 125.969 147.524 125.394 147.585 125.362C147.705 125.273 148.069 125.152 153.003 123.728L152.005 121.367ZM142.863 126.727C143.227 126.727 144.194 136.019 144.436 141.892C144.497 143.134 144.467 143.952 144.405 143.952C144.164 143.952 139.289 141.077 135.81 138.895C132.781 136.989 127.028 133.175 126.122 132.447C125.817 132.236 125.847 132.205 128.33 131.358C132.538 129.936 142.53 126.725 142.861 126.725L142.863 126.727ZM122.456 133.445C122.73 133.445 123.425 133.839 125.091 134.869C131.327 138.775 139.805 143.498 143.438 145.072C144.556 145.556 144.678 145.373 142.105 147.131C136.596 150.884 129.724 154.578 121.308 158.302C119.824 158.967 118.581 159.481 118.552 159.481C118.491 159.481 118.674 158.725 118.916 157.817C120.942 150.278 122.094 142.65 122.155 136.534C122.186 133.506 122.186 133.506 122.458 133.416C122.396 133.447 122.427 133.447 122.458 133.447L122.456 133.445ZM118.25 135.05C118.431 135.233 118.31 142.014 118.067 143.861C117.525 148.323 116.593 152.73 115.283 157.03C114.95 158.15 114.647 159.089 114.586 159.148C114.464 159.3 110.317 155.242 108.955 153.669C106.594 150.944 104.747 148.22 103.385 145.556C102.689 144.194 101.599 141.53 101.689 141.439C102.174 141.105 118.128 134.93 118.25 135.05ZM98.4502 142.831C98.4799 142.831 98.5096 142.831 98.5409 142.861C98.6018 142.922 98.8143 143.408 98.9955 143.952C99.9643 146.584 102.142 150.459 104.021 152.942C106.08 155.667 108.774 158.575 111.014 160.481C111.741 161.086 112.406 161.661 112.497 161.752C112.678 161.934 112.739 161.903 107.803 163.781C102.085 165.961 95.8471 168.141 88.7018 170.441C86.995 170.991 85.2898 171.546 83.5862 172.106C83.3127 172.197 83.4049 172.044 84.1909 170.803C87.733 165.266 93.1205 154.397 96.1487 146.706C96.6643 145.373 97.1799 144.042 97.2705 143.739C97.3909 143.316 97.5424 143.164 97.9346 142.952C98.1471 142.892 98.3596 142.831 98.4502 142.831ZM92.3955 145.344C92.4862 145.405 90.9424 148.644 89.4284 151.609C86.4909 157.333 83.283 162.964 78.9846 169.806C78.2565 170.986 77.5627 172.077 77.469 172.197C77.319 172.409 77.2596 172.348 76.7737 171.411C75.744 169.381 74.8971 166.778 74.4424 164.386C73.9893 162.025 74.0799 157.908 74.5955 155.364C74.9862 153.489 74.958 153.519 75.8659 153.064C79.7409 151.095 92.2737 145.223 92.3955 145.344ZM144.617 147.464V148.734C144.617 155.486 143.891 164.75 142.831 171.5C142.65 172.681 142.499 173.65 142.469 173.681C142.469 173.681 141.591 173.439 140.563 173.136C135.738 171.604 131.073 169.606 126.635 167.172C123.697 165.567 119.431 162.933 119.552 162.812C119.581 162.781 120.853 162.116 122.336 161.328C128.271 158.241 133.961 154.911 138.897 151.609C140.744 150.369 143.528 148.372 144.133 147.827L144.617 147.464ZM69.5393 156.423C69.6596 156.423 69.6284 156.666 69.4471 157.756C69.2961 158.831 69.185 159.911 69.1143 160.994C68.8721 165.416 69.5987 168.686 71.7784 173.166C72.3846 174.406 72.869 175.436 72.8377 175.466C72.6268 175.648 52.5846 181.522 46.2877 183.247C44.4112 183.763 42.7768 184.216 42.6549 184.245C42.4424 184.308 42.4127 184.277 42.5034 183.761C43.2002 179.311 46.5909 173.498 51.3143 168.594C54.4612 165.323 56.9752 163.417 61.2737 160.966C64.3612 159.209 69.1143 156.575 69.4768 156.455C69.4768 156.423 69.508 156.423 69.5393 156.423ZM116.766 164.87C116.797 164.839 117.522 165.234 118.4 165.748C124.88 169.503 133.9 172.984 141.589 174.77L142.286 174.922L141.317 175.467C137.292 177.708 124.061 183.217 110.53 188.272C108.561 188.998 106.624 189.725 106.261 189.877C105.899 190.028 105.564 190.119 105.564 190.087C105.564 190.056 106.11 188.998 106.805 187.697C110.589 180.613 114.403 171.984 116.342 165.991C116.585 165.416 116.735 164.902 116.764 164.87H116.766ZM111.953 166.444C111.983 166.475 111.741 167.111 111.438 167.838C108.803 174.225 105.352 181.189 100.931 188.998C99.8127 190.998 98.8737 192.602 98.844 192.602C98.8143 192.602 97.9049 192.056 96.8143 191.391C90.3971 187.455 84.7049 182.611 80.983 177.919L80.4362 177.253L83.1924 176.495C93.0612 173.802 101.447 170.895 109.772 167.323C110.953 166.839 111.924 166.444 111.953 166.444ZM141.863 176.889C141.894 177.586 140.349 183.822 139.077 188.333C138.017 192.117 137.11 195.083 135.444 200.32C134.719 202.623 134.085 204.528 134.053 204.528C134.022 204.528 133.841 204.5 133.658 204.439C124.667 202.803 116.614 200.533 109.046 197.506C106.927 196.658 103.9 195.295 103.717 195.144C103.658 195.083 105.474 194.236 107.775 193.237C121.55 187.212 135.838 180.37 140.744 177.434C141.319 177.07 141.772 176.889 141.863 176.889ZM72.808 179.25C72.869 179.313 69.0237 184.852 63.6362 192.391C61.758 195.023 59.5784 198.111 58.7612 199.261C57.8158 200.595 56.8974 201.948 56.0065 203.319L54.7346 205.287L53.3721 204.136C51.7674 202.803 48.983 199.958 47.7409 198.384C45.1377 195.145 43.3815 191.723 42.6862 188.606C42.3518 187.153 42.3518 186.425 42.6549 186.336C48.0191 185.054 53.3879 183.792 58.7612 182.55C62.3772 181.718 65.9897 180.87 69.5987 180.008C71.3549 179.584 72.7784 179.25 72.808 179.25ZM76.683 180.734L77.6518 181.823C82.0112 186.698 86.4612 190.302 91.8502 193.448C92.819 193.995 93.5455 194.48 93.4846 194.511C93.2737 194.661 74.7752 201.23 66.208 204.197C63.2782 205.235 60.3417 206.254 57.3987 207.255C57.369 207.255 57.0955 207.072 56.794 206.861L56.2487 206.467L57.1268 205.195C59.9705 201.078 63.544 196.567 71.3237 187.183L76.683 180.734ZM100.842 198.02C100.872 197.989 102.203 198.473 103.839 199.081C107.775 200.564 110.892 201.503 115.071 202.563C120.217 203.864 127.664 205.136 132.055 205.5C132.721 205.559 133.083 205.62 132.963 205.711C132.75 205.831 128.3 207.316 125.031 208.344C119.824 209.98 103.93 214.672 90.9721 218.395C89.4517 218.84 87.9282 219.275 86.4018 219.698C86.0987 219.758 85.0987 219.484 85.0987 219.364C85.0987 219.305 85.8252 218.366 86.7034 217.336C91.0627 212.128 95.3924 206.316 98.9955 200.806C99.9955 199.292 100.842 198.05 100.842 198.02ZM95.5143 198.172C95.544 198.203 93.394 201.653 89.6393 207.587C88.0362 210.1 86.2487 212.947 85.6143 213.945C85.008 214.914 84.0987 216.428 83.5862 217.275L82.708 218.819L82.2534 218.698C81.1627 218.395 73.5034 215.7 71.4752 214.883C69.0699 213.926 66.7157 212.845 64.4221 211.645C62.0002 210.342 58.9737 208.405 59.2159 208.344C59.2752 208.312 63.4237 207.194 68.419 205.831C81.6768 202.228 89.0346 200.141 93.8487 198.627C94.7268 198.353 95.483 198.142 95.5127 198.173L95.5143 198.172ZM133.205 207.011H133.236C133.356 207.316 128.452 220.937 126.664 225.236C126.272 226.205 126.121 226.448 125.908 226.417C125.394 226.386 118.28 225.389 113.95 224.753C106.413 223.603 93.7565 221.392 90.5799 220.666L89.8518 220.514L94.3627 219.484C104.05 217.305 108.713 216.125 113.436 214.672C119.536 212.807 125.494 210.51 131.267 207.798C132.205 207.377 132.992 207.041 133.205 207.011Z" fill="url(#paint0_linear_292_31)"/>
<path d="M110.711 28.0016C110.045 27.9109 99.2969 31.7859 92.3657 34.6016C83.0094 38.4156 75.7453 42.0484 71.2641 45.1969C69.5985 46.3781 67.5094 48.4672 67.1766 49.2844C67.0524 49.6133 66.9909 49.9625 66.9953 50.3141L71.0532 54.1578L80.7094 57.2469L103.688 61.3641L129.964 65.875L130.238 63.6047C130.147 63.6047 130.086 63.5734 129.995 63.5734L126.544 63.0297L125.848 61.7875C122.275 55.4906 118.341 47.6797 116.039 42.4125C114.255 38.325 112.558 33.6031 111.62 30.2125C111.105 28.1531 111.045 28.0312 110.711 28V28.0016ZM110.227 29.5453H110.258C110.288 29.5766 110.408 30.425 110.53 31.4234C111.045 35.6609 111.983 39.7484 113.467 44.1687C114.586 47.4969 114.586 47.3172 113.284 46.9234C110.197 46.0766 96.3625 43.6844 86.3407 42.2906C84.736 42.0797 83.3735 41.8687 83.3735 41.8375C83.2532 41.7156 90.6078 37.8719 93.8485 36.3578C97.9953 34.4516 109.38 29.6969 110.227 29.5453ZM81.0422 43.1094L82.2235 43.5031C88.6422 45.6828 104.777 48.7719 113.678 49.4984C114.677 49.5891 115.525 49.6797 115.553 49.6797C115.584 49.7109 114.738 50.1641 113.647 50.6781C109.348 52.8281 104.625 55.4625 101.356 57.4906C100.388 58.0953 99.5094 58.5813 99.3875 58.5813C99.2672 58.5813 98.6313 58.4594 97.9657 58.3672L96.7547 58.1859L93.7266 55.2188C90.0454 51.6336 86.3422 48.071 82.6172 44.5312L81.0422 43.1094ZM79.8313 44.0484L84.1 49.3766C86.4313 52.3141 88.7938 55.1891 89.3078 55.825C89.8219 56.4609 90.2453 56.975 90.2141 57.0062C90.0938 57.0969 84.0391 55.9156 80.8313 55.1906C77.5313 54.4328 76.1688 54.0688 74.1407 53.4328L72.475 52.8875V52.4656C72.5063 50.4344 75.0797 47.4078 79.4375 44.3219L79.8313 44.0484ZM116.1 51.3141C116.22 51.3141 116.372 51.5859 116.734 52.4031C117.766 54.6734 120.973 60.7891 121.761 61.9703C122.003 62.3641 122.427 62.3953 118.158 61.6984C107.895 60.0328 104.595 59.4875 104.595 59.4281C104.595 59.3969 104.898 59.1859 105.292 58.9734C108.472 57.2172 111.68 54.9781 114.527 52.5859C115.222 52.0109 115.858 51.4656 115.98 51.375C116.009 51.3141 116.069 51.2844 116.1 51.3141Z" fill="url(#paint1_linear_292_31)"/>
<path d="M67.3893 48.8594C67.3893 48.8594 66.7236 49.9203 67.358 51.4953C67.7518 52.4641 68.9018 53.6437 70.2049 54.8547C70.2049 54.8547 83.6752 67.9938 85.3111 69.8703C92.758 78.4688 95.9986 86.9453 96.3002 98.6312C96.483 106.139 95.0596 112.739 91.5174 120.398C85.2205 134.142 71.9299 149.311 51.4346 166.142L54.4314 165.142C56.3689 163.689 59.0033 162.147 65.1799 158.756C79.4377 150.944 95.483 143.77 115.161 136.381C143.497 125.725 190.089 113.253 216.608 109.197L219.364 108.773L218.939 108.106C216.517 104.352 214.852 102.022 212.853 99.5391C207.041 92.3344 199.989 86.4922 191.36 81.6484C179.492 75.0172 164.144 69.8406 144.708 65.9969C141.044 65.2688 132.991 63.8766 126.452 62.8781C115.538 61.1989 104.639 59.4228 93.7564 57.55C90.2143 56.9438 84.9158 56.0359 81.4049 55.2781C79.5877 54.8844 76.108 54.0672 73.383 53.1297C71.2033 52.2812 68.0549 51.4344 67.3877 48.8609L67.3893 48.8594ZM75.2002 56.4281C75.2299 56.4 75.7143 56.5812 76.3502 56.7922C77.8004 57.2793 79.2645 57.7238 80.7408 58.125C82.0693 58.4904 83.4011 58.8436 84.7361 59.1844C86.5518 59.6375 88.0658 60.0609 88.0955 60.0609C88.308 60.2734 91.3658 70.0516 92.3955 73.8062C92.7893 75.2281 93.0924 76.4391 93.0627 76.4391C93.0314 76.4703 92.6986 75.9547 92.3049 75.2594C88.7627 69.0234 83.1627 62.6969 76.683 57.6094C75.8361 57.0047 75.2002 56.4594 75.2002 56.4281ZM90.0939 60.5469C90.2471 60.5469 90.9127 60.6375 91.7299 60.8187C96.8752 61.9687 106.11 63.725 112.011 64.725C113.011 64.8766 113.799 65.0578 113.799 65.1172C113.799 65.1797 113.436 65.3906 112.981 65.6328C111.981 66.1469 107.956 68.5391 106.624 69.4453C103.264 71.6875 100.236 74.1094 98.0564 76.2891C97.1783 77.1672 96.4221 77.8937 96.4221 77.8937C96.4221 77.8937 96.2408 77.3781 96.0877 76.7437C94.9986 72.5344 92.7283 66.2984 90.6689 61.9078C90.3361 61.2125 90.0643 60.5766 90.0643 60.5172C90.0643 60.5766 90.0627 60.5469 90.0939 60.5469ZM116.313 65.5406C116.494 65.6031 116.797 66.6312 117.402 68.9016C118.537 73.4318 119.027 78.0999 118.855 82.7672C118.794 84.0391 118.733 85.2203 118.672 85.3719L118.581 85.6734L117.008 85.1578C113.769 84.1297 108.502 82.5859 103.991 81.3141C101.417 80.6172 99.3283 79.9828 99.3283 79.9234C99.3283 79.7406 103.083 75.9859 104.688 74.5641C107.744 71.8688 116.039 65.4516 116.313 65.5406ZM118.4 65.8437C118.491 65.7531 130.935 67.9016 136.596 68.9922C140.805 69.8094 146.919 71.0813 147.283 71.2328C147.463 71.2938 146.828 71.6547 144.799 72.5656C136.806 76.1672 130.874 79.4062 124.971 83.3422C123.427 84.3719 122.124 85.2203 122.096 85.2203C122.064 85.2203 122.033 84.3422 122.033 83.2828C122.033 77.5313 120.885 71.7172 118.764 66.8141C118.552 66.3297 118.371 65.875 118.4 65.8453V65.8437ZM150.581 72.2031C150.672 72.2922 150.28 74.7453 149.916 76.1984C148.825 80.7094 145.889 87.4 142.288 93.6969C141.65 94.8172 141.075 95.725 141.014 95.7547C140.955 95.7859 140.139 95.3312 139.199 94.7859C135.688 92.7266 131.691 90.7906 127.331 88.9734C126.121 88.4578 125.061 88.0359 125.031 87.9734C124.819 87.7937 134.567 81.3453 139.713 78.2563C143.802 75.7734 150.463 72.0812 150.581 72.2016V72.2031ZM152.883 72.5656C153.155 72.5656 158.664 74.0781 161.541 74.9266C168.655 77.0453 176.83 80.0422 182.158 82.4641L184.367 83.4641L182.824 83.8266C169.808 86.8234 158.666 90.2766 147.917 94.6344C147.039 94.9984 146.252 95.3016 146.192 95.3016C146.133 95.3016 146.435 94.6047 146.828 93.7578C150.067 86.8844 152.156 79.7109 152.672 73.5937C152.702 73.0187 152.792 72.5656 152.883 72.5656ZM98.0268 85.1594C98.1174 85.0688 102.324 86.0672 104.596 86.7031C108.049 87.6719 115.374 90.125 115.374 90.3047C115.374 90.3359 114.556 91.0328 113.588 91.8797C109.622 95.1797 105.806 98.6609 101.235 103.081C99.8736 104.383 98.7236 105.442 98.6627 105.442C98.6002 105.442 98.5721 105.261 98.6002 105.019C99.2971 99.9328 99.1471 93.3938 98.1783 86.7641C98.0861 85.9156 97.9971 85.1891 98.0268 85.1594ZM186.456 85.25C186.516 85.3109 184.519 88.4578 183.247 90.2437C181.431 92.8484 178.766 96.3 172.742 103.869C170.088 107.2 167.444 110.541 164.811 113.889C163.6 115.403 162.602 116.673 162.569 116.673C162.541 116.673 162.147 116.13 161.722 115.464C158.331 110.377 154.275 105.927 149.461 101.931C148.727 101.31 147.981 100.704 147.222 100.114C146.888 99.8719 146.616 99.6297 146.616 99.5984C146.616 99.5094 151.761 97.2984 155.667 95.725C162.511 92.9391 171.833 89.6094 178.828 87.4594C182.491 86.3094 186.396 85.1891 186.456 85.25ZM188.788 85.8547C188.908 85.825 189.636 86.1891 190.513 86.7031C197.871 90.9109 205.075 96.3312 210.766 101.9C212.371 103.475 216.338 107.592 216.277 107.622C216.277 107.622 214.883 107.744 213.249 107.864C200.503 108.833 184.186 111.527 168.505 115.311C167.444 115.553 166.505 115.764 166.446 115.764C166.386 115.764 167.566 114.584 169.05 113.162C178.253 104.292 182.461 98.6922 187.425 88.7C188.122 87.2187 188.727 85.9453 188.788 85.8547C188.756 85.8547 188.756 85.8547 188.788 85.8547ZM121.367 92.7578C121.791 92.8484 125.727 94.6953 128.694 96.1797C131.419 97.5406 135.506 99.7203 135.717 99.9031C135.749 99.9328 134.296 100.689 132.508 101.569C127.171 104.222 121.949 107.1 116.856 110.195C115.403 111.073 114.192 111.8 114.163 111.8C114.041 111.8 114.072 111.678 114.889 110.195C117.614 105.231 119.794 99.2969 121.035 93.5141C121.155 93.0609 121.277 92.7578 121.367 92.7578ZM117.431 93.4844C117.522 93.575 116.494 97.2984 115.858 99.3281C114.616 103.172 112.527 107.984 110.499 111.619C110.014 112.466 109.288 113.708 108.894 114.403L108.138 115.614L106.442 113.98C104.474 112.073 102.871 110.892 100.813 109.831C99.9939 109.409 99.358 109.045 99.358 108.984C99.358 108.742 104.536 104.05 108.502 100.659C111.346 98.2063 117.341 93.3937 117.431 93.4844ZM141.5 103.384L142.985 104.353C146.375 106.564 150.371 109.5 153.428 112.072C155.153 113.494 158.483 116.494 159.15 117.219L159.513 117.612L157.06 118.309C143.196 122.153 132.478 125.575 119.975 130.177C118.581 130.692 117.402 131.114 117.311 131.114C117.13 131.114 116.978 131.266 120.097 128.389C128.089 121.034 135.172 112.92 140.441 105.019L141.5 103.384ZM135.172 104.958C135.235 105.019 131.086 110.861 128.603 114.161C125.636 118.097 120.369 124.697 116.735 128.995C115.222 130.783 113.922 132.266 113.86 132.295C113.769 132.327 113.738 131.873 113.738 131.175C113.738 127.512 112.8 123.606 111.166 120.277C110.469 118.884 110.347 118.552 110.5 118.4C111.075 117.884 119.885 112.859 125.453 109.862C129.21 107.864 135.081 104.898 135.172 104.958ZM96.9064 114.344C96.9971 114.344 97.6924 114.706 98.4814 115.13C100.324 116.134 102.067 117.31 103.688 118.642C103.749 118.702 102.961 119.339 101.931 120.095C99.0564 122.153 94.6971 125.455 92.1533 127.483C89.4893 129.602 89.3986 129.661 89.7002 129.208C91.7002 126.15 92.6986 124.425 93.758 122.214C94.7326 120.158 95.5816 118.045 96.3002 115.886C96.5424 115.011 96.8455 114.344 96.9064 114.344ZM107.11 122.334C107.26 122.306 107.442 122.578 108.258 123.789C109.983 126.363 111.316 129.814 111.649 132.598L111.711 133.203L107.563 134.809C100.146 137.684 93.3033 140.53 88.6721 142.65C86.98 143.443 85.2945 144.251 83.6158 145.072C82.1314 145.828 80.9221 146.403 80.9221 146.373C80.9221 146.344 81.8596 145.647 83.0096 144.798C92.0627 138.23 99.9033 131.023 105.777 123.819C106.413 123.062 106.988 122.366 107.047 122.336L107.11 122.334ZM102.416 123.486C102.538 123.606 99.0861 127.513 96.7252 129.905C90.8814 135.867 85.1002 140.53 77.9252 145.07C77.0158 145.645 76.1986 146.161 76.108 146.22C75.8971 146.342 76.1674 146.039 79.3174 142.619C81.1637 140.637 82.9116 138.566 84.5549 136.413C85.7049 134.928 85.9158 134.717 87.5814 133.538C92.033 130.327 102.296 123.366 102.416 123.486Z" fill="url(#paint2_radial_292_31)"/>
</g>
<defs>
<linearGradient id="paint0_linear_292_31" x1="66.7947" y1="208.224" x2="81.2706" y2="199.67" gradientUnits="userSpaceOnUse">
<stop stop-color="#909CA9"/>
<stop offset="1" stop-color="#EDEDEE"/>
</linearGradient>
<linearGradient id="paint1_linear_292_31" x1="67.126" y1="46.9661" x2="78.7737" y2="46.9661" gradientUnits="userSpaceOnUse">
<stop stop-color="#939FAB"/>
<stop offset="1" stop-color="#DCDEE1"/>
</linearGradient>
<radialGradient id="paint2_radial_292_31" cx="0" cy="0" r="1" gradientUnits="userSpaceOnUse" gradientTransform="translate(126.03 100.593) rotate(-171.408) scale(15.0297 30.0616)">
<stop stop-color="#EE352C"/>
<stop offset="1" stop-color="#A91D22"/>
</radialGradient>
<clipPath id="clip0_292_31">
<rect width="256" height="256" fill="white"/>
</clipPath>
</defs>
</svg>
