<svg width="256" height="256" viewBox="0 0 256 256" fill="none" xmlns="http://www.w3.org/2000/svg">
<g clip-path="url(#clip0_248_3180)">
<rect width="256" height="256" rx="60" fill="#242938"/>
<path d="M181.976 129.261C181.972 136.396 181.968 146.642 181.976 148.57H193.672V147.305C188.263 143.549 184.337 137.486 181.977 129.261H181.976Z" fill="#FFC629"/>
<path d="M228 128.845C228 123.346 225.969 118.185 222.282 114.309C218.458 110.292 213.24 108.081 207.589 108.081C202.65 108.081 197.528 110.204 196.142 112.135C196.157 117.169 197.237 122.161 198.318 124.989C200.812 121.568 203.869 120.515 205.512 120.193C206.219 120.053 206.918 119.984 207.589 119.984C212.439 119.984 216.097 123.793 216.097 128.845C216.097 133.897 212.22 137.761 207.454 137.761C206.841 137.761 206.212 137.694 205.583 137.563C204.365 137.308 203.209 136.781 202.15 135.998C198.871 133.731 196.402 129.558 194.823 123.602C193.32 117.933 193.097 112.356 193.079 109.917H181.976V110.565C182.733 134.311 192.733 149.662 207.454 149.662C212.984 149.662 218.174 147.456 222.067 143.452C225.894 139.516 228.002 134.327 228.002 128.843L228 128.845Z" fill="#FFC629"/>
<path d="M187.288 106.113C190.633 106.113 193.344 103.401 193.344 100.056C193.344 96.7115 190.633 94 187.288 94C183.943 94 181.231 96.7115 181.231 100.056C181.231 103.401 183.943 106.113 187.288 106.113Z" fill="#FFC629"/>
<path d="M110.229 115.615V108.748H100.079V128.648C100.079 132.143 99.8812 134.449 99.4912 135.499C98.9664 136.895 98.1571 137.964 97.083 138.677C96.0056 139.394 94.6748 139.756 93.1245 139.756C91.5743 139.756 90.2564 139.387 89.2051 138.661C88.1521 137.935 87.377 136.901 86.9008 135.585C86.4166 134.251 86.1712 131.81 86.1712 128.334V108.747H75.9143V125.885C75.9143 131.885 76.2994 136.089 77.0583 138.375C78.1324 141.7 80.0125 144.329 82.6499 146.19C85.2856 148.05 88.7809 148.994 93.0368 148.994C96.9579 148.994 100.24 148.187 102.793 146.594C105.348 145 107.307 142.683 108.619 139.709C108.759 139.389 108.889 139.028 109.01 138.633C107.184 135.985 106.035 132.143 106.035 127.866C106.035 122.704 107.71 118.175 110.229 115.614V115.615Z" fill="white"/>
<path d="M74.1885 135.421C73.9496 135.748 73.6945 136.061 73.4134 136.359C71.4731 138.409 68.995 139.449 66.0457 139.449C63.0963 139.449 60.7531 138.391 58.8015 136.307C57.7339 135.167 56.9702 133.833 56.481 132.338C55.9253 136.069 53.0263 139.131 49.1523 140.285C49.7698 141.208 50.4653 142.09 51.2486 142.922C54.908 146.812 59.3085 148.785 64.3265 148.785C66.5624 148.785 68.67 148.38 70.5875 147.581C72.3636 146.841 74.156 145.652 75.9207 144.043V161.877H86.0704V149.963C79.3023 148.38 74.2616 142.482 74.1901 135.421H74.1885Z" fill="white"/>
<path d="M55.8637 127.988C55.9189 124.891 56.8842 122.307 58.7497 120.314C60.6671 118.264 63.1111 117.224 66.0117 117.224C68.9123 117.224 71.4765 118.247 73.4168 120.263C75.2368 122.155 76.2052 124.633 76.3222 127.623C78.4266 124.137 81.9236 121.549 86.0705 120.58V108.809H75.9209V112.713C74.2975 111.157 72.5247 109.957 70.6429 109.147C68.5954 108.266 66.3757 107.817 64.0439 107.817C58.9788 107.817 54.6141 109.761 51.07 113.593C48.9542 115.882 47.4723 118.588 46.6143 121.667C50.5695 122.426 54.3297 124.826 55.8637 127.99V127.988Z" fill="white"/>
<path d="M46.8206 123.976L43.1156 122.207C41.5491 121.471 40.5595 120.889 40.176 120.476C39.8088 120.083 39.63 119.668 39.63 119.207C39.63 118.599 39.9111 118.102 40.4896 117.686C41.0844 117.26 41.9294 117.046 43.0035 117.046C43.6909 117.046 44.4156 117.207 45.1663 117.493C45.532 115.976 46.5248 114.348 47.8151 112.783C48.7706 111.623 49.8447 110.552 50.9545 109.759C50.7807 109.668 50.6117 109.572 50.4329 109.488C48.0994 108.38 45.5742 107.817 42.9287 107.817C39.0532 107.817 35.8227 108.929 33.3283 111.119C30.8275 113.316 29.56 116.001 29.56 119.103C29.56 123.9 32.8977 127.936 39.4805 131.103L42.8881 132.732C45.7188 134.095 47.1553 135.486 47.1553 136.864C47.1553 137.594 46.7865 138.224 46.0292 138.794C45.2655 139.37 44.2336 139.662 42.9661 139.662C41.7815 139.662 40.3954 139.261 38.8468 138.471C37.2884 137.675 35.9104 136.617 34.7534 135.325L34.5649 135.116L28 141.944L28.13 142.108C31.6708 146.539 36.4743 148.785 42.4087 148.785C46.8742 148.785 50.4898 147.608 53.158 145.29C55.8311 142.964 57.1864 140.021 57.1864 136.546C57.1864 133.934 56.434 131.623 54.9504 129.678C53.4749 127.745 50.7384 125.825 46.8206 123.978V123.976Z" fill="white"/>
<path d="M137.833 134.573C137.826 134.529 137.823 134.486 137.818 134.443C137.436 135.162 136.986 135.712 136.325 136.41C134.385 138.461 131.906 139.501 128.957 139.501C126.008 139.501 123.666 138.443 121.713 136.358C119.756 134.27 118.765 131.565 118.765 128.318C118.765 125.071 119.74 122.419 121.661 120.365C123.578 118.316 126.021 117.276 128.923 117.276C131.825 117.276 134.386 118.298 136.326 120.315C138.07 122.125 139.035 124.472 139.217 127.293C141.172 123.828 144.825 121.178 148.98 120.053V108.86H138.831V112.765C137.207 111.208 135.434 110.009 133.553 109.198C131.503 108.318 129.284 107.869 126.953 107.869C121.888 107.869 117.522 109.813 113.98 113.644C110.442 117.473 108.65 122.445 108.65 128.424C108.65 134.402 110.504 139.09 114.158 142.975C117.818 146.866 122.218 148.838 127.236 148.838C129.472 148.838 131.58 148.434 133.499 147.634C135.275 146.895 137.066 145.705 138.832 144.097V148.838H148.982V148.534C143.236 146.112 138.73 140.432 137.834 134.573H137.833Z" fill="white"/>
<path d="M169.411 112.765C167.788 111.209 166.015 110.009 164.133 109.198C162.086 108.318 159.866 107.869 157.534 107.869C152.469 107.869 148.103 109.813 144.56 113.644C141.023 117.473 139.23 122.445 139.23 128.424C139.23 134.402 141.084 139.09 144.739 142.975C148.398 146.866 152.799 148.838 157.817 148.838C160.053 148.838 162.16 148.434 164.08 147.634C165.856 146.895 167.646 145.705 169.413 144.097V148.996H179.562V94H169.413V112.765H169.411ZM166.907 120.315C168.85 122.333 169.837 125.014 169.837 128.282C169.837 131.55 168.85 134.357 166.907 136.411C164.967 138.461 162.489 139.501 159.539 139.501C156.59 139.501 154.247 138.443 152.295 136.359C150.339 134.27 149.346 131.565 149.346 128.318C149.346 125.071 150.321 122.419 152.243 120.365C154.161 118.316 156.603 117.276 159.505 117.276C162.407 117.276 164.968 118.298 166.91 120.315H166.907Z" fill="white"/>
</g>
<defs>
<clipPath id="clip0_248_3180">
<rect width="256" height="256" fill="white"/>
</clipPath>
</defs>
</svg>
