<svg width="256" height="256" viewBox="0 0 256 256" fill="none" xmlns="http://www.w3.org/2000/svg">
<g clip-path="url(#clip0_248_6566)">
<path d="M196 0H60C26.8629 0 0 26.8629 0 60V196C0 229.137 26.8629 256 60 256H196C229.137 256 256 229.137 256 196V60C256 26.8629 229.137 0 196 0Z" fill="#F48024"/>
<path d="M183.541 206.378V157.73H205.162V228H43V157.73H64.6216V206.378H183.541Z" fill="white"/>
<path d="M159.216 28L144.622 38.8108L198.135 110.703L212.73 99.8919L159.216 28ZM183.541 127.459L114.892 70.1622L126.243 56.6486L194.892 113.946L183.541 127.459ZM92.1892 110.162L173.27 148L180.838 131.784L99.7568 93.9459L92.1892 110.162ZM167.865 168.486L171.541 152.541L84.5136 134.432L80.8379 152.324L167.865 168.486ZM167.324 190.162H80.8379V173.946H167.324V190.162Z" fill="white"/>
</g>
<defs>
<clipPath id="clip0_248_6566">
<rect width="256" height="256" fill="white"/>
</clipPath>
</defs>
</svg>
