<svg width="256" height="256" viewBox="0 0 256 256" fill="none" xmlns="http://www.w3.org/2000/svg">
<g clip-path="url(#clip0_283_388)">
<rect width="256" height="256" rx="60" fill="white"/>
<path d="M25.1926 129.326L69.7682 147.389V160.033L17 135.584V128.165L25.1926 129.326ZM69.7682 114.49L25.2572 132.81L17 133.713V126.23L69.7682 101.846V114.49Z" fill="black"/>
<path d="M228.898 131.907L183.032 114.038V101.717L238.123 126.101V133.649L228.898 131.907ZM183.032 147.647L229.028 129.391L238.123 128.036V135.519L183.032 159.968V147.647Z" fill="black"/>
<path fill-rule="evenodd" clip-rule="evenodd" d="M171.04 69.0876C170.785 73.1339 168.962 77.3592 169.469 81.2927C172.653 86.9225 179.661 87.8207 185.442 88.2066C189.447 88.9223 189.397 86.2704 189.128 83.2911C189.144 78.5287 189.16 73.7663 189.177 69.0039C183.131 69.0256 177.083 68.9439 171.04 69.0876ZM123.365 80.4042C113.522 82.0744 103.545 86.778 95.3561 92.4406C88.7649 97.5702 101.014 102.542 105.458 103.373C114.399 103.481 122.329 97.4511 128.202 91.191C130.119 88.5587 132.515 84.53 130.105 81.4797C128.266 79.8844 125.59 80.2715 123.365 80.4042ZM144.311 94.719C136.218 96.26 128.517 99.596 121.704 104.24C116.709 105.809 112.592 111.293 118.781 114.041C125.281 119.22 132.814 117.951 138.8 114.455C144.281 111.196 150.202 107.176 152.739 101.042C155.134 94.323 148.954 94.0735 144.311 94.719ZM167.269 120.756C165.762 127.051 159.423 129.913 156.05 134.901C153.292 138.539 154.569 142.826 157.709 145.69C159.237 148.859 161.917 150.631 164.791 147.877C172.192 142.846 174.239 133.046 173.931 124.554C174.478 121.047 170.454 124.217 167.269 120.756ZM139.106 132.579C129.278 134.261 119.448 139.05 111.256 144.703C104.896 149.826 116.874 154.609 121.354 155.368C130.461 155.381 138.584 149.512 144.342 142.847C146.344 140.2 148.771 135.06 144.806 132.955C143.033 132.204 140.974 132.424 139.106 132.579Z" fill="#B956A6"/>
<path fill-rule="evenodd" clip-rule="evenodd" d="M95.3563 92.4402C87.7978 95.4647 80.5059 99.1369 73.306 102.982C71.9676 107.958 73.0407 114.119 72.6938 119.575C72.6677 142.008 72.6805 164.442 72.6762 186.875C78.2354 186.875 83.7948 186.875 89.3541 186.875C92.7209 183.705 96.9393 181.384 100.597 178.505C114.681 168.404 128.76 158.264 142.826 148.192C143.861 148.657 143.198 142.103 140.928 146.655C135.548 151.718 128.408 155.881 120.85 155.475C116.561 154.064 109.647 151.671 109.604 146.415C112.623 142.861 104.034 148.276 101.684 149.051C94.0434 152.72 86.5835 156.816 78.9274 160.417C80.7679 158.441 84.2102 156.598 86.6498 154.638C104.083 142.124 121.511 129.562 138.985 117.058C142.346 114.698 145.593 112.124 149.058 109.918C149.374 111.14 149.968 104.076 147.391 108.425C142.138 113.632 135.053 117.508 127.58 117.561C123.377 116.285 114.425 113.234 116.418 107.807C117.39 105.903 107.39 111.867 111.809 108.504C116.511 105.068 121.251 101.692 125.99 98.2915C128.384 98.1113 127.874 89.2214 124.622 94.9559C119.159 99.7559 111.981 104.148 104.457 103.107C100.231 101.89 95.1591 99.5333 93.6231 95.1134C93.1141 94.0518 96.4688 92.3981 95.3563 92.4402ZM126.671 97.9282C127.43 97.49 126.252 99.1271 126.671 97.9282Z" fill="#FCCC44"/>
<path fill-rule="evenodd" clip-rule="evenodd" d="M174.427 86.5005C172.067 97.7695 169.487 109.562 167.269 120.756C173.642 128.788 174.26 115.682 175.375 111.976C177.176 104.231 179.31 98.382 179.536 90.3624C180.014 87.626 176.798 85.9682 174.427 86.5005ZM181.738 95.3371C182.029 95.5543 181.539 96.4926 181.738 95.3371ZM174.303 120.604C174.61 121.265 174.61 119.943 174.303 120.604Z" fill="#62777F"/>
<path fill-rule="evenodd" clip-rule="evenodd" d="M178.606 87.7759C180.595 98.9439 174.008 112.51 171.854 123.039C176.745 119.44 180.525 103.108 181.491 96.716C181.74 95.9848 182.046 94.1449 182.113 94.0789C182.42 92.5268 185.285 89.8978 185.442 88.2064C187.11 87.0293 177.245 86.8397 178.606 87.7759ZM174.55 120.604C174.243 121.264 174.243 119.943 174.55 120.604Z" fill="#4E5E67"/>
<path fill-rule="evenodd" clip-rule="evenodd" d="M95.5215 92.6264C92.7641 95.3874 93.7989 94.713 95.8518 92.417L95.5215 92.6264ZM125.349 93.9939C122.154 98.7941 110.635 102.808 109.184 103.119C116.114 101.821 122.572 97.5108 127.117 92.4606C126.395 92.7823 125.966 93.5388 125.349 93.9939ZM93.6268 95.5525C95.3487 99.6924 101.609 102.443 104.651 103.085C100.498 101.747 95.609 99.3737 93.6268 95.5525ZM126.423 97.9466C125.553 98.973 122.457 100.509 120.825 102.014C117.324 104.596 113.702 106.996 110.241 109.643C112.445 109.548 118.903 104.724 115.592 109.619C118.398 114.447 124.506 117.805 130.075 117.498C137.43 116.344 144.213 112.277 149.088 106.622C143.17 112.478 135.345 117.99 126.687 117.231C122.496 116.263 111.046 110.348 118.705 106.202C121.406 103.98 126.063 102.817 126.59 98.9128C126.479 98.4255 127.388 97.9497 126.423 97.9466ZM105.458 103.373C108.245 103.737 108.245 103.009 105.458 103.373ZM148.881 110.041C137.823 117.745 126.925 125.75 115.963 133.592C103.54 142.483 91.1694 151.408 78.749 160.292C83.4188 158.717 88.0976 155.642 92.7369 153.518C99.1249 150.139 105.862 147.469 111.84 143.363C123.659 136.406 136.159 129.776 145.249 119.131C147.233 116.804 149.223 113.059 149.311 110.54C149.025 110.62 149.242 109.532 148.881 110.041ZM111.256 144.703C109.266 146.951 108.458 148.558 110.523 145.699C110.487 146.031 112.199 143.924 111.256 144.703ZM141.522 145.779C136.282 151.305 128.531 155.291 121.258 155.559C129.666 155.62 137.251 150.63 142.947 144.742C142.573 144.29 141.816 145.795 141.522 145.779ZM143.123 147.516C125.517 160.333 107.303 173.627 89.6368 186.398C92.4202 187.271 98.4795 187.68 101.245 184.117C107.129 180.057 113.744 177.072 119.647 172.956C128.196 167.409 137.349 161.346 142.204 152.023C142.435 150.773 144.153 148.524 143.123 147.516ZM109.616 148.329C110.433 151.778 120.647 155.736 119.539 154.979C115.773 153.658 112.037 151.601 109.616 148.329Z" fill="#DC9624"/>
</g>
<defs>
<clipPath id="clip0_283_388">
<rect width="256" height="256" fill="white"/>
</clipPath>
</defs>
</svg>
