<svg width="256" height="256" viewBox="0 0 256 256" fill="none" xmlns="http://www.w3.org/2000/svg">
<g clip-path="url(#clip0_248_5163)">
<rect width="256" height="256" rx="60" fill="#242938"/>
<path d="M204.96 128.59C204.96 126.246 203.227 124.895 201.102 125.566L54.8581 171.94C52.7281 172.615 51 175.067 51 177.406V224.802C51 227.147 52.7281 228.502 54.8581 227.826L201.102 181.457C203.227 180.781 204.96 178.33 204.96 175.986V128.59Z" fill="url(#paint0_linear_248_5163)"/>
<path d="M51 127.08C51 129.424 52.7281 131.875 54.8581 132.551L201.122 178.928C203.253 179.605 204.98 178.249 204.98 175.909V128.509C204.98 126.169 203.253 123.718 201.122 123.042L54.8581 76.6643C52.7281 75.9885 51 77.34 51 79.684V127.08Z" fill="#FF9800"/>
<path d="M204.96 31.1977C204.96 28.8539 203.227 27.498 201.102 28.1737L54.8581 74.5433C52.7281 75.2191 51 77.6699 51 80.0139V127.41C51 129.754 52.7281 131.105 54.8581 130.434L201.102 84.0601C203.227 83.3844 204.96 80.9334 204.96 78.5938V31.1977Z" fill="#FF9800"/>
</g>
<defs>
<linearGradient id="paint0_linear_248_5163" x1="8536.78" y1="6146.27" x2="9182.51" y2="3987.14" gradientUnits="userSpaceOnUse">
<stop stop-color="#FF9700"/>
<stop offset="0.53" stop-color="#F48E00"/>
<stop offset="1" stop-color="#D06F00"/>
</linearGradient>
<clipPath id="clip0_248_5163">
<rect width="256" height="256" fill="white"/>
</clipPath>
</defs>
</svg>
