<svg width="256" height="256" viewBox="0 0 256 256" fill="none" xmlns="http://www.w3.org/2000/svg">
<g clip-path="url(#clip0_248_2547)">
<rect width="256" height="256" rx="60" fill="white"/>
<path d="M144.757 224.193C139.696 230.566 129.434 227.074 129.312 218.936L127.529 99.9077H207.564C222.06 99.9077 230.145 116.651 221.131 128.004L144.757 224.193Z" fill="url(#paint0_linear_248_2547)"/>
<path d="M144.757 224.193C139.696 230.566 129.434 227.074 129.312 218.936L127.529 99.9077H207.564C222.06 99.9077 230.145 116.651 221.131 128.004L144.757 224.193Z" fill="url(#paint1_linear_248_2547)" fill-opacity="0.2"/>
<path d="M112.207 32.6657C117.268 26.2916 127.53 29.7842 127.652 37.9223L128.434 156.951H49.4003C34.9034 156.951 26.8182 140.207 35.8328 128.854L112.207 32.6657Z" fill="#3ECF8E"/>
</g>
<defs>
<linearGradient id="paint0_linear_248_2547" x1="127.529" y1="126.299" x2="198.661" y2="156.132" gradientUnits="userSpaceOnUse">
<stop stop-color="#249361"/>
<stop offset="1" stop-color="#3ECF8E"/>
</linearGradient>
<linearGradient id="paint1_linear_248_2547" x1="95.9931" y1="83.1202" x2="128.433" y2="144.187" gradientUnits="userSpaceOnUse">
<stop/>
<stop offset="1" stop-opacity="0"/>
</linearGradient>
<clipPath id="clip0_248_2547">
<rect width="256" height="256" fill="white"/>
</clipPath>
</defs>
</svg>
