<svg width="256" height="256" viewBox="0 0 256 256" fill="none" xmlns="http://www.w3.org/2000/svg">
<g clip-path="url(#clip0_248_3468)">
<path d="M196 0H60C26.8629 0 0 26.8629 0 60V196C0 229.137 26.8629 256 60 256H196C229.137 256 256 229.137 256 196V60C256 26.8629 229.137 0 196 0Z" fill="#FF3E00"/>
<path d="M200.636 54.4637C182.161 27.8535 145.381 20.0569 118.941 36.8366L72.3308 66.667C59.6189 74.6332 50.8054 87.684 48.2629 102.43C46.0596 114.803 47.924 127.514 53.8561 138.532C49.7884 144.633 47.0765 151.413 45.89 158.532C43.1783 173.616 46.7376 189.21 55.5511 201.582C74.1951 228.193 110.805 235.989 137.246 219.21L183.856 189.549C196.568 181.582 205.381 168.532 207.924 153.785C210.127 141.413 208.263 128.701 202.33 117.684C206.398 111.582 209.11 104.803 210.297 97.6842C213.178 82.4298 209.619 66.8366 200.636 54.4637Z" fill="white"/>
<path d="M114.365 204.124C99.2803 208.023 83.5171 202.091 74.7035 189.379C69.2797 181.921 67.2459 172.6 68.7713 163.446C69.1103 161.921 69.4493 160.565 69.7882 159.04L70.6356 156.329L73.0085 158.023C78.6017 162.091 84.7035 165.142 91.3136 167.175L93.0085 167.684L92.8391 169.379C92.6696 171.752 93.3475 174.294 94.7035 176.329C97.4159 180.226 102.161 182.091 106.737 180.904C107.755 180.565 108.771 180.226 109.619 179.717L156.059 150.056C158.433 148.532 159.958 146.329 160.466 143.616C160.975 140.904 160.297 138.023 158.771 135.82C156.059 131.921 151.314 130.226 146.737 131.413C145.72 131.752 144.704 132.091 143.856 132.6L126.059 143.955C123.178 145.82 119.958 147.175 116.568 148.023C101.484 151.921 85.7204 145.989 76.9069 133.277C71.6526 125.82 69.4493 116.497 71.1442 107.345C72.6696 98.5319 78.0933 90.5654 85.7204 85.8196L132.33 56.1586C135.211 54.2942 138.433 52.9383 141.823 51.9213C156.907 48.023 172.669 53.9552 181.484 66.667C186.907 74.1247 188.94 83.4467 187.416 92.5993C187.076 94.1247 186.737 95.4806 186.229 97.0064L185.381 99.7175L183.008 98.023C177.416 93.9552 171.314 90.9044 164.704 88.8705L163.008 88.3619L163.178 86.667C163.348 84.2942 162.669 81.7518 161.314 79.7179C158.601 75.8196 153.856 74.1247 149.28 75.3112C148.263 75.6502 147.246 75.989 146.398 76.4976L99.9581 106.159C97.5847 107.684 96.0594 109.887 95.551 112.6C95.0424 115.311 95.7204 118.193 97.2459 120.396C99.9581 124.294 104.704 125.989 109.28 124.803C110.297 124.464 111.314 124.124 112.161 123.616L129.958 112.261C132.839 110.396 136.059 109.04 139.449 108.023C154.534 104.124 170.297 110.056 179.11 122.769C184.534 130.226 186.568 139.549 185.043 148.701C183.517 157.514 178.094 165.481 170.466 170.226L123.856 199.887C120.975 201.752 117.755 203.107 114.365 204.124Z" fill="#FF3E00"/>
</g>
<defs>
<clipPath id="clip0_248_3468">
<rect width="256" height="256" fill="white"/>
</clipPath>
</defs>
</svg>
