<svg width="256" height="256" viewBox="0 0 256 256" fill="none" xmlns="http://www.w3.org/2000/svg">
<g clip-path="url(#clip0_248_6289)">
<rect width="256" height="256" rx="60" fill="#242938"/>
<path d="M181.125 28H74.875C48.9867 28 28 48.9867 28 74.875V181.125C28 207.013 48.9867 228 74.875 228H181.125C207.013 228 228 207.013 228 181.125V74.875C228 48.9867 207.013 28 181.125 28Z" fill="#F05138"/>
<path d="M186.341 151.469C186.53 150.714 186.718 149.96 186.907 149.206C195.201 116.219 175.031 77.0105 140.724 56.4639C155.804 76.822 162.402 101.516 156.558 123.005C155.992 124.89 155.427 126.775 154.673 128.66C153.919 128.095 152.977 127.529 151.657 126.963C151.657 126.963 117.538 105.851 80.5919 68.7164C79.6494 67.7739 100.385 98.3111 123.759 123.005C112.638 116.784 81.9115 94.3527 62.3073 76.6336C64.7578 80.5921 67.5854 84.5506 70.6014 88.1321C86.8125 108.867 108.113 134.315 133.561 153.919C115.653 164.852 90.3941 165.795 65.3233 153.919C59.1028 151.092 53.2593 147.51 47.7927 143.552C58.3488 160.517 74.7484 175.22 94.7295 183.891C118.481 194.07 142.232 193.505 159.763 184.079C159.763 184.079 159.951 184.079 159.951 183.891C160.705 183.514 161.459 182.949 162.213 182.571C170.695 178.236 187.284 173.9 196.332 191.242C198.971 195.201 203.684 172.581 186.341 151.469Z" fill="white"/>
</g>
<defs>
<clipPath id="clip0_248_6289">
<rect width="256" height="256" fill="white"/>
</clipPath>
</defs>
</svg>
