<svg width="256" height="848" viewBox="0 0 256 848" fill="none" xmlns="http://www.w3.org/2000/svg">
<g clip-path="url(#clip0_210_2167)">
<path d="M196 0H60C26.8629 0 0 26.8629 0 60V196C0 229.137 26.8629 256 60 256H196C229.137 256 256 229.137 256 196V60C256 26.8629 229.137 0 196 0Z" fill="#0B1120"/>
<path fill-rule="evenodd" clip-rule="evenodd" d="M78 108C84.6657 81.3343 101.334 68 128 68C168 68 173 98 193 103C206.334 106.334 218 101.334 228 88C221.334 114.666 204.666 128 178 128C138 128 133 98 113 93C99.6656 89.6657 88 94.6657 78 108ZM28 168C34.6657 141.334 51.3343 128 78 128C118 128 123 158 143 163C156.334 166.334 168 161.334 178 148C171.334 174.666 154.666 188 128 188C88 188 83 158 63 153C49.6657 149.666 38 154.666 28 168Z" fill="#38BDF8"/>
</g>
<g clip-path="url(#clip1_210_2167)">
<rect y="296" width="256" height="256" rx="60" fill="#242938"/>
<path fill-rule="evenodd" clip-rule="evenodd" d="M78 404C84.6657 377.334 101.334 364 128 364C168 364 173 394 193 399C206.334 402.334 218 397.334 228 384C221.334 410.666 204.666 424 178 424C138 424 133 394 113 389C99.6656 385.666 88 390.666 78 404ZM28 464C34.6657 437.334 51.3343 424 78 424C118 424 123 454 143 459C156.334 462.334 168 457.334 178 444C171.334 470.666 154.666 484 128 484C88 484 83 454 63 449C49.6657 445.666 38 450.666 28 464Z" fill="#38BDF8"/>
</g>
<g clip-path="url(#clip2_210_2167)">
<rect y="592" width="256" height="256" rx="60" fill="white"/>
<path fill-rule="evenodd" clip-rule="evenodd" d="M78 700C84.6657 673.334 101.334 660 128 660C168 660 173 690 193 695C206.334 698.334 218 693.334 228 680C221.334 706.666 204.666 720 178 720C138 720 133 690 113 685C99.6656 681.666 88 686.666 78 700ZM28 760C34.6657 733.334 51.3343 720 78 720C118 720 123 750 143 755C156.334 758.334 168 753.334 178 740C171.334 766.666 154.666 780 128 780C88 780 83 750 63 745C49.6657 741.666 38 746.666 28 760Z" fill="#38BDF8"/>
</g>
<defs>
<clipPath id="clip0_210_2167">
<rect width="256" height="256" fill="white"/>
</clipPath>
<clipPath id="clip1_210_2167">
<rect width="256" height="256" fill="white" transform="translate(0 296)"/>
</clipPath>
<clipPath id="clip2_210_2167">
<rect width="256" height="256" fill="white" transform="translate(0 592)"/>
</clipPath>
</defs>
</svg>
