<svg width="256" height="256" viewBox="0 0 256 256" fill="none" xmlns="http://www.w3.org/2000/svg">
<g clip-path="url(#clip0_248_1110)">
<rect width="256" height="256" rx="60" fill="#242938"/>
<path fill-rule="evenodd" clip-rule="evenodd" d="M78 108C84.6657 81.3343 101.334 68 128 68C168 68 173 98 193 103C206.334 106.334 218 101.334 228 88C221.334 114.666 204.666 128 178 128C138 128 133 98 113 93C99.6656 89.6657 88 94.6657 78 108ZM28 168C34.6657 141.334 51.3343 128 78 128C118 128 123 158 143 163C156.334 166.334 168 161.334 178 148C171.334 174.666 154.666 188 128 188C88 188 83 158 63 153C49.6657 149.666 38 154.666 28 168Z" fill="#38BDF8"/>
</g>
<defs>
<clipPath id="clip0_248_1110">
<rect width="256" height="256" fill="white"/>
</clipPath>
</defs>
</svg>
