<svg width="256" height="256" viewBox="0 0 256 256" fill="none" xmlns="http://www.w3.org/2000/svg">
<g clip-path="url(#clip0_392_719)">
<rect width="256" height="256" rx="60" fill="#242938"/>
<path d="M227.626 128C227.626 135.619 226.673 143.238 225.245 150.38C223.34 159.904 219.531 168.476 215.245 176.571H40.4838C39.0552 174.19 38.1028 172.285 37.1505 169.904C31.4362 157.523 28.1029 144.19 28.1029 129.428V127.523C27.6267 72.7617 72.3884 28 127.626 28C153.34 28 176.674 37.5238 194.293 53.7142C200.959 59.4284 206.673 66.0951 211.435 73.7141C221.912 88.9521 227.626 108 227.626 128Z" fill="#F64942"/>
<path d="M227.625 127.998C227.625 135.617 226.673 143.236 225.244 150.379C223.34 159.903 219.53 168.474 215.244 176.569C211.435 183.712 206.197 190.379 200.959 196.093C190.006 194.188 177.149 193.712 152.388 204.188C130.959 213.236 129.531 211.331 107.15 203.712L88.1022 194.188L72.388 191.331C70.007 186.569 68.5785 181.807 67.6261 176.569C67.1499 174.188 67.1499 171.331 67.1499 168.95C67.1499 166.569 67.6261 164.665 68.1023 162.284C68.1023 161.331 68.5785 160.855 68.5785 159.903C68.5785 159.427 69.0547 158.474 69.0547 157.998C71.4356 150.855 75.7213 144.189 81.9117 138.474C87.626 133.236 95.245 129.427 104.769 127.046C116.673 125.141 127.15 122.76 135.721 120.379L145.721 117.522C147.15 117.046 148.578 116.57 149.53 116.094C168.102 109.903 179.054 102.76 186.197 96.0936L187.149 95.1412L192.387 89.9031C199.054 82.7603 203.34 76.5699 211.435 72.2842C221.911 88.9508 227.625 107.998 227.625 127.998Z" fill="#F4CE45"/>
<path d="M194.293 53.238C187.626 59.9046 180.007 65.6189 171.436 69.9046C169.531 70.8569 167.15 71.8093 165.245 72.7617C164.769 72.7617 164.769 73.2379 164.293 73.2379C147.15 80.3807 128.102 84.1902 110.007 85.1426C103.341 85.6188 91.9121 85.6188 79.055 88.4759H78.5788C73.3408 89.4283 67.6265 91.333 61.9123 93.714C51.4361 98.4759 40.96 106.095 34.2933 118C31.9124 122.285 29.5315 126.095 28.1029 129.428V127.523C27.6267 72.7617 72.3884 28 127.626 28C153.34 28 176.674 37.5238 194.293 53.238Z" fill="#5B95BF"/>
<path d="M225.245 150.381C223.34 159.905 219.531 168.476 215.245 176.571C211.436 183.714 206.198 190.381 200.96 196.095C182.388 216.095 156.198 228 127.627 228C90.0078 228 57.627 207.523 40.4842 176.571C39.0556 174.19 38.1033 172.286 37.1509 169.905C45.7223 167.524 53.8175 165.143 62.3889 163.238C64.2936 162.762 66.1984 162.762 67.6269 162.286C68.1031 162.286 68.5793 162.286 69.5317 161.809H70.9602C75.2459 160.857 80.0078 160.381 84.2935 160.381C87.6268 160.381 90.484 159.905 93.8173 159.905H99.0554C115.246 161.333 140.008 169.428 165.722 167.524C169.055 167.047 172.865 167.047 176.198 166.095C177.15 166.095 177.626 165.619 178.579 165.619C179.055 165.619 180.007 165.143 180.484 165.143C181.912 164.667 183.341 164.667 184.293 164.19C186.198 163.714 187.626 163.238 189.531 162.286C190.96 161.809 192.388 161.333 193.341 160.857C206.198 156.095 213.817 152.286 225.245 150.381Z" fill="#EF90A4"/>
<path fill-rule="evenodd" clip-rule="evenodd" d="M128.578 60.3799C131.912 60.3799 134.769 62.2846 136.197 65.618C136.197 66.0941 136.674 66.0941 136.674 66.0941C136.674 66.0941 137.15 66.0941 137.15 65.618C138.578 63.7132 140.959 62.7608 143.34 62.7608C144.293 62.7608 144.769 62.7608 145.721 63.237C149.054 64.1894 151.435 67.0465 151.912 69.9036C151.912 70.3798 152.388 70.3798 152.864 70.3798H153.34C154.769 69.4275 156.673 68.9513 158.102 68.9513C159.531 68.9513 160.959 69.4275 162.388 69.9036C165.245 71.8084 166.673 74.6655 166.673 77.9988C166.673 78.475 167.15 78.9512 167.626 78.9512H168.102C169.054 78.475 170.007 78.475 170.959 78.475C172.864 78.475 175.245 79.4274 176.673 80.856C179.054 83.2369 179.53 87.0464 178.578 89.9036C178.578 90.3797 178.578 90.8559 179.054 90.8559H180.007C182.864 90.8559 185.721 92.2845 187.149 95.1416C189.054 97.9988 188.578 101.808 186.673 104.189C186.197 104.665 186.673 105.142 187.149 105.142C190.483 105.618 192.864 107.999 193.816 111.332C194.769 114.665 193.34 117.999 190.959 119.903C190.483 120.38 190.483 120.856 190.959 121.332C193.816 122.761 195.721 125.618 195.721 128.951C195.721 132.284 193.816 135.141 190.483 136.57C190.007 136.57 190.007 137.522 190.483 137.999C192.864 139.903 194.292 143.237 193.34 146.57C192.388 149.903 189.53 152.284 186.673 152.76C186.197 152.76 185.721 153.713 186.197 153.713C188.102 156.094 188.102 159.903 186.673 162.76C185.245 165.617 182.388 167.046 179.53 167.046H178.578C178.102 167.046 177.626 167.522 178.102 167.998C179.054 170.856 178.578 174.189 176.197 176.57C174.769 177.998 172.388 178.951 170.483 178.951C169.531 178.951 168.578 178.951 167.626 178.475H167.15C166.673 178.475 166.197 178.951 166.197 179.427C166.673 182.76 164.769 185.617 161.912 187.522C160.483 188.475 159.054 188.475 157.626 188.475C155.721 188.475 154.292 187.998 152.864 187.046H152.388C151.912 187.046 151.912 187.522 151.435 187.522C150.959 190.855 148.578 193.236 145.245 194.189C144.293 194.189 143.816 194.665 142.864 194.665C140.483 194.665 138.102 193.713 136.197 191.332L135.721 190.855C135.245 190.855 135.245 190.855 135.245 191.332C133.816 194.189 130.959 196.094 127.626 196.094C124.293 196.094 121.435 194.189 120.007 190.855C120.007 190.379 119.531 190.379 119.531 190.379C119.531 190.379 119.055 190.379 119.055 190.855C117.626 192.76 115.245 193.713 112.864 193.713C111.912 193.713 111.436 193.713 110.483 193.236C107.15 192.284 104.769 189.427 104.293 186.57C104.293 186.094 103.817 186.094 103.34 186.094H102.864C101.436 187.046 99.5308 187.522 98.1023 187.522C96.6737 187.522 95.2451 187.046 93.8166 186.57C90.9594 184.665 89.5309 181.808 89.5309 178.475C89.5309 177.998 89.0547 177.522 88.5785 177.522H88.1023C87.1499 177.998 86.1976 177.998 85.2452 177.998C83.3404 177.998 80.9595 177.046 79.5309 175.617C77.15 173.237 76.6738 169.427 77.6262 166.57C77.6262 166.094 77.6262 165.617 77.15 165.617H76.1976C73.3405 165.617 70.4834 164.189 69.0548 161.332C67.15 158.475 67.6262 154.665 69.531 152.284C70.0072 151.808 69.531 151.332 69.0548 151.332C65.7215 150.856 63.3405 148.475 62.3882 145.141C61.4358 141.808 62.8643 138.475 65.2453 136.57C65.7215 136.094 65.7215 135.618 65.2453 135.141C62.3882 133.713 60.4834 130.856 60.4834 127.522C60.4834 124.189 62.3882 121.332 65.7215 119.903C66.1977 119.903 66.1977 118.951 65.7215 118.475C63.3405 116.57 61.912 113.237 62.8643 109.903C63.8167 106.57 66.6738 104.189 69.531 103.713C70.0072 103.713 70.4834 102.761 70.0072 102.761C68.1024 100.38 68.1024 96.5702 69.531 93.7131C70.9595 90.8559 73.8167 89.4274 76.6738 89.4274H77.6262C78.1024 89.4274 78.5786 88.9512 78.1024 88.475C77.15 85.6179 77.6262 82.2845 80.0071 79.9036C81.4357 78.475 83.8166 77.5227 85.7214 77.5227C86.6738 77.5227 87.6261 77.5227 88.5785 77.9988H89.0547C89.5309 77.9988 90.0071 77.5227 90.0071 77.0465C90.0071 73.7132 91.4356 70.856 94.2928 68.9513C95.7213 67.9989 97.1499 67.9989 98.5785 67.9989C100.483 67.9989 101.912 68.4751 103.34 69.4275H103.817C104.293 69.4275 104.293 68.9513 104.769 68.9513C105.245 65.618 107.626 63.237 110.959 62.2846C111.912 62.2846 112.388 61.8084 113.34 61.8084C115.721 61.8084 118.102 62.7608 120.007 65.1418L120.483 65.618C120.959 65.618 120.959 65.618 120.959 65.1418C122.388 62.2846 125.245 60.3799 128.578 60.3799Z" fill="white"/>
<path fill-rule="evenodd" clip-rule="evenodd" d="M181.436 121.334H179.055C174.293 121.334 170.484 118.476 168.579 114.667C166.674 118.476 162.865 121.334 158.103 121.334C154.293 121.334 151.436 119.429 149.055 117.048C148.579 116.096 148.103 115.619 147.627 114.667C147.15 116.096 146.198 117.048 145.246 118.476C143.341 120.381 140.484 121.81 137.627 121.81C136.674 121.81 136.198 121.81 135.246 121.334C131.436 120.857 128.579 118 127.15 115.143C125.246 118.953 121.436 121.81 116.674 121.81C111.912 121.81 108.103 118.953 106.198 115.143C104.293 118.953 100.484 121.81 95.722 121.81C90.9601 121.81 87.1506 118.953 85.2459 115.143C83.3411 118.953 79.5316 121.81 74.7697 121.81H73.8174C70.0079 126.096 72.3888 129.429 81.9126 129.429V150.381C81.9126 154.191 82.8649 157.524 84.2935 160.857C88.103 168.476 96.1982 174.191 105.722 177.048C112.389 179.429 120.008 180.381 127.627 180.381C135.246 180.381 142.865 179.429 149.531 177.048C155.722 175.143 161.436 171.81 165.722 168C170.484 163.238 173.341 157.524 173.341 150.381V129.429C182.864 128.953 185.245 125.619 181.436 121.334ZM158.579 150.381C165.722 150.381 166.198 160.857 158.579 160.857C151.436 160.857 151.912 150.381 158.579 150.381ZM96.6744 160.857C95.722 160.857 94.7697 160.857 93.8173 159.905C89.5316 157.524 90.9601 149.905 96.6744 149.905C102.865 149.905 103.817 158 99.0553 159.905C98.103 160.381 97.6268 160.857 96.6744 160.857Z" fill="black"/>
<path fill-rule="evenodd" clip-rule="evenodd" d="M202.387 128.475C202.387 125.142 201.435 121.808 199.53 119.427C200.483 116.094 200.959 112.761 200.006 109.428C199.054 106.094 197.149 103.237 194.768 101.332C195.245 97.999 194.292 94.6657 192.864 91.3324C191.435 88.4752 188.578 86.5705 185.721 85.1419C185.245 81.8086 183.816 78.4753 180.959 76.0943C178.578 73.7134 175.721 72.2848 172.388 71.8086C172.388 71.3325 171.911 70.8563 171.911 70.3801C170.483 67.9991 168.578 65.6182 165.721 64.1896C163.34 62.7611 160.483 61.8087 157.626 61.8087H156.197C154.292 59.4278 150.959 57.0468 147.626 56.0944C146.197 55.6182 144.769 55.6182 143.34 55.6182C141.435 55.6182 139.531 56.0944 137.626 56.5706C134.769 54.6659 131.435 53.2373 128.102 53.2373C124.769 53.2373 121.435 54.1897 119.054 56.0944C117.15 55.1421 115.245 55.1421 113.34 55.1421C111.912 55.1421 110.483 55.1421 109.054 55.6182C105.721 56.5706 102.864 58.4754 100.959 60.8563H99.0545C96.1974 60.8563 93.3403 61.8087 90.9593 63.2373C88.1022 65.142 85.7212 67.5229 84.2927 70.3801C80.9594 70.8563 77.626 72.2848 75.2451 75.142C72.8642 77.5229 71.4356 80.38 70.9594 83.7133C68.1023 85.1419 65.2452 87.5229 63.3404 90.38C62.388 91.3324 61.9118 92.7609 61.9118 94.1895C61.4356 95.6181 60.9595 97.5228 61.4356 99.4276C59.0547 101.332 56.6738 104.666 55.7214 107.999C54.769 111.332 55.2452 114.666 56.1976 117.523C54.2928 120.38 52.8643 123.713 52.8643 127.046C52.8643 130.38 53.8166 133.713 55.7214 136.094C54.2928 139.427 54.2928 142.761 55.2452 146.094C56.1976 149.427 58.1023 152.284 60.4833 154.189C60.0071 157.046 60.4833 160.38 61.9118 163.237C61.9118 163.713 62.388 163.713 62.388 164.189C63.3404 166.094 64.769 167.522 66.6737 168.951C67.6261 169.903 68.5785 170.38 69.5308 170.856C70.007 172.761 70.4832 174.665 71.4356 176.57C71.9118 177.999 72.8642 178.951 73.8165 179.903C76.1975 182.284 79.0546 183.713 82.3879 184.189C83.8165 187.046 86.1974 189.903 89.0546 191.808C91.4355 193.237 94.2926 194.189 97.1498 194.189H98.5783C100.483 197.046 103.816 198.951 107.15 199.903C108.578 200.379 110.007 200.379 111.435 200.379C113.34 200.379 115.245 199.903 117.15 199.427C120.007 201.332 123.34 202.76 126.673 202.76C130.007 202.76 133.34 201.808 135.721 199.903C137.626 200.856 139.531 200.856 141.435 200.856C142.864 200.856 144.292 200.856 145.721 200.379C149.054 199.427 151.911 197.522 153.816 195.141H155.721C158.578 195.141 161.435 194.189 163.816 192.76C166.673 191.332 169.054 188.475 170.483 185.618C173.816 185.141 177.149 183.713 179.53 180.856C180.959 179.427 181.911 177.999 182.387 176.57L183.816 172.284C186.673 170.856 189.53 168.475 191.435 165.618C192.387 164.189 192.864 162.761 193.34 160.856C193.816 159.427 193.816 157.523 193.816 156.094C196.673 154.189 198.578 150.856 199.53 147.523C200.483 144.189 200.006 140.856 199.054 137.999C200.959 135.618 202.387 132.285 202.387 128.475ZM189.054 136.094C188.578 136.57 188.578 137.046 189.054 137.523C191.435 139.427 192.387 142.761 191.911 146.094C190.959 149.427 188.102 151.808 185.245 152.284C184.768 152.284 184.292 152.761 184.768 153.237C186.673 155.618 186.673 158.951 185.245 161.808C184.292 163.713 182.387 164.665 180.959 165.618C180.483 165.618 179.53 166.094 179.054 166.094H177.626C177.149 166.094 177.149 166.094 177.149 166.57V167.046C178.102 169.903 177.626 173.237 175.245 175.618C174.768 176.094 174.292 176.57 173.34 177.046C171.911 177.999 170.483 177.999 169.054 177.999C168.102 177.999 167.149 177.999 166.197 177.522H165.721C165.245 177.522 164.768 177.999 165.245 178.475C165.245 181.332 163.816 184.665 160.959 186.094C159.53 187.046 158.102 187.046 156.673 187.046C154.769 187.046 153.34 186.57 151.911 185.618H151.435C150.959 185.618 150.959 186.094 150.483 186.094C150.007 188.951 147.626 191.808 144.769 192.76C144.292 192.76 143.34 193.237 142.864 193.237C140.483 193.237 138.102 192.284 136.197 189.903L135.721 189.427C135.245 189.427 135.245 189.427 135.245 189.903C133.816 192.76 130.959 194.665 127.626 194.665C124.292 194.665 121.435 192.76 120.007 189.903C120.007 189.427 119.531 189.427 119.054 189.427H118.578C117.15 191.332 114.769 192.284 112.388 192.284C111.912 192.284 110.959 192.284 110.483 191.808C107.15 190.856 104.769 187.999 104.293 185.141C104.293 184.665 103.816 184.665 103.34 184.665H102.864C101.435 185.618 100.007 186.094 98.1021 186.094C96.6736 186.094 95.245 185.618 93.8164 185.141C90.9593 183.237 89.5308 180.38 90.0069 177.046V176.57L89.5308 176.094H89.0546C88.5784 176.094 88.1022 176.57 87.626 176.57H85.2451C83.3403 176.57 81.9117 175.618 80.4832 174.189C78.1022 171.808 77.626 168.475 78.5784 165.142C78.5784 164.665 78.5784 164.189 77.626 164.189H77.1499C74.7689 164.189 72.8642 163.237 70.9594 161.808C70.4832 161.808 70.007 161.332 69.5308 160.38C69.0547 159.427 68.5785 158.951 68.5785 157.999C68.1023 155.618 68.5785 153.237 70.007 151.332C70.4832 150.856 70.007 150.38 69.5308 150.38C66.6737 149.904 63.8166 147.523 62.8642 144.665C61.9118 141.332 63.3404 137.999 65.7213 136.094C66.1975 135.618 66.1975 135.142 65.7213 134.665C62.8642 133.237 60.9595 130.38 60.9595 127.046C60.9595 123.713 62.8642 120.856 65.7213 119.427C66.1975 119.427 66.1975 118.475 65.7213 117.999C63.3404 116.094 62.388 112.761 62.8642 109.428C64.2928 106.57 67.1499 104.666 70.4832 104.189C70.9594 104.189 71.4356 103.713 70.9594 103.237C69.0547 100.856 69.0547 97.0466 70.4832 94.1895C71.9118 91.8085 74.7689 89.9038 77.626 89.9038H78.5784C79.0546 89.9038 79.5308 89.4276 79.0546 88.9514V87.999C78.1022 85.1419 79.0546 82.2848 80.9594 79.9038C82.3879 78.4753 84.7689 77.5229 86.6736 77.5229C87.626 77.5229 88.5784 77.5229 89.5308 77.9991H90.0069C90.4831 77.9991 90.9593 77.5229 90.4831 77.0467C90.4831 73.7134 91.9117 70.8563 94.7688 69.4277C96.1974 68.4753 97.626 68.4753 99.0545 68.4753C100.959 68.4753 102.388 68.9515 103.816 69.9039H104.293C104.769 69.9039 104.769 69.9039 105.245 69.4277C105.721 66.5706 108.102 63.7134 110.959 62.7611C111.435 62.7611 112.388 62.2849 112.864 62.2849C115.245 62.2849 117.626 63.2373 119.531 65.142L120.007 65.6182C120.483 65.6182 120.483 65.6182 120.483 65.142C121.912 62.2849 124.769 60.3801 128.102 60.3801C131.435 60.3801 134.292 62.2849 135.721 65.142C135.721 65.6182 136.197 65.6182 136.673 65.6182C136.673 65.6182 137.15 65.6182 137.15 65.142C138.578 63.2373 140.959 62.2849 143.34 62.2849C143.816 62.2849 144.769 62.2849 145.245 62.7611C149.054 64.6658 150.959 67.523 151.435 70.8563C151.435 71.3325 151.911 71.3325 152.388 71.3325H152.864C154.292 70.3801 155.721 69.9039 157.626 69.9039C159.054 69.9039 160.483 70.3801 161.911 70.8563C162.864 71.8086 164.292 72.761 164.769 73.7134C165.721 75.142 166.197 77.0467 166.197 78.9515C166.197 79.4277 166.673 79.9038 167.149 79.9038H167.626C168.578 79.4277 169.53 79.4277 170.483 79.4277C172.388 79.4277 174.768 80.38 176.197 81.8086C178.578 84.1895 179.054 87.5229 178.102 90.8562C178.102 91.3324 178.102 91.8085 179.054 91.8085H179.53C182.387 91.8085 185.245 93.2371 186.673 96.0942C187.149 96.5704 187.149 97.0466 187.626 97.999C188.578 100.38 187.626 103.237 186.197 105.142C185.721 105.618 186.197 106.094 186.673 106.094C190.006 106.57 192.387 108.951 193.34 111.808C194.292 115.142 192.864 118.475 190.483 120.38C190.006 120.856 190.006 121.332 190.483 121.808C193.34 123.237 195.245 126.094 195.245 129.427C194.292 132.285 191.911 135.142 189.054 136.094Z" fill="black"/>
</g>
<defs>
<clipPath id="clip0_392_719">
<rect width="256" height="256" fill="white"/>
</clipPath>
</defs>
</svg>
