<svg width="256" height="256" viewBox="0 0 256 256" fill="none" xmlns="http://www.w3.org/2000/svg">
<g clip-path="url(#clip0_392_707)">
<mask id="mask0_392_707" style="mask-type:alpha" maskUnits="userSpaceOnUse" x="0" y="0" width="256" height="256">
<path d="M196 0H60C26.8629 0 0 26.8629 0 60V196C0 229.137 26.8629 256 60 256H196C229.137 256 256 229.137 256 196V60C256 26.8629 229.137 0 196 0Z" fill="white"/>
</mask>
<g mask="url(#mask0_392_707)">
<path d="M293 128.391C293 140.992 291.425 153.593 289.062 165.407C285.912 181.158 279.611 195.334 272.523 208.723H-16.5168C-18.8796 204.785 -20.4547 201.635 -22.0299 197.697C-31.4808 177.22 -36.9938 155.168 -36.9938 130.753V127.603C-37.7813 37.032 36.2507 -37 127.609 -37C170.138 -37 208.73 -21.2485 237.87 5.52903C248.896 14.9799 258.347 26.006 266.222 38.6072C283.549 63.8095 293 95.3125 293 128.391Z" fill="#F64942"/>
<path d="M292.999 128.388C292.999 140.99 291.424 153.591 289.061 165.404C285.911 181.156 279.61 195.332 272.522 208.721C266.222 220.535 257.558 231.561 248.895 241.012C230.781 237.861 209.516 237.074 168.562 254.4C133.121 269.364 130.759 266.214 93.7427 253.613L62.2397 237.861L36.2497 233.136C32.3119 225.26 29.9491 217.384 28.374 208.721C27.5864 204.783 27.5864 200.058 27.5864 196.12C27.5864 192.182 28.374 189.032 29.1616 185.094C29.1616 183.519 29.9492 182.731 29.9492 181.156C29.9492 180.368 30.7367 178.793 30.7367 178.006C34.6746 166.192 41.7628 155.166 52.0012 145.715C61.4521 137.052 74.0533 130.751 89.8048 126.813C109.494 123.663 126.821 119.725 140.997 115.787L157.536 111.062C159.899 110.274 162.262 109.487 163.837 108.699C194.552 98.4606 212.666 86.647 224.48 75.6209L226.055 74.0458L234.719 65.3824C245.745 53.5688 252.833 43.3304 266.222 36.2422C283.548 63.8073 292.999 95.3103 292.999 128.388Z" fill="#F4CE45"/>
<path d="M237.87 4.74146C226.844 15.7675 214.243 25.2184 200.066 32.3066C196.916 33.8817 192.978 35.4569 189.828 37.032C189.04 37.032 189.04 37.8196 188.253 37.8196C159.9 49.6332 128.397 55.9338 98.4691 57.509C87.443 58.2965 68.5412 58.2965 47.2767 63.022H46.4891C37.8258 64.5971 28.3749 67.7474 18.924 71.6853C1.59738 79.561 -15.7293 92.1622 -26.7553 111.852C-30.6932 118.94 -34.631 125.24 -36.9938 130.753V127.603C-37.7813 37.032 36.2507 -37 127.609 -37C170.138 -37 208.73 -21.2485 237.87 4.74146Z" fill="#5B95BF"/>
<path d="M289.063 165.409C285.912 181.161 279.612 195.337 272.524 208.726C266.223 220.539 257.56 231.565 248.896 241.016C218.181 274.094 174.864 293.784 127.61 293.784C65.3915 293.784 11.8364 259.918 -16.5163 208.726C-18.879 204.788 -20.4541 201.638 -22.0293 197.7C-7.85295 193.762 5.53582 189.824 19.7122 186.674C22.8625 185.886 26.0128 185.886 28.3755 185.099C29.1631 185.099 29.9506 185.099 31.5258 184.311H33.8885C40.9767 182.736 48.8524 181.948 55.9406 181.948C61.4536 181.948 66.1791 181.161 71.6921 181.161H80.3554C107.133 183.523 148.087 196.912 190.616 193.762C196.129 192.974 202.429 192.974 207.942 191.399C209.518 191.399 210.305 190.612 211.88 190.612C212.668 190.612 214.243 189.824 215.031 189.824C217.393 189.036 219.756 189.036 221.331 188.249C224.482 187.461 226.844 186.674 229.995 185.099C232.357 184.311 234.72 183.523 236.295 182.736C257.56 174.86 270.161 168.559 289.063 165.409Z" fill="#EF90A4"/>
<path fill-rule="evenodd" clip-rule="evenodd" d="M129.275 37.5537C133.733 37.5537 137.555 40.1015 139.466 44.5601C139.466 45.197 140.103 45.197 140.103 45.197C140.103 45.197 140.74 45.197 140.74 44.5601C142.65 42.0123 145.835 40.7384 149.02 40.7384C150.294 40.7384 150.931 40.7384 152.205 41.3754C156.663 42.6493 159.848 46.4709 160.485 50.2926C160.485 50.9295 161.122 50.9295 161.759 50.9295H162.396C164.307 49.6556 166.854 49.0187 168.765 49.0187C170.676 49.0187 172.587 49.6556 174.498 50.2926C178.319 52.8403 180.23 56.662 180.23 61.1206C180.23 61.7575 180.867 62.3945 181.504 62.3945H182.141C183.415 61.7575 184.689 61.7575 185.963 61.7575C188.51 61.7575 191.695 63.0314 193.606 64.9422C196.791 68.127 197.428 73.2225 196.154 77.0442C196.154 77.6811 196.154 78.318 196.791 78.318H198.064C201.886 78.318 205.708 80.2289 207.619 84.0505C210.166 87.8722 209.529 92.9677 206.982 96.1524C206.345 96.7894 206.982 97.4263 207.619 97.4263C212.077 98.0633 215.262 101.248 216.536 105.707C217.81 110.165 215.899 114.624 212.714 117.172C212.077 117.808 212.077 118.445 212.714 119.082C216.536 120.993 219.084 124.815 219.084 129.273C219.084 133.732 216.536 137.554 212.077 139.465C211.44 139.465 211.44 140.738 212.077 141.375C215.262 143.923 217.173 148.382 215.899 152.84C214.625 157.299 210.803 160.484 206.982 161.121C206.345 161.121 205.708 162.394 206.345 162.394C208.893 165.579 208.893 170.675 206.982 174.496C205.071 178.318 201.249 180.229 197.428 180.229H196.154C195.517 180.229 194.88 180.866 195.517 181.503C196.791 185.324 196.154 189.783 192.969 192.968C191.058 194.879 187.873 196.152 185.326 196.152C184.052 196.152 182.778 196.152 181.504 195.515H180.867C180.23 195.515 179.593 196.152 179.593 196.789C180.23 201.248 177.682 205.07 173.861 207.617C171.95 208.891 170.039 208.891 168.128 208.891C165.58 208.891 163.67 208.254 161.759 206.98H161.122C160.485 206.98 160.485 207.617 159.848 207.617C159.211 212.076 156.026 215.261 151.568 216.535C150.294 216.535 149.657 217.172 148.383 217.172C145.198 217.172 142.014 215.898 139.466 212.713L138.829 212.076C138.192 212.076 138.192 212.076 138.192 212.713C136.281 216.535 132.459 219.082 128.001 219.082C123.542 219.082 119.721 216.535 117.81 212.076C117.81 211.439 117.173 211.439 117.173 211.439C117.173 211.439 116.536 211.439 116.536 212.076C114.625 214.624 111.44 215.898 108.256 215.898C106.982 215.898 106.345 215.898 105.071 215.261C100.612 213.987 97.4276 210.165 96.7906 206.344C96.7906 205.707 96.1537 205.707 95.5167 205.707H94.8798C92.969 206.98 90.4212 207.617 88.5104 207.617C86.5995 207.617 84.6887 206.98 82.7779 206.344C78.9562 203.796 77.0454 199.974 77.0454 195.515C77.0454 194.879 76.4085 194.242 75.7715 194.242H75.1346C73.8607 194.879 72.5868 194.879 71.3129 194.879C68.7651 194.879 65.5804 193.605 63.6696 191.694C60.4849 188.509 59.8479 183.414 61.1218 179.592C61.1218 178.955 61.1218 178.318 60.4849 178.318H59.211C55.3893 178.318 51.5677 176.407 49.6569 172.586C47.1091 168.764 47.746 163.668 50.2938 160.484C50.9307 159.847 50.2938 159.21 49.6569 159.21C45.1983 158.573 42.0136 155.388 40.7397 150.93C39.4658 146.471 41.3766 142.012 44.5613 139.465C45.1983 138.828 45.1983 138.191 44.5613 137.554C40.7397 135.643 38.1919 131.821 38.1919 127.363C38.1919 122.904 40.7397 119.082 45.1983 117.172C45.8352 117.172 45.8352 115.898 45.1983 115.261C42.0135 112.713 40.1027 108.254 41.3766 103.796C42.6505 99.3372 46.4721 96.1524 50.2938 95.5155C50.9307 95.5155 51.5677 94.2416 50.9307 94.2416C48.383 91.0569 48.383 85.9614 50.2938 82.1397C52.2046 78.318 56.0263 76.4072 59.8479 76.4072H61.1218C61.7588 76.4072 62.3957 75.7703 61.7588 75.1333C60.4849 71.3117 61.1218 66.8531 64.3065 63.6684C66.2174 61.7575 69.4021 60.4836 71.9499 60.4836C73.2237 60.4836 74.4976 60.4836 75.7715 61.1206H76.4084C77.0454 61.1206 77.6823 60.4836 77.6823 59.8467C77.6823 55.3881 79.5932 51.5665 83.4148 49.0187C85.3256 47.7448 87.2365 47.7448 89.1473 47.7448C91.6951 47.7448 93.6059 48.3817 95.5167 49.6556H96.1537C96.7906 49.6556 96.7906 49.0187 97.4276 49.0187C98.0645 44.5601 101.249 41.3754 105.708 40.1015C106.982 40.1015 107.619 39.4645 108.893 39.4645C112.077 39.4645 115.262 40.7384 117.81 43.9231L118.447 44.5601C119.084 44.5601 119.084 44.5601 119.084 43.9231C120.994 40.1015 124.816 37.5537 129.275 37.5537Z" fill="white"/>
<path fill-rule="evenodd" clip-rule="evenodd" d="M199.976 119.085H196.791C190.422 119.085 185.326 115.264 182.778 110.168C180.231 115.264 175.135 119.085 168.766 119.085C163.67 119.085 159.849 116.537 156.664 113.353C156.027 112.079 155.39 111.442 154.753 110.168C154.116 112.079 152.842 113.353 151.568 115.264C149.021 117.811 145.199 119.722 141.377 119.722C140.103 119.722 139.466 119.722 138.192 119.085C133.097 118.448 129.275 114.627 127.364 110.805C124.817 115.9 119.721 119.722 113.352 119.722C106.982 119.722 101.887 115.9 99.339 110.805C96.7912 115.9 91.6957 119.722 85.3262 119.722C78.9568 119.722 73.8613 115.9 71.3135 110.805C68.7657 115.9 63.6702 119.722 57.3008 119.722H56.0269C50.9313 125.455 54.116 129.913 66.8549 129.913V157.939C66.8549 163.034 68.1288 167.493 70.0396 171.951C75.1352 182.142 85.9632 189.786 98.702 193.607C107.619 196.792 117.81 198.066 128.001 198.066C138.192 198.066 148.384 196.792 157.301 193.607C165.581 191.06 173.224 186.601 178.957 181.506C185.326 175.136 189.148 167.493 189.148 157.939V129.913C201.887 129.276 205.071 124.818 199.976 119.085ZM169.403 157.939C178.957 157.939 179.594 171.951 169.403 171.951C159.849 171.951 160.485 157.939 169.403 157.939ZM86.6001 171.951C85.3262 171.951 84.0523 171.951 82.7785 170.678C77.046 167.493 78.9568 157.302 86.6001 157.302C94.8804 157.302 96.1543 168.13 89.7848 170.678C88.5109 171.314 87.874 171.951 86.6001 171.951Z" fill="black"/>
<path fill-rule="evenodd" clip-rule="evenodd" d="M228 128.637C228 124.178 226.726 119.72 224.178 116.535C225.452 112.076 226.089 107.618 224.815 103.159C223.541 98.7006 220.994 94.879 217.809 92.3312C218.446 87.8726 217.172 83.414 215.261 78.9554C213.35 75.1338 209.529 72.586 205.707 70.6752C205.07 66.2166 203.159 61.758 199.338 58.5732C196.153 55.3885 192.331 53.4777 187.873 52.8408C187.873 52.2038 187.236 51.5669 187.236 50.9299C185.325 47.7452 182.777 44.5605 178.955 42.6497C175.771 40.7389 171.949 39.465 168.127 39.465H166.217C163.669 36.2803 159.21 33.0955 154.752 31.8217C152.841 31.1847 150.93 31.1847 149.019 31.1847C146.471 31.1847 143.924 31.8217 141.376 32.4586C137.554 29.9108 133.096 28 128.637 28C124.178 28 119.72 29.2739 116.535 31.8217C113.987 30.5478 111.439 30.5478 108.892 30.5478C106.981 30.5478 105.07 30.5478 103.159 31.1847C98.7006 32.4586 94.879 35.0064 92.3312 38.1911H89.7834C85.9618 38.1911 82.1401 39.465 78.9554 41.3758C75.1338 43.9236 71.949 47.1083 70.0382 50.9299C65.5796 51.5669 61.121 53.4777 57.9363 57.2994C54.7516 60.4841 52.8408 64.3057 52.2038 68.7643C48.3822 70.6752 44.5605 73.8599 42.0127 77.6815C40.7389 78.9554 40.1019 80.8662 40.1019 82.7771C39.465 84.6879 38.828 87.2357 39.465 89.7834C36.2803 92.3312 33.0955 96.7898 31.8217 101.248C30.5478 105.707 31.1847 110.166 32.4586 113.987C29.9108 117.809 28 122.268 28 126.726C28 131.185 29.2739 135.643 31.8217 138.828C29.9108 143.287 29.9108 147.745 31.1847 152.204C32.4586 156.662 35.0064 160.484 38.1911 163.032C37.5541 166.853 38.1911 171.312 40.1019 175.134C40.1019 175.771 40.7389 175.771 40.7389 176.408C42.0127 178.955 43.9236 180.866 46.4713 182.777C47.7452 184.051 49.0191 184.688 50.293 185.325C50.9299 187.873 51.5669 190.42 52.8408 192.968C53.4777 194.879 54.7516 196.153 56.0255 197.427C59.2102 200.611 63.0318 202.522 67.4904 203.159C69.4013 206.981 72.586 210.803 76.4076 213.35C79.5923 215.261 83.414 216.535 87.2357 216.535H89.1465C91.6943 220.357 96.1529 222.904 100.611 224.178C102.522 224.815 104.433 224.815 106.344 224.815C108.892 224.815 111.439 224.178 113.987 223.541C117.809 226.089 122.268 228 126.726 228C131.185 228 135.643 226.726 138.828 224.178C141.376 225.452 143.924 225.452 146.471 225.452C148.382 225.452 150.293 225.452 152.204 224.815C156.662 223.541 160.484 220.994 163.032 217.809H165.58C169.401 217.809 173.223 216.535 176.408 214.624C180.229 212.713 183.414 208.892 185.325 205.07C189.783 204.433 194.242 202.522 197.427 198.701C199.338 196.79 200.611 194.879 201.248 192.968L203.159 187.236C206.981 185.325 210.803 182.14 213.35 178.318C214.624 176.408 215.261 174.497 215.898 171.949C216.535 170.038 216.535 167.49 216.535 165.58C220.357 163.032 222.904 158.573 224.178 154.115C225.452 149.656 224.815 145.197 223.541 141.376C226.089 138.191 228 133.732 228 128.637ZM210.166 138.828C209.529 139.465 209.529 140.102 210.166 140.739C213.35 143.287 214.624 147.745 213.987 152.204C212.713 156.662 208.892 159.847 205.07 160.484C204.433 160.484 203.796 161.121 204.433 161.758C206.981 164.943 206.981 169.401 205.07 173.223C203.796 175.771 201.248 177.045 199.338 178.318C198.701 178.318 197.427 178.955 196.79 178.955H194.879C194.242 178.955 194.242 178.955 194.242 179.592V180.229C195.516 184.051 194.879 188.51 191.694 191.694C191.057 192.331 190.42 192.968 189.146 193.605C187.236 194.879 185.325 194.879 183.414 194.879C182.14 194.879 180.866 194.879 179.592 194.242H178.955C178.318 194.242 177.682 194.879 178.318 195.516C178.318 199.338 176.408 203.796 172.586 205.707C170.675 206.981 168.764 206.981 166.853 206.981C164.306 206.981 162.395 206.344 160.484 205.07H159.847C159.21 205.07 159.21 205.707 158.573 205.707C157.936 209.529 154.752 213.35 150.93 214.624C150.293 214.624 149.019 215.261 148.382 215.261C145.197 215.261 142.013 213.987 139.465 210.803L138.828 210.166C138.191 210.166 138.191 210.166 138.191 210.803C136.28 214.624 132.459 217.172 128 217.172C123.541 217.172 119.72 214.624 117.809 210.803C117.809 210.166 117.172 210.166 116.535 210.166H115.898C113.987 212.713 110.803 213.987 107.618 213.987C106.981 213.987 105.707 213.987 105.07 213.35C100.611 212.076 97.4267 208.255 96.7898 204.433C96.7898 203.796 96.1529 203.796 95.5159 203.796H94.879C92.9681 205.07 91.0573 205.707 88.5095 205.707C86.5987 205.707 84.6879 205.07 82.7771 204.433C78.9554 201.885 77.0446 198.064 77.6815 193.605V192.968L77.0446 192.331H76.4076C75.7707 192.331 75.1338 192.968 74.4968 192.968H71.3121C68.7643 192.968 66.8535 191.694 64.9427 189.783C61.758 186.599 61.121 182.14 62.3949 177.682C62.3949 177.045 62.3949 176.408 61.121 176.408H60.4841C57.2994 176.408 54.7516 175.134 52.2038 173.223C51.5669 173.223 50.9299 172.586 50.293 171.312C49.656 170.038 49.0191 169.401 49.0191 168.127C48.3822 164.943 49.0191 161.758 50.9299 159.21C51.5669 158.573 50.9299 157.936 50.293 157.936C46.4713 157.299 42.6497 154.115 41.3758 150.293C40.1019 145.834 42.0127 141.376 45.1974 138.828C45.8344 138.191 45.8344 137.554 45.1974 136.917C41.3758 135.006 38.828 131.185 38.828 126.726C38.828 122.268 41.3758 118.446 45.1974 116.535C45.8344 116.535 45.8344 115.261 45.1974 114.624C42.0127 112.076 40.7389 107.618 41.3758 103.159C43.2866 99.3376 47.1083 96.7898 51.5669 96.1529C52.2038 96.1529 52.8408 95.5159 52.2038 94.879C49.6561 91.6943 49.656 86.5987 51.5669 82.7771C53.4777 79.5923 57.2994 77.0446 61.121 77.0446H62.3949C63.0318 77.0446 63.6688 76.4076 63.0318 75.7707V74.4968C61.758 70.6752 63.0318 66.8535 65.5796 63.6688C67.4904 61.758 70.6752 60.4841 73.2229 60.4841C74.4968 60.4841 75.7707 60.4841 77.0446 61.121H77.6815C78.3185 61.121 78.9554 60.4841 78.3185 59.8471C78.3185 55.3885 80.2293 51.5669 84.051 49.656C85.9618 48.3822 87.8726 48.3822 89.7834 48.3822C92.3312 48.3822 94.242 49.0191 96.1529 50.293H96.7898C97.4267 50.293 97.4267 50.293 98.0637 49.656C98.7006 45.8344 101.885 42.0127 105.707 40.7389C106.344 40.7389 107.618 40.1019 108.255 40.1019C111.439 40.1019 114.624 41.3758 117.172 43.9236L117.809 44.5605C118.446 44.5605 118.446 44.5605 118.446 43.9236C120.357 40.1019 124.178 37.5541 128.637 37.5541C133.096 37.5541 136.917 40.1019 138.828 43.9236C138.828 44.5605 139.465 44.5605 140.102 44.5605C140.102 44.5605 140.739 44.5605 140.739 43.9236C142.65 41.3758 145.834 40.1019 149.019 40.1019C149.656 40.1019 150.93 40.1019 151.567 40.7389C156.662 43.2866 159.21 47.1083 159.847 51.5669C159.847 52.2038 160.484 52.2038 161.121 52.2038H161.758C163.669 50.9299 165.58 50.293 168.127 50.293C170.038 50.293 171.949 50.9299 173.86 51.5669C175.134 52.8408 177.045 54.1146 177.682 55.3885C178.955 57.2994 179.592 59.8471 179.592 62.3949C179.592 63.0318 180.229 63.6688 180.866 63.6688H181.503C182.777 63.0318 184.051 63.0318 185.325 63.0318C187.873 63.0318 191.057 64.3057 192.968 66.2166C196.153 69.4013 196.79 73.8599 195.516 78.3185C195.516 78.9554 195.516 79.5923 196.79 79.5923H197.427C201.248 79.5923 205.07 81.5032 206.981 85.3248C207.618 85.9618 207.618 86.5987 208.255 87.8726C209.529 91.0573 208.255 94.879 206.344 97.4267C205.707 98.0637 206.344 98.7006 206.981 98.7006C211.439 99.3376 214.624 102.522 215.898 106.344C217.172 110.803 215.261 115.261 212.076 117.809C211.439 118.446 211.439 119.083 212.076 119.72C215.898 121.631 218.446 125.452 218.446 129.911C217.172 133.732 213.987 137.554 210.166 138.828Z" fill="black"/>
</g>
</g>
<defs>
<clipPath id="clip0_392_707">
<rect width="256" height="256" fill="white"/>
</clipPath>
</defs>
</svg>
