<svg width="256" height="256" viewBox="0 0 256 256" fill="none" xmlns="http://www.w3.org/2000/svg">
<g clip-path="url(#clip0_392_731)">
<rect width="256" height="256" rx="60" fill="white"/>
<path d="M226.626 129C226.626 136.619 225.673 144.238 224.245 151.38C222.34 160.904 218.531 169.476 214.245 177.571H39.4838C38.0552 175.19 37.1028 173.285 36.1505 170.904C30.4362 158.523 27.1029 145.19 27.1029 130.428V128.523C26.6267 73.7617 71.3884 29 126.626 29C152.34 29 175.674 38.5238 193.293 54.7142C199.959 60.4284 205.673 67.0951 210.435 74.7141C220.912 89.9521 226.626 109 226.626 129Z" fill="#F64942"/>
<path d="M226.625 128.998C226.625 136.617 225.673 144.236 224.244 151.379C222.34 160.903 218.53 169.474 214.244 177.569C210.435 184.712 205.197 191.379 199.959 197.093C189.006 195.188 176.149 194.712 151.388 205.188C129.959 214.236 128.531 212.331 106.15 204.712L87.1022 195.188L71.388 192.331C69.007 187.569 67.5785 182.807 66.6261 177.569C66.1499 175.188 66.1499 172.331 66.1499 169.95C66.1499 167.569 66.6261 165.665 67.1023 163.284C67.1023 162.331 67.5785 161.855 67.5785 160.903C67.5785 160.427 68.0547 159.474 68.0547 158.998C70.4356 151.855 74.7213 145.189 80.9117 139.474C86.626 134.236 94.245 130.427 103.769 128.046C115.673 126.141 126.15 123.76 134.721 121.379L144.721 118.522C146.15 118.046 147.578 117.57 148.53 117.094C167.102 110.903 178.054 103.76 185.197 97.0936L186.149 96.1412L191.387 90.9031C198.054 83.7603 202.34 77.5699 210.435 73.2842C220.911 89.9508 226.625 108.998 226.625 128.998Z" fill="#F4CE45"/>
<path d="M193.293 54.238C186.626 60.9046 179.007 66.6189 170.436 70.9046C168.531 71.8569 166.15 72.8093 164.245 73.7617C163.769 73.7617 163.769 74.2379 163.293 74.2379C146.15 81.3807 127.102 85.1902 109.007 86.1426C102.341 86.6188 90.9121 86.6188 78.055 89.4759H77.5788C72.3408 90.4283 66.6265 92.333 60.9123 94.714C50.4361 99.4759 39.96 107.095 33.2933 119C30.9124 123.285 28.5315 127.095 27.1029 130.428V128.523C26.6267 73.7617 71.3884 29 126.626 29C152.34 29 175.674 38.5238 193.293 54.238Z" fill="#5B95BF"/>
<path d="M224.245 151.381C222.34 160.905 218.531 169.476 214.245 177.571C210.436 184.714 205.198 191.381 199.96 197.095C181.388 217.095 155.198 229 126.627 229C89.0078 229 56.627 208.523 39.4842 177.571C38.0556 175.19 37.1033 173.286 36.1509 170.905C44.7223 168.524 52.8175 166.143 61.3889 164.238C63.2936 163.762 65.1984 163.762 66.6269 163.286C67.1031 163.286 67.5793 163.286 68.5317 162.809H69.9602C74.2459 161.857 79.0078 161.381 83.2935 161.381C86.6268 161.381 89.484 160.905 92.8173 160.905H98.0554C114.246 162.333 139.008 170.428 164.722 168.524C168.055 168.047 171.865 168.047 175.198 167.095C176.15 167.095 176.626 166.619 177.579 166.619C178.055 166.619 179.007 166.143 179.484 166.143C180.912 165.667 182.341 165.667 183.293 165.19C185.198 164.714 186.626 164.238 188.531 163.286C189.96 162.809 191.388 162.333 192.341 161.857C205.198 157.095 212.817 153.286 224.245 151.381Z" fill="#EF90A4"/>
<path fill-rule="evenodd" clip-rule="evenodd" d="M127.578 61.3799C130.912 61.3799 133.769 63.2846 135.197 66.618C135.197 67.0941 135.674 67.0941 135.674 67.0941C135.674 67.0941 136.15 67.0941 136.15 66.618C137.578 64.7132 139.959 63.7608 142.34 63.7608C143.293 63.7608 143.769 63.7608 144.721 64.237C148.054 65.1894 150.435 68.0465 150.912 70.9036C150.912 71.3798 151.388 71.3798 151.864 71.3798H152.34C153.769 70.4275 155.673 69.9513 157.102 69.9513C158.531 69.9513 159.959 70.4275 161.388 70.9036C164.245 72.8084 165.673 75.6655 165.673 78.9988C165.673 79.475 166.15 79.9512 166.626 79.9512H167.102C168.054 79.475 169.007 79.475 169.959 79.475C171.864 79.475 174.245 80.4274 175.673 81.856C178.054 84.2369 178.53 88.0464 177.578 90.9036C177.578 91.3797 177.578 91.8559 178.054 91.8559H179.007C181.864 91.8559 184.721 93.2845 186.149 96.1416C188.054 98.9988 187.578 102.808 185.673 105.189C185.197 105.665 185.673 106.142 186.149 106.142C189.483 106.618 191.864 108.999 192.816 112.332C193.769 115.665 192.34 118.999 189.959 120.903C189.483 121.38 189.483 121.856 189.959 122.332C192.816 123.761 194.721 126.618 194.721 129.951C194.721 133.284 192.816 136.141 189.483 137.57C189.007 137.57 189.007 138.522 189.483 138.999C191.864 140.903 193.292 144.237 192.34 147.57C191.388 150.903 188.53 153.284 185.673 153.76C185.197 153.76 184.721 154.713 185.197 154.713C187.102 157.094 187.102 160.903 185.673 163.76C184.245 166.617 181.388 168.046 178.53 168.046H177.578C177.102 168.046 176.626 168.522 177.102 168.998C178.054 171.856 177.578 175.189 175.197 177.57C173.769 178.998 171.388 179.951 169.483 179.951C168.531 179.951 167.578 179.951 166.626 179.475H166.15C165.673 179.475 165.197 179.951 165.197 180.427C165.673 183.76 163.769 186.617 160.912 188.522C159.483 189.475 158.054 189.475 156.626 189.475C154.721 189.475 153.292 188.998 151.864 188.046H151.388C150.912 188.046 150.912 188.522 150.435 188.522C149.959 191.855 147.578 194.236 144.245 195.189C143.293 195.189 142.816 195.665 141.864 195.665C139.483 195.665 137.102 194.713 135.197 192.332L134.721 191.855C134.245 191.855 134.245 191.855 134.245 192.332C132.816 195.189 129.959 197.094 126.626 197.094C123.293 197.094 120.435 195.189 119.007 191.855C119.007 191.379 118.531 191.379 118.531 191.379C118.531 191.379 118.055 191.379 118.055 191.855C116.626 193.76 114.245 194.713 111.864 194.713C110.912 194.713 110.436 194.713 109.483 194.236C106.15 193.284 103.769 190.427 103.293 187.57C103.293 187.094 102.817 187.094 102.34 187.094H101.864C100.436 188.046 98.5308 188.522 97.1023 188.522C95.6737 188.522 94.2451 188.046 92.8166 187.57C89.9594 185.665 88.5309 182.808 88.5309 179.475C88.5309 178.998 88.0547 178.522 87.5785 178.522H87.1023C86.1499 178.998 85.1976 178.998 84.2452 178.998C82.3404 178.998 79.9595 178.046 78.5309 176.617C76.15 174.237 75.6738 170.427 76.6262 167.57C76.6262 167.094 76.6262 166.617 76.15 166.617H75.1976C72.3405 166.617 69.4834 165.189 68.0548 162.332C66.15 159.475 66.6262 155.665 68.531 153.284C69.0072 152.808 68.531 152.332 68.0548 152.332C64.7215 151.856 62.3405 149.475 61.3882 146.141C60.4358 142.808 61.8643 139.475 64.2453 137.57C64.7215 137.094 64.7215 136.618 64.2453 136.141C61.3882 134.713 59.4834 131.856 59.4834 128.522C59.4834 125.189 61.3882 122.332 64.7215 120.903C65.1977 120.903 65.1977 119.951 64.7215 119.475C62.3405 117.57 60.912 114.237 61.8643 110.903C62.8167 107.57 65.6738 105.189 68.531 104.713C69.0072 104.713 69.4834 103.761 69.0072 103.761C67.1024 101.38 67.1024 97.5702 68.531 94.7131C69.9595 91.8559 72.8167 90.4274 75.6738 90.4274H76.6262C77.1024 90.4274 77.5786 89.9512 77.1024 89.475C76.15 86.6179 76.6262 83.2845 79.0071 80.9036C80.4357 79.475 82.8166 78.5227 84.7214 78.5227C85.6738 78.5227 86.6261 78.5227 87.5785 78.9988H88.0547C88.5309 78.9988 89.0071 78.5227 89.0071 78.0465C89.0071 74.7132 90.4356 71.856 93.2928 69.9513C94.7213 68.9989 96.1499 68.9989 97.5785 68.9989C99.4832 68.9989 100.912 69.4751 102.34 70.4275H102.817C103.293 70.4275 103.293 69.9513 103.769 69.9513C104.245 66.618 106.626 64.237 109.959 63.2846C110.912 63.2846 111.388 62.8084 112.34 62.8084C114.721 62.8084 117.102 63.7608 119.007 66.1418L119.483 66.618C119.959 66.618 119.959 66.618 119.959 66.1418C121.388 63.2846 124.245 61.3799 127.578 61.3799Z" fill="white"/>
<path fill-rule="evenodd" clip-rule="evenodd" d="M180.436 122.334H178.055C173.293 122.334 169.484 119.476 167.579 115.667C165.674 119.476 161.865 122.334 157.103 122.334C153.293 122.334 150.436 120.429 148.055 118.048C147.579 117.096 147.103 116.619 146.627 115.667C146.15 117.096 145.198 118.048 144.246 119.476C142.341 121.381 139.484 122.81 136.627 122.81C135.674 122.81 135.198 122.81 134.246 122.334C130.436 121.857 127.579 119 126.15 116.143C124.246 119.953 120.436 122.81 115.674 122.81C110.912 122.81 107.103 119.953 105.198 116.143C103.293 119.953 99.4839 122.81 94.722 122.81C89.9601 122.81 86.1506 119.953 84.2459 116.143C82.3411 119.953 78.5316 122.81 73.7697 122.81H72.8174C69.0079 127.096 71.3888 130.429 80.9126 130.429V151.381C80.9126 155.191 81.8649 158.524 83.2935 161.857C87.103 169.476 95.1982 175.191 104.722 178.048C111.389 180.429 119.008 181.381 126.627 181.381C134.246 181.381 141.865 180.429 148.531 178.048C154.722 176.143 160.436 172.81 164.722 169C169.484 164.238 172.341 158.524 172.341 151.381V130.429C181.864 129.953 184.245 126.619 180.436 122.334ZM157.579 151.381C164.722 151.381 165.198 161.857 157.579 161.857C150.436 161.857 150.912 151.381 157.579 151.381ZM95.6744 161.857C94.722 161.857 93.7697 161.857 92.8173 160.905C88.5316 158.524 89.9601 150.905 95.6744 150.905C101.865 150.905 102.817 159 98.0553 160.905C97.103 161.381 96.6268 161.857 95.6744 161.857Z" fill="black"/>
<path fill-rule="evenodd" clip-rule="evenodd" d="M201.387 129.475C201.387 126.142 200.435 122.808 198.53 120.427C199.483 117.094 199.959 113.761 199.006 110.428C198.054 107.094 196.149 104.237 193.768 102.332C194.245 98.999 193.292 95.6657 191.864 92.3324C190.435 89.4752 187.578 87.5705 184.721 86.1419C184.245 82.8086 182.816 79.4753 179.959 77.0943C177.578 74.7134 174.721 73.2848 171.388 72.8086C171.388 72.3325 170.911 71.8563 170.911 71.3801C169.483 68.9991 167.578 66.6182 164.721 65.1896C162.34 63.7611 159.483 62.8087 156.626 62.8087H155.197C153.292 60.4278 149.959 58.0468 146.626 57.0944C145.197 56.6182 143.769 56.6182 142.34 56.6182C140.435 56.6182 138.531 57.0944 136.626 57.5706C133.769 55.6659 130.435 54.2373 127.102 54.2373C123.769 54.2373 120.435 55.1897 118.054 57.0944C116.15 56.1421 114.245 56.1421 112.34 56.1421C110.912 56.1421 109.483 56.1421 108.054 56.6182C104.721 57.5706 101.864 59.4754 99.9593 61.8563H98.0545C95.1974 61.8563 92.3403 62.8087 89.9593 64.2373C87.1022 66.142 84.7212 68.5229 83.2927 71.3801C79.9594 71.8563 76.626 73.2848 74.2451 76.142C71.8642 78.5229 70.4356 81.38 69.9594 84.7133C67.1023 86.1419 64.2452 88.5229 62.3404 91.38C61.388 92.3324 60.9118 93.7609 60.9118 95.1895C60.4356 96.6181 59.9595 98.5228 60.4356 100.428C58.0547 102.332 55.6738 105.666 54.7214 108.999C53.769 112.332 54.2452 115.666 55.1976 118.523C53.2928 121.38 51.8643 124.713 51.8643 128.046C51.8643 131.38 52.8166 134.713 54.7214 137.094C53.2928 140.427 53.2928 143.761 54.2452 147.094C55.1976 150.427 57.1023 153.284 59.4833 155.189C59.0071 158.046 59.4833 161.38 60.9118 164.237C60.9118 164.713 61.388 164.713 61.388 165.189C62.3404 167.094 63.769 168.522 65.6737 169.951C66.6261 170.903 67.5785 171.38 68.5308 171.856C69.007 173.761 69.4832 175.665 70.4356 177.57C70.9118 178.999 71.8642 179.951 72.8165 180.903C75.1975 183.284 78.0546 184.713 81.3879 185.189C82.8165 188.046 85.1974 190.903 88.0546 192.808C90.4355 194.237 93.2926 195.189 96.1498 195.189H97.5783C99.4831 198.046 102.816 199.951 106.15 200.903C107.578 201.379 109.007 201.379 110.435 201.379C112.34 201.379 114.245 200.903 116.15 200.427C119.007 202.332 122.34 203.76 125.673 203.76C129.007 203.76 132.34 202.808 134.721 200.903C136.626 201.856 138.531 201.856 140.435 201.856C141.864 201.856 143.292 201.856 144.721 201.379C148.054 200.427 150.911 198.522 152.816 196.141H154.721C157.578 196.141 160.435 195.189 162.816 193.76C165.673 192.332 168.054 189.475 169.483 186.618C172.816 186.141 176.149 184.713 178.53 181.856C179.959 180.427 180.911 178.999 181.387 177.57L182.816 173.284C185.673 171.856 188.53 169.475 190.435 166.618C191.387 165.189 191.864 163.761 192.34 161.856C192.816 160.427 192.816 158.523 192.816 157.094C195.673 155.189 197.578 151.856 198.53 148.523C199.483 145.189 199.006 141.856 198.054 138.999C199.959 136.618 201.387 133.285 201.387 129.475ZM188.054 137.094C187.578 137.57 187.578 138.046 188.054 138.523C190.435 140.427 191.387 143.761 190.911 147.094C189.959 150.427 187.102 152.808 184.245 153.284C183.768 153.284 183.292 153.761 183.768 154.237C185.673 156.618 185.673 159.951 184.245 162.808C183.292 164.713 181.387 165.665 179.959 166.618C179.483 166.618 178.53 167.094 178.054 167.094H176.626C176.149 167.094 176.149 167.094 176.149 167.57V168.046C177.102 170.903 176.626 174.237 174.245 176.618C173.768 177.094 173.292 177.57 172.34 178.046C170.911 178.999 169.483 178.999 168.054 178.999C167.102 178.999 166.149 178.999 165.197 178.522H164.721C164.245 178.522 163.768 178.999 164.245 179.475C164.245 182.332 162.816 185.665 159.959 187.094C158.53 188.046 157.102 188.046 155.673 188.046C153.769 188.046 152.34 187.57 150.911 186.618H150.435C149.959 186.618 149.959 187.094 149.483 187.094C149.007 189.951 146.626 192.808 143.769 193.76C143.292 193.76 142.34 194.237 141.864 194.237C139.483 194.237 137.102 193.284 135.197 190.903L134.721 190.427C134.245 190.427 134.245 190.427 134.245 190.903C132.816 193.76 129.959 195.665 126.626 195.665C123.292 195.665 120.435 193.76 119.007 190.903C119.007 190.427 118.531 190.427 118.054 190.427H117.578C116.15 192.332 113.769 193.284 111.388 193.284C110.912 193.284 109.959 193.284 109.483 192.808C106.15 191.856 103.769 188.999 103.293 186.141C103.293 185.665 102.816 185.665 102.34 185.665H101.864C100.435 186.618 99.0069 187.094 97.1021 187.094C95.6736 187.094 94.245 186.618 92.8164 186.141C89.9593 184.237 88.5308 181.38 89.0069 178.046V177.57L88.5308 177.094H88.0546C87.5784 177.094 87.1022 177.57 86.626 177.57H84.2451C82.3403 177.57 80.9117 176.618 79.4832 175.189C77.1022 172.808 76.626 169.475 77.5784 166.142C77.5784 165.665 77.5784 165.189 76.626 165.189H76.1499C73.7689 165.189 71.8642 164.237 69.9594 162.808C69.4832 162.808 69.007 162.332 68.5308 161.38C68.0547 160.427 67.5785 159.951 67.5785 158.999C67.1023 156.618 67.5785 154.237 69.007 152.332C69.4832 151.856 69.007 151.38 68.5308 151.38C65.6737 150.904 62.8166 148.523 61.8642 145.665C60.9118 142.332 62.3404 138.999 64.7213 137.094C65.1975 136.618 65.1975 136.142 64.7213 135.665C61.8642 134.237 59.9595 131.38 59.9595 128.046C59.9595 124.713 61.8642 121.856 64.7213 120.427C65.1975 120.427 65.1975 119.475 64.7213 118.999C62.3404 117.094 61.388 113.761 61.8642 110.428C63.2928 107.57 66.1499 105.666 69.4832 105.189C69.9594 105.189 70.4356 104.713 69.9594 104.237C68.0547 101.856 68.0547 98.0466 69.4832 95.1895C70.9118 92.8085 73.7689 90.9038 76.626 90.9038H77.5784C78.0546 90.9038 78.5308 90.4276 78.0546 89.9514V88.999C77.1022 86.1419 78.0546 83.2848 79.9594 80.9038C81.3879 79.4753 83.7689 78.5229 85.6736 78.5229C86.626 78.5229 87.5784 78.5229 88.5308 78.9991H89.0069C89.4831 78.9991 89.9593 78.5229 89.4831 78.0467C89.4831 74.7134 90.9117 71.8563 93.7688 70.4277C95.1974 69.4753 96.626 69.4753 98.0545 69.4753C99.9593 69.4753 101.388 69.9515 102.816 70.9039H103.293C103.769 70.9039 103.769 70.9039 104.245 70.4277C104.721 67.5706 107.102 64.7134 109.959 63.7611C110.435 63.7611 111.388 63.2849 111.864 63.2849C114.245 63.2849 116.626 64.2373 118.531 66.142L119.007 66.6182C119.483 66.6182 119.483 66.6182 119.483 66.142C120.912 63.2849 123.769 61.3801 127.102 61.3801C130.435 61.3801 133.292 63.2849 134.721 66.142C134.721 66.6182 135.197 66.6182 135.673 66.6182C135.673 66.6182 136.15 66.6182 136.15 66.142C137.578 64.2373 139.959 63.2849 142.34 63.2849C142.816 63.2849 143.769 63.2849 144.245 63.7611C148.054 65.6658 149.959 68.523 150.435 71.8563C150.435 72.3325 150.911 72.3325 151.388 72.3325H151.864C153.292 71.3801 154.721 70.9039 156.626 70.9039C158.054 70.9039 159.483 71.3801 160.911 71.8563C161.864 72.8086 163.292 73.761 163.769 74.7134C164.721 76.142 165.197 78.0467 165.197 79.9515C165.197 80.4277 165.673 80.9038 166.149 80.9038H166.626C167.578 80.4277 168.53 80.4277 169.483 80.4277C171.388 80.4277 173.768 81.38 175.197 82.8086C177.578 85.1895 178.054 88.5229 177.102 91.8562C177.102 92.3324 177.102 92.8085 178.054 92.8085H178.53C181.387 92.8085 184.245 94.2371 185.673 97.0942C186.149 97.5704 186.149 98.0466 186.626 98.999C187.578 101.38 186.626 104.237 185.197 106.142C184.721 106.618 185.197 107.094 185.673 107.094C189.006 107.57 191.387 109.951 192.34 112.808C193.292 116.142 191.864 119.475 189.483 121.38C189.006 121.856 189.006 122.332 189.483 122.808C192.34 124.237 194.245 127.094 194.245 130.427C193.292 133.285 190.911 136.142 188.054 137.094Z" fill="black"/>
</g>
<defs>
<clipPath id="clip0_392_731">
<rect width="256" height="256" fill="white"/>
</clipPath>
</defs>
</svg>
