<svg width="256" height="256" viewBox="0 0 256 256" fill="none" xmlns="http://www.w3.org/2000/svg">
<g clip-path="url(#clip0_316_216)">
<path d="M196 0H60C26.8629 0 0 26.8629 0 60V196C0 229.137 26.8629 256 60 256H196C229.137 256 256 229.137 256 196V60C256 26.8629 229.137 0 196 0Z" fill="#3290EC"/>
<path fill-rule="evenodd" clip-rule="evenodd" d="M203.319 48.1104C205.655 47.1272 208.212 46.7881 210.724 47.1284C213.236 47.4687 215.61 48.476 217.6 50.0454C219.59 51.6148 221.124 53.689 222.04 56.052C222.957 58.415 223.223 60.9806 222.812 63.4815L201.372 193.531C199.292 206.075 185.528 213.269 174.023 207.021C164.4 201.793 150.107 193.739 137.25 185.335C130.822 181.128 111.131 167.657 113.551 158.071C115.63 149.875 148.717 119.076 167.624 100.765C175.044 93.5714 171.66 89.4214 162.897 96.0387C141.135 112.469 106.196 137.454 94.644 144.487C84.4533 150.688 79.1405 151.747 72.7879 150.688C61.1982 148.76 50.4498 145.773 41.6771 142.133C29.8226 137.217 30.3993 120.92 41.6676 116.174L203.319 48.1104Z" fill="white"/>
</g>
<defs>
<clipPath id="clip0_316_216">
<rect width="256" height="256" fill="white"/>
</clipPath>
</defs>
</svg>
