<svg width="256" height="256" viewBox="0 0 256 256" fill="none" xmlns="http://www.w3.org/2000/svg">
<g clip-path="url(#clip0_316_219)">
<rect width="256" height="256" rx="60" fill="#242938"/>
<circle cx="128" cy="128" r="100" fill="white"/>
<path d="M128 28C72.8 28 28 72.8 28 128C28 183.2 72.8 228 128 228C183.2 228 228 183.2 228 128C228 72.8 183.2 28 128 28ZM174.4 96C172.9 111.8 166.4 150.2 163.1 167.9C161.7 175.4 158.9 177.9 156.3 178.2C150.5 178.7 146.1 174.4 140.5 170.7C131.7 164.9 126.7 161.3 118.2 155.7C108.3 149.2 114.7 145.6 120.4 139.8C121.9 138.3 147.5 115 148 112.9C148.069 112.582 148.06 112.252 147.973 111.938C147.886 111.624 147.724 111.337 147.5 111.1C146.9 110.6 146.1 110.8 145.4 110.9C144.5 111.1 130.5 120.4 103.2 138.8C99.2 141.5 95.6 142.9 92.4 142.8C88.8 142.7 82 140.8 76.9 139.1C70.6 137.1 65.7 136 66.1 132.5C66.3 130.7 68.8 128.9 73.5 127C102.7 114.3 122.1 105.9 131.8 101.9C159.6 90.3 165.3 88.3 169.1 88.3C169.9 88.3 171.8 88.5 173 89.5C174 90.3 174.3 91.4 174.4 92.2C174.3 92.8 174.5 94.6 174.4 96Z" fill="#3290EC"/>
</g>
<defs>
<clipPath id="clip0_316_219">
<rect width="256" height="256" fill="white"/>
</clipPath>
</defs>
</svg>
