<svg width="256" height="256" viewBox="0 0 256 256" fill="none" xmlns="http://www.w3.org/2000/svg">
<g clip-path="url(#clip0_248_1347)">
<path d="M196 0H60C26.8629 0 0 26.8629 0 60V196C0 229.137 26.8629 256 60 256H196C229.137 256 256 229.137 256 196V60C256 26.8629 229.137 0 196 0Z" fill="#FF6F00"/>
<path d="M123.983 228L90.8749 208.187V91.3596L41 121.063L41.1212 76.8128L123.983 28V228ZM131.428 28V228L164.54 208.187V151.922L189.535 166.813L189.386 128.328L164.54 113.702V91.3596L214.399 121.063L214.279 76.8128L131.428 28Z" fill="white"/>
</g>
<defs>
<clipPath id="clip0_248_1347">
<rect width="256" height="256" fill="white"/>
</clipPath>
</defs>
</svg>
