<svg width="256" height="256" viewBox="0 0 256 256" fill="none" xmlns="http://www.w3.org/2000/svg">
<g clip-path="url(#clip0_316_274)">
<path d="M196 0H60C26.8629 0 0 26.8629 0 60V196C0 229.137 26.8629 256 60 256H196C229.137 256 256 229.137 256 196V60C256 26.8629 229.137 0 196 0Z" fill="black"/>
<path d="M171.17 100.195C184.084 109.422 199.904 114.851 216.991 114.851V81.9891C213.757 81.9904 210.532 81.653 207.368 80.9825V106.849C190.283 106.849 174.465 101.421 161.548 92.1954V159.257C161.548 192.806 134.338 219.999 100.775 219.999C88.2522 219.999 76.6119 216.215 66.9429 209.725C77.9788 221.004 93.3691 228 110.395 228C143.961 228 171.172 200.806 171.172 167.257V100.195H171.17ZM183.042 67.042C176.442 59.8357 172.108 50.5227 171.17 40.2265V36H162.052C164.347 49.086 172.177 60.2657 183.042 67.042ZM88.1713 183.982C84.4837 179.15 82.4904 173.239 82.4998 167.161C82.4998 151.817 94.9455 139.376 110.301 139.376C113.162 139.375 116.006 139.814 118.733 140.678V107.082C115.546 106.645 112.33 106.459 109.115 106.528V132.678C106.386 131.813 103.54 131.374 100.678 131.376C85.3234 131.376 72.8784 143.816 72.8784 159.161C72.8784 170.012 79.0989 179.406 88.1713 183.982Z" fill="#FF004F"/>
<path d="M161.548 92.1947C174.465 101.421 190.282 106.849 207.368 106.849V80.9818C197.831 78.9512 189.388 73.9704 183.041 67.042C172.176 60.265 164.347 49.0853 162.052 36H138.1V167.255C138.045 182.557 125.621 194.947 110.299 194.947C101.271 194.947 93.2494 190.646 88.1697 183.981C79.0987 179.406 72.8776 170.011 72.8776 159.162C72.8776 143.818 85.3226 131.377 100.677 131.377C103.619 131.377 106.454 131.835 109.114 132.678V106.529C76.1403 107.21 49.6221 134.138 49.6221 167.256C49.6221 183.788 56.2255 198.776 66.9434 209.727C76.6125 216.215 88.252 220.001 100.776 220.001C134.339 220.001 161.549 192.805 161.549 159.257L161.548 92.1947Z" fill="white"/>
<path d="M207.368 80.9811V73.9884C198.768 74.0009 190.338 71.5937 183.041 67.042C189.5 74.1095 198.005 78.9832 207.368 80.9825M162.051 35.9994C161.832 34.749 161.664 33.4904 161.547 32.2265V28H128.476V159.257C128.423 174.557 115.999 186.947 100.676 186.947C96.3324 186.953 92.048 185.938 88.169 183.983C93.2487 190.646 101.27 194.946 110.298 194.946C125.619 194.946 138.045 182.558 138.099 167.256V36.0001L162.051 35.9994ZM109.115 106.528V99.0823C106.352 98.705 103.566 98.5161 100.777 98.5168C67.2096 98.5168 40 125.712 40 159.257C40 180.288 50.6937 198.823 66.9441 209.725C56.2262 198.775 49.6227 183.787 49.6227 167.255C49.6227 134.138 76.1403 107.209 109.115 106.528Z" fill="#00F2EA"/>
</g>
<defs>
<clipPath id="clip0_316_274">
<rect width="256" height="256" fill="white"/>
</clipPath>
</defs>
</svg>
