<svg width="256" height="256" viewBox="0 0 256 256" fill="none" xmlns="http://www.w3.org/2000/svg">
<g clip-path="url(#clip0_316_277)">
<rect width="256" height="256" rx="60" fill="#242938"/>
<path d="M172.17 100.195C185.084 109.422 200.904 114.851 217.991 114.851V81.9891C214.757 81.9904 211.532 81.653 208.368 80.9825V106.849C191.283 106.849 175.465 101.421 162.548 92.1954V159.257C162.548 192.806 135.338 219.999 101.775 219.999C89.2522 219.999 77.6119 216.215 67.9429 209.725C78.9788 221.004 94.3691 228 111.395 228C144.961 228 172.172 200.806 172.172 167.257V100.195H172.17ZM184.042 67.042C177.442 59.8357 173.108 50.5227 172.17 40.2265V36.0001H163.052C165.347 49.086 173.177 60.2657 184.042 67.042ZM89.1713 183.982C85.4837 179.15 83.4904 173.239 83.4998 167.161C83.4998 151.817 95.9455 139.376 111.301 139.376C114.162 139.375 117.006 139.814 119.733 140.678V107.082C116.546 106.645 113.33 106.459 110.115 106.528V132.678C107.386 131.813 104.54 131.374 101.678 131.376C86.3234 131.376 73.8784 143.816 73.8784 159.161C73.8784 170.012 80.0989 179.406 89.1713 183.982Z" fill="#FF004F"/>
<path d="M162.548 92.1947C175.465 101.421 191.282 106.849 208.368 106.849V80.9818C198.831 78.9512 190.388 73.9704 184.041 67.042C173.176 60.265 165.347 49.0853 163.052 36.0001H139.1V167.255C139.045 182.557 126.621 194.947 111.299 194.947C102.271 194.947 94.2494 190.646 89.1697 183.981C80.0987 179.406 73.8776 170.011 73.8776 159.162C73.8776 143.818 86.3226 131.377 101.677 131.377C104.619 131.377 107.454 131.835 110.114 132.678V106.529C77.1403 107.21 50.6221 134.138 50.6221 167.256C50.6221 183.788 57.2255 198.776 67.9434 209.727C77.6125 216.215 89.252 220.001 101.776 220.001C135.339 220.001 162.549 192.805 162.549 159.257L162.548 92.1947Z" fill="white"/>
<path d="M208.368 80.9811V73.9884C199.768 74.0009 191.338 71.5937 184.041 67.042C190.5 74.1095 199.005 78.9832 208.368 80.9825M163.051 35.9994C162.832 34.749 162.664 33.4904 162.547 32.2265V28H129.476V159.257C129.423 174.557 116.999 186.947 101.676 186.947C97.3324 186.953 93.048 185.938 89.169 183.983C94.2487 190.646 102.27 194.946 111.298 194.946C126.619 194.946 139.045 182.558 139.099 167.256V36.0001L163.051 35.9994ZM110.115 106.528V99.0823C107.352 98.705 104.566 98.5161 101.777 98.5168C68.2096 98.5168 41 125.712 41 159.257C41 180.288 51.6937 198.823 67.9441 209.725C57.2262 198.775 50.6227 183.787 50.6227 167.255C50.6227 134.138 77.1403 107.209 110.115 106.528Z" fill="#00F2EA"/>
</g>
<defs>
<clipPath id="clip0_316_277">
<rect width="256" height="256" fill="white"/>
</clipPath>
</defs>
</svg>
