<svg width="256" height="256" viewBox="0 0 256 256" fill="none" xmlns="http://www.w3.org/2000/svg">
<g clip-path="url(#clip0_355_314)">
<rect width="256" height="256" rx="60" fill="#242938"/>
<path d="M143.362 99C144.536 99 144.771 99.1419 144.771 103.306V107.138C144.771 111.112 144.443 111.585 143.362 111.585H130.167V156.391C130.167 157.385 128.899 157.621 124.485 157.621H122.136C117.629 157.621 116.877 157.385 116.877 156.391V111.585H103.681C102.601 111.585 102.273 111.254 102.273 107.138V103.306C102.273 99 102.507 99 103.681 99H143.362ZM167.03 100.277C167.03 99.4258 165.809 99 161.536 99H159.047C154.539 99 153.787 99.3785 153.787 100.277V156.438C153.787 157.432 154.539 157.669 159.047 157.669H161.536C165.809 157.669 167.03 157.432 167.03 156.438V100.277ZM231.459 99H227.561C222.583 99 222.302 99.5678 221.879 100.419L214.178 119.014C211.595 125.212 208.965 131.835 207.979 135.289C207.04 131.835 205.349 127.246 201.78 118.682L194.126 100.419C193.656 99.3312 191.731 99 187.504 99H183.184C178.911 99 178.066 99.3785 178.066 100.277V156.438C178.066 157.432 178.911 157.669 183.325 157.669H185.72C190.087 157.669 191.308 157.432 191.308 156.438V123.083H191.637C191.637 123.083 192.012 124.644 192.67 126.063L201.498 146.928C201.874 147.875 202.344 148.253 206.476 148.253H209.106C213.285 148.253 213.614 147.922 213.99 146.928L222.067 126.82C222.818 124.928 223.381 123.083 223.381 123.083H223.71V156.391C223.71 157.385 224.556 157.621 229.158 157.621H231.505C235.779 157.621 237 157.385 237 156.391V100.277C237 99.3785 235.732 99 231.459 99Z" fill="white"/>
<path d="M83.354 111.585H20.3811C19.4419 111.585 18.5966 111.207 17.9862 110.592C17.3757 109.977 17 109.125 17 108.226V102.407C17 101.46 17.3757 100.656 17.9862 100.041C18.6436 99.3785 19.4419 99 20.3811 99H83.354C84.2934 99 85.1386 99.3785 85.7491 99.9936C86.3596 100.609 86.7351 101.413 86.7351 102.359V108.131C86.7351 109.078 86.3596 109.882 85.7491 110.497C85.1386 111.16 84.2934 111.585 83.354 111.585ZM44.8941 122.042H20.3811C19.4419 122.042 18.5966 122.42 18.0331 123.035C17.4226 123.65 17.047 124.502 17.047 125.401V131.173C17.047 132.119 17.4226 132.971 18.0331 133.539C18.6436 134.154 19.4889 134.532 20.4281 134.532H44.941V122.042H44.8941ZM85.7491 123.083C85.1386 122.467 84.2934 122.089 83.354 122.089H58.8409V134.627H83.354C84.2934 134.627 85.1386 134.248 85.7491 133.633C86.3596 133.018 86.7351 132.167 86.7351 131.268V125.448C86.7351 124.502 86.3596 123.65 85.7491 123.083ZM85.7491 146.124C85.1386 145.509 84.2934 145.131 83.354 145.131H58.8409V157.669H83.354C84.2934 157.669 85.1386 157.29 85.7491 156.675C86.3596 156.06 86.7351 155.208 86.7351 154.31V148.537C86.7351 147.591 86.3596 146.739 85.7491 146.124ZM44.8941 145.131H20.3811C19.4419 145.131 18.5966 145.509 18.0331 146.124C17.4226 146.739 17.047 147.591 17.047 148.49V154.262C17.047 155.208 17.4226 156.06 18.0331 156.628C18.6436 157.243 19.4889 157.621 20.4281 157.621H44.941V145.131H44.8941Z" fill="#EB0028"/>
</g>
<defs>
<clipPath id="clip0_355_314">
<rect width="256" height="256" fill="white"/>
</clipPath>
</defs>
</svg>
