<svg width="256" height="256" viewBox="0 0 256 256" fill="none" xmlns="http://www.w3.org/2000/svg">
<g clip-path="url(#clip0_392_823)">
<rect width="256" height="256" rx="60" fill="white"/>
<path fill-rule="evenodd" clip-rule="evenodd" d="M203.257 29H50.7747C37.657 29 27.0181 39.6246 27.0002 52.7423V205.001C26.9748 211.323 29.4683 217.394 33.9297 221.874C38.391 226.353 44.4527 228.871 50.7747 228.871H203.257C209.574 228.863 215.627 226.341 220.082 221.862C224.536 217.384 227.025 211.317 227 205.001V52.7423C226.982 39.6371 216.363 29.0177 203.257 29ZM113.254 172.96C113.246 175.073 112.396 177.095 110.893 178.581C109.39 180.066 107.357 180.891 105.244 180.874H71.9217C67.5634 180.856 64.0397 177.318 64.0397 172.96V73.7932C64.0397 69.4348 67.5634 65.8967 71.9217 65.8791H105.244C109.608 65.8966 113.141 69.4296 113.158 73.7932L113.254 172.96ZM190.153 127.43C190.153 129.545 189.306 131.573 187.801 133.06C186.296 134.547 184.258 135.369 182.142 135.344H148.82C144.456 135.326 140.923 131.793 140.906 127.43V73.7932C140.923 69.4296 144.456 65.8966 148.82 65.8791H182.142C186.501 65.8967 190.024 69.4348 190.024 73.7932L190.153 127.43Z" fill="url(#paint0_linear_392_823)"/>
</g>
<defs>
<linearGradient id="paint0_linear_392_823" x1="31257" y1="12820.7" x2="31257" y2="29" gradientUnits="userSpaceOnUse">
<stop stop-color="#0052CC"/>
<stop offset="1" stop-color="#2684FF"/>
</linearGradient>
<clipPath id="clip0_392_823">
<rect width="256" height="256" fill="white"/>
</clipPath>
</defs>
</svg>
