<svg width="256" height="256" viewBox="0 0 256 256" fill="none" xmlns="http://www.w3.org/2000/svg">
<g clip-path="url(#clip0_392_813)">
<rect width="256" height="256" rx="60" fill="#242938"/>
<rect x="58" y="57" width="158" height="131" fill="white"/>
<path fill-rule="evenodd" clip-rule="evenodd" d="M204.257 28H51.7747C38.657 28 28.0181 38.6246 28.0002 51.7423V204.001C27.9748 210.323 30.4683 216.394 34.9297 220.874C39.391 225.353 45.4527 227.871 51.7747 227.871H204.257C210.574 227.863 216.627 225.341 221.082 220.862C225.536 216.384 228.025 210.317 228 204.001V51.7423C227.982 38.6371 217.363 28.0177 204.257 28ZM114.254 171.96C114.246 174.073 113.396 176.095 111.893 177.581C110.39 179.066 108.357 179.891 106.244 179.874H72.9217C68.5634 179.856 65.0397 176.318 65.0397 171.96V72.7932C65.0397 68.4348 68.5634 64.8967 72.9217 64.8791H106.244C110.608 64.8966 114.141 68.4296 114.158 72.7932L114.254 171.96ZM191.153 126.43C191.153 128.545 190.306 130.573 188.801 132.06C187.296 133.547 185.258 134.369 183.142 134.344H149.82C145.456 134.326 141.923 130.793 141.906 126.43V72.7932C141.923 68.4296 145.456 64.8966 149.82 64.8791H183.142C187.501 64.8967 191.024 68.4348 191.024 72.7932L191.153 126.43Z" fill="url(#paint0_linear_392_813)"/>
</g>
<defs>
<linearGradient id="paint0_linear_392_813" x1="31258" y1="12819.7" x2="31258" y2="28" gradientUnits="userSpaceOnUse">
<stop stop-color="#0052CC"/>
<stop offset="1" stop-color="#2684FF"/>
</linearGradient>
<clipPath id="clip0_392_813">
<rect width="256" height="256" fill="white"/>
</clipPath>
</defs>
</svg>
