<svg width="256" height="256" viewBox="0 0 256 256" fill="none" xmlns="http://www.w3.org/2000/svg">
<g clip-path="url(#clip0_392_802)">
<mask id="mask0_392_802" style="mask-type:alpha" maskUnits="userSpaceOnUse" x="0" y="0" width="256" height="256">
<path d="M196 0H60C26.8629 0 0 26.8629 0 60V196C0 229.137 26.8629 256 60 256H196C229.137 256 256 229.137 256 196V60C256 26.8629 229.137 0 196 0Z" fill="white"/>
</mask>
<g mask="url(#mask0_392_802)">
<path d="M196 0H60C26.8629 0 0 26.8629 0 60V196C0 229.137 26.8629 256 60 256H196C229.137 256 256 229.137 256 196V60C256 26.8629 229.137 0 196 0Z" fill="white"/>
<path fill-rule="evenodd" clip-rule="evenodd" d="M225.609 0H30.4316C13.641 0 0.0231233 13.5995 0.000245322 30.3901V225.281C-0.0322234 233.373 3.15946 241.145 8.86996 246.878C14.5805 252.612 22.3394 255.835 30.4316 255.835H225.609C233.694 255.824 241.443 252.596 247.144 246.864C252.846 241.131 256.032 233.366 256 225.281V30.3901C255.977 13.6155 242.384 0.0225921 225.609 0ZM110.406 184.268C110.395 186.973 109.307 189.562 107.383 191.463C105.459 193.364 102.857 194.42 100.153 194.399H57.4998C51.9211 194.376 47.4108 189.847 47.4108 184.268V57.3352C47.4108 51.7566 51.9211 47.2278 57.4998 47.2052H100.153C105.738 47.2277 110.26 51.7499 110.283 57.3352L110.406 184.268ZM208.835 125.99C208.835 128.698 207.751 131.293 205.825 133.197C203.898 135.1 201.29 136.153 198.582 136.121H155.929C150.344 136.097 145.822 131.575 145.799 125.99V57.3352C145.822 51.7499 150.344 47.2277 155.929 47.2052H198.582C204.161 47.2278 208.671 51.7566 208.671 57.3352L208.835 125.99Z" fill="url(#paint0_linear_392_802)"/>
</g>
</g>
<defs>
<linearGradient id="paint0_linear_392_802" x1="39974.4" y1="16373.4" x2="39974.4" y2="0" gradientUnits="userSpaceOnUse">
<stop stop-color="#0052CC"/>
<stop offset="1" stop-color="#2684FF"/>
</linearGradient>
<clipPath id="clip0_392_802">
<rect width="256" height="256" fill="white"/>
</clipPath>
</defs>
</svg>
