<svg width="256" height="256" viewBox="0 0 256 256" fill="none" xmlns="http://www.w3.org/2000/svg">
<g clip-path="url(#clip0_248_6310)">
<rect width="256" height="256" rx="60" fill="white"/>
<path d="M181.125 28H74.875C48.9867 28 28 48.9867 28 74.875V181.125C28 207.013 48.9867 228 74.875 228H181.125C207.013 228 228 207.013 228 181.125V74.875C228 48.9867 207.013 28 181.125 28Z" fill="#007ACC"/>
<path d="M72.2273 128.664L72.1641 136.854H98.1953V210.822H116.609V136.854H142.64V128.822C142.64 124.378 142.545 120.664 142.418 120.568C142.323 120.442 126.481 120.378 107.275 120.41L72.3227 120.505L72.2273 128.664ZM189.38 120.272C194.459 121.543 198.333 123.797 201.888 127.479C203.73 129.447 206.459 133.035 206.682 133.892C206.745 134.146 198.047 139.987 192.777 143.257C192.587 143.384 191.824 142.558 190.967 141.289C188.396 137.543 185.698 135.923 181.57 135.638C175.507 135.225 171.602 138.4 171.634 143.701C171.634 145.257 171.856 146.177 172.491 147.447C173.824 150.209 176.301 151.86 184.079 155.225C198.396 161.384 204.523 165.447 208.333 171.225C212.587 177.669 213.539 187.955 210.65 195.606C207.476 203.923 199.602 209.574 188.523 211.447C185.095 212.05 176.967 211.955 173.285 211.289C165.253 209.86 157.634 205.892 152.936 200.686C151.095 198.654 147.507 193.352 147.73 192.971C147.824 192.844 148.65 192.336 149.57 191.797C150.459 191.289 153.825 189.352 156.999 187.511L162.745 184.177L163.952 185.955C165.634 188.526 169.316 192.05 171.539 193.225C177.92 196.59 186.682 196.114 190.999 192.241C192.841 190.558 193.602 188.812 193.602 186.241C193.602 183.923 193.316 182.907 192.11 181.161C190.555 178.94 187.38 177.066 178.364 173.161C168.047 168.717 163.602 165.955 159.539 161.574C157.19 159.035 154.967 154.971 154.047 151.574C153.285 148.749 153.095 141.669 153.698 138.812C155.824 128.844 163.348 121.892 174.205 119.828C177.73 119.161 185.92 119.415 189.38 120.272Z" fill="white"/>
</g>
<defs>
<clipPath id="clip0_248_6310">
<rect width="256" height="256" fill="white"/>
</clipPath>
</defs>
</svg>
