<svg width="256" height="848" viewBox="0 0 256 848" fill="none" xmlns="http://www.w3.org/2000/svg">
<g clip-path="url(#clip0_210_2309)">
<path d="M196 0H60C26.8629 0 0 26.8629 0 60V196C0 229.137 26.8629 256 60 256H196C229.137 256 256 229.137 256 196V60C256 26.8629 229.137 0 196 0Z" fill="#007ACC"/>
<path d="M56.6111 128.849L56.5298 139.333H73.1901H89.8504V186.673V234.012H101.635H113.419V186.673V139.333H130.079H146.739V129.052C146.739 123.363 146.618 118.609 146.455 118.487C146.333 118.325 126.056 118.243 101.472 118.284L56.733 118.406L56.6111 128.849Z" fill="white"/>
<path d="M206.567 118.108C213.068 119.734 218.026 122.619 222.577 127.332C224.934 129.852 228.428 134.444 228.713 135.541C228.794 135.866 217.66 143.343 210.915 147.528C210.671 147.691 209.695 146.634 208.598 145.009C205.307 140.214 201.853 138.141 196.57 137.776C188.809 137.247 183.811 141.311 183.852 148.097C183.852 150.088 184.136 151.266 184.949 152.892C186.655 156.427 189.825 158.54 199.781 162.847C218.107 170.731 225.949 175.932 230.826 183.327C236.271 191.576 237.49 204.742 233.792 214.535C229.729 225.181 219.651 232.414 205.469 234.812C201.081 235.584 190.678 235.462 185.965 234.609C175.684 232.78 165.932 227.701 159.918 221.037C157.561 218.436 152.969 211.65 153.254 211.162C153.375 211 154.432 210.35 155.61 209.659C156.748 209.009 161.056 206.53 165.119 204.173L172.474 199.906L174.018 202.182C176.172 205.473 180.885 209.984 183.73 211.487C191.897 215.795 203.113 215.185 208.639 210.228C210.996 208.074 211.971 205.839 211.971 202.548C211.971 199.581 211.605 198.281 210.061 196.046C208.07 193.202 204.007 190.804 192.466 185.806C179.26 180.117 173.571 176.582 168.37 170.974C165.363 167.724 162.518 162.522 161.34 158.174C160.365 154.558 160.121 145.496 160.893 141.839C163.615 129.08 173.246 120.181 187.143 117.539C191.654 116.686 202.137 117.011 206.567 118.108Z" fill="white"/>
</g>
<g clip-path="url(#clip1_210_2309)">
<rect y="296" width="256" height="256" rx="60" fill="#242938"/>
<path d="M181.125 324H74.875C48.9867 324 28 344.987 28 370.875V477.125C28 503.013 48.9867 524 74.875 524H181.125C207.013 524 228 503.013 228 477.125V370.875C228 344.987 207.013 324 181.125 324Z" fill="#007ACC"/>
<path d="M72.2273 424.664L72.1641 432.854H98.1953V506.822H116.609V432.854H142.64V424.822C142.64 420.378 142.545 416.664 142.418 416.568C142.323 416.442 126.481 416.378 107.275 416.41L72.3227 416.505L72.2273 424.664ZM189.38 416.272C194.459 417.543 198.333 419.797 201.888 423.479C203.73 425.447 206.459 429.035 206.682 429.892C206.745 430.146 198.047 435.987 192.777 439.257C192.587 439.384 191.824 438.558 190.967 437.289C188.396 433.543 185.698 431.923 181.57 431.638C175.507 431.225 171.602 434.4 171.634 439.701C171.634 441.257 171.856 442.177 172.491 443.447C173.824 446.209 176.301 447.86 184.079 451.225C198.396 457.384 204.523 461.447 208.333 467.225C212.587 473.669 213.539 483.955 210.65 491.606C207.476 499.923 199.602 505.574 188.523 507.447C185.095 508.05 176.967 507.955 173.285 507.289C165.253 505.86 157.634 501.892 152.936 496.686C151.095 494.654 147.507 489.352 147.73 488.971C147.824 488.844 148.65 488.336 149.57 487.797C150.459 487.289 153.825 485.352 156.999 483.511L162.745 480.177L163.952 481.955C165.634 484.526 169.316 488.05 171.539 489.225C177.92 492.59 186.682 492.114 190.999 488.241C192.841 486.558 193.602 484.812 193.602 482.241C193.602 479.923 193.316 478.907 192.11 477.161C190.555 474.94 187.38 473.066 178.364 469.161C168.047 464.717 163.602 461.955 159.539 457.574C157.19 455.035 154.967 450.971 154.047 447.574C153.285 444.749 153.095 437.669 153.698 434.812C155.824 424.844 163.348 417.892 174.205 415.828C177.73 415.161 185.92 415.415 189.38 416.272Z" fill="white"/>
</g>
<g clip-path="url(#clip2_210_2309)">
<rect y="592" width="256" height="256" rx="60" fill="white"/>
<path d="M181.125 620H74.875C48.9867 620 28 640.987 28 666.875V773.125C28 799.013 48.9867 820 74.875 820H181.125C207.013 820 228 799.013 228 773.125V666.875C228 640.987 207.013 620 181.125 620Z" fill="#007ACC"/>
<path d="M72.2273 720.664L72.1641 728.854H98.1953V802.822H116.609V728.854H142.64V720.822C142.64 716.378 142.545 712.664 142.418 712.568C142.323 712.442 126.481 712.378 107.275 712.41L72.3227 712.505L72.2273 720.664ZM189.38 712.272C194.459 713.543 198.333 715.797 201.888 719.479C203.73 721.447 206.459 725.035 206.682 725.892C206.745 726.146 198.047 731.987 192.777 735.257C192.587 735.384 191.824 734.558 190.967 733.289C188.396 729.543 185.698 727.923 181.57 727.638C175.507 727.225 171.602 730.4 171.634 735.701C171.634 737.257 171.856 738.177 172.491 739.447C173.824 742.209 176.301 743.86 184.079 747.225C198.396 753.384 204.523 757.447 208.333 763.225C212.587 769.669 213.539 779.955 210.65 787.606C207.476 795.923 199.602 801.574 188.523 803.447C185.095 804.05 176.967 803.955 173.285 803.289C165.253 801.86 157.634 797.892 152.936 792.686C151.095 790.654 147.507 785.352 147.73 784.971C147.824 784.844 148.65 784.336 149.57 783.797C150.459 783.289 153.825 781.352 156.999 779.511L162.745 776.177L163.952 777.955C165.634 780.526 169.316 784.05 171.539 785.225C177.92 788.59 186.682 788.114 190.999 784.241C192.841 782.558 193.602 780.812 193.602 778.241C193.602 775.923 193.316 774.907 192.11 773.161C190.555 770.94 187.38 769.066 178.364 765.161C168.047 760.717 163.602 757.955 159.539 753.574C157.19 751.035 154.967 746.971 154.047 743.574C153.285 740.749 153.095 733.669 153.698 730.812C155.824 720.844 163.348 713.892 174.205 711.828C177.73 711.161 185.92 711.415 189.38 712.272Z" fill="white"/>
</g>
<defs>
<clipPath id="clip0_210_2309">
<rect width="256" height="256" fill="white"/>
</clipPath>
<clipPath id="clip1_210_2309">
<rect width="256" height="256" fill="white" transform="translate(0 296)"/>
</clipPath>
<clipPath id="clip2_210_2309">
<rect width="256" height="256" fill="white" transform="translate(0 592)"/>
</clipPath>
</defs>
</svg>
