<svg width="256" height="256" viewBox="0 0 256 256" fill="none" xmlns="http://www.w3.org/2000/svg">
<g clip-path="url(#clip0_248_6771)">
<path d="M196 0H60C26.8629 0 0 26.8629 0 60V196C0 229.137 26.8629 256 60 256H196C229.137 256 256 229.137 256 196V60C256 26.8629 229.137 0 196 0Z" fill="#E75320"/>
<path d="M56.4132 151.07C72.1034 151.07 84.8264 138.249 84.8264 122.433C84.8264 106.616 72.1034 93.7948 56.4132 93.7948C40.7196 93.7948 28 106.616 28 122.433C28 138.249 40.7196 151.07 56.4132 151.07ZM174.755 88.2755C190.449 88.2755 203.168 75.4538 203.168 59.6378C203.168 43.8217 190.449 31 174.755 31C159.065 31 146.342 43.8217 146.342 59.6378C146.342 75.4538 159.065 88.2755 174.755 88.2755ZM120.498 196.15C100.027 191.73 82.9242 178.558 73.308 159.87C65.7115 163.348 57.227 164.397 49.0121 162.875C60.6462 191.676 85.3198 212.592 115.615 219.139C122.26 220.575 129.032 221.273 135.793 221.229C130.572 214.32 127.662 205.941 127.477 197.283C125.136 197.023 122.809 196.642 120.508 196.14L120.498 196.15ZM168.361 224.941C184.055 224.941 196.774 212.119 196.774 196.303C196.774 180.487 184.055 167.666 168.361 167.666C152.671 167.666 139.948 180.487 139.948 196.303C139.948 212.119 152.671 224.941 168.361 224.941ZM207.901 185.785C216.738 174.556 222.962 161.285 225.953 147.184C228.532 134.998 228.675 122.423 226.376 110.181C224.077 97.9388 219.381 86.2722 212.556 75.852C209.288 83.6258 203.711 90.2085 196.58 94.7102C204.259 109.307 206.583 126.132 203.148 142.264C201.487 150.11 198.498 157.614 194.311 164.453C200.972 169.963 205.731 177.43 207.912 185.796L207.901 185.785ZM54.2252 81.3611C57.8278 81.1677 61.44 81.4607 64.9644 82.2322C69.5955 83.2326 73.9477 84.9986 77.9357 87.5031C90.7302 68.958 111.371 57.8309 133.738 57.4157C134.181 48.9761 137.189 40.8727 142.36 34.1884C106.621 31.3369 71.8958 49.9263 54.2116 81.3713L54.2252 81.3611Z" fill="white"/>
</g>
<defs>
<clipPath id="clip0_248_6771">
<rect width="256" height="256" fill="white"/>
</clipPath>
</defs>
</svg>
