<svg width="256" height="256" viewBox="0 0 256 256" fill="none" xmlns="http://www.w3.org/2000/svg">
<g clip-path="url(#clip0_248_6779)">
<rect width="256" height="256" rx="60" fill="white"/>
<path d="M128 228C183.228 228 228 183.228 228 128C228 72.7716 183.228 28 128 28C72.7716 28 28 72.7716 28 128C28 183.228 72.7716 228 128 228Z" fill="#E75320"/>
<path d="M65.7305 148.056C78.2827 148.056 88.4611 137.799 88.4611 125.146C88.4611 112.493 78.2827 102.236 65.7305 102.236C53.1757 102.236 43 112.493 43 125.146C43 137.799 53.1757 148.056 65.7305 148.056ZM160.404 97.8204C172.959 97.8204 183.134 87.5631 183.134 74.9102C183.134 62.2573 172.959 52 160.404 52C147.852 52 137.673 62.2573 137.673 74.9102C137.673 87.5631 147.852 97.8204 160.404 97.8204ZM116.998 184.12C100.621 180.584 86.9394 170.046 79.2464 155.096C73.1692 157.878 66.3816 158.718 59.8097 157.5C69.117 180.541 88.8558 197.274 113.092 202.512C118.408 203.66 123.825 204.218 129.235 204.183C125.057 198.656 122.729 191.953 122.581 185.027C120.708 184.819 118.848 184.513 117.006 184.112L116.998 184.12ZM155.289 207.153C167.844 207.153 178.019 196.896 178.019 184.243C178.019 171.59 167.844 161.333 155.289 161.333C142.737 161.333 132.558 171.59 132.558 184.243C132.558 196.896 142.737 207.153 155.289 207.153ZM186.921 175.828C193.991 166.845 198.97 156.228 201.362 144.947C203.425 135.199 203.54 125.138 201.701 115.345C199.862 105.551 196.104 96.2178 190.645 87.8816C188.03 94.1006 183.569 99.3668 177.864 102.968C184.007 114.646 185.866 128.106 183.118 141.011C181.789 147.288 179.398 153.291 176.049 158.763C181.378 163.171 185.185 169.144 186.929 175.837L186.921 175.828ZM63.9802 92.2889C66.8622 92.1341 69.752 92.3685 72.5715 92.9858C76.2764 93.7861 79.7581 95.1989 82.9486 97.2025C93.1841 82.3664 109.697 73.4647 127.59 73.1326C127.945 66.3809 130.351 59.8981 134.488 54.5507C105.897 52.2695 78.1166 67.141 63.9693 92.297L63.9802 92.2889Z" fill="white"/>
</g>
<defs>
<clipPath id="clip0_248_6779">
<rect width="256" height="256" fill="white"/>
</clipPath>
</defs>
</svg>
