<svg width="256" height="256" viewBox="0 0 256 256" fill="none" xmlns="http://www.w3.org/2000/svg">
<g clip-path="url(#clip0_361_984)">
<path d="M196 0H60C26.8629 0 0 26.8629 0 60V196C0 229.137 26.8629 256 60 256H196C229.137 256 256 229.137 256 196V60C256 26.8629 229.137 0 196 0Z" fill="black"/>
<path d="M52.1769 106.733L35.0861 96.8665L18 106.733V96.8665L35.0887 87L52.1795 96.8665V106.733H52.1769Z" fill="#A435F0"/>
<path d="M18 115.018H26.9517V136.767C26.9517 142.386 31.148 145.125 35.0887 145.125C39.0633 145.125 43.2278 142.313 43.2278 136.691V115.018H52.1795V137.285C52.1795 142.461 50.5518 146.456 47.2974 149.194C44.0404 151.932 39.9729 153.264 35.013 153.264C30.0579 153.264 25.9883 151.934 22.8091 149.195C19.6272 146.457 18 142.612 18 137.506V115.018ZM129.57 142.048C126.86 144.461 123.774 145.643 120.254 145.643C113.832 145.643 109.526 141.985 109.04 136.319H137.962C137.962 136.319 138.157 134.49 138.157 132.773C138.157 127.445 136.454 123.006 132.976 119.381C129.575 115.757 125.138 113.981 119.735 113.981C114.041 113.981 109.378 115.757 105.678 119.381C102.053 123.006 100.205 127.74 100.205 133.66V133.953C100.205 139.798 102.053 144.458 105.678 147.937C109.303 151.413 114.112 153.189 119.957 153.189C126.753 153.189 132.161 150.508 136.218 145.886L129.57 142.048ZM112.557 123.894C114.552 122.339 116.997 121.527 119.733 121.527C122.321 121.527 124.467 122.339 126.318 123.969C128.084 125.453 129.038 127.275 129.12 129.37H109.269C109.555 127.204 110.65 125.38 112.56 123.896L112.557 123.894ZM219.681 158.214C216.049 166.789 212.249 169.706 206.424 169.706H202.385V161.771H205.65C207.654 161.771 209.518 161.016 211.293 156.92L213.069 152.819L197.754 115.018H206.854L217.729 142.243L228.902 115.018H238L219.683 158.214L219.681 158.214ZM87.0276 100.741V118.394C84.0941 115.767 79.5308 114.203 75.1179 114.203C69.8637 114.203 65.4268 116.051 61.8023 119.822C58.251 123.522 56.4751 128.107 56.4751 133.656C56.4751 139.207 58.251 143.792 61.8023 147.565C65.4268 151.264 69.8663 153.116 75.1184 153.116C81.1752 153.116 85.0037 150.734 87.0276 148.869V152.301H95.9066V100.743H87.0276V100.741ZM84.3639 141.797C82.2185 143.943 79.4823 145.054 76.3004 145.054C73.1186 145.054 70.5306 143.943 68.3847 141.797C66.3171 139.652 65.2785 136.915 65.2785 133.66C65.2785 130.403 66.3149 127.667 68.3852 125.521C70.5306 123.376 73.1186 122.266 76.3 122.266C79.4823 122.266 82.2185 123.376 84.3639 125.521C86.5824 127.667 87.6966 130.403 87.6966 133.66C87.6966 136.915 86.5824 139.652 84.3639 141.797ZM183.952 114.278C177.209 114.278 173.704 117.075 171.303 119.771C170.342 117.939 167.637 114.278 161.317 114.278C155.975 114.278 152.828 116.978 151.256 118.9V115.022H142.455V152.306H151.256V130.851C151.256 125.82 154.365 122.196 158.505 122.196C162.726 122.196 165.165 125.378 165.165 130.481V152.303H173.969V130.849C173.969 125.745 176.999 122.194 181.364 122.194C185.582 122.194 188.021 125.375 188.021 130.476V152.301H196.9V129.221C196.9 119.501 191.675 114.28 183.952 114.28V114.278Z" fill="white"/>
</g>
<defs>
<clipPath id="clip0_361_984">
<rect width="256" height="256" fill="white"/>
</clipPath>
</defs>
</svg>
