<svg width="256" height="256" viewBox="0 0 256 256" fill="none" xmlns="http://www.w3.org/2000/svg">
<g clip-path="url(#clip0_377_17)">
<rect width="256" height="256" rx="60" fill="#242938"/>
<path d="M47.8471 84.131C46.8721 84.4371 46.1578 85.2648 45.7609 86.5574C45.5909 87.1129 45.5342 87.6005 45.5342 88.6095C45.5455 90.4576 46.8267 117.057 46.9174 117.136C47.0081 117.227 53.1647 116.955 53.2667 116.864C53.3574 116.785 52.0762 89.0631 51.9288 87.8272C51.7701 86.4667 51.0785 85.1174 50.2395 84.5392C49.4458 83.995 48.6975 83.8702 47.8471 84.131Z" fill="#E2007A"/>
<path d="M61.8951 88.9493C60.8974 89.4142 60.0244 90.6614 59.7182 92.1013C59.6049 92.6796 57.5073 116.739 57.5753 116.784C57.6547 116.852 63.9133 117.328 63.97 117.283C64.004 117.249 64.4916 111.773 65.0585 105.106C65.9882 94.1195 66.0789 92.9063 65.9655 92.09C65.7387 90.5367 65.1378 89.5389 64.1061 89.0287C63.3918 88.6659 62.5754 88.6432 61.8951 88.9493Z" fill="#E2007A"/>
<path d="M34.4912 90.265C33.2213 90.7185 32.3823 92.2945 32.3823 94.2333C32.3937 95.2537 34.8087 118.519 34.922 118.633C34.9787 118.689 41.2033 118.123 41.3054 118.055C41.3167 118.043 40.7498 112.556 40.0468 105.855C39.0151 96.036 38.7089 93.519 38.5162 92.9294C37.8019 90.7979 36.1125 89.6867 34.4912 90.265Z" fill="#E2007A"/>
<path d="M73.2561 98.7461C72.0883 99.1997 71.3287 100.129 70.8865 101.671C70.6484 102.465 68.9817 117.907 69.1177 117.987C69.1744 118.021 70.603 118.191 72.2924 118.372C74.4239 118.599 75.399 118.667 75.4444 118.576C75.4897 118.52 75.8979 114.926 76.3628 110.606C77.1224 103.599 77.1904 102.669 77.0884 101.943C76.9523 101.025 76.5101 99.948 76.0566 99.4604C75.3763 98.7348 74.1178 98.4173 73.2561 98.7461Z" fill="#E2007A"/>
<path d="M87.0998 123.599C87.0658 123.701 87.0317 134.37 87.0317 147.295V170.81L87.2698 170.935C87.4286 171.026 90.2971 171.048 97.3267 171.014C106.919 170.969 107.179 170.969 108.257 170.731C110.524 170.221 112.78 169.234 115.15 167.738C117.418 166.309 120.286 163.236 122.123 160.277C124.833 155.912 125.967 150.583 125.456 144.687C124.98 139.064 122.406 133.383 118.654 129.664C115.445 126.49 112.202 124.63 108.325 123.735C107.304 123.508 106.987 123.497 97.2246 123.463C88.0181 123.417 87.1678 123.429 87.0998 123.599Z" fill="white"/>
<path d="M34.6951 138.02C34.7291 145.991 34.8085 153.678 34.8652 155.118C34.9672 157.669 34.9785 157.748 35.364 158.916C35.9196 160.594 36.2257 161.218 36.9854 162.284C40.7496 167.522 45.8744 170.526 52.099 171.161C53.6069 171.309 56.3507 171.309 57.7567 171.15C60.6252 170.844 64.4461 169.642 66.4643 168.418C67.7001 167.681 69.5369 166.218 70.7727 164.982C73.0857 162.703 74.2308 160.81 75.0358 157.953L75.2966 157.045L75.3306 140.288L75.3646 123.542H54.9902H34.6157L34.6951 138.02Z" fill="#E2007A"/>
<path d="M153.983 124.461C150.831 124.869 146.568 126.434 144.153 128.055C141.828 129.62 139.096 132.125 137.588 134.087C134.901 137.545 133.438 141.286 133.064 145.652C132.735 149.438 133.098 152.398 134.311 155.901C135.229 158.566 136.103 160.108 138.075 162.568C142.384 167.931 147.86 171.015 154.323 171.729C155.91 171.899 159.516 171.865 160.967 171.661C165.162 171.083 169.504 169.201 172.645 166.604C173.291 166.071 174.436 165.006 175.196 164.235C179.017 160.312 181.081 156.06 181.602 151.014C181.806 149.042 181.681 144.983 181.364 143.565C180.219 138.282 177.475 133.758 173.167 130.05C169.402 126.819 165.23 124.994 160.332 124.449C159.107 124.313 155.094 124.325 153.983 124.461Z" fill="white"/>
<path d="M209.902 124.517C206.228 125.05 202.158 126.705 199.392 128.792C194.743 132.306 191.863 136.037 190.378 140.481C189.562 142.908 189.278 144.869 189.255 148.089C189.244 150.651 189.403 151.865 190.038 154.212C190.435 155.64 191.24 157.817 191.795 158.917C192.192 159.699 193.723 161.853 194.743 163.055C195.809 164.314 197.906 166.332 199.029 167.182C201.478 169.03 204.018 170.278 206.92 171.049C209.346 171.695 210.14 171.774 213.734 171.774C216.898 171.786 217.079 171.763 218.496 171.468C222.465 170.618 226.297 168.815 229.097 166.479C230.356 165.425 232.147 163.622 233.054 162.488C234.698 160.447 236.172 157.794 236.909 155.527C238.054 152.091 238.326 147.08 237.589 143.463C236.921 140.152 235.118 136.309 233.043 133.78C228.553 128.293 222.952 125.107 216.637 124.461C215.015 124.29 211.251 124.324 209.902 124.517Z" fill="white"/>
<path d="M21.4184 131.365C20.0805 131.637 18.6519 132.771 18.2211 133.916C17.9263 134.71 17.9263 135.163 18.2211 136.037C18.7086 137.488 19.4796 138.406 22.5749 141.173C25.8289 144.087 28.3006 146.751 29.8766 149.041L30.4548 149.892V143.372L30.4435 136.864L29.6952 136.297C29.2757 135.98 28.0058 134.925 26.872 133.95C24.4343 131.853 24.1509 131.66 23.2552 131.422C22.5295 131.241 22.1554 131.229 21.4184 131.365Z" fill="#E2007A"/>
</g>
<defs>
<clipPath id="clip0_377_17">
<rect width="256" height="256" fill="white"/>
</clipPath>
</defs>
</svg>
