<svg width="256" height="256" viewBox="0 0 256 256" fill="none" xmlns="http://www.w3.org/2000/svg">
<g clip-path="url(#clip0_361_1062)">
<rect width="256" height="256" rx="60" fill="#242938"/>
<path fill-rule="evenodd" clip-rule="evenodd" d="M120.725 93.8256V29.7388C128.143 29.9104 135.524 30.9627 142.719 32.933C141.98 37.3289 143.861 41.7173 147.51 44.2548L126.292 94.9973C124.464 94.4002 122.613 94.0271 120.732 93.8256H120.725Z" fill="white"/>
<path fill-rule="evenodd" clip-rule="evenodd" d="M115.127 93.8259V29.8286C105.029 30.3436 95.163 32.8214 86.0056 37.1277L109.739 94.9453C111.478 94.3781 113.276 94.005 115.127 93.8333V93.8259Z" fill="white"/>
<path fill-rule="evenodd" clip-rule="evenodd" d="M105.447 96.55L81.8337 39.0532C72.7658 43.7028 64.5787 49.9794 57.7349 57.5322L100.231 100.028C101.828 98.6845 103.567 97.5202 105.447 96.55Z" fill="white"/>
<path fill-rule="evenodd" clip-rule="evenodd" d="M54.7869 61.0098C48.5401 68.4282 43.8084 77.0109 40.8679 86.2206L93.6927 108.327C94.6032 106.528 95.7451 104.819 97.0586 103.282L54.7869 61.0098Z" fill="white"/>
<path fill-rule="evenodd" clip-rule="evenodd" d="M91.8347 112.581L39.7562 90.7881C38.5547 100.087 38.786 109.498 40.4429 118.708H90.6107C90.7824 116.626 91.2078 114.573 91.8347 112.573V112.581Z" fill="white"/>
<path fill-rule="evenodd" clip-rule="evenodd" d="M90.6254 123.321H41.7412C44.7041 131.023 48.5551 138.322 53.1824 145.143L91.8046 129.284C91.2075 127.343 90.8045 125.351 90.6329 123.321H90.6254Z" fill="white"/>
<path fill-rule="evenodd" clip-rule="evenodd" d="M97.1334 138.441C95.7677 136.844 94.5959 135.105 93.6556 133.224L56.3767 148.509C61.5711 153.673 67.3029 158.204 73.4601 162.114L97.1334 138.441Z" fill="white"/>
<path fill-rule="evenodd" clip-rule="evenodd" d="M126.77 172.615C126.225 168.197 128.255 163.89 132.016 161.495L126.113 146.889C117.187 149.658 107.462 147.688 100.328 141.643L77.5125 164.458C92.6031 172.473 109.91 175.354 126.77 172.615Z" fill="white"/>
<path fill-rule="evenodd" clip-rule="evenodd" d="M130.098 145.248L136.032 159.965C140.622 159.196 145.189 161.279 147.637 165.212C150.174 164.01 152.682 162.756 155.167 161.45L135.457 141.71C133.8 143.106 132.009 144.307 130.098 145.248Z" fill="white"/>
<path fill-rule="evenodd" clip-rule="evenodd" d="M201.022 129.067C199.365 127.44 198.223 125.358 197.768 123.052H145.033C144.577 128.731 142.323 134.12 138.674 138.456L159.354 159.137C174.385 150.808 188.364 140.71 201.029 129.075L201.022 129.067Z" fill="white"/>
<path fill-rule="evenodd" clip-rule="evenodd" d="M171.229 49.5237C173.706 52.0015 176.02 54.6286 178.192 57.3975L135.405 100.184C133.838 98.8707 132.151 97.7586 130.36 96.8183L151.578 46.0757C155.511 46.8743 159.593 45.5085 162.303 42.5083C165.437 44.6204 168.437 46.9862 171.229 49.5237Z" fill="white"/>
<path fill-rule="evenodd" clip-rule="evenodd" d="M137.875 164.406C134.076 164.406 131.001 167.496 131.001 171.309C131.001 175.123 134.076 178.213 137.875 178.213C141.674 178.213 144.749 175.123 144.749 171.309C144.749 167.496 141.674 164.406 137.875 164.406Z" fill="#ED1C24"/>
<path d="M210.343 126.798C214.156 126.798 217.247 123.707 217.247 119.895C217.247 116.082 214.156 112.991 210.343 112.991C206.53 112.991 203.44 116.082 203.44 119.895C203.44 123.707 206.53 126.798 210.343 126.798Z" fill="#ED1C24"/>
<path d="M153.787 41.807C157.599 41.807 160.69 38.7162 160.69 34.9035C160.69 31.0908 157.599 28 153.787 28C149.974 28 146.883 31.0908 146.883 34.9035C146.883 38.7162 149.974 41.807 153.787 41.807Z" fill="#ED1C24"/>
<path fill-rule="evenodd" clip-rule="evenodd" d="M67.7954 227.97V209.856H75.5497L86.1027 222.35V209.968H91.521V227.97H83.2518L73.0943 216.103V227.97H67.7954Z" fill="white"/>
<path d="M101.149 209.715H96.0737V227.97H101.149V209.715Z" fill="white"/>
<path fill-rule="evenodd" clip-rule="evenodd" d="M121.478 221.313H126.524V223.738C126.524 226.246 124.359 228.216 121.844 227.963H111.351C108.724 227.963 106.559 225.992 106.276 223.403V214.275C106.276 211.566 108.642 209.424 111.351 209.715H121.844C124.27 209.715 126.292 211.544 126.553 213.939V216.395H121.478C121.449 215.171 120.426 214.23 119.195 214.283H113.888C112.545 214.223 111.411 215.253 111.351 216.566V221.126C111.411 222.47 112.545 223.462 113.888 223.41H119.195C120.389 223.47 121.419 222.552 121.478 221.328V221.313Z" fill="white"/>
<path fill-rule="evenodd" clip-rule="evenodd" d="M136.748 225.097L135.502 228H130.106L137.577 209.939H145.883L153.563 228H147.749L146.921 225.097H136.748ZM144.846 220.738L141.734 213.059L138.622 220.738H144.846Z" fill="white"/>
<path fill-rule="evenodd" clip-rule="evenodd" d="M162.914 217.536V227.888H157.839V209.633H163.683L172.84 223.865L181.371 209.633H187.125V227.888H182.05V218.104L176.177 227.888H169.557L162.914 217.536Z" fill="white"/>
<path fill-rule="evenodd" clip-rule="evenodd" d="M191.797 227.97V209.491H207.783C210.276 209.491 212.142 211.566 212.56 214.059V219.044C212.56 221.537 210.276 223.821 207.783 223.821H197.193V227.97H191.797ZM197.193 218.835H205.29C208.403 218.835 208.403 214.268 205.29 214.268H197.193V218.835Z" fill="white"/>
<path fill-rule="evenodd" clip-rule="evenodd" d="M45.5625 221.014V209.603H40.4875V223.492C40.4875 225.918 42.4578 227.858 44.8535 227.858H59.0785C61.504 227.858 63.4445 225.918 63.4445 223.492V209.745H58.3695V221.014C58.3695 222.268 57.3395 223.298 56.0857 223.298H47.8463C46.5925 223.298 45.5625 222.268 45.5625 221.014Z" fill="white"/>
<path fill-rule="evenodd" clip-rule="evenodd" d="M194.215 87.1759C191.648 81.1008 188.827 75.1377 185.744 69.294C184.177 66.5251 182.52 63.816 180.781 61.1665L138.599 103.349C139.943 104.976 141.107 106.715 142.047 108.566L194.215 87.1759Z" fill="white"/>
<path fill-rule="evenodd" clip-rule="evenodd" d="M196.029 91.4077C198.566 97.9978 200.88 104.7 202.873 111.491C200.305 113.118 198.477 115.738 197.827 118.738H145.062C144.891 116.716 144.518 114.715 143.891 112.775L196.029 91.4152V91.4077Z" fill="white"/>
</g>
<defs>
<clipPath id="clip0_361_1062">
<rect width="256" height="256" fill="white"/>
</clipPath>
</defs>
</svg>
