<svg width="256" height="256" viewBox="0 0 256 256" fill="none" xmlns="http://www.w3.org/2000/svg">
<g clip-path="url(#clip0_361_1230)">
<rect width="256" height="256" rx="60" fill="white"/>
<g filter="url(#filter0_d_361_1230)">
<path d="M199.22 113.961L195.856 126.597H210.297C211.527 126.597 212.266 126.392 213.209 125.695C214.071 125.038 214.522 124.505 214.809 123.397L215.876 119.295C216.204 118.105 215.753 117.038 214.85 115.931C213.784 114.577 212.553 113.961 211.035 113.961H199.22ZM181.743 105.264H230.522C232.655 105.264 234.173 106.208 235.855 107.931C238.645 110.761 238.563 114.043 237.701 117.366L234.87 128.402C234.255 130.905 233.927 132.505 232.245 134.269C230.071 136.607 227.896 137.305 224.409 137.305H192.984C192.123 141.94 190.646 144.525 187.2 147.274C184.082 149.735 181.702 150.843 177.395 150.843H170.174L181.743 105.264Z" fill="#FFED00"/>
<path d="M132.842 105.264H151.385L143.426 137.017C142.236 141.735 140.349 144.443 136.78 147.602C134.565 149.53 127.673 151.786 121.191 150.432L104.617 126.638L102.032 137.058C100.883 141.694 98.9552 144.484 95.345 147.643C93.1707 149.571 86.2375 151.827 79.7556 150.473L91.4067 105.346H109.95L127.057 127.377L132.842 105.264Z" fill="#FFED00"/>
<path d="M145.806 150.391L157.293 105.264H175.836L167.877 136.976C166.687 141.694 164.8 144.402 161.231 147.561C159.016 149.53 152.288 151.786 145.806 150.391Z" fill="#FFED00"/>
<path d="M45.3768 105.141H25.9311L18.7107 132.669C17.6031 136.853 18.2595 140.546 22.3209 144.484C26.8336 148.874 34.7514 150.638 42.5051 150.638H56.5766C63.6329 150.638 68.0225 149.325 72.5763 144.812C75.366 142.022 76.5967 139.889 77.6223 135.91L85.5811 105.1H65.6431L59.7355 127.336C58.2586 134.351 57.0279 135.91 47.7563 135.91C41.9308 135.91 38.6898 131.11 39.6334 127.336L45.3768 105.141Z" fill="#FFED00"/>
</g>
</g>
<defs>
<filter id="filter0_d_361_1230" x="18.2312" y="105.1" width="229" height="54.7852" filterUnits="userSpaceOnUse" color-interpolation-filters="sRGB">
<feFlood flood-opacity="0" result="BackgroundImageFix"/>
<feColorMatrix in="SourceAlpha" type="matrix" values="0 0 0 0 0 0 0 0 0 0 0 0 0 0 0 0 0 0 127 0" result="hardAlpha"/>
<feOffset dx="5" dy="5"/>
<feGaussianBlur stdDeviation="2"/>
<feComposite in2="hardAlpha" operator="out"/>
<feColorMatrix type="matrix" values="0 0 0 0 0 0 0 0 0 0 0 0 0 0 0 0 0 0 0.25 0"/>
<feBlend mode="normal" in2="BackgroundImageFix" result="effect1_dropShadow_361_1230"/>
<feBlend mode="normal" in="SourceGraphic" in2="effect1_dropShadow_361_1230" result="shape"/>
</filter>
<clipPath id="clip0_361_1230">
<rect width="256" height="256" fill="white"/>
</clipPath>
</defs>
</svg>
