<svg width="256" height="256" viewBox="0 0 256 256" fill="none" xmlns="http://www.w3.org/2000/svg">
<g clip-path="url(#clip0_248_2807)">
<rect width="256" height="256" rx="60" fill="#242938"/>
<path fill-rule="evenodd" clip-rule="evenodd" d="M28 128C28 72.7687 72.7687 28 128 28C183.231 28 228 72.7687 228 128C228 183.231 183.231 228 128 228C72.7687 228 28 183.231 28 128ZM143.769 172.556L153.581 183.594C178.031 172.05 185.7 150.713 187.431 142.4C178.488 151.556 168.6 160.837 161.944 154.412C161.944 154.412 161.581 120.131 161.581 106.069C161.581 87.1562 179.506 73.0687 179.506 73.0687C169.65 74.825 157.806 78.3375 145.244 90.6688C144.109 91.794 143.032 92.9769 142.019 94.2125C136.631 90.0875 129.65 91.3313 129.65 91.3313C133.425 93.4 137.194 99.4375 137.194 104.431V153.525C137.194 153.525 128.969 160.756 122.631 160.756C121.202 160.77 119.79 160.44 118.515 159.795C117.239 159.15 116.137 158.209 115.3 157.05C114.798 156.393 114.382 155.675 114.062 154.912V94.25C112.188 95.8 105.856 97.075 105.856 86.5625C105.856 80.0312 110.569 72.25 118.944 67.475C107.439 69.2292 96.6645 74.1994 87.8625 81.8125C81.1762 87.5922 75.8287 94.7585 72.1914 102.813C68.5541 110.868 66.7144 119.619 66.8 128.456C66.8 128.456 72.9313 109.312 80.6 107.55C81.7176 107.255 82.8888 107.225 84.0199 107.464C85.1509 107.702 86.2106 108.202 87.1142 108.922C88.0179 109.643 88.7404 110.565 89.2241 111.615C89.7078 112.665 89.9393 113.813 89.9 114.969V159.925C89.9 164.481 86.9625 165.475 84.25 165.425C82.4098 165.297 80.591 164.953 78.8313 164.4C84.433 171.985 91.7135 178.172 100.103 182.477C108.493 186.781 117.765 189.086 127.194 189.213L143.769 172.556Z" fill="white"/>
</g>
<defs>
<clipPath id="clip0_248_2807">
<rect width="256" height="256" fill="white"/>
</clipPath>
</defs>
</svg>
