<svg width="256" height="256" viewBox="0 0 256 256" fill="none" xmlns="http://www.w3.org/2000/svg">
<g clip-path="url(#clip0_361_1304)">
<rect width="256" height="256" rx="60" fill="#242938"/>
<path fill-rule="evenodd" clip-rule="evenodd" d="M89.35 152.19C89.35 160.377 82.6723 167.054 74.4861 167.054V173C82.0396 173 88.6756 168.939 92.3225 162.888V152.19H89.35ZM95.2952 152.19C95.2952 160.377 101.974 167.054 110.162 167.054V173C102.604 173 95.9702 168.939 92.3225 162.888V152.19H95.2952ZM166.647 104.603C166.647 96.4158 173.323 89.7392 181.511 89.7392V83.7925C173.956 83.7925 167.319 87.8549 163.674 93.9053V104.603H166.647ZM160.699 104.612H163.674V93.916C160.028 87.8647 153.39 83.8032 145.834 83.8032V89.7482C154.024 89.7482 160.699 96.4265 160.699 104.612ZM160.699 152.183C160.699 160.368 154.024 167.064 145.834 167.064V172.992C157.297 172.992 166.647 163.642 166.647 152.183H160.699ZM232.051 104.614H238C238 93.1526 228.651 83.805 217.186 83.805V89.7482C225.371 89.7482 232.051 96.4265 232.051 104.614ZM23.9458 152.183H18C18 163.642 27.348 172.992 38.8103 172.992V167.046C30.6225 167.046 23.9458 160.368 23.9458 152.183ZM110.166 83.805C99.2722 83.805 89.3315 93.2002 89.35 104.607H95.3006C95.3006 96.1563 102.205 89.7392 110.165 89.7362C110.145 86.9064 110.148 85.9658 110.166 83.805ZM166.647 167.047V172.997H202.323V143.261H238V104.614H232.051V137.315H202.323V104.614H196.376V167.046L166.647 167.047ZM181.511 83.7925L217.186 83.805V89.7544L181.511 89.7392V83.7925ZM166.661 139.053L166.647 152.183H160.699V141.519L125.921 106.686L130.089 102.471L166.661 139.053ZM89.35 117.744L125.921 154.324L130.089 150.11L95.3006 115.277V104.607H89.35V117.744ZM18 83.805H89.35V89.7482H59.621V152.056H53.674V89.7482H23.9458V152.183H18V83.805ZM38.8103 167.046H74.4915V172.997H38.8103V167.046ZM110.162 83.8065L145.838 83.805V89.7544L110.162 89.7362V83.8065ZM110.162 167.054L145.838 167.076V172.993L110.162 172.984L110.162 167.054Z" fill="white"/>
</g>
<defs>
<clipPath id="clip0_361_1304">
<rect width="256" height="256" fill="white"/>
</clipPath>
</defs>
</svg>
