<svg width="256" height="256" viewBox="0 0 256 256" fill="none" xmlns="http://www.w3.org/2000/svg">
<g clip-path="url(#clip0_361_1297)">
<path d="M196 0H60C26.8629 0 0 26.8629 0 60V196C0 229.137 26.8629 256 60 256H196C229.137 256 256 229.137 256 196V60C256 26.8629 229.137 0 196 0Z" fill="white"/>
<path fill-rule="evenodd" clip-rule="evenodd" d="M89.35 151.19C89.35 159.377 82.6723 166.054 74.4861 166.054V172C82.0396 172 88.6756 167.939 92.3225 161.888V151.19H89.35ZM95.2952 151.19C95.2952 159.377 101.974 166.054 110.162 166.054V172C102.604 172 95.9702 167.939 92.3225 161.888V151.19H95.2952ZM166.647 103.603C166.647 95.4158 173.323 88.7392 181.511 88.7392V82.7925C173.956 82.7925 167.319 86.8549 163.674 92.9053V103.603H166.647ZM160.699 103.612H163.674V92.916C160.028 86.8647 153.39 82.8032 145.834 82.8032V88.7482C154.024 88.7482 160.699 95.4265 160.699 103.612ZM160.699 151.183C160.699 159.368 154.024 166.064 145.834 166.064V171.992C157.297 171.992 166.647 162.642 166.647 151.183H160.699ZM232.051 103.614H238C238 92.1526 228.651 82.805 217.186 82.805V88.7482C225.371 88.7482 232.051 95.4265 232.051 103.614ZM23.9458 151.183H18C18 162.642 27.348 171.992 38.8103 171.992V166.046C30.6225 166.046 23.9458 159.368 23.9458 151.183ZM110.166 82.805C99.2722 82.805 89.3315 92.2002 89.35 103.607H95.3006C95.3006 95.1563 102.205 88.7392 110.165 88.7362C110.145 85.9064 110.148 84.9658 110.166 82.805ZM166.647 166.047V171.997H202.323V142.261H238V103.614H232.051V136.315H202.323V103.614H196.376V166.046L166.647 166.047ZM181.511 82.7925L217.186 82.805V88.7544L181.511 88.7392V82.7925ZM166.661 138.053L166.647 151.183H160.699V140.519L125.921 105.686L130.089 101.471L166.661 138.053ZM89.35 116.744L125.921 153.324L130.089 149.11L95.3006 114.277V103.607H89.35V116.744ZM18 82.805H89.35V88.7482H59.621V151.056H53.674V88.7482H23.9458V151.183H18V82.805ZM38.8103 166.046H74.4915V171.997H38.8103V166.046ZM110.162 82.8065L145.838 82.805V88.7544L110.162 88.7362V82.8065ZM110.162 166.054L145.838 166.076V171.993L110.162 171.984L110.162 166.054Z" fill="#1B181A"/>
</g>
<defs>
<clipPath id="clip0_361_1297">
<rect width="256" height="256" fill="white"/>
</clipPath>
</defs>
</svg>
