<svg width="256" height="256" viewBox="0 0 256 256" fill="none" xmlns="http://www.w3.org/2000/svg">
<g clip-path="url(#clip0_248_6338)">
<path d="M196 0H60C26.8629 0 0 26.8629 0 60V196C0 229.137 26.8629 256 60 256H196C229.137 256 256 229.137 256 196V60C256 26.8629 229.137 0 196 0Z" fill="url(#paint0_linear_248_6338)"/>
<path d="M109.015 217.995L105.274 54.0518C94.3814 58.2695 85.8737 64.8695 79.7508 73.8518C73.6963 82.8377 70.6691 94.01 70.6691 107.368C70.6691 110.415 70.8211 112.915 71.1253 114.871C71.501 116.745 71.8786 118.268 72.2579 119.439C72.6372 120.533 72.9788 121.393 73.283 122.017C73.6587 122.642 73.8466 123.189 73.8466 123.659C69.8388 123.659 66.2854 123.269 63.1864 122.489C60.0839 121.628 57.4736 120.299 55.3552 118.503C53.3121 116.71 51.7232 114.327 50.5889 111.355C49.5296 108.391 49 104.72 49 100.343C49 95.0318 50.0951 89.7976 52.2853 84.6411C54.554 79.4882 57.6171 74.6053 61.4746 69.9923C65.4073 65.3865 69.9841 61.1301 75.2049 57.2231C80.5008 53.316 86.135 49.956 92.1075 47.143C98.1552 44.2525 104.431 42.0271 110.937 40.4671C117.518 38.8224 124.061 38 130.566 38C132.306 38 133.894 38.0388 135.333 38.1165C136.843 38.1942 138.353 38.3106 139.864 38.466L141.908 186.119L190.802 39.1647H207.023L142.477 218H109.01L109.015 217.995Z" fill="white"/>
</g>
<defs>
<linearGradient id="paint0_linear_248_6338" x1="128" y1="0" x2="128" y2="256" gradientUnits="userSpaceOnUse">
<stop stop-color="#AD65D6"/>
<stop offset="1" stop-color="#7B37B2"/>
</linearGradient>
<clipPath id="clip0_248_6338">
<rect width="256" height="256" fill="white"/>
</clipPath>
</defs>
</svg>
