<svg width="256" height="256" viewBox="0 0 256 256" fill="none" xmlns="http://www.w3.org/2000/svg">
<g clip-path="url(#clip0_248_6348)">
<rect width="256" height="256" rx="60" fill="white"/>
<path d="M181.125 28H74.875C48.9867 28 28 48.9867 28 74.875V181.125C28 207.013 48.9867 228 74.875 228H181.125C207.013 228 228 207.013 228 181.125V74.875C228 48.9867 207.013 28 181.125 28Z" fill="url(#paint0_linear_248_6348)"/>
<path opacity="0.15" d="M130.333 49.875C124.665 49.875 118.977 50.5949 113.288 52.013C107.684 53.3573 102.272 55.274 97.0583 57.7632C91.9473 60.1662 87.073 63.0736 82.5034 66.445C82.4964 66.4508 82.4894 66.4566 82.4824 66.4623C78.1171 69.6982 74.1127 73.4244 70.543 77.5725C70.5345 77.584 70.5261 77.5955 70.5178 77.6071C67.1972 81.5333 64.4402 85.9323 62.3314 90.6689C62.3244 90.6848 62.3173 90.7006 62.3105 90.7166C60.3152 95.3189 59.2727 100.301 59.25 105.344C59.25 109.298 59.7118 112.811 60.8159 115.899C60.8268 115.93 60.838 115.959 60.8495 115.99C61.9914 118.982 63.7042 121.597 65.9586 123.579C65.978 123.596 65.9977 123.614 66.0173 123.631C68.2844 125.556 71.0048 126.901 74.0274 127.738C74.0595 127.747 74.0916 127.755 74.1239 127.763C77.071 128.505 80.3078 128.856 83.8636 128.856C84.9941 128.856 86.0784 128.393 86.8781 127.567C87.6779 126.742 88.1278 125.623 88.1289 124.455C88.1289 122.824 87.5747 121.697 87.0122 120.769L87.2095 121.133C86.9766 120.608 86.7693 120.071 86.5882 119.524C86.5882 119.52 86.5798 119.524 86.5798 119.516C86.2817 118.512 86.0323 117.495 85.8325 116.467C85.6062 114.69 85.5052 112.898 85.5302 111.107C85.5302 100.847 87.8056 92.6897 92.1969 86.1719C95.5427 81.2672 100.173 77.6636 105.505 74.667L108.405 201.823C108.432 202.973 108.893 204.068 109.69 204.871C110.488 205.675 111.557 206.125 112.671 206.125H140.085C140.954 206.125 141.802 205.852 142.516 205.34C143.231 204.828 143.777 204.104 144.081 203.262L196.952 56.7788C197.192 56.113 197.273 55.3971 197.186 54.6923C197.1 53.9876 196.851 53.3147 196.459 52.7312C196.066 52.1477 195.543 51.6708 194.934 51.3411C194.325 51.0114 193.648 50.8386 192.96 50.8377H179.677C178.789 50.8373 177.923 51.1234 177.2 51.6559C176.477 52.1884 175.932 52.9409 175.643 53.8083L143.531 150.296L142.213 54.6062C142.198 53.5254 141.798 52.4882 141.091 51.6918C140.384 50.8954 139.417 50.3954 138.377 50.287C137.072 50.1523 135.764 50.051 134.455 49.9834H134.447C133.077 49.9116 131.705 49.877 130.333 49.8794V49.875Z" fill="#201C2C"/>
<path opacity="0.3" d="M112.671 201.718L109.606 67.4287C100.684 70.8835 93.7151 76.2897 88.6997 83.6474C83.7404 91.0079 81.2607 100.159 81.2607 111.102C81.2607 113.597 81.3852 115.646 81.6343 117.247C81.9422 118.782 82.2515 120.029 82.5621 120.989C82.8728 121.885 83.1526 122.589 83.4018 123.101C83.7096 123.613 83.8635 124.061 83.8635 124.446C80.5806 124.446 77.6699 124.126 75.1315 123.487C72.5901 122.782 70.4519 121.693 68.7167 120.221C67.0431 118.753 65.7416 116.802 64.8125 114.367C63.9448 111.939 63.511 108.932 63.511 105.347C63.511 100.996 64.408 96.709 66.2021 92.4852C68.0604 88.2643 70.5695 84.2646 73.7293 80.486C76.9506 76.7132 80.6996 73.2267 84.9761 70.0263C89.3141 66.826 93.9292 64.0737 98.8215 61.7696C103.775 59.4018 108.916 57.5789 114.245 56.3011C119.636 54.9539 124.995 54.2803 130.324 54.2803C131.749 54.2803 133.05 54.3121 134.229 54.3757C135.465 54.4393 136.702 54.5347 137.94 54.6619L139.615 175.608L179.665 55.2343H192.951L140.08 201.723H112.667L112.671 201.718Z" fill="#201C2C"/>
<path d="M112.671 197.382L109.606 63.0923C100.684 66.5471 93.7151 71.9533 88.6997 79.311C83.7404 86.6715 81.2607 95.8231 81.2607 106.765C81.2607 109.261 81.3852 111.309 81.6343 112.911C81.9422 114.446 82.2515 115.693 82.5621 116.653C82.8728 117.549 83.1526 118.253 83.4018 118.764C83.7096 119.276 83.8635 119.725 83.8635 120.109C80.5806 120.109 77.6699 119.789 75.1315 119.151C72.5901 118.446 70.4519 117.357 68.7167 115.886C67.0431 114.417 65.7416 112.465 64.8125 110.031C63.9448 107.603 63.511 104.596 63.511 101.011C63.511 96.66 64.408 92.3726 66.2021 88.1488C68.0604 83.9279 70.5695 79.9281 73.7293 76.1496C76.9506 72.3768 80.6996 68.8903 84.9761 65.6899C89.3141 62.4895 93.9292 59.7373 98.8215 57.4331C103.775 55.0654 108.916 53.2425 114.245 51.9647C119.636 50.6175 124.995 49.9438 130.324 49.9438C131.749 49.9438 133.05 49.9756 134.229 50.0393C135.465 50.1029 136.702 50.1983 137.94 50.3256L139.615 171.272L179.665 50.8979H192.951L140.08 197.386H112.667L112.671 197.382Z" fill="white"/>
</g>
<defs>
<linearGradient id="paint0_linear_248_6348" x1="128" y1="28" x2="128" y2="228" gradientUnits="userSpaceOnUse">
<stop stop-color="#AD65D6"/>
<stop offset="1" stop-color="#7B37B2"/>
</linearGradient>
<clipPath id="clip0_248_6348">
<rect width="256" height="256" fill="white"/>
</clipPath>
</defs>
</svg>
