<svg width="256" height="256" viewBox="0 0 256 256" fill="none" xmlns="http://www.w3.org/2000/svg">
<g clip-path="url(#clip0_248_5214)">
<rect width="256" height="256" rx="60" fill="white"/>
<path d="M132.729 40.8911L42.5621 131.227L132.483 221.34L222.896 131.003L132.729 40.8911Z" fill="#019833"/>
<path d="M132.482 221.565L42.3154 131.229L42.562 131.004L132.976 40.4424L223.143 130.779L222.896 131.003L132.482 221.565ZM42.8087 131.229L132.482 221.117L222.65 131.004L132.976 41.1162L42.8087 131.229Z" fill="black"/>
<path d="M132.483 41.1144V33.249L34.1633 131.676H42.5622L132.483 41.1144Z" fill="#66FE98"/>
<path d="M42.562 131.677H33.6682L33.9148 131.453L132.481 32.8013V41.1164L42.5604 131.678L42.562 131.677ZM34.6564 131.453H42.3138L132.234 41.1164V33.7008L34.6564 131.453Z" fill="black"/>
<path d="M132.234 41.1144V33.249L230.554 131.676H222.155L132.234 41.1144Z" fill="#45FE02"/>
<path d="M230.802 131.676H221.908L131.988 41.34V33.0249L132.234 33.249L230.802 131.676ZM222.156 131.452H229.814L132.482 33.6988V41.1143L222.156 131.452Z" fill="black"/>
<path d="M132.483 221.789V229.654L34.1633 131.453H42.5622L132.483 221.789Z" fill="#017D17"/>
<path d="M132.482 230.104L132.236 229.88L33.6697 131.228H42.5635L132.484 221.79V230.105L132.482 230.104ZM34.6563 131.452L132.234 229.206V221.79L42.3137 131.454L34.6563 131.452Z" fill="black"/>
<path d="M82.8286 211.002H63.8076L56.3968 206.732V65.8325H50.4676L45.5266 60.8883V45.3833L50.7142 39.7651H117.166L123.095 45.833V60.4401L118.154 66.508H113.213V113.25L160.397 66.508H157.679L152.245 60.6658V45.1608L157.679 40.2165H224.626L229.814 45.6106V60.2176L82.8286 211.002ZM65.784 203.811H79.8656L222.898 57.0693V48.306L221.91 47.1823H160.399L159.411 48.0819V57.5206L160.892 59.094H177.937L106.051 130.105V59.094H114.945L116.179 57.7463V48.7573L114.45 46.9599H53.9255L52.6907 48.3076V57.9704L53.4322 58.8699H63.8076V202.465L65.784 203.811Z" fill="black"/>
<path d="M132.234 221.789V229.654L230.554 131.227H222.155L132.234 221.789Z" fill="#005D04"/>
<path d="M131.988 230.104V221.789L221.908 131.227H230.802L230.555 131.451L131.988 230.104ZM132.481 221.789V229.204L230.059 131.451H222.401L132.481 221.789Z" fill="black"/>
<path d="M131.741 231.002L31.9399 131.227L131.989 31.002L231.79 130.777L131.741 231.002ZM35.1512 131.227L131.741 228.081L228.825 131.003L132.236 34.1487L35.1512 131.227Z" fill="black"/>
<path d="M116.425 49.2059L119.882 47.4084L116.176 43.8135H52.4409L49.2297 46.9603V59.3201L52.9359 62.9151L54.6656 59.3201L52.4426 57.0729V48.3096L54.1723 46.7362H115.19L116.425 49.2059Z" fill="#FEFEFE"/>
<path d="M52.9373 63.1373L48.9845 59.3167V46.9568L52.4424 43.5859H116.424L120.377 47.4066L116.424 49.4297L114.943 46.9584H53.9255L52.444 48.3061V56.8453L54.6671 59.0926L52.9373 63.1373ZM49.4794 59.0926L52.9373 62.4634L54.4188 59.3167L52.1958 57.0694V48.3061L53.9255 46.7327H114.943L116.424 49.2041L119.636 47.4066L116.178 44.0357H52.4424L49.2311 47.1825V59.0926H49.4794Z" fill="black"/>
<path d="M78.381 204.934H66.2758L64.2994 202.911V59.3166H53.9241L51.701 57.2934V48.5301L53.6774 46.5069H114.201L116.425 48.3044V56.8436L113.955 59.315H102.591V136.618L171.266 66.9546V59.315H160.891L158.914 57.2918V48.7526L161.384 46.2812H220.92L223.39 48.7526V55.4943L78.381 204.933V204.934ZM66.5241 204.71H78.381L222.896 55.2718V48.7542L220.673 46.5069H161.632L159.409 48.7542V56.8436L161.386 58.6411H172.008V66.9562L102.591 137.519V58.8668H114.201L116.425 56.6195V48.3044L114.448 46.731H53.9241L51.9476 48.5285V56.8436L53.9241 58.6411H64.5461V202.462L66.5225 204.709L66.5241 204.71Z" fill="black"/>
<path d="M64.3011 58.8687V202.689L66.2775 204.712L64.796 207.409L60.5966 203.365V62.6909L64.3011 58.8687Z" fill="#FEFEFE"/>
<path d="M64.7943 208.081L60.3482 203.811V62.6873L64.5477 58.6426V202.913L66.5241 205.16L64.7943 208.081ZM60.8415 203.587L64.7943 207.407L66.0292 204.936L64.2994 202.913V59.318L60.8415 62.6889V203.587Z" fill="black"/>
<path d="M54.1722 58.8687L53.184 62.2395H60.8414L65.0408 58.8687H54.1722Z" fill="#808080"/>
<path d="M60.8416 62.6878H52.936L54.1708 58.8672H65.7811L60.8416 62.6878ZM53.1842 62.2381H60.595L64.3012 59.0913H53.9258L53.1842 62.2381Z" fill="black"/>
<path d="M160.149 62.9135L161.879 59.3185L159.409 57.0713V49.4316L162.127 46.5105H220.922L223.145 49.4316L226.356 47.1843L223.145 43.8135H159.904L156.693 46.9603V59.3201L160.151 62.9151M108.767 122.016L102.591 136.847L172.008 67.1839V58.8687L108.767 122.016Z" fill="#FEFEFE"/>
<path d="M102.838 137.295L102.591 137.071L108.767 122.014L172.254 58.6428V67.4061L102.838 137.295ZM109.014 122.238L103.333 136.395L172.008 67.4061V59.5407L109.014 122.238ZM160.149 62.9116L159.903 62.6875L156.691 59.5407V46.9568L159.903 43.5859H223.39L226.848 47.4066L223.39 49.8779L221.167 46.7311H162.126L159.408 49.4281V57.0678L161.877 59.315L160.148 62.91L160.149 62.9116ZM156.938 59.5407L160.149 62.4618L161.631 59.315L159.161 57.0678V49.2024L162.126 46.2813H221.167L223.39 49.2024L226.354 47.1793L223.143 44.0325H159.903L156.938 47.1793V59.5407Z" fill="black"/>
<path d="M116.178 48.7556L119.143 46.7324V58.8666L115.685 62.4615H108.767V122.238L102.591 137.069V58.8666H113.955L116.178 57.0691V48.754V48.7556Z" fill="#808080"/>
<path d="M102.838 137.07H102.591V58.8682H114.202L116.178 57.2948V48.9797L119.636 46.7324V59.3163L115.93 62.9113H109.261V122.462L102.838 137.07ZM102.838 59.0923V136.171L108.767 122.238V62.2374H115.685L119.143 58.8666V47.1806L116.425 48.9781V57.2932L114.202 59.0907L102.838 59.0923Z" fill="black"/>
<path d="M161.632 46.5088L159.409 48.756V57.0712L161.386 59.0943H171.761V67.1838L102.591 137.071V59.0927H113.955L116.425 56.8455V48.5303L114.202 46.9569H53.9257L51.9493 48.9801V57.5193L53.9257 59.5425H64.5477V203.137L66.5241 205.16H78.381L223.143 55.7219V49.2042L220.92 46.9569H161.632V46.5088Z" fill="#CCCCCC"/>
<path d="M78.381 204.934H66.2758L64.2994 202.911V59.3166H53.9241L51.701 57.2934V48.5301L53.6774 46.5069H114.201L116.425 48.3044V56.8436L113.955 59.315H102.591V136.618L171.266 66.9546V59.315H160.891L158.914 57.2918V48.7526L161.384 46.2812H220.92L223.39 48.7526V55.4943L78.381 204.933V204.934ZM66.5241 204.71H78.381L222.896 55.2718V48.7542L220.673 46.5069H161.632L159.409 48.7542V56.8436L161.386 58.6411H172.008V66.9562L102.591 137.519V58.8668H114.201L116.425 56.6195V48.3044L114.448 46.731H53.9241L51.9476 48.5285V56.8436L53.9241 58.6411H64.5461V202.462L66.5225 204.709L66.5241 204.71Z" fill="black"/>
<path d="M223.391 48.9801L226.602 47.1826V58.6429L80.8522 207.856H65.2891L66.7706 204.935H78.6275L223.143 55.4961L223.389 48.9785L223.391 48.9801Z" fill="#808080"/>
<path d="M80.8525 208.081H65.0428L66.7726 204.71H78.6294L222.896 55.4974L223.143 48.9797L226.601 46.9565V59.0907L80.8525 208.081ZM65.5361 207.631H80.6058L226.356 58.6425V47.4063L223.391 48.9797L223.145 55.4974L78.6294 205.16H66.7726L65.5361 207.631Z" fill="black"/>
<path d="M171.761 59.0923L168.55 62.4632H160.151L162.127 59.0923H171.761Z" fill="#808080"/>
<path d="M168.55 62.6878H159.656L161.879 58.8672H172.254L168.55 62.6878ZM160.397 62.4637H168.55L171.514 59.317H162.374L160.397 62.4637Z" fill="black"/>
<path d="M137.175 143.137C137.175 143.137 136.928 143.137 136.928 143.361L134.21 145.833L133.964 146.057L131.246 153.922C131.246 154.146 131.246 154.372 131.493 154.596L133.716 156.843C133.962 157.067 133.962 157.067 134.209 157.067H142.854C143.101 157.067 143.101 157.067 143.348 156.843L145.571 154.596L145.818 154.372L148.287 146.057C148.287 145.833 148.287 145.607 148.041 145.383L146.064 143.585C145.818 143.361 145.818 143.361 145.571 143.361H137.172V143.137H137.175ZM121.117 165.384C120.871 165.384 120.624 165.608 120.624 165.834L119.636 170.104C119.636 170.554 119.882 170.778 120.129 171.004H125.563L112.965 206.958C112.965 207.408 112.965 207.632 113.458 207.858H131.986C132.232 207.858 132.479 207.633 132.727 207.408L133.962 203.587C133.962 203.137 133.962 202.913 133.469 202.688H129.023L141.621 166.284C141.621 165.834 141.621 165.61 141.128 165.384H121.117ZM179.665 165.608C179.418 165.608 179.418 165.608 179.418 165.832L175.712 170.103H169.536L165.583 165.832C165.583 165.608 165.337 165.608 165.09 165.608H150.268C150.022 165.608 149.775 165.832 149.775 166.058L148.54 170.103C148.54 170.552 148.54 170.776 149.034 171.002H153.233L141.128 206.732C141.128 207.182 141.128 207.406 141.621 207.632H157.431C157.678 207.632 157.924 207.408 157.924 207.182L159.159 203.811C159.159 203.361 159.159 203.137 158.666 202.912H155.701L163.359 178.642H177.192L168.298 206.956C168.298 207.406 168.298 207.63 168.791 207.856H183.859C184.106 207.856 184.353 207.632 184.353 207.406L185.588 204.259C185.834 204.035 185.588 203.586 185.341 203.36H182.376L190.282 178.64H203.622L194.728 206.955C194.728 207.405 194.728 207.629 195.221 207.854H211.773C212.019 207.854 212.266 207.63 212.266 207.405L213.501 204.034C213.501 203.584 213.501 203.36 213.008 203.134H209.55L219.432 170.999V170.325L216.467 166.28C216.22 166.056 216.22 166.056 215.974 166.056H204.364C204.117 166.056 204.117 166.056 203.87 166.28L200.164 170.325H193.742L190.035 166.055C189.789 165.831 189.789 165.831 189.542 165.831H179.66V165.606L179.665 165.608Z" fill="#CCCCCC"/>
<path d="M131.741 209.429H113.46C113.213 209.429 112.966 209.429 112.718 209.205C111.483 208.755 110.988 207.632 111.237 206.508L123.094 172.575H119.636C118.401 172.351 117.659 171.002 118.154 169.878L119.142 165.608C119.389 164.708 119.884 164.26 120.872 164.034H140.635C140.881 164.034 141.128 164.034 141.376 164.258C142.611 164.708 143.106 165.832 142.858 166.955L131.001 201.338H133.719C134.954 201.788 135.449 202.911 135.2 204.035L133.965 207.856C133.472 208.755 132.729 209.429 131.741 209.429ZM125.318 169.428H127.541L114.696 206.282H131.248L131.989 204.259H126.801L139.646 166.955H122.354L121.612 169.427L125.318 169.428ZM211.533 208.979H194.486C193.251 208.529 192.757 207.406 193.005 206.282L201.404 179.991H191.275L184.358 201.564H184.851C185.098 201.564 185.344 201.564 185.592 201.788C186.827 202.237 187.322 203.585 186.827 204.709L185.592 207.856C185.346 208.755 184.358 209.203 183.616 209.203H168.053C166.818 208.754 166.323 207.63 166.572 206.506L174.97 179.989H164.1L157.431 201.112H157.924C158.171 201.112 158.418 201.112 158.666 201.336C159.901 201.786 160.396 202.91 160.147 204.033L158.912 207.628C158.666 208.528 157.678 208.976 156.936 209.202H141.373C141.126 209.202 140.88 209.202 140.631 208.978C139.397 208.528 138.902 207.404 139.15 206.281L150.514 172.572H148.784C148.537 172.572 148.29 172.572 148.042 172.348C146.807 171.898 146.312 170.774 146.561 169.651L147.796 165.606C148.042 164.707 149.03 164.033 149.772 164.033H164.347C164.84 164.033 165.582 164.257 165.828 164.707L169.535 168.527H174.229L177.687 164.707C177.933 164.257 178.428 164.033 178.922 164.033H188.802C189.295 164.033 190.037 164.257 190.284 164.707L193.742 168.302H198.929L202.141 164.707C202.635 164.257 203.129 164.033 203.622 164.033H215.232C215.974 164.033 216.467 164.257 216.962 164.932L219.927 168.977C220.42 169.427 220.42 170.325 220.173 171L211.033 201.112H212.268C212.514 201.112 212.761 201.112 213.009 201.336C214.244 201.786 214.739 202.91 214.244 204.033L213.009 207.628C213.256 208.302 212.516 208.976 211.528 208.976L211.533 208.979ZM152.985 169.428H155.208L142.856 205.832H156.443L156.936 204.035H153.478L162.124 176.62H179.168L170.028 205.834H183.121L183.614 204.486H180.157L189.05 176.846H205.602L196.461 206.06H211.036L211.778 204.262H207.825L218.2 170.554L215.73 167.183H204.86L200.907 171.453H193.002L189.049 166.959H180.403L176.45 171.453H169.04L164.84 166.959H151.253L150.512 169.206H152.982L152.985 169.428ZM142.363 158.418H133.717C133.224 158.418 132.482 158.194 132.236 157.744L130.013 155.497C129.519 154.823 129.271 153.923 129.519 153.249L132.237 145.384C132.237 144.934 132.484 144.71 132.731 144.485L135.449 142.013C135.695 141.789 135.942 141.563 136.437 141.563H144.836C145.33 141.563 145.824 141.788 146.317 142.237L148.294 144.035C148.787 144.485 149.035 145.383 148.787 146.282L146.317 154.597C146.317 155.047 146.071 155.271 145.824 155.497L143.601 157.744C143.601 158.194 142.859 158.418 142.366 158.418H142.363ZM132.729 153.923L134.211 155.497H142.116L143.846 153.699L146.069 146.06L144.834 144.936H137.423L134.954 146.959L132.731 153.925L132.729 153.923Z" fill="black"/>
<path d="M137.175 143.812L134.457 146.284L131.739 154.149L133.962 156.396H142.608L144.831 154.149L147.301 145.834L145.324 144.037H137.172L137.175 143.812ZM121.366 166.059L120.377 170.33H126.307L113.462 207.184H131.743L132.977 203.363H128.036L140.881 166.059H121.366ZM179.665 166.059L175.712 170.554H169.043L164.844 166.059H150.269L149.034 170.104H153.728L141.376 206.508H156.939L158.174 203.137H154.468L162.62 177.744H177.937L168.796 206.732H183.618L184.853 203.585H181.147L189.299 177.518H203.874L194.733 206.732H211.038L212.273 203.361H208.073L218.202 170.552L215.237 166.507H203.627L199.674 170.778H192.51L188.557 166.283H179.663L179.665 166.059Z" fill="#CCCCCC"/>
</g>
<defs>
<clipPath id="clip0_248_5214">
<rect width="256" height="256" fill="white"/>
</clipPath>
</defs>
</svg>
