<svg width="256" height="256" viewBox="0 0 256 256" fill="none" xmlns="http://www.w3.org/2000/svg">
<g clip-path="url(#clip0_248_5176)">
<path d="M196 0H60C26.8629 0 0 26.8629 0 60V196C0 229.137 26.8629 256 60 256H196C229.137 256 256 229.137 256 196V60C256 26.8629 229.137 0 196 0Z" fill="#019833"/>
<path d="M233 134.883H232.775L196.792 98.9L232.65 62.1167V47.175L227.242 41.775H158.925L153.425 46.8167V55.525L133.125 35.225V35L133 35.1167L132.883 35V35.225L122.133 45.9833L117.65 41.4917H49.9583L44.6417 47.2583V62.9667L49.775 68.1H55.775V112.35L33.225 134.892H33L33.1167 135L33 135.117H33.225L55.775 157.667V211.558L63.3333 215.917H82.6833L98.1583 200.05L132.875 234.767V235L133 234.883L133.117 235V234.767L154.033 213.858H158.075C159 213.858 159.833 213.275 160.158 212.367L161.375 208.817C161.489 208.485 161.52 208.13 161.466 207.783C161.413 207.436 161.276 207.107 161.067 206.825L173.25 194.642L168.15 210.992C168.046 211.324 168.022 211.675 168.08 212.018C168.139 212.361 168.277 212.686 168.484 212.965C168.691 213.245 168.961 213.471 169.272 213.626C169.584 213.782 169.927 213.861 170.275 213.858H185.475C185.907 213.85 186.328 213.718 186.687 213.477C187.047 213.236 187.329 212.897 187.5 212.5L188.875 209.217C189.002 208.88 189.046 208.518 189.004 208.161C188.961 207.803 188.834 207.461 188.632 207.163C188.431 206.866 188.161 206.62 187.845 206.448C187.529 206.276 187.176 206.183 186.817 206.175H186.192L193.192 184.142H203.458L194.992 210.983C194.89 211.315 194.867 211.666 194.926 212.009C194.985 212.351 195.123 212.674 195.33 212.953C195.537 213.232 195.806 213.459 196.117 213.615C196.427 213.77 196.769 213.851 197.117 213.85H213.8C214.717 213.85 215.525 213.3 215.867 212.433L217.233 208.867C217.357 208.532 217.397 208.172 217.352 207.819C217.307 207.465 217.177 207.127 216.973 206.834C216.77 206.541 216.498 206.302 216.182 206.137C215.866 205.971 215.515 205.884 215.158 205.883H213.95L223.375 175.275C223.488 174.94 223.517 174.583 223.461 174.235C223.404 173.886 223.263 173.557 223.05 173.275L219.925 169.075L219.9 169.033C219.691 168.771 219.427 168.558 219.125 168.411C218.824 168.264 218.494 168.186 218.158 168.183H206.192C205.595 168.19 205.026 168.432 204.608 168.858L201.275 172.517H196.075L195.725 172.133L232.767 135.092H233L232.883 135L233 134.883ZM114.983 211.158L128.142 173.583H123.967L126.442 171.05H140.267L127.242 209.008H132.433L131.775 211.158H114.983ZM145.775 148.525L147.025 149.783L144.783 157.467L142.908 159.35H134.833L133.325 157.842L135.917 150.583L138.317 148.525H145.775ZM79.5833 208.575H65.3083L63.125 207.325V60.7583H52.825L51.9917 59.925V50.125L53.1833 48.8417H114.608L116.383 50.625V59.8583L115.2 61.3H106.208V133.7L179.6 61.3H162.217L160.758 59.7333V50.0417L161.767 49.1167H224.183L225.283 50.225V59.1417L141.158 145.417H138.05C137.928 145.411 137.811 145.414 137.7 145.425L137.533 145.45C137.165 145.528 136.823 145.7 136.542 145.95L133.683 148.408L133.65 148.433C133.381 148.692 133.173 149.008 133.042 149.358L130.575 156.275L79.5833 208.575ZM202.65 175.642L206.6 171.317H217.717L220.292 174.775L209.75 209H213.858L213.192 210.742H198.333L207.7 181.042H190.908L181.933 209.3H185.467L184.858 210.75H171.483L180.708 181.183H163.242L154.392 209.008H158.025L157.425 210.75H143.583L156.2 173.583H151.317L152.075 171.325H165.825L170.15 175.8H177.7L181.792 171.183H190.633L194.708 175.642H202.65Z" fill="white"/>
</g>
<defs>
<clipPath id="clip0_248_5176">
<rect width="256" height="256" fill="white"/>
</clipPath>
</defs>
</svg>
