<svg width="256" height="256" viewBox="0 0 256 256" fill="none" xmlns="http://www.w3.org/2000/svg">
<g clip-path="url(#clip0_248_5250)">
<path d="M196 0H60C26.8629 0 0 26.8629 0 60V196C0 229.137 26.8629 256 60 256H196C229.137 256 256 229.137 256 196V60C256 26.8629 229.137 0 196 0Z" fill="#5E438F"/>
<path d="M175.102 28.3477C174.807 28.3747 174.514 28.4123 174.222 28.4602C173.738 28.4461 173.254 28.4602 172.772 28.5023C172.254 28.582 171.741 28.6942 171.237 28.8383C170.948 28.8657 170.66 28.9033 170.373 28.9508C169.934 29.1279 169.505 29.3297 169.089 29.5555C168.832 29.6662 168.579 29.7855 168.33 29.9133C167.295 30.4636 166.342 31.1569 165.5 31.9727L99.0719 105.42L60.2906 73.6383L56.8969 70.7242C56.4891 70.445 56.0572 70.2029 55.6062 70.0008C55.3375 69.8276 55.0583 69.671 54.7703 69.532C54.4637 69.3936 54.1485 69.2751 53.8266 69.1773C53.4967 69.0771 53.1605 68.9988 52.8203 68.943C52.5584 68.9209 52.2956 68.912 52.0328 68.9164C51.7694 68.8642 51.5034 68.8256 51.2359 68.8008C51.0966 68.8282 50.958 68.8595 50.8203 68.8945C50.7089 68.8906 50.5974 68.889 50.4859 68.8898C50.367 68.9183 50.2487 68.9496 50.1312 68.9836C49.8792 68.9745 49.6268 68.9776 49.375 68.993C48.9941 69.077 48.6237 69.2028 48.2703 69.368L33.1234 75.7227C32.283 76.0873 31.509 76.5889 30.8328 77.207C30.7183 77.2961 30.6063 77.3883 30.4969 77.4836C30.3708 77.6414 30.2509 77.804 30.1375 77.9711C29.7579 78.3939 29.4228 78.8547 29.1375 79.3461C28.985 79.5862 28.8457 79.8345 28.7203 80.0898C28.6693 80.2317 28.6224 80.375 28.5797 80.5195C28.4172 80.9808 28.2959 81.4556 28.2172 81.9383C28.1305 82.203 28.058 82.4721 28 82.7445L28 172.87C28.0582 173.14 28.1307 173.407 28.2172 173.67C28.2953 174.155 28.4167 174.633 28.5797 175.098C28.6225 175.24 28.6694 175.381 28.7203 175.521C28.8462 175.777 28.986 176.026 29.1391 176.266C29.4234 176.757 29.7575 177.217 30.1359 177.64C30.2494 177.807 30.3693 177.97 30.4953 178.127C30.6052 178.223 30.7177 178.316 30.8328 178.405C31.5091 179.023 32.2832 179.524 33.1234 179.888L48.2703 186.241C49.1257 186.582 50.0319 186.777 50.9516 186.82C51.2173 186.828 51.4833 186.823 51.7484 186.804C52.421 186.782 53.0885 186.678 53.7359 186.495C54.0057 186.429 54.2717 186.348 54.5328 186.254C55.3909 185.933 56.1897 185.472 56.8969 184.89L60.2906 181.973L99.0719 150.191L165.5 223.638C166.378 224.503 167.38 225.234 168.472 225.805C168.781 225.938 169.096 226.058 169.416 226.165L169.425 226.168C170.098 226.499 170.8 226.769 171.522 226.974L171.9 226.995C172.705 227.12 173.52 227.166 174.334 227.132C174.849 227.171 175.366 227.179 175.881 227.154C177.208 226.995 178.5 226.624 179.709 226.055L220.917 206.243C221.221 206.096 221.52 205.936 221.811 205.765L222.077 205.599C222.28 205.475 222.479 205.344 222.675 205.209L222.958 204.998C223.133 204.868 223.305 204.733 223.473 204.595C223.581 204.506 223.687 204.416 223.792 204.324C223.94 204.192 224.084 204.057 224.225 203.918C224.326 203.821 224.425 203.722 224.522 203.621C224.674 203.461 224.821 203.298 224.964 203.13L225.189 202.871C225.333 202.692 225.471 202.508 225.605 202.321L225.827 202.02C226.009 201.75 226.181 201.474 226.342 201.191L226.483 200.926C226.592 200.728 226.697 200.526 226.795 200.323C226.856 200.19 226.915 200.057 226.972 199.923C227.056 199.727 227.135 199.53 227.209 199.33L227.328 198.995C227.393 198.805 227.454 198.614 227.509 198.421C227.555 198.264 227.598 198.105 227.637 197.946C227.679 197.769 227.716 197.591 227.75 197.412C227.78 197.27 227.808 197.127 227.833 196.984C227.868 196.76 227.897 196.535 227.92 196.31L227.955 196.029L227.958 195.993C227.986 195.654 228 195.313 228 194.973V60.6414C228 60.2998 227.986 59.9584 227.958 59.618L227.93 59.3711C227.904 59.1055 227.869 58.8408 227.827 58.5773L227.773 58.3117C227.731 58.0796 227.681 57.8488 227.625 57.6195C227.589 57.4793 227.551 57.3397 227.511 57.2008C227.461 57.0278 227.407 56.8559 227.35 56.6852C227.3 56.5305 227.247 56.3768 227.191 56.2242C227.121 56.0428 227.047 55.8631 226.969 55.6852C226.919 55.563 226.867 55.4416 226.812 55.3211C226.71 55.1076 226.601 54.8971 226.486 54.6898L226.325 54.3852C226.163 54.1035 225.99 53.8283 225.806 53.5602L225.641 53.3414C225.502 53.1446 225.358 52.9518 225.208 52.7633C225.112 52.649 225.014 52.5365 224.914 52.4258C224.789 52.2801 224.661 52.1374 224.53 51.9977C224.431 51.8954 224.33 51.7949 224.228 51.6961C224.086 51.5562 223.94 51.4197 223.791 51.2867C223.687 51.1943 223.582 51.1037 223.475 51.0148C223.307 50.8765 223.135 50.7426 222.959 50.6133L222.675 50.4023C222.479 50.2665 222.28 50.1362 222.077 50.0117L221.811 49.8461C221.52 49.6747 221.221 49.5152 220.917 49.368L179.709 29.5539C178.552 29.0016 177.317 28.6306 176.047 28.4539C175.869 28.4511 175.691 28.4522 175.512 28.457C175.376 28.4182 175.239 28.3818 175.102 28.3477ZM178 85.4727V170.138L126.355 127.807L178 85.4727ZM53 99.2539L78.8234 127.807L53 156.359V99.257V99.2539Z" fill="white"/>
</g>
<defs>
<clipPath id="clip0_248_5250">
<rect width="256" height="256" fill="white"/>
</clipPath>
</defs>
</svg>
