<svg width="256" height="256" viewBox="0 0 256 256" fill="none" xmlns="http://www.w3.org/2000/svg">
<g clip-path="url(#clip0_248_5264)">
<rect width="256" height="256" rx="60" fill="white"/>
<path d="M64.6656 197.166L31.3344 172.166C30.2952 171.394 29.4519 170.389 28.8727 169.23C28.2935 168.072 27.9946 166.795 28.0001 165.5V90.5006C27.9946 89.2059 28.2935 87.9281 28.8727 86.7703C29.4519 85.6124 30.2952 84.607 31.3344 83.835L64.6656 58.835C63.7702 59.6757 63.0936 60.7223 62.6944 61.884C62.2952 63.0456 62.1856 64.2871 62.375 65.5006V190.5C62.1856 191.714 62.2952 192.955 62.6944 194.117C63.0936 195.278 63.7702 196.325 64.6656 197.166Z" fill="white"/>
<path d="M224.29 62.7093C222.917 61.8073 221.308 61.3291 219.665 61.3344C218.601 61.3258 217.544 61.5273 216.558 61.9274C215.571 62.3274 214.673 62.9181 213.915 63.6656L213.334 64.25L146.834 128L110.04 163.291L75.9999 195.915L75.4156 196.5C74.6583 197.248 73.7603 197.84 72.7735 198.241C71.7867 198.641 70.7305 198.843 69.6656 198.834C67.8628 198.83 66.1092 198.246 64.6656 197.165L31.3344 172.166C33.0279 173.437 35.1424 174.016 37.2476 173.784C39.3528 173.552 41.2902 172.526 42.6656 170.915L79.6656 127.959L110.04 92.7093L163.25 30.9156C164.022 30.0005 164.985 29.2654 166.072 28.7617C167.159 28.2581 168.343 27.9981 169.541 28C171.184 27.9947 172.792 28.4729 174.165 29.375L224.29 62.7093Z" fill="white"/>
<path d="M224.29 193.29L174.291 226.624C172.589 227.735 170.545 228.195 168.532 227.92C166.52 227.644 164.674 226.651 163.334 225.125L110.04 163.291L79.6656 127.959L42.6656 85.0402C41.278 83.4459 39.3387 82.4355 37.2369 82.2118C35.1352 81.988 33.0266 82.5676 31.3344 83.8341L64.6656 58.8341C66.1092 57.7542 67.8628 57.1689 69.6656 57.1653C70.7305 57.1563 71.7867 57.3579 72.7735 57.7585C73.7603 58.1592 74.6583 58.7509 75.4156 59.4997L75.9999 60.084L110.04 92.7091L146.834 128L213.334 191.75L213.915 192.334C214.673 193.082 215.571 193.672 216.558 194.072C217.544 194.472 218.601 194.674 219.665 194.665C221.308 194.671 222.917 194.193 224.29 193.29Z" fill="white"/>
<path d="M228 69.6655V186.334C228.001 187.709 227.663 189.064 227.016 190.276C226.369 191.49 225.433 192.525 224.29 193.29L174.291 226.624C175.433 225.859 176.369 224.823 177.017 223.609C177.663 222.395 178 221.041 177.999 219.665V36.3343C177.981 34.9486 177.622 33.5889 176.953 32.3751C176.284 31.1613 175.327 30.1309 174.165 29.375L224.29 62.7093C225.429 63.4774 226.364 64.5131 227.011 65.7258C227.658 66.9385 227.997 68.2911 228 69.6655Z" fill="white"/>
<path d="M64.6656 197.165L31.3344 172.166C30.2952 171.394 29.4519 170.387 28.8727 169.23C28.2935 168.072 27.9946 166.794 28.0001 165.5V90.4997C27.9946 89.205 28.2935 87.9271 28.8727 86.7694C29.4519 85.6115 30.2952 84.606 31.3344 83.834L64.6656 58.834C63.7702 59.6748 63.0936 60.7214 62.6944 61.883C62.2952 63.0447 62.1856 64.2861 62.375 65.4997V190.5C62.1856 191.714 62.2952 192.955 62.6944 194.117C63.0936 195.278 63.7702 196.324 64.6656 197.165Z" fill="#5E438F"/>
<path d="M224.289 62.7093C222.917 61.8073 221.308 61.3291 219.665 61.3344C218.601 61.3258 217.544 61.5273 216.557 61.9274C215.571 62.3274 214.673 62.9181 213.915 63.6656L213.334 64.25L177.914 98.2093L146.834 128L110.04 163.291L75.9992 195.915L75.415 196.5C74.6576 197.248 73.7597 197.84 72.773 198.241C71.7861 198.641 70.7299 198.843 69.6649 198.834C67.8621 198.83 66.1086 198.246 64.6649 197.165L31.3337 172.166C33.0271 173.437 35.1417 174.016 37.2469 173.784C39.3521 173.552 41.2896 172.526 42.665 170.915L61.3337 149.25L79.6649 127.959L110.04 92.7093L163.249 30.9156C164.022 30.0005 164.985 29.2654 166.072 28.7617C167.158 28.2581 168.343 27.9981 169.539 28C171.183 27.9947 172.791 28.4729 174.165 29.375L224.289 62.7093Z" fill="url(#paint0_linear_248_5264)"/>
<path d="M224.289 193.29L174.29 226.625C172.589 227.736 170.545 228.195 168.532 227.92C166.519 227.644 164.674 226.652 163.334 225.125L110.04 163.291L79.6649 127.959L61.3337 106.709L42.665 85.0402C41.2773 83.4459 39.3379 82.4355 37.2362 82.2117C35.1346 81.9879 33.0259 82.5676 31.3337 83.8339L64.6649 58.834C66.1086 57.7541 67.8621 57.1688 69.6649 57.1653C70.7299 57.1563 71.7861 57.3579 72.773 57.7585C73.7597 58.1591 74.6576 58.7509 75.415 59.4997L75.9992 60.084L110.04 92.7089L146.834 128L177.958 157.835L213.334 191.75L213.915 192.335C214.673 193.082 215.571 193.672 216.557 194.072C217.544 194.472 218.601 194.674 219.665 194.665C221.308 194.671 222.917 194.192 224.289 193.29Z" fill="url(#paint1_linear_248_5264)"/>
<path d="M228 69.6655V186.333C228.001 187.709 227.663 189.063 227.016 190.277C226.369 191.489 225.433 192.525 224.29 193.29L174.29 226.624C175.433 225.859 176.369 224.823 177.015 223.609C177.663 222.395 178 221.041 177.999 219.665V36.3343C177.981 34.9487 177.622 33.5888 176.953 32.375C176.284 31.1612 175.327 30.1309 174.165 29.375L224.29 62.7092C225.429 63.4773 226.363 64.5131 227.011 65.7258C227.657 66.9385 227.997 68.2912 228 69.6655Z" fill="url(#paint2_linear_248_5264)"/>
</g>
<defs>
<linearGradient id="paint0_linear_248_5264" x1="190.499" y1="28.0001" x2="41.9892" y2="177.471" gradientUnits="userSpaceOnUse">
<stop stop-color="#7252AA"/>
<stop offset="1" stop-color="#7252AA"/>
</linearGradient>
<linearGradient id="paint1_linear_248_5264" x1="46.75" y1="64.4566" x2="186.332" y2="220.705" gradientUnits="userSpaceOnUse">
<stop stop-color="#AE7FE2"/>
<stop offset="1" stop-color="#9A70D4"/>
</linearGradient>
<linearGradient id="paint2_linear_248_5264" x1="200.49" y1="25.353" x2="200.49" y2="226.456" gradientUnits="userSpaceOnUse">
<stop stop-color="#D59DFF"/>
<stop offset="1" stop-color="#C18EF1"/>
</linearGradient>
<clipPath id="clip0_248_5264">
<rect width="256" height="256" fill="white"/>
</clipPath>
</defs>
</svg>
