<svg width="256" height="256" viewBox="0 0 256 256" fill="none" xmlns="http://www.w3.org/2000/svg">
<g clip-path="url(#clip0_355_245)">
<path d="M196 0H60C26.8629 0 0 26.8629 0 60V196C0 229.137 26.8629 256 60 256H196C229.137 256 256 229.137 256 196V60C256 26.8629 229.137 0 196 0Z" fill="#78009D"/>
<path d="M117.706 29.3562C126.845 26.8351 136.599 27.8533 145.02 32.2077C153.441 36.5621 159.91 43.9323 163.136 52.8469C167.853 65.8284 164.439 81.2923 154.965 91.2741C151.779 94.7703 147.403 96.7977 143.907 99.9008C141.538 101.845 142.386 106.035 145.148 107.141C147.021 108.176 149.162 107.317 151.117 107.017C161.243 104.669 171.328 102.114 181.465 99.7767C184.611 99.0763 187.902 99.4922 190.774 100.953C193.647 102.414 195.922 104.828 197.209 107.783C198.512 111.672 199.277 115.716 200.239 119.72C201.811 126.505 197.405 134.056 190.62 135.804C180.358 138.504 169.932 140.748 159.702 143.407C156.092 144.296 152.606 146.924 152.006 150.803C151.22 154.299 153.247 157.588 155.337 160.226C165.784 173.231 176.231 186.234 186.679 199.232C188.217 201.084 189.252 203.3 189.685 205.668C190.118 208.036 189.934 210.475 189.151 212.752C187.341 218.244 181.91 221.027 177.773 224.678C172.332 229.55 163.043 229.022 158.357 223.364C150.02 213.414 141.962 203.225 133.739 193.181C131.981 191.061 129.364 188.909 126.416 189.664C124.305 190.523 122.478 191.957 121.14 193.802C113.6 203.215 105.935 212.534 98.384 221.916C96.9371 224.006 94.9529 225.667 92.6407 226.722C90.3286 227.778 87.7743 228.191 85.2474 227.916C79.4238 227.522 75.6277 222.62 71.2212 219.444C65.0149 215.006 63.784 205.263 68.687 199.418C79.0308 186.396 89.54 173.435 99.9666 160.464C102.201 157.733 104.239 154.351 103.442 150.668C102.935 146.748 99.2322 144.276 95.6843 143.355C85.6198 140.821 75.5139 138.514 65.4597 135.98C62.168 135.135 59.2992 133.115 57.3939 130.3C55.4886 127.486 54.6784 124.072 55.1159 120.702C55.8503 116.678 56.864 112.706 57.9501 108.765C59.0284 105.589 61.2294 102.915 64.1397 101.247C67.05 99.5782 70.4693 99.0298 73.7554 99.7043C84.8543 102.135 95.8291 105.166 106.959 107.431C111.096 108.931 114.831 103.438 111.986 100.19C109.131 97.4183 105.397 95.7633 102.522 93.0222C88.9505 81.1992 86.2611 58.9704 96.7497 44.303C101.779 37.0303 109.192 31.7434 117.706 29.3562Z" fill="white"/>
</g>
<defs>
<clipPath id="clip0_355_245">
<rect width="256" height="256" fill="white"/>
</clipPath>
</defs>
</svg>
