<svg width="256" height="256" viewBox="0 0 256 256" fill="none" xmlns="http://www.w3.org/2000/svg">
<g clip-path="url(#clip0_248_5289)">
<rect width="256" height="256" rx="60" fill="white"/>
<path d="M33.7158 100.208C33.7158 100.208 28.9814 96.7951 34.6627 92.2382L47.8994 80.4021C47.8994 80.4021 51.6869 76.4173 55.6915 79.8892L177.84 172.368V216.714C177.84 216.714 177.781 223.678 168.844 222.908L33.7158 100.208Z" fill="#2489CA"/>
<path d="M65.1997 128.792L33.7157 157.415C33.7157 157.415 30.4805 159.822 33.7157 164.123L48.3333 177.418C48.3333 177.418 51.8052 181.147 56.9341 176.905L90.3119 151.596L65.1997 128.792Z" fill="#1070B3"/>
<path d="M120.474 129.029L178.215 84.939L177.84 40.8299C177.84 40.8299 175.374 31.2032 167.148 36.2138L90.312 106.145L120.474 129.029Z" fill="#0877B9"/>
<path d="M168.844 222.968C172.198 226.4 176.262 225.276 176.262 225.276L221.259 203.103C227.019 199.177 226.21 194.305 226.21 194.305V61.898C226.21 56.0786 220.252 54.0665 220.252 54.0665L181.253 35.2668C172.731 29.9998 167.148 36.2137 167.148 36.2137C167.148 36.2137 174.328 31.0453 177.84 40.8298V215.905C177.84 217.109 177.583 218.292 177.071 219.358C176.045 221.429 173.816 223.362 168.47 222.553L168.844 222.968Z" fill="#3C99D4"/>
</g>
<defs>
<clipPath id="clip0_248_5289">
<rect width="256" height="256" fill="white"/>
</clipPath>
</defs>
</svg>
