<svg width="256" height="256" viewBox="0 0 256 256" fill="none" xmlns="http://www.w3.org/2000/svg">
<g clip-path="url(#clip0_248_5297)">
<path d="M196 0H60C26.8629 0 0 26.8629 0 60V196C0 229.137 26.8629 256 60 256H196C229.137 256 256 229.137 256 196V60C256 26.8629 229.137 0 196 0Z" fill="url(#paint0_linear_248_5297)"/>
<path d="M124.526 32.9428C118.817 36.6048 117.172 44.1908 120.849 49.8788C141.068 81.1887 145.84 104.805 143.769 125.501C135.401 165.133 117.212 173.173 101.316 173.173C85.7959 173.173 89.9519 147.631 101.617 140.155C108.582 135.807 117.502 132.981 124.348 132.981C131.132 132.981 136.632 127.499 136.632 120.735C136.632 113.968 131.132 108.487 124.348 108.487C116.352 108.487 108.508 110.167 101.185 113.027C102.681 105.968 103.233 98.3409 101.3 90.2327C98.3637 77.9207 89.9119 66.1608 75.2359 54.7608C72.666 52.7608 69.406 51.8627 66.1719 52.2627C62.938 52.6627 59.9959 54.3267 57.994 56.8907C53.83 62.2307 54.794 69.9267 60.15 74.0808C72.106 83.3667 76.0539 90.2407 77.4039 95.8986C78.7539 101.557 77.6679 107.627 74.9559 115.967C71.49 127.207 67.466 137.24 65.702 146.863C64.834 151.599 64.7599 156.752 64.5359 160.871C55.926 152.479 52.5559 141.399 52.5559 125.208C52.554 118.445 47.054 112.96 40.272 112.963C33.494 112.968 28.0021 118.448 28 125.208C28 147.32 34.466 168.36 51.7959 182.397C67.4839 197.343 107.377 191.818 107.377 215.813C107.377 222.584 117.289 225.88 124.072 225.88C131.028 225.88 139.782 221.231 139.782 215.813C139.782 188.589 168.472 172.042 215.702 172.114C222.486 172.125 227.99 166.647 228 159.883C228.011 153.117 222.523 147.623 215.739 147.611C212.51 147.607 209.361 147.717 206.257 147.901C211.537 135.483 213.88 121.811 213.395 107.043C213.171 100.28 207.496 94.9807 200.718 95.2007C193.932 95.4207 188.616 101.087 188.838 107.853C189.478 127.189 188.753 144.455 174.348 153.557C170.252 156.143 165.489 158.386 160.974 158.386C164.48 148.851 167.128 138.784 168.212 127.935C168.904 121.011 168.977 112.784 168.188 106.395C166.961 96.4946 165.481 85.2667 169.24 76.8087C172.616 69.5248 180.18 66.4747 191.286 66.4747C198.064 66.4688 203.555 60.9867 203.558 54.2288C203.561 47.4628 198.067 41.9748 191.286 41.9688C174.782 41.9688 162.272 50.6547 155.18 61.1488C151.472 53.2288 146.956 45.0668 141.5 36.6188C139.737 33.8888 136.961 31.9708 133.78 31.2809C132.204 30.9388 130.576 30.9089 128.988 31.1929C127.4 31.4788 125.884 32.0729 124.526 32.9428Z" fill="white"/>
</g>
<defs>
<linearGradient id="paint0_linear_248_5297" x1="17.5" y1="17.5" x2="237" y2="237" gradientUnits="userSpaceOnUse">
<stop stop-color="#62A0EA"/>
<stop offset="1" stop-color="#1A5FB4"/>
</linearGradient>
<clipPath id="clip0_248_5297">
<rect width="256" height="256" fill="white"/>
</clipPath>
</defs>
</svg>
