<svg width="256" height="256" viewBox="0 0 256 256" fill="none" xmlns="http://www.w3.org/2000/svg">
<g clip-path="url(#clip0_248_5303)">
<rect width="256" height="256" rx="60" fill="white"/>
<path d="M123.526 31.9428C117.817 35.6048 116.172 43.1908 119.849 48.8788C140.068 80.1887 144.84 103.805 142.769 124.501C134.401 164.133 116.212 172.173 100.316 172.173C84.7959 172.173 88.9519 146.631 100.617 139.155C107.582 134.807 116.502 131.981 123.348 131.981C130.132 131.981 135.632 126.499 135.632 119.735C135.632 112.968 130.132 107.487 123.348 107.487C115.352 107.487 107.508 109.167 100.185 112.027C101.681 104.968 102.233 97.3409 100.3 89.2327C97.3637 76.9207 88.9119 65.1608 74.2359 53.7608C71.666 51.7608 68.406 50.8627 65.1719 51.2627C61.938 51.6627 58.9959 53.3267 56.994 55.8907C52.83 61.2307 53.794 68.9267 59.15 73.0808C71.106 82.3667 75.0539 89.2407 76.4039 94.8986C77.7539 100.557 76.6679 106.627 73.9559 114.967C70.49 126.207 66.466 136.24 64.702 145.863C63.834 150.599 63.7599 155.752 63.5359 159.871C54.926 151.479 51.5559 140.399 51.5559 124.208C51.554 117.445 46.054 111.96 39.272 111.963C32.494 111.968 27.0021 117.448 27 124.208C27 146.32 33.466 167.36 50.7959 181.397C66.4839 196.343 106.377 190.818 106.377 214.813C106.377 221.584 116.289 224.88 123.072 224.88C130.028 224.88 138.782 220.231 138.782 214.813C138.782 187.589 167.472 171.042 214.702 171.114C221.486 171.125 226.99 165.647 227 158.883C227.011 152.117 221.523 146.623 214.739 146.611C211.51 146.607 208.361 146.717 205.257 146.901C210.537 134.483 212.88 120.811 212.395 106.043C212.171 99.2804 206.496 93.9807 199.718 94.2007C192.932 94.4207 187.616 100.087 187.838 106.853C188.478 126.189 187.753 143.455 173.348 152.557C169.252 155.143 164.489 157.386 159.974 157.386C163.48 147.851 166.128 137.784 167.212 126.935C167.904 120.011 167.977 111.784 167.188 105.395C165.961 95.4946 164.481 84.2667 168.24 75.8087C171.616 68.5248 179.18 65.4747 190.286 65.4747C197.064 65.4688 202.555 59.9867 202.558 53.2288C202.561 46.4628 197.067 40.9748 190.286 40.9688C173.782 40.9688 161.272 49.6547 154.18 60.1488C150.472 52.2288 145.956 44.0668 140.5 35.6188C138.737 32.8888 135.961 30.9708 132.78 30.2809C131.204 29.9388 129.576 29.9089 127.988 30.1929C126.4 30.4788 124.884 31.0729 123.526 31.9428Z" fill="url(#paint0_linear_248_5303)"/>
</g>
<defs>
<linearGradient id="paint0_linear_248_5303" x1="27" y1="29.9988" x2="220.336" y2="216.541" gradientUnits="userSpaceOnUse">
<stop stop-color="#62A0EA"/>
<stop offset="1" stop-color="#1A5FB4"/>
</linearGradient>
<clipPath id="clip0_248_5303">
<rect width="256" height="256" fill="white"/>
</clipPath>
</defs>
</svg>
