<svg width="256" height="256" viewBox="0 0 256 256" fill="none" xmlns="http://www.w3.org/2000/svg">
<g clip-path="url(#clip0_248_5276)">
<path d="M196 0H60C26.8629 0 0 26.8629 0 60V196C0 229.137 26.8629 256 60 256H196C229.137 256 256 229.137 256 196V60C256 26.8629 229.137 0 196 0Z" fill="#00ADEF"/>
<path d="M30.9006 98.7531C30.9006 98.7531 26.034 95.1948 31.8756 90.4615L45.5006 78.1448C45.5006 78.1448 49.3923 74.0031 53.5173 77.6115L179.192 173.795V219.911C179.192 219.911 179.134 227.161 169.942 226.361L30.9006 98.7531Z" fill="white"/>
<path d="M63.3006 128.473L30.9006 158.24C30.9006 158.24 27.5673 160.74 30.9006 165.215L45.9423 179.048C45.9423 179.048 49.5173 182.923 54.7923 178.507L89.1339 152.19L63.3006 128.473ZM120.167 128.715L179.584 82.8649L179.192 36.9899C179.192 36.9899 176.651 26.9732 168.192 32.1899L89.1339 104.915L120.167 128.715Z" fill="white"/>
<path d="M169.932 226.417C173.382 229.984 177.566 228.817 177.566 228.817L223.866 205.759C229.791 201.675 228.957 196.609 228.957 196.609V58.9004C228.957 52.8504 222.832 50.7587 222.832 50.7587L182.699 31.2004C173.932 25.7254 168.191 32.1921 168.191 32.1921C168.191 32.1921 175.574 26.8171 179.191 36.9921V219.075C179.191 220.325 178.924 221.55 178.399 222.659C177.341 224.817 175.049 226.825 169.549 225.992L169.932 226.417Z" fill="white"/>
</g>
<defs>
<clipPath id="clip0_248_5276">
<rect width="256" height="256" fill="white"/>
</clipPath>
</defs>
</svg>
