<svg width="256" height="256" viewBox="0 0 256 256" fill="none" xmlns="http://www.w3.org/2000/svg">
<g clip-path="url(#clip0_248_3494)">
<rect width="256" height="256" rx="60" fill="white"/>
<mask id="mask0_248_3494" style="mask-type:luminance" maskUnits="userSpaceOnUse" x="28" y="28" width="200" height="200">
<path d="M181.125 28H74.875C48.9867 28 28 48.9867 28 74.875V181.125C28 207.013 48.9867 228 74.875 228H181.125C207.013 228 228 207.013 228 181.125V74.875C228 48.9867 207.013 28 181.125 28Z" fill="white"/>
</mask>
<g mask="url(#mask0_248_3494)">
<path d="M150.876 28C150.876 28.3529 150.876 28.7059 150.876 29.0784C150.876 41.7451 140.608 52.0098 127.945 52.0098C115.278 52.0098 105.013 41.7418 105.013 29.0784C105.013 28.7059 105.013 28.3529 105.013 28H28V228H228V28H150.876Z" fill="#654FF0"/>
<path d="M74.4575 135.781H87.7124L96.7614 183.974H96.9248L107.801 135.781H120.199L130.023 184.566H130.216L140.53 135.781H153.53L136.638 206.595H123.484L113.741 158.402H113.487L103.059 206.595H89.6601L74.4575 135.781ZM168.473 135.781H189.37L210.121 206.595H196.448L191.934 190.837H168.13L164.647 206.595H151.33L168.473 135.781ZM176.428 153.235L170.647 179.216H188.641L182.003 153.235H176.428Z" fill="white"/>
</g>
</g>
<defs>
<clipPath id="clip0_248_3494">
<rect width="256" height="256" fill="white"/>
</clipPath>
</defs>
</svg>
