<svg width="256" height="256" viewBox="0 0 256 256" fill="none" xmlns="http://www.w3.org/2000/svg">
<g clip-path="url(#clip0_248_2974)">
<path d="M196 0H60C26.8629 0 0 26.8629 0 60V196C0 229.137 26.8629 256 60 256H196C229.137 256 256 229.137 256 196V60C256 26.8629 229.137 0 196 0Z" fill="#4353FF"/>
<path d="M176.359 99.5129C176.359 99.5129 160.106 150.433 158.905 154.756C158.425 150.513 146.575 59 146.575 59C118.873 59 104.141 78.6958 96.2941 99.5129C96.2941 99.5129 76.5188 150.593 74.9175 154.836C74.8375 150.833 71.8751 99.9929 71.8751 99.9929C70.1938 74.4524 46.8952 59 28 59L50.7382 197.591C79.7214 197.511 95.3341 177.895 103.5 156.999C103.5 156.999 120.874 111.922 121.595 109.921C121.755 111.842 134.085 197.591 134.085 197.591C163.148 197.591 178.841 179.256 187.247 159.16L228 59C199.256 59 184.125 78.6156 176.359 99.5129Z" fill="white"/>
</g>
<defs>
<clipPath id="clip0_248_2974">
<rect width="256" height="256" fill="white"/>
</clipPath>
</defs>
</svg>
