<svg width="256" height="256" viewBox="0 0 256 256" fill="none" xmlns="http://www.w3.org/2000/svg">
<g clip-path="url(#clip0_313_46)">
<path d="M196 0H60C26.8629 0 0 26.8629 0 60V196C0 229.137 26.8629 256 60 256H196C229.137 256 256 229.137 256 196V60C256 26.8629 229.137 0 196 0Z" fill="#25D366"/>
<path fill-rule="evenodd" clip-rule="evenodd" d="M199.1 58.0728C180.355 39.3566 155.476 29.0285 128.971 29C74.3352 29 29.8559 73.4793 29.8274 128.116C29.8274 145.576 34.3923 162.609 43.0656 177.645L29 229L81.5535 215.22C96.0819 223.142 112.366 227.292 128.914 227.288H128.971C183.608 227.288 228.058 182.837 228.087 128.173C228.116 101.696 217.816 76.8174 199.1 58.0728ZM95.7332 176.104C96.418 176.532 97.8445 176.532 101.154 176.532C115.106 176.504 127.145 176.475 135.705 176.475C175.705 176.475 174.649 134.364 155.961 129.114C158.7 124.264 171.168 115.134 163.465 96.3039C155.819 77.6733 123.009 81.8959 100.555 81.8959C92.2525 81.8959 93.4793 88.0585 93.5364 97.5877C93.5934 112.709 93.5364 153.622 93.5364 171.311C93.5364 174.877 94.6205 175.448 95.7332 176.104ZM113.023 160.669H133.365C142.01 160.641 149.713 156.618 149.514 148.001C149.371 139.899 143.979 137.217 136.475 136.475C129.342 136.561 121.183 136.561 113.023 136.561V160.669ZM113.023 120.27C128.087 120.07 133.879 120.869 142.096 118.815C147.745 115.619 150.198 103.722 142.124 99.699C136.504 96.903 119.927 97.8445 113.023 98.1298V120.27ZM128.971 210.541H128.914C114.136 210.541 99.6419 206.575 87.0028 199.071L83.9786 197.274L52.7946 205.462L61.1255 175.077L59.1569 171.939C50.9127 158.81 46.5507 143.618 46.5749 128.116C46.5749 82.6947 83.5506 45.7475 129 45.7475C150.997 45.7475 171.682 54.3352 187.231 69.913C202.809 85.4622 211.368 106.175 211.368 128.173C211.339 173.593 174.364 210.541 128.971 210.541Z" fill="#FEFEFE"/>
</g>
<defs>
<clipPath id="clip0_313_46">
<rect width="256" height="256" fill="white"/>
</clipPath>
</defs>
</svg>
