<svg width="256" height="256" viewBox="0 0 256 256" fill="none" xmlns="http://www.w3.org/2000/svg">
<g clip-path="url(#clip0_313_3)">
<path d="M196 0H60C26.8629 0 0 26.8629 0 60V196C0 229.137 26.8629 256 60 256H196C229.137 256 256 229.137 256 196V60C256 26.8629 229.137 0 196 0Z" fill="#25D366"/>
<path d="M199 58.1005C189.83 48.8415 178.91 41.5002 166.875 36.5041C154.84 31.5081 141.931 28.9574 128.9 29.0005C74.2999 29.0005 29.8 73.5004 29.8 128.1C29.8 145.6 34.4 162.6 43 177.6L29 229L81.4999 215.2C95.9998 223.1 112.3 227.3 128.9 227.3C183.5 227.3 227.999 182.8 227.999 128.2C227.999 101.7 217.699 76.8004 199 58.1005ZM128.9 210.5C114.1 210.5 99.5998 206.5 86.8998 199L83.8999 197.2L52.6999 205.4L60.9999 175L58.9999 171.9C50.7754 158.771 46.4092 143.593 46.4 128.1C46.4 82.7004 83.3999 45.7005 128.8 45.7005C150.8 45.7005 171.5 54.3005 187 69.9004C194.676 77.539 200.759 86.6258 204.896 96.6336C209.033 106.641 211.141 117.371 211.1 128.2C211.3 173.6 174.3 210.5 128.9 210.5ZM174.1 148.9C171.6 147.7 159.4 141.7 157.2 140.8C154.9 140 153.3 139.6 151.6 142C149.9 144.5 145.2 150.1 143.8 151.7C142.4 153.4 140.9 153.6 138.4 152.3C135.9 151.1 127.9 148.4 118.5 140C111.1 133.4 106.2 125.3 104.7 122.8C103.3 120.3 104.5 119 105.8 117.7C106.9 116.6 108.3 114.8 109.5 113.4C110.7 112 111.2 110.9 112 109.3C112.8 107.6 112.4 106.2 111.8 105C111.2 103.8 106.2 91.6004 104.2 86.6004C102.2 81.8004 100.1 82.4004 98.5998 82.3004H93.7998C92.0998 82.3004 89.4998 82.9004 87.1998 85.4004C84.9998 87.9004 78.5999 93.9004 78.5999 106.1C78.5999 118.3 87.4998 130.1 88.6998 131.7C89.8998 133.4 106.2 158.4 131 169.1C136.9 171.7 141.5 173.2 145.1 174.3C151 176.2 156.4 175.9 160.7 175.3C165.5 174.6 175.4 169.3 177.4 163.5C179.5 157.7 179.5 152.8 178.8 151.7C178.1 150.6 176.6 150.1 174.1 148.9Z" fill="white"/>
</g>
<defs>
<clipPath id="clip0_313_3">
<rect width="256" height="256" fill="white"/>
</clipPath>
</defs>
</svg>
