<svg width="256" height="256" viewBox="0 0 256 256" fill="none" xmlns="http://www.w3.org/2000/svg">
<g clip-path="url(#clip0_313_49)">
<rect width="256" height="256" rx="60" fill="#242938"/>
<path fill-rule="evenodd" clip-rule="evenodd" d="M126.461 39.184C175.448 39.184 215.191 78.8987 215.191 127.914C215.191 176.93 175.733 217.586 126.461 216.645C108.344 216.302 95.9613 214.99 82.4663 204.976C72.1667 197.301 31.482 234.049 51.5961 173.877C43.0084 160.24 37.9014 144.576 37.7017 127.914C37.1596 79.127 77.4449 39.184 126.461 39.184Z" fill="#25D366"/>
<path fill-rule="evenodd" clip-rule="evenodd" d="M199.1 57.0728C180.355 38.3566 155.476 28.0285 128.971 28C74.3352 28 29.8559 72.4793 29.8274 127.116C29.8274 144.576 34.3923 161.609 43.0656 176.645L29 228L81.5535 214.22C96.0819 222.142 112.366 226.292 128.914 226.288H128.971C183.608 226.288 228.058 181.837 228.087 127.173C228.116 100.696 217.816 75.8174 199.1 57.0728ZM95.7332 175.104C96.418 175.532 97.8445 175.532 101.154 175.532C115.106 175.504 127.145 175.475 135.705 175.475C175.705 175.475 174.649 133.364 155.961 128.114C158.7 123.264 171.168 114.134 163.465 95.3039C155.819 76.6733 123.009 80.8959 100.555 80.8959C92.2525 80.8959 93.4793 87.0585 93.5364 96.5877C93.5934 111.709 93.5364 152.622 93.5364 170.311C93.5364 173.877 94.6205 174.448 95.7332 175.104ZM113.023 159.669H133.365C142.01 159.641 149.713 155.618 149.514 147.001C149.371 138.899 143.979 136.217 136.475 135.475C129.342 135.561 121.183 135.561 113.023 135.561V159.669ZM113.023 119.27C128.087 119.07 133.879 119.869 142.096 117.815C147.745 114.619 150.198 102.722 142.124 98.699C136.504 95.903 119.927 96.8445 113.023 97.1298V119.27ZM128.971 209.541H128.914C114.136 209.541 99.6419 205.575 87.0028 198.071L83.9786 196.274L52.7946 204.462L61.1255 174.077L59.1569 170.939C50.9127 157.81 46.5507 142.618 46.5749 127.116C46.5749 81.6947 83.5506 44.7475 129 44.7475C150.997 44.7475 171.682 53.3352 187.231 68.913C202.809 84.4622 211.368 105.175 211.368 127.173C211.339 172.593 174.364 209.541 128.971 209.541Z" fill="#FEFEFE"/>
</g>
<defs>
<clipPath id="clip0_313_49">
<rect width="256" height="256" fill="white"/>
</clipPath>
</defs>
</svg>
