<svg width="256" height="256" viewBox="0 0 256 256" fill="none" xmlns="http://www.w3.org/2000/svg">
<g clip-path="url(#clip0_313_54)">
<rect width="256" height="256" rx="60" fill="white"/>
<path fill-rule="evenodd" clip-rule="evenodd" d="M125.461 39.184C174.448 39.184 214.191 78.8987 214.191 127.914C214.191 176.93 174.733 217.586 125.461 216.645C107.344 216.302 94.9613 214.99 81.4663 204.976C71.1667 197.301 30.482 234.049 50.5961 173.877C42.0084 160.24 36.9014 144.576 36.7017 127.914C36.1596 79.127 76.4449 39.184 125.461 39.184Z" fill="#25D366"/>
<path fill-rule="evenodd" clip-rule="evenodd" d="M198.1 57.0728C179.355 38.3566 154.476 28.0285 127.971 28C73.3352 28 28.8559 72.4793 28.8274 127.116C28.8274 144.576 33.3923 161.609 42.0656 176.645L28 228L80.5535 214.22C95.0819 222.142 111.366 226.292 127.914 226.288H127.971C182.608 226.288 227.058 181.837 227.087 127.173C227.116 100.696 216.816 75.8174 198.1 57.0728ZM94.7332 175.104C95.418 175.532 96.8445 175.532 100.154 175.532C114.106 175.504 126.145 175.475 134.705 175.475C174.705 175.475 173.649 133.364 154.961 128.114C157.7 123.264 170.168 114.134 162.465 95.3039C154.819 76.6733 122.009 80.8959 99.5549 80.8959C91.2525 80.8959 92.4793 87.0585 92.5364 96.5877C92.5934 111.709 92.5364 152.622 92.5364 170.311C92.5364 173.877 93.6205 174.448 94.7332 175.104ZM112.023 159.669H132.365C141.01 159.641 148.713 155.618 148.514 147.001C148.371 138.899 142.979 136.217 135.475 135.475C128.342 135.561 120.183 135.561 112.023 135.561V159.669ZM112.023 119.27C127.087 119.07 132.879 119.869 141.096 117.815C146.745 114.619 149.198 102.722 141.124 98.699C135.504 95.903 118.927 96.8445 112.023 97.1298V119.27ZM127.971 209.541H127.914C113.136 209.541 98.6419 205.575 86.0028 198.071L82.9786 196.274L51.7946 204.462L60.1255 174.077L58.1569 170.939C49.9127 157.81 45.5507 142.618 45.5749 127.116C45.5749 81.6947 82.5506 44.7475 128 44.7475C149.997 44.7475 170.682 53.3352 186.231 68.913C201.809 84.4622 210.368 105.175 210.368 127.173C210.339 172.593 173.364 209.541 127.971 209.541Z" fill="#FEFEFE" stroke="#25D366" stroke-width="2" stroke-miterlimit="22.926"/>
</g>
<defs>
<clipPath id="clip0_313_54">
<rect width="256" height="256" fill="white"/>
</clipPath>
</defs>
</svg>
