<svg width="256" height="256" viewBox="0 0 256 256" fill="none" xmlns="http://www.w3.org/2000/svg">
<g clip-path="url(#clip0_313_9)">
<rect width="256" height="256" rx="60" fill="#242938"/>
<path d="M44.2465 125.888C45.4807 76.6587 87.1139 38.1629 136.289 40.7817L143.866 41.1852C185.088 43.3804 218.553 75.3021 222.691 116.374V116.374C226.428 153.466 205.182 188.557 170.585 202.441L164.251 204.982C155.142 208.637 145.509 210.824 135.714 211.46L73.5 215.5V215.5C56.2322 215.5 42.3567 201.272 42.7894 184.01L44.2465 125.888Z" fill="#25D366"/>
<path d="M199 57.1005C189.83 47.8415 178.91 40.5002 166.875 35.5041C154.84 30.5081 141.931 27.9574 128.9 28.0005C74.2999 28.0005 29.8 72.5004 29.8 127.1C29.8 144.6 34.4 161.6 43 176.6L29 228L81.4999 214.2C95.9998 222.1 112.3 226.3 128.9 226.3C183.5 226.3 227.999 181.8 227.999 127.2C227.999 100.7 217.699 75.8004 199 57.1005ZM128.9 209.5C114.1 209.5 99.5998 205.5 86.8998 198L83.8999 196.2L52.6999 204.4L60.9999 174L58.9999 170.9C50.7754 157.771 46.4092 142.593 46.4 127.1C46.4 81.7004 83.3999 44.7005 128.8 44.7005C150.8 44.7005 171.5 53.3005 187 68.9004C194.676 76.539 200.759 85.6258 204.896 95.6336C209.033 105.641 211.141 116.371 211.1 127.2C211.3 172.6 174.3 209.5 128.9 209.5ZM174.1 147.9C171.6 146.7 159.4 140.7 157.2 139.8C154.9 139 153.3 138.6 151.6 141C149.9 143.5 145.2 149.1 143.8 150.7C142.4 152.4 140.9 152.6 138.4 151.3C135.9 150.1 127.9 147.4 118.5 139C111.1 132.4 106.2 124.3 104.7 121.8C103.3 119.3 104.5 118 105.8 116.7C106.9 115.6 108.3 113.8 109.5 112.4C110.7 111 111.2 109.9 112 108.3C112.8 106.6 112.4 105.2 111.8 104C111.2 102.8 106.2 90.6004 104.2 85.6004C102.2 80.8004 100.1 81.4004 98.5998 81.3004H93.7998C92.0998 81.3004 89.4998 81.9004 87.1998 84.4004C84.9998 86.9004 78.5999 92.9004 78.5999 105.1C78.5999 117.3 87.4998 129.1 88.6998 130.7C89.8998 132.4 106.2 157.4 131 168.1C136.9 170.7 141.5 172.2 145.1 173.3C151 175.2 156.4 174.9 160.7 174.3C165.5 173.6 175.4 168.3 177.4 162.5C179.5 156.7 179.5 151.8 178.8 150.7C178.1 149.6 176.6 149.1 174.1 147.9Z" fill="white"/>
</g>
<defs>
<clipPath id="clip0_313_9">
<rect width="256" height="256" fill="white"/>
</clipPath>
</defs>
</svg>
