<svg width="256" height="256" viewBox="0 0 256 256" fill="none" xmlns="http://www.w3.org/2000/svg">
<g clip-path="url(#clip0_313_15)">
<rect width="256" height="256" rx="60" fill="white"/>
<path d="M125.48 215.645L125.479 215.645C107.406 215.303 95.2946 213.991 82.0638 204.174C80.4923 203.003 78.4381 202.747 76.2838 202.907C74.116 203.068 71.6773 203.664 69.1923 204.38C68.004 204.722 66.7898 205.096 65.5785 205.47L65.3966 205.526C64.1215 205.919 62.85 206.31 61.5954 206.667C59.0781 207.383 56.6817 207.947 54.5474 208.116C52.4053 208.285 50.643 208.045 49.3112 207.271C48.0193 206.521 46.9879 205.182 46.4616 202.824C45.9282 200.435 45.929 197.049 46.7117 192.338C47.4924 187.64 49.0399 181.687 51.5445 174.194L51.6947 173.745L51.4423 173.344C42.9439 159.849 37.899 144.364 37.7016 127.903C37.1661 79.6855 76.9883 40.184 125.461 40.184C173.896 40.184 213.191 79.4512 213.191 127.914C213.191 176.398 174.166 216.575 125.48 215.645Z" fill="#25D366" stroke="#25D366" stroke-width="2"/>
<path d="M197.289 57.8041L197.292 57.8076C215.804 76.3195 225.999 100.965 225.999 127.2C225.999 181.248 181.947 225.3 127.9 225.3C111.468 225.3 95.3328 221.143 80.9783 213.322L80.6296 213.132L80.2456 213.233L29.4197 226.593L42.9648 176.863L43.0738 176.463L42.8675 176.103C34.3535 161.253 29.8 144.424 29.8 127.1C29.8 73.0527 73.8522 29.0005 127.9 29.0005L127.903 29.0005C140.801 28.9578 153.579 31.4826 165.491 36.4277C177.404 41.3729 188.213 48.6395 197.289 57.8041ZM85.3853 198.858L85.3913 198.861C98.2441 206.451 112.919 210.5 127.9 210.5C173.848 210.5 211.3 173.156 211.1 127.2C211.141 116.24 209.007 105.38 204.82 95.2516C200.633 85.122 194.476 75.9246 186.706 68.1928C171.019 52.4054 150.064 43.7005 127.8 43.7005C81.8476 43.7005 44.4 81.1481 44.4 127.1V127.101C44.4093 142.781 48.8284 158.143 57.1524 171.431L57.1596 171.442L58.9177 174.167L50.7352 204.137L50.2791 205.807L51.9541 205.367L82.7466 197.274L85.3853 198.858ZM102.827 122.289L102.835 122.302L102.842 122.315C104.349 124.826 109.313 133.039 116.833 139.746C125.004 147.048 132.173 150.126 135.586 151.591C136.147 151.832 136.607 152.03 136.953 152.195C138.264 152.875 139.475 153.252 140.627 153.119C141.826 152.98 142.763 152.314 143.562 151.348C144.97 149.738 149.682 144.126 151.421 141.571C152.16 140.531 152.754 140.253 153.285 140.194C153.92 140.124 154.676 140.33 155.845 140.736C157.519 141.426 164.739 144.944 169.303 147.167C170.815 147.904 172.036 148.499 172.667 148.802C173.202 149.059 173.671 149.275 174.09 149.468C174.701 149.749 175.206 149.982 175.655 150.22C176.384 150.609 176.747 150.909 176.956 151.237C176.956 151.237 176.957 151.238 176.958 151.241C176.96 151.244 176.962 151.249 176.965 151.255C176.972 151.268 176.98 151.287 176.99 151.312C177.01 151.364 177.033 151.435 177.057 151.529C177.104 151.717 177.146 151.969 177.176 152.285C177.235 152.918 177.237 153.754 177.153 154.754C176.986 156.752 176.48 159.341 175.459 162.16L175.457 162.167L175.454 162.174C174.568 164.744 171.838 167.364 168.559 169.471C165.306 171.563 161.769 172.987 159.558 173.31C155.328 173.9 150.1 174.182 144.406 172.348L144.399 172.346L144.392 172.344C140.813 171.25 136.254 169.763 130.403 167.185L130.396 167.182C106.975 157.077 91.1843 134.017 88.7656 130.485C88.654 130.322 88.5709 130.2 88.5168 130.124L88.5085 130.112L88.4998 130.1L88.4806 130.075C87.8583 129.245 85.4022 125.971 83.0914 121.422C80.7488 116.811 78.5999 110.975 78.5999 105.1C78.5999 94.2365 83.8183 88.5068 86.365 85.7106C86.5778 85.4769 86.772 85.2637 86.9429 85.0697C89.0221 82.8143 91.3342 82.3004 92.7998 82.3004H97.5675C97.83 82.3169 98.06 82.3201 98.2704 82.323C98.8322 82.3309 99.2537 82.3367 99.7792 82.5892C100.429 82.9015 101.322 83.6955 102.274 85.9784C104.265 90.9547 109.282 103.2 109.905 104.448C110.434 105.506 110.71 106.559 110.1 107.864C110.035 107.995 109.972 108.121 109.911 108.243C109.216 109.64 108.755 110.566 107.741 111.75C107.328 112.231 106.907 112.739 106.491 113.243C105.641 114.271 104.808 115.278 104.093 115.993C103.466 116.62 102.671 117.419 102.296 118.462C101.889 119.595 102.021 120.848 102.827 122.289Z" fill="white" stroke="#25D366" stroke-width="2"/>
</g>
<defs>
<clipPath id="clip0_313_15">
<rect width="256" height="256" fill="white"/>
</clipPath>
</defs>
</svg>
