<svg width="256" height="256" viewBox="0 0 256 256" fill="none" xmlns="http://www.w3.org/2000/svg">
<g clip-path="url(#clip0_248_6785)">
<path d="M196 0H60C26.8629 0 0 26.8629 0 60V196C0 229.137 26.8629 256 60 256H196C229.137 256 256 229.137 256 196V60C256 26.8629 229.137 0 196 0Z" fill="#00ADEF"/>
<path d="M28 56.3167L109.481 45.2201L109.518 123.816L28.0753 124.279L28 56.3167ZM109.443 132.871L109.506 211.536L28.0639 200.338L28.0594 132.344L109.443 132.871ZM119.319 43.768L227.358 28V122.816L119.319 123.674V43.768ZM227.383 133.61L227.358 228L119.319 212.752L119.169 133.435L227.383 133.61Z" fill="white"/>
</g>
<defs>
<clipPath id="clip0_248_6785">
<rect width="256" height="256" fill="white"/>
</clipPath>
</defs>
</svg>
