<svg width="256" height="256" viewBox="0 0 256 256" fill="none" xmlns="http://www.w3.org/2000/svg">
<g clip-path="url(#clip0_294_53)">
<rect width="256" height="256" rx="60" fill="white"/>
<path d="M219.471 35.5H83.0342C81.9156 35.4972 80.8074 35.7152 79.7731 36.1416C78.7389 36.568 77.799 37.1943 77.0074 37.9846C76.2157 38.7749 75.5878 39.7138 75.1597 40.7473C74.7316 41.7808 74.5118 42.8886 74.5127 44.0073V81.9291L153.578 105.144L228 81.9291V44.0073C228.001 42.888 227.781 41.7796 227.352 40.7456C226.924 39.7117 226.295 38.7725 225.503 37.9821C224.71 37.1916 223.77 36.5655 222.735 36.1395C221.7 35.7136 220.591 35.4963 219.471 35.5Z" fill="#41A5EE"/>
<path d="M228 81.9287H74.5127V128.358L153.578 142.286L228 128.358V81.9287Z" fill="#2B7CD3"/>
<path d="M74.5127 128.358V174.787L148.928 184.073L228 174.787V128.358H74.5127Z" fill="#185ABD"/>
<path d="M83.0342 221.216H219.464C220.584 221.221 221.694 221.004 222.73 220.579C223.765 220.153 224.707 219.527 225.5 218.737C226.293 217.946 226.923 217.007 227.352 215.972C227.781 214.938 228.001 213.829 228 212.709V174.787H74.5127V212.709C74.5118 213.828 74.7316 214.935 75.1597 215.969C75.5878 217.002 76.2157 217.941 77.0074 218.732C77.799 219.522 78.7389 220.148 79.7731 220.575C80.8074 221.001 81.9156 221.219 83.0342 221.216Z" fill="#103F91"/>
<path opacity="0.1" d="M131.099 72.6377H74.5127V188.71H131.099C133.354 188.699 135.513 187.8 137.11 186.207C138.706 184.615 139.611 182.458 139.628 180.203V81.1449C139.611 78.8902 138.706 76.7329 137.11 75.1405C135.513 73.5481 133.354 72.6489 131.099 72.6377Z" fill="black"/>
<path opacity="0.2" d="M126.449 77.2832H74.5127V193.356H126.449C128.704 193.345 130.863 192.445 132.46 190.853C134.056 189.261 134.961 187.103 134.978 184.849V85.7904C134.961 83.5357 134.056 81.3784 132.46 79.786C130.863 78.1936 128.704 77.2944 126.449 77.2832Z" fill="black"/>
<path opacity="0.2" d="M126.449 77.2832H74.5127V184.07H126.449C128.704 184.059 130.863 183.16 132.46 181.567C134.056 179.975 134.961 177.818 134.978 175.563V85.7904C134.961 83.5357 134.056 81.3784 132.46 79.786C130.863 78.1936 128.704 77.2944 126.449 77.2832Z" fill="black"/>
<path opacity="0.2" d="M121.799 77.2832H74.5127V184.07H121.799C124.054 184.059 126.213 183.16 127.81 181.567C129.406 179.975 130.311 177.818 130.328 175.563V85.7904C130.311 83.5357 129.406 81.3784 127.81 79.786C126.213 78.1936 124.054 77.2944 121.799 77.2832Z" fill="black"/>
<path d="M36.5287 77.2833H121.801C124.06 77.2814 126.227 78.1764 127.826 79.7716C129.425 81.3668 130.326 83.5317 130.33 85.7905V170.92C130.326 173.179 129.425 175.344 127.826 176.939C126.227 178.534 124.06 179.429 121.801 179.427H36.5287C35.4094 179.431 34.3004 179.214 33.2654 178.788C32.2303 178.362 31.2896 177.736 30.4972 176.945C29.7048 176.155 29.0762 175.216 28.6477 174.182C28.2192 173.148 27.9991 172.039 28 170.92V85.7905C27.9991 84.6712 28.2192 83.5628 28.6477 82.5288C29.0762 81.4949 29.7048 80.5557 30.4972 79.7653C31.2896 78.9748 32.2303 78.3487 33.2654 77.9227C34.3004 77.4968 35.4094 77.2795 36.5287 77.2833Z" fill="url(#paint0_linear_294_53)"/>
<path d="M63.0033 142.552C63.17 143.867 63.2795 145.012 63.3319 145.988H63.5319C63.6033 145.06 63.7581 143.941 63.9962 142.631C64.3533 140.667 64.4391 140.217 64.6319 139.31L73.5963 100.688H85.1964L94.4822 138.731C95.0185 141.085 95.4049 143.471 95.6394 145.874H95.7965C95.9747 143.535 96.2967 141.209 96.7608 138.91L104.182 100.638H114.732L101.704 155.981H89.3679L80.5321 119.366C80.2749 118.309 79.9845 116.933 79.6606 115.238C79.3368 113.543 79.1368 112.304 79.0606 111.524H78.9106C78.8106 112.424 78.6106 113.759 78.3106 115.531C78.0106 117.302 77.7725 118.616 77.5963 119.474L69.2891 156.003H56.7461L43.646 100.688H54.3604L62.439 139.388C62.6745 140.434 62.8628 141.49 63.0033 142.552Z" fill="white"/>
</g>
<defs>
<linearGradient id="paint0_linear_294_53" x1="45.8145" y1="70.5975" x2="112.515" y2="186.113" gradientUnits="userSpaceOnUse">
<stop stop-color="#2368C4"/>
<stop offset="0.5" stop-color="#1A5DBE"/>
<stop offset="1" stop-color="#1146AC"/>
</linearGradient>
<clipPath id="clip0_294_53">
<rect width="256" height="256" fill="white"/>
</clipPath>
</defs>
</svg>
