<svg width="256" height="256" viewBox="0 0 256 256" fill="none" xmlns="http://www.w3.org/2000/svg">
<g clip-path="url(#clip0_180_1764)">
<path d="M196 0H60C26.8629 0 0 26.8629 0 60V196C0 229.137 26.8629 256 60 256H196C229.137 256 256 229.137 256 196V60C256 26.8629 229.137 0 196 0Z" fill="#F4F2ED"/>
<path d="M79.4225 40.5966L102.985 83.1058L81.346 122.056C80.3101 123.917 79.7664 126.01 79.7664 128.139C79.7664 130.269 80.3101 132.362 81.346 134.222L102.985 173.269L79.4225 215.778C74.9888 213.58 71.307 210.116 68.8433 205.824L31.3353 140.666C29.15 136.862 28 132.551 28 128.163C28 123.776 29.15 119.465 31.3353 115.661L68.8433 50.5026C71.3145 46.2287 74.9955 42.7819 79.4225 40.5966Z" fill="url(#paint0_linear_180_1764)"/>
<path opacity="0.7" d="M81.3458 122.104C80.3186 123.959 79.7796 126.044 79.7796 128.163C79.7796 130.283 80.3186 132.368 81.3458 134.222L102.985 173.269L79.4223 215.778C74.9887 213.58 71.3069 210.116 68.8432 205.824L31.3351 140.666C28.3537 135.521 45.04 129.366 81.3458 122.153V122.104Z" fill="url(#paint1_linear_180_1764)"/>
<path opacity="0.5" d="M81.8267 44.8764L102.985 83.1058L99.4747 89.2128L80.8169 57.6195C75.4311 48.8196 67.2082 53.3878 56.9175 71.1801L58.4563 68.5353L68.8432 50.5026C71.2887 46.2427 74.9347 42.7973 79.3262 40.5966L81.7786 44.8764H81.8267Z" fill="url(#paint2_linear_180_1764)"/>
<path d="M187.138 50.5027L224.646 115.661C229.118 123.355 229.118 132.972 224.646 140.666L187.138 205.824C184.945 209.623 181.791 212.778 177.992 214.973C174.194 217.168 169.885 218.324 165.499 218.327H127.991L174.635 134.223C175.663 132.368 176.202 130.283 176.202 128.164C176.202 126.044 175.663 123.959 174.635 122.105L127.991 38H165.499C169.885 38.0028 174.194 39.1595 177.992 41.3541C181.791 43.5486 184.945 46.7037 187.138 50.5027Z" fill="url(#paint3_linear_180_1764)"/>
<path d="M163.575 218.039L126.548 218.375L171.365 133.838C172.367 131.958 172.891 129.861 172.891 127.731C172.891 125.601 172.367 123.503 171.365 121.624L126.548 38H135.011L182.041 121.239C183.155 123.205 183.737 125.429 183.729 127.689C183.72 129.949 183.122 132.168 181.993 134.126C171.871 151.718 161.821 169.35 151.842 187.022C142.705 203.083 146.649 213.422 163.575 218.039Z" fill="url(#paint4_linear_180_1764)"/>
<path d="M90.4825 218.327C86.6355 218.327 82.7885 217.413 79.4224 215.778L125.683 132.347C127.125 129.75 127.125 126.577 125.683 123.98L79.4224 40.5967C82.861 38.894 86.6454 38.0055 90.4825 38H127.991L174.635 122.105C175.663 123.959 176.202 126.044 176.202 128.164C176.202 130.283 175.663 132.368 174.635 134.223L127.991 218.327H90.4825Z" fill="url(#paint5_linear_180_1764)"/>
<path opacity="0.6" d="M171.365 123.98L123.663 38H127.991L174.635 122.105C175.663 123.959 176.202 126.044 176.202 128.164C176.202 130.283 175.663 132.368 174.635 134.223L127.991 218.327H123.663L171.365 132.347C172.808 129.75 172.808 126.577 171.365 123.98Z" fill="url(#paint6_linear_180_1764)"/>
<path opacity="0.6" d="M125.683 123.98L79.4224 40.5968C80.865 39.8274 82.5962 39.2503 84.2311 38.7694C94.4256 57.0907 109.477 84.8851 129.433 122.105C130.461 123.959 131 126.044 131 128.164C131 130.283 130.461 132.368 129.433 134.223L83.5098 217.365C81.8749 216.885 81.0093 216.548 79.4705 215.827L125.634 132.395C127.077 129.799 127.077 126.625 125.634 124.028L125.683 123.98Z" fill="url(#paint7_linear_180_1764)"/>
</g>
<defs>
<linearGradient id="paint0_linear_180_1764" x1="65.493" y1="215.778" x2="-11.309" y2="92.263" gradientUnits="userSpaceOnUse">
<stop stop-color="#EB6F07"/>
<stop offset="1" stop-color="#FAB743"/>
</linearGradient>
<linearGradient id="paint1_linear_180_1764" x1="89.3068" y1="200.51" x2="49.7628" y2="159.839" gradientUnits="userSpaceOnUse">
<stop stop-color="#D96504"/>
<stop offset="1" stop-color="#D96504" stop-opacity="0"/>
</linearGradient>
<linearGradient id="paint2_linear_180_1764" x1="76.2658" y1="44.826" x2="97.1998" y2="78.454" gradientUnits="userSpaceOnUse">
<stop stop-color="#EB6F07"/>
<stop offset="1" stop-color="#EB720A" stop-opacity="0"/>
</linearGradient>
<linearGradient id="paint3_linear_180_1764" x1="177.995" y1="218.327" x2="109.226" y2="75.029" gradientUnits="userSpaceOnUse">
<stop stop-color="#EE6F05"/>
<stop offset="1" stop-color="#FAB743"/>
</linearGradient>
<linearGradient id="paint4_linear_180_1764" x1="107.564" y1="218.375" x2="217.671" y2="190.429" gradientUnits="userSpaceOnUse">
<stop stop-color="#D96504" stop-opacity="0.8"/>
<stop offset="0.498" stop-color="#D96504" stop-opacity="0.2"/>
<stop offset="1" stop-color="#D96504" stop-opacity="0"/>
</linearGradient>
<linearGradient id="paint5_linear_180_1764" x1="127.812" y1="218.327" x2="57.6388" y2="76.826" gradientUnits="userSpaceOnUse">
<stop stop-color="#FFA95F"/>
<stop offset="1" stop-color="#FFEBC8"/>
</linearGradient>
<linearGradient id="paint6_linear_180_1764" x1="127.918" y1="39.984" x2="186.439" y2="49.184" gradientUnits="userSpaceOnUse">
<stop stop-color="white" stop-opacity="0.5"/>
<stop offset="1" stop-color="white" stop-opacity="0.1"/>
</linearGradient>
<linearGradient id="paint7_linear_180_1764" x1="72.3568" y1="224.866" x2="144.69" y2="214.211" gradientUnits="userSpaceOnUse">
<stop stop-color="white" stop-opacity="0.5"/>
<stop offset="1" stop-color="white" stop-opacity="0.1"/>
</linearGradient>
<clipPath id="clip0_180_1764">
<rect width="256" height="256" fill="white"/>
</clipPath>
</defs>
</svg>
