<svg width="256" height="256" viewBox="0 0 256 256" fill="none" xmlns="http://www.w3.org/2000/svg">
<g clip-path="url(#clip0_248_2586)">
<path d="M196 0H60C26.8629 0 0 26.8629 0 60V196C0 229.137 26.8629 256 60 256H196C229.137 256 256 229.137 256 196V60C256 26.8629 229.137 0 196 0Z" fill="url(#paint0_linear_248_2586)"/>
<path d="M74.3603 212.451C72.1519 210.579 70.2855 208.338 68.8442 205.827L31.3359 140.668C29.1502 136.864 28 132.553 28 128.166C28 123.778 29.1502 119.468 31.3359 115.663L68.8442 50.5033C70.2875 48.0061 72.1521 45.7775 74.3555 43.9162L99.5185 89.3455L81.3475 122.059C80.3113 123.919 79.7675 126.012 79.7675 128.142C79.7675 130.271 80.3113 132.365 81.3475 134.225L99.5363 167.046L74.3603 212.451ZM187.138 50.5033L224.647 115.662C226.843 119.462 228 123.775 228 128.164C228 132.554 226.843 136.866 224.647 140.667L187.138 205.825C184.946 209.625 181.792 212.78 177.993 214.975C174.195 217.169 169.886 218.326 165.5 218.329H136.056L182.701 134.223C183.729 132.369 184.268 130.284 184.268 128.164C184.268 126.044 183.729 123.959 182.701 122.105L136.056 38.0016H165.5C169.886 38.0039 174.195 39.1603 177.993 41.3547C181.791 43.5491 184.945 46.7042 187.138 50.5033ZM83.0313 39.679C85.8933 38.5736 88.9343 38.0045 92.0024 38H126.285L172.93 122.105C173.958 123.959 174.497 126.044 174.497 128.164C174.497 130.284 173.958 132.369 172.93 134.223L126.285 218.329H92.004C88.6782 218.329 85.3523 217.646 82.3378 216.404L127.043 133.472C128.485 130.875 128.659 125.83 127.215 123.233L83.0313 39.679Z" fill="white"/>
</g>
<defs>
<linearGradient id="paint0_linear_248_2586" x1="0" y1="128" x2="256" y2="128" gradientUnits="userSpaceOnUse">
<stop stop-color="#F59E2E"/>
<stop offset="1" stop-color="#FFC388"/>
</linearGradient>
<clipPath id="clip0_248_2586">
<rect width="256" height="256" fill="white"/>
</clipPath>
</defs>
</svg>
