<svg width="256" height="256" viewBox="0 0 256 256" fill="none" xmlns="http://www.w3.org/2000/svg">
<g clip-path="url(#clip0_283_357)">
<path d="M196 0H60C26.8629 0 0 26.8629 0 60V196C0 229.137 26.8629 256 60 256H196C229.137 256 256 229.137 256 196V60C256 26.8629 229.137 0 196 0Z" fill="black"/>
<path d="M189.508 37.6084H220.175L153.175 114.192L232 218.383H170.283L121.95 155.183L66.6333 218.383H35.95L107.617 136.467L32 37.6167H95.2833L138.975 95.3834L189.508 37.6084ZM178.75 200.033H195.742L86.05 55.0001H67.8167L178.75 200.033Z" fill="white"/>
</g>
<defs>
<clipPath id="clip0_283_357">
<rect width="256" height="256" fill="white"/>
</clipPath>
</defs>
</svg>
