<svg width="256" height="256" viewBox="0 0 256 256" fill="none" xmlns="http://www.w3.org/2000/svg">
<g clip-path="url(#clip0_248_2989)">
<rect width="256" height="256" rx="60" fill="#242938"/>
<path d="M181.125 27H74.875C48.9867 27 28 47.9867 28 73.875V180.125C28 206.013 48.9867 227 74.875 227H181.125C207.013 227 228 206.013 228 180.125V73.875C228 47.9867 207.013 27 181.125 27Z" fill="#470137"/>
<path d="M132.874 89.6682L109.437 128.34L134.437 169.355C134.593 169.668 134.671 169.98 134.593 170.293C134.515 170.605 134.202 170.371 133.734 170.449H115.843C114.593 170.449 113.734 170.371 113.187 169.59C111.546 166.309 109.827 163.105 108.187 159.824C106.546 156.621 104.749 153.34 102.874 149.98C100.999 146.621 99.1244 143.262 97.2494 139.824H97.0931C95.4525 143.184 93.6556 146.543 91.8588 149.902C90.0619 153.262 88.265 156.621 86.5463 159.902C84.7494 163.184 82.9525 166.543 81.1556 169.746C80.8431 170.527 80.2181 170.605 79.3588 170.605H62.1713C61.8588 170.605 61.6244 170.762 61.6244 170.371C61.5463 170.059 61.6244 169.746 61.7806 169.512L86.0775 129.668L62.4056 89.5901C62.1713 89.2776 62.0931 88.9651 62.2494 88.8088C62.4056 88.5745 62.7181 88.4963 63.0306 88.4963H80.765C81.1556 88.4963 81.5463 88.5745 81.8588 88.6526C82.1713 88.8088 82.4056 89.0432 82.64 89.3557C84.1244 92.7151 85.8431 96.0745 87.64 99.4338C89.515 102.793 91.3119 106.074 93.265 109.355C95.14 112.637 96.8588 115.918 98.4994 119.277H98.6556C100.296 115.84 102.015 112.48 103.734 109.199C105.453 105.918 107.249 102.637 109.046 99.3557C110.843 96.0745 112.562 92.7151 114.28 89.512C114.359 89.1995 114.515 88.887 114.749 88.7307C115.062 88.5745 115.374 88.4963 115.765 88.5745H132.249C132.64 88.4963 133.03 88.7307 133.109 89.1213C133.187 89.1995 133.03 89.512 132.874 89.6682Z" fill="#FF61F6"/>
<path d="M168.968 172.091C163.187 172.169 157.406 170.997 152.171 168.575C147.249 166.309 143.187 162.559 140.374 157.95C137.484 153.184 136.077 147.247 136.077 140.138C135.999 134.356 137.484 128.653 140.374 123.653C143.343 118.575 147.64 114.356 152.796 111.544C158.265 108.497 164.827 107.013 172.562 107.013C172.952 107.013 173.499 107.013 174.202 107.091C174.906 107.169 175.687 107.169 176.624 107.247V82.559C176.624 82.0121 176.859 81.6996 177.406 81.6996H193.265C193.656 81.6215 193.968 81.934 194.046 82.2465C194.046 82.3246 194.046 82.4028 194.046 82.4028V156.778C194.046 158.184 194.124 159.747 194.202 161.466C194.359 163.106 194.437 164.669 194.515 165.997C194.515 166.544 194.281 167.013 193.734 167.247C189.671 168.966 185.374 170.216 180.999 170.997C177.015 171.7 173.031 172.091 168.968 172.091ZM176.624 156.466V122.091C175.921 121.934 175.218 121.778 174.515 121.7C173.656 121.622 172.796 121.544 171.937 121.544C168.89 121.544 165.843 122.169 163.109 123.575C160.452 124.903 158.187 126.856 156.468 129.356C154.749 131.856 153.89 135.216 153.89 139.278C153.812 142.013 154.281 144.747 155.218 147.325C155.999 149.434 157.171 151.309 158.734 152.872C160.218 154.278 162.015 155.372 164.046 155.997C166.156 156.7 168.343 157.013 170.531 157.013C171.702 157.013 172.796 156.934 173.812 156.856C174.827 156.934 175.687 156.778 176.624 156.466Z" fill="#FF61F6"/>
</g>
<defs>
<clipPath id="clip0_248_2989">
<rect width="256" height="256" fill="white"/>
</clipPath>
</defs>
</svg>
