<svg width="256" height="256" viewBox="0 0 256 256" fill="none" xmlns="http://www.w3.org/2000/svg">
<g clip-path="url(#clip0_356_349)">
<path d="M196 0H60C26.8629 0 0 26.8629 0 60V196C0 229.137 26.8629 256 60 256H196C229.137 256 256 229.137 256 196V60C256 26.8629 229.137 0 196 0Z" fill="#FF6900"/>
<path d="M216.106 70C217.14 70 218 70.8327 218 71.8577V183.156C218 184.164 217.14 185.001 216.106 185.001H191.719C190.673 185.001 189.822 184.164 189.822 183.156V71.8577C189.822 70.8333 190.672 70 191.719 70H216.106ZM110.277 70C128.673 70 147.908 70.8433 157.395 80.3367C166.722 89.6791 167.733 108.28 167.771 126.344V183.156C167.771 184.164 166.922 185.001 165.88 185.001H141.497C140.452 185.001 139.599 184.164 139.599 183.156V125.367C139.573 115.278 138.993 104.909 133.79 99.6897C129.312 95.1992 120.956 94.1708 112.267 93.9575H68.067C67.0303 93.9575 66.1817 94.7914 66.1817 95.8004V183.156C66.1817 184.164 65.3225 185.001 64.2794 185.001H39.8812C38.8386 185.001 38 184.164 38 183.156V71.8577C38 70.8333 38.838 70 39.8812 70H110.277ZM115.735 114.327C116.773 114.327 117.616 115.158 117.616 116.174V183.156C117.616 184.164 116.772 185.001 115.735 185.001H90.1215C89.0684 185.001 88.2245 184.164 88.2245 183.156V116.174C88.2245 115.158 89.0684 114.327 90.1215 114.327H115.735Z" fill="white"/>
</g>
<defs>
<clipPath id="clip0_356_349">
<rect width="256" height="256" fill="white"/>
</clipPath>
</defs>
</svg>
