<svg width="256" height="256" viewBox="0 0 256 256" fill="none" xmlns="http://www.w3.org/2000/svg">
<g clip-path="url(#clip0_356_354)">
<rect width="256" height="256" rx="60" fill="#242938"/>
<path d="M206.154 48.8968C187.285 30.1008 160.154 28 127 28C93.8038 28 66.632 30.125 47.7711 48.9718C28.9129 67.8109 27 94.9389 27 128.097C27 161.261 28.9129 188.397 47.7789 207.243C66.6386 226.092 93.8073 228 127 228C160.193 228 187.357 226.092 206.216 207.243C225.081 188.393 227 161.261 227 128.097C227 94.8964 225.061 67.739 206.154 48.8968Z" fill="#FF6900"/>
<path d="M185.029 89.9551C185.716 89.9551 186.288 90.5086 186.288 91.1898V165.169C186.288 165.839 185.716 166.395 185.029 166.395H168.819C168.124 166.395 167.558 165.839 167.558 165.169V91.1898C167.558 90.509 168.123 89.9551 168.819 89.9551H185.029ZM114.686 89.9551C126.913 89.9551 139.699 90.5156 146.004 96.8258C152.204 103.036 152.876 115.4 152.901 127.406V165.168C152.901 165.838 152.336 166.394 151.644 166.394H135.437C134.743 166.394 134.176 165.838 134.176 165.168V126.757C134.158 120.051 133.773 113.159 130.315 109.689C127.338 106.705 121.784 106.021 116.008 105.879H86.6292C85.9401 105.879 85.376 106.434 85.376 107.104V165.169C85.376 165.839 84.8049 166.395 84.1116 166.395H67.8944C67.2015 166.395 66.644 165.839 66.644 165.169V91.1898C66.644 90.509 67.2011 89.9551 67.8944 89.9551H114.686ZM118.313 119.419C119.003 119.419 119.564 119.971 119.564 120.646V165.169C119.564 165.839 119.003 166.395 118.313 166.395H101.289C100.589 166.395 100.028 165.839 100.028 165.169V120.646C100.028 119.971 100.589 119.419 101.289 119.419H118.313Z" fill="white"/>
</g>
<defs>
<clipPath id="clip0_356_354">
<rect width="256" height="256" fill="white"/>
</clipPath>
</defs>
</svg>
