<svg width="256" height="256" viewBox="0 0 256 256" fill="none" xmlns="http://www.w3.org/2000/svg">
<g clip-path="url(#clip0_248_3806)">
<rect width="256" height="256" rx="60" fill="#242938"/>
<circle cx="128" cy="128" r="100" fill="#3398C2"/>
<path d="M129.046 63.0502C130.275 63.1893 131.454 63.617 132.486 64.2984C133.53 64.9895 134.864 65.9046 138.752 73.9387C140.224 73.4111 141.825 73.3551 143.331 73.7784C144.153 74.0021 144.919 74.395 145.581 74.9322C146.242 75.4693 146.784 76.1386 147.172 76.8974C151.141 84.5128 151.668 98.0861 149.933 106.811C148.393 114.535 145.192 121.832 140.551 128.196C144.701 132.515 147.864 137.684 149.822 143.344C151.736 148.7 152.508 154.397 152.088 160.069C153.815 159.241 155.488 158.308 157.1 157.274C162.015 154.237 169.438 149.657 178.29 149.545C180.976 149.366 183.629 150.211 185.716 151.911C187.803 153.611 189.167 156.038 189.535 158.704C189.871 161.227 189.251 163.784 187.798 165.873C186.345 167.963 184.163 169.434 181.682 169.997C176.3 171.299 173.792 172.31 166.563 177.001C158.758 181.9 150.356 185.777 141.564 188.537C139.865 189.931 137.861 190.906 135.715 191.382C129.594 192.876 108.595 194 106.941 194H106.555C100.127 194 96.485 192.008 94.5239 189.921C89.061 192.652 81.9919 191.524 76.8511 188.809C75.6205 188.206 74.5454 187.327 73.7094 186.241C72.8735 185.155 72.2991 183.891 72.031 182.547C71.8403 181.451 71.8403 180.331 72.031 179.236C71.5582 178.742 71.133 178.204 70.761 177.63C67.841 172.774 66.5674 167.104 67.1299 161.465C67.5968 155.473 71.7431 150.124 74.4418 147.28C74.2177 140.858 75.3445 134.459 77.7492 128.499C80.3346 122.957 84.0696 118.028 88.7061 114.041C86.0556 109.574 83.3584 102.698 85.9762 95.6923C87.8564 90.6963 89.3987 87.9166 92.7885 86.7275C94.2675 86.2987 95.6406 85.5656 96.8196 84.5751C101.764 79.204 108.589 75.9467 115.874 75.4811C116.179 74.7107 116.533 73.8733 116.919 73.1341C119.49 67.6711 122.22 64.605 125.417 63.4953C126.575 63.0631 127.818 62.9106 129.046 63.0502ZM128.178 68.8042C123.971 68.9427 119.843 81.4094 119.843 81.4094C116.361 81.0676 112.847 81.5432 109.58 82.7982C106.314 84.0532 103.386 86.0531 101.028 88.6388C99.2813 90.323 97.1632 91.5732 94.8445 92.2885C94.1846 92.5126 93.3815 92.4784 91.3894 97.8604C88.3373 106.007 96.5955 115.23 96.5955 115.23C96.5955 115.23 86.7466 122.187 83.0985 130.846C80.664 136.784 79.6997 143.222 80.2876 149.612C80.2876 149.612 73.2839 155.683 72.8357 161.949C72.4191 166.338 73.4148 170.746 75.6776 174.53C75.8544 174.907 76.105 175.245 76.4147 175.524C76.7243 175.803 77.0868 176.017 77.4806 176.153C77.8744 176.29 78.2916 176.346 78.7074 176.318C79.1233 176.291 79.5293 176.18 79.9017 175.993C79.9017 175.993 75.2434 181.42 79.5966 183.717C83.5654 185.788 90.2485 186.931 93.7831 183.412C96.3542 180.842 96.8678 175.109 97.8157 172.763C98.0398 172.217 98.8118 173.678 99.5511 174.369C100.232 174.965 100.963 175.503 101.735 175.975C101.735 175.975 95.4718 178.674 98.0413 184.828C98.8927 186.867 101.929 188.167 106.894 188.136C108.742 188.136 128.999 186.979 134.397 185.676C136.03 185.419 137.517 184.588 138.593 183.334C147.359 180.727 155.731 176.944 163.48 172.088C171.094 167.123 174.211 165.77 180.363 164.309C185.44 163.104 185.103 155.235 178.371 155.347C171.399 155.428 165.294 159.025 160.137 162.237C150.498 168.198 145.678 167.814 145.678 167.814L145.514 167.541C144.856 166.464 148.601 156.809 144.406 145.305C139.877 132.727 132.68 129.69 133.258 128.725C135.717 124.565 141.871 117.96 144.328 105.653C145.791 98.1981 145.404 85.9244 142.095 79.4981C141.483 78.309 136.022 81.4903 136.022 81.4903C136.022 81.4903 130.912 70.0991 129.484 69.1839C129.098 68.9252 128.642 68.7925 128.178 68.8042Z" fill="white"/>
</g>
<defs>
<clipPath id="clip0_248_3806">
<rect width="256" height="256" fill="white"/>
</clipPath>
</defs>
</svg>
