<svg width="256" height="256" viewBox="0 0 256 256" fill="none" xmlns="http://www.w3.org/2000/svg">
<g clip-path="url(#clip0_248_3803)">
<path d="M196 0H60C26.8629 0 0 26.8629 0 60V196C0 229.137 26.8629 256 60 256H196C229.137 256 256 229.137 256 196V60C256 26.8629 229.137 0 196 0Z" fill="#3398C2"/>
<path d="M128.727 28.0767C130.603 28.289 132.403 28.942 133.978 29.9824C135.573 31.0374 137.609 32.4346 143.545 44.7003C145.793 43.8949 148.236 43.8093 150.535 44.4556C151.791 44.797 152.961 45.397 153.971 46.217C154.98 47.037 155.808 48.059 156.4 49.2174C162.459 60.844 163.264 81.5665 160.615 94.8873C158.264 106.68 153.377 117.82 146.292 127.536C152.627 134.13 157.457 142.021 160.446 150.663C163.368 158.84 164.546 167.538 163.906 176.197C166.542 174.933 169.097 173.508 171.557 171.93C179.061 167.294 190.393 160.301 203.909 160.13C208.009 159.856 212.06 161.147 215.246 163.742C218.431 166.337 220.515 170.043 221.077 174.113C221.589 177.965 220.643 181.869 218.424 185.059C216.206 188.249 212.875 190.494 209.086 191.355C200.87 193.341 197.042 194.886 186.004 202.048C174.088 209.527 161.261 215.446 147.838 219.66C145.244 221.788 142.185 223.276 138.909 224.003C129.563 226.284 97.5042 228 94.9783 228H94.389C84.5754 228 79.0152 224.958 76.0213 221.772C67.6809 225.942 56.8884 224.22 49.0399 220.075C47.161 219.154 45.5197 217.813 44.2434 216.154C42.9672 214.496 42.0903 212.566 41.6809 210.514C41.3898 208.842 41.3898 207.132 41.6809 205.46C40.959 204.705 40.3099 203.884 39.742 203.008C35.284 195.593 33.3396 186.937 34.1984 178.329C34.9112 169.18 41.2413 161.014 45.3616 156.672C45.0194 146.867 46.7396 137.098 50.411 127.999C54.3582 119.538 60.0605 112.013 67.1391 105.925C63.0925 99.105 58.9746 88.6071 62.9714 77.912C65.8418 70.2845 68.1965 66.0406 73.3718 64.2253C75.6298 63.5706 77.726 62.4513 79.5261 60.939C87.0746 52.739 97.4947 47.7659 108.617 47.0551C109.083 45.8789 109.623 44.6005 110.212 43.4718C114.137 35.1315 118.305 30.4505 123.186 28.7563C124.953 28.0964 126.852 27.8635 128.727 28.0767ZM127.401 36.8613C120.978 37.0728 114.677 56.1059 114.677 56.1059C109.36 55.5842 103.995 56.3102 99.0082 58.2263C94.0215 60.1424 89.5506 63.1956 85.9512 67.1432C83.2844 69.7145 80.0507 71.6232 76.5107 72.7153C75.5032 73.0575 74.2771 73.0052 71.2357 81.222C66.576 93.6588 79.1839 107.74 79.1839 107.74C79.1839 107.74 64.1476 118.361 58.5778 131.582C54.8611 140.647 53.3889 150.476 54.2865 160.232C54.2865 160.232 43.5937 169.501 42.9094 179.068C42.2734 185.769 43.7935 192.497 47.2483 198.274C47.5181 198.85 47.9007 199.367 48.3735 199.792C48.8463 200.218 49.3997 200.545 50.0009 200.753C50.6022 200.961 51.239 201.047 51.8739 201.005C52.5088 200.963 53.1288 200.794 53.6972 200.508C53.6972 200.508 46.5853 208.793 53.2315 212.301C59.2907 215.463 69.4939 217.207 74.8902 211.835C78.8156 207.912 79.5997 199.158 81.0468 195.577C81.389 194.743 82.5676 196.974 83.6963 198.029C84.7363 198.939 85.8515 199.76 87.03 200.482C87.03 200.482 77.4683 204.602 81.3914 213.997C82.6911 217.11 87.327 219.094 94.907 219.047C97.7275 219.047 128.656 217.281 136.896 215.292C139.389 214.899 141.66 213.631 143.302 211.716C156.685 207.736 169.467 201.96 181.297 194.546C192.921 186.966 197.681 184.901 207.074 182.67C214.825 180.831 214.309 168.817 204.032 168.988C193.387 169.112 184.068 174.603 176.193 179.507C161.478 188.608 154.119 188.021 154.119 188.021L153.869 187.605C152.864 185.961 158.581 171.219 152.177 153.657C145.263 134.453 134.275 129.817 135.157 128.344C138.911 121.992 148.307 111.908 152.059 93.1194C154.292 81.7376 153.7 62.9992 148.649 53.188C147.715 51.3726 139.377 56.2295 139.377 56.2295C139.377 56.2295 131.576 38.8383 129.395 37.4411C128.806 37.0461 128.11 36.8435 127.401 36.8613Z" fill="white"/>
</g>
<defs>
<clipPath id="clip0_248_3803">
<rect width="256" height="256" fill="white"/>
</clipPath>
</defs>
</svg>
