<svg width="256" height="256" viewBox="0 0 256 256" fill="none" xmlns="http://www.w3.org/2000/svg">
<g clip-path="url(#clip0_248_4768)">
<rect width="256" height="256" rx="60" fill="white"/>
<path d="M128.068 204.909C173.393 204.909 210.137 168.278 210.137 123.09C210.137 77.9039 173.393 41.2727 128.068 41.2727C82.7433 41.2727 46 77.9039 46 123.09C46 168.278 82.7433 204.909 128.068 204.909Z" fill="#B3E1CE"/>
<path d="M128.848 126.474L49.2832 38" stroke="#444444" stroke-width="12" stroke-linecap="round"/>
<path d="M128.847 126.474L208.412 38" stroke="#444444" stroke-width="12" stroke-linecap="round"/>
<path d="M128.847 126.474V218" stroke="#444444" stroke-width="12" stroke-linecap="round"/>
<path d="M128.068 149.273C140.76 149.273 151.048 139.016 151.048 126.364C151.048 113.711 140.76 103.454 128.068 103.454C115.378 103.454 105.09 113.711 105.09 126.364C105.09 139.016 115.378 149.273 128.068 149.273Z" fill="#009A5B" stroke="#444444" stroke-width="8"/>
</g>
<defs>
<clipPath id="clip0_248_4768">
<rect width="256" height="256" fill="white"/>
</clipPath>
</defs>
</svg>
