<svg width="256" height="256" viewBox="0 0 256 256" fill="none" xmlns="http://www.w3.org/2000/svg">
<g clip-path="url(#clip0_313_156)">
<path d="M196 0H60C26.8629 0 0 26.8629 0 60V196C0 229.137 26.8629 256 60 256H196C229.137 256 256 229.137 256 196V60C256 26.8629 229.137 0 196 0Z" fill="#FF0033"/>
<path d="M109 159L160.9 129L109 99V159ZM224.6 80.7C225.9 85.4 226.8 91.7 227.4 99.7C228.1 107.7 228.4 114.6 228.4 120.6L229 129C229 150.9 227.4 167 224.6 177.3C222.1 186.3 216.3 192.1 207.3 194.6C202.6 195.9 194 196.8 180.8 197.4C167.8 198.1 155.9 198.4 144.9 198.4L129 199C87.1 199 61 197.4 50.7 194.6C41.7 192.1 35.9 186.3 33.4 177.3C32.1 172.6 31.2 166.3 30.6 158.3C29.9 150.3 29.6 143.4 29.6 137.4L29 129C29 107.1 30.6 91 33.4 80.7C35.9 71.7 41.7 65.9 50.7 63.4C55.4 62.1 64 61.2 77.2 60.6C90.2 59.9 102.1 59.6 113.1 59.6L129 59C170.9 59 197 60.6 207.3 63.4C216.3 65.9 222.1 71.7 224.6 80.7Z" fill="white"/>
</g>
<defs>
<clipPath id="clip0_313_156">
<rect width="256" height="256" fill="white"/>
</clipPath>
</defs>
</svg>
