<svg width="256" height="256" viewBox="0 0 256 256" fill="none" xmlns="http://www.w3.org/2000/svg">
<g clip-path="url(#clip0_313_163)">
<rect width="256" height="256" rx="60" fill="#242938"/>
<rect x="104" y="92" width="58" height="66" fill="white"/>
<path d="M109 158L160.9 128L109 98V158ZM224.6 79.7C225.9 84.4 226.8 90.7 227.4 98.7C228.1 106.7 228.4 113.6 228.4 119.6L229 128C229 149.9 227.4 166 224.6 176.3C222.1 185.3 216.3 191.1 207.3 193.6C202.6 194.9 194 195.8 180.8 196.4C167.8 197.1 155.9 197.4 144.9 197.4L129 198C87.1 198 61 196.4 50.7 193.6C41.7 191.1 35.9 185.3 33.4 176.3C32.1 171.6 31.2 165.3 30.6 157.3C29.9 149.3 29.6 142.4 29.6 136.4L29 128C29 106.1 30.6 90 33.4 79.7C35.9 70.7 41.7 64.9 50.7 62.4C55.4 61.1 64 60.2 77.2 59.6C90.2 58.9 102.1 58.6 113.1 58.6L129 58C170.9 58 197 59.6 207.3 62.4C216.3 64.9 222.1 70.7 224.6 79.7Z" fill="#FF0033"/>
</g>
<defs>
<clipPath id="clip0_313_163">
<rect width="256" height="256" fill="white"/>
</clipPath>
</defs>
</svg>
