<svg width="256" height="256" viewBox="0 0 256 256" fill="none" xmlns="http://www.w3.org/2000/svg">
<g clip-path="url(#clip0_313_170)">
<rect width="256" height="256" rx="60" fill="white"/>
<path d="M108 158L159.9 128L108 98V158ZM223.6 79.7C224.9 84.4 225.8 90.7 226.4 98.7C227.1 106.7 227.4 113.6 227.4 119.6L228 128C228 149.9 226.4 166 223.6 176.3C221.1 185.3 215.3 191.1 206.3 193.6C201.6 194.9 193 195.8 179.8 196.4C166.8 197.1 154.9 197.4 143.9 197.4L128 198C86.1 198 60 196.4 49.7 193.6C40.7 191.1 34.9 185.3 32.4 176.3C31.1 171.6 30.2 165.3 29.6 157.3C28.9 149.3 28.6 142.4 28.6 136.4L28 128C28 106.1 29.6 90 32.4 79.7C34.9 70.7 40.7 64.9 49.7 62.4C54.4 61.1 63 60.2 76.2 59.6C89.2 58.9 101.1 58.6 112.1 58.6L128 58C169.9 58 196 59.6 206.3 62.4C215.3 64.9 221.1 70.7 223.6 79.7Z" fill="#FF0033"/>
</g>
<defs>
<clipPath id="clip0_313_170">
<rect width="256" height="256" fill="white"/>
</clipPath>
</defs>
</svg>
