<svg width="256" height="256" viewBox="0 0 256 256" fill="none" xmlns="http://www.w3.org/2000/svg">
<g clip-path="url(#clip0_248_6370)">
<rect width="256" height="256" rx="60" fill="#242938"/>
<path d="M92.1177 71.8828L70.9413 97.7651L60.353 81.2945L92.1177 71.8828Z" fill="#F7A41D"/>
<path d="M92.1176 71.8828L76.8235 84.8239L70.9412 97.7651H63.8824V157.765H74.4706L61.5294 163.647L52.1176 183.647H38V71.8828H92.1176Z" fill="#F7A41D"/>
<path d="M74.4708 157.766L52.1178 183.648L42.7061 170.707L74.4708 157.766Z" fill="#F7A41D"/>
<path d="M103.882 71.8828L110.941 88.3534L81.5293 97.7652L103.882 71.8828Z" fill="#F7A41D"/>
<path d="M103.882 71.8828H168.588V97.7652H81.5293L103.882 83.6476V71.8828Z" fill="#F7A41D"/>
<path d="M174.471 157.766L152.118 183.648L143.882 168.354L174.471 157.766Z" fill="#F7A41D"/>
<path d="M174.47 157.766L155.647 168.354L152.117 183.648H87.4116V157.766H174.47Z" fill="#F7A41D"/>
<path d="M214.47 46L99.1764 183.647L41.5293 210.706L156.823 71.8824L214.47 46Z" fill="#F7A41D"/>
<path d="M203.883 71.8828L202.706 93.0592L181.53 98.9416L203.883 71.8828Z" fill="#F7A41D"/>
<path d="M218 71.8828V183.647H162.706L179.177 169.53L185.059 157.765H192.118V98.9416H181.53L193.294 88.3534L203.883 71.8828H218Z" fill="#F7A41D"/>
<path d="M185.059 157.766L190.941 175.413L162.706 183.648L185.059 157.766Z" fill="#F7A41D"/>
</g>
<defs>
<clipPath id="clip0_248_6370">
<rect width="256" height="256" fill="white"/>
</clipPath>
</defs>
</svg>
