<svg width="256" height="256" viewBox="0 0 256 256" fill="none" xmlns="http://www.w3.org/2000/svg">
<g clip-path="url(#clip0_248_6356)">
<path d="M196 0H60C26.8629 0 0 26.8629 0 60V196C0 229.137 26.8629 256 60 256H196C229.137 256 256 229.137 256 196V60C256 26.8629 229.137 0 196 0Z" fill="#F7A41D"/>
<path d="M88.1308 64.7588L64.6014 93.5169L52.8367 75.2162L88.1308 64.7588Z" fill="white"/>
<path d="M88.1306 64.7588L71.1372 79.1378L64.6013 93.5169H56.7582V160.184H68.5229L54.1438 166.719L43.6862 188.942H28V64.7588H88.1306Z" fill="white"/>
<path d="M68.5231 160.184L43.6864 188.942L33.229 174.563L68.5231 160.184Z" fill="white"/>
<path d="M101.202 64.7588L109.046 83.0594L76.366 93.517L101.202 64.7588Z" fill="white"/>
<path d="M101.202 64.7588H173.098V93.517H76.366L101.202 77.8308V64.7588Z" fill="white"/>
<path d="M179.634 160.184L154.798 188.942L145.646 171.949L179.634 160.184Z" fill="white"/>
<path d="M179.633 160.184L158.719 171.949L154.797 188.942H82.9019V160.184H179.633Z" fill="white"/>
<path d="M224.078 36L95.9737 188.941L31.9214 219.007L160.025 64.7582L224.078 36Z" fill="white"/>
<path d="M212.314 64.7588L211.006 88.2881L187.478 94.8241L212.314 64.7588Z" fill="white"/>
<path d="M228 64.7588V188.942H166.562L184.863 173.256L191.399 160.184H199.242V94.8241H187.478L200.549 83.0595L212.314 64.7588H228Z" fill="white"/>
<path d="M191.399 160.184L197.934 179.792L166.562 188.942L191.399 160.184Z" fill="white"/>
</g>
<defs>
<clipPath id="clip0_248_6356">
<rect width="256" height="256" fill="white"/>
</clipPath>
</defs>
</svg>
