<svg width="199" height="200" viewBox="0 0 199 200" fill="none" xmlns="http://www.w3.org/2000/svg">
<path fill-rule="evenodd" clip-rule="evenodd" d="M92.7227 4.18073C91.5345 11.6864 85.5821 12.0855 83.2079 4.81921C81.5922 -0.123534 77.5935 0.0146368 78.0868 4.99581C78.8386 12.5868 72.9187 15.0869 69.2133 8.74345C67.8803 6.46234 66.6295 5.39391 65.7085 5.75055C64.9212 6.05578 63.9681 6.30569 63.5908 6.30569C63.213 6.30569 63.0747 8.10988 63.2832 10.3152C63.9582 17.4657 59.6075 19.5692 55.1668 14.2389C51.7844 10.1785 48.1231 11.4595 49.8559 16.0964C52.4235 22.9677 47.9394 26.6374 42.3762 22.2175C40.3188 20.5828 39.3993 20.3898 37.7987 21.2552C35.4051 22.5487 35.4387 22.2369 37.2906 25.987C40.1317 31.7389 36.1839 34.8479 30.4088 31.4061C25.5771 28.5265 22.9201 31.1278 25.9504 35.7713C29.7822 41.6423 26.2917 46.0429 20.2278 42.9876C16.0073 40.8607 13.949 43.9788 16.9925 47.8875C21.0825 53.1396 18.0666 58.2653 12.2008 56.0322C10.9029 55.5379 9.777 55.2586 9.69897 55.4112C9.62035 55.5638 9.00113 56.4253 8.32255 57.3257C7.28253 58.7058 7.57489 59.4536 10.1864 62.0913C14.0399 65.9841 12.6709 69.4289 7.04893 69.9861C1.55143 70.5308 0.616171 73.7186 5.18322 76.3435C9.93797 79.0764 7.74186 85.1183 1.99396 85.1183C-0.995312 85.1183 -0.161169 89.3715 3.20783 91.3075C7.33393 93.6798 7.33098 97.8161 3.20105 99.3905C0.0162132 100.605 -1.28551 106.069 1.60991 106.069C7.35034 106.069 8.06744 112.989 2.54675 115.109C0.839938 115.765 0.227108 116.574 0.6316 117.637C0.958555 118.498 1.22566 119.614 1.22566 120.117C1.22566 120.621 2.47019 121.033 3.99117 121.033C9.45957 121.033 10.9351 125.987 6.52465 129.54C3.43907 132.024 4.53442 136.242 8.02547 135.319C13.1999 133.953 15.8401 139.449 11.9954 143.582C8.91878 146.89 10.6438 149.286 16.1749 149.387C21.1825 149.479 22.3988 152.117 19.4965 156.591C17.121 160.254 19.694 163.25 23.8531 161.665C28.919 159.733 31.9458 164.057 28.9161 168.897C27.1477 171.721 30.5655 174.11 33.8901 172.375C39.3056 169.546 42.7403 172.067 40.7333 177.399C39.4522 180.803 39.4142 180.642 41.8029 181.933C43.3932 182.793 44.2347 182.722 45.5068 181.622C50.0773 177.667 54.1753 179.749 53.2429 185.552C52.4685 190.374 55.4583 191.865 58.9087 188.381C62.8837 184.365 68.5294 187.4 67.1309 192.8C66.8335 193.95 67.2192 194.957 68.0849 195.292C70.7487 196.325 71.9949 195.877 73.299 193.414C75.8934 188.518 80.3894 189.872 81.5844 195.906C82.3588 199.816 86.616 200.155 87.5535 196.384C88.9136 190.907 94.2429 190.948 96.2123 196.45C97.7483 200.742 101.578 201.272 102.558 197.329C103.964 191.67 108.847 190.961 111.447 196.038C113.548 200.142 116.957 199.591 117.882 194.997C119.254 188.177 125.153 187.484 127.17 193.906C127.588 195.233 128.367 195.791 129.302 195.429C130.112 195.115 131.158 194.858 131.628 194.858C132.097 194.858 132.616 192.725 132.781 190.119C133.163 184.112 136.81 182.877 140.432 187.529C143.583 191.574 145.92 189.763 145.922 183.277C145.923 177.409 148.622 176.221 153.569 179.915C157.415 182.786 159.978 180.944 158.309 176.509C155.698 169.574 158.942 166.361 164.944 169.937C170.082 173 171.899 170.681 168.817 164.995C165.623 159.106 170.119 155.46 175.703 159.411C179.684 162.227 182.107 157.742 178.602 154.046C174.039 149.235 175.262 146.473 181.957 146.473C188.579 146.473 189.438 144.689 184.984 140.191C179.936 135.091 181.736 131.579 189.095 132.167C194.653 132.612 195.864 129.112 190.875 127.024C183.333 123.869 185.449 117.582 193.971 117.826C196.425 117.897 199.036 114.011 197.01 113.3C187.64 110.013 186.209 104.049 194.419 102.492C199.103 101.605 199.269 97.6412 194.66 96.7106C186.787 95.1195 187.078 88.5971 195.112 86.5708C199.937 85.3551 198.372 81.6758 192.928 81.433C185.166 81.0871 183.662 74.9441 190.601 71.933C192.102 71.2809 193.464 70.6674 193.627 70.5686C195.983 69.1376 192.222 65.5435 189.312 66.4455C180.367 69.2189 178.226 62.3841 186.295 56.8108C190.027 54.2335 186.734 50.9592 182.294 52.8328C174.801 55.9952 171.197 50.2664 176.994 44.4102C180.903 40.4621 178.283 36.704 173.725 39.7204C167.513 43.8311 162.109 37.9476 167.112 32.523C171.094 28.2063 167.379 25.0542 162.848 28.9046C156.887 33.9706 151.634 30.2967 155.003 23.4186C157.81 17.6887 154.875 14.0299 151.228 18.7128C145.058 26.6359 139.706 22.7407 142.936 12.6781C143.469 11.018 143.124 10.4414 141.31 9.95997C140.045 9.62427 138.868 9.76451 138.696 10.2718C135.796 18.8245 125.945 17.2926 128.099 8.62366C129.015 4.9394 129.006 4.91896 126.15 4.14732C124.214 3.6245 123.699 3.858 123.699 5.25967C123.699 7.83256 119.918 12.2915 117.736 12.2915C115.347 12.2915 113.823 9.40129 113.823 4.87454C113.823 2.91821 113.414 1.31754 112.916 1.31754C112.417 1.31754 111.306 1.04513 110.446 0.711984C109.408 0.309949 108.884 0.662061 108.884 1.75899C108.884 10.609 100.013 12.2336 98.4225 3.67443C97.4663 -1.47381 93.5629 -1.1272 92.7227 4.18073ZM115.286 20.7853C149.315 28.0655 145.083 51.7863 107.403 64.9764C57.9244 82.2978 18.1185 66.9473 44.4686 40.7081C61.2801 23.9668 91.0353 15.5961 115.287 20.7853H115.286ZM153.822 49.2009C156.268 51.9319 155.989 57.2064 153.28 59.4216C146.536 64.9381 137.342 55.3778 143.453 49.2039C146.062 46.5687 151.461 46.5671 153.822 49.2009ZM165.567 66.5518C182.189 73.5673 183.853 111.977 168.752 140.064C159.558 157.163 144.006 169.781 134.954 167.486C108.245 160.715 132.27 69.8829 162.004 65.21C162.158 65.186 163.761 65.7896 165.567 66.5518ZM39.3583 74.66C44.4039 79.7565 39.7479 88.607 33.1813 86.4027C27.2447 84.4117 26.2818 76.6314 31.6098 73.7117C35.3769 71.6467 36.5128 71.7859 39.3583 74.66ZM103.7 81.2954C112.765 83.6009 120.04 94.7147 118.209 103.463C114.102 123.083 87.636 125.956 80.6724 107.537C74.893 92.2529 88.0105 77.3046 103.7 81.2954ZM46.8158 98.8431C77.0432 113.874 106.752 158.003 96.7479 173.012C84.9866 190.661 42.717 168.6 26.6112 136.409C11.4995 106.204 22.0747 86.5413 46.8158 98.8431ZM118.312 161.392C122.316 165.436 121.194 170.652 115.841 172.892C110.059 175.311 104.441 168.719 107.385 162.968C109.791 158.27 114.542 157.584 118.312 161.392Z" fill="white"/>
</svg>
